ISO-10303-21;
HEADER;
FILE_DESCRIPTION (( 'STEP AP203' ),
    '1' );
FILE_NAME ('c_Default_sldprt.STEP',
    '2026-09-21T17:22:15',
    ( '' ),
    ( '' ),
    'SwSTEP 2.0',
    'SolidWorks 2021',
    '' );
FILE_SCHEMA (( 'CONFIG_CONTROL_DESIGN' ));
ENDSEC;

DATA;
#1 = LINE ( 'NONE', #66, #70 ) ;
#2 = VECTOR ( 'NONE', #72, 1000.000000000000000 ) ;
#3 = CARTESIAN_POINT ( 'NONE',  ( -231.4999999999999716, 0.000000000000000000, 25.00000000000000000 ) ) ;
#4 = PERSON_AND_ORGANIZATION ( #126, #99 ) ;
#5 = FACE_OUTER_BOUND ( 'NONE', #287, .T. ) ;
#6 = PRODUCT ( 'c_Default_sldprt', 'c_Default_sldprt', '', ( #294 ) ) ;
#7 = CIRCLE ( 'NONE', #216, 7.500000000000007105 ) ;
#8 = CARTESIAN_POINT ( 'NONE',  ( -223.9999999999999716, 0.000000000000000000, 25.00000000000000000 ) ) ;
#9 = FACE_OUTER_BOUND ( 'NONE', #353, .T. ) ;
#10 = DIRECTION ( 'NONE',  ( 0.000000000000000000, 0.000000000000000000, 1.000000000000000000 ) ) ;
#11 = CARTESIAN_POINT ( 'NONE',  ( 243.9999999999999716, 12.50000000000000178, 12.50000000000000000 ) ) ;
#12 = DIRECTION ( 'NONE',  ( 0.000000000000000000, -1.000000000000000000, 0.000000000000000000 ) ) ;
#13 = LINE ( 'NONE', #187, #347 ) ;
#14 = EDGE_LOOP ( 'NONE', ( #118, #367, #145, #256 ) ) ;
#15 = ADVANCED_FACE ( 'NONE', ( #261, #142, #115 ), #86, .T. ) ;
#16 = ORIENTED_EDGE ( 'NONE', *, *, #152, .T. ) ;
#17 = EDGE_CURVE ( 'NONE', #342, #333, #202, .T. ) ;
#18 = CALENDAR_DATE ( 2026, 21, 9 ) ;
#19 = VECTOR ( 'NONE', #245, 1000.000000000000000 ) ;
#20 = PERSON_AND_ORGANIZATION_ROLE ( 'creator' ) ;
#21 = PLANE ( 'NONE',  #262 ) ;
#22 = AXIS2_PLACEMENT_3D ( 'NONE', #275, #308, #111 ) ;
#23 = ORIENTED_EDGE ( 'NONE', *, *, #277, .T. ) ;
#24 = EDGE_CURVE ( 'NONE', #342, #345, #305, .T. ) ;
#25 = LOCAL_TIME ( 22, 52, 15.00000000000000000, #95 ) ;
#26 = ORIENTED_EDGE ( 'NONE', *, *, #277, .F. ) ;
#27 = DIRECTION ( 'NONE',  ( 0.000000000000000000, -1.000000000000000000, 0.000000000000000000 ) ) ;
#28 = PERSON_AND_ORGANIZATION_ROLE ( 'creator' ) ;
#29 = PLANE ( 'NONE',  #107 ) ;
#30 = CIRCLE ( 'NONE', #270, 7.500000000000007105 ) ;
#31 = PERSON_AND_ORGANIZATION ( #126, #99 ) ;
#32 = CC_DESIGN_PERSON_AND_ORGANIZATION_ASSIGNMENT ( #4, #354, ( #134 ) ) ;
#33 = CARTESIAN_POINT ( 'NONE',  ( 243.9999999999999716, -12.49999999999999822, 25.00000000000000000 ) ) ;
#34 = AXIS2_PLACEMENT_3D ( 'NONE', #306, #343, #10 ) ;
#35 = SECURITY_CLASSIFICATION_LEVEL ( 'unclassified' ) ;
#36 = CARTESIAN_POINT ( 'NONE',  ( -216.4999999999999716, 9.184850993605173582E-16, 25.00000000000000000 ) ) ;
#37 = EDGE_CURVE ( 'NONE', #140, #217, #286, .T. ) ;
#38 = DIRECTION ( 'NONE',  ( -1.000000000000000000, 0.000000000000000000, 0.000000000000000000 ) ) ;
#39 = DIRECTION ( 'NONE',  ( 0.000000000000000000, 1.000000000000000000, 0.000000000000000000 ) ) ;
#40 = LOCAL_TIME ( 22, 52, 15.00000000000000000, #169 ) ;
#41 = DIRECTION ( 'NONE',  ( -0.000000000000000000, -0.000000000000000000, -1.000000000000000000 ) ) ;
#42 = ADVANCED_FACE ( 'NONE', ( #146 ), #21, .F. ) ;
#43 = DIRECTION ( 'NONE',  ( 1.000000000000000000, 0.000000000000000000, 0.000000000000000000 ) ) ;
#44 = ORIENTED_EDGE ( 'NONE', *, *, #341, .F. ) ;
#45 = CARTESIAN_POINT ( 'NONE',  ( -244.0000000000000284, -12.49999999999999822, 12.50000000000000000 ) ) ;
#46 = AXIS2_PLACEMENT_3D ( 'NONE', #332, #49, #303 ) ;
#47 = CARTESIAN_POINT ( 'NONE',  ( -244.0000000000000284, -12.49999999999999822, 25.00000000000000000 ) ) ;
#48 = ORIENTED_EDGE ( 'NONE', *, *, #132, .F. ) ;
#49 = DIRECTION ( 'NONE',  ( 1.000000000000000000, 0.000000000000000000, -0.000000000000000000 ) ) ;
#50 = AXIS2_PLACEMENT_3D ( 'NONE', #355, #148, #98 ) ;
#51 = UNCERTAINTY_MEASURE_WITH_UNIT (LENGTH_MEASURE( 1.000000000000000082E-05 ), #254, 'distance_accuracy_value', 'NONE');
#52 = DATE_AND_TIME ( #139, #242 ) ;
#53 = EDGE_LOOP ( 'NONE', ( #219, #316 ) ) ;
#54 = APPROVAL_DATE_TIME ( #121, #214 ) ;
#55 = DIRECTION ( 'NONE',  ( 1.000000000000000000, 0.000000000000000000, 0.000000000000000000 ) ) ;
#56 = DIRECTION ( 'NONE',  ( 1.000000000000000000, 0.000000000000000000, 0.000000000000000000 ) ) ;
#57 = ORIENTED_EDGE ( 'NONE', *, *, #337, .F. ) ;
#58 = EDGE_CURVE ( 'NONE', #339, #333, #138, .T. ) ;
#59 = EDGE_LOOP ( 'NONE', ( #376, #276, #200, #16 ) ) ;
#60 = EDGE_CURVE ( 'NONE', #140, #172, #1, .T. ) ;
#61 = DIRECTION ( 'NONE',  ( 0.000000000000000000, 0.000000000000000000, 1.000000000000000000 ) ) ;
#62 = ORIENTED_EDGE ( 'NONE', *, *, #24, .F. ) ;
#63 = APPROVAL_STATUS ( 'not_yet_approved' ) ;
#64 = DIRECTION ( 'NONE',  ( 1.000000000000000000, 0.000000000000000000, 0.000000000000000000 ) ) ;
#65 = PERSON_AND_ORGANIZATION_ROLE ( 'design_owner' ) ;
#66 = CARTESIAN_POINT ( 'NONE',  ( 243.9999999999999716, 12.50000000000000178, 25.00000000000000000 ) ) ;
#67 = LINE ( 'NONE', #147, #352 ) ;
#68 = CLOSED_SHELL ( 'NONE', ( #129, #223, #15, #314, #42, #324, #83, #163, #89, #105 ) ) ;
#69 = CARTESIAN_POINT ( 'NONE',  ( -244.0000000000000284, 12.50000000000000178, 12.50000000000000000 ) ) ;
#70 = VECTOR ( 'NONE', #209, 1000.000000000000000 ) ;
#71 = DIRECTION ( 'NONE',  ( 0.000000000000000000, 0.000000000000000000, 1.000000000000000000 ) ) ;
#72 = DIRECTION ( 'NONE',  ( -1.000000000000000000, -0.000000000000000000, -0.000000000000000000 ) ) ;
#73 = ORIENTED_EDGE ( 'NONE', *, *, #58, .F. ) ;
#74 = APPROVAL ( #63, 'UNSPECIFIED' ) ;
#75 = FACE_OUTER_BOUND ( 'NONE', #230, .T. ) ;
#76 = CIRCLE ( 'NONE', #288, 7.500000000000007105 ) ;
#77 = CARTESIAN_POINT ( 'NONE',  ( 243.9999999999999716, 12.50000000000000178, 25.00000000000000000 ) ) ;
#78 = LINE ( 'NONE', #193, #2 ) ;
#79 = ORIENTED_EDGE ( 'NONE', *, *, #37, .T. ) ;
#80 = DIRECTION ( 'NONE',  ( 0.000000000000000000, 0.000000000000000000, 1.000000000000000000 ) ) ;
#81 = ORIENTED_EDGE ( 'NONE', *, *, #240, .F. ) ;
#82 = EDGE_LOOP ( 'NONE', ( #166, #351 ) ) ;
#83 = ADVANCED_FACE ( 'NONE', ( #9 ), #29, .F. ) ;
#84 = APPROVAL_PERSON_ORGANIZATION ( #196, #92, #312 ) ;
#85 = VERTEX_POINT ( 'NONE', #156 ) ;
#86 = PLANE ( 'NONE',  #117 ) ;
#87 = VECTOR ( 'NONE', #329, 1000.000000000000000 ) ;
#88 = DIRECTION ( 'NONE',  ( -0.000000000000000000, -0.000000000000000000, -1.000000000000000000 ) ) ;
#89 = ADVANCED_FACE ( 'NONE', ( #326 ), #362, .F. ) ;
#90 = LOCAL_TIME ( 22, 52, 15.00000000000000000, #178 ) ;
#91 = ORIENTED_EDGE ( 'NONE', *, *, #24, .T. ) ;
#92 = APPROVAL ( #194, 'UNSPECIFIED' ) ;
#93 = DATE_AND_TIME ( #18, #25 ) ;
#94 = CARTESIAN_POINT ( 'NONE',  ( -244.0000000000000284, -12.49999999999999822, 12.50000000000000000 ) ) ;
#95 = COORDINATED_UNIVERSAL_TIME_OFFSET ( 5, 30, .AHEAD. ) ;
#96 = AXIS2_PLACEMENT_3D ( 'NONE', #130, #234, #241 ) ;
#97 = FACE_OUTER_BOUND ( 'NONE', #231, .T. ) ;
#98 = DIRECTION ( 'NONE',  ( -1.000000000000000000, 0.000000000000000000, 0.000000000000000000 ) ) ;
#99 = ORGANIZATION ( 'UNSPECIFIED', 'UNSPECIFIED', '' ) ;
#100 = CARTESIAN_POINT ( 'NONE',  ( 216.5000000000000284, 0.000000000000000000, 25.00000000000000000 ) ) ;
#101 = DIRECTION ( 'NONE',  ( 0.000000000000000000, 0.000000000000000000, 1.000000000000000000 ) ) ;
#102 = EDGE_CURVE ( 'NONE', #225, #175, #321, .T. ) ;
#103 = LINE ( 'NONE', #213, #124 ) ;
#104 = ORIENTED_EDGE ( 'NONE', *, *, #212, .F. ) ;
#105 = ADVANCED_FACE ( 'NONE', ( #154, #122, #5 ), #363, .F. ) ;
#106 = PLANE ( 'NONE',  #46 ) ;
#107 = AXIS2_PLACEMENT_3D ( 'NONE', #151, #39, #237 ) ;
#108 = EDGE_CURVE ( 'NONE', #85, #229, #67, .T. ) ;
#109 = DIRECTION ( 'NONE',  ( 0.000000000000000000, -1.000000000000000000, 0.000000000000000000 ) ) ;
#110 = VERTEX_POINT ( 'NONE', #179 ) ;
#111 = DIRECTION ( 'NONE',  ( -1.000000000000000000, 0.000000000000000000, 0.000000000000000000 ) ) ;
#112 = EDGE_LOOP ( 'NONE', ( #253, #373, #293, #189 ) ) ;
#113 = DIRECTION ( 'NONE',  ( 0.000000000000000000, -0.000000000000000000, -1.000000000000000000 ) ) ;
#114 = VECTOR ( 'NONE', #311, 1000.000000000000000 ) ;
#115 = FACE_BOUND ( 'NONE', #304, .T. ) ;
#116 = VERTEX_POINT ( 'NONE', #36 ) ;
#117 = AXIS2_PLACEMENT_3D ( 'NONE', #174, #197, #56 ) ;
#118 = ORIENTED_EDGE ( 'NONE', *, *, #173, .T. ) ;
#119 = PERSON_AND_ORGANIZATION ( #126, #99 ) ;
#120 = DIRECTION ( 'NONE',  ( 1.000000000000000000, -0.000000000000000000, -0.000000000000000000 ) ) ;
#121 = DATE_AND_TIME ( #226, #40 ) ;
#122 = FACE_BOUND ( 'NONE', #162, .T. ) ;
#123 = DATE_TIME_ROLE ( 'classification_date' ) ;
#124 = VECTOR ( 'NONE', #137, 1000.000000000000000 ) ;
#125 = DIRECTION ( 'NONE',  ( -0.000000000000000000, -0.000000000000000000, -1.000000000000000000 ) ) ;
#127 = DIRECTION ( 'NONE',  ( 0.000000000000000000, 0.000000000000000000, 1.000000000000000000 ) ) ;
#126 = PERSON ( 'UNSPECIFIED', 'UNSPECIFIED', 'UNSPECIFIED', ('UNSPECIFIED'), ('UNSPECIFIED'), ('UNSPECIFIED') ) ;
#128 = APPLICATION_CONTEXT ( 'configuration controlled 3d designs of mechanical parts and assemblies' ) ;
#129 = ADVANCED_FACE ( 'NONE', ( #265 ), #182, .F. ) ;
#130 = CARTESIAN_POINT ( 'NONE',  ( -223.9999999999999716, 0.000000000000000000, 12.50000000000000000 ) ) ;
#131 = CARTESIAN_POINT ( 'NONE',  ( 216.5000000000000284, 0.000000000000000000, 12.50000000000000000 ) ) ;
#132 = EDGE_CURVE ( 'NONE', #345, #339, #295, .T. ) ;
#133 = CARTESIAN_POINT ( 'NONE',  ( -244.0000000000000284, 12.50000000000000178, 25.00000000000000000 ) ) ;
#134 = SECURITY_CLASSIFICATION ( '', '', #35 ) ;
#135 = FACE_OUTER_BOUND ( 'NONE', #14, .T. ) ;
#136 = ORIENTED_EDGE ( 'NONE', *, *, #341, .T. ) ;
#137 = DIRECTION ( 'NONE',  ( -0.000000000000000000, -0.000000000000000000, -1.000000000000000000 ) ) ;
#138 = CIRCLE ( 'NONE', #382, 7.500000000000007105 ) ;
#139 = CALENDAR_DATE ( 2026, 21, 9 ) ;
#140 = VERTEX_POINT ( 'NONE', #33 ) ;
#141 = COORDINATED_UNIVERSAL_TIME_OFFSET ( 5, 30, .AHEAD. ) ;
#142 = FACE_OUTER_BOUND ( 'NONE', #59, .T. ) ;
#143 = EDGE_LOOP ( 'NONE', ( #79, #383, #186, #257 ) ) ;
#144 = LOCAL_TIME ( 22, 52, 15.00000000000000000, #205 ) ;
#145 = ORIENTED_EDGE ( 'NONE', *, *, #149, .F. ) ;
#146 = FACE_OUTER_BOUND ( 'NONE', #112, .T. ) ;
#147 = CARTESIAN_POINT ( 'NONE',  ( -244.0000000000000284, 12.50000000000000178, 12.50000000000000000 ) ) ;
#148 = DIRECTION ( 'NONE',  ( -0.000000000000000000, -0.000000000000000000, -1.000000000000000000 ) ) ;
#149 = EDGE_CURVE ( 'NONE', #350, #110, #258, .T. ) ;
#150 = PRODUCT_DEFINITION_SHAPE ( 'NONE', 'NONE',  #370 ) ;
#151 = CARTESIAN_POINT ( 'NONE',  ( -244.0000000000000284, -12.49999999999999822, 25.00000000000000000 ) ) ;
#152 = EDGE_CURVE ( 'NONE', #225, #140, #357, .T. ) ;
#153 = ADVANCED_BREP_SHAPE_REPRESENTATION ( 'c_Default_sldprt', ( #378, #331 ), #203 ) ;
#154 = FACE_BOUND ( 'NONE', #82, .T. ) ;
#155 = EDGE_CURVE ( 'NONE', #110, #350, #7, .T. ) ;
#156 = CARTESIAN_POINT ( 'NONE',  ( -244.0000000000000284, 12.50000000000000178, 12.50000000000000000 ) ) ;
#157 = LINE ( 'NONE', #133, #336 ) ;
#158 = CARTESIAN_POINT ( 'NONE',  ( 231.5000000000000284, 9.184850993605173582E-16, 12.50000000000000000 ) ) ;
#159 = ORIENTED_EDGE ( 'NONE', *, *, #299, .F. ) ;
#160 = CYLINDRICAL_SURFACE ( 'NONE', #22, 7.500000000000007105 ) ;
#161 = PLANE ( 'NONE',  #34 ) ;
#162 = EDGE_LOOP ( 'NONE', ( #280, #23 ) ) ;
#163 = ADVANCED_FACE ( 'NONE', ( #97 ), #181, .F. ) ;
#164 = AXIS2_PLACEMENT_3D ( 'NONE', #244, #297, #325 ) ;
#165 = CARTESIAN_POINT ( 'NONE',  ( -231.4999999999999716, 0.000000000000000000, 12.50000000000000000 ) ) ;
#166 = ORIENTED_EDGE ( 'NONE', *, *, #149, .T. ) ;
#167 = VECTOR ( 'NONE', #125, 1000.000000000000000 ) ;
#168 = EDGE_CURVE ( 'NONE', #116, #379, #364, .T. ) ;
#169 = COORDINATED_UNIVERSAL_TIME_OFFSET ( 5, 30, .AHEAD. ) ;
#170 = CALENDAR_DATE ( 2026, 21, 9 ) ;
#171 = CARTESIAN_POINT ( 'NONE',  ( 224.0000000000000284, 0.000000000000000000, 25.00000000000000000 ) ) ;
#172 = VERTEX_POINT ( 'NONE', #301 ) ;
#173 = EDGE_CURVE ( 'NONE', #379, #116, #30, .T. ) ;
#174 = CARTESIAN_POINT ( 'NONE',  ( 0.000000000000000000, 0.000000000000000000, 25.00000000000000000 ) ) ;
#175 = VERTEX_POINT ( 'NONE', #94 ) ;
#176 = APPROVAL_ROLE ( '' ) ;
#177 = ORIENTED_EDGE ( 'NONE', *, *, #337, .T. ) ;
#178 = COORDINATED_UNIVERSAL_TIME_OFFSET ( 5, 30, .AHEAD. ) ;
#179 = CARTESIAN_POINT ( 'NONE',  ( -216.4999999999999716, 9.184850993605173582E-16, 12.50000000000000000 ) ) ;
#180 = DATE_AND_TIME ( #170, #90 ) ;
#181 = CYLINDRICAL_SURFACE ( 'NONE', #50, 7.500000000000007105 ) ;
#182 = CYLINDRICAL_SURFACE ( 'NONE', #328, 7.500000000000007105 ) ;
#183 = DIRECTION ( 'NONE',  ( 0.000000000000000000, 0.000000000000000000, 1.000000000000000000 ) ) ;
#184 = CC_DESIGN_PERSON_AND_ORGANIZATION_ASSIGNMENT ( #232, #284, ( #233 ) ) ;
#185 = DIRECTION ( 'NONE',  ( 1.000000000000000000, 0.000000000000000000, 0.000000000000000000 ) ) ;
#186 = ORIENTED_EDGE ( 'NONE', *, *, #310, .F. ) ;
#187 = CARTESIAN_POINT ( 'NONE',  ( -244.0000000000000284, 12.50000000000000178, 12.50000000000000000 ) ) ;
#188 = CIRCLE ( 'NONE', #239, 7.500000000000007105 ) ;
#189 = ORIENTED_EDGE ( 'NONE', *, *, #349, .F. ) ;
#190 = DIRECTION ( 'NONE',  ( 1.000000000000000000, 0.000000000000000000, 0.000000000000000000 ) ) ;
#191 = PRODUCT_RELATED_PRODUCT_CATEGORY ( 'detail', '', ( #6 ) ) ;
#192 = ORIENTED_EDGE ( 'NONE', *, *, #17, .F. ) ;
#193 = CARTESIAN_POINT ( 'NONE',  ( -244.0000000000000284, 12.50000000000000178, 25.00000000000000000 ) ) ;
#194 = APPROVAL_STATUS ( 'not_yet_approved' ) ;
#195 = ORIENTED_EDGE ( 'NONE', *, *, #108, .T. ) ;
#196 = PERSON_AND_ORGANIZATION ( #126, #99 ) ;
#197 = DIRECTION ( 'NONE',  ( -0.000000000000000000, 0.000000000000000000, 1.000000000000000000 ) ) ;
#198 = DIRECTION ( 'NONE',  ( -0.000000000000000000, -0.000000000000000000, -1.000000000000000000 ) ) ;
#199 = EDGE_CURVE ( 'NONE', #379, #350, #206, .T. ) ;
#200 = ORIENTED_EDGE ( 'NONE', *, *, #299, .T. ) ;
#201 = AXIS2_PLACEMENT_3D ( 'NONE', #8, #127, #267 ) ;
#202 = LINE ( 'NONE', #289, #327 ) ;
#203 =( GEOMETRIC_REPRESENTATION_CONTEXT ( 3 ) GLOBAL_UNCERTAINTY_ASSIGNED_CONTEXT ( ( #51 ) ) GLOBAL_UNIT_ASSIGNED_CONTEXT ( ( #254, #274, #207 ) ) REPRESENTATION_CONTEXT ( 'NONE', 'WORKASPACE' ) );
#204 = ORIENTED_EDGE ( 'NONE', *, *, #199, .T. ) ;
#205 = COORDINATED_UNIVERSAL_TIME_OFFSET ( 5, 30, .AHEAD. ) ;
#206 = LINE ( 'NONE', #3, #358 ) ;
#207 =( NAMED_UNIT ( * ) SI_UNIT ( $, .STERADIAN. ) SOLID_ANGLE_UNIT ( ) );
#208 = CARTESIAN_POINT ( 'NONE',  ( 224.0000000000000284, 0.000000000000000000, 25.00000000000000000 ) ) ;
#209 = DIRECTION ( 'NONE',  ( -0.000000000000000000, 1.000000000000000000, -0.000000000000000000 ) ) ;
#210 = CARTESIAN_POINT ( 'NONE',  ( -223.9999999999999716, 0.000000000000000000, 12.50000000000000000 ) ) ;
#211 = CARTESIAN_POINT ( 'NONE',  ( -223.9999999999999716, 0.000000000000000000, 25.00000000000000000 ) ) ;
#212 = EDGE_CURVE ( 'NONE', #217, #229, #221, .T. ) ;
#213 = CARTESIAN_POINT ( 'NONE',  ( -244.0000000000000284, 12.50000000000000178, 25.00000000000000000 ) ) ;
#214 = APPROVAL ( #266, 'UNSPECIFIED' ) ;
#215 = CARTESIAN_POINT ( 'NONE',  ( -216.4999999999999716, 9.184850993605165694E-16, 25.00000000000000000 ) ) ;
#216 = AXIS2_PLACEMENT_3D ( 'NONE', #210, #101, #360 ) ;
#217 = VERTEX_POINT ( 'NONE', #374 ) ;
#218 = CARTESIAN_POINT ( 'NONE',  ( 231.5000000000000284, 9.184850993605173582E-16, 25.00000000000000000 ) ) ;
#219 = ORIENTED_EDGE ( 'NONE', *, *, #173, .F. ) ;
#220 = VECTOR ( 'NONE', #41, 1000.000000000000000 ) ;
#221 = LINE ( 'NONE', #11, #371 ) ;
#222 = ORIENTED_EDGE ( 'NONE', *, *, #102, .F. ) ;
#223 = ADVANCED_FACE ( 'NONE', ( #135 ), #160, .F. ) ;
#224 = PERSON_AND_ORGANIZATION ( #126, #99 ) ;
#225 = VERTEX_POINT ( 'NONE', #47 ) ;
#226 = CALENDAR_DATE ( 2026, 21, 9 ) ;
#227 = CARTESIAN_POINT ( 'NONE',  ( 243.9999999999999716, -12.49999999999999822, 25.00000000000000000 ) ) ;
#228 = CC_DESIGN_APPROVAL ( #92, ( #134 ) ) ;
#229 = VERTEX_POINT ( 'NONE', #279 ) ;
#230 = EDGE_LOOP ( 'NONE', ( #263, #177, #222, #159 ) ) ;
#231 = EDGE_LOOP ( 'NONE', ( #259, #344, #204, #313 ) ) ;
#232 = PERSON_AND_ORGANIZATION ( #126, #99 ) ;
#233 = PRODUCT_DEFINITION_FORMATION_WITH_SPECIFIED_SOURCE ( 'ANY', '', #6, .NOT_KNOWN. ) ;
#234 = DIRECTION ( 'NONE',  ( 0.000000000000000000, 0.000000000000000000, 1.000000000000000000 ) ) ;
#235 = CC_DESIGN_DATE_AND_TIME_ASSIGNMENT ( #385, #236, ( #370 ) ) ;
#236 = DATE_TIME_ROLE ( 'creation_date' ) ;
#237 = DIRECTION ( 'NONE',  ( 0.000000000000000000, -0.000000000000000000, 1.000000000000000000 ) ) ;
#238 = DIRECTION ( 'NONE',  ( 1.000000000000000000, 0.000000000000000000, 0.000000000000000000 ) ) ;
#239 = AXIS2_PLACEMENT_3D ( 'NONE', #252, #372, #43 ) ;
#240 = EDGE_CURVE ( 'NONE', #345, #342, #188, .T. ) ;
#241 = DIRECTION ( 'NONE',  ( 1.000000000000000000, 0.000000000000000000, 0.000000000000000000 ) ) ;
#242 = LOCAL_TIME ( 22, 52, 15.00000000000000000, #141 ) ;
#243 = DIRECTION ( 'NONE',  ( 1.000000000000000000, 0.000000000000000000, -0.000000000000000000 ) ) ;
#244 = CARTESIAN_POINT ( 'NONE',  ( 224.0000000000000284, 0.000000000000000000, 25.00000000000000000 ) ) ;
#245 = DIRECTION ( 'NONE',  ( 1.000000000000000000, -0.000000000000000000, -0.000000000000000000 ) ) ;
#246 = LINE ( 'NONE', #45, #19 ) ;
#247 = CC_DESIGN_APPROVAL ( #214, ( #370 ) ) ;
#248 = FACE_OUTER_BOUND ( 'NONE', #143, .T. ) ;
#249 = APPLICATION_CONTEXT ( 'configuration controlled 3d designs of mechanical parts and assemblies' ) ;
#250 = ORIENTED_EDGE ( 'NONE', *, *, #152, .F. ) ;
#251 = AXIS2_PLACEMENT_3D ( 'NONE', #171, #315, #55 ) ;
#252 = CARTESIAN_POINT ( 'NONE',  ( 224.0000000000000284, 0.000000000000000000, 25.00000000000000000 ) ) ;
#253 = ORIENTED_EDGE ( 'NONE', *, *, #310, .T. ) ;
#254 =( LENGTH_UNIT ( ) NAMED_UNIT ( * ) SI_UNIT ( .MILLI., .METRE. ) );
#255 = APPROVAL_DATE_TIME ( #52, #92 ) ;
#256 = ORIENTED_EDGE ( 'NONE', *, *, #199, .F. ) ;
#257 = ORIENTED_EDGE ( 'NONE', *, *, #60, .F. ) ;
#258 = CIRCLE ( 'NONE', #96, 7.500000000000007105 ) ;
#259 = ORIENTED_EDGE ( 'NONE', *, *, #330, .F. ) ;
#260 = CC_DESIGN_PERSON_AND_ORGANIZATION_ASSIGNMENT ( #31, #65, ( #6 ) ) ;
#261 = FACE_BOUND ( 'NONE', #53, .T. ) ;
#262 = AXIS2_PLACEMENT_3D ( 'NONE', #290, #27, #113 ) ;
#263 = ORIENTED_EDGE ( 'NONE', *, *, #285, .T. ) ;
#264 = CC_DESIGN_PERSON_AND_ORGANIZATION_ASSIGNMENT ( #291, #28, ( #370 ) ) ;
#265 = FACE_OUTER_BOUND ( 'NONE', #335, .T. ) ;
#266 = APPROVAL_STATUS ( 'not_yet_approved' ) ;
#267 = DIRECTION ( 'NONE',  ( 1.000000000000000000, 0.000000000000000000, 0.000000000000000000 ) ) ;
#268 = APPLICATION_PROTOCOL_DEFINITION ( 'international standard', 'config_control_design', 1994, #249 ) ;
#269 = DIRECTION ( 'NONE',  ( 0.000000000000000000, 0.000000000000000000, 1.000000000000000000 ) ) ;
#270 = AXIS2_PLACEMENT_3D ( 'NONE', #211, #71, #185 ) ;
#271 = CARTESIAN_POINT ( 'NONE',  ( -244.0000000000000284, -12.49999999999999822, 25.00000000000000000 ) ) ;
#272 = CARTESIAN_POINT ( 'NONE',  ( -244.0000000000000284, -12.49999999999999822, 25.00000000000000000 ) ) ;
#273 = CARTESIAN_POINT ( 'NONE',  ( 224.0000000000000284, 0.000000000000000000, 12.50000000000000000 ) ) ;
#274 =( NAMED_UNIT ( * ) PLANE_ANGLE_UNIT ( ) SI_UNIT ( $, .RADIAN. ) );
#275 = CARTESIAN_POINT ( 'NONE',  ( -223.9999999999999716, 0.000000000000000000, 25.00000000000000000 ) ) ;
#276 = ORIENTED_EDGE ( 'NONE', *, *, #349, .T. ) ;
#277 = EDGE_CURVE ( 'NONE', #333, #339, #76, .T. ) ;
#278 = DESIGN_CONTEXT ( 'detailed design', #249, 'design' ) ;
#279 = CARTESIAN_POINT ( 'NONE',  ( 243.9999999999999147, 12.50000000000000178, 12.50000000000000000 ) ) ;
#280 = ORIENTED_EDGE ( 'NONE', *, *, #58, .T. ) ;
#281 = CARTESIAN_POINT ( 'NONE',  ( -244.0000000000000284, 12.50000000000000178, 25.00000000000000000 ) ) ;
#282 = ORIENTED_EDGE ( 'NONE', *, *, #37, .F. ) ;
#283 = CALENDAR_DATE ( 2026, 21, 9 ) ;
#284 = PERSON_AND_ORGANIZATION_ROLE ( 'design_supplier' ) ;
#285 = EDGE_CURVE ( 'NONE', #377, #85, #103, .T. ) ;
#286 = LINE ( 'NONE', #227, #300 ) ;
#287 = EDGE_LOOP ( 'NONE', ( #44, #57, #195, #104 ) ) ;
#288 = AXIS2_PLACEMENT_3D ( 'NONE', #273, #80, #190 ) ;
#289 = CARTESIAN_POINT ( 'NONE',  ( 231.5000000000000284, 9.184850993605165694E-16, 25.00000000000000000 ) ) ;
#290 = CARTESIAN_POINT ( 'NONE',  ( -244.0000000000000284, 12.50000000000000178, 25.00000000000000000 ) ) ;
#291 = PERSON_AND_ORGANIZATION ( #126, #99 ) ;
#292 = CC_DESIGN_DATE_AND_TIME_ASSIGNMENT ( #93, #123, ( #134 ) ) ;
#293 = ORIENTED_EDGE ( 'NONE', *, *, #285, .F. ) ;
#294 = MECHANICAL_CONTEXT ( 'NONE', #128, 'mechanical' ) ;
#295 = LINE ( 'NONE', #100, #167 ) ;
#296 = PERSON_AND_ORGANIZATION ( #126, #99 ) ;
#297 = DIRECTION ( 'NONE',  ( -0.000000000000000000, -0.000000000000000000, -1.000000000000000000 ) ) ;
#298 = DIRECTION ( 'NONE',  ( -0.000000000000000000, -0.000000000000000000, -1.000000000000000000 ) ) ;
#299 = EDGE_CURVE ( 'NONE', #377, #225, #157, .T. ) ;
#300 = VECTOR ( 'NONE', #88, 1000.000000000000000 ) ;
#301 = CARTESIAN_POINT ( 'NONE',  ( 243.9999999999999716, 12.50000000000000178, 25.00000000000000000 ) ) ;
#302 = CC_DESIGN_APPROVAL ( #74, ( #233 ) ) ;
#303 = DIRECTION ( 'NONE',  ( -0.000000000000000000, 0.000000000000000000, -1.000000000000000000 ) ) ;
#304 = EDGE_LOOP ( 'NONE', ( #81, #62 ) ) ;
#305 = CIRCLE ( 'NONE', #251, 7.500000000000007105 ) ;
#306 = CARTESIAN_POINT ( 'NONE',  ( 243.9999999999999716, 12.50000000000000178, 25.00000000000000000 ) ) ;
#307 = ORIENTED_EDGE ( 'NONE', *, *, #102, .T. ) ;
#308 = DIRECTION ( 'NONE',  ( -0.000000000000000000, -0.000000000000000000, -1.000000000000000000 ) ) ;
#309 = APPROVAL_PERSON_ORGANIZATION ( #224, #214, #176 ) ;
#310 = EDGE_CURVE ( 'NONE', #172, #229, #338, .T. ) ;
#311 = DIRECTION ( 'NONE',  ( -0.000000000000000000, -0.000000000000000000, -1.000000000000000000 ) ) ;
#312 = APPROVAL_ROLE ( '' ) ;
#313 = ORIENTED_EDGE ( 'NONE', *, *, #155, .F. ) ;
#314 = ADVANCED_FACE ( 'NONE', ( #248 ), #161, .F. ) ;
#315 = DIRECTION ( 'NONE',  ( 0.000000000000000000, 0.000000000000000000, 1.000000000000000000 ) ) ;
#316 = ORIENTED_EDGE ( 'NONE', *, *, #168, .F. ) ;
#317 = AXIS2_PLACEMENT_3D ( 'NONE', #69, #183, #243 ) ;
#318 = EDGE_LOOP ( 'NONE', ( #192, #91, #381, #26 ) ) ;
#319 = ORIENTED_EDGE ( 'NONE', *, *, #17, .T. ) ;
#320 = CARTESIAN_POINT ( 'NONE',  ( 0.000000000000000000, 0.000000000000000000, 0.000000000000000000 ) ) ;
#321 = LINE ( 'NONE', #272, #87 ) ;
#322 = DIRECTION ( 'NONE',  ( 1.000000000000000000, 0.000000000000000000, 0.000000000000000000 ) ) ;
#323 = CC_DESIGN_SECURITY_CLASSIFICATION ( #134, ( #233 ) ) ;
#324 = ADVANCED_FACE ( 'NONE', ( #75 ), #106, .F. ) ;
#325 = DIRECTION ( 'NONE',  ( -1.000000000000000000, 0.000000000000000000, 0.000000000000000000 ) ) ;
#326 = FACE_OUTER_BOUND ( 'NONE', #318, .T. ) ;
#327 = VECTOR ( 'NONE', #198, 1000.000000000000000 ) ;
#328 = AXIS2_PLACEMENT_3D ( 'NONE', #208, #298, #38 ) ;
#329 = DIRECTION ( 'NONE',  ( -0.000000000000000000, -0.000000000000000000, -1.000000000000000000 ) ) ;
#330 = EDGE_CURVE ( 'NONE', #116, #110, #334, .T. ) ;
#331 = AXIS2_PLACEMENT_3D ( 'NONE', #320, #61, #238 ) ;
#332 = CARTESIAN_POINT ( 'NONE',  ( -244.0000000000000284, 12.50000000000000178, 25.00000000000000000 ) ) ;
#333 = VERTEX_POINT ( 'NONE', #158 ) ;
#334 = LINE ( 'NONE', #215, #220 ) ;
#335 = EDGE_LOOP ( 'NONE', ( #369, #319, #73, #48 ) ) ;
#336 = VECTOR ( 'NONE', #12, 1000.000000000000000 ) ;
#337 = EDGE_CURVE ( 'NONE', #85, #175, #13, .T. ) ;
#338 = LINE ( 'NONE', #77, #114 ) ;
#339 = VERTEX_POINT ( 'NONE', #131 ) ;
#340 = CARTESIAN_POINT ( 'NONE',  ( 216.5000000000000284, 0.000000000000000000, 25.00000000000000000 ) ) ;
#341 = EDGE_CURVE ( 'NONE', #175, #217, #246, .T. ) ;
#342 = VERTEX_POINT ( 'NONE', #218 ) ;
#343 = DIRECTION ( 'NONE',  ( -1.000000000000000000, 0.000000000000000000, 0.000000000000000000 ) ) ;
#344 = ORIENTED_EDGE ( 'NONE', *, *, #168, .T. ) ;
#345 = VERTEX_POINT ( 'NONE', #340 ) ;
#346 = APPLICATION_PROTOCOL_DEFINITION ( 'international standard', 'config_control_design', 1994, #128 ) ;
#347 = VECTOR ( 'NONE', #109, 1000.000000000000000 ) ;
#348 = CARTESIAN_POINT ( 'NONE',  ( 224.0000000000000284, 0.000000000000000000, 12.50000000000000000 ) ) ;
#349 = EDGE_CURVE ( 'NONE', #172, #377, #78, .T. ) ;
#350 = VERTEX_POINT ( 'NONE', #165 ) ;
#351 = ORIENTED_EDGE ( 'NONE', *, *, #155, .T. ) ;
#352 = VECTOR ( 'NONE', #120, 1000.000000000000000 ) ;
#353 = EDGE_LOOP ( 'NONE', ( #307, #136, #282, #250 ) ) ;
#354 = PERSON_AND_ORGANIZATION_ROLE ( 'classification_officer' ) ;
#355 = CARTESIAN_POINT ( 'NONE',  ( -223.9999999999999716, 0.000000000000000000, 25.00000000000000000 ) ) ;
#356 = APPROVAL_DATE_TIME ( #180, #74 ) ;
#357 = LINE ( 'NONE', #271, #384 ) ;
#358 = VECTOR ( 'NONE', #366, 1000.000000000000000 ) ;
#359 = APPROVAL_ROLE ( '' ) ;
#360 = DIRECTION ( 'NONE',  ( 1.000000000000000000, 0.000000000000000000, 0.000000000000000000 ) ) ;
#361 = APPROVAL_PERSON_ORGANIZATION ( #119, #74, #359 ) ;
#362 = CYLINDRICAL_SURFACE ( 'NONE', #164, 7.500000000000007105 ) ;
#363 = PLANE ( 'NONE',  #317 ) ;
#364 = CIRCLE ( 'NONE', #201, 7.500000000000007105 ) ;
#365 = CARTESIAN_POINT ( 'NONE',  ( -231.4999999999999716, 0.000000000000000000, 25.00000000000000000 ) ) ;
#366 = DIRECTION ( 'NONE',  ( -0.000000000000000000, -0.000000000000000000, -1.000000000000000000 ) ) ;
#367 = ORIENTED_EDGE ( 'NONE', *, *, #330, .T. ) ;
#368 = DIRECTION ( 'NONE',  ( 0.000000000000000000, 1.000000000000000000, -0.000000000000000000 ) ) ;
#369 = ORIENTED_EDGE ( 'NONE', *, *, #240, .T. ) ;
#370 = PRODUCT_DEFINITION ( 'UNKNOWN', '', #233, #278 ) ;
#371 = VECTOR ( 'NONE', #368, 1000.000000000000000 ) ;
#372 = DIRECTION ( 'NONE',  ( 0.000000000000000000, 0.000000000000000000, 1.000000000000000000 ) ) ;
#373 = ORIENTED_EDGE ( 'NONE', *, *, #108, .F. ) ;
#374 = CARTESIAN_POINT ( 'NONE',  ( 243.9999999999999716, -12.49999999999999822, 12.50000000000000000 ) ) ;
#375 = SHAPE_DEFINITION_REPRESENTATION ( #150, #153 ) ;
#376 = ORIENTED_EDGE ( 'NONE', *, *, #60, .T. ) ;
#377 = VERTEX_POINT ( 'NONE', #281 ) ;
#378 = MANIFOLD_SOLID_BREP ( 'Cut-Extrude1', #68 ) ;
#379 = VERTEX_POINT ( 'NONE', #365 ) ;
#380 = CC_DESIGN_PERSON_AND_ORGANIZATION_ASSIGNMENT ( #296, #20, ( #233 ) ) ;
#381 = ORIENTED_EDGE ( 'NONE', *, *, #132, .T. ) ;
#382 = AXIS2_PLACEMENT_3D ( 'NONE', #348, #269, #64 ) ;
#383 = ORIENTED_EDGE ( 'NONE', *, *, #212, .T. ) ;
#384 = VECTOR ( 'NONE', #322, 1000.000000000000000 ) ;
#385 = DATE_AND_TIME ( #283, #144 ) ;
ENDSEC;
END-ISO-10303-21;
