ISO-10303-21;
HEADER;
FILE_DESCRIPTION (( 'STEP AP203' ),
    '1' );
FILE_NAME ('crank_Default_sldprt.STEP',
    '2026-09-21T17:22:16',
    ( '' ),
    ( '' ),
    'SwSTEP 2.0',
    'SolidWorks 2021',
    '' );
FILE_SCHEMA (( 'CONFIG_CONTROL_DESIGN' ));
ENDSEC;

DATA;
#1 = DIRECTION ( 'NONE',  ( -1.000000000000000000, 0.000000000000000000, 0.000000000000000000 ) ) ;
#2 = EDGE_LOOP ( 'NONE', ( #112, #293, #181, #361 ) ) ;
#3 = CC_DESIGN_PERSON_AND_ORGANIZATION_ASSIGNMENT ( #244, #166, ( #267 ) ) ;
#4 = DIRECTION ( 'NONE',  ( 0.000000000000000000, 0.000000000000000000, -1.000000000000000000 ) ) ;
#5 = APPROVAL_PERSON_ORGANIZATION ( #310, #87, #193 ) ;
#6 = CARTESIAN_POINT ( 'NONE',  ( -71.99999999999998579, 0.000000000000000000, 0.000000000000000000 ) ) ;
#7 = CARTESIAN_POINT ( 'NONE',  ( -64.49999999999997158, 0.000000000000000000, 25.00000000000000000 ) ) ;
#8 = CARTESIAN_POINT ( 'NONE',  ( -92.00000000000000000, -11.88430750375933620, 0.000000000000000000 ) ) ;
#9 = ORIENTED_EDGE ( 'NONE', *, *, #279, .T. ) ;
#10 = CARTESIAN_POINT ( 'NONE',  ( 72.00000000000001421, -3.081487911019577365E-30, 0.000000000000000000 ) ) ;
#11 = APPROVAL_ROLE ( '' ) ;
#12 = CIRCLE ( 'NONE', #276, 7.500000000000007105 ) ;
#13 =( NAMED_UNIT ( * ) PLANE_ANGLE_UNIT ( ) SI_UNIT ( $, .RADIAN. ) );
#14 = APPROVAL_ROLE ( '' ) ;
#15 = ORIENTED_EDGE ( 'NONE', *, *, #325, .F. ) ;
#16 = AXIS2_PLACEMENT_3D ( 'NONE', #342, #175, #118 ) ;
#17 = PERSON_AND_ORGANIZATION ( #350, #370 ) ;
#18 = UNCERTAINTY_MEASURE_WITH_UNIT (LENGTH_MEASURE( 1.000000000000000082E-05 ), #70, 'distance_accuracy_value', 'NONE');
#19 = ORIENTED_EDGE ( 'NONE', *, *, #140, .T. ) ;
#20 = DIRECTION ( 'NONE',  ( 0.000000000000000000, 0.000000000000000000, -1.000000000000000000 ) ) ;
#21 = DIRECTION ( 'NONE',  ( 1.000000000000000000, 0.000000000000000000, 0.000000000000000000 ) ) ;
#22 = VERTEX_POINT ( 'NONE', #31 ) ;
#23 = CIRCLE ( 'NONE', #229, 7.500000000000007105 ) ;
#24 = PLANE ( 'NONE',  #296 ) ;
#25 = VERTEX_POINT ( 'NONE', #215 ) ;
#26 = PLANE ( 'NONE',  #67 ) ;
#27 = ORIENTED_EDGE ( 'NONE', *, *, #379, .T. ) ;
#28 = CYLINDRICAL_SURFACE ( 'NONE', #302, 7.500000000000007105 ) ;
#29 = DIRECTION ( 'NONE',  ( -0.000000000000000000, -0.000000000000000000, -1.000000000000000000 ) ) ;
#30 = EDGE_CURVE ( 'NONE', #55, #247, #154, .T. ) ;
#31 = CARTESIAN_POINT ( 'NONE',  ( -92.00000000000000000, 13.11569249624066558, 25.00000000000000000 ) ) ;
#32 = LINE ( 'NONE', #295, #330 ) ;
#33 = DIRECTION ( 'NONE',  ( -1.000000000000000000, -0.000000000000000000, -0.000000000000000000 ) ) ;
#34 = ORIENTED_EDGE ( 'NONE', *, *, #351, .F. ) ;
#35 = EDGE_CURVE ( 'NONE', #384, #50, #23, .T. ) ;
#36 = CARTESIAN_POINT ( 'NONE',  ( 92.00000000000000000, -11.88430750375933620, 0.000000000000000000 ) ) ;
#37 = APPLICATION_CONTEXT ( 'configuration controlled 3d designs of mechanical parts and assemblies' ) ;
#38 = AXIS2_PLACEMENT_3D ( 'NONE', #6, #356, #120 ) ;
#39 = LINE ( 'NONE', #334, #283 ) ;
#40 = ORIENTED_EDGE ( 'NONE', *, *, #96, .T. ) ;
#41 = DATE_AND_TIME ( #242, #73 ) ;
#42 = DIRECTION ( 'NONE',  ( -0.000000000000000000, -0.000000000000000000, -1.000000000000000000 ) ) ;
#43 =( NAMED_UNIT ( * ) SI_UNIT ( $, .STERADIAN. ) SOLID_ANGLE_UNIT ( ) );
#44 = APPLICATION_PROTOCOL_DEFINITION ( 'international standard', 'config_control_design', 1994, #365 ) ;
#45 = ADVANCED_FACE ( 'NONE', ( #250 ), #28, .F. ) ;
#46 = CIRCLE ( 'NONE', #133, 7.500000000000007105 ) ;
#47 = EDGE_LOOP ( 'NONE', ( #300, #223, #15, #349 ) ) ;
#48 = LINE ( 'NONE', #168, #353 ) ;
#49 = FACE_OUTER_BOUND ( 'NONE', #2, .T. ) ;
#50 = VERTEX_POINT ( 'NONE', #86 ) ;
#51 = CARTESIAN_POINT ( 'NONE',  ( 64.50000000000000000, 9.184850993605142028E-16, 0.000000000000000000 ) ) ;
#52 = ORIENTED_EDGE ( 'NONE', *, *, #148, .F. ) ;
#53 = ADVANCED_FACE ( 'NONE', ( #207, #319, #346 ), #258, .F. ) ;
#54 = DIRECTION ( 'NONE',  ( 0.000000000000000000, 0.000000000000000000, 1.000000000000000000 ) ) ;
#55 = VERTEX_POINT ( 'NONE', #147 ) ;
#56 = CARTESIAN_POINT ( 'NONE',  ( 92.00000000000000000, 13.11569249624066558, 25.00000000000000000 ) ) ;
#57 = DIRECTION ( 'NONE',  ( 0.000000000000000000, 1.000000000000000000, 0.000000000000000000 ) ) ;
#58 = CC_DESIGN_PERSON_AND_ORGANIZATION_ASSIGNMENT ( #17, #190, ( #171 ) ) ;
#59 = CC_DESIGN_APPROVAL ( #72, ( #267 ) ) ;
#60 = ORIENTED_EDGE ( 'NONE', *, *, #282, .F. ) ;
#61 = FACE_OUTER_BOUND ( 'NONE', #189, .T. ) ;
#62 = VECTOR ( 'NONE', #287, 1000.000000000000000 ) ;
#63 = VERTEX_POINT ( 'NONE', #326 ) ;
#64 = LINE ( 'NONE', #230, #309 ) ;
#65 = CARTESIAN_POINT ( 'NONE',  ( -92.00000000000000000, 13.11569249624066558, 25.00000000000000000 ) ) ;
#66 = DIRECTION ( 'NONE',  ( 0.000000000000000000, 0.000000000000000000, -1.000000000000000000 ) ) ;
#67 = AXIS2_PLACEMENT_3D ( 'NONE', #205, #4, #185 ) ;
#68 = CYLINDRICAL_SURFACE ( 'NONE', #159, 7.500000000000007105 ) ;
#69 = PERSON_AND_ORGANIZATION ( #350, #370 ) ;
#70 =( LENGTH_UNIT ( ) NAMED_UNIT ( * ) SI_UNIT ( .MILLI., .METRE. ) );
#71 = COORDINATED_UNIVERSAL_TIME_OFFSET ( 5, 30, .AHEAD. ) ;
#72 = APPROVAL ( #136, 'UNSPECIFIED' ) ;
#73 = LOCAL_TIME ( 22, 52, 16.00000000000000000, #138 ) ;
#74 = DIRECTION ( 'NONE',  ( 1.000000000000000000, 0.000000000000000000, 0.000000000000000000 ) ) ;
#75 = VECTOR ( 'NONE', #187, 1000.000000000000000 ) ;
#76 = ORIENTED_EDGE ( 'NONE', *, *, #140, .F. ) ;
#77 = LINE ( 'NONE', #56, #117 ) ;
#78 = VECTOR ( 'NONE', #33, 1000.000000000000000 ) ;
#79 = CARTESIAN_POINT ( 'NONE',  ( 92.00000000000000000, -11.88430750375933620, 25.00000000000000000 ) ) ;
#80 = EDGE_LOOP ( 'NONE', ( #27, #226, #116, #265 ) ) ;
#81 = CARTESIAN_POINT ( 'NONE',  ( 72.00000000000001421, -3.081487911019577365E-30, 0.000000000000000000 ) ) ;
#82 = ORIENTED_EDGE ( 'NONE', *, *, #343, .T. ) ;
#83 = CARTESIAN_POINT ( 'NONE',  ( 72.00000000000001421, -3.081487911019577365E-30, 25.00000000000000000 ) ) ;
#84 = EDGE_LOOP ( 'NONE', ( #249, #149, #76, #60 ) ) ;
#85 = CIRCLE ( 'NONE', #373, 7.500000000000007105 ) ;
#86 = CARTESIAN_POINT ( 'NONE',  ( -79.49999999999998579, 9.184850993605173582E-16, 0.000000000000000000 ) ) ;
#87 = APPROVAL ( #305, 'UNSPECIFIED' ) ;
#88 = CYLINDRICAL_SURFACE ( 'NONE', #91, 7.500000000000007105 ) ;
#89 = CARTESIAN_POINT ( 'NONE',  ( -92.00000000000000000, -11.88430750375933620, 25.00000000000000000 ) ) ;
#90 = DIRECTION ( 'NONE',  ( -1.000000000000000000, 0.000000000000000000, 0.000000000000000000 ) ) ;
#91 = AXIS2_PLACEMENT_3D ( 'NONE', #123, #162, #301 ) ;
#92 = DIRECTION ( 'NONE',  ( 0.000000000000000000, -0.000000000000000000, 1.000000000000000000 ) ) ;
#93 = EDGE_CURVE ( 'NONE', #297, #55, #322, .T. ) ;
#94 = DIRECTION ( 'NONE',  ( -0.000000000000000000, -0.000000000000000000, 1.000000000000000000 ) ) ;
#95 = APPROVAL_PERSON_ORGANIZATION ( #69, #72, #14 ) ;
#96 = EDGE_CURVE ( 'NONE', #22, #297, #228, .T. ) ;
#97 = PERSON_AND_ORGANIZATION_ROLE ( 'design_supplier' ) ;
#98 = PERSON_AND_ORGANIZATION_ROLE ( 'design_owner' ) ;
#99 = PERSON_AND_ORGANIZATION ( #350, #370 ) ;
#100 = ORIENTED_EDGE ( 'NONE', *, *, #30, .T. ) ;
#101 = AXIS2_PLACEMENT_3D ( 'NONE', #131, #336, #240 ) ;
#102 = CALENDAR_DATE ( 2026, 21, 9 ) ;
#103 = EDGE_CURVE ( 'NONE', #167, #63, #85, .T. ) ;
#104 = AXIS2_PLACEMENT_3D ( 'NONE', #378, #376, #142 ) ;
#105 = COORDINATED_UNIVERSAL_TIME_OFFSET ( 5, 30, .AHEAD. ) ;
#106 = ADVANCED_FACE ( 'NONE', ( #49 ), #352, .F. ) ;
#107 = COORDINATED_UNIVERSAL_TIME_OFFSET ( 5, 30, .AHEAD. ) ;
#108 = CARTESIAN_POINT ( 'NONE',  ( -92.00000000000000000, 13.11569249624066558, 0.000000000000000000 ) ) ;
#109 = VECTOR ( 'NONE', #42, 1000.000000000000000 ) ;
#110 = EDGE_CURVE ( 'NONE', #304, #260, #77, .T. ) ;
#111 = DIRECTION ( 'NONE',  ( -0.000000000000000000, -0.000000000000000000, -1.000000000000000000 ) ) ;
#112 = ORIENTED_EDGE ( 'NONE', *, *, #119, .T. ) ;
#113 = FACE_BOUND ( 'NONE', #320, .T. ) ;
#114 = EDGE_LOOP ( 'NONE', ( #180, #9, #40, #347 ) ) ;
#115 = CARTESIAN_POINT ( 'NONE',  ( 0.000000000000000000, 0.000000000000000000, 25.00000000000000000 ) ) ;
#116 = ORIENTED_EDGE ( 'NONE', *, *, #93, .F. ) ;
#117 = VECTOR ( 'NONE', #111, 1000.000000000000000 ) ;
#118 = DIRECTION ( 'NONE',  ( 1.000000000000000000, 0.000000000000000000, 0.000000000000000000 ) ) ;
#119 = EDGE_CURVE ( 'NONE', #260, #25, #385, .T. ) ;
#120 = DIRECTION ( 'NONE',  ( 1.000000000000000000, 0.000000000000000000, 0.000000000000000000 ) ) ;
#121 = ORIENTED_EDGE ( 'NONE', *, *, #351, .T. ) ;
#122 = DIRECTION ( 'NONE',  ( -0.000000000000000000, -0.000000000000000000, -1.000000000000000000 ) ) ;
#123 = CARTESIAN_POINT ( 'NONE',  ( -71.99999999999998579, 0.000000000000000000, 0.000000000000000000 ) ) ;
#124 = AXIS2_PLACEMENT_3D ( 'NONE', #89, #57, #92 ) ;
#125 = ORIENTED_EDGE ( 'NONE', *, *, #379, .F. ) ;
#126 = CARTESIAN_POINT ( 'NONE',  ( -71.99999999999998579, 0.000000000000000000, 25.00000000000000000 ) ) ;
#127 = MANIFOLD_SOLID_BREP ( 'Cut-Extrude1', #144 ) ;
#128 = DIRECTION ( 'NONE',  ( 1.000000000000000000, 0.000000000000000000, 0.000000000000000000 ) ) ;
#129 = VECTOR ( 'NONE', #183, 1000.000000000000000 ) ;
#130 = ADVANCED_FACE ( 'NONE', ( #316 ), #315, .F. ) ;
#131 = CARTESIAN_POINT ( 'NONE',  ( 0.000000000000000000, 0.000000000000000000, 0.000000000000000000 ) ) ;
#132 = DATE_TIME_ROLE ( 'creation_date' ) ;
#133 = AXIS2_PLACEMENT_3D ( 'NONE', #211, #152, #90 ) ;
#134 = PERSON_AND_ORGANIZATION ( #350, #370 ) ;
#135 = ADVANCED_FACE ( 'NONE', ( #289 ), #262, .F. ) ;
#136 = APPROVAL_STATUS ( 'not_yet_approved' ) ;
#137 = AXIS2_PLACEMENT_3D ( 'NONE', #115, #178, #169 ) ;
#138 = COORDINATED_UNIVERSAL_TIME_OFFSET ( 5, 30, .AHEAD. ) ;
#139 = DIRECTION ( 'NONE',  ( 1.000000000000000000, 0.000000000000000000, 0.000000000000000000 ) ) ;
#140 = EDGE_CURVE ( 'NONE', #288, #235, #161, .T. ) ;
#141 = CC_DESIGN_SECURITY_CLASSIFICATION ( #171, ( #267 ) ) ;
#142 = DIRECTION ( 'NONE',  ( 0.000000000000000000, -0.000000000000000000, -1.000000000000000000 ) ) ;
#143 = ORIENTED_EDGE ( 'NONE', *, *, #35, .F. ) ;
#144 = CLOSED_SHELL ( 'NONE', ( #135, #45, #156, #106, #130, #354, #53, #174, #382, #332 ) ) ;
#145 = DIRECTION ( 'NONE',  ( -1.000000000000000000, 0.000000000000000000, 0.000000000000000000 ) ) ;
#146 = ORIENTED_EDGE ( 'NONE', *, *, #197, .F. ) ;
#147 = CARTESIAN_POINT ( 'NONE',  ( 92.00000000000000000, -11.88430750375933620, 25.00000000000000000 ) ) ;
#148 = EDGE_CURVE ( 'NONE', #167, #235, #48, .T. ) ;
#149 = ORIENTED_EDGE ( 'NONE', *, *, #148, .T. ) ;
#150 = AXIS2_PLACEMENT_3D ( 'NONE', #333, #179, #209 ) ;
#151 = CARTESIAN_POINT ( 'NONE',  ( -92.00000000000000000, -11.88430750375933620, 25.00000000000000000 ) ) ;
#152 = DIRECTION ( 'NONE',  ( 0.000000000000000000, 0.000000000000000000, -1.000000000000000000 ) ) ;
#153 = ORIENTED_EDGE ( 'NONE', *, *, #325, .T. ) ;
#154 = LINE ( 'NONE', #306, #109 ) ;
#155 = LINE ( 'NONE', #213, #182 ) ;
#156 = ADVANCED_FACE ( 'NONE', ( #345 ), #24, .F. ) ;
#157 = LINE ( 'NONE', #236, #239 ) ;
#158 = EDGE_LOOP ( 'NONE', ( #153, #195 ) ) ;
#159 = AXIS2_PLACEMENT_3D ( 'NONE', #10, #192, #128 ) ;
#160 = CARTESIAN_POINT ( 'NONE',  ( 79.50000000000001421, -3.081487911019577365E-30, 25.00000000000000000 ) ) ;
#161 = CIRCLE ( 'NONE', #323, 7.500000000000007105 ) ;
#162 = DIRECTION ( 'NONE',  ( -0.000000000000000000, -0.000000000000000000, 1.000000000000000000 ) ) ;
#163 = CALENDAR_DATE ( 2026, 21, 9 ) ;
#164 = CARTESIAN_POINT ( 'NONE',  ( -71.99999999999998579, 0.000000000000000000, 0.000000000000000000 ) ) ;
#165 = MECHANICAL_CONTEXT ( 'NONE', #37, 'mechanical' ) ;
#166 = PERSON_AND_ORGANIZATION_ROLE ( 'creator' ) ;
#167 = VERTEX_POINT ( 'NONE', #51 ) ;
#168 = CARTESIAN_POINT ( 'NONE',  ( 64.50000000000000000, 9.184850993605134139E-16, 0.000000000000000000 ) ) ;
#169 = DIRECTION ( 'NONE',  ( -1.000000000000000000, 0.000000000000000000, -0.000000000000000000 ) ) ;
#170 = ORIENTED_EDGE ( 'NONE', *, *, #275, .F. ) ;
#171 = SECURITY_CLASSIFICATION ( '', '', #214 ) ;
#172 = FACE_BOUND ( 'NONE', #374, .T. ) ;
#173 = ORIENTED_EDGE ( 'NONE', *, *, #184, .T. ) ;
#174 = ADVANCED_FACE ( 'NONE', ( #172, #113, #224 ), #26, .T. ) ;
#175 = DIRECTION ( 'NONE',  ( -0.000000000000000000, -0.000000000000000000, 1.000000000000000000 ) ) ;
#176 = ORIENTED_EDGE ( 'NONE', *, *, #119, .F. ) ;
#177 = EDGE_CURVE ( 'NONE', #50, #384, #344, .T. ) ;
#178 = DIRECTION ( 'NONE',  ( 0.000000000000000000, 0.000000000000000000, -1.000000000000000000 ) ) ;
#179 = DIRECTION ( 'NONE',  ( 0.000000000000000000, 0.000000000000000000, -1.000000000000000000 ) ) ;
#180 = ORIENTED_EDGE ( 'NONE', *, *, #372, .T. ) ;
#181 = ORIENTED_EDGE ( 'NONE', *, *, #279, .F. ) ;
#182 = VECTOR ( 'NONE', #29, 1000.000000000000000 ) ;
#183 = DIRECTION ( 'NONE',  ( 0.000000000000000000, 1.000000000000000000, 0.000000000000000000 ) ) ;
#184 = EDGE_CURVE ( 'NONE', #63, #167, #210, .T. ) ;
#185 = DIRECTION ( 'NONE',  ( -1.000000000000000000, 0.000000000000000000, -0.000000000000000000 ) ) ;
#186 = LINE ( 'NONE', #329, #129 ) ;
#187 = DIRECTION ( 'NONE',  ( 0.000000000000000000, 1.000000000000000000, 0.000000000000000000 ) ) ;
#188 = AXIS2_PLACEMENT_3D ( 'NONE', #271, #234, #263 ) ;
#189 = EDGE_LOOP ( 'NONE', ( #146, #143, #380, #269 ) ) ;
#190 = PERSON_AND_ORGANIZATION_ROLE ( 'classification_officer' ) ;
#191 = CALENDAR_DATE ( 2026, 21, 9 ) ;
#192 = DIRECTION ( 'NONE',  ( -0.000000000000000000, -0.000000000000000000, 1.000000000000000000 ) ) ;
#193 = APPROVAL_ROLE ( '' ) ;
#194 = EDGE_CURVE ( 'NONE', #22, #25, #155, .T. ) ;
#195 = ORIENTED_EDGE ( 'NONE', *, *, #335, .T. ) ;
#196 = EDGE_LOOP ( 'NONE', ( #52, #220, #318, #377 ) ) ;
#197 = EDGE_CURVE ( 'NONE', #50, #291, #39, .T. ) ;
#198 = DIRECTION ( 'NONE',  ( 1.000000000000000000, 0.000000000000000000, 0.000000000000000000 ) ) ;
#199 = ORIENTED_EDGE ( 'NONE', *, *, #35, .T. ) ;
#200 = DIRECTION ( 'NONE',  ( -1.000000000000000000, 0.000000000000000000, 0.000000000000000000 ) ) ;
#201 = DIRECTION ( 'NONE',  ( 0.000000000000000000, 0.000000000000000000, 1.000000000000000000 ) ) ;
#202 = ORIENTED_EDGE ( 'NONE', *, *, #96, .F. ) ;
#203 = APPROVAL ( #280, 'UNSPECIFIED' ) ;
#204 = CC_DESIGN_APPROVAL ( #203, ( #363 ) ) ;
#205 = CARTESIAN_POINT ( 'NONE',  ( 0.000000000000000000, 0.000000000000000000, 0.000000000000000000 ) ) ;
#206 = ORIENTED_EDGE ( 'NONE', *, *, #364, .T. ) ;
#207 = FACE_BOUND ( 'NONE', #158, .T. ) ;
#208 = DIRECTION ( 'NONE',  ( -0.000000000000000000, -1.000000000000000000, -0.000000000000000000 ) ) ;
#209 = DIRECTION ( 'NONE',  ( -1.000000000000000000, 0.000000000000000000, 0.000000000000000000 ) ) ;
#210 = CIRCLE ( 'NONE', #188, 7.500000000000007105 ) ;
#211 = CARTESIAN_POINT ( 'NONE',  ( -71.99999999999998579, 0.000000000000000000, 25.00000000000000000 ) ) ;
#212 = CARTESIAN_POINT ( 'NONE',  ( 64.50000000000000000, 9.184850993605142028E-16, 25.00000000000000000 ) ) ;
#213 = CARTESIAN_POINT ( 'NONE',  ( -92.00000000000000000, 13.11569249624066558, 25.00000000000000000 ) ) ;
#214 = SECURITY_CLASSIFICATION_LEVEL ( 'unclassified' ) ;
#215 = CARTESIAN_POINT ( 'NONE',  ( -92.00000000000000000, 13.11569249624066558, 0.000000000000000000 ) ) ;
#216 = EDGE_LOOP ( 'NONE', ( #19, #206 ) ) ;
#217 = COORDINATED_UNIVERSAL_TIME_OFFSET ( 5, 30, .AHEAD. ) ;
#218 = DATE_AND_TIME ( #163, #383 ) ;
#219 = CC_DESIGN_PERSON_AND_ORGANIZATION_ASSIGNMENT ( #134, #98, ( #264 ) ) ;
#220 = ORIENTED_EDGE ( 'NONE', *, *, #184, .F. ) ;
#221 = DIRECTION ( 'NONE',  ( -0.000000000000000000, -0.000000000000000000, 1.000000000000000000 ) ) ;
#222 = DIRECTION ( 'NONE',  ( 1.000000000000000000, 0.000000000000000000, 0.000000000000000000 ) ) ;
#223 = ORIENTED_EDGE ( 'NONE', *, *, #197, .T. ) ;
#224 = FACE_OUTER_BOUND ( 'NONE', #254, .T. ) ;
#225 = CC_DESIGN_PERSON_AND_ORGANIZATION_ASSIGNMENT ( #99, #248, ( #363 ) ) ;
#226 = ORIENTED_EDGE ( 'NONE', *, *, #30, .F. ) ;
#227 = VECTOR ( 'NONE', #74, 1000.000000000000000 ) ;
#228 = LINE ( 'NONE', #294, #62 ) ;
#229 = AXIS2_PLACEMENT_3D ( 'NONE', #164, #285, #198 ) ;
#230 = CARTESIAN_POINT ( 'NONE',  ( 79.50000000000001421, -3.081487911019577365E-30, 0.000000000000000000 ) ) ;
#231 = PLANE ( 'NONE',  #124 ) ;
#232 = CARTESIAN_POINT ( 'NONE',  ( 92.00000000000000000, -11.88430750375933620, 0.000000000000000000 ) ) ;
#233 = AXIS2_PLACEMENT_3D ( 'NONE', #151, #222, #20 ) ;
#234 = DIRECTION ( 'NONE',  ( 0.000000000000000000, 0.000000000000000000, 1.000000000000000000 ) ) ;
#235 = VERTEX_POINT ( 'NONE', #212 ) ;
#236 = CARTESIAN_POINT ( 'NONE',  ( -92.00000000000000000, -11.88430750375933620, 25.00000000000000000 ) ) ;
#237 = CARTESIAN_POINT ( 'NONE',  ( -64.49999999999997158, 0.000000000000000000, 0.000000000000000000 ) ) ;
#238 = ORIENTED_EDGE ( 'NONE', *, *, #110, .F. ) ;
#239 = VECTOR ( 'NONE', #122, 1000.000000000000000 ) ;
#240 = DIRECTION ( 'NONE',  ( 1.000000000000000000, 0.000000000000000000, 0.000000000000000000 ) ) ;
#241 = CALENDAR_DATE ( 2026, 21, 9 ) ;
#242 = CALENDAR_DATE ( 2026, 21, 9 ) ;
#243 = ORIENTED_EDGE ( 'NONE', *, *, #194, .T. ) ;
#244 = PERSON_AND_ORGANIZATION ( #350, #370 ) ;
#245 = VECTOR ( 'NONE', #256, 1000.000000000000000 ) ;
#246 = CC_DESIGN_DATE_AND_TIME_ASSIGNMENT ( #312, #339, ( #171 ) ) ;
#247 = VERTEX_POINT ( 'NONE', #36 ) ;
#248 = PERSON_AND_ORGANIZATION_ROLE ( 'creator' ) ;
#249 = ORIENTED_EDGE ( 'NONE', *, *, #103, .F. ) ;
#250 = FACE_OUTER_BOUND ( 'NONE', #84, .T. ) ;
#251 = ORIENTED_EDGE ( 'NONE', *, *, #177, .T. ) ;
#252 = CIRCLE ( 'NONE', #150, 7.500000000000007105 ) ;
#253 = CARTESIAN_POINT ( 'NONE',  ( 72.00000000000001421, -3.081487911019577365E-30, 0.000000000000000000 ) ) ;
#254 = EDGE_LOOP ( 'NONE', ( #284, #125, #34, #176 ) ) ;
#255 = CC_DESIGN_PERSON_AND_ORGANIZATION_ASSIGNMENT ( #366, #97, ( #267 ) ) ;
#256 = DIRECTION ( 'NONE',  ( -1.000000000000000000, -0.000000000000000000, -0.000000000000000000 ) ) ;
#257 = ORIENTED_EDGE ( 'NONE', *, *, #372, .F. ) ;
#258 = PLANE ( 'NONE',  #137 ) ;
#259 = ADVANCED_BREP_SHAPE_REPRESENTATION ( 'crank_Default_sldprt', ( #127, #101 ), #307 ) ;
#260 = VERTEX_POINT ( 'NONE', #299 ) ;
#261 = LOCAL_TIME ( 22, 52, 16.00000000000000000, #217 ) ;
#262 = CYLINDRICAL_SURFACE ( 'NONE', #16, 7.500000000000007105 ) ;
#263 = DIRECTION ( 'NONE',  ( 1.000000000000000000, 0.000000000000000000, 0.000000000000000000 ) ) ;
#264 = PRODUCT ( 'crank_Default_sldprt', 'crank_Default_sldprt', '', ( #165 ) ) ;
#265 = ORIENTED_EDGE ( 'NONE', *, *, #275, .T. ) ;
#266 = LINE ( 'NONE', #338, #227 ) ;
#267 = PRODUCT_DEFINITION_FORMATION_WITH_SPECIFIED_SOURCE ( 'ANY', '', #264, .NOT_KNOWN. ) ;
#268 = CARTESIAN_POINT ( 'NONE',  ( -79.49999999999998579, 9.184850993605173582E-16, 25.00000000000000000 ) ) ;
#269 = ORIENTED_EDGE ( 'NONE', *, *, #335, .F. ) ;
#270 = VECTOR ( 'NONE', #21, 1000.000000000000000 ) ;
#271 = CARTESIAN_POINT ( 'NONE',  ( 72.00000000000001421, -3.081487911019577365E-30, 0.000000000000000000 ) ) ;
#272 = LINE ( 'NONE', #232, #75 ) ;
#273 = EDGE_LOOP ( 'NONE', ( #121, #170, #202, #243 ) ) ;
#274 = DATE_AND_TIME ( #191, #261 ) ;
#275 = EDGE_CURVE ( 'NONE', #297, #281, #157, .T. ) ;
#276 = AXIS2_PLACEMENT_3D ( 'NONE', #126, #66, #1 ) ;
#277 = FACE_OUTER_BOUND ( 'NONE', #196, .T. ) ;
#278 = SHAPE_DEFINITION_REPRESENTATION ( #357, #259 ) ;
#279 = EDGE_CURVE ( 'NONE', #304, #22, #298, .T. ) ;
#280 = APPROVAL_STATUS ( 'not_yet_approved' ) ;
#281 = VERTEX_POINT ( 'NONE', #8 ) ;
#282 = EDGE_CURVE ( 'NONE', #63, #288, #64, .T. ) ;
#283 = VECTOR ( 'NONE', #362, 1000.000000000000000 ) ;
#284 = ORIENTED_EDGE ( 'NONE', *, *, #343, .F. ) ;
#285 = DIRECTION ( 'NONE',  ( 0.000000000000000000, 0.000000000000000000, 1.000000000000000000 ) ) ;
#286 = DESIGN_CONTEXT ( 'detailed design', #365, 'design' ) ;
#287 = DIRECTION ( 'NONE',  ( -0.000000000000000000, -1.000000000000000000, -0.000000000000000000 ) ) ;
#288 = VERTEX_POINT ( 'NONE', #160 ) ;
#289 = FACE_OUTER_BOUND ( 'NONE', #47, .T. ) ;
#290 = VECTOR ( 'NONE', #208, 1000.000000000000000 ) ;
#291 = VERTEX_POINT ( 'NONE', #268 ) ;
#292 = DIRECTION ( 'NONE',  ( 0.000000000000000000, 0.000000000000000000, -1.000000000000000000 ) ) ;
#293 = ORIENTED_EDGE ( 'NONE', *, *, #194, .F. ) ;
#294 = CARTESIAN_POINT ( 'NONE',  ( -92.00000000000000000, -11.88430750375933620, 25.00000000000000000 ) ) ;
#295 = CARTESIAN_POINT ( 'NONE',  ( -64.49999999999997158, 0.000000000000000000, 0.000000000000000000 ) ) ;
#296 = AXIS2_PLACEMENT_3D ( 'NONE', #79, #200, #201 ) ;
#297 = VERTEX_POINT ( 'NONE', #355 ) ;
#298 = LINE ( 'NONE', #65, #78 ) ;
#299 = CARTESIAN_POINT ( 'NONE',  ( 92.00000000000000000, 13.11569249624066558, 0.000000000000000000 ) ) ;
#300 = ORIENTED_EDGE ( 'NONE', *, *, #177, .F. ) ;
#301 = DIRECTION ( 'NONE',  ( 1.000000000000000000, 0.000000000000000000, 0.000000000000000000 ) ) ;
#302 = AXIS2_PLACEMENT_3D ( 'NONE', #81, #375, #139 ) ;
#303 = LINE ( 'NONE', #360, #290 ) ;
#304 = VERTEX_POINT ( 'NONE', #359 ) ;
#305 = APPROVAL_STATUS ( 'not_yet_approved' ) ;
#306 = CARTESIAN_POINT ( 'NONE',  ( 92.00000000000000000, -11.88430750375933620, 25.00000000000000000 ) ) ;
#307 =( GEOMETRIC_REPRESENTATION_CONTEXT ( 3 ) GLOBAL_UNCERTAINTY_ASSIGNED_CONTEXT ( ( #18 ) ) GLOBAL_UNIT_ASSIGNED_CONTEXT ( ( #70, #13, #43 ) ) REPRESENTATION_CONTEXT ( 'NONE', 'WORKASPACE' ) );
#308 = PERSON_AND_ORGANIZATION ( #350, #370 ) ;
#309 = VECTOR ( 'NONE', #94, 1000.000000000000000 ) ;
#310 = PERSON_AND_ORGANIZATION ( #350, #370 ) ;
#311 = CC_DESIGN_DATE_AND_TIME_ASSIGNMENT ( #41, #132, ( #363 ) ) ;
#312 = DATE_AND_TIME ( #102, #313 ) ;
#313 = LOCAL_TIME ( 22, 52, 16.00000000000000000, #105 ) ;
#314 = VERTEX_POINT ( 'NONE', #7 ) ;
#315 = PLANE ( 'NONE',  #233 ) ;
#316 = FACE_OUTER_BOUND ( 'NONE', #273, .T. ) ;
#317 = PRODUCT_RELATED_PRODUCT_CATEGORY ( 'detail', '', ( #264 ) ) ;
#318 = ORIENTED_EDGE ( 'NONE', *, *, #282, .T. ) ;
#319 = FACE_BOUND ( 'NONE', #216, .T. ) ;
#320 = EDGE_LOOP ( 'NONE', ( #173, #324 ) ) ;
#321 = CC_DESIGN_APPROVAL ( #87, ( #171 ) ) ;
#322 = LINE ( 'NONE', #348, #270 ) ;
#323 = AXIS2_PLACEMENT_3D ( 'NONE', #83, #292, #145 ) ;
#324 = ORIENTED_EDGE ( 'NONE', *, *, #103, .T. ) ;
#325 = EDGE_CURVE ( 'NONE', #314, #291, #46, .T. ) ;
#326 = CARTESIAN_POINT ( 'NONE',  ( 79.50000000000001421, -3.081487911019577365E-30, 0.000000000000000000 ) ) ;
#327 = FACE_OUTER_BOUND ( 'NONE', #80, .T. ) ;
#328 = LOCAL_TIME ( 22, 52, 16.00000000000000000, #71 ) ;
#329 = CARTESIAN_POINT ( 'NONE',  ( 92.00000000000000000, -11.88430750375933620, 25.00000000000000000 ) ) ;
#330 = VECTOR ( 'NONE', #331, 1000.000000000000000 ) ;
#331 = DIRECTION ( 'NONE',  ( -0.000000000000000000, -0.000000000000000000, 1.000000000000000000 ) ) ;
#332 = ADVANCED_FACE ( 'NONE', ( #61 ), #88, .F. ) ;
#333 = CARTESIAN_POINT ( 'NONE',  ( 72.00000000000001421, -3.081487911019577365E-30, 25.00000000000000000 ) ) ;
#334 = CARTESIAN_POINT ( 'NONE',  ( -79.49999999999998579, 9.184850993605165694E-16, 0.000000000000000000 ) ) ;
#335 = EDGE_CURVE ( 'NONE', #291, #314, #12, .T. ) ;
#336 = DIRECTION ( 'NONE',  ( 0.000000000000000000, 0.000000000000000000, 1.000000000000000000 ) ) ;
#337 = APPROVAL_DATE_TIME ( #274, #203 ) ;
#338 = CARTESIAN_POINT ( 'NONE',  ( -92.00000000000000000, -11.88430750375933620, 0.000000000000000000 ) ) ;
#339 = DATE_TIME_ROLE ( 'classification_date' ) ;
#340 = EDGE_CURVE ( 'NONE', #384, #314, #32, .T. ) ;
#341 = DATE_AND_TIME ( #241, #328 ) ;
#342 = CARTESIAN_POINT ( 'NONE',  ( -71.99999999999998579, 0.000000000000000000, 0.000000000000000000 ) ) ;
#343 = EDGE_CURVE ( 'NONE', #247, #260, #272, .T. ) ;
#344 = CIRCLE ( 'NONE', #38, 7.500000000000007105 ) ;
#345 = FACE_OUTER_BOUND ( 'NONE', #369, .T. ) ;
#346 = FACE_OUTER_BOUND ( 'NONE', #114, .T. ) ;
#347 = ORIENTED_EDGE ( 'NONE', *, *, #93, .T. ) ;
#348 = CARTESIAN_POINT ( 'NONE',  ( -92.00000000000000000, -11.88430750375933620, 25.00000000000000000 ) ) ;
#349 = ORIENTED_EDGE ( 'NONE', *, *, #340, .F. ) ;
#350 = PERSON ( 'UNSPECIFIED', 'UNSPECIFIED', 'UNSPECIFIED', ('UNSPECIFIED'), ('UNSPECIFIED'), ('UNSPECIFIED') ) ;
#351 = EDGE_CURVE ( 'NONE', #25, #281, #303, .T. ) ;
#352 = PLANE ( 'NONE',  #104 ) ;
#353 = VECTOR ( 'NONE', #221, 1000.000000000000000 ) ;
#354 = ADVANCED_FACE ( 'NONE', ( #327 ), #231, .F. ) ;
#355 = CARTESIAN_POINT ( 'NONE',  ( -92.00000000000000000, -11.88430750375933620, 25.00000000000000000 ) ) ;
#356 = DIRECTION ( 'NONE',  ( 0.000000000000000000, 0.000000000000000000, 1.000000000000000000 ) ) ;
#357 = PRODUCT_DEFINITION_SHAPE ( 'NONE', 'NONE',  #363 ) ;
#358 = APPROVAL_PERSON_ORGANIZATION ( #308, #203, #11 ) ;
#359 = CARTESIAN_POINT ( 'NONE',  ( 92.00000000000000000, 13.11569249624066558, 25.00000000000000000 ) ) ;
#360 = CARTESIAN_POINT ( 'NONE',  ( -92.00000000000000000, -11.88430750375933620, 0.000000000000000000 ) ) ;
#361 = ORIENTED_EDGE ( 'NONE', *, *, #110, .T. ) ;
#362 = DIRECTION ( 'NONE',  ( -0.000000000000000000, -0.000000000000000000, 1.000000000000000000 ) ) ;
#363 = PRODUCT_DEFINITION ( 'UNKNOWN', '', #267, #286 ) ;
#364 = EDGE_CURVE ( 'NONE', #235, #288, #252, .T. ) ;
#365 = APPLICATION_CONTEXT ( 'configuration controlled 3d designs of mechanical parts and assemblies' ) ;
#366 = PERSON_AND_ORGANIZATION ( #350, #370 ) ;
#367 = APPLICATION_PROTOCOL_DEFINITION ( 'international standard', 'config_control_design', 1994, #37 ) ;
#368 = APPROVAL_DATE_TIME ( #341, #87 ) ;
#369 = EDGE_LOOP ( 'NONE', ( #82, #238, #257, #100 ) ) ;
#370 = ORGANIZATION ( 'UNSPECIFIED', 'UNSPECIFIED', '' ) ;
#371 = APPROVAL_DATE_TIME ( #218, #72 ) ;
#372 = EDGE_CURVE ( 'NONE', #55, #304, #186, .T. ) ;
#373 = AXIS2_PLACEMENT_3D ( 'NONE', #253, #54, #381 ) ;
#374 = EDGE_LOOP ( 'NONE', ( #199, #251 ) ) ;
#375 = DIRECTION ( 'NONE',  ( -0.000000000000000000, -0.000000000000000000, 1.000000000000000000 ) ) ;
#376 = DIRECTION ( 'NONE',  ( 0.000000000000000000, -1.000000000000000000, 0.000000000000000000 ) ) ;
#377 = ORIENTED_EDGE ( 'NONE', *, *, #364, .F. ) ;
#378 = CARTESIAN_POINT ( 'NONE',  ( -92.00000000000000000, 13.11569249624066558, 25.00000000000000000 ) ) ;
#379 = EDGE_CURVE ( 'NONE', #281, #247, #266, .T. ) ;
#380 = ORIENTED_EDGE ( 'NONE', *, *, #340, .T. ) ;
#381 = DIRECTION ( 'NONE',  ( 1.000000000000000000, 0.000000000000000000, 0.000000000000000000 ) ) ;
#382 = ADVANCED_FACE ( 'NONE', ( #277 ), #68, .F. ) ;
#383 = LOCAL_TIME ( 22, 52, 16.00000000000000000, #107 ) ;
#384 = VERTEX_POINT ( 'NONE', #237 ) ;
#385 = LINE ( 'NONE', #108, #245 ) ;
ENDSEC;
END-ISO-10303-21;
