ISO-10303-21;
HEADER;
FILE_DESCRIPTION (( 'STEP AP203' ),
    '1' );
FILE_NAME ('d_Default_sldprt.STEP',
    '2026-09-21T17:22:17',
    ( '' ),
    ( '' ),
    'SwSTEP 2.0',
    'SolidWorks 2021',
    '' );
FILE_SCHEMA (( 'CONFIG_CONTROL_DESIGN' ));
ENDSEC;

DATA;
#1 = DIRECTION ( 'NONE',  ( -0.000000000000000000, 1.000000000000000000, -0.000000000000000000 ) ) ;
#2 = DIRECTION ( 'NONE',  ( 0.000000000000000000, -0.000000000000000000, -1.000000000000000000 ) ) ;
#3 = ORIENTED_EDGE ( 'NONE', *, *, #309, .T. ) ;
#4 = CARTESIAN_POINT ( 'NONE',  ( 274.4999999999998863, 0.000000000000000000, 25.00000000000000000 ) ) ;
#5 = DIRECTION ( 'NONE',  ( -1.000000000000000000, 0.000000000000000000, 0.000000000000000000 ) ) ;
#6 = DESIGN_CONTEXT ( 'detailed design', #70, 'design' ) ;
#7 = DATE_AND_TIME ( #184, #354 ) ;
#8 = AXIS2_PLACEMENT_3D ( 'NONE', #183, #154, #40 ) ;
#9 = EDGE_CURVE ( 'NONE', #373, #65, #144, .T. ) ;
#10 = EDGE_LOOP ( 'NONE', ( #30, #74, #33, #346 ) ) ;
#11 = PERSON_AND_ORGANIZATION ( #172, #268 ) ;
#12 = DIRECTION ( 'NONE',  ( 1.000000000000000000, 0.000000000000000000, 0.000000000000000000 ) ) ;
#13 = VERTEX_POINT ( 'NONE', #375 ) ;
#14 = PERSON_AND_ORGANIZATION_ROLE ( 'design_supplier' ) ;
#15 = CARTESIAN_POINT ( 'NONE',  ( -302.0000000000684963, 12.49999999999789146, 25.00000000000000000 ) ) ;
#16 = CARTESIAN_POINT ( 'NONE',  ( 301.9999999999315037, 12.49999999999789146, 25.00000000000000000 ) ) ;
#17 = ORIENTED_EDGE ( 'NONE', *, *, #347, .F. ) ;
#18 = EDGE_CURVE ( 'NONE', #317, #13, #297, .T. ) ;
#19 = CARTESIAN_POINT ( 'NONE',  ( -302.0000000000684963, 12.49999999999789146, 12.50000000000000000 ) ) ;
#20 = ORIENTED_EDGE ( 'NONE', *, *, #18, .T. ) ;
#21 = EDGE_CURVE ( 'NONE', #373, #338, #131, .T. ) ;
#22 = EDGE_LOOP ( 'NONE', ( #125, #3, #46, #42 ) ) ;
#23 = FACE_BOUND ( 'NONE', #37, .T. ) ;
#24 = CIRCLE ( 'NONE', #315, 7.500000000000007105 ) ;
#25 = DATE_AND_TIME ( #31, #206 ) ;
#26 = ORIENTED_EDGE ( 'NONE', *, *, #47, .T. ) ;
#27 = CARTESIAN_POINT ( 'NONE',  ( -302.0000000000684963, -12.50000000000211031, 12.50000000000000000 ) ) ;
#28 = APPROVAL ( #278, 'UNSPECIFIED' ) ;
#29 = PLANE ( 'NONE',  #179 ) ;
#30 = ORIENTED_EDGE ( 'NONE', *, *, #291, .T. ) ;
#31 = CALENDAR_DATE ( 2026, 21, 9 ) ;
#32 = FACE_OUTER_BOUND ( 'NONE', #22, .T. ) ;
#33 = ORIENTED_EDGE ( 'NONE', *, *, #212, .F. ) ;
#34 = VECTOR ( 'NONE', #136, 1000.000000000000000 ) ;
#35 = DIRECTION ( 'NONE',  ( -0.000000000000000000, -0.000000000000000000, -1.000000000000000000 ) ) ;
#36 = LINE ( 'NONE', #299, #148 ) ;
#37 = EDGE_LOOP ( 'NONE', ( #246, #195 ) ) ;
#38 = APPROVAL ( #332, 'UNSPECIFIED' ) ;
#39 = DATE_AND_TIME ( #156, #301 ) ;
#40 = DIRECTION ( 'NONE',  ( 1.000000000000000000, 0.000000000000000000, 0.000000000000000000 ) ) ;
#41 = LINE ( 'NONE', #58, #99 ) ;
#42 = ORIENTED_EDGE ( 'NONE', *, *, #9, .F. ) ;
#43 = VECTOR ( 'NONE', #1, 1000.000000000000000 ) ;
#44 = ADVANCED_FACE ( 'NONE', ( #53, #23, #345 ), #262, .F. ) ;
#45 = CALENDAR_DATE ( 2026, 21, 9 ) ;
#46 = ORIENTED_EDGE ( 'NONE', *, *, #244, .F. ) ;
#47 = EDGE_CURVE ( 'NONE', #145, #175, #287, .T. ) ;
#48 = CARTESIAN_POINT ( 'NONE',  ( 281.9999999999999432, 0.000000000000000000, 12.50000000000000000 ) ) ;
#49 = CIRCLE ( 'NONE', #147, 7.500000000000007105 ) ;
#50 = CYLINDRICAL_SURFACE ( 'NONE', #344, 7.500000000000007105 ) ;
#51 = VECTOR ( 'NONE', #68, 1000.000000000000000 ) ;
#52 = DIRECTION ( 'NONE',  ( -1.000000000000000000, 0.000000000000000000, 0.000000000000000000 ) ) ;
#53 = FACE_BOUND ( 'NONE', #213, .T. ) ;
#54 = COORDINATED_UNIVERSAL_TIME_OFFSET ( 5, 30, .AHEAD. ) ;
#55 = ORIENTED_EDGE ( 'NONE', *, *, #244, .T. ) ;
#56 = VECTOR ( 'NONE', #304, 1000.000000000000000 ) ;
#57 = AXIS2_PLACEMENT_3D ( 'NONE', #335, #69, #2 ) ;
#58 = CARTESIAN_POINT ( 'NONE',  ( 301.9999999999315037, 12.49999999999789146, 25.00000000000000000 ) ) ;
#59 = DIRECTION ( 'NONE',  ( 1.000000000000000000, 0.000000000000000000, 0.000000000000000000 ) ) ;
#60 = DIRECTION ( 'NONE',  ( -1.000000000000000000, 0.000000000000000000, 0.000000000000000000 ) ) ;
#61 =( NAMED_UNIT ( * ) PLANE_ANGLE_UNIT ( ) SI_UNIT ( $, .RADIAN. ) );
#62 = CYLINDRICAL_SURFACE ( 'NONE', #75, 7.500000000000007105 ) ;
#63 = EDGE_CURVE ( 'NONE', #13, #317, #337, .T. ) ;
#64 = PRODUCT ( 'd_Default_sldprt', 'd_Default_sldprt', '', ( #153 ) ) ;
#65 = VERTEX_POINT ( 'NONE', #238 ) ;
#66 = AXIS2_PLACEMENT_3D ( 'NONE', #178, #357, #158 ) ;
#67 = LINE ( 'NONE', #323, #141 ) ;
#68 = DIRECTION ( 'NONE',  ( -0.000000000000000000, -0.000000000000000000, -1.000000000000000000 ) ) ;
#69 = DIRECTION ( 'NONE',  ( 0.000000000000000000, -1.000000000000000000, 0.000000000000000000 ) ) ;
#70 = APPLICATION_CONTEXT ( 'configuration controlled 3d designs of mechanical parts and assemblies' ) ;
#71 = EDGE_CURVE ( 'NONE', #256, #331, #378, .T. ) ;
#72 = COORDINATED_UNIVERSAL_TIME_OFFSET ( 5, 30, .AHEAD. ) ;
#73 = DIRECTION ( 'NONE',  ( -0.000000000000000000, -0.000000000000000000, -1.000000000000000000 ) ) ;
#74 = ORIENTED_EDGE ( 'NONE', *, *, #71, .F. ) ;
#75 = AXIS2_PLACEMENT_3D ( 'NONE', #273, #209, #5 ) ;
#76 = ORIENTED_EDGE ( 'NONE', *, *, #347, .T. ) ;
#77 = PERSON_AND_ORGANIZATION ( #172, #268 ) ;
#78 = DATE_AND_TIME ( #45, #192 ) ;
#79 = ORIENTED_EDGE ( 'NONE', *, *, #291, .F. ) ;
#80 = AXIS2_PLACEMENT_3D ( 'NONE', #237, #85, #351 ) ;
#81 = ORIENTED_EDGE ( 'NONE', *, *, #212, .T. ) ;
#82 = ADVANCED_FACE ( 'NONE', ( #233 ), #293, .F. ) ;
#83 = DIRECTION ( 'NONE',  ( -0.000000000000000000, 0.000000000000000000, -1.000000000000000000 ) ) ;
#84 = VECTOR ( 'NONE', #289, 1000.000000000000000 ) ;
#85 = DIRECTION ( 'NONE',  ( 0.000000000000000000, 0.000000000000000000, 1.000000000000000000 ) ) ;
#86 = CARTESIAN_POINT ( 'NONE',  ( 274.4999999999998863, 0.000000000000000000, 12.50000000000000000 ) ) ;
#87 = ORIENTED_EDGE ( 'NONE', *, *, #176, .T. ) ;
#88 = DIRECTION ( 'NONE',  ( 0.000000000000000000, 0.000000000000000000, 1.000000000000000000 ) ) ;
#89 = EDGE_CURVE ( 'NONE', #250, #106, #24, .T. ) ;
#90 = PLANE ( 'NONE',  #57 ) ;
#91 = VECTOR ( 'NONE', #143, 1000.000000000000000 ) ;
#92 = FACE_OUTER_BOUND ( 'NONE', #216, .T. ) ;
#93 = CARTESIAN_POINT ( 'NONE',  ( -302.0000000000684963, 12.49999999999789146, 12.50000000000000000 ) ) ;
#94 = CARTESIAN_POINT ( 'NONE',  ( -289.4999999999999432, 0.000000000000000000, 25.00000000000000000 ) ) ;
#95 = CARTESIAN_POINT ( 'NONE',  ( 0.000000000000000000, 0.000000000000000000, 25.00000000000000000 ) ) ;
#96 = ORIENTED_EDGE ( 'NONE', *, *, #365, .F. ) ;
#97 = CARTESIAN_POINT ( 'NONE',  ( -302.0000000000684963, 12.49999999999789146, 25.00000000000000000 ) ) ;
#98 = EDGE_LOOP ( 'NONE', ( #108, #336, #110, #96 ) ) ;
#99 = VECTOR ( 'NONE', #342, 1000.000000000000000 ) ;
#100 =( NAMED_UNIT ( * ) SI_UNIT ( $, .STERADIAN. ) SOLID_ANGLE_UNIT ( ) );
#101 = CARTESIAN_POINT ( 'NONE',  ( -281.9999999999999432, 0.000000000000000000, 12.50000000000000000 ) ) ;
#102 = ORIENTED_EDGE ( 'NONE', *, *, #309, .F. ) ;
#103 = UNCERTAINTY_MEASURE_WITH_UNIT (LENGTH_MEASURE( 1.000000000000000082E-05 ), #129, 'distance_accuracy_value', 'NONE');
#104 = LINE ( 'NONE', #134, #225 ) ;
#105 = CC_DESIGN_PERSON_AND_ORGANIZATION_ASSIGNMENT ( #214, #208, ( #64 ) ) ;
#106 = VERTEX_POINT ( 'NONE', #86 ) ;
#107 = EDGE_CURVE ( 'NONE', #256, #128, #171, .T. ) ;
#108 = ORIENTED_EDGE ( 'NONE', *, *, #376, .T. ) ;
#109 = VECTOR ( 'NONE', #353, 1000.000000000000000 ) ;
#110 = ORIENTED_EDGE ( 'NONE', *, *, #187, .F. ) ;
#111 = DIRECTION ( 'NONE',  ( 1.000000000000000000, 0.000000000000000000, -0.000000000000000000 ) ) ;
#112 = DIRECTION ( 'NONE',  ( 1.000000000000000000, 0.000000000000000000, 0.000000000000000000 ) ) ;
#113 = ADVANCED_FACE ( 'NONE', ( #318 ), #50, .F. ) ;
#114 = APPROVAL_PERSON_ORGANIZATION ( #306, #28, #314 ) ;
#115 = CARTESIAN_POINT ( 'NONE',  ( -302.0000000000684963, 12.49999999999789146, 25.00000000000000000 ) ) ;
#116 = CC_DESIGN_PERSON_AND_ORGANIZATION_ASSIGNMENT ( #150, #352, ( #263 ) ) ;
#117 = CARTESIAN_POINT ( 'NONE',  ( -302.0000000000684963, 12.49999999999789146, 25.00000000000000000 ) ) ;
#118 = DATE_TIME_ROLE ( 'creation_date' ) ;
#119 = DIRECTION ( 'NONE',  ( 0.000000000000000000, 0.000000000000000000, 1.000000000000000000 ) ) ;
#120 = DIRECTION ( 'NONE',  ( 1.000000000000000000, 0.000000000000000000, 0.000000000000000000 ) ) ;
#121 = CARTESIAN_POINT ( 'NONE',  ( 301.9999999999315037, 12.49999999999789146, 25.00000000000000000 ) ) ;
#122 = CC_DESIGN_APPROVAL ( #240, ( #200 ) ) ;
#123 = LINE ( 'NONE', #27, #56 ) ;
#124 = FACE_OUTER_BOUND ( 'NONE', #308, .T. ) ;
#125 = ORIENTED_EDGE ( 'NONE', *, *, #21, .T. ) ;
#126 = CARTESIAN_POINT ( 'NONE',  ( -302.0000000000684963, -12.50000000000211031, 25.00000000000000000 ) ) ;
#127 = LINE ( 'NONE', #305, #109 ) ;
#128 = VERTEX_POINT ( 'NONE', #165 ) ;
#129 =( LENGTH_UNIT ( ) NAMED_UNIT ( * ) SI_UNIT ( .MILLI., .METRE. ) );
#130 = CARTESIAN_POINT ( 'NONE',  ( -302.0000000000684963, -12.50000000000211031, 25.00000000000000000 ) ) ;
#131 = CIRCLE ( 'NONE', #194, 7.500000000000007105 ) ;
#132 = ORIENTED_EDGE ( 'NONE', *, *, #349, .F. ) ;
#133 = CALENDAR_DATE ( 2026, 21, 9 ) ;
#134 = CARTESIAN_POINT ( 'NONE',  ( -274.4999999999998863, 9.184850993605165694E-16, 25.00000000000000000 ) ) ;
#135 = PERSON_AND_ORGANIZATION ( #172, #268 ) ;
#136 = DIRECTION ( 'NONE',  ( 0.000000000000000000, -1.000000000000000000, 0.000000000000000000 ) ) ;
#137 = VECTOR ( 'NONE', #247, 1000.000000000000000 ) ;
#138 = DATE_TIME_ROLE ( 'classification_date' ) ;
#139 = ORIENTED_EDGE ( 'NONE', *, *, #204, .T. ) ;
#140 = ORIENTED_EDGE ( 'NONE', *, *, #204, .F. ) ;
#141 = VECTOR ( 'NONE', #120, 1000.000000000000000 ) ;
#142 = AXIS2_PLACEMENT_3D ( 'NONE', #115, #151, #83 ) ;
#143 = DIRECTION ( 'NONE',  ( 0.000000000000000000, -1.000000000000000000, 0.000000000000000000 ) ) ;
#144 = LINE ( 'NONE', #348, #84 ) ;
#145 = VERTEX_POINT ( 'NONE', #121 ) ;
#146 = PRODUCT_RELATED_PRODUCT_CATEGORY ( 'detail', '', ( #64 ) ) ;
#147 = AXIS2_PLACEMENT_3D ( 'NONE', #339, #275, #12 ) ;
#148 = VECTOR ( 'NONE', #215, 1000.000000000000000 ) ;
#149 = ORIENTED_EDGE ( 'NONE', *, *, #152, .F. ) ;
#150 = PERSON_AND_ORGANIZATION ( #172, #268 ) ;
#151 = DIRECTION ( 'NONE',  ( 1.000000000000000000, 0.000000000000000000, -0.000000000000000000 ) ) ;
#152 = EDGE_CURVE ( 'NONE', #186, #331, #330, .T. ) ;
#153 = MECHANICAL_CONTEXT ( 'NONE', #283, 'mechanical' ) ;
#154 = DIRECTION ( 'NONE',  ( 0.000000000000000000, 0.000000000000000000, 1.000000000000000000 ) ) ;
#155 = ORIENTED_EDGE ( 'NONE', *, *, #21, .F. ) ;
#156 = CALENDAR_DATE ( 2026, 21, 9 ) ;
#157 = CARTESIAN_POINT ( 'NONE',  ( 301.9999999999315037, -12.50000000000211031, 25.00000000000000000 ) ) ;
#158 = DIRECTION ( 'NONE',  ( -1.000000000000000000, 0.000000000000000000, 0.000000000000000000 ) ) ;
#159 = DIRECTION ( 'NONE',  ( -1.000000000000000000, 0.000000000000000000, 0.000000000000000000 ) ) ;
#160 = ORIENTED_EDGE ( 'NONE', *, *, #176, .F. ) ;
#161 = ADVANCED_FACE ( 'NONE', ( #295 ), #62, .F. ) ;
#162 = APPROVAL_STATUS ( 'not_yet_approved' ) ;
#163 = CARTESIAN_POINT ( 'NONE',  ( -274.4999999999998863, 9.184850993605173582E-16, 12.50000000000000000 ) ) ;
#164 = ADVANCED_FACE ( 'NONE', ( #328 ), #185, .F. ) ;
#165 = CARTESIAN_POINT ( 'NONE',  ( -302.0000000000684963, -12.50000000000211031, 12.50000000000000000 ) ) ;
#166 = VERTEX_POINT ( 'NONE', #130 ) ;
#167 = CIRCLE ( 'NONE', #8, 7.500000000000007105 ) ;
#168 = PERSON_AND_ORGANIZATION_ROLE ( 'creator' ) ;
#169 = CARTESIAN_POINT ( 'NONE',  ( 301.9999999999315037, 12.49999999999789146, 12.50000000000000000 ) ) ;
#170 = APPROVAL_PERSON_ORGANIZATION ( #210, #240, #267 ) ;
#171 = LINE ( 'NONE', #350, #91 ) ;
#172 = PERSON ( 'UNSPECIFIED', 'UNSPECIFIED', 'UNSPECIFIED', ('UNSPECIFIED'), ('UNSPECIFIED'), ('UNSPECIFIED') ) ;
#173 = VECTOR ( 'NONE', #241, 1000.000000000000000 ) ;
#174 = CARTESIAN_POINT ( 'NONE',  ( -281.9999999999999432, 0.000000000000000000, 25.00000000000000000 ) ) ;
#175 = VERTEX_POINT ( 'NONE', #97 ) ;
#176 = EDGE_CURVE ( 'NONE', #222, #65, #383, .T. ) ;
#177 = CARTESIAN_POINT ( 'NONE',  ( -302.0000000000684963, 12.49999999999789146, 12.50000000000000000 ) ) ;
#178 = CARTESIAN_POINT ( 'NONE',  ( 281.9999999999999432, 0.000000000000000000, 25.00000000000000000 ) ) ;
#179 = AXIS2_PLACEMENT_3D ( 'NONE', #239, #333, #364 ) ;
#180 = DIRECTION ( 'NONE',  ( 1.000000000000000000, -0.000000000000000000, -0.000000000000000000 ) ) ;
#181 = CARTESIAN_POINT ( 'NONE',  ( 301.9999999999315037, -12.50000000000211031, 12.50000000000000000 ) ) ;
#182 = APPROVAL_ROLE ( '' ) ;
#183 = CARTESIAN_POINT ( 'NONE',  ( 281.9999999999999432, 0.000000000000000000, 12.50000000000000000 ) ) ;
#184 = CALENDAR_DATE ( 2026, 21, 9 ) ;
#185 = PLANE ( 'NONE',  #286 ) ;
#186 = VERTEX_POINT ( 'NONE', #181 ) ;
#187 = EDGE_CURVE ( 'NONE', #232, #186, #360, .T. ) ;
#188 = CARTESIAN_POINT ( 'NONE',  ( 301.9999999999315037, 12.49999999999789146, 25.00000000000000000 ) ) ;
#189 = ADVANCED_FACE ( 'NONE', ( #382 ), #29, .F. ) ;
#190 = FACE_BOUND ( 'NONE', #311, .T. ) ;
#191 = CARTESIAN_POINT ( 'NONE',  ( -274.4999999999998863, 9.184850993605173582E-16, 25.00000000000000000 ) ) ;
#193 = ADVANCED_BREP_SHAPE_REPRESENTATION ( 'd_Default_sldprt', ( #371, #236 ), #310 ) ;
#192 = LOCAL_TIME ( 22, 52, 17.00000000000000000, #251 ) ;
#194 = AXIS2_PLACEMENT_3D ( 'NONE', #259, #88, #112 ) ;
#195 = ORIENTED_EDGE ( 'NONE', *, *, #89, .T. ) ;
#196 = ORIENTED_EDGE ( 'NONE', *, *, #71, .T. ) ;
#197 = CC_DESIGN_APPROVAL ( #28, ( #274 ) ) ;
#198 = ORIENTED_EDGE ( 'NONE', *, *, #89, .F. ) ;
#199 = DIRECTION ( 'NONE',  ( 1.000000000000000000, 0.000000000000000000, 0.000000000000000000 ) ) ;
#200 = PRODUCT_DEFINITION_FORMATION_WITH_SPECIFIED_SOURCE ( 'ANY', '', #64, .NOT_KNOWN. ) ;
#201 = DIRECTION ( 'NONE',  ( -0.000000000000000000, -0.000000000000000000, -1.000000000000000000 ) ) ;
#202 = DIRECTION ( 'NONE',  ( 1.000000000000000000, 0.000000000000000000, 0.000000000000000000 ) ) ;
#203 = EDGE_LOOP ( 'NONE', ( #81, #266, #334, #322 ) ) ;
#204 = EDGE_CURVE ( 'NONE', #317, #250, #127, .T. ) ;
#205 = CARTESIAN_POINT ( 'NONE',  ( 0.000000000000000000, 0.000000000000000000, 0.000000000000000000 ) ) ;
#206 = LOCAL_TIME ( 22, 52, 17.00000000000000000, #54 ) ;
#207 = CARTESIAN_POINT ( 'NONE',  ( -281.9999999999999432, 0.000000000000000000, 12.50000000000000000 ) ) ;
#208 = PERSON_AND_ORGANIZATION_ROLE ( 'design_owner' ) ;
#209 = DIRECTION ( 'NONE',  ( -0.000000000000000000, -0.000000000000000000, -1.000000000000000000 ) ) ;
#210 = PERSON_AND_ORGANIZATION ( #172, #268 ) ;
#211 = DIRECTION ( 'NONE',  ( -0.000000000000000000, 0.000000000000000000, 1.000000000000000000 ) ) ;
#212 = EDGE_CURVE ( 'NONE', #175, #256, #36, .T. ) ;
#213 = EDGE_LOOP ( 'NONE', ( #55, #87 ) ) ;
#214 = PERSON_AND_ORGANIZATION ( #172, #268 ) ;
#215 = DIRECTION ( 'NONE',  ( -0.000000000000000000, -0.000000000000000000, -1.000000000000000000 ) ) ;
#216 = EDGE_LOOP ( 'NONE', ( #252, #139, #321, #312 ) ) ;
#217 = APPLICATION_PROTOCOL_DEFINITION ( 'international standard', 'config_control_design', 1994, #283 ) ;
#218 = DIRECTION ( 'NONE',  ( 0.000000000000000000, 0.000000000000000000, 1.000000000000000000 ) ) ;
#219 = EDGE_CURVE ( 'NONE', #106, #250, #167, .T. ) ;
#220 = APPROVAL_DATE_TIME ( #7, #240 ) ;
#221 = CARTESIAN_POINT ( 'NONE',  ( 289.4999999999999432, 9.184850993605173582E-16, 25.00000000000000000 ) ) ;
#222 = VERTEX_POINT ( 'NONE', #163 ) ;
#223 = CC_DESIGN_DATE_AND_TIME_ASSIGNMENT ( #78, #138, ( #274 ) ) ;
#224 = PERSON_AND_ORGANIZATION_ROLE ( 'classification_officer' ) ;
#225 = VECTOR ( 'NONE', #73, 1000.000000000000000 ) ;
#226 = AXIS2_PLACEMENT_3D ( 'NONE', #207, #119, #245 ) ;
#227 = EDGE_LOOP ( 'NONE', ( #102, #325, #281, #160 ) ) ;
#228 = ADVANCED_FACE ( 'NONE', ( #32 ), #248, .F. ) ;
#229 = ORIENTED_EDGE ( 'NONE', *, *, #18, .F. ) ;
#230 = CC_DESIGN_DATE_AND_TIME_ASSIGNMENT ( #39, #118, ( #263 ) ) ;
#231 = AXIS2_PLACEMENT_3D ( 'NONE', #101, #218, #356 ) ;
#232 = VERTEX_POINT ( 'NONE', #157 ) ;
#233 = FACE_OUTER_BOUND ( 'NONE', #203, .T. ) ;
#234 = CC_DESIGN_PERSON_AND_ORGANIZATION_ASSIGNMENT ( #77, #14, ( #200 ) ) ;
#235 = CARTESIAN_POINT ( 'NONE',  ( 281.9999999999999432, 0.000000000000000000, 25.00000000000000000 ) ) ;
#236 = AXIS2_PLACEMENT_3D ( 'NONE', #205, #329, #59 ) ;
#237 = CARTESIAN_POINT ( 'NONE',  ( 281.9999999999999432, 0.000000000000000000, 25.00000000000000000 ) ) ;
#238 = CARTESIAN_POINT ( 'NONE',  ( -289.4999999999999432, 0.000000000000000000, 12.50000000000000000 ) ) ;
#239 = CARTESIAN_POINT ( 'NONE',  ( -302.0000000000684963, -12.50000000000211031, 25.00000000000000000 ) ) ;
#240 = APPROVAL ( #162, 'UNSPECIFIED' ) ;
#241 = DIRECTION ( 'NONE',  ( 0.000000000000000000, 1.000000000000000000, -0.000000000000000000 ) ) ;
#242 = CARTESIAN_POINT ( 'NONE',  ( -281.9999999999999432, 0.000000000000000000, 25.00000000000000000 ) ) ;
#243 = EDGE_LOOP ( 'NONE', ( #132, #282, #196, #149 ) ) ;
#244 = EDGE_CURVE ( 'NONE', #65, #222, #363, .T. ) ;
#245 = DIRECTION ( 'NONE',  ( 1.000000000000000000, 0.000000000000000000, 0.000000000000000000 ) ) ;
#246 = ORIENTED_EDGE ( 'NONE', *, *, #219, .T. ) ;
#247 = DIRECTION ( 'NONE',  ( -0.000000000000000000, -0.000000000000000000, -1.000000000000000000 ) ) ;
#248 = CYLINDRICAL_SURFACE ( 'NONE', #374, 7.500000000000007105 ) ;
#249 = AXIS2_PLACEMENT_3D ( 'NONE', #177, #379, #111 ) ;
#250 = VERTEX_POINT ( 'NONE', #385 ) ;
#251 = COORDINATED_UNIVERSAL_TIME_OFFSET ( 5, 30, .AHEAD. ) ;
#252 = ORIENTED_EDGE ( 'NONE', *, *, #63, .T. ) ;
#253 = LOCAL_TIME ( 22, 52, 17.00000000000000000, #72 ) ;
#254 = APPROVAL_DATE_TIME ( #341, #28 ) ;
#255 = ADVANCED_FACE ( 'NONE', ( #265 ), #90, .F. ) ;
#256 = VERTEX_POINT ( 'NONE', #93 ) ;
#257 = VECTOR ( 'NONE', #35, 1000.000000000000000 ) ;
#258 = VECTOR ( 'NONE', #320, 1000.000000000000000 ) ;
#259 = CARTESIAN_POINT ( 'NONE',  ( -281.9999999999999432, 0.000000000000000000, 25.00000000000000000 ) ) ;
#260 = DIRECTION ( 'NONE',  ( 0.000000000000000000, 0.000000000000000000, 1.000000000000000000 ) ) ;
#261 = EDGE_LOOP ( 'NONE', ( #316, #229 ) ) ;
#262 = PLANE ( 'NONE',  #249 ) ;
#263 = PRODUCT_DEFINITION ( 'UNKNOWN', '', #200, #6 ) ;
#264 = ORIENTED_EDGE ( 'NONE', *, *, #365, .T. ) ;
#265 = FACE_OUTER_BOUND ( 'NONE', #10, .T. ) ;
#266 = ORIENTED_EDGE ( 'NONE', *, *, #107, .T. ) ;
#267 = APPROVAL_ROLE ( '' ) ;
#268 = ORGANIZATION ( 'UNSPECIFIED', 'UNSPECIFIED', '' ) ;
#269 = DIRECTION ( 'NONE',  ( 0.000000000000000000, 0.000000000000000000, 1.000000000000000000 ) ) ;
#270 = LINE ( 'NONE', #126, #137 ) ;
#271 = DIRECTION ( 'NONE',  ( -0.000000000000000000, -0.000000000000000000, -1.000000000000000000 ) ) ;
#272 = LINE ( 'NONE', #4, #257 ) ;
#273 = CARTESIAN_POINT ( 'NONE',  ( 281.9999999999999432, 0.000000000000000000, 25.00000000000000000 ) ) ;
#274 = SECURITY_CLASSIFICATION ( '', '', #369 ) ;
#275 = DIRECTION ( 'NONE',  ( 0.000000000000000000, 0.000000000000000000, 1.000000000000000000 ) ) ;
#276 = ADVANCED_FACE ( 'NONE', ( #190, #124, #307 ), #358, .T. ) ;
#277 = AXIS2_PLACEMENT_3D ( 'NONE', #95, #211, #324 ) ;
#278 = APPROVAL_STATUS ( 'not_yet_approved' ) ;
#279 = LINE ( 'NONE', #15, #34 ) ;
#280 = LINE ( 'NONE', #16, #43 ) ;
#281 = ORIENTED_EDGE ( 'NONE', *, *, #9, .T. ) ;
#282 = ORIENTED_EDGE ( 'NONE', *, *, #107, .F. ) ;
#283 = APPLICATION_CONTEXT ( 'configuration controlled 3d designs of mechanical parts and assemblies' ) ;
#284 = CC_DESIGN_PERSON_AND_ORGANIZATION_ASSIGNMENT ( #11, #168, ( #200 ) ) ;
#285 = DIRECTION ( 'NONE',  ( 0.000000000000000000, 0.000000000000000000, 1.000000000000000000 ) ) ;
#286 = AXIS2_PLACEMENT_3D ( 'NONE', #188, #60, #269 ) ;
#287 = LINE ( 'NONE', #117, #258 ) ;
#288 = EDGE_LOOP ( 'NONE', ( #303, #368, #79, #17 ) ) ;
#289 = DIRECTION ( 'NONE',  ( -0.000000000000000000, -0.000000000000000000, -1.000000000000000000 ) ) ;
#290 = AXIS2_PLACEMENT_3D ( 'NONE', #235, #285, #202 ) ;
#291 = EDGE_CURVE ( 'NONE', #145, #331, #41, .T. ) ;
#292 = PERSON_AND_ORGANIZATION ( #172, #268 ) ;
#293 = PLANE ( 'NONE',  #142 ) ;
#294 = CYLINDRICAL_SURFACE ( 'NONE', #66, 7.500000000000007105 ) ;
#295 = FACE_OUTER_BOUND ( 'NONE', #296, .T. ) ;
#296 = EDGE_LOOP ( 'NONE', ( #140, #20, #377, #198 ) ) ;
#297 = CIRCLE ( 'NONE', #290, 7.500000000000007105 ) ;
#298 = APPROVAL_DATE_TIME ( #25, #38 ) ;
#299 = CARTESIAN_POINT ( 'NONE',  ( -302.0000000000684963, 12.49999999999789146, 25.00000000000000000 ) ) ;
#300 = EDGE_CURVE ( 'NONE', #338, #373, #49, .T. ) ;
#301 = LOCAL_TIME ( 22, 52, 17.00000000000000000, #380 ) ;
#302 = CARTESIAN_POINT ( 'NONE',  ( 301.9999999999315037, -12.50000000000211031, 25.00000000000000000 ) ) ;
#303 = ORIENTED_EDGE ( 'NONE', *, *, #187, .T. ) ;
#304 = DIRECTION ( 'NONE',  ( 1.000000000000000000, -0.000000000000000000, -0.000000000000000000 ) ) ;
#305 = CARTESIAN_POINT ( 'NONE',  ( 289.4999999999999432, 9.184850993605165694E-16, 25.00000000000000000 ) ) ;
#306 = PERSON_AND_ORGANIZATION ( #172, #268 ) ;
#307 = FACE_BOUND ( 'NONE', #261, .T. ) ;
#308 = EDGE_LOOP ( 'NONE', ( #76, #26, #359, #264 ) ) ;
#309 = EDGE_CURVE ( 'NONE', #338, #222, #104, .T. ) ;
#310 =( GEOMETRIC_REPRESENTATION_CONTEXT ( 3 ) GLOBAL_UNCERTAINTY_ASSIGNED_CONTEXT ( ( #103 ) ) GLOBAL_UNIT_ASSIGNED_CONTEXT ( ( #129, #61, #100 ) ) REPRESENTATION_CONTEXT ( 'NONE', 'WORKASPACE' ) );
#311 = EDGE_LOOP ( 'NONE', ( #155, #313 ) ) ;
#312 = ORIENTED_EDGE ( 'NONE', *, *, #361, .F. ) ;
#313 = ORIENTED_EDGE ( 'NONE', *, *, #300, .F. ) ;
#314 = APPROVAL_ROLE ( '' ) ;
#315 = AXIS2_PLACEMENT_3D ( 'NONE', #48, #260, #199 ) ;
#316 = ORIENTED_EDGE ( 'NONE', *, *, #63, .F. ) ;
#317 = VERTEX_POINT ( 'NONE', #221 ) ;
#318 = FACE_OUTER_BOUND ( 'NONE', #227, .T. ) ;
#319 = CC_DESIGN_SECURITY_CLASSIFICATION ( #274, ( #200 ) ) ;
#320 = DIRECTION ( 'NONE',  ( -1.000000000000000000, -0.000000000000000000, -0.000000000000000000 ) ) ;
#321 = ORIENTED_EDGE ( 'NONE', *, *, #219, .F. ) ;
#322 = ORIENTED_EDGE ( 'NONE', *, *, #340, .F. ) ;
#323 = CARTESIAN_POINT ( 'NONE',  ( -302.0000000000684963, -12.50000000000211031, 25.00000000000000000 ) ) ;
#324 = DIRECTION ( 'NONE',  ( 1.000000000000000000, 0.000000000000000000, 0.000000000000000000 ) ) ;
#325 = ORIENTED_EDGE ( 'NONE', *, *, #300, .T. ) ;
#326 = APPLICATION_PROTOCOL_DEFINITION ( 'international standard', 'config_control_design', 1994, #70 ) ;
#327 = CC_DESIGN_PERSON_AND_ORGANIZATION_ASSIGNMENT ( #135, #224, ( #274 ) ) ;
#328 = FACE_OUTER_BOUND ( 'NONE', #288, .T. ) ;
#329 = DIRECTION ( 'NONE',  ( 0.000000000000000000, 0.000000000000000000, 1.000000000000000000 ) ) ;
#330 = LINE ( 'NONE', #381, #173 ) ;
#331 = VERTEX_POINT ( 'NONE', #169 ) ;
#332 = APPROVAL_STATUS ( 'not_yet_approved' ) ;
#333 = DIRECTION ( 'NONE',  ( 0.000000000000000000, 1.000000000000000000, 0.000000000000000000 ) ) ;
#334 = ORIENTED_EDGE ( 'NONE', *, *, #376, .F. ) ;
#335 = CARTESIAN_POINT ( 'NONE',  ( -302.0000000000684963, 12.49999999999789146, 25.00000000000000000 ) ) ;
#336 = ORIENTED_EDGE ( 'NONE', *, *, #349, .T. ) ;
#337 = CIRCLE ( 'NONE', #80, 7.500000000000007105 ) ;
#338 = VERTEX_POINT ( 'NONE', #191 ) ;
#339 = CARTESIAN_POINT ( 'NONE',  ( -281.9999999999999432, 0.000000000000000000, 25.00000000000000000 ) ) ;
#340 = EDGE_CURVE ( 'NONE', #175, #166, #279, .T. ) ;
#341 = DATE_AND_TIME ( #133, #253 ) ;
#342 = DIRECTION ( 'NONE',  ( -0.000000000000000000, -0.000000000000000000, -1.000000000000000000 ) ) ;
#343 = CC_DESIGN_APPROVAL ( #38, ( #263 ) ) ;
#344 = AXIS2_PLACEMENT_3D ( 'NONE', #174, #201, #52 ) ;
#345 = FACE_OUTER_BOUND ( 'NONE', #243, .T. ) ;
#346 = ORIENTED_EDGE ( 'NONE', *, *, #47, .F. ) ;
#347 = EDGE_CURVE ( 'NONE', #232, #145, #280, .T. ) ;
#348 = CARTESIAN_POINT ( 'NONE',  ( -289.4999999999999432, 0.000000000000000000, 25.00000000000000000 ) ) ;
#349 = EDGE_CURVE ( 'NONE', #128, #186, #123, .T. ) ;
#350 = CARTESIAN_POINT ( 'NONE',  ( -302.0000000000684963, 12.49999999999789146, 12.50000000000000000 ) ) ;
#351 = DIRECTION ( 'NONE',  ( 1.000000000000000000, 0.000000000000000000, 0.000000000000000000 ) ) ;
#352 = PERSON_AND_ORGANIZATION_ROLE ( 'creator' ) ;
#353 = DIRECTION ( 'NONE',  ( -0.000000000000000000, -0.000000000000000000, -1.000000000000000000 ) ) ;
#354 = LOCAL_TIME ( 22, 52, 17.00000000000000000, #384 ) ;
#355 = VECTOR ( 'NONE', #180, 1000.000000000000000 ) ;
#356 = DIRECTION ( 'NONE',  ( 1.000000000000000000, 0.000000000000000000, 0.000000000000000000 ) ) ;
#357 = DIRECTION ( 'NONE',  ( -0.000000000000000000, -0.000000000000000000, -1.000000000000000000 ) ) ;
#358 = PLANE ( 'NONE',  #277 ) ;
#359 = ORIENTED_EDGE ( 'NONE', *, *, #340, .T. ) ;
#360 = LINE ( 'NONE', #302, #51 ) ;
#361 = EDGE_CURVE ( 'NONE', #13, #106, #272, .T. ) ;
#362 = PRODUCT_DEFINITION_SHAPE ( 'NONE', 'NONE',  #263 ) ;
#363 = CIRCLE ( 'NONE', #231, 7.500000000000007105 ) ;
#364 = DIRECTION ( 'NONE',  ( 0.000000000000000000, -0.000000000000000000, 1.000000000000000000 ) ) ;
#365 = EDGE_CURVE ( 'NONE', #166, #232, #67, .T. ) ;
#366 = SHAPE_DEFINITION_REPRESENTATION ( #362, #193 ) ;
#367 = CLOSED_SHELL ( 'NONE', ( #372, #228, #276, #164, #255, #82, #189, #113, #161, #44 ) ) ;
#368 = ORIENTED_EDGE ( 'NONE', *, *, #152, .T. ) ;
#369 = SECURITY_CLASSIFICATION_LEVEL ( 'unclassified' ) ;
#370 = APPROVAL_PERSON_ORGANIZATION ( #292, #38, #182 ) ;
#371 = MANIFOLD_SOLID_BREP ( 'Cut-Extrude1', #367 ) ;
#372 = ADVANCED_FACE ( 'NONE', ( #92 ), #294, .F. ) ;
#373 = VERTEX_POINT ( 'NONE', #94 ) ;
#374 = AXIS2_PLACEMENT_3D ( 'NONE', #242, #271, #159 ) ;
#375 = CARTESIAN_POINT ( 'NONE',  ( 274.4999999999998863, 0.000000000000000000, 25.00000000000000000 ) ) ;
#376 = EDGE_CURVE ( 'NONE', #166, #128, #270, .T. ) ;
#377 = ORIENTED_EDGE ( 'NONE', *, *, #361, .T. ) ;
#378 = LINE ( 'NONE', #19, #355 ) ;
#379 = DIRECTION ( 'NONE',  ( 0.000000000000000000, 0.000000000000000000, 1.000000000000000000 ) ) ;
#380 = COORDINATED_UNIVERSAL_TIME_OFFSET ( 5, 30, .AHEAD. ) ;
#381 = CARTESIAN_POINT ( 'NONE',  ( 301.9999999999315037, 12.49999999999789146, 12.50000000000000000 ) ) ;
#382 = FACE_OUTER_BOUND ( 'NONE', #98, .T. ) ;
#383 = CIRCLE ( 'NONE', #226, 7.500000000000007105 ) ;
#384 = COORDINATED_UNIVERSAL_TIME_OFFSET ( 5, 30, .AHEAD. ) ;
#385 = CARTESIAN_POINT ( 'NONE',  ( 289.4999999999999432, 9.184850993605173582E-16, 12.50000000000000000 ) ) ;
ENDSEC;
END-ISO-10303-21;
