ISO-10303-21;
HEADER;
FILE_DESCRIPTION (( 'STEP AP203' ),
    '1' );
FILE_NAME ('e_Default_sldprt.STEP',
    '2026-09-21T17:22:18',
    ( '' ),
    ( '' ),
    'SwSTEP 2.0',
    'SolidWorks 2021',
    '' );
FILE_SCHEMA (( 'CONFIG_CONTROL_DESIGN' ));
ENDSEC;

DATA;
#1 = DIRECTION ( 'NONE',  ( 0.000000000000000000, 0.000000000000000000, 1.000000000000000000 ) ) ;
#2 = CC_DESIGN_PERSON_AND_ORGANIZATION_ASSIGNMENT ( #120, #286, ( #7 ) ) ;
#3 = CARTESIAN_POINT ( 'NONE',  ( 271.5000000000000000, 9.184850993605173582E-16, 25.00000000000000000 ) ) ;
#4 = VECTOR ( 'NONE', #335, 1000.000000000000000 ) ;
#5 = DIRECTION ( 'NONE',  ( 0.000000000000000000, 0.000000000000000000, 1.000000000000000000 ) ) ;
#6 = PERSON ( 'UNSPECIFIED', 'UNSPECIFIED', 'UNSPECIFIED', ('UNSPECIFIED'), ('UNSPECIFIED'), ('UNSPECIFIED') ) ;
#7 = PRODUCT_DEFINITION ( 'UNKNOWN', '', #95, #82 ) ;
#8 = ADVANCED_FACE ( 'NONE', ( #378 ), #93, .F. ) ;
#9 = DIRECTION ( 'NONE',  ( 1.000000000000000000, 0.000000000000000000, 0.000000000000000000 ) ) ;
#10 = VERTEX_POINT ( 'NONE', #59 ) ;
#11 = VECTOR ( 'NONE', #224, 1000.000000000000000 ) ;
#12 =( LENGTH_UNIT ( ) NAMED_UNIT ( * ) SI_UNIT ( .MILLI., .METRE. ) );
#13 = ORIENTED_EDGE ( 'NONE', *, *, #108, .T. ) ;
#14 =( NAMED_UNIT ( * ) SI_UNIT ( $, .STERADIAN. ) SOLID_ANGLE_UNIT ( ) );
#15 = EDGE_LOOP ( 'NONE', ( #283, #233, #311, #171 ) ) ;
#16 = PERSON_AND_ORGANIZATION ( #6, #138 ) ;
#17 = AXIS2_PLACEMENT_3D ( 'NONE', #180, #240, #61 ) ;
#18 = ORIENTED_EDGE ( 'NONE', *, *, #25, .F. ) ;
#19 = MANIFOLD_SOLID_BREP ( 'Cut-Extrude1', #270 ) ;
#20 = VECTOR ( 'NONE', #383, 1000.000000000000000 ) ;
#21 = ORIENTED_EDGE ( 'NONE', *, *, #268, .T. ) ;
#22 = APPLICATION_CONTEXT ( 'configuration controlled 3d designs of mechanical parts and assemblies' ) ;
#23 = PERSON_AND_ORGANIZATION_ROLE ( 'classification_officer' ) ;
#24 = EDGE_LOOP ( 'NONE', ( #78, #254 ) ) ;
#25 = EDGE_CURVE ( 'NONE', #113, #381, #29, .T. ) ;
#26 = APPROVAL_ROLE ( '' ) ;
#27 = DIRECTION ( 'NONE',  ( -0.000000000000000000, 0.000000000000000000, 1.000000000000000000 ) ) ;
#28 = SHAPE_DEFINITION_REPRESENTATION ( #379, #328 ) ;
#29 = LINE ( 'NONE', #349, #217 ) ;
#30 = VECTOR ( 'NONE', #332, 1000.000000000000000 ) ;
#31 = DIRECTION ( 'NONE',  ( 1.000000000000000000, 0.000000000000000000, 0.000000000000000000 ) ) ;
#32 = EDGE_CURVE ( 'NONE', #251, #154, #109, .T. ) ;
#33 = DIRECTION ( 'NONE',  ( 0.000000000000000000, 1.000000000000000000, 0.000000000000000000 ) ) ;
#34 = VECTOR ( 'NONE', #35, 1000.000000000000000 ) ;
#35 = DIRECTION ( 'NONE',  ( -0.000000000000000000, -0.000000000000000000, -1.000000000000000000 ) ) ;
#36 = LOCAL_TIME ( 22, 52, 18.00000000000000000, #259 ) ;
#37 = CARTESIAN_POINT ( 'NONE',  ( 298.9999999999998295, 12.49999999999998757, 25.00000000000000000 ) ) ;
#38 = ADVANCED_FACE ( 'NONE', ( #204, #238, #211 ), #89, .F. ) ;
#39 = DIRECTION ( 'NONE',  ( -0.000000000000000000, 0.000000000000000000, 1.000000000000000000 ) ) ;
#40 = CIRCLE ( 'NONE', #66, 7.500000000000007105 ) ;
#41 = DIRECTION ( 'NONE',  ( 0.000000000000000000, -0.000000000000000000, -1.000000000000000000 ) ) ;
#42 = SECURITY_CLASSIFICATION ( '', '', #322 ) ;
#43 = FACE_OUTER_BOUND ( 'NONE', #307, .T. ) ;
#44 = ORIENTED_EDGE ( 'NONE', *, *, #234, .F. ) ;
#45 = PLANE ( 'NONE',  #314 ) ;
#46 = CARTESIAN_POINT ( 'NONE',  ( 279.0000000000000000, 0.000000000000000000, 0.000000000000000000 ) ) ;
#47 = ORIENTED_EDGE ( 'NONE', *, *, #353, .F. ) ;
#48 =( NAMED_UNIT ( * ) PLANE_ANGLE_UNIT ( ) SI_UNIT ( $, .RADIAN. ) );
#49 = DIRECTION ( 'NONE',  ( -0.000000000000000000, -0.000000000000000000, 1.000000000000000000 ) ) ;
#50 = ORIENTED_EDGE ( 'NONE', *, *, #202, .F. ) ;
#51 = APPROVAL_ROLE ( '' ) ;
#52 = VERTEX_POINT ( 'NONE', #318 ) ;
#53 = COORDINATED_UNIVERSAL_TIME_OFFSET ( 5, 30, .AHEAD. ) ;
#54 = AXIS2_PLACEMENT_3D ( 'NONE', #248, #253, #9 ) ;
#55 = ORIENTED_EDGE ( 'NONE', *, *, #274, .F. ) ;
#56 = APPROVAL_ROLE ( '' ) ;
#57 = CARTESIAN_POINT ( 'NONE',  ( 298.9999999999998295, -12.50000000000001421, 25.00000000000000000 ) ) ;
#58 = DATE_AND_TIME ( #90, #384 ) ;
#59 = CARTESIAN_POINT ( 'NONE',  ( 298.9999999999998295, 12.49999999999998757, 0.000000000000000000 ) ) ;
#60 = APPROVAL_STATUS ( 'not_yet_approved' ) ;
#61 = DIRECTION ( 'NONE',  ( 1.000000000000000000, 0.000000000000000000, 0.000000000000000000 ) ) ;
#62 = EDGE_CURVE ( 'NONE', #352, #173, #149, .T. ) ;
#63 = CIRCLE ( 'NONE', #160, 7.500000000000007105 ) ;
#64 = DIRECTION ( 'NONE',  ( 1.000000000000000000, 0.000000000000000000, 0.000000000000000000 ) ) ;
#65 = DIRECTION ( 'NONE',  ( 0.000000000000000000, -0.000000000000000000, 1.000000000000000000 ) ) ;
#66 = AXIS2_PLACEMENT_3D ( 'NONE', #213, #215, #159 ) ;
#67 = DIRECTION ( 'NONE',  ( -0.000000000000000000, -0.000000000000000000, -1.000000000000000000 ) ) ;
#68 = AXIS2_PLACEMENT_3D ( 'NONE', #46, #170, #103 ) ;
#69 = EDGE_CURVE ( 'NONE', #173, #117, #321, .T. ) ;
#70 = CARTESIAN_POINT ( 'NONE',  ( 298.9999999999998295, -12.50000000000001421, 25.00000000000000000 ) ) ;
#71 = DIRECTION ( 'NONE',  ( -0.000000000000000000, -0.000000000000000000, 1.000000000000000000 ) ) ;
#72 = VECTOR ( 'NONE', #182, 1000.000000000000000 ) ;
#73 = APPLICATION_PROTOCOL_DEFINITION ( 'international standard', 'config_control_design', 1994, #188 ) ;
#74 = ORIENTED_EDGE ( 'NONE', *, *, #360, .F. ) ;
#75 = CARTESIAN_POINT ( 'NONE',  ( -279.0000000000000000, 0.000000000000000000, 25.00000000000000000 ) ) ;
#76 = ORIENTED_EDGE ( 'NONE', *, *, #333, .F. ) ;
#77 = DIRECTION ( 'NONE',  ( -1.000000000000000000, -0.000000000000000000, -0.000000000000000000 ) ) ;
#78 = ORIENTED_EDGE ( 'NONE', *, *, #329, .F. ) ;
#79 = AXIS2_PLACEMENT_3D ( 'NONE', #291, #27, #265 ) ;
#80 = AXIS2_PLACEMENT_3D ( 'NONE', #298, #221, #201 ) ;
#81 = DIRECTION ( 'NONE',  ( -0.000000000000000000, -0.000000000000000000, 1.000000000000000000 ) ) ;
#82 = DESIGN_CONTEXT ( 'detailed design', #22, 'design' ) ;
#83 = COORDINATED_UNIVERSAL_TIME_OFFSET ( 5, 30, .AHEAD. ) ;
#84 = ORIENTED_EDGE ( 'NONE', *, *, #69, .T. ) ;
#85 = PERSON_AND_ORGANIZATION ( #6, #138 ) ;
#86 = EDGE_CURVE ( 'NONE', #154, #251, #98, .T. ) ;
#87 = ORIENTED_EDGE ( 'NONE', *, *, #32, .F. ) ;
#88 = ADVANCED_FACE ( 'NONE', ( #121 ), #219, .F. ) ;
#89 = PLANE ( 'NONE',  #226 ) ;
#90 = CALENDAR_DATE ( 2026, 21, 9 ) ;
#91 = ORIENTED_EDGE ( 'NONE', *, *, #194, .T. ) ;
#92 = CARTESIAN_POINT ( 'NONE',  ( 0.000000000000000000, 0.000000000000000000, 0.000000000000000000 ) ) ;
#93 = PLANE ( 'NONE',  #356 ) ;
#94 = LINE ( 'NONE', #245, #34 ) ;
#95 = PRODUCT_DEFINITION_FORMATION_WITH_SPECIFIED_SOURCE ( 'ANY', '', #214, .NOT_KNOWN. ) ;
#96 = CARTESIAN_POINT ( 'NONE',  ( -271.5000000000000000, 0.000000000000000000, 0.000000000000000000 ) ) ;
#97 = CARTESIAN_POINT ( 'NONE',  ( 271.5000000000000000, 9.184850993605173582E-16, 0.000000000000000000 ) ) ;
#98 = CIRCLE ( 'NONE', #79, 7.500000000000007105 ) ;
#99 = LINE ( 'NONE', #155, #292 ) ;
#100 = CC_DESIGN_APPROVAL ( #324, ( #95 ) ) ;
#101 = DIRECTION ( 'NONE',  ( 1.000000000000000000, 0.000000000000000000, 0.000000000000000000 ) ) ;
#102 = EDGE_CURVE ( 'NONE', #381, #342, #94, .T. ) ;
#103 = DIRECTION ( 'NONE',  ( 1.000000000000000000, 0.000000000000000000, 0.000000000000000000 ) ) ;
#104 = VERTEX_POINT ( 'NONE', #96 ) ;
#105 = CARTESIAN_POINT ( 'NONE',  ( -299.0000000000001705, -12.50000000000001421, 25.00000000000000000 ) ) ;
#106 = ORIENTED_EDGE ( 'NONE', *, *, #86, .F. ) ;
#107 = CARTESIAN_POINT ( 'NONE',  ( 298.9999999999998295, 12.49999999999998757, 25.00000000000000000 ) ) ;
#108 = EDGE_CURVE ( 'NONE', #228, #52, #40, .T. ) ;
#109 = CIRCLE ( 'NONE', #17, 7.500000000000007105 ) ;
#110 = DIRECTION ( 'NONE',  ( -0.000000000000000000, -0.000000000000000000, 1.000000000000000000 ) ) ;
#111 = ORIENTED_EDGE ( 'NONE', *, *, #329, .T. ) ;
#112 = CALENDAR_DATE ( 2026, 21, 9 ) ;
#113 = VERTEX_POINT ( 'NONE', #37 ) ;
#114 = APPROVAL ( #122, 'UNSPECIFIED' ) ;
#115 = CALENDAR_DATE ( 2026, 21, 9 ) ;
#116 = ADVANCED_FACE ( 'NONE', ( #273 ), #363, .F. ) ;
#117 = VERTEX_POINT ( 'NONE', #276 ) ;
#118 = APPROVAL_DATE_TIME ( #239, #114 ) ;
#119 = ORIENTED_EDGE ( 'NONE', *, *, #333, .T. ) ;
#120 = PERSON_AND_ORGANIZATION ( #6, #138 ) ;
#121 = FACE_OUTER_BOUND ( 'NONE', #341, .T. ) ;
#122 = APPROVAL_STATUS ( 'not_yet_approved' ) ;
#123 = ORIENTED_EDGE ( 'NONE', *, *, #353, .T. ) ;
#124 = CARTESIAN_POINT ( 'NONE',  ( -299.0000000000001705, -12.50000000000001421, 25.00000000000000000 ) ) ;
#125 = FACE_OUTER_BOUND ( 'NONE', #348, .T. ) ;
#126 = APPROVAL ( #60, 'UNSPECIFIED' ) ;
#127 = CARTESIAN_POINT ( 'NONE',  ( -299.0000000000001705, 12.49999999999998757, 25.00000000000000000 ) ) ;
#128 = DIRECTION ( 'NONE',  ( 1.000000000000000000, 0.000000000000000000, 0.000000000000000000 ) ) ;
#129 = VECTOR ( 'NONE', #361, 1000.000000000000000 ) ;
#130 = LINE ( 'NONE', #161, #300 ) ;
#131 = VECTOR ( 'NONE', #357, 1000.000000000000000 ) ;
#132 = EDGE_CURVE ( 'NONE', #352, #168, #187, .T. ) ;
#133 = CYLINDRICAL_SURFACE ( 'NONE', #68, 7.500000000000007105 ) ;
#134 = FACE_BOUND ( 'NONE', #24, .T. ) ;
#135 = EDGE_LOOP ( 'NONE', ( #123, #209, #91, #294 ) ) ;
#136 = CYLINDRICAL_SURFACE ( 'NONE', #295, 7.500000000000007105 ) ;
#137 = EDGE_LOOP ( 'NONE', ( #382, #370, #18, #296 ) ) ;
#138 = ORGANIZATION ( 'UNSPECIFIED', 'UNSPECIFIED', '' ) ;
#139 = EDGE_CURVE ( 'NONE', #117, #10, #99, .T. ) ;
#140 = FACE_BOUND ( 'NONE', #316, .T. ) ;
#141 = ORIENTED_EDGE ( 'NONE', *, *, #32, .T. ) ;
#142 = LINE ( 'NONE', #255, #344 ) ;
#143 = COORDINATED_UNIVERSAL_TIME_OFFSET ( 5, 30, .AHEAD. ) ;
#144 = ORIENTED_EDGE ( 'NONE', *, *, #132, .F. ) ;
#145 = LOCAL_TIME ( 22, 52, 18.00000000000000000, #256 ) ;
#146 = MECHANICAL_CONTEXT ( 'NONE', #188, 'mechanical' ) ;
#147 = EDGE_LOOP ( 'NONE', ( #336, #280, #47, #84 ) ) ;
#148 = DIRECTION ( 'NONE',  ( 1.000000000000000000, 0.000000000000000000, 0.000000000000000000 ) ) ;
#149 = LINE ( 'NONE', #178, #150 ) ;
#150 = VECTOR ( 'NONE', #207, 1000.000000000000000 ) ;
#151 = CALENDAR_DATE ( 2026, 21, 9 ) ;
#152 = DIRECTION ( 'NONE',  ( -0.000000000000000000, 0.000000000000000000, 1.000000000000000000 ) ) ;
#153 = CARTESIAN_POINT ( 'NONE',  ( -299.0000000000001705, 12.49999999999998757, 25.00000000000000000 ) ) ;
#154 = VERTEX_POINT ( 'NONE', #3 ) ;
#155 = CARTESIAN_POINT ( 'NONE',  ( 298.9999999999998295, 12.49999999999998757, 0.000000000000000000 ) ) ;
#156 = AXIS2_PLACEMENT_3D ( 'NONE', #241, #275, #220 ) ;
#157 = PRODUCT_RELATED_PRODUCT_CATEGORY ( 'detail', '', ( #214 ) ) ;
#158 = EDGE_CURVE ( 'NONE', #168, #117, #334, .T. ) ;
#159 = DIRECTION ( 'NONE',  ( 1.000000000000000000, 0.000000000000000000, 0.000000000000000000 ) ) ;
#160 = AXIS2_PLACEMENT_3D ( 'NONE', #364, #39, #101 ) ;
#161 = CARTESIAN_POINT ( 'NONE',  ( -299.0000000000001705, 12.49999999999998757, 0.000000000000000000 ) ) ;
#162 = CARTESIAN_POINT ( 'NONE',  ( -286.5000000000000568, 9.184850993605173582E-16, 0.000000000000000000 ) ) ;
#163 = FACE_OUTER_BOUND ( 'NONE', #15, .T. ) ;
#164 = AXIS2_PLACEMENT_3D ( 'NONE', #75, #225, #227 ) ;
#165 = FACE_OUTER_BOUND ( 'NONE', #147, .T. ) ;
#166 = VERTEX_POINT ( 'NONE', #162 ) ;
#167 = CARTESIAN_POINT ( 'NONE',  ( 286.5000000000000568, 0.000000000000000000, 0.000000000000000000 ) ) ;
#168 = VERTEX_POINT ( 'NONE', #247 ) ;
#169 = ADVANCED_FACE ( 'NONE', ( #163 ), #330, .F. ) ;
#170 = DIRECTION ( 'NONE',  ( -0.000000000000000000, -0.000000000000000000, 1.000000000000000000 ) ) ;
#171 = ORIENTED_EDGE ( 'NONE', *, *, #304, .F. ) ;
#172 = CC_DESIGN_APPROVAL ( #114, ( #7 ) ) ;
#173 = VERTEX_POINT ( 'NONE', #70 ) ;
#174 = LINE ( 'NONE', #198, #4 ) ;
#175 = ORIENTED_EDGE ( 'NONE', *, *, #102, .T. ) ;
#176 = EDGE_CURVE ( 'NONE', #166, #263, #191, .T. ) ;
#177 = CALENDAR_DATE ( 2026, 21, 9 ) ;
#178 = CARTESIAN_POINT ( 'NONE',  ( -299.0000000000001705, -12.50000000000001421, 25.00000000000000000 ) ) ;
#179 = APPROVAL_PERSON_ORGANIZATION ( #16, #324, #51 ) ;
#180 = CARTESIAN_POINT ( 'NONE',  ( 279.0000000000000000, 0.000000000000000000, 25.00000000000000000 ) ) ;
#181 = APPROVAL_DATE_TIME ( #262, #126 ) ;
#182 = DIRECTION ( 'NONE',  ( -0.000000000000000000, -0.000000000000000000, -1.000000000000000000 ) ) ;
#183 = ORIENTED_EDGE ( 'NONE', *, *, #234, .T. ) ;
#184 = VECTOR ( 'NONE', #110, 1000.000000000000000 ) ;
#185 = ORIENTED_EDGE ( 'NONE', *, *, #108, .F. ) ;
#186 = CC_DESIGN_DATE_AND_TIME_ASSIGNMENT ( #317, #289, ( #7 ) ) ;
#187 = LINE ( 'NONE', #297, #362 ) ;
#188 = APPLICATION_CONTEXT ( 'configuration controlled 3d designs of mechanical parts and assemblies' ) ;
#189 = CARTESIAN_POINT ( 'NONE',  ( -271.5000000000000000, 0.000000000000000000, 25.00000000000000000 ) ) ;
#190 = CIRCLE ( 'NONE', #164, 7.500000000000007105 ) ;
#191 = LINE ( 'NONE', #271, #30 ) ;
#192 = VECTOR ( 'NONE', #77, 1000.000000000000000 ) ;
#193 = CARTESIAN_POINT ( 'NONE',  ( -299.0000000000001705, 12.49999999999998757, 25.00000000000000000 ) ) ;
#194 = EDGE_CURVE ( 'NONE', #381, #352, #278, .T. ) ;
#195 = LINE ( 'NONE', #359, #20 ) ;
#196 = CARTESIAN_POINT ( 'NONE',  ( -279.0000000000000000, 0.000000000000000000, 0.000000000000000000 ) ) ;
#197 = LINE ( 'NONE', #167, #184 ) ;
#198 = CARTESIAN_POINT ( 'NONE',  ( 298.9999999999998295, 12.49999999999998757, 25.00000000000000000 ) ) ;
#199 = EDGE_LOOP ( 'NONE', ( #355, #144, #366, #175 ) ) ;
#200 = CIRCLE ( 'NONE', #246, 7.500000000000007105 ) ;
#201 = DIRECTION ( 'NONE',  ( 1.000000000000000000, 0.000000000000000000, 0.000000000000000000 ) ) ;
#202 = EDGE_CURVE ( 'NONE', #342, #168, #130, .T. ) ;
#203 = APPLICATION_PROTOCOL_DEFINITION ( 'international standard', 'config_control_design', 1994, #22 ) ;
#204 = FACE_BOUND ( 'NONE', #232, .T. ) ;
#205 = DATE_TIME_ROLE ( 'classification_date' ) ;
#206 = ORIENTED_EDGE ( 'NONE', *, *, #158, .F. ) ;
#207 = DIRECTION ( 'NONE',  ( 1.000000000000000000, 0.000000000000000000, 0.000000000000000000 ) ) ;
#208 = CC_DESIGN_PERSON_AND_ORGANIZATION_ASSIGNMENT ( #210, #266, ( #95 ) ) ;
#209 = ORIENTED_EDGE ( 'NONE', *, *, #25, .T. ) ;
#210 = PERSON_AND_ORGANIZATION ( #6, #138 ) ;
#211 = FACE_OUTER_BOUND ( 'NONE', #235, .T. ) ;
#212 =( GEOMETRIC_REPRESENTATION_CONTEXT ( 3 ) GLOBAL_UNCERTAINTY_ASSIGNED_CONTEXT ( ( #343 ) ) GLOBAL_UNIT_ASSIGNED_CONTEXT ( ( #12, #48, #14 ) ) REPRESENTATION_CONTEXT ( 'NONE', 'WORKASPACE' ) );
#213 = CARTESIAN_POINT ( 'NONE',  ( 279.0000000000000000, 0.000000000000000000, 0.000000000000000000 ) ) ;
#214 = PRODUCT ( 'e_Default_sldprt', 'e_Default_sldprt', '', ( #146 ) ) ;
#215 = DIRECTION ( 'NONE',  ( 0.000000000000000000, 0.000000000000000000, 1.000000000000000000 ) ) ;
#216 = CARTESIAN_POINT ( 'NONE',  ( -279.0000000000000000, 0.000000000000000000, 0.000000000000000000 ) ) ;
#217 = VECTOR ( 'NONE', #319, 1000.000000000000000 ) ;
#218 = APPROVAL_PERSON_ORGANIZATION ( #351, #114, #26 ) ;
#219 = CYLINDRICAL_SURFACE ( 'NONE', #156, 7.500000000000007105 ) ;
#220 = DIRECTION ( 'NONE',  ( 1.000000000000000000, 0.000000000000000000, 0.000000000000000000 ) ) ;
#221 = DIRECTION ( 'NONE',  ( 0.000000000000000000, 0.000000000000000000, 1.000000000000000000 ) ) ;
#222 = LINE ( 'NONE', #107, #11 ) ;
#223 = EDGE_CURVE ( 'NONE', #263, #269, #63, .T. ) ;
#224 = DIRECTION ( 'NONE',  ( -0.000000000000000000, 1.000000000000000000, -0.000000000000000000 ) ) ;
#225 = DIRECTION ( 'NONE',  ( -0.000000000000000000, 0.000000000000000000, 1.000000000000000000 ) ) ;
#226 = AXIS2_PLACEMENT_3D ( 'NONE', #290, #152, #31 ) ;
#227 = DIRECTION ( 'NONE',  ( 1.000000000000000000, 0.000000000000000000, 0.000000000000000000 ) ) ;
#228 = VERTEX_POINT ( 'NONE', #97 ) ;
#229 = CIRCLE ( 'NONE', #236, 7.500000000000007105 ) ;
#230 = CC_DESIGN_PERSON_AND_ORGANIZATION_ASSIGNMENT ( #374, #23, ( #42 ) ) ;
#231 = APPROVAL_STATUS ( 'not_yet_approved' ) ;
#232 = EDGE_LOOP ( 'NONE', ( #285, #21 ) ) ;
#233 = ORIENTED_EDGE ( 'NONE', *, *, #176, .T. ) ;
#234 = EDGE_CURVE ( 'NONE', #228, #154, #195, .T. ) ;
#235 = EDGE_LOOP ( 'NONE', ( #326, #206, #50, #74 ) ) ;
#236 = AXIS2_PLACEMENT_3D ( 'NONE', #196, #5, #310 ) ;
#237 = PERSON_AND_ORGANIZATION ( #6, #138 ) ;
#238 = FACE_BOUND ( 'NONE', #373, .T. ) ;
#239 = DATE_AND_TIME ( #112, #288 ) ;
#240 = DIRECTION ( 'NONE',  ( -0.000000000000000000, 0.000000000000000000, 1.000000000000000000 ) ) ;
#241 = CARTESIAN_POINT ( 'NONE',  ( 279.0000000000000000, 0.000000000000000000, 0.000000000000000000 ) ) ;
#242 = PLANE ( 'NONE',  #252 ) ;
#243 = CARTESIAN_POINT ( 'NONE',  ( -299.0000000000001705, -12.50000000000001421, 0.000000000000000000 ) ) ;
#244 = CC_DESIGN_PERSON_AND_ORGANIZATION_ASSIGNMENT ( #237, #347, ( #95 ) ) ;
#245 = CARTESIAN_POINT ( 'NONE',  ( -299.0000000000001705, 12.49999999999998757, 25.00000000000000000 ) ) ;
#246 = AXIS2_PLACEMENT_3D ( 'NONE', #216, #1, #64 ) ;
#247 = CARTESIAN_POINT ( 'NONE',  ( -299.0000000000001705, -12.50000000000001421, 0.000000000000000000 ) ) ;
#248 = CARTESIAN_POINT ( 'NONE',  ( 0.000000000000000000, 0.000000000000000000, 25.00000000000000000 ) ) ;
#249 = ORIENTED_EDGE ( 'NONE', *, *, #372, .F. ) ;
#250 = PLANE ( 'NONE',  #54 ) ;
#251 = VERTEX_POINT ( 'NONE', #303 ) ;
#252 = AXIS2_PLACEMENT_3D ( 'NONE', #124, #33, #65 ) ;
#253 = DIRECTION ( 'NONE',  ( -0.000000000000000000, 0.000000000000000000, 1.000000000000000000 ) ) ;
#254 = ORIENTED_EDGE ( 'NONE', *, *, #223, .F. ) ;
#255 = CARTESIAN_POINT ( 'NONE',  ( -271.5000000000000000, 0.000000000000000000, 0.000000000000000000 ) ) ;
#256 = COORDINATED_UNIVERSAL_TIME_OFFSET ( 5, 30, .AHEAD. ) ;
#257 = EDGE_LOOP ( 'NONE', ( #345, #249, #323, #111 ) ) ;
#258 = LOCAL_TIME ( 22, 52, 18.00000000000000000, #143 ) ;
#259 = COORDINATED_UNIVERSAL_TIME_OFFSET ( 5, 30, .AHEAD. ) ;
#260 = ORIENTED_EDGE ( 'NONE', *, *, #69, .F. ) ;
#261 = ADVANCED_FACE ( 'NONE', ( #125 ), #242, .F. ) ;
#262 = DATE_AND_TIME ( #115, #145 ) ;
#263 = VERTEX_POINT ( 'NONE', #327 ) ;
#264 = AXIS2_PLACEMENT_3D ( 'NONE', #127, #385, #41 ) ;
#265 = DIRECTION ( 'NONE',  ( 1.000000000000000000, 0.000000000000000000, 0.000000000000000000 ) ) ;
#266 = PERSON_AND_ORGANIZATION_ROLE ( 'creator' ) ;
#267 = DIRECTION ( 'NONE',  ( 1.000000000000000000, 0.000000000000000000, -0.000000000000000000 ) ) ;
#268 = EDGE_CURVE ( 'NONE', #166, #104, #200, .T. ) ;
#269 = VERTEX_POINT ( 'NONE', #189 ) ;
#270 = CLOSED_SHELL ( 'NONE', ( #169, #377, #312, #116, #8, #261, #279, #38, #88, #299 ) ) ;
#271 = CARTESIAN_POINT ( 'NONE',  ( -286.5000000000000568, 9.184850993605165694E-16, 0.000000000000000000 ) ) ;
#272 = CC_DESIGN_SECURITY_CLASSIFICATION ( #42, ( #95 ) ) ;
#273 = FACE_OUTER_BOUND ( 'NONE', #137, .T. ) ;
#274 = EDGE_CURVE ( 'NONE', #52, #228, #277, .T. ) ;
#275 = DIRECTION ( 'NONE',  ( -0.000000000000000000, -0.000000000000000000, 1.000000000000000000 ) ) ;
#276 = CARTESIAN_POINT ( 'NONE',  ( 298.9999999999998295, -12.50000000000001421, 0.000000000000000000 ) ) ;
#277 = CIRCLE ( 'NONE', #80, 7.500000000000007105 ) ;
#278 = LINE ( 'NONE', #193, #131 ) ;
#279 = ADVANCED_FACE ( 'NONE', ( #134, #140, #306 ), #250, .T. ) ;
#280 = ORIENTED_EDGE ( 'NONE', *, *, #367, .F. ) ;
#281 = FACE_OUTER_BOUND ( 'NONE', #257, .T. ) ;
#282 = CARTESIAN_POINT ( 'NONE',  ( -299.0000000000001705, 12.49999999999998757, 25.00000000000000000 ) ) ;
#283 = ORIENTED_EDGE ( 'NONE', *, *, #268, .F. ) ;
#284 = CC_DESIGN_DATE_AND_TIME_ASSIGNMENT ( #325, #205, ( #42 ) ) ;
#285 = ORIENTED_EDGE ( 'NONE', *, *, #372, .T. ) ;
#286 = PERSON_AND_ORGANIZATION_ROLE ( 'creator' ) ;
#287 = DIRECTION ( 'NONE',  ( -0.000000000000000000, 0.000000000000000000, -1.000000000000000000 ) ) ;
#288 = LOCAL_TIME ( 22, 52, 18.00000000000000000, #53 ) ;
#289 = DATE_TIME_ROLE ( 'creation_date' ) ;
#290 = CARTESIAN_POINT ( 'NONE',  ( 0.000000000000000000, 0.000000000000000000, 0.000000000000000000 ) ) ;
#291 = CARTESIAN_POINT ( 'NONE',  ( 279.0000000000000000, 0.000000000000000000, 25.00000000000000000 ) ) ;
#292 = VECTOR ( 'NONE', #331, 1000.000000000000000 ) ;
#293 = PERSON_AND_ORGANIZATION ( #6, #138 ) ;
#294 = ORIENTED_EDGE ( 'NONE', *, *, #62, .T. ) ;
#295 = AXIS2_PLACEMENT_3D ( 'NONE', #368, #49, #365 ) ;
#296 = ORIENTED_EDGE ( 'NONE', *, *, #367, .T. ) ;
#297 = CARTESIAN_POINT ( 'NONE',  ( -299.0000000000001705, -12.50000000000001421, 25.00000000000000000 ) ) ;
#298 = CARTESIAN_POINT ( 'NONE',  ( 279.0000000000000000, 0.000000000000000000, 0.000000000000000000 ) ) ;
#299 = ADVANCED_FACE ( 'NONE', ( #281 ), #136, .F. ) ;
#300 = VECTOR ( 'NONE', #301, 1000.000000000000000 ) ;
#301 = DIRECTION ( 'NONE',  ( 0.000000000000000000, -1.000000000000000000, 0.000000000000000000 ) ) ;
#302 = CARTESIAN_POINT ( 'NONE',  ( -279.0000000000000000, 0.000000000000000000, 0.000000000000000000 ) ) ;
#303 = CARTESIAN_POINT ( 'NONE',  ( 286.5000000000000568, 0.000000000000000000, 25.00000000000000000 ) ) ;
#304 = EDGE_CURVE ( 'NONE', #104, #269, #142, .T. ) ;
#305 = APPROVAL_PERSON_ORGANIZATION ( #293, #126, #56 ) ;
#306 = FACE_OUTER_BOUND ( 'NONE', #135, .T. ) ;
#307 = EDGE_LOOP ( 'NONE', ( #185, #183, #309, #76 ) ) ;
#308 = CARTESIAN_POINT ( 'NONE',  ( -299.0000000000001705, 12.49999999999998757, 0.000000000000000000 ) ) ;
#309 = ORIENTED_EDGE ( 'NONE', *, *, #86, .T. ) ;
#310 = DIRECTION ( 'NONE',  ( 1.000000000000000000, 0.000000000000000000, 0.000000000000000000 ) ) ;
#311 = ORIENTED_EDGE ( 'NONE', *, *, #223, .T. ) ;
#312 = ADVANCED_FACE ( 'NONE', ( #165 ), #45, .F. ) ;
#313 = CARTESIAN_POINT ( 'NONE',  ( 298.9999999999998295, 12.49999999999998757, 25.00000000000000000 ) ) ;
#314 = AXIS2_PLACEMENT_3D ( 'NONE', #313, #369, #337 ) ;
#315 = CARTESIAN_POINT ( 'NONE',  ( -299.0000000000001705, 12.49999999999998757, 0.000000000000000000 ) ) ;
#316 = EDGE_LOOP ( 'NONE', ( #87, #106 ) ) ;
#317 = DATE_AND_TIME ( #151, #36 ) ;
#318 = CARTESIAN_POINT ( 'NONE',  ( 286.5000000000000568, 0.000000000000000000, 0.000000000000000000 ) ) ;
#319 = DIRECTION ( 'NONE',  ( -1.000000000000000000, -0.000000000000000000, -0.000000000000000000 ) ) ;
#320 = AXIS2_PLACEMENT_3D ( 'NONE', #92, #354, #148 ) ;
#321 = LINE ( 'NONE', #57, #72 ) ;
#322 = SECURITY_CLASSIFICATION_LEVEL ( 'unclassified' ) ;
#323 = ORIENTED_EDGE ( 'NONE', *, *, #304, .T. ) ;
#324 = APPROVAL ( #231, 'UNSPECIFIED' ) ;
#325 = DATE_AND_TIME ( #177, #258 ) ;
#326 = ORIENTED_EDGE ( 'NONE', *, *, #139, .F. ) ;
#327 = CARTESIAN_POINT ( 'NONE',  ( -286.5000000000000568, 9.184850993605173582E-16, 25.00000000000000000 ) ) ;
#328 = ADVANCED_BREP_SHAPE_REPRESENTATION ( 'e_Default_sldprt', ( #19, #320 ), #212 ) ;
#329 = EDGE_CURVE ( 'NONE', #269, #263, #190, .T. ) ;
#330 = CYLINDRICAL_SURFACE ( 'NONE', #350, 7.500000000000007105 ) ;
#331 = DIRECTION ( 'NONE',  ( -0.000000000000000000, 1.000000000000000000, -0.000000000000000000 ) ) ;
#332 = DIRECTION ( 'NONE',  ( -0.000000000000000000, -0.000000000000000000, 1.000000000000000000 ) ) ;
#333 = EDGE_CURVE ( 'NONE', #52, #251, #197, .T. ) ;
#334 = LINE ( 'NONE', #243, #129 ) ;
#335 = DIRECTION ( 'NONE',  ( -0.000000000000000000, -0.000000000000000000, -1.000000000000000000 ) ) ;
#336 = ORIENTED_EDGE ( 'NONE', *, *, #139, .T. ) ;
#337 = DIRECTION ( 'NONE',  ( 0.000000000000000000, 0.000000000000000000, 1.000000000000000000 ) ) ;
#338 = ORIENTED_EDGE ( 'NONE', *, *, #274, .T. ) ;
#339 = LINE ( 'NONE', #315, #192 ) ;
#340 = CC_DESIGN_PERSON_AND_ORGANIZATION_ASSIGNMENT ( #85, #380, ( #214 ) ) ;
#341 = EDGE_LOOP ( 'NONE', ( #44, #55, #119, #141 ) ) ;
#342 = VERTEX_POINT ( 'NONE', #308 ) ;
#343 = UNCERTAINTY_MEASURE_WITH_UNIT (LENGTH_MEASURE( 1.000000000000000082E-05 ), #12, 'distance_accuracy_value', 'NONE');
#344 = VECTOR ( 'NONE', #81, 1000.000000000000000 ) ;
#345 = ORIENTED_EDGE ( 'NONE', *, *, #176, .F. ) ;
#346 = ORIENTED_EDGE ( 'NONE', *, *, #132, .T. ) ;
#347 = PERSON_AND_ORGANIZATION_ROLE ( 'design_supplier' ) ;
#348 = EDGE_LOOP ( 'NONE', ( #371, #260, #375, #346 ) ) ;
#349 = CARTESIAN_POINT ( 'NONE',  ( -299.0000000000001705, 12.49999999999998757, 25.00000000000000000 ) ) ;
#350 = AXIS2_PLACEMENT_3D ( 'NONE', #302, #71, #128 ) ;
#351 = PERSON_AND_ORGANIZATION ( #6, #138 ) ;
#352 = VERTEX_POINT ( 'NONE', #105 ) ;
#353 = EDGE_CURVE ( 'NONE', #173, #113, #222, .T. ) ;
#354 = DIRECTION ( 'NONE',  ( 0.000000000000000000, 0.000000000000000000, 1.000000000000000000 ) ) ;
#355 = ORIENTED_EDGE ( 'NONE', *, *, #202, .T. ) ;
#356 = AXIS2_PLACEMENT_3D ( 'NONE', #153, #267, #287 ) ;
#357 = DIRECTION ( 'NONE',  ( 0.000000000000000000, -1.000000000000000000, 0.000000000000000000 ) ) ;
#358 = CC_DESIGN_APPROVAL ( #126, ( #42 ) ) ;
#359 = CARTESIAN_POINT ( 'NONE',  ( 271.5000000000000000, 9.184850993605165694E-16, 0.000000000000000000 ) ) ;
#360 = EDGE_CURVE ( 'NONE', #10, #342, #339, .T. ) ;
#361 = DIRECTION ( 'NONE',  ( 1.000000000000000000, 0.000000000000000000, 0.000000000000000000 ) ) ;
#362 = VECTOR ( 'NONE', #67, 1000.000000000000000 ) ;
#363 = PLANE ( 'NONE',  #264 ) ;
#364 = CARTESIAN_POINT ( 'NONE',  ( -279.0000000000000000, 0.000000000000000000, 25.00000000000000000 ) ) ;
#365 = DIRECTION ( 'NONE',  ( 1.000000000000000000, 0.000000000000000000, 0.000000000000000000 ) ) ;
#366 = ORIENTED_EDGE ( 'NONE', *, *, #194, .F. ) ;
#367 = EDGE_CURVE ( 'NONE', #113, #10, #174, .T. ) ;
#368 = CARTESIAN_POINT ( 'NONE',  ( -279.0000000000000000, 0.000000000000000000, 0.000000000000000000 ) ) ;
#369 = DIRECTION ( 'NONE',  ( -1.000000000000000000, 0.000000000000000000, 0.000000000000000000 ) ) ;
#370 = ORIENTED_EDGE ( 'NONE', *, *, #102, .F. ) ;
#371 = ORIENTED_EDGE ( 'NONE', *, *, #158, .T. ) ;
#372 = EDGE_CURVE ( 'NONE', #104, #166, #229, .T. ) ;
#373 = EDGE_LOOP ( 'NONE', ( #338, #13 ) ) ;
#374 = PERSON_AND_ORGANIZATION ( #6, #138 ) ;
#375 = ORIENTED_EDGE ( 'NONE', *, *, #62, .F. ) ;
#376 = APPROVAL_DATE_TIME ( #58, #324 ) ;
#377 = ADVANCED_FACE ( 'NONE', ( #43 ), #133, .F. ) ;
#378 = FACE_OUTER_BOUND ( 'NONE', #199, .T. ) ;
#379 = PRODUCT_DEFINITION_SHAPE ( 'NONE', 'NONE',  #7 ) ;
#380 = PERSON_AND_ORGANIZATION_ROLE ( 'design_owner' ) ;
#381 = VERTEX_POINT ( 'NONE', #282 ) ;
#382 = ORIENTED_EDGE ( 'NONE', *, *, #360, .T. ) ;
#383 = DIRECTION ( 'NONE',  ( -0.000000000000000000, -0.000000000000000000, 1.000000000000000000 ) ) ;
#384 = LOCAL_TIME ( 22, 52, 18.00000000000000000, #83 ) ;
#385 = DIRECTION ( 'NONE',  ( 0.000000000000000000, -1.000000000000000000, 0.000000000000000000 ) ) ;
ENDSEC;
END-ISO-10303-21;
