ISO-10303-21;
HEADER;
FILE_DESCRIPTION (( 'STEP AP203' ),
    '1' );
FILE_NAME ('f_Default_sldprt.STEP',
    '2026-09-21T17:22:19',
    ( '' ),
    ( '' ),
    'SwSTEP 2.0',
    'SolidWorks 2021',
    '' );
FILE_SCHEMA (( 'CONFIG_CONTROL_DESIGN' ));
ENDSEC;

DATA;
#1 = EDGE_LOOP ( 'NONE', ( #38, #240, #320, #296 ) ) ;
#2 = SECURITY_CLASSIFICATION_LEVEL ( 'unclassified' ) ;
#3 = DIRECTION ( 'NONE',  ( -1.000000000000000000, 0.000000000000000000, 0.000000000000000000 ) ) ;
#4 = DIRECTION ( 'NONE',  ( 1.000000000000000000, 0.000000000000000000, 0.000000000000000000 ) ) ;
#5 = VERTEX_POINT ( 'NONE', #223 ) ;
#6 = AXIS2_PLACEMENT_3D ( 'NONE', #214, #192, #357 ) ;
#7 = APPROVAL_STATUS ( 'not_yet_approved' ) ;
#8 = AXIS2_PLACEMENT_3D ( 'NONE', #224, #344, #171 ) ;
#9 = DIRECTION ( 'NONE',  ( 0.000000000000000000, 0.000000000000000000, 1.000000000000000000 ) ) ;
#10 = PERSON_AND_ORGANIZATION ( #51, #213 ) ;
#11 = COORDINATED_UNIVERSAL_TIME_OFFSET ( 5, 30, .AHEAD. ) ;
#12 = APPROVAL ( #7, 'UNSPECIFIED' ) ;
#13 = DATE_AND_TIME ( #203, #194 ) ;
#14 = EDGE_CURVE ( 'NONE', #219, #123, #60, .T. ) ;
#15 = CARTESIAN_POINT ( 'NONE',  ( -232.5000000000000284, 12.50000000000000355, 0.000000000000000000 ) ) ;
#16 = DIRECTION ( 'NONE',  ( 0.000000000000000000, 1.000000000000000000, 0.000000000000000000 ) ) ;
#17 = PLANE ( 'NONE',  #8 ) ;
#18 = EDGE_CURVE ( 'NONE', #261, #219, #196, .T. ) ;
#19 = AXIS2_PLACEMENT_3D ( 'NONE', #273, #365, #3 ) ;
#20 = VECTOR ( 'NONE', #195, 1000.000000000000000 ) ;
#21 = DIRECTION ( 'NONE',  ( 0.000000000000000000, -0.000000000000000000, 1.000000000000000000 ) ) ;
#22 = LINE ( 'NONE', #210, #107 ) ;
#23 = ORIENTED_EDGE ( 'NONE', *, *, #97, .F. ) ;
#24 = EDGE_LOOP ( 'NONE', ( #89, #289, #87, #263 ) ) ;
#25 = ORIENTED_EDGE ( 'NONE', *, *, #177, .T. ) ;
#26 = PLANE ( 'NONE',  #6 ) ;
#27 = DESIGN_CONTEXT ( 'detailed design', #64, 'design' ) ;
#28 = EDGE_CURVE ( 'NONE', #260, #63, #66, .T. ) ;
#29 = ORIENTED_EDGE ( 'NONE', *, *, #218, .F. ) ;
#30 = VECTOR ( 'NONE', #108, 1000.000000000000000 ) ;
#31 = EDGE_LOOP ( 'NONE', ( #326, #359 ) ) ;
#32 = ADVANCED_FACE ( 'NONE', ( #157 ), #26, .F. ) ;
#33 = ORIENTED_EDGE ( 'NONE', *, *, #221, .F. ) ;
#34 = EDGE_CURVE ( 'NONE', #219, #332, #244, .T. ) ;
#35 = DATE_TIME_ROLE ( 'classification_date' ) ;
#36 = DIRECTION ( 'NONE',  ( 0.000000000000000000, 0.000000000000000000, 1.000000000000000000 ) ) ;
#37 = COORDINATED_UNIVERSAL_TIME_OFFSET ( 5, 30, .AHEAD. ) ;
#38 = ORIENTED_EDGE ( 'NONE', *, *, #18, .T. ) ;
#39 = PERSON_AND_ORGANIZATION_ROLE ( 'classification_officer' ) ;
#40 = CARTESIAN_POINT ( 'NONE',  ( 232.4999999999999432, -12.49999999999999645, 25.00000000000000000 ) ) ;
#41 = AXIS2_PLACEMENT_3D ( 'NONE', #47, #205, #169 ) ;
#42 = CC_DESIGN_PERSON_AND_ORGANIZATION_ASSIGNMENT ( #10, #134, ( #231 ) ) ;
#43 = CALENDAR_DATE ( 2026, 21, 9 ) ;
#44 = ADVANCED_FACE ( 'NONE', ( #269 ), #360, .F. ) ;
#45 = APPLICATION_CONTEXT ( 'configuration controlled 3d designs of mechanical parts and assemblies' ) ;
#46 =( NAMED_UNIT ( * ) PLANE_ANGLE_UNIT ( ) SI_UNIT ( $, .RADIAN. ) );
#47 = CARTESIAN_POINT ( 'NONE',  ( -212.4999999999999716, 0.000000000000000000, 25.00000000000000000 ) ) ;
#48 = CARTESIAN_POINT ( 'NONE',  ( 232.4999999999999432, 12.50000000000000355, 0.000000000000000000 ) ) ;
#49 = CIRCLE ( 'NONE', #74, 7.500000000000007105 ) ;
#50 = CARTESIAN_POINT ( 'NONE',  ( 212.4999999999999716, 0.000000000000000000, 0.000000000000000000 ) ) ;
#51 = PERSON ( 'UNSPECIFIED', 'UNSPECIFIED', 'UNSPECIFIED', ('UNSPECIFIED'), ('UNSPECIFIED'), ('UNSPECIFIED') ) ;
#52 = EDGE_CURVE ( 'NONE', #63, #260, #49, .T. ) ;
#53 = AXIS2_PLACEMENT_3D ( 'NONE', #276, #9, #135 ) ;
#54 = EDGE_CURVE ( 'NONE', #128, #384, #198, .T. ) ;
#55 = AXIS2_PLACEMENT_3D ( 'NONE', #113, #82, #286 ) ;
#56 = CARTESIAN_POINT ( 'NONE',  ( -232.5000000000000284, -12.49999999999999645, 25.00000000000000000 ) ) ;
#57 = CARTESIAN_POINT ( 'NONE',  ( 219.9999999999999716, 9.184850993605173582E-16, 0.000000000000000000 ) ) ;
#58 = VERTEX_POINT ( 'NONE', #301 ) ;
#59 = AXIS2_PLACEMENT_3D ( 'NONE', #311, #313, #76 ) ;
#60 = LINE ( 'NONE', #242, #356 ) ;
#61 = EDGE_CURVE ( 'NONE', #94, #385, #249, .T. ) ;
#62 = CARTESIAN_POINT ( 'NONE',  ( -232.5000000000000284, 12.50000000000000355, 25.00000000000000000 ) ) ;
#63 = VERTEX_POINT ( 'NONE', #345 ) ;
#64 = APPLICATION_CONTEXT ( 'configuration controlled 3d designs of mechanical parts and assemblies' ) ;
#65 = ORIENTED_EDGE ( 'NONE', *, *, #28, .T. ) ;
#66 = CIRCLE ( 'NONE', #176, 7.500000000000007105 ) ;
#67 = AXIS2_PLACEMENT_3D ( 'NONE', #147, #346, #181 ) ;
#68 = DIRECTION ( 'NONE',  ( -0.000000000000000000, -0.000000000000000000, -1.000000000000000000 ) ) ;
#69 = ORIENTED_EDGE ( 'NONE', *, *, #218, .T. ) ;
#70 = DATE_AND_TIME ( #166, #138 ) ;
#71 = DIRECTION ( 'NONE',  ( 0.000000000000000000, 0.000000000000000000, 1.000000000000000000 ) ) ;
#72 = ADVANCED_FACE ( 'NONE', ( #281 ), #174, .F. ) ;
#73 = MECHANICAL_CONTEXT ( 'NONE', #45, 'mechanical' ) ;
#74 = AXIS2_PLACEMENT_3D ( 'NONE', #211, #71, #264 ) ;
#75 = APPROVAL_DATE_TIME ( #165, #12 ) ;
#76 = DIRECTION ( 'NONE',  ( 1.000000000000000000, 0.000000000000000000, 0.000000000000000000 ) ) ;
#77 = CYLINDRICAL_SURFACE ( 'NONE', #41, 7.500000000000007105 ) ;
#78 = MANIFOLD_SOLID_BREP ( 'Boss-Extrude1', #90 ) ;
#79 = DIRECTION ( 'NONE',  ( 1.000000000000000000, 0.000000000000000000, 0.000000000000000000 ) ) ;
#80 = CARTESIAN_POINT ( 'NONE',  ( -204.9999999999999716, 9.184850993605165694E-16, 25.00000000000000000 ) ) ;
#81 = PLANE ( 'NONE',  #126 ) ;
#82 = DIRECTION ( 'NONE',  ( 0.000000000000000000, 0.000000000000000000, 1.000000000000000000 ) ) ;
#83 = LINE ( 'NONE', #207, #149 ) ;
#84 = EDGE_LOOP ( 'NONE', ( #121, #236 ) ) ;
#85 = EDGE_CURVE ( 'NONE', #158, #58, #226, .T. ) ;
#86 = AXIS2_PLACEMENT_3D ( 'NONE', #142, #144, #315 ) ;
#87 = ORIENTED_EDGE ( 'NONE', *, *, #54, .F. ) ;
#88 = ORIENTED_EDGE ( 'NONE', *, *, #369, .F. ) ;
#89 = ORIENTED_EDGE ( 'NONE', *, *, #93, .F. ) ;
#90 = CLOSED_SHELL ( 'NONE', ( #44, #355, #282, #139, #72, #32, #189, #353, #114, #146 ) ) ;
#91 = EDGE_LOOP ( 'NONE', ( #118, #184, #351, #133 ) ) ;
#92 = VECTOR ( 'NONE', #307, 1000.000000000000000 ) ;
#93 = EDGE_CURVE ( 'NONE', #5, #123, #370, .T. ) ;
#94 = VERTEX_POINT ( 'NONE', #115 ) ;
#95 = PRODUCT_DEFINITION ( 'UNKNOWN', '', #231, #27 ) ;
#96 = ORIENTED_EDGE ( 'NONE', *, *, #253, .T. ) ;
#97 = EDGE_CURVE ( 'NONE', #266, #180, #265, .T. ) ;
#98 = DIRECTION ( 'NONE',  ( -0.000000000000000000, 1.000000000000000000, -0.000000000000000000 ) ) ;
#99 = CARTESIAN_POINT ( 'NONE',  ( 204.9999999999999716, 0.000000000000000000, 25.00000000000000000 ) ) ;
#100 = CARTESIAN_POINT ( 'NONE',  ( 232.4999999999999432, -12.49999999999999645, 25.00000000000000000 ) ) ;
#101 = ORIENTED_EDGE ( 'NONE', *, *, #85, .F. ) ;
#102 = APPROVAL_ROLE ( '' ) ;
#103 = LINE ( 'NONE', #100, #92 ) ;
#104 = ORIENTED_EDGE ( 'NONE', *, *, #185, .T. ) ;
#105 = AXIS2_PLACEMENT_3D ( 'NONE', #160, #36, #4 ) ;
#106 = EDGE_CURVE ( 'NONE', #63, #58, #172, .T. ) ;
#107 = VECTOR ( 'NONE', #377, 1000.000000000000000 ) ;
#108 = DIRECTION ( 'NONE',  ( 0.000000000000000000, -1.000000000000000000, 0.000000000000000000 ) ) ;
#109 = DIRECTION ( 'NONE',  ( 1.000000000000000000, 0.000000000000000000, 0.000000000000000000 ) ) ;
#110 = AXIS2_PLACEMENT_3D ( 'NONE', #56, #16, #21 ) ;
#111 = FACE_OUTER_BOUND ( 'NONE', #382, .T. ) ;
#112 = FACE_BOUND ( 'NONE', #84, .T. ) ;
#113 = CARTESIAN_POINT ( 'NONE',  ( 212.4999999999999716, 0.000000000000000000, 0.000000000000000000 ) ) ;
#114 = ADVANCED_FACE ( 'NONE', ( #374 ), #77, .F. ) ;
#115 = CARTESIAN_POINT ( 'NONE',  ( 219.9999999999999716, 9.184850993605173582E-16, 25.00000000000000000 ) ) ;
#116 = AXIS2_PLACEMENT_3D ( 'NONE', #50, #252, #109 ) ;
#117 = CC_DESIGN_DATE_AND_TIME_ASSIGNMENT ( #13, #141, ( #95 ) ) ;
#118 = ORIENTED_EDGE ( 'NONE', *, *, #177, .F. ) ;
#119 = ORIENTED_EDGE ( 'NONE', *, *, #312, .T. ) ;
#120 = ORIENTED_EDGE ( 'NONE', *, *, #312, .F. ) ;
#121 = ORIENTED_EDGE ( 'NONE', *, *, #97, .T. ) ;
#122 = CARTESIAN_POINT ( 'NONE',  ( 212.4999999999999716, 0.000000000000000000, 25.00000000000000000 ) ) ;
#123 = VERTEX_POINT ( 'NONE', #48 ) ;
#124 = VECTOR ( 'NONE', #159, 1000.000000000000000 ) ;
#125 = ORIENTED_EDGE ( 'NONE', *, *, #18, .F. ) ;
#126 = AXIS2_PLACEMENT_3D ( 'NONE', #373, #256, #79 ) ;
#127 = DIRECTION ( 'NONE',  ( -0.000000000000000000, 0.000000000000000000, -1.000000000000000000 ) ) ;
#128 = VERTEX_POINT ( 'NONE', #15 ) ;
#129 = EDGE_CURVE ( 'NONE', #385, #94, #209, .T. ) ;
#130 = COORDINATED_UNIVERSAL_TIME_OFFSET ( 5, 30, .AHEAD. ) ;
#131 = LINE ( 'NONE', #268, #20 ) ;
#132 = DIRECTION ( 'NONE',  ( 0.000000000000000000, -1.000000000000000000, 0.000000000000000000 ) ) ;
#133 = ORIENTED_EDGE ( 'NONE', *, *, #300, .F. ) ;
#134 = PERSON_AND_ORGANIZATION_ROLE ( 'creator' ) ;
#135 = DIRECTION ( 'NONE',  ( 1.000000000000000000, 0.000000000000000000, 0.000000000000000000 ) ) ;
#136 = COORDINATED_UNIVERSAL_TIME_OFFSET ( 5, 30, .AHEAD. ) ;
#137 = CARTESIAN_POINT ( 'NONE',  ( 204.9999999999999716, 0.000000000000000000, 0.000000000000000000 ) ) ;
#138 = LOCAL_TIME ( 22, 52, 19.00000000000000000, #130 ) ;
#139 = ADVANCED_FACE ( 'NONE', ( #372, #229, #112 ), #17, .F. ) ;
#140 = PRODUCT ( 'f_Default_sldprt', 'f_Default_sldprt', '', ( #73 ) ) ;
#141 = DATE_TIME_ROLE ( 'creation_date' ) ;
#142 = CARTESIAN_POINT ( 'NONE',  ( 232.4999999999999432, 12.50000000000000355, 25.00000000000000000 ) ) ;
#143 = CC_DESIGN_PERSON_AND_ORGANIZATION_ASSIGNMENT ( #280, #277, ( #95 ) ) ;
#144 = DIRECTION ( 'NONE',  ( -1.000000000000000000, 0.000000000000000000, 0.000000000000000000 ) ) ;
#145 = VECTOR ( 'NONE', #343, 1000.000000000000000 ) ;
#146 = ADVANCED_FACE ( 'NONE', ( #284 ), #154, .F. ) ;
#147 = CARTESIAN_POINT ( 'NONE',  ( -212.4999999999999716, 0.000000000000000000, 25.00000000000000000 ) ) ;
#148 = CARTESIAN_POINT ( 'NONE',  ( -212.4999999999999716, 0.000000000000000000, 0.000000000000000000 ) ) ;
#149 = VECTOR ( 'NONE', #318, 1000.000000000000000 ) ;
#150 = EDGE_CURVE ( 'NONE', #260, #158, #22, .T. ) ;
#151 = ORIENTED_EDGE ( 'NONE', *, *, #150, .T. ) ;
#152 = CARTESIAN_POINT ( 'NONE',  ( -232.5000000000000284, 12.50000000000000355, 25.00000000000000000 ) ) ;
#153 = ORIENTED_EDGE ( 'NONE', *, *, #34, .F. ) ;
#154 = CYLINDRICAL_SURFACE ( 'NONE', #227, 7.500000000000007105 ) ;
#155 = ORIENTED_EDGE ( 'NONE', *, *, #93, .T. ) ;
#156 = LOCAL_TIME ( 22, 52, 19.00000000000000000, #37 ) ;
#157 = FACE_OUTER_BOUND ( 'NONE', #161, .T. ) ;
#158 = VERTEX_POINT ( 'NONE', #350 ) ;
#159 = DIRECTION ( 'NONE',  ( -1.000000000000000000, -0.000000000000000000, -0.000000000000000000 ) ) ;
#160 = CARTESIAN_POINT ( 'NONE',  ( 0.000000000000000000, 0.000000000000000000, 0.000000000000000000 ) ) ;
#161 = EDGE_LOOP ( 'NONE', ( #96, #349, #153, #295 ) ) ;
#162 = CALENDAR_DATE ( 2026, 21, 9 ) ;
#163 = EDGE_LOOP ( 'NONE', ( #155, #317, #125, #69 ) ) ;
#164 = VECTOR ( 'NONE', #287, 1000.000000000000000 ) ;
#165 = DATE_AND_TIME ( #43, #330 ) ;
#166 = CALENDAR_DATE ( 2026, 21, 9 ) ;
#167 = EDGE_CURVE ( 'NONE', #384, #5, #322, .T. ) ;
#168 = PRODUCT_DEFINITION_SHAPE ( 'NONE', 'NONE',  #95 ) ;
#169 = DIRECTION ( 'NONE',  ( -1.000000000000000000, 0.000000000000000000, 0.000000000000000000 ) ) ;
#170 = APPROVAL_STATUS ( 'not_yet_approved' ) ;
#171 = DIRECTION ( 'NONE',  ( 1.000000000000000000, 0.000000000000000000, 0.000000000000000000 ) ) ;
#172 = LINE ( 'NONE', #80, #164 ) ;
#173 = FACE_BOUND ( 'NONE', #304, .T. ) ;
#174 = PLANE ( 'NONE',  #86 ) ;
#175 = ORIENTED_EDGE ( 'NONE', *, *, #85, .T. ) ;
#176 = AXIS2_PLACEMENT_3D ( 'NONE', #297, #306, #239 ) ;
#177 = EDGE_CURVE ( 'NONE', #94, #180, #83, .T. ) ;
#178 = CIRCLE ( 'NONE', #339, 7.500000000000007105 ) ;
#179 = APPROVAL_PERSON_ORGANIZATION ( #329, #12, #102 ) ;
#180 = VERTEX_POINT ( 'NONE', #57 ) ;
#181 = DIRECTION ( 'NONE',  ( -1.000000000000000000, 0.000000000000000000, 0.000000000000000000 ) ) ;
#182 = EDGE_LOOP ( 'NONE', ( #380, #25, #23, #33 ) ) ;
#183 = DIRECTION ( 'NONE',  ( -0.000000000000000000, -0.000000000000000000, -1.000000000000000000 ) ) ;
#184 = ORIENTED_EDGE ( 'NONE', *, *, #61, .T. ) ;
#185 = EDGE_CURVE ( 'NONE', #332, #128, #235, .T. ) ;
#186 = EDGE_LOOP ( 'NONE', ( #233, #328, #88, #104 ) ) ;
#187 = CARTESIAN_POINT ( 'NONE',  ( -232.5000000000000284, -12.49999999999999645, 0.000000000000000000 ) ) ;
#188 = CARTESIAN_POINT ( 'NONE',  ( 232.4999999999999432, 12.50000000000000355, 25.00000000000000000 ) ) ;
#189 = ADVANCED_FACE ( 'NONE', ( #361 ), #272, .F. ) ;
#190 = FACE_BOUND ( 'NONE', #31, .T. ) ;
#191 = CARTESIAN_POINT ( 'NONE',  ( -232.5000000000000284, 12.50000000000000355, 0.000000000000000000 ) ) ;
#192 = DIRECTION ( 'NONE',  ( 0.000000000000000000, -1.000000000000000000, 0.000000000000000000 ) ) ;
#193 = DATE_AND_TIME ( #241, #381 ) ;
#194 = LOCAL_TIME ( 22, 52, 19.00000000000000000, #11 ) ;
#195 = DIRECTION ( 'NONE',  ( 1.000000000000000000, 0.000000000000000000, 0.000000000000000000 ) ) ;
#196 = LINE ( 'NONE', #188, #237 ) ;
#197 = APPROVAL ( #170, 'UNSPECIFIED' ) ;
#198 = LINE ( 'NONE', #191, #262 ) ;
#199 = DATE_AND_TIME ( #162, #156 ) ;
#200 = PERSON_AND_ORGANIZATION_ROLE ( 'design_supplier' ) ;
#201 = PERSON_AND_ORGANIZATION ( #51, #213 ) ;
#202 = APPROVAL_DATE_TIME ( #199, #197 ) ;
#203 = CALENDAR_DATE ( 2026, 21, 9 ) ;
#204 = CYLINDRICAL_SURFACE ( 'NONE', #67, 7.500000000000007105 ) ;
#205 = DIRECTION ( 'NONE',  ( -0.000000000000000000, -0.000000000000000000, -1.000000000000000000 ) ) ;
#206 = DIRECTION ( 'NONE',  ( 0.000000000000000000, 0.000000000000000000, 1.000000000000000000 ) ) ;
#207 = CARTESIAN_POINT ( 'NONE',  ( 219.9999999999999716, 9.184850993605165694E-16, 25.00000000000000000 ) ) ;
#208 = CARTESIAN_POINT ( 'NONE',  ( -232.5000000000000284, -12.49999999999999645, 25.00000000000000000 ) ) ;
#209 = CIRCLE ( 'NONE', #362, 7.500000000000007105 ) ;
#210 = CARTESIAN_POINT ( 'NONE',  ( -219.9999999999999716, 0.000000000000000000, 25.00000000000000000 ) ) ;
#211 = CARTESIAN_POINT ( 'NONE',  ( -212.4999999999999716, 0.000000000000000000, 25.00000000000000000 ) ) ;
#212 = CC_DESIGN_SECURITY_CLASSIFICATION ( #298, ( #231 ) ) ;
#213 = ORGANIZATION ( 'UNSPECIFIED', 'UNSPECIFIED', '' ) ;
#214 = CARTESIAN_POINT ( 'NONE',  ( -232.5000000000000284, 12.50000000000000355, 25.00000000000000000 ) ) ;
#215 = APPROVAL_STATUS ( 'not_yet_approved' ) ;
#216 =( LENGTH_UNIT ( ) NAMED_UNIT ( * ) SI_UNIT ( .MILLI., .METRE. ) );
#217 = CARTESIAN_POINT ( 'NONE',  ( 204.9999999999999716, 0.000000000000000000, 25.00000000000000000 ) ) ;
#218 = EDGE_CURVE ( 'NONE', #261, #5, #103, .T. ) ;
#219 = VERTEX_POINT ( 'NONE', #327 ) ;
#220 = APPROVAL_ROLE ( '' ) ;
#221 = EDGE_CURVE ( 'NONE', #385, #266, #299, .T. ) ;
#222 = DIRECTION ( 'NONE',  ( -0.000000000000000000, -0.000000000000000000, -1.000000000000000000 ) ) ;
#223 = CARTESIAN_POINT ( 'NONE',  ( 232.4999999999999432, -12.49999999999999645, 0.000000000000000000 ) ) ;
#224 = CARTESIAN_POINT ( 'NONE',  ( 0.000000000000000000, 0.000000000000000000, 0.000000000000000000 ) ) ;
#225 = CARTESIAN_POINT ( 'NONE',  ( -232.5000000000000284, -12.49999999999999645, 25.00000000000000000 ) ) ;
#226 = CIRCLE ( 'NONE', #59, 7.500000000000007105 ) ;
#227 = AXIS2_PLACEMENT_3D ( 'NONE', #122, #183, #234 ) ;
#228 = DIRECTION ( 'NONE',  ( 1.000000000000000000, 0.000000000000000000, 0.000000000000000000 ) ) ;
#229 = FACE_BOUND ( 'NONE', #321, .T. ) ;
#230 = EDGE_LOOP ( 'NONE', ( #331, #378, #151, #120 ) ) ;
#231 = PRODUCT_DEFINITION_FORMATION_WITH_SPECIFIED_SOURCE ( 'ANY', '', #140, .NOT_KNOWN. ) ;
#232 = ORIENTED_EDGE ( 'NONE', *, *, #167, .T. ) ;
#233 = ORIENTED_EDGE ( 'NONE', *, *, #54, .T. ) ;
#234 = DIRECTION ( 'NONE',  ( -1.000000000000000000, 0.000000000000000000, 0.000000000000000000 ) ) ;
#235 = LINE ( 'NONE', #152, #290 ) ;
#236 = ORIENTED_EDGE ( 'NONE', *, *, #300, .T. ) ;
#237 = VECTOR ( 'NONE', #98, 1000.000000000000000 ) ;
#238 = VECTOR ( 'NONE', #275, 1000.000000000000000 ) ;
#239 = DIRECTION ( 'NONE',  ( 1.000000000000000000, 0.000000000000000000, 0.000000000000000000 ) ) ;
#240 = ORIENTED_EDGE ( 'NONE', *, *, #34, .T. ) ;
#241 = CALENDAR_DATE ( 2026, 21, 9 ) ;
#242 = CARTESIAN_POINT ( 'NONE',  ( 232.4999999999999432, 12.50000000000000355, 25.00000000000000000 ) ) ;
#243 = EDGE_CURVE ( 'NONE', #354, #261, #131, .T. ) ;
#244 = LINE ( 'NONE', #308, #124 ) ;
#245 =( NAMED_UNIT ( * ) SI_UNIT ( $, .STERADIAN. ) SOLID_ANGLE_UNIT ( ) );
#246 = ORIENTED_EDGE ( 'NONE', *, *, #61, .F. ) ;
#247 = SHAPE_DEFINITION_REPRESENTATION ( #168, #364 ) ;
#248 = FACE_OUTER_BOUND ( 'NONE', #1, .T. ) ;
#249 = CIRCLE ( 'NONE', #53, 7.500000000000007105 ) ;
#250 = VECTOR ( 'NONE', #68, 1000.000000000000000 ) ;
#251 = CARTESIAN_POINT ( 'NONE',  ( 212.4999999999999716, 0.000000000000000000, 25.00000000000000000 ) ) ;
#252 = DIRECTION ( 'NONE',  ( 0.000000000000000000, 0.000000000000000000, 1.000000000000000000 ) ) ;
#253 = EDGE_CURVE ( 'NONE', #123, #128, #305, .T. ) ;
#254 = CC_DESIGN_APPROVAL ( #197, ( #231 ) ) ;
#255 = VECTOR ( 'NONE', #348, 1000.000000000000000 ) ;
#256 = DIRECTION ( 'NONE',  ( -0.000000000000000000, 0.000000000000000000, 1.000000000000000000 ) ) ;
#257 = ORIENTED_EDGE ( 'NONE', *, *, #314, .T. ) ;
#258 = CC_DESIGN_PERSON_AND_ORGANIZATION_ASSIGNMENT ( #201, #274, ( #140 ) ) ;
#259 = FACE_OUTER_BOUND ( 'NONE', #319, .T. ) ;
#260 = VERTEX_POINT ( 'NONE', #278 ) ;
#261 = VERTEX_POINT ( 'NONE', #40 ) ;
#262 = VECTOR ( 'NONE', #132, 1000.000000000000000 ) ;
#263 = ORIENTED_EDGE ( 'NONE', *, *, #253, .F. ) ;
#264 = DIRECTION ( 'NONE',  ( 1.000000000000000000, 0.000000000000000000, 0.000000000000000000 ) ) ;
#265 = CIRCLE ( 'NONE', #116, 7.500000000000007105 ) ;
#266 = VERTEX_POINT ( 'NONE', #137 ) ;
#267 = CC_DESIGN_PERSON_AND_ORGANIZATION_ASSIGNMENT ( #279, #200, ( #231 ) ) ;
#268 = CARTESIAN_POINT ( 'NONE',  ( -232.5000000000000284, -12.49999999999999645, 25.00000000000000000 ) ) ;
#269 = FACE_OUTER_BOUND ( 'NONE', #182, .T. ) ;
#270 = APPROVAL_ROLE ( '' ) ;
#271 = CARTESIAN_POINT ( 'NONE',  ( -232.5000000000000284, -12.49999999999999645, 0.000000000000000000 ) ) ;
#272 = PLANE ( 'NONE',  #309 ) ;
#273 = CARTESIAN_POINT ( 'NONE',  ( 212.4999999999999716, 0.000000000000000000, 25.00000000000000000 ) ) ;
#274 = PERSON_AND_ORGANIZATION_ROLE ( 'design_owner' ) ;
#275 = DIRECTION ( 'NONE',  ( -1.000000000000000000, -0.000000000000000000, -0.000000000000000000 ) ) ;
#276 = CARTESIAN_POINT ( 'NONE',  ( 212.4999999999999716, 0.000000000000000000, 25.00000000000000000 ) ) ;
#277 = PERSON_AND_ORGANIZATION_ROLE ( 'creator' ) ;
#278 = CARTESIAN_POINT ( 'NONE',  ( -219.9999999999999716, 0.000000000000000000, 25.00000000000000000 ) ) ;
#279 = PERSON_AND_ORGANIZATION ( #51, #213 ) ;
#280 = PERSON_AND_ORGANIZATION ( #51, #213 ) ;
#281 = FACE_OUTER_BOUND ( 'NONE', #163, .T. ) ;
#282 = ADVANCED_FACE ( 'NONE', ( #190, #248, #173 ), #81, .T. ) ;
#283 = CARTESIAN_POINT ( 'NONE',  ( -232.5000000000000284, 12.50000000000000355, 25.00000000000000000 ) ) ;
#284 = FACE_OUTER_BOUND ( 'NONE', #91, .T. ) ;
#285 = DIRECTION ( 'NONE',  ( 1.000000000000000000, 0.000000000000000000, 0.000000000000000000 ) ) ;
#286 = DIRECTION ( 'NONE',  ( 1.000000000000000000, 0.000000000000000000, 0.000000000000000000 ) ) ;
#287 = DIRECTION ( 'NONE',  ( -0.000000000000000000, -0.000000000000000000, -1.000000000000000000 ) ) ;
#288 = CC_DESIGN_PERSON_AND_ORGANIZATION_ASSIGNMENT ( #333, #39, ( #298 ) ) ;
#289 = ORIENTED_EDGE ( 'NONE', *, *, #167, .F. ) ;
#290 = VECTOR ( 'NONE', #358, 1000.000000000000000 ) ;
#291 = DIRECTION ( 'NONE',  ( 0.000000000000000000, 0.000000000000000000, 1.000000000000000000 ) ) ;
#292 = APPROVAL_PERSON_ORGANIZATION ( #336, #197, #220 ) ;
#293 = ORIENTED_EDGE ( 'NONE', *, *, #243, .F. ) ;
#294 = LINE ( 'NONE', #379, #30 ) ;
#295 = ORIENTED_EDGE ( 'NONE', *, *, #14, .T. ) ;
#296 = ORIENTED_EDGE ( 'NONE', *, *, #243, .T. ) ;
#297 = CARTESIAN_POINT ( 'NONE',  ( -212.4999999999999716, 0.000000000000000000, 25.00000000000000000 ) ) ;
#298 = SECURITY_CLASSIFICATION ( '', '', #2 ) ;
#299 = LINE ( 'NONE', #217, #250 ) ;
#300 = EDGE_CURVE ( 'NONE', #180, #266, #338, .T. ) ;
#301 = CARTESIAN_POINT ( 'NONE',  ( -204.9999999999999716, 9.184850993605173582E-16, 0.000000000000000000 ) ) ;
#302 = UNCERTAINTY_MEASURE_WITH_UNIT (LENGTH_MEASURE( 1.000000000000000082E-05 ), #216, 'distance_accuracy_value', 'NONE');
#303 = VECTOR ( 'NONE', #375, 1000.000000000000000 ) ;
#304 = EDGE_LOOP ( 'NONE', ( #367, #246 ) ) ;
#305 = LINE ( 'NONE', #335, #238 ) ;
#306 = DIRECTION ( 'NONE',  ( 0.000000000000000000, 0.000000000000000000, 1.000000000000000000 ) ) ;
#307 = DIRECTION ( 'NONE',  ( -0.000000000000000000, -0.000000000000000000, -1.000000000000000000 ) ) ;
#308 = CARTESIAN_POINT ( 'NONE',  ( -232.5000000000000284, 12.50000000000000355, 25.00000000000000000 ) ) ;
#309 = AXIS2_PLACEMENT_3D ( 'NONE', #62, #366, #127 ) ;
#310 = APPLICATION_PROTOCOL_DEFINITION ( 'international standard', 'config_control_design', 1994, #64 ) ;
#311 = CARTESIAN_POINT ( 'NONE',  ( -212.4999999999999716, 0.000000000000000000, 0.000000000000000000 ) ) ;
#312 = EDGE_CURVE ( 'NONE', #58, #158, #178, .T. ) ;
#313 = DIRECTION ( 'NONE',  ( 0.000000000000000000, 0.000000000000000000, 1.000000000000000000 ) ) ;
#314 = EDGE_CURVE ( 'NONE', #354, #384, #371, .T. ) ;
#315 = DIRECTION ( 'NONE',  ( 0.000000000000000000, 0.000000000000000000, 1.000000000000000000 ) ) ;
#316 = CARTESIAN_POINT ( 'NONE',  ( 232.4999999999999432, 12.50000000000000355, 0.000000000000000000 ) ) ;
#317 = ORIENTED_EDGE ( 'NONE', *, *, #14, .F. ) ;
#318 = DIRECTION ( 'NONE',  ( -0.000000000000000000, -0.000000000000000000, -1.000000000000000000 ) ) ;
#319 = EDGE_LOOP ( 'NONE', ( #65, #324, #101, #352 ) ) ;
#320 = ORIENTED_EDGE ( 'NONE', *, *, #369, .T. ) ;
#321 = EDGE_LOOP ( 'NONE', ( #175, #119 ) ) ;
#322 = LINE ( 'NONE', #187, #255 ) ;
#323 =( GEOMETRIC_REPRESENTATION_CONTEXT ( 3 ) GLOBAL_UNCERTAINTY_ASSIGNED_CONTEXT ( ( #302 ) ) GLOBAL_UNIT_ASSIGNED_CONTEXT ( ( #216, #46, #245 ) ) REPRESENTATION_CONTEXT ( 'NONE', 'WORKASPACE' ) );
#324 = ORIENTED_EDGE ( 'NONE', *, *, #106, .T. ) ;
#325 = APPROVAL ( #215, 'UNSPECIFIED' ) ;
#326 = ORIENTED_EDGE ( 'NONE', *, *, #28, .F. ) ;
#327 = CARTESIAN_POINT ( 'NONE',  ( 232.4999999999999432, 12.50000000000000355, 25.00000000000000000 ) ) ;
#328 = ORIENTED_EDGE ( 'NONE', *, *, #314, .F. ) ;
#329 = PERSON_AND_ORGANIZATION ( #51, #213 ) ;
#330 = LOCAL_TIME ( 22, 52, 19.00000000000000000, #340 ) ;
#331 = ORIENTED_EDGE ( 'NONE', *, *, #106, .F. ) ;
#332 = VERTEX_POINT ( 'NONE', #283 ) ;
#333 = PERSON_AND_ORGANIZATION ( #51, #213 ) ;
#334 = APPLICATION_PROTOCOL_DEFINITION ( 'international standard', 'config_control_design', 1994, #45 ) ;
#335 = CARTESIAN_POINT ( 'NONE',  ( -232.5000000000000284, 12.50000000000000355, 0.000000000000000000 ) ) ;
#336 = PERSON_AND_ORGANIZATION ( #51, #213 ) ;
#337 = PERSON_AND_ORGANIZATION ( #51, #213 ) ;
#338 = CIRCLE ( 'NONE', #55, 7.500000000000007105 ) ;
#339 = AXIS2_PLACEMENT_3D ( 'NONE', #148, #291, #228 ) ;
#340 = COORDINATED_UNIVERSAL_TIME_OFFSET ( 5, 30, .AHEAD. ) ;
#341 = APPROVAL_PERSON_ORGANIZATION ( #337, #325, #270 ) ;
#342 = CC_DESIGN_DATE_AND_TIME_ASSIGNMENT ( #70, #35, ( #298 ) ) ;
#343 = DIRECTION ( 'NONE',  ( -0.000000000000000000, -0.000000000000000000, -1.000000000000000000 ) ) ;
#344 = DIRECTION ( 'NONE',  ( -0.000000000000000000, 0.000000000000000000, 1.000000000000000000 ) ) ;
#345 = CARTESIAN_POINT ( 'NONE',  ( -204.9999999999999716, 9.184850993605173582E-16, 25.00000000000000000 ) ) ;
#346 = DIRECTION ( 'NONE',  ( -0.000000000000000000, -0.000000000000000000, -1.000000000000000000 ) ) ;
#347 = PLANE ( 'NONE',  #110 ) ;
#348 = DIRECTION ( 'NONE',  ( 1.000000000000000000, 0.000000000000000000, 0.000000000000000000 ) ) ;
#349 = ORIENTED_EDGE ( 'NONE', *, *, #185, .F. ) ;
#350 = CARTESIAN_POINT ( 'NONE',  ( -219.9999999999999716, 0.000000000000000000, 0.000000000000000000 ) ) ;
#351 = ORIENTED_EDGE ( 'NONE', *, *, #221, .T. ) ;
#352 = ORIENTED_EDGE ( 'NONE', *, *, #150, .F. ) ;
#353 = ADVANCED_FACE ( 'NONE', ( #111 ), #347, .F. ) ;
#354 = VERTEX_POINT ( 'NONE', #225 ) ;
#355 = ADVANCED_FACE ( 'NONE', ( #259 ), #204, .F. ) ;
#356 = VECTOR ( 'NONE', #222, 1000.000000000000000 ) ;
#357 = DIRECTION ( 'NONE',  ( 0.000000000000000000, -0.000000000000000000, -1.000000000000000000 ) ) ;
#358 = DIRECTION ( 'NONE',  ( -0.000000000000000000, -0.000000000000000000, -1.000000000000000000 ) ) ;
#359 = ORIENTED_EDGE ( 'NONE', *, *, #52, .F. ) ;
#360 = CYLINDRICAL_SURFACE ( 'NONE', #19, 7.500000000000007105 ) ;
#361 = FACE_OUTER_BOUND ( 'NONE', #186, .T. ) ;
#362 = AXIS2_PLACEMENT_3D ( 'NONE', #251, #206, #285 ) ;
#363 = CC_DESIGN_APPROVAL ( #12, ( #95 ) ) ;
#364 = ADVANCED_BREP_SHAPE_REPRESENTATION ( 'f_Default_sldprt', ( #78, #105 ), #323 ) ;
#365 = DIRECTION ( 'NONE',  ( -0.000000000000000000, -0.000000000000000000, -1.000000000000000000 ) ) ;
#366 = DIRECTION ( 'NONE',  ( 1.000000000000000000, 0.000000000000000000, -0.000000000000000000 ) ) ;
#367 = ORIENTED_EDGE ( 'NONE', *, *, #129, .F. ) ;
#368 = APPROVAL_DATE_TIME ( #193, #325 ) ;
#369 = EDGE_CURVE ( 'NONE', #332, #354, #294, .T. ) ;
#370 = LINE ( 'NONE', #316, #303 ) ;
#371 = LINE ( 'NONE', #208, #145 ) ;
#372 = FACE_OUTER_BOUND ( 'NONE', #24, .T. ) ;
#373 = CARTESIAN_POINT ( 'NONE',  ( 0.000000000000000000, 0.000000000000000000, 25.00000000000000000 ) ) ;
#374 = FACE_OUTER_BOUND ( 'NONE', #230, .T. ) ;
#375 = DIRECTION ( 'NONE',  ( -0.000000000000000000, 1.000000000000000000, -0.000000000000000000 ) ) ;
#376 = CC_DESIGN_APPROVAL ( #325, ( #298 ) ) ;
#377 = DIRECTION ( 'NONE',  ( -0.000000000000000000, -0.000000000000000000, -1.000000000000000000 ) ) ;
#378 = ORIENTED_EDGE ( 'NONE', *, *, #52, .T. ) ;
#379 = CARTESIAN_POINT ( 'NONE',  ( -232.5000000000000284, 12.50000000000000355, 25.00000000000000000 ) ) ;
#380 = ORIENTED_EDGE ( 'NONE', *, *, #129, .T. ) ;
#381 = LOCAL_TIME ( 22, 52, 19.00000000000000000, #136 ) ;
#382 = EDGE_LOOP ( 'NONE', ( #232, #29, #293, #257 ) ) ;
#383 = PRODUCT_RELATED_PRODUCT_CATEGORY ( 'detail', '', ( #140 ) ) ;
#384 = VERTEX_POINT ( 'NONE', #271 ) ;
#385 = VERTEX_POINT ( 'NONE', #99 ) ;
ENDSEC;
END-ISO-10303-21;
