ISO-10303-21;
HEADER;
FILE_DESCRIPTION (( 'STEP AP203' ),
    '1' );
FILE_NAME ('frame2_Default_sldprt.STEP',
    '2026-09-21T17:22:20',
    ( '' ),
    ( '' ),
    'SwSTEP 2.0',
    'SolidWorks 2021',
    '' );
FILE_SCHEMA (( 'CONFIG_CONTROL_DESIGN' ));
ENDSEC;

DATA;
#1 = DIRECTION ( 'NONE',  ( 0.000000000000000000, 0.000000000000000000, 1.000000000000000000 ) ) ;
#2 = APPLICATION_CONTEXT ( 'configuration controlled 3d designs of mechanical parts and assemblies' ) ;
#3 = DIRECTION ( 'NONE',  ( 1.000000000000000000, 0.000000000000000000, 0.000000000000000000 ) ) ;
#4 = EDGE_CURVE ( 'NONE', #95, #45, #319, .T. ) ;
#5 = VECTOR ( 'NONE', #12, 1000.000000000000000 ) ;
#6 = EDGE_CURVE ( 'NONE', #324, #119, #175, .T. ) ;
#7 = PLANE ( 'NONE',  #217 ) ;
#8 = CARTESIAN_POINT ( 'NONE',  ( -7.500000000000000000, 9.184850993605147944E-16, 0.000000000000000000 ) ) ;
#9 = CARTESIAN_POINT ( 'NONE',  ( 0.000000000000000000, 0.000000000000000000, 35.00000000000000000 ) ) ;
#10 = DIRECTION ( 'NONE',  ( 0.000000000000000000, 0.000000000000000000, 1.000000000000000000 ) ) ;
#11 = CC_DESIGN_SECURITY_CLASSIFICATION ( #75, ( #88 ) ) ;
#12 = DIRECTION ( 'NONE',  ( -0.000000000000000000, -0.000000000000000000, -1.000000000000000000 ) ) ;
#13 = AXIS2_PLACEMENT_3D ( 'NONE', #190, #299, #111 ) ;
#14 = FACE_OUTER_BOUND ( 'NONE', #141, .T. ) ;
#15 = EDGE_LOOP ( 'NONE', ( #265, #97, #54, #177 ) ) ;
#16 = ADVANCED_FACE ( 'NONE', ( #201 ), #85, .T. ) ;
#17 = APPROVAL_PERSON_ORGANIZATION ( #26, #276, #309 ) ;
#18 = EDGE_CURVE ( 'NONE', #333, #248, #134, .T. ) ;
#19 = DIRECTION ( 'NONE',  ( 0.000000000000000000, 0.000000000000000000, 1.000000000000000000 ) ) ;
#20 = ORIENTED_EDGE ( 'NONE', *, *, #291, .F. ) ;
#21 = DIRECTION ( 'NONE',  ( 1.000000000000000000, 0.000000000000000000, 0.000000000000000000 ) ) ;
#22 = DIRECTION ( 'NONE',  ( 0.000000000000000000, 0.000000000000000000, 1.000000000000000000 ) ) ;
#23 = ORIENTED_EDGE ( 'NONE', *, *, #200, .T. ) ;
#24 = COORDINATED_UNIVERSAL_TIME_OFFSET ( 5, 30, .AHEAD. ) ;
#25 = ORIENTED_EDGE ( 'NONE', *, *, #32, .F. ) ;
#26 = PERSON_AND_ORGANIZATION ( #312, #48 ) ;
#27 = ORIENTED_EDGE ( 'NONE', *, *, #230, .T. ) ;
#28 = CALENDAR_DATE ( 2026, 21, 9 ) ;
#29 = EDGE_CURVE ( 'NONE', #45, #95, #93, .T. ) ;
#30 = VECTOR ( 'NONE', #142, 1000.000000000000000 ) ;
#31 = CARTESIAN_POINT ( 'NONE',  ( -7.500000000000000000, 9.184850993605147944E-16, -35.00000000000000000 ) ) ;
#32 = EDGE_CURVE ( 'NONE', #119, #42, #133, .T. ) ;
#33 = DIRECTION ( 'NONE',  ( 1.000000000000000000, 0.000000000000000000, 0.000000000000000000 ) ) ;
#34 = CIRCLE ( 'NONE', #61, 7.500000000000000000 ) ;
#35 = CARTESIAN_POINT ( 'NONE',  ( -7.500000000000000000, 9.184850993605147944E-16, -35.00000000000000000 ) ) ;
#36 = EDGE_LOOP ( 'NONE', ( #292, #55, #25, #143 ) ) ;
#37 = AXIS2_PLACEMENT_3D ( 'NONE', #176, #283, #156 ) ;
#38 = CARTESIAN_POINT ( 'NONE',  ( 0.000000000000000000, 0.000000000000000000, 0.000000000000000000 ) ) ;
#39 = LINE ( 'NONE', #297, #5 ) ;
#40 = CARTESIAN_POINT ( 'NONE',  ( 0.000000000000000000, 0.000000000000000000, -35.00000000000000000 ) ) ;
#41 = ADVANCED_FACE ( 'NONE', ( #228 ), #7, .T. ) ;
#42 = VERTEX_POINT ( 'NONE', #8 ) ;
#43 = PERSON_AND_ORGANIZATION_ROLE ( 'classification_officer' ) ;
#44 = DIRECTION ( 'NONE',  ( 1.000000000000000000, 0.000000000000000000, 0.000000000000000000 ) ) ;
#45 = VERTEX_POINT ( 'NONE', #110 ) ;
#46 = DIRECTION ( 'NONE',  ( 1.000000000000000000, 0.000000000000000000, -0.000000000000000000 ) ) ;
#47 = EDGE_CURVE ( 'NONE', #192, #95, #327, .T. ) ;
#48 = ORGANIZATION ( 'UNSPECIFIED', 'UNSPECIFIED', '' ) ;
#49 = DIRECTION ( 'NONE',  ( -0.000000000000000000, -0.000000000000000000, -1.000000000000000000 ) ) ;
#50 = SECURITY_CLASSIFICATION_LEVEL ( 'unclassified' ) ;
#51 = CIRCLE ( 'NONE', #253, 50.00000000000000000 ) ;
#52 = UNCERTAINTY_MEASURE_WITH_UNIT (LENGTH_MEASURE( 1.000000000000000082E-05 ), #193, 'distance_accuracy_value', 'NONE');
#53 =( NAMED_UNIT ( * ) PLANE_ANGLE_UNIT ( ) SI_UNIT ( $, .RADIAN. ) );
#54 = ORIENTED_EDGE ( 'NONE', *, *, #178, .T. ) ;
#55 = ORIENTED_EDGE ( 'NONE', *, *, #313, .T. ) ;
#56 = CARTESIAN_POINT ( 'NONE',  ( 7.500000000000000000, 0.000000000000000000, -35.00000000000000000 ) ) ;
#57 = CARTESIAN_POINT ( 'NONE',  ( 0.000000000000000000, 0.000000000000000000, 0.000000000000000000 ) ) ;
#58 = CARTESIAN_POINT ( 'NONE',  ( 0.000000000000000000, 0.000000000000000000, -35.00000000000000000 ) ) ;
#59 = AXIS2_PLACEMENT_3D ( 'NONE', #266, #165, #124 ) ;
#60 = DIRECTION ( 'NONE',  ( 0.000000000000000000, 0.000000000000000000, 1.000000000000000000 ) ) ;
#61 = AXIS2_PLACEMENT_3D ( 'NONE', #38, #187, #295 ) ;
#62 = CARTESIAN_POINT ( 'NONE',  ( 50.00000000000000000, 6.123233995736766085E-15, 35.00000000000000000 ) ) ;
#63 = FACE_OUTER_BOUND ( 'NONE', #277, .T. ) ;
#64 = FACE_OUTER_BOUND ( 'NONE', #194, .T. ) ;
#65 = ORIENTED_EDGE ( 'NONE', *, *, #178, .F. ) ;
#66 = CARTESIAN_POINT ( 'NONE',  ( 7.500000000000000000, 0.000000000000000000, -35.00000000000000000 ) ) ;
#67 = EDGE_LOOP ( 'NONE', ( #162, #261 ) ) ;
#68 = CARTESIAN_POINT ( 'NONE',  ( 50.00000000000000000, 6.123233995736766085E-15, 0.000000000000000000 ) ) ;
#69 = COORDINATED_UNIVERSAL_TIME_OFFSET ( 5, 30, .AHEAD. ) ;
#70 = FACE_OUTER_BOUND ( 'NONE', #315, .T. ) ;
#71 = CC_DESIGN_DATE_AND_TIME_ASSIGNMENT ( #329, #72, ( #75 ) ) ;
#72 = DATE_TIME_ROLE ( 'classification_date' ) ;
#73 = FACE_OUTER_BOUND ( 'NONE', #220, .T. ) ;
#74 = APPROVAL_STATUS ( 'not_yet_approved' ) ;
#75 = SECURITY_CLASSIFICATION ( '', '', #50 ) ;
#76 = AXIS2_PLACEMENT_3D ( 'NONE', #123, #22, #46 ) ;
#77 = ORIENTED_EDGE ( 'NONE', *, *, #300, .F. ) ;
#78 = CARTESIAN_POINT ( 'NONE',  ( 0.000000000000000000, 0.000000000000000000, 70.00000000000000000 ) ) ;
#79 = ORIENTED_EDGE ( 'NONE', *, *, #313, .F. ) ;
#80 = DATE_TIME_ROLE ( 'creation_date' ) ;
#81 = CIRCLE ( 'NONE', #205, 7.500000000000000000 ) ;
#82 = APPROVAL_DATE_TIME ( #308, #280 ) ;
#83 = COORDINATED_UNIVERSAL_TIME_OFFSET ( 5, 30, .AHEAD. ) ;
#84 = VECTOR ( 'NONE', #255, 1000.000000000000000 ) ;
#85 = CYLINDRICAL_SURFACE ( 'NONE', #182, 7.500000000000000000 ) ;
#86 = CARTESIAN_POINT ( 'NONE',  ( 0.000000000000000000, 0.000000000000000000, 0.000000000000000000 ) ) ;
#87 = LOCAL_TIME ( 22, 52, 20.00000000000000000, #199 ) ;
#88 = PRODUCT_DEFINITION_FORMATION_WITH_SPECIFIED_SOURCE ( 'ANY', '', #153, .NOT_KNOWN. ) ;
#89 = ORIENTED_EDGE ( 'NONE', *, *, #130, .F. ) ;
#90 = FACE_BOUND ( 'NONE', #170, .T. ) ;
#91 = AXIS2_PLACEMENT_3D ( 'NONE', #138, #294, #159 ) ;
#92 = DIRECTION ( 'NONE',  ( 1.000000000000000000, 0.000000000000000000, -0.000000000000000000 ) ) ;
#93 = CIRCLE ( 'NONE', #273, 50.00000000000000000 ) ;
#94 = DIRECTION ( 'NONE',  ( 1.000000000000000000, 0.000000000000000000, 0.000000000000000000 ) ) ;
#95 = VERTEX_POINT ( 'NONE', #68 ) ;
#96 = DIRECTION ( 'NONE',  ( 0.000000000000000000, 0.000000000000000000, 1.000000000000000000 ) ) ;
#97 = ORIENTED_EDGE ( 'NONE', *, *, #128, .F. ) ;
#98 = DIRECTION ( 'NONE',  ( -0.000000000000000000, -0.000000000000000000, -1.000000000000000000 ) ) ;
#99 = PERSON_AND_ORGANIZATION ( #312, #48 ) ;
#100 = DIRECTION ( 'NONE',  ( -1.000000000000000000, 0.000000000000000000, 0.000000000000000000 ) ) ;
#101 = ORIENTED_EDGE ( 'NONE', *, *, #200, .F. ) ;
#102 = MECHANICAL_CONTEXT ( 'NONE', #287, 'mechanical' ) ;
#103 = ORIENTED_EDGE ( 'NONE', *, *, #288, .F. ) ;
#104 = CIRCLE ( 'NONE', #285, 7.500000000000000000 ) ;
#105 = CARTESIAN_POINT ( 'NONE',  ( -7.500000000000000000, 9.184850993605147944E-16, 35.00000000000000000 ) ) ;
#106 = ADVANCED_FACE ( 'NONE', ( #326, #70 ), #166, .T. ) ;
#107 = PERSON_AND_ORGANIZATION_ROLE ( 'design_owner' ) ;
#108 = AXIS2_PLACEMENT_3D ( 'NONE', #286, #154, #254 ) ;
#109 = DIRECTION ( 'NONE',  ( 1.000000000000000000, 0.000000000000000000, -0.000000000000000000 ) ) ;
#110 = CARTESIAN_POINT ( 'NONE',  ( -50.00000000000000000, 0.000000000000000000, 0.000000000000000000 ) ) ;
#111 = DIRECTION ( 'NONE',  ( 1.000000000000000000, 0.000000000000000000, -0.000000000000000000 ) ) ;
#112 = CYLINDRICAL_SURFACE ( 'NONE', #236, 50.00000000000000000 ) ;
#113 = ADVANCED_FACE ( 'NONE', ( #301 ), #269, .T. ) ;
#114 = CC_DESIGN_APPROVAL ( #218, ( #75 ) ) ;
#115 = AXIS2_PLACEMENT_3D ( 'NONE', #318, #96, #94 ) ;
#116 = AXIS2_PLACEMENT_3D ( 'NONE', #206, #234, #183 ) ;
#117 = DIRECTION ( 'NONE',  ( -0.000000000000000000, -0.000000000000000000, -1.000000000000000000 ) ) ;
#118 = DIRECTION ( 'NONE',  ( 1.000000000000000000, 0.000000000000000000, 0.000000000000000000 ) ) ;
#119 = VERTEX_POINT ( 'NONE', #239 ) ;
#120 = PERSON_AND_ORGANIZATION_ROLE ( 'creator' ) ;
#121 = CARTESIAN_POINT ( 'NONE',  ( 0.000000000000000000, 0.000000000000000000, 35.00000000000000000 ) ) ;
#122 = VERTEX_POINT ( 'NONE', #242 ) ;
#123 = CARTESIAN_POINT ( 'NONE',  ( 0.000000000000000000, 0.000000000000000000, 35.00000000000000000 ) ) ;
#124 = DIRECTION ( 'NONE',  ( 1.000000000000000000, 0.000000000000000000, 0.000000000000000000 ) ) ;
#125 = ORIENTED_EDGE ( 'NONE', *, *, #47, .T. ) ;
#126 = APPROVAL_STATUS ( 'not_yet_approved' ) ;
#127 = ORIENTED_EDGE ( 'NONE', *, *, #202, .F. ) ;
#128 = EDGE_CURVE ( 'NONE', #169, #192, #181, .T. ) ;
#129 = APPROVAL_STATUS ( 'not_yet_approved' ) ;
#130 = EDGE_CURVE ( 'NONE', #248, #122, #252, .T. ) ;
#131 = CARTESIAN_POINT ( 'NONE',  ( -7.500000000000000000, 9.184850993605147944E-16, -35.00000000000000000 ) ) ;
#132 = AXIS2_PLACEMENT_3D ( 'NONE', #258, #10, #44 ) ;
#133 = CIRCLE ( 'NONE', #37, 7.500000000000000000 ) ;
#134 = LINE ( 'NONE', #35, #84 ) ;
#135 = DIRECTION ( 'NONE',  ( 1.000000000000000000, 0.000000000000000000, 0.000000000000000000 ) ) ;
#136 = ADVANCED_FACE ( 'NONE', ( #73 ), #216, .F. ) ;
#137 = CC_DESIGN_PERSON_AND_ORGANIZATION_ASSIGNMENT ( #152, #107, ( #153 ) ) ;
#138 = CARTESIAN_POINT ( 'NONE',  ( 0.000000000000000000, 0.000000000000000000, -35.00000000000000000 ) ) ;
#139 = CYLINDRICAL_SURFACE ( 'NONE', #132, 7.500000000000000000 ) ;
#140 = DIRECTION ( 'NONE',  ( 0.000000000000000000, 0.000000000000000000, 1.000000000000000000 ) ) ;
#141 = EDGE_LOOP ( 'NONE', ( #101, #125, #235, #65 ) ) ;
#142 = DIRECTION ( 'NONE',  ( 0.000000000000000000, 0.000000000000000000, 1.000000000000000000 ) ) ;
#143 = ORIENTED_EDGE ( 'NONE', *, *, #6, .F. ) ;
#144 = CARTESIAN_POINT ( 'NONE',  ( 0.000000000000000000, 0.000000000000000000, 35.00000000000000000 ) ) ;
#145 = CARTESIAN_POINT ( 'NONE',  ( 50.00000000000000000, 6.123233995736766085E-15, 35.00000000000000000 ) ) ;
#146 = PERSON_AND_ORGANIZATION ( #312, #48 ) ;
#147 = CC_DESIGN_DATE_AND_TIME_ASSIGNMENT ( #198, #80, ( #210 ) ) ;
#148 = ORIENTED_EDGE ( 'NONE', *, *, #18, .F. ) ;
#149 = APPLICATION_PROTOCOL_DEFINITION ( 'international standard', 'config_control_design', 1994, #287 ) ;
#150 = EDGE_LOOP ( 'NONE', ( #20, #127 ) ) ;
#151 = APPROVAL_DATE_TIME ( #251, #276 ) ;
#152 = PERSON_AND_ORGANIZATION ( #312, #48 ) ;
#153 = PRODUCT ( 'frame2_Default_sldprt', 'frame2_Default_sldprt', '', ( #102 ) ) ;
#154 = DIRECTION ( 'NONE',  ( 0.000000000000000000, 0.000000000000000000, 1.000000000000000000 ) ) ;
#155 = AXIS2_PLACEMENT_3D ( 'NONE', #323, #264, #92 ) ;
#156 = DIRECTION ( 'NONE',  ( 1.000000000000000000, 0.000000000000000000, 0.000000000000000000 ) ) ;
#157 = AXIS2_PLACEMENT_3D ( 'NONE', #57, #281, #3 ) ;
#158 = CC_DESIGN_PERSON_AND_ORGANIZATION_ASSIGNMENT ( #174, #120, ( #88 ) ) ;
#159 = DIRECTION ( 'NONE',  ( 1.000000000000000000, 0.000000000000000000, 0.000000000000000000 ) ) ;
#160 = PLANE ( 'NONE',  #155 ) ;
#161 = CYLINDRICAL_SURFACE ( 'NONE', #268, 7.500000000000000000 ) ;
#162 = ORIENTED_EDGE ( 'NONE', *, *, #328, .T. ) ;
#163 = LINE ( 'NONE', #31, #290 ) ;
#164 = ORIENTED_EDGE ( 'NONE', *, *, #291, .T. ) ;
#165 = DIRECTION ( 'NONE',  ( 0.000000000000000000, 0.000000000000000000, 1.000000000000000000 ) ) ;
#166 = PLANE ( 'NONE',  #76 ) ;
#167 = CALENDAR_DATE ( 2026, 21, 9 ) ;
#168 = CIRCLE ( 'NONE', #116, 7.500000000000000000 ) ;
#169 = VERTEX_POINT ( 'NONE', #320 ) ;
#170 = EDGE_LOOP ( 'NONE', ( #306, #325 ) ) ;
#171 = CALENDAR_DATE ( 2026, 21, 9 ) ;
#172 = VECTOR ( 'NONE', #60, 1000.000000000000000 ) ;
#173 = ADVANCED_FACE ( 'NONE', ( #232 ), #231, .T. ) ;
#174 = PERSON_AND_ORGANIZATION ( #312, #48 ) ;
#175 = LINE ( 'NONE', #203, #172 ) ;
#176 = CARTESIAN_POINT ( 'NONE',  ( 0.000000000000000000, 0.000000000000000000, 0.000000000000000000 ) ) ;
#177 = ORIENTED_EDGE ( 'NONE', *, *, #29, .T. ) ;
#178 = EDGE_CURVE ( 'NONE', #169, #45, #39, .T. ) ;
#179 = ORIENTED_EDGE ( 'NONE', *, *, #288, .T. ) ;
#180 = LINE ( 'NONE', #66, #30 ) ;
#181 = CIRCLE ( 'NONE', #59, 50.00000000000000000 ) ;
#182 = AXIS2_PLACEMENT_3D ( 'NONE', #58, #204, #135 ) ;
#183 = DIRECTION ( 'NONE',  ( 1.000000000000000000, 0.000000000000000000, 0.000000000000000000 ) ) ;
#184 = CARTESIAN_POINT ( 'NONE',  ( 0.000000000000000000, 0.000000000000000000, -35.00000000000000000 ) ) ;
#185 = ORIENTED_EDGE ( 'NONE', *, *, #4, .F. ) ;
#186 = PERSON_AND_ORGANIZATION ( #312, #48 ) ;
#187 = DIRECTION ( 'NONE',  ( 0.000000000000000000, 0.000000000000000000, 1.000000000000000000 ) ) ;
#188 = EDGE_LOOP ( 'NONE', ( #148, #238, #179, #89 ) ) ;
#189 = ADVANCED_BREP_SHAPE_REPRESENTATION ( 'frame2_Default_sldprt', ( #331, #157 ), #307 ) ;
#190 = CARTESIAN_POINT ( 'NONE',  ( 0.000000000000000000, 0.000000000000000000, -35.00000000000000000 ) ) ;
#191 = CARTESIAN_POINT ( 'NONE',  ( 0.000000000000000000, 0.000000000000000000, 70.00000000000000000 ) ) ;
#192 = VERTEX_POINT ( 'NONE', #62 ) ;
#193 =( LENGTH_UNIT ( ) NAMED_UNIT ( * ) SI_UNIT ( .MILLI., .METRE. ) );
#194 = EDGE_LOOP ( 'NONE', ( #164, #213, #246, #103 ) ) ;
#195 = AXIS2_PLACEMENT_3D ( 'NONE', #144, #49, #100 ) ;
#196 = PERSON_AND_ORGANIZATION_ROLE ( 'creator' ) ;
#197 = LOCAL_TIME ( 22, 52, 20.00000000000000000, #83 ) ;
#198 = DATE_AND_TIME ( #28, #226 ) ;
#199 = COORDINATED_UNIVERSAL_TIME_OFFSET ( 5, 30, .AHEAD. ) ;
#200 = EDGE_CURVE ( 'NONE', #192, #169, #51, .T. ) ;
#201 = FACE_OUTER_BOUND ( 'NONE', #36, .T. ) ;
#202 = EDGE_CURVE ( 'NONE', #333, #274, #168, .T. ) ;
#203 = CARTESIAN_POINT ( 'NONE',  ( 7.500000000000000000, 0.000000000000000000, -35.00000000000000000 ) ) ;
#204 = DIRECTION ( 'NONE',  ( 0.000000000000000000, 0.000000000000000000, 1.000000000000000000 ) ) ;
#205 = AXIS2_PLACEMENT_3D ( 'NONE', #293, #209, #214 ) ;
#206 = CARTESIAN_POINT ( 'NONE',  ( 0.000000000000000000, 0.000000000000000000, 35.00000000000000000 ) ) ;
#207 = FACE_OUTER_BOUND ( 'NONE', #296, .T. ) ;
#208 = VECTOR ( 'NONE', #98, 1000.000000000000000 ) ;
#209 = DIRECTION ( 'NONE',  ( 0.000000000000000000, 0.000000000000000000, 1.000000000000000000 ) ) ;
#210 = PRODUCT_DEFINITION ( 'UNKNOWN', '', #88, #275 ) ;
#211 = CIRCLE ( 'NONE', #256, 7.500000000000000000 ) ;
#212 = DIRECTION ( 'NONE',  ( 0.000000000000000000, 0.000000000000000000, 1.000000000000000000 ) ) ;
#213 = ORIENTED_EDGE ( 'NONE', *, *, #18, .T. ) ;
#214 = DIRECTION ( 'NONE',  ( 1.000000000000000000, 0.000000000000000000, 0.000000000000000000 ) ) ;
#215 = ORIENTED_EDGE ( 'NONE', *, *, #257, .F. ) ;
#216 = PLANE ( 'NONE',  #13 ) ;
#217 = AXIS2_PLACEMENT_3D ( 'NONE', #229, #310, #109 ) ;
#218 = APPROVAL ( #74, 'UNSPECIFIED' ) ;
#219 = DIRECTION ( 'NONE',  ( 0.000000000000000000, 0.000000000000000000, 1.000000000000000000 ) ) ;
#220 = EDGE_LOOP ( 'NONE', ( #215, #303 ) ) ;
#221 = APPROVAL_ROLE ( '' ) ;
#222 = ORIENTED_EDGE ( 'NONE', *, *, #6, .T. ) ;
#223 = LOCAL_TIME ( 22, 52, 20.00000000000000000, #263 ) ;
#224 = CALENDAR_DATE ( 2026, 21, 9 ) ;
#225 = CC_DESIGN_PERSON_AND_ORGANIZATION_ASSIGNMENT ( #335, #196, ( #210 ) ) ;
#226 = LOCAL_TIME ( 22, 52, 20.00000000000000000, #24 ) ;
#227 = APPROVAL_PERSON_ORGANIZATION ( #279, #280, #249 ) ;
#228 = FACE_OUTER_BOUND ( 'NONE', #67, .T. ) ;
#229 = CARTESIAN_POINT ( 'NONE',  ( 0.000000000000000000, 0.000000000000000000, 70.00000000000000000 ) ) ;
#230 = EDGE_CURVE ( 'NONE', #321, #324, #305, .T. ) ;
#231 = CYLINDRICAL_SURFACE ( 'NONE', #115, 7.500000000000000000 ) ;
#232 = FACE_OUTER_BOUND ( 'NONE', #188, .T. ) ;
#233 = CARTESIAN_POINT ( 'NONE',  ( 7.500000000000000000, 0.000000000000000000, 35.00000000000000000 ) ) ;
#234 = DIRECTION ( 'NONE',  ( 0.000000000000000000, 0.000000000000000000, 1.000000000000000000 ) ) ;
#235 = ORIENTED_EDGE ( 'NONE', *, *, #4, .T. ) ;
#236 = AXIS2_PLACEMENT_3D ( 'NONE', #121, #117, #237 ) ;
#237 = DIRECTION ( 'NONE',  ( -1.000000000000000000, 0.000000000000000000, 0.000000000000000000 ) ) ;
#238 = ORIENTED_EDGE ( 'NONE', *, *, #202, .T. ) ;
#239 = CARTESIAN_POINT ( 'NONE',  ( 7.500000000000000000, 0.000000000000000000, 0.000000000000000000 ) ) ;
#240 = SHAPE_DEFINITION_REPRESENTATION ( #282, #189 ) ;
#241 = CC_DESIGN_PERSON_AND_ORGANIZATION_ASSIGNMENT ( #99, #322, ( #88 ) ) ;
#242 = CARTESIAN_POINT ( 'NONE',  ( 7.500000000000000000, 0.000000000000000000, 70.00000000000000000 ) ) ;
#243 = APPROVAL_DATE_TIME ( #267, #218 ) ;
#244 = CLOSED_SHELL ( 'NONE', ( #302, #16, #289, #113, #106, #250, #136, #262, #173, #41 ) ) ;
#245 =( NAMED_UNIT ( * ) SI_UNIT ( $, .STERADIAN. ) SOLID_ANGLE_UNIT ( ) );
#246 = ORIENTED_EDGE ( 'NONE', *, *, #328, .F. ) ;
#247 = APPLICATION_PROTOCOL_DEFINITION ( 'international standard', 'config_control_design', 1994, #2 ) ;
#248 = VERTEX_POINT ( 'NONE', #316 ) ;
#249 = APPROVAL_ROLE ( '' ) ;
#250 = ADVANCED_FACE ( 'NONE', ( #90, #63 ), #160, .F. ) ;
#251 = DATE_AND_TIME ( #224, #197 ) ;
#252 = CIRCLE ( 'NONE', #271, 7.500000000000000000 ) ;
#253 = AXIS2_PLACEMENT_3D ( 'NONE', #9, #212, #260 ) ;
#254 = DIRECTION ( 'NONE',  ( 1.000000000000000000, 0.000000000000000000, 0.000000000000000000 ) ) ;
#255 = DIRECTION ( 'NONE',  ( 0.000000000000000000, 0.000000000000000000, 1.000000000000000000 ) ) ;
#256 = AXIS2_PLACEMENT_3D ( 'NONE', #78, #278, #332 ) ;
#257 = EDGE_CURVE ( 'NONE', #324, #321, #104, .T. ) ;
#258 = CARTESIAN_POINT ( 'NONE',  ( 0.000000000000000000, 0.000000000000000000, -35.00000000000000000 ) ) ;
#259 = DIRECTION ( 'NONE',  ( 1.000000000000000000, 0.000000000000000000, 0.000000000000000000 ) ) ;
#260 = DIRECTION ( 'NONE',  ( 1.000000000000000000, 0.000000000000000000, 0.000000000000000000 ) ) ;
#261 = ORIENTED_EDGE ( 'NONE', *, *, #130, .T. ) ;
#262 = ADVANCED_FACE ( 'NONE', ( #207 ), #139, .T. ) ;
#263 = COORDINATED_UNIVERSAL_TIME_OFFSET ( 5, 30, .AHEAD. ) ;
#264 = DIRECTION ( 'NONE',  ( 0.000000000000000000, 0.000000000000000000, 1.000000000000000000 ) ) ;
#265 = ORIENTED_EDGE ( 'NONE', *, *, #47, .F. ) ;
#266 = CARTESIAN_POINT ( 'NONE',  ( 0.000000000000000000, 0.000000000000000000, 35.00000000000000000 ) ) ;
#267 = DATE_AND_TIME ( #272, #223 ) ;
#268 = AXIS2_PLACEMENT_3D ( 'NONE', #40, #140, #118 ) ;
#269 = CYLINDRICAL_SURFACE ( 'NONE', #195, 50.00000000000000000 ) ;
#270 = LOCAL_TIME ( 22, 52, 20.00000000000000000, #69 ) ;
#271 = AXIS2_PLACEMENT_3D ( 'NONE', #191, #219, #21 ) ;
#272 = CALENDAR_DATE ( 2026, 21, 9 ) ;
#273 = AXIS2_PLACEMENT_3D ( 'NONE', #86, #311, #33 ) ;
#274 = VERTEX_POINT ( 'NONE', #233 ) ;
#275 = DESIGN_CONTEXT ( 'detailed design', #2, 'design' ) ;
#276 = APPROVAL ( #129, 'UNSPECIFIED' ) ;
#277 = EDGE_LOOP ( 'NONE', ( #298, #185 ) ) ;
#278 = DIRECTION ( 'NONE',  ( 0.000000000000000000, 0.000000000000000000, 1.000000000000000000 ) ) ;
#279 = PERSON_AND_ORGANIZATION ( #312, #48 ) ;
#280 = APPROVAL ( #126, 'UNSPECIFIED' ) ;
#281 = DIRECTION ( 'NONE',  ( 0.000000000000000000, 0.000000000000000000, 1.000000000000000000 ) ) ;
#282 = PRODUCT_DEFINITION_SHAPE ( 'NONE', 'NONE',  #210 ) ;
#283 = DIRECTION ( 'NONE',  ( 0.000000000000000000, 0.000000000000000000, 1.000000000000000000 ) ) ;
#284 = APPROVAL_PERSON_ORGANIZATION ( #186, #218, #221 ) ;
#285 = AXIS2_PLACEMENT_3D ( 'NONE', #184, #19, #259 ) ;
#286 = CARTESIAN_POINT ( 'NONE',  ( 0.000000000000000000, 0.000000000000000000, 0.000000000000000000 ) ) ;
#287 = APPLICATION_CONTEXT ( 'configuration controlled 3d designs of mechanical parts and assemblies' ) ;
#288 = EDGE_CURVE ( 'NONE', #274, #122, #180, .T. ) ;
#289 = ADVANCED_FACE ( 'NONE', ( #14 ), #112, .T. ) ;
#290 = VECTOR ( 'NONE', #1, 1000.000000000000000 ) ;
#291 = EDGE_CURVE ( 'NONE', #274, #333, #81, .T. ) ;
#292 = ORIENTED_EDGE ( 'NONE', *, *, #257, .T. ) ;
#293 = CARTESIAN_POINT ( 'NONE',  ( 0.000000000000000000, 0.000000000000000000, 35.00000000000000000 ) ) ;
#294 = DIRECTION ( 'NONE',  ( 0.000000000000000000, 0.000000000000000000, 1.000000000000000000 ) ) ;
#295 = DIRECTION ( 'NONE',  ( 1.000000000000000000, 0.000000000000000000, 0.000000000000000000 ) ) ;
#296 = EDGE_LOOP ( 'NONE', ( #79, #27, #222, #77 ) ) ;
#297 = CARTESIAN_POINT ( 'NONE',  ( -50.00000000000000000, 0.000000000000000000, 35.00000000000000000 ) ) ;
#298 = ORIENTED_EDGE ( 'NONE', *, *, #29, .F. ) ;
#299 = DIRECTION ( 'NONE',  ( 0.000000000000000000, 0.000000000000000000, 1.000000000000000000 ) ) ;
#300 = EDGE_CURVE ( 'NONE', #42, #119, #34, .T. ) ;
#301 = FACE_OUTER_BOUND ( 'NONE', #15, .T. ) ;
#302 = ADVANCED_FACE ( 'NONE', ( #64 ), #161, .T. ) ;
#303 = ORIENTED_EDGE ( 'NONE', *, *, #230, .F. ) ;
#304 = PRODUCT_RELATED_PRODUCT_CATEGORY ( 'detail', '', ( #153 ) ) ;
#305 = CIRCLE ( 'NONE', #91, 7.500000000000000000 ) ;
#306 = ORIENTED_EDGE ( 'NONE', *, *, #32, .T. ) ;
#307 =( GEOMETRIC_REPRESENTATION_CONTEXT ( 3 ) GLOBAL_UNCERTAINTY_ASSIGNED_CONTEXT ( ( #52 ) ) GLOBAL_UNIT_ASSIGNED_CONTEXT ( ( #193, #53, #245 ) ) REPRESENTATION_CONTEXT ( 'NONE', 'WORKASPACE' ) );
#308 = DATE_AND_TIME ( #171, #87 ) ;
#309 = APPROVAL_ROLE ( '' ) ;
#310 = DIRECTION ( 'NONE',  ( 0.000000000000000000, 0.000000000000000000, 1.000000000000000000 ) ) ;
#311 = DIRECTION ( 'NONE',  ( 0.000000000000000000, 0.000000000000000000, 1.000000000000000000 ) ) ;
#312 = PERSON ( 'UNSPECIFIED', 'UNSPECIFIED', 'UNSPECIFIED', ('UNSPECIFIED'), ('UNSPECIFIED'), ('UNSPECIFIED') ) ;
#313 = EDGE_CURVE ( 'NONE', #321, #42, #163, .T. ) ;
#314 = CC_DESIGN_APPROVAL ( #276, ( #210 ) ) ;
#315 = EDGE_LOOP ( 'NONE', ( #330, #23 ) ) ;
#316 = CARTESIAN_POINT ( 'NONE',  ( -7.500000000000000000, 9.184850993605147944E-16, 70.00000000000000000 ) ) ;
#317 = CC_DESIGN_PERSON_AND_ORGANIZATION_ASSIGNMENT ( #146, #43, ( #75 ) ) ;
#318 = CARTESIAN_POINT ( 'NONE',  ( 0.000000000000000000, 0.000000000000000000, -35.00000000000000000 ) ) ;
#319 = CIRCLE ( 'NONE', #108, 50.00000000000000000 ) ;
#320 = CARTESIAN_POINT ( 'NONE',  ( -50.00000000000000000, 0.000000000000000000, 35.00000000000000000 ) ) ;
#321 = VERTEX_POINT ( 'NONE', #131 ) ;
#322 = PERSON_AND_ORGANIZATION_ROLE ( 'design_supplier' ) ;
#323 = CARTESIAN_POINT ( 'NONE',  ( 0.000000000000000000, 0.000000000000000000, 0.000000000000000000 ) ) ;
#324 = VERTEX_POINT ( 'NONE', #56 ) ;
#325 = ORIENTED_EDGE ( 'NONE', *, *, #300, .T. ) ;
#326 = FACE_BOUND ( 'NONE', #150, .T. ) ;
#327 = LINE ( 'NONE', #145, #208 ) ;
#328 = EDGE_CURVE ( 'NONE', #122, #248, #211, .T. ) ;
#329 = DATE_AND_TIME ( #167, #270 ) ;
#330 = ORIENTED_EDGE ( 'NONE', *, *, #128, .T. ) ;
#331 = MANIFOLD_SOLID_BREP ( 'Boss-Extrude4', #244 ) ;
#332 = DIRECTION ( 'NONE',  ( 1.000000000000000000, 0.000000000000000000, 0.000000000000000000 ) ) ;
#333 = VERTEX_POINT ( 'NONE', #105 ) ;
#334 = CC_DESIGN_APPROVAL ( #280, ( #88 ) ) ;
#335 = PERSON_AND_ORGANIZATION ( #312, #48 ) ;
ENDSEC;
END-ISO-10303-21;
