ISO-10303-21;
HEADER;
FILE_DESCRIPTION (( 'STEP AP203' ),
    '1' );
FILE_NAME ('g_Default_sldprt.STEP',
    '2026-09-21T17:22:21',
    ( '' ),
    ( '' ),
    'SwSTEP 2.0',
    'SolidWorks 2021',
    '' );
FILE_SCHEMA (( 'CONFIG_CONTROL_DESIGN' ));
ENDSEC;

DATA;
#1 = APPROVAL_DATE_TIME ( #115, #137 ) ;
#2 = DIRECTION ( 'NONE',  ( 0.000000000000000000, -1.000000000000000000, 0.000000000000000000 ) ) ;
#3 = PERSON ( 'UNSPECIFIED', 'UNSPECIFIED', 'UNSPECIFIED', ('UNSPECIFIED'), ('UNSPECIFIED'), ('UNSPECIFIED') ) ;
#4 = FACE_OUTER_BOUND ( 'NONE', #28, .T. ) ;
#5 = AXIS2_PLACEMENT_3D ( 'NONE', #49, #24, #105 ) ;
#6 = AXIS2_PLACEMENT_3D ( 'NONE', #247, #364, #367 ) ;
#7 = DIRECTION ( 'NONE',  ( -0.000000000000000000, 0.000000000000000000, -1.000000000000000000 ) ) ;
#8 = CC_DESIGN_DATE_AND_TIME_ASSIGNMENT ( #140, #309, ( #187 ) ) ;
#9 = CARTESIAN_POINT ( 'NONE',  ( 250.0000000000001705, 10.00000000000000178, 0.000000000000000000 ) ) ;
#10 = CARTESIAN_POINT ( 'NONE',  ( 238.6200000000000045, 0.000000000000000000, 0.000000000000000000 ) ) ;
#11 = EDGE_LOOP ( 'NONE', ( #102, #378, #108, #110 ) ) ;
#12 = EDGE_CURVE ( 'NONE', #29, #136, #157, .T. ) ;
#13 = FACE_OUTER_BOUND ( 'NONE', #311, .T. ) ;
#14 = CIRCLE ( 'NONE', #343, 7.500000000000007105 ) ;
#15 = AXIS2_PLACEMENT_3D ( 'NONE', #360, #357, #292 ) ;
#16 = CARTESIAN_POINT ( 'NONE',  ( 250.0000000000001705, 10.00000000000000178, 15.00000000000000000 ) ) ;
#17 = ORIENTED_EDGE ( 'NONE', *, *, #37, .T. ) ;
#18 = LINE ( 'NONE', #39, #203 ) ;
#19 = APPLICATION_PROTOCOL_DEFINITION ( 'international standard', 'config_control_design', 1994, #146 ) ;
#20 = VERTEX_POINT ( 'NONE', #314 ) ;
#21 = AXIS2_PLACEMENT_3D ( 'NONE', #296, #385, #234 ) ;
#22 = SECURITY_CLASSIFICATION_LEVEL ( 'unclassified' ) ;
#23 = DIRECTION ( 'NONE',  ( 0.000000000000000000, 0.000000000000000000, 1.000000000000000000 ) ) ;
#24 = DIRECTION ( 'NONE',  ( 0.000000000000000000, 0.000000000000000000, 1.000000000000000000 ) ) ;
#25 = EDGE_CURVE ( 'NONE', #109, #47, #185, .T. ) ;
#26 = ORIENTED_EDGE ( 'NONE', *, *, #242, .T. ) ;
#27 = CIRCLE ( 'NONE', #38, 7.500000000000007105 ) ;
#28 = EDGE_LOOP ( 'NONE', ( #112, #308, #54, #166 ) ) ;
#29 = VERTEX_POINT ( 'NONE', #284 ) ;
#30 = VERTEX_POINT ( 'NONE', #171 ) ;
#31 = PLANE ( 'NONE',  #126 ) ;
#32 = CARTESIAN_POINT ( 'NONE',  ( 231.1200000000000045, 0.000000000000000000, 0.000000000000000000 ) ) ;
#33 = MANIFOLD_SOLID_BREP ( 'Boss-Extrude1', #321 ) ;
#34 = CARTESIAN_POINT ( 'NONE',  ( -249.9999999999998295, 10.00000000000000178, 15.00000000000000000 ) ) ;
#35 = CARTESIAN_POINT ( 'NONE',  ( -249.9999999999998295, 10.00000000000000178, 0.000000000000000000 ) ) ;
#36 = FACE_BOUND ( 'NONE', #91, .T. ) ;
#37 = EDGE_CURVE ( 'NONE', #30, #229, #56, .T. ) ;
#38 = AXIS2_PLACEMENT_3D ( 'NONE', #86, #238, #240 ) ;
#39 = CARTESIAN_POINT ( 'NONE',  ( 246.1200000000000045, 9.184850993605165694E-16, 15.00000000000000000 ) ) ;
#40 = DIRECTION ( 'NONE',  ( -0.000000000000000000, -0.000000000000000000, -1.000000000000000000 ) ) ;
#41 = APPROVAL_PERSON_ORGANIZATION ( #101, #212, #252 ) ;
#42 = ORIENTED_EDGE ( 'NONE', *, *, #379, .T. ) ;
#43 = DIRECTION ( 'NONE',  ( 1.000000000000000000, 0.000000000000000000, 0.000000000000000000 ) ) ;
#44 = PERSON_AND_ORGANIZATION ( #3, #210 ) ;
#45 = EDGE_CURVE ( 'NONE', #245, #20, #167, .T. ) ;
#46 = APPROVAL_ROLE ( '' ) ;
#47 = VERTEX_POINT ( 'NONE', #253 ) ;
#48 = DIRECTION ( 'NONE',  ( 1.000000000000000000, 0.000000000000000000, 0.000000000000000000 ) ) ;
#49 = CARTESIAN_POINT ( 'NONE',  ( -238.6200000000000045, 0.000000000000000000, 15.00000000000000000 ) ) ;
#50 = ADVANCED_FACE ( 'NONE', ( #339, #73, #255 ), #194, .T. ) ;
#51 = DATE_AND_TIME ( #312, #288 ) ;
#52 = DIRECTION ( 'NONE',  ( 1.000000000000000000, 0.000000000000000000, 0.000000000000000000 ) ) ;
#53 = ORIENTED_EDGE ( 'NONE', *, *, #25, .F. ) ;
#54 = ORIENTED_EDGE ( 'NONE', *, *, #254, .F. ) ;
#55 = VECTOR ( 'NONE', #220, 1000.000000000000000 ) ;
#56 = LINE ( 'NONE', #371, #66 ) ;
#57 = SHAPE_DEFINITION_REPRESENTATION ( #74, #228 ) ;
#58 = CYLINDRICAL_SURFACE ( 'NONE', #351, 7.500000000000007105 ) ;
#59 = ADVANCED_FACE ( 'NONE', ( #4 ), #152, .F. ) ;
#60 = LINE ( 'NONE', #35, #64 ) ;
#61 = FACE_BOUND ( 'NONE', #345, .T. ) ;
#62 = FACE_OUTER_BOUND ( 'NONE', #162, .T. ) ;
#63 = DIRECTION ( 'NONE',  ( 1.000000000000000000, 0.000000000000000000, 0.000000000000000000 ) ) ;
#64 = VECTOR ( 'NONE', #2, 1000.000000000000000 ) ;
#65 = DIRECTION ( 'NONE',  ( -0.000000000000000000, 1.000000000000000000, -0.000000000000000000 ) ) ;
#66 = VECTOR ( 'NONE', #223, 1000.000000000000000 ) ;
#67 = ADVANCED_FACE ( 'NONE', ( #322 ), #320, .F. ) ;
#68 = LINE ( 'NONE', #303, #370 ) ;
#69 = ORIENTED_EDGE ( 'NONE', *, *, #114, .T. ) ;
#70 = LINE ( 'NONE', #130, #117 ) ;
#71 = AXIS2_PLACEMENT_3D ( 'NONE', #213, #383, #116 ) ;
#72 = DATE_AND_TIME ( #135, #356 ) ;
#73 = FACE_OUTER_BOUND ( 'NONE', #169, .T. ) ;
#74 = PRODUCT_DEFINITION_SHAPE ( 'NONE', 'NONE',  #187 ) ;
#75 = VERTEX_POINT ( 'NONE', #267 ) ;
#76 = CC_DESIGN_PERSON_AND_ORGANIZATION_ASSIGNMENT ( #250, #344, ( #341 ) ) ;
#77 = ORIENTED_EDGE ( 'NONE', *, *, #173, .F. ) ;
#78 = COORDINATED_UNIVERSAL_TIME_OFFSET ( 5, 30, .AHEAD. ) ;
#79 = ORIENTED_EDGE ( 'NONE', *, *, #239, .F. ) ;
#80 = ORIENTED_EDGE ( 'NONE', *, *, #379, .F. ) ;
#81 = VECTOR ( 'NONE', #264, 1000.000000000000000 ) ;
#82 = APPROVAL ( #347, 'UNSPECIFIED' ) ;
#83 = CALENDAR_DATE ( 2026, 21, 9 ) ;
#84 = CARTESIAN_POINT ( 'NONE',  ( -249.9999999999998295, -9.999999999999998224, 0.000000000000000000 ) ) ;
#85 = CARTESIAN_POINT ( 'NONE',  ( 250.0000000000001705, 10.00000000000000178, 15.00000000000000000 ) ) ;
#86 = CARTESIAN_POINT ( 'NONE',  ( -238.6200000000000045, 0.000000000000000000, 15.00000000000000000 ) ) ;
#87 = VECTOR ( 'NONE', #205, 1000.000000000000000 ) ;
#88 = DIRECTION ( 'NONE',  ( 0.000000000000000000, -1.000000000000000000, 0.000000000000000000 ) ) ;
#89 = DIRECTION ( 'NONE',  ( 1.000000000000000000, 0.000000000000000000, 0.000000000000000000 ) ) ;
#90 = LINE ( 'NONE', #159, #384 ) ;
#91 = EDGE_LOOP ( 'NONE', ( #289, #251 ) ) ;
#92 = CARTESIAN_POINT ( 'NONE',  ( -249.9999999999998295, -9.999999999999998224, 15.00000000000000000 ) ) ;
#93 = EDGE_LOOP ( 'NONE', ( #204, #287 ) ) ;
#94 = CARTESIAN_POINT ( 'NONE',  ( 231.1200000000000045, 0.000000000000000000, 15.00000000000000000 ) ) ;
#95 = LINE ( 'NONE', #246, #219 ) ;
#96 = VERTEX_POINT ( 'NONE', #84 ) ;
#97 = EDGE_CURVE ( 'NONE', #196, #96, #60, .T. ) ;
#98 = AXIS2_PLACEMENT_3D ( 'NONE', #225, #342, #269 ) ;
#99 = DIRECTION ( 'NONE',  ( -0.000000000000000000, -0.000000000000000000, -1.000000000000000000 ) ) ;
#100 = AXIS2_PLACEMENT_3D ( 'NONE', #361, #295, #89 ) ;
#101 = PERSON_AND_ORGANIZATION ( #3, #210 ) ;
#102 = ORIENTED_EDGE ( 'NONE', *, *, #285, .F. ) ;
#103 = UNCERTAINTY_MEASURE_WITH_UNIT (LENGTH_MEASURE( 1.000000000000000082E-05 ), #156, 'distance_accuracy_value', 'NONE');
#104 = PERSON_AND_ORGANIZATION ( #3, #210 ) ;
#105 = DIRECTION ( 'NONE',  ( 1.000000000000000000, 0.000000000000000000, 0.000000000000000000 ) ) ;
#106 = COORDINATED_UNIVERSAL_TIME_OFFSET ( 5, 30, .AHEAD. ) ;
#107 =( GEOMETRIC_REPRESENTATION_CONTEXT ( 3 ) GLOBAL_UNCERTAINTY_ASSIGNED_CONTEXT ( ( #103 ) ) GLOBAL_UNIT_ASSIGNED_CONTEXT ( ( #156, #186, #193 ) ) REPRESENTATION_CONTEXT ( 'NONE', 'WORKASPACE' ) );
#108 = ORIENTED_EDGE ( 'NONE', *, *, #272, .T. ) ;
#109 = VERTEX_POINT ( 'NONE', #32 ) ;
#110 = ORIENTED_EDGE ( 'NONE', *, *, #355, .F. ) ;
#111 = PERSON_AND_ORGANIZATION ( #3, #210 ) ;
#112 = ORIENTED_EDGE ( 'NONE', *, *, #149, .T. ) ;
#113 = ORIENTED_EDGE ( 'NONE', *, *, #45, .T. ) ;
#114 = EDGE_CURVE ( 'NONE', #261, #30, #291, .T. ) ;
#115 = DATE_AND_TIME ( #83, #302 ) ;
#116 = DIRECTION ( 'NONE',  ( 1.000000000000000000, 0.000000000000000000, 0.000000000000000000 ) ) ;
#117 = VECTOR ( 'NONE', #40, 1000.000000000000000 ) ;
#118 = AXIS2_PLACEMENT_3D ( 'NONE', #198, #23, #52 ) ;
#119 = CARTESIAN_POINT ( 'NONE',  ( 246.1200000000000045, 9.184850993605173582E-16, 15.00000000000000000 ) ) ;
#120 = CYLINDRICAL_SURFACE ( 'NONE', #270, 7.500000000000007105 ) ;
#121 = FACE_OUTER_BOUND ( 'NONE', #281, .T. ) ;
#122 = APPROVAL_PERSON_ORGANIZATION ( #337, #82, #46 ) ;
#123 = CARTESIAN_POINT ( 'NONE',  ( -249.9999999999998295, 10.00000000000000178, 15.00000000000000000 ) ) ;
#124 = LINE ( 'NONE', #331, #142 ) ;
#125 = ADVANCED_FACE ( 'NONE', ( #148 ), #147, .F. ) ;
#126 = AXIS2_PLACEMENT_3D ( 'NONE', #182, #153, #293 ) ;
#127 = LINE ( 'NONE', #94, #305 ) ;
#128 = ORIENTED_EDGE ( 'NONE', *, *, #149, .F. ) ;
#129 = CARTESIAN_POINT ( 'NONE',  ( -249.9999999999998295, -9.999999999999998224, 0.000000000000000000 ) ) ;
#130 = CARTESIAN_POINT ( 'NONE',  ( -249.9999999999998295, -9.999999999999998224, 15.00000000000000000 ) ) ;
#131 = PERSON_AND_ORGANIZATION_ROLE ( 'design_supplier' ) ;
#132 = VECTOR ( 'NONE', #65, 1000.000000000000000 ) ;
#133 = ORIENTED_EDGE ( 'NONE', *, *, #323, .F. ) ;
#134 = ADVANCED_FACE ( 'NONE', ( #62 ), #120, .F. ) ;
#135 = CALENDAR_DATE ( 2026, 21, 9 ) ;
#136 = VERTEX_POINT ( 'NONE', #119 ) ;
#137 = APPROVAL ( #319, 'UNSPECIFIED' ) ;
#138 = VERTEX_POINT ( 'NONE', #34 ) ;
#139 = CC_DESIGN_APPROVAL ( #137, ( #382 ) ) ;
#140 = DATE_AND_TIME ( #168, #358 ) ;
#141 = EDGE_LOOP ( 'NONE', ( #128, #336 ) ) ;
#142 = VECTOR ( 'NONE', #214, 1000.000000000000000 ) ;
#143 = EDGE_LOOP ( 'NONE', ( #304, #278, #192, #315 ) ) ;
#144 = VERTEX_POINT ( 'NONE', #85 ) ;
#145 = EDGE_LOOP ( 'NONE', ( #381, #77, #201, #17 ) ) ;
#146 = APPLICATION_CONTEXT ( 'configuration controlled 3d designs of mechanical parts and assemblies' ) ;
#147 = PLANE ( 'NONE',  #21 ) ;
#148 = FACE_OUTER_BOUND ( 'NONE', #143, .T. ) ;
#149 = EDGE_CURVE ( 'NONE', #20, #245, #27, .T. ) ;
#150 = COORDINATED_UNIVERSAL_TIME_OFFSET ( 5, 30, .AHEAD. ) ;
#151 = DIRECTION ( 'NONE',  ( 0.000000000000000000, -1.000000000000000000, 0.000000000000000000 ) ) ;
#152 = CYLINDRICAL_SURFACE ( 'NONE', #15, 7.500000000000007105 ) ;
#153 = DIRECTION ( 'NONE',  ( -0.000000000000000000, 0.000000000000000000, 1.000000000000000000 ) ) ;
#154 = DIRECTION ( 'NONE',  ( -1.000000000000000000, -0.000000000000000000, -0.000000000000000000 ) ) ;
#155 = ADVANCED_FACE ( 'NONE', ( #121 ), #236, .F. ) ;
#156 =( LENGTH_UNIT ( ) NAMED_UNIT ( * ) SI_UNIT ( .MILLI., .METRE. ) );
#157 = CIRCLE ( 'NONE', #373, 7.500000000000007105 ) ;
#158 = CARTESIAN_POINT ( 'NONE',  ( -246.1200000000000045, 0.000000000000000000, 0.000000000000000000 ) ) ;
#159 = CARTESIAN_POINT ( 'NONE',  ( -249.9999999999998295, 10.00000000000000178, 15.00000000000000000 ) ) ;
#160 = ORIENTED_EDGE ( 'NONE', *, *, #173, .T. ) ;
#161 = DIRECTION ( 'NONE',  ( -0.000000000000000000, -0.000000000000000000, -1.000000000000000000 ) ) ;
#162 = EDGE_LOOP ( 'NONE', ( #374, #258, #53, #202 ) ) ;
#163 = PERSON_AND_ORGANIZATION_ROLE ( 'classification_officer' ) ;
#164 = PERSON_AND_ORGANIZATION_ROLE ( 'creator' ) ;
#165 = VECTOR ( 'NONE', #190, 1000.000000000000000 ) ;
#166 = ORIENTED_EDGE ( 'NONE', *, *, #333, .F. ) ;
#167 = CIRCLE ( 'NONE', #5, 7.500000000000007105 ) ;
#168 = CALENDAR_DATE ( 2026, 21, 9 ) ;
#169 = EDGE_LOOP ( 'NONE', ( #348, #265, #227, #69 ) ) ;
#170 = PERSON_AND_ORGANIZATION ( #3, #210 ) ;
#171 = CARTESIAN_POINT ( 'NONE',  ( 250.0000000000001705, -9.999999999999998224, 15.00000000000000000 ) ) ;
#172 = CALENDAR_DATE ( 2026, 21, 9 ) ;
#173 = EDGE_CURVE ( 'NONE', #144, #359, #354, .T. ) ;
#174 = CC_DESIGN_APPROVAL ( #82, ( #189 ) ) ;
#175 = CARTESIAN_POINT ( 'NONE',  ( 238.6200000000000045, 0.000000000000000000, 15.00000000000000000 ) ) ;
#176 = CARTESIAN_POINT ( 'NONE',  ( -249.9999999999998295, 10.00000000000000178, 15.00000000000000000 ) ) ;
#177 = CARTESIAN_POINT ( 'NONE',  ( 238.6200000000000045, 0.000000000000000000, 15.00000000000000000 ) ) ;
#178 = ADVANCED_FACE ( 'NONE', ( #207, #61, #36 ), #31, .F. ) ;
#179 = CARTESIAN_POINT ( 'NONE',  ( 250.0000000000001705, 10.00000000000000178, 15.00000000000000000 ) ) ;
#180 = AXIS2_PLACEMENT_3D ( 'NONE', #176, #88, #327 ) ;
#181 = CARTESIAN_POINT ( 'NONE',  ( -249.9999999999998295, 10.00000000000000178, 0.000000000000000000 ) ) ;
#182 = CARTESIAN_POINT ( 'NONE',  ( 0.000000000000000000, 0.000000000000000000, 0.000000000000000000 ) ) ;
#183 = LINE ( 'NONE', #241, #55 ) ;
#184 = VECTOR ( 'NONE', #63, 1000.000000000000000 ) ;
#185 = CIRCLE ( 'NONE', #118, 7.500000000000007105 ) ;
#186 =( NAMED_UNIT ( * ) PLANE_ANGLE_UNIT ( ) SI_UNIT ( $, .RADIAN. ) );
#187 = PRODUCT_DEFINITION ( 'UNKNOWN', '', #189, #199 ) ;
#188 = FACE_OUTER_BOUND ( 'NONE', #145, .T. ) ;
#189 = PRODUCT_DEFINITION_FORMATION_WITH_SPECIFIED_SOURCE ( 'ANY', '', #341, .NOT_KNOWN. ) ;
#190 = DIRECTION ( 'NONE',  ( -0.000000000000000000, -0.000000000000000000, -1.000000000000000000 ) ) ;
#191 = PERSON_AND_ORGANIZATION ( #3, #210 ) ;
#192 = ORIENTED_EDGE ( 'NONE', *, *, #114, .F. ) ;
#193 =( NAMED_UNIT ( * ) SI_UNIT ( $, .STERADIAN. ) SOLID_ANGLE_UNIT ( ) );
#194 = PLANE ( 'NONE',  #98 ) ;
#195 = EDGE_CURVE ( 'NONE', #138, #261, #262, .T. ) ;
#196 = VERTEX_POINT ( 'NONE', #181 ) ;
#197 = APPROVAL_STATUS ( 'not_yet_approved' ) ;
#198 = CARTESIAN_POINT ( 'NONE',  ( 238.6200000000000045, 0.000000000000000000, 0.000000000000000000 ) ) ;
#199 = DESIGN_CONTEXT ( 'detailed design', #146, 'design' ) ;
#200 = CARTESIAN_POINT ( 'NONE',  ( 0.000000000000000000, 0.000000000000000000, 0.000000000000000000 ) ) ;
#201 = ORIENTED_EDGE ( 'NONE', *, *, #294, .F. ) ;
#202 = ORIENTED_EDGE ( 'NONE', *, *, #272, .F. ) ;
#203 = VECTOR ( 'NONE', #217, 1000.000000000000000 ) ;
#204 = ORIENTED_EDGE ( 'NONE', *, *, #12, .F. ) ;
#205 = DIRECTION ( 'NONE',  ( -0.000000000000000000, -0.000000000000000000, -1.000000000000000000 ) ) ;
#206 = EDGE_CURVE ( 'NONE', #75, #301, #298, .T. ) ;
#207 = FACE_OUTER_BOUND ( 'NONE', #375, .T. ) ;
#208 = CC_DESIGN_DATE_AND_TIME_ASSIGNMENT ( #72, #372, ( #382 ) ) ;
#209 = CARTESIAN_POINT ( 'NONE',  ( 238.6200000000000045, 0.000000000000000000, 15.00000000000000000 ) ) ;
#210 = ORGANIZATION ( 'UNSPECIFIED', 'UNSPECIFIED', '' ) ;
#211 = DIRECTION ( 'NONE',  ( -1.000000000000000000, 0.000000000000000000, 0.000000000000000000 ) ) ;
#212 = APPROVAL ( #197, 'UNSPECIFIED' ) ;
#213 = CARTESIAN_POINT ( 'NONE',  ( 238.6200000000000045, 0.000000000000000000, 15.00000000000000000 ) ) ;
#214 = DIRECTION ( 'NONE',  ( -0.000000000000000000, -0.000000000000000000, -1.000000000000000000 ) ) ;
#215 = CARTESIAN_POINT ( 'NONE',  ( 250.0000000000001705, 10.00000000000000178, 15.00000000000000000 ) ) ;
#216 = EDGE_CURVE ( 'NONE', #136, #29, #233, .T. ) ;
#217 = DIRECTION ( 'NONE',  ( -0.000000000000000000, -0.000000000000000000, -1.000000000000000000 ) ) ;
#218 = DIRECTION ( 'NONE',  ( -1.000000000000000000, 0.000000000000000000, 0.000000000000000000 ) ) ;
#219 = VECTOR ( 'NONE', #276, 1000.000000000000000 ) ;
#220 = DIRECTION ( 'NONE',  ( -0.000000000000000000, -0.000000000000000000, -1.000000000000000000 ) ) ;
#221 = ADVANCED_FACE ( 'NONE', ( #353 ), #58, .F. ) ;
#222 = COORDINATED_UNIVERSAL_TIME_OFFSET ( 5, 30, .AHEAD. ) ;
#223 = DIRECTION ( 'NONE',  ( -0.000000000000000000, -0.000000000000000000, -1.000000000000000000 ) ) ;
#224 = MECHANICAL_CONTEXT ( 'NONE', #274, 'mechanical' ) ;
#225 = CARTESIAN_POINT ( 'NONE',  ( 0.000000000000000000, 0.000000000000000000, 15.00000000000000000 ) ) ;
#226 = DIRECTION ( 'NONE',  ( 0.000000000000000000, 0.000000000000000000, 1.000000000000000000 ) ) ;
#227 = ORIENTED_EDGE ( 'NONE', *, *, #195, .T. ) ;
#228 = ADVANCED_BREP_SHAPE_REPRESENTATION ( 'g_Default_sldprt', ( #33, #376 ), #107 ) ;
#229 = VERTEX_POINT ( 'NONE', #362 ) ;
#230 = PRODUCT_RELATED_PRODUCT_CATEGORY ( 'detail', '', ( #341 ) ) ;
#231 = ORIENTED_EDGE ( 'NONE', *, *, #329, .F. ) ;
#232 = ORIENTED_EDGE ( 'NONE', *, *, #206, .T. ) ;
#233 = CIRCLE ( 'NONE', #71, 7.500000000000007105 ) ;
#234 = DIRECTION ( 'NONE',  ( 0.000000000000000000, -0.000000000000000000, 1.000000000000000000 ) ) ;
#235 = CC_DESIGN_PERSON_AND_ORGANIZATION_ASSIGNMENT ( #191, #131, ( #189 ) ) ;
#236 = PLANE ( 'NONE',  #317 ) ;
#237 = DIRECTION ( 'NONE',  ( -0.000000000000000000, -0.000000000000000000, -1.000000000000000000 ) ) ;
#238 = DIRECTION ( 'NONE',  ( 0.000000000000000000, 0.000000000000000000, 1.000000000000000000 ) ) ;
#239 = EDGE_CURVE ( 'NONE', #96, #229, #365, .T. ) ;
#240 = DIRECTION ( 'NONE',  ( 1.000000000000000000, 0.000000000000000000, 0.000000000000000000 ) ) ;
#241 = CARTESIAN_POINT ( 'NONE',  ( -231.1200000000000045, 9.184850993605165694E-16, 15.00000000000000000 ) ) ;
#242 = EDGE_CURVE ( 'NONE', #359, #196, #95, .T. ) ;
#243 = DIRECTION ( 'NONE',  ( -1.000000000000000000, 0.000000000000000000, 0.000000000000000000 ) ) ;
#244 = PLANE ( 'NONE',  #324 ) ;
#245 = VERTEX_POINT ( 'NONE', #369 ) ;
#246 = CARTESIAN_POINT ( 'NONE',  ( -249.9999999999998295, 10.00000000000000178, 0.000000000000000000 ) ) ;
#247 = CARTESIAN_POINT ( 'NONE',  ( -238.6200000000000045, 0.000000000000000000, 0.000000000000000000 ) ) ;
#248 = EDGE_CURVE ( 'NONE', #245, #75, #183, .T. ) ;
#249 = VECTOR ( 'NONE', #151, 1000.000000000000000 ) ;
#250 = PERSON_AND_ORGANIZATION ( #3, #210 ) ;
#251 = ORIENTED_EDGE ( 'NONE', *, *, #355, .T. ) ;
#252 = APPROVAL_ROLE ( '' ) ;
#253 = CARTESIAN_POINT ( 'NONE',  ( 246.1200000000000045, 9.184850993605173582E-16, 0.000000000000000000 ) ) ;
#254 = EDGE_CURVE ( 'NONE', #301, #75, #282, .T. ) ;
#255 = FACE_BOUND ( 'NONE', #93, .T. ) ;
#256 = CC_DESIGN_APPROVAL ( #212, ( #187 ) ) ;
#257 = APPLICATION_PROTOCOL_DEFINITION ( 'international standard', 'config_control_design', 1994, #274 ) ;
#258 = ORIENTED_EDGE ( 'NONE', *, *, #285, .T. ) ;
#259 = APPROVAL_DATE_TIME ( #51, #212 ) ;
#260 = ORIENTED_EDGE ( 'NONE', *, *, #242, .F. ) ;
#261 = VERTEX_POINT ( 'NONE', #92 ) ;
#262 = LINE ( 'NONE', #123, #249 ) ;
#263 = CC_DESIGN_PERSON_AND_ORGANIZATION_ASSIGNMENT ( #111, #283, ( #189 ) ) ;
#264 = DIRECTION ( 'NONE',  ( 1.000000000000000000, 0.000000000000000000, 0.000000000000000000 ) ) ;
#265 = ORIENTED_EDGE ( 'NONE', *, *, #349, .T. ) ;
#266 = CARTESIAN_POINT ( 'NONE',  ( -249.9999999999998295, -9.999999999999998224, 15.00000000000000000 ) ) ;
#267 = CARTESIAN_POINT ( 'NONE',  ( -231.1200000000000045, 9.184850993605173582E-16, 0.000000000000000000 ) ) ;
#268 = ADVANCED_FACE ( 'NONE', ( #13 ), #328, .F. ) ;
#269 = DIRECTION ( 'NONE',  ( 1.000000000000000000, 0.000000000000000000, 0.000000000000000000 ) ) ;
#270 = AXIS2_PLACEMENT_3D ( 'NONE', #209, #237, #211 ) ;
#271 = DIRECTION ( 'NONE',  ( 0.000000000000000000, 0.000000000000000000, 1.000000000000000000 ) ) ;
#272 = EDGE_CURVE ( 'NONE', #29, #109, #127, .T. ) ;
#273 = DIRECTION ( 'NONE',  ( -0.000000000000000000, 1.000000000000000000, -0.000000000000000000 ) ) ;
#274 = APPLICATION_CONTEXT ( 'configuration controlled 3d designs of mechanical parts and assemblies' ) ;
#275 = DIRECTION ( 'NONE',  ( -0.000000000000000000, -0.000000000000000000, -1.000000000000000000 ) ) ;
#276 = DIRECTION ( 'NONE',  ( -1.000000000000000000, -0.000000000000000000, -0.000000000000000000 ) ) ;
#277 = LINE ( 'NONE', #297, #165 ) ;
#278 = ORIENTED_EDGE ( 'NONE', *, *, #37, .F. ) ;
#279 = CC_DESIGN_PERSON_AND_ORGANIZATION_ASSIGNMENT ( #170, #164, ( #187 ) ) ;
#280 = COORDINATED_UNIVERSAL_TIME_OFFSET ( 5, 30, .AHEAD. ) ;
#281 = EDGE_LOOP ( 'NONE', ( #286, #231, #377, #42 ) ) ;
#282 = CIRCLE ( 'NONE', #6, 7.500000000000007105 ) ;
#283 = PERSON_AND_ORGANIZATION_ROLE ( 'creator' ) ;
#284 = CARTESIAN_POINT ( 'NONE',  ( 231.1200000000000045, 0.000000000000000000, 15.00000000000000000 ) ) ;
#285 = EDGE_CURVE ( 'NONE', #136, #47, #18, .T. ) ;
#286 = ORIENTED_EDGE ( 'NONE', *, *, #97, .T. ) ;
#287 = ORIENTED_EDGE ( 'NONE', *, *, #216, .F. ) ;
#288 = LOCAL_TIME ( 22, 52, 21.00000000000000000, #106 ) ;
#289 = ORIENTED_EDGE ( 'NONE', *, *, #25, .T. ) ;
#290 = DIRECTION ( 'NONE',  ( 0.000000000000000000, 0.000000000000000000, 1.000000000000000000 ) ) ;
#291 = LINE ( 'NONE', #266, #81 ) ;
#292 = DIRECTION ( 'NONE',  ( -1.000000000000000000, 0.000000000000000000, 0.000000000000000000 ) ) ;
#293 = DIRECTION ( 'NONE',  ( 1.000000000000000000, 0.000000000000000000, 0.000000000000000000 ) ) ;
#294 = EDGE_CURVE ( 'NONE', #30, #144, #334, .T. ) ;
#295 = DIRECTION ( 'NONE',  ( 0.000000000000000000, 0.000000000000000000, 1.000000000000000000 ) ) ;
#296 = CARTESIAN_POINT ( 'NONE',  ( -249.9999999999998295, -9.999999999999998224, 15.00000000000000000 ) ) ;
#297 = CARTESIAN_POINT ( 'NONE',  ( -246.1200000000000045, 0.000000000000000000, 15.00000000000000000 ) ) ;
#298 = CIRCLE ( 'NONE', #100, 7.500000000000007105 ) ;
#299 = CARTESIAN_POINT ( 'NONE',  ( -238.6200000000000045, 0.000000000000000000, 15.00000000000000000 ) ) ;
#300 = ADVANCED_FACE ( 'NONE', ( #188 ), #244, .F. ) ;
#301 = VERTEX_POINT ( 'NONE', #158 ) ;
#302 = LOCAL_TIME ( 22, 52, 21.00000000000000000, #150 ) ;
#303 = CARTESIAN_POINT ( 'NONE',  ( 250.0000000000001705, 10.00000000000000178, 0.000000000000000000 ) ) ;
#304 = ORIENTED_EDGE ( 'NONE', *, *, #239, .T. ) ;
#305 = VECTOR ( 'NONE', #275, 1000.000000000000000 ) ;
#306 = DIRECTION ( 'NONE',  ( 0.000000000000000000, 0.000000000000000000, 1.000000000000000000 ) ) ;
#307 = APPROVAL_DATE_TIME ( #380, #82 ) ;
#308 = ORIENTED_EDGE ( 'NONE', *, *, #248, .T. ) ;
#309 = DATE_TIME_ROLE ( 'creation_date' ) ;
#310 = ORIENTED_EDGE ( 'NONE', *, *, #254, .T. ) ;
#311 = EDGE_LOOP ( 'NONE', ( #350, #113, #366, #316 ) ) ;
#312 = CALENDAR_DATE ( 2026, 21, 9 ) ;
#313 = ORIENTED_EDGE ( 'NONE', *, *, #349, .F. ) ;
#314 = CARTESIAN_POINT ( 'NONE',  ( -246.1200000000000045, 0.000000000000000000, 15.00000000000000000 ) ) ;
#315 = ORIENTED_EDGE ( 'NONE', *, *, #329, .T. ) ;
#316 = ORIENTED_EDGE ( 'NONE', *, *, #206, .F. ) ;
#317 = AXIS2_PLACEMENT_3D ( 'NONE', #325, #326, #7 ) ;
#318 = DIRECTION ( 'NONE',  ( 1.000000000000000000, 0.000000000000000000, 0.000000000000000000 ) ) ;
#319 = APPROVAL_STATUS ( 'not_yet_approved' ) ;
#320 = PLANE ( 'NONE',  #180 ) ;
#321 = CLOSED_SHELL ( 'NONE', ( #134, #59, #50, #178, #300, #67, #155, #125, #268, #221 ) ) ;
#322 = FACE_OUTER_BOUND ( 'NONE', #346, .T. ) ;
#323 = EDGE_CURVE ( 'NONE', #229, #359, #68, .T. ) ;
#324 = AXIS2_PLACEMENT_3D ( 'NONE', #16, #332, #271 ) ;
#325 = CARTESIAN_POINT ( 'NONE',  ( -249.9999999999998295, 10.00000000000000178, 15.00000000000000000 ) ) ;
#326 = DIRECTION ( 'NONE',  ( 1.000000000000000000, 0.000000000000000000, -0.000000000000000000 ) ) ;
#327 = DIRECTION ( 'NONE',  ( 0.000000000000000000, -0.000000000000000000, -1.000000000000000000 ) ) ;
#328 = CYLINDRICAL_SURFACE ( 'NONE', #330, 7.500000000000007105 ) ;
#329 = EDGE_CURVE ( 'NONE', #261, #96, #70, .T. ) ;
#330 = AXIS2_PLACEMENT_3D ( 'NONE', #299, #99, #218 ) ;
#331 = CARTESIAN_POINT ( 'NONE',  ( -249.9999999999998295, 10.00000000000000178, 15.00000000000000000 ) ) ;
#332 = DIRECTION ( 'NONE',  ( -1.000000000000000000, 0.000000000000000000, 0.000000000000000000 ) ) ;
#333 = EDGE_CURVE ( 'NONE', #20, #301, #277, .T. ) ;
#334 = LINE ( 'NONE', #215, #132 ) ;
#335 = LOCAL_TIME ( 22, 52, 21.00000000000000000, #78 ) ;
#336 = ORIENTED_EDGE ( 'NONE', *, *, #45, .F. ) ;
#337 = PERSON_AND_ORGANIZATION ( #3, #210 ) ;
#338 = CC_DESIGN_PERSON_AND_ORGANIZATION_ASSIGNMENT ( #44, #163, ( #382 ) ) ;
#339 = FACE_BOUND ( 'NONE', #141, .T. ) ;
#340 = APPROVAL_PERSON_ORGANIZATION ( #104, #137, #352 ) ;
#341 = PRODUCT ( 'g_Default_sldprt', 'g_Default_sldprt', '', ( #224 ) ) ;
#342 = DIRECTION ( 'NONE',  ( -0.000000000000000000, 0.000000000000000000, 1.000000000000000000 ) ) ;
#343 = AXIS2_PLACEMENT_3D ( 'NONE', #10, #306, #43 ) ;
#344 = PERSON_AND_ORGANIZATION_ROLE ( 'design_owner' ) ;
#345 = EDGE_LOOP ( 'NONE', ( #310, #232 ) ) ;
#346 = EDGE_LOOP ( 'NONE', ( #26, #80, #313, #160 ) ) ;
#347 = APPROVAL_STATUS ( 'not_yet_approved' ) ;
#348 = ORIENTED_EDGE ( 'NONE', *, *, #294, .T. ) ;
#349 = EDGE_CURVE ( 'NONE', #144, #138, #90, .T. ) ;
#350 = ORIENTED_EDGE ( 'NONE', *, *, #248, .F. ) ;
#351 = AXIS2_PLACEMENT_3D ( 'NONE', #177, #161, #243 ) ;
#352 = APPROVAL_ROLE ( '' ) ;
#353 = FACE_OUTER_BOUND ( 'NONE', #11, .T. ) ;
#354 = LINE ( 'NONE', #179, #87 ) ;
#355 = EDGE_CURVE ( 'NONE', #47, #109, #14, .T. ) ;
#356 = LOCAL_TIME ( 22, 52, 21.00000000000000000, #280 ) ;
#357 = DIRECTION ( 'NONE',  ( -0.000000000000000000, -0.000000000000000000, -1.000000000000000000 ) ) ;
#358 = LOCAL_TIME ( 22, 52, 21.00000000000000000, #222 ) ;
#359 = VERTEX_POINT ( 'NONE', #9 ) ;
#360 = CARTESIAN_POINT ( 'NONE',  ( -238.6200000000000045, 0.000000000000000000, 15.00000000000000000 ) ) ;
#361 = CARTESIAN_POINT ( 'NONE',  ( -238.6200000000000045, 0.000000000000000000, 0.000000000000000000 ) ) ;
#362 = CARTESIAN_POINT ( 'NONE',  ( 250.0000000000001705, -9.999999999999998224, 0.000000000000000000 ) ) ;
#363 = ORIENTED_EDGE ( 'NONE', *, *, #97, .F. ) ;
#364 = DIRECTION ( 'NONE',  ( 0.000000000000000000, 0.000000000000000000, 1.000000000000000000 ) ) ;
#365 = LINE ( 'NONE', #129, #184 ) ;
#366 = ORIENTED_EDGE ( 'NONE', *, *, #333, .T. ) ;
#367 = DIRECTION ( 'NONE',  ( 1.000000000000000000, 0.000000000000000000, 0.000000000000000000 ) ) ;
#368 = CC_DESIGN_SECURITY_CLASSIFICATION ( #382, ( #189 ) ) ;
#369 = CARTESIAN_POINT ( 'NONE',  ( -231.1200000000000045, 9.184850993605173582E-16, 15.00000000000000000 ) ) ;
#370 = VECTOR ( 'NONE', #273, 1000.000000000000000 ) ;
#371 = CARTESIAN_POINT ( 'NONE',  ( 250.0000000000001705, -9.999999999999998224, 15.00000000000000000 ) ) ;
#372 = DATE_TIME_ROLE ( 'classification_date' ) ;
#373 = AXIS2_PLACEMENT_3D ( 'NONE', #175, #290, #318 ) ;
#374 = ORIENTED_EDGE ( 'NONE', *, *, #12, .T. ) ;
#375 = EDGE_LOOP ( 'NONE', ( #133, #79, #363, #260 ) ) ;
#376 = AXIS2_PLACEMENT_3D ( 'NONE', #200, #226, #48 ) ;
#377 = ORIENTED_EDGE ( 'NONE', *, *, #195, .F. ) ;
#378 = ORIENTED_EDGE ( 'NONE', *, *, #216, .T. ) ;
#379 = EDGE_CURVE ( 'NONE', #138, #196, #124, .T. ) ;
#380 = DATE_AND_TIME ( #172, #335 ) ;
#381 = ORIENTED_EDGE ( 'NONE', *, *, #323, .T. ) ;
#382 = SECURITY_CLASSIFICATION ( '', '', #22 ) ;
#383 = DIRECTION ( 'NONE',  ( 0.000000000000000000, 0.000000000000000000, 1.000000000000000000 ) ) ;
#384 = VECTOR ( 'NONE', #154, 1000.000000000000000 ) ;
#385 = DIRECTION ( 'NONE',  ( 0.000000000000000000, 1.000000000000000000, 0.000000000000000000 ) ) ;
ENDSEC;
END-ISO-10303-21;
