ISO-10303-21;
HEADER;
FILE_DESCRIPTION (( 'STEP AP203' ),
    '1' );
FILE_NAME ('h_Default_sldprt.STEP',
    '2026-09-21T17:22:22',
    ( '' ),
    ( '' ),
    'SwSTEP 2.0',
    'SolidWorks 2021',
    '' );
FILE_SCHEMA (( 'CONFIG_CONTROL_DESIGN' ));
ENDSEC;

DATA;
#1 = DIRECTION ( 'NONE',  ( 1.000000000000000000, 0.000000000000000000, 0.000000000000000000 ) ) ;
#2 = DIRECTION ( 'NONE',  ( 0.000000000000000000, 0.000000000000000000, 1.000000000000000000 ) ) ;
#3 = PRODUCT_DEFINITION_SHAPE ( 'NONE', 'NONE',  #424 ) ;
#4 = FACE_OUTER_BOUND ( 'NONE', #287, .T. ) ;
#5 = CARTESIAN_POINT ( 'NONE',  ( 0.000000000000000000, 0.000000000000000000, 0.000000000000000000 ) ) ;
#6 =( NAMED_UNIT ( * ) PLANE_ANGLE_UNIT ( ) SI_UNIT ( $, .RADIAN. ) );
#7 = CARTESIAN_POINT ( 'NONE',  ( 338.5000000000000000, 0.000000000000000000, 12.50000000000000000 ) ) ;
#8 = CIRCLE ( 'NONE', #289, 12.00000000000001066 ) ;
#9 = VECTOR ( 'NONE', #415, 1000.000000000000000 ) ;
#10 = DIRECTION ( 'NONE',  ( 0.000000000000000000, -1.000000000000000000, 0.000000000000000000 ) ) ;
#11 = DIRECTION ( 'NONE',  ( 1.000000000000000000, 0.000000000000000000, 0.000000000000000000 ) ) ;
#12 = EDGE_CURVE ( 'NONE', #160, #412, #446, .T. ) ;
#13 = APPLICATION_CONTEXT ( 'configuration controlled 3d designs of mechanical parts and assemblies' ) ;
#14 = CARTESIAN_POINT ( 'NONE',  ( 346.0000000000000568, 9.184850993605173582E-16, 12.50000000000000000 ) ) ;
#15 = VERTEX_POINT ( 'NONE', #100 ) ;
#16 = AXIS2_PLACEMENT_3D ( 'NONE', #138, #270, #418 ) ;
#17 = CARTESIAN_POINT ( 'NONE',  ( -346.4999999999998295, -0.5000000000000073275, 12.50000000000000000 ) ) ;
#18 = CARTESIAN_POINT ( 'NONE',  ( -358.4999999999998295, 12.49999999999999289, 12.50000000000000000 ) ) ;
#19 = AXIS2_PLACEMENT_3D ( 'NONE', #178, #278, #284 ) ;
#20 = FACE_OUTER_BOUND ( 'NONE', #428, .T. ) ;
#21 = DIRECTION ( 'NONE',  ( 1.000000000000000000, 0.000000000000000000, 0.000000000000000000 ) ) ;
#22 = EDGE_LOOP ( 'NONE', ( #206, #431, #448, #140 ) ) ;
#23 = DIRECTION ( 'NONE',  ( 0.000000000000000000, 0.000000000000000000, 1.000000000000000000 ) ) ;
#24 = ORIENTED_EDGE ( 'NONE', *, *, #341, .T. ) ;
#25 = AXIS2_PLACEMENT_3D ( 'NONE', #180, #312, #1 ) ;
#26 = EDGE_LOOP ( 'NONE', ( #361, #371, #198, #254 ) ) ;
#27 = VERTEX_POINT ( 'NONE', #237 ) ;
#28 = CC_DESIGN_PERSON_AND_ORGANIZATION_ASSIGNMENT ( #280, #43, ( #75 ) ) ;
#29 = ORIENTED_EDGE ( 'NONE', *, *, #113, .F. ) ;
#30 = CLOSED_SHELL ( 'NONE', ( #274, #94, #225, #109, #266, #33, #346, #271, #249, #125, #49, #318 ) ) ;
#31 = AXIS2_PLACEMENT_3D ( 'NONE', #85, #46, #432 ) ;
#32 = ORIENTED_EDGE ( 'NONE', *, *, #381, .T. ) ;
#33 = ADVANCED_FACE ( 'NONE', ( #302 ), #337, .F. ) ;
#34 = LINE ( 'NONE', #380, #374 ) ;
#35 = CARTESIAN_POINT ( 'NONE',  ( -358.4999999999998295, 0.4999999999999935052, 12.50000000000000000 ) ) ;
#36 = CARTESIAN_POINT ( 'NONE',  ( -358.4999999999998295, 12.49999999999999289, 25.00000000000000000 ) ) ;
#37 = CARTESIAN_POINT ( 'NONE',  ( -358.4999999999998295, -12.50000000000000711, 12.50000000000000000 ) ) ;
#38 = SECURITY_CLASSIFICATION ( '', '', #236 ) ;
#39 = APPLICATION_PROTOCOL_DEFINITION ( 'international standard', 'config_control_design', 1994, #440 ) ;
#40 = FACE_OUTER_BOUND ( 'NONE', #26, .T. ) ;
#41 = DIRECTION ( 'NONE',  ( -0.000000000000000000, -0.000000000000000000, -1.000000000000000000 ) ) ;
#42 = EDGE_CURVE ( 'NONE', #412, #27, #74, .T. ) ;
#43 = PERSON_AND_ORGANIZATION_ROLE ( 'design_owner' ) ;
#44 = PLANE ( 'NONE',  #132 ) ;
#45 = PERSON_AND_ORGANIZATION ( #355, #455 ) ;
#46 = DIRECTION ( 'NONE',  ( 0.000000000000000000, 1.000000000000000000, 0.000000000000000000 ) ) ;
#47 = LINE ( 'NONE', #430, #296 ) ;
#48 = ORIENTED_EDGE ( 'NONE', *, *, #229, .T. ) ;
#49 = ADVANCED_FACE ( 'NONE', ( #147 ), #384, .T. ) ;
#50 = CARTESIAN_POINT ( 'NONE',  ( -346.4999999999998295, -12.50000000000000711, 25.00000000000000000 ) ) ;
#51 = ORIENTED_EDGE ( 'NONE', *, *, #240, .T. ) ;
#52 = CARTESIAN_POINT ( 'NONE',  ( 358.5000000000001705, 12.49999999999999289, 12.50000000000000000 ) ) ;
#53 = DIRECTION ( 'NONE',  ( -0.000000000000000000, -0.000000000000000000, 1.000000000000000000 ) ) ;
#54 =( GEOMETRIC_REPRESENTATION_CONTEXT ( 3 ) GLOBAL_UNCERTAINTY_ASSIGNED_CONTEXT ( ( #191 ) ) GLOBAL_UNIT_ASSIGNED_CONTEXT ( ( #314, #6, #281 ) ) REPRESENTATION_CONTEXT ( 'NONE', 'WORKASPACE' ) );
#55 = CIRCLE ( 'NONE', #152, 7.500000000000007105 ) ;
#56 = LINE ( 'NONE', #52, #104 ) ;
#57 = EDGE_LOOP ( 'NONE', ( #84, #414, #32, #233, #235, #426 ) ) ;
#58 = VERTEX_POINT ( 'NONE', #450 ) ;
#59 = ORIENTED_EDGE ( 'NONE', *, *, #187, .T. ) ;
#60 = EDGE_CURVE ( 'NONE', #133, #242, #316, .T. ) ;
#61 = APPROVAL_PERSON_ORGANIZATION ( #339, #406, #407 ) ;
#62 = APPROVAL_DATE_TIME ( #267, #452 ) ;
#63 = ORIENTED_EDGE ( 'NONE', *, *, #396, .T. ) ;
#64 = PERSON_AND_ORGANIZATION_ROLE ( 'classification_officer' ) ;
#65 = ORIENTED_EDGE ( 'NONE', *, *, #176, .T. ) ;
#66 = EDGE_CURVE ( 'NONE', #58, #301, #146, .T. ) ;
#67 = ORIENTED_EDGE ( 'NONE', *, *, #101, .F. ) ;
#68 = VECTOR ( 'NONE', #92, 1000.000000000000000 ) ;
#69 = EDGE_LOOP ( 'NONE', ( #434, #174, #395, #224 ) ) ;
#70 = APPLICATION_PROTOCOL_DEFINITION ( 'international standard', 'config_control_design', 1994, #13 ) ;
#71 = LINE ( 'NONE', #73, #80 ) ;
#72 = CARTESIAN_POINT ( 'NONE',  ( 358.5000000000001705, 12.49999999999999289, 25.00000000000000000 ) ) ;
#73 = CARTESIAN_POINT ( 'NONE',  ( 331.0000000000000000, 0.000000000000000000, 25.00000000000000000 ) ) ;
#74 = LINE ( 'NONE', #388, #155 ) ;
#75 = PRODUCT ( 'h_Default_sldprt', 'h_Default_sldprt', '', ( #347 ) ) ;
#76 = FACE_OUTER_BOUND ( 'NONE', #442, .T. ) ;
#77 = DIRECTION ( 'NONE',  ( -1.000000000000000000, 0.000000000000000000, 0.000000000000000000 ) ) ;
#78 = DIRECTION ( 'NONE',  ( 0.000000000000000000, 0.000000000000000000, 1.000000000000000000 ) ) ;
#79 = CYLINDRICAL_SURFACE ( 'NONE', #98, 7.500000000000007105 ) ;
#80 = VECTOR ( 'NONE', #342, 1000.000000000000000 ) ;
#81 = ORIENTED_EDGE ( 'NONE', *, *, #335, .F. ) ;
#82 = EDGE_CURVE ( 'NONE', #257, #15, #438, .T. ) ;
#83 = DIRECTION ( 'NONE',  ( 1.000000000000000000, 0.000000000000000000, 0.000000000000000000 ) ) ;
#84 = ORIENTED_EDGE ( 'NONE', *, *, #403, .T. ) ;
#85 = CARTESIAN_POINT ( 'NONE',  ( -358.4999999999998295, -12.50000000000000711, 25.00000000000000000 ) ) ;
#86 = DIRECTION ( 'NONE',  ( -1.000000000000000000, 0.000000000000000000, 0.000000000000000000 ) ) ;
#87 = ORIENTED_EDGE ( 'NONE', *, *, #66, .T. ) ;
#88 = FACE_OUTER_BOUND ( 'NONE', #268, .T. ) ;
#89 = DIRECTION ( 'NONE',  ( -0.000000000000000000, 0.000000000000000000, -1.000000000000000000 ) ) ;
#90 = CC_DESIGN_DATE_AND_TIME_ASSIGNMENT ( #137, #173, ( #424 ) ) ;
#91 = VERTEX_POINT ( 'NONE', #216 ) ;
#92 = DIRECTION ( 'NONE',  ( 0.000000000000000000, 0.000000000000000000, -1.000000000000000000 ) ) ;
#93 = ORIENTED_EDGE ( 'NONE', *, *, #187, .F. ) ;
#94 = ADVANCED_FACE ( 'NONE', ( #76 ), #275, .F. ) ;
#95 = FACE_BOUND ( 'NONE', #131, .T. ) ;
#96 = VERTEX_POINT ( 'NONE', #218 ) ;
#97 = EDGE_CURVE ( 'NONE', #294, #207, #263, .T. ) ;
#98 = AXIS2_PLACEMENT_3D ( 'NONE', #326, #351, #86 ) ;
#99 = APPROVAL_STATUS ( 'not_yet_approved' ) ;
#100 = CARTESIAN_POINT ( 'NONE',  ( -358.4999999999998295, 0.4999999999999935052, 25.00000000000000000 ) ) ;
#101 = EDGE_CURVE ( 'NONE', #369, #328, #55, .T. ) ;
#102 = ORIENTED_EDGE ( 'NONE', *, *, #42, .F. ) ;
#103 = EDGE_LOOP ( 'NONE', ( #239, #398 ) ) ;
#104 = VECTOR ( 'NONE', #184, 1000.000000000000000 ) ;
#105 = PERSON_AND_ORGANIZATION ( #355, #455 ) ;
#106 = DIRECTION ( 'NONE',  ( 0.000000000000000000, 0.000000000000000000, -1.000000000000000000 ) ) ;
#107 = DIRECTION ( 'NONE',  ( 0.000000000000000000, 0.000000000000000000, 1.000000000000000000 ) ) ;
#108 = CARTESIAN_POINT ( 'NONE',  ( -346.4999999999998295, 0.4999999999999935052, 25.00000000000000000 ) ) ;
#109 = ADVANCED_FACE ( 'NONE', ( #40 ), #181, .F. ) ;
#110 = CARTESIAN_POINT ( 'NONE',  ( 358.5000000000001705, 12.49999999999999289, 25.00000000000000000 ) ) ;
#111 = CIRCLE ( 'NONE', #19, 7.500000000000007105 ) ;
#112 = CALENDAR_DATE ( 2026, 21, 9 ) ;
#113 = EDGE_CURVE ( 'NONE', #328, #369, #129, .T. ) ;
#114 = DIRECTION ( 'NONE',  ( -1.000000000000000000, 0.000000000000000000, 0.000000000000000000 ) ) ;
#115 = CARTESIAN_POINT ( 'NONE',  ( -346.4999999999998295, 12.49999999999999289, 25.00000000000000000 ) ) ;
#116 = VERTEX_POINT ( 'NONE', #248 ) ;
#117 = LINE ( 'NONE', #122, #246 ) ;
#118 = LINE ( 'NONE', #290, #217 ) ;
#119 = CC_DESIGN_SECURITY_CLASSIFICATION ( #38, ( #420 ) ) ;
#120 = ORIENTED_EDGE ( 'NONE', *, *, #150, .F. ) ;
#121 = DIRECTION ( 'NONE',  ( -0.000000000000000000, -0.000000000000000000, -1.000000000000000000 ) ) ;
#122 = CARTESIAN_POINT ( 'NONE',  ( -346.0000000000000568, 0.000000000000000000, 25.00000000000000000 ) ) ;
#123 = DIRECTION ( 'NONE',  ( -0.000000000000000000, 0.000000000000000000, 1.000000000000000000 ) ) ;
#124 = EDGE_LOOP ( 'NONE', ( #367, #234, #391, #306 ) ) ;
#125 = ADVANCED_FACE ( 'NONE', ( #4 ), #244, .T. ) ;
#126 = AXIS2_PLACEMENT_3D ( 'NONE', #454, #106, #114 ) ;
#127 = CARTESIAN_POINT ( 'NONE',  ( -338.5000000000000000, 0.000000000000000000, 25.00000000000000000 ) ) ;
#128 = COORDINATED_UNIVERSAL_TIME_OFFSET ( 5, 30, .AHEAD. ) ;
#129 = CIRCLE ( 'NONE', #379, 7.500000000000007105 ) ;
#130 = EDGE_CURVE ( 'NONE', #204, #232, #419, .T. ) ;
#131 = EDGE_LOOP ( 'NONE', ( #51, #170 ) ) ;
#132 = AXIS2_PLACEMENT_3D ( 'NONE', #253, #123, #399 ) ;
#133 = VERTEX_POINT ( 'NONE', #387 ) ;
#134 = CALENDAR_DATE ( 2026, 21, 9 ) ;
#135 = EDGE_LOOP ( 'NONE', ( #166, #298 ) ) ;
#136 = LOCAL_TIME ( 22, 52, 22.00000000000000000, #422 ) ;
#137 = DATE_AND_TIME ( #453, #401 ) ;
#138 = CARTESIAN_POINT ( 'NONE',  ( -358.4999999999998295, 12.49999999999999289, 25.00000000000000000 ) ) ;
#139 = DATE_AND_TIME ( #209, #144 ) ;
#140 = ORIENTED_EDGE ( 'NONE', *, *, #403, .F. ) ;
#141 = MANIFOLD_SOLID_BREP ( 'Cut-Extrude1', #30 ) ;
#142 = PERSON_AND_ORGANIZATION ( #355, #455 ) ;
#143 = DIRECTION ( 'NONE',  ( -0.000000000000000000, 1.000000000000000000, -0.000000000000000000 ) ) ;
#144 = LOCAL_TIME ( 22, 52, 22.00000000000000000, #128 ) ;
#145 = COORDINATED_UNIVERSAL_TIME_OFFSET ( 5, 30, .AHEAD. ) ;
#146 = LINE ( 'NONE', #37, #9 ) ;
#147 = FACE_OUTER_BOUND ( 'NONE', #69, .T. ) ;
#148 = LINE ( 'NONE', #36, #195 ) ;
#149 = DIRECTION ( 'NONE',  ( -0.000000000000000000, 0.000000000000000000, -1.000000000000000000 ) ) ;
#150 = EDGE_CURVE ( 'NONE', #204, #301, #315, .T. ) ;
#151 = DIRECTION ( 'NONE',  ( -1.000000000000000000, 0.000000000000000000, 0.000000000000000000 ) ) ;
#152 = AXIS2_PLACEMENT_3D ( 'NONE', #245, #107, #344 ) ;
#153 = CARTESIAN_POINT ( 'NONE',  ( 338.5000000000000000, 0.000000000000000000, 12.50000000000000000 ) ) ;
#154 = LINE ( 'NONE', #292, #269 ) ;
#155 = VECTOR ( 'NONE', #214, 1000.000000000000000 ) ;
#156 = CARTESIAN_POINT ( 'NONE',  ( 358.5000000000001705, -12.50000000000000711, 12.50000000000000000 ) ) ;
#157 = SHAPE_DEFINITION_REPRESENTATION ( #3, #333 ) ;
#158 = APPROVAL_STATUS ( 'not_yet_approved' ) ;
#159 = AXIS2_PLACEMENT_3D ( 'NONE', #18, #78, #350 ) ;
#160 = VERTEX_POINT ( 'NONE', #35 ) ;
#161 = CARTESIAN_POINT ( 'NONE',  ( -338.5000000000000000, 0.000000000000000000, 25.00000000000000000 ) ) ;
#162 = CARTESIAN_POINT ( 'NONE',  ( 358.5000000000001705, -12.50000000000000711, 25.00000000000000000 ) ) ;
#163 = AXIS2_PLACEMENT_3D ( 'NONE', #433, #223, #83 ) ;
#164 = APPROVAL ( #357, 'UNSPECIFIED' ) ;
#165 = CARTESIAN_POINT ( 'NONE',  ( 338.5000000000000000, 0.000000000000000000, 25.00000000000000000 ) ) ;
#166 = ORIENTED_EDGE ( 'NONE', *, *, #417, .F. ) ;
#167 = DIRECTION ( 'NONE',  ( 1.000000000000000000, 0.000000000000000000, 0.000000000000000000 ) ) ;
#168 = ORIENTED_EDGE ( 'NONE', *, *, #381, .F. ) ;
#169 = VERTEX_POINT ( 'NONE', #338 ) ;
#170 = ORIENTED_EDGE ( 'NONE', *, *, #97, .T. ) ;
#171 = PERSON_AND_ORGANIZATION ( #355, #455 ) ;
#172 = ORIENTED_EDGE ( 'NONE', *, *, #435, .T. ) ;
#173 = DATE_TIME_ROLE ( 'creation_date' ) ;
#174 = ORIENTED_EDGE ( 'NONE', *, *, #311, .F. ) ;
#175 = DIRECTION ( 'NONE',  ( 0.000000000000000000, 0.000000000000000000, 1.000000000000000000 ) ) ;
#176 = EDGE_CURVE ( 'NONE', #265, #96, #34, .T. ) ;
#177 = CARTESIAN_POINT ( 'NONE',  ( 358.5000000000001705, -12.50000000000000711, 25.00000000000000000 ) ) ;
#178 = CARTESIAN_POINT ( 'NONE',  ( 338.5000000000000000, 0.000000000000000000, 25.00000000000000000 ) ) ;
#179 = EDGE_CURVE ( 'NONE', #242, #207, #71, .T. ) ;
#180 = CARTESIAN_POINT ( 'NONE',  ( -338.5000000000000000, 0.000000000000000000, 25.00000000000000000 ) ) ;
#181 = PLANE ( 'NONE',  #402 ) ;
#182 = DIRECTION ( 'NONE',  ( 0.000000000000000000, 0.000000000000000000, 1.000000000000000000 ) ) ;
#183 = CALENDAR_DATE ( 2026, 21, 9 ) ;
#184 = DIRECTION ( 'NONE',  ( 0.000000000000000000, 1.000000000000000000, -0.000000000000000000 ) ) ;
#185 = AXIS2_PLACEMENT_3D ( 'NONE', #127, #397, #393 ) ;
#186 = LINE ( 'NONE', #196, #319 ) ;
#187 = EDGE_CURVE ( 'NONE', #116, #169, #241, .T. ) ;
#188 = DIRECTION ( 'NONE',  ( 1.000000000000000000, 0.000000000000000000, 0.000000000000000000 ) ) ;
#189 = DATE_AND_TIME ( #183, #136 ) ;
#190 = EDGE_LOOP ( 'NONE', ( #93, #81 ) ) ;
#191 = UNCERTAINTY_MEASURE_WITH_UNIT (LENGTH_MEASURE( 1.000000000000000082E-05 ), #314, 'distance_accuracy_value', 'NONE');
#192 = CARTESIAN_POINT ( 'NONE',  ( -346.4999999999998295, 12.49999999999999289, 12.50000000000000000 ) ) ;
#193 = CARTESIAN_POINT ( 'NONE',  ( -346.4999999999998295, -0.5000000000000073275, 25.00000000000000000 ) ) ;
#194 = AXIS2_PLACEMENT_3D ( 'NONE', #17, #230, #188 ) ;
#195 = VECTOR ( 'NONE', #10, 1000.000000000000000 ) ;
#196 = CARTESIAN_POINT ( 'NONE',  ( -358.4999999999998295, -12.50000000000000711, 25.00000000000000000 ) ) ;
#197 = DIRECTION ( 'NONE',  ( -0.000000000000000000, 0.000000000000000000, 1.000000000000000000 ) ) ;
#198 = ORIENTED_EDGE ( 'NONE', *, *, #435, .F. ) ;
#199 = EDGE_CURVE ( 'NONE', #169, #328, #47, .T. ) ;
#200 = ORIENTED_EDGE ( 'NONE', *, *, #199, .T. ) ;
#201 = VECTOR ( 'NONE', #443, 1000.000000000000000 ) ;
#202 = ORIENTED_EDGE ( 'NONE', *, *, #12, .F. ) ;
#203 = AXIS2_PLACEMENT_3D ( 'NONE', #161, #23, #167 ) ;
#204 = VERTEX_POINT ( 'NONE', #162 ) ;
#205 = COORDINATED_UNIVERSAL_TIME_OFFSET ( 5, 30, .AHEAD. ) ;
#206 = ORIENTED_EDGE ( 'NONE', *, *, #311, .T. ) ;
#207 = VERTEX_POINT ( 'NONE', #356 ) ;
#208 = AXIS2_PLACEMENT_3D ( 'NONE', #165, #219, #77 ) ;
#209 = CALENDAR_DATE ( 2026, 21, 9 ) ;
#210 = DIRECTION ( 'NONE',  ( -0.000000000000000000, -0.000000000000000000, -1.000000000000000000 ) ) ;
#211 = EDGE_CURVE ( 'NONE', #301, #96, #56, .T. ) ;
#212 = CARTESIAN_POINT ( 'NONE',  ( 338.5000000000000000, 0.000000000000000000, 25.00000000000000000 ) ) ;
#213 = EDGE_CURVE ( 'NONE', #160, #265, #349, .T. ) ;
#214 = DIRECTION ( 'NONE',  ( 0.000000000000000000, -0.000000000000000000, 1.000000000000000000 ) ) ;
#215 = LOCAL_TIME ( 22, 52, 22.00000000000000000, #145 ) ;
#216 = CARTESIAN_POINT ( 'NONE',  ( -346.4999999999998295, -12.50000000000000711, 25.00000000000000000 ) ) ;
#217 = VECTOR ( 'NONE', #121, 1000.000000000000000 ) ;
#218 = CARTESIAN_POINT ( 'NONE',  ( 358.5000000000001705, 12.49999999999999289, 12.50000000000000000 ) ) ;
#219 = DIRECTION ( 'NONE',  ( -0.000000000000000000, -0.000000000000000000, -1.000000000000000000 ) ) ;
#220 = EDGE_CURVE ( 'NONE', #133, #294, #118, .T. ) ;
#221 = CARTESIAN_POINT ( 'NONE',  ( -346.4999999999998295, 12.49999999999999289, 25.00000000000000000 ) ) ;
#222 = VECTOR ( 'NONE', #210, 1000.000000000000000 ) ;
#223 = DIRECTION ( 'NONE',  ( -0.000000000000000000, -0.000000000000000000, -1.000000000000000000 ) ) ;
#224 = ORIENTED_EDGE ( 'NONE', *, *, #341, .F. ) ;
#225 = ADVANCED_FACE ( 'NONE', ( #321, #259, #285 ), #44, .T. ) ;
#226 = CYLINDRICAL_SURFACE ( 'NONE', #208, 7.500000000000007105 ) ;
#227 = LINE ( 'NONE', #360, #68 ) ;
#228 = DIRECTION ( 'NONE',  ( -0.000000000000000000, -0.000000000000000000, -1.000000000000000000 ) ) ;
#229 = EDGE_CURVE ( 'NONE', #91, #58, #286, .T. ) ;
#230 = DIRECTION ( 'NONE',  ( -0.000000000000000000, -0.000000000000000000, -1.000000000000000000 ) ) ;
#231 = APPROVAL_PERSON_ORGANIZATION ( #45, #164, #283 ) ;
#232 = VERTEX_POINT ( 'NONE', #262 ) ;
#233 = ORIENTED_EDGE ( 'NONE', *, *, #130, .T. ) ;
#234 = ORIENTED_EDGE ( 'NONE', *, *, #220, .T. ) ;
#235 = ORIENTED_EDGE ( 'NONE', *, *, #299, .T. ) ;
#236 = SECURITY_CLASSIFICATION_LEVEL ( 'unclassified' ) ;
#237 = CARTESIAN_POINT ( 'NONE',  ( -358.4999999999998295, -0.5000000000000073275, 25.00000000000000000 ) ) ;
#238 = EDGE_CURVE ( 'NONE', #58, #412, #295, .T. ) ;
#239 = ORIENTED_EDGE ( 'NONE', *, *, #101, .T. ) ;
#240 = EDGE_CURVE ( 'NONE', #207, #294, #385, .T. ) ;
#241 = CIRCLE ( 'NONE', #25, 7.500000000000007105 ) ;
#242 = VERTEX_POINT ( 'NONE', #425 ) ;
#243 = CARTESIAN_POINT ( 'NONE',  ( -338.5000000000000000, 0.000000000000000000, 25.00000000000000000 ) ) ;
#244 = CYLINDRICAL_SURFACE ( 'NONE', #317, 12.00000000000001066 ) ;
#245 = CARTESIAN_POINT ( 'NONE',  ( -338.5000000000000000, 0.000000000000000000, 12.50000000000000000 ) ) ;
#246 = VECTOR ( 'NONE', #228, 1000.000000000000000 ) ;
#247 = AXIS2_PLACEMENT_3D ( 'NONE', #243, #41, #151 ) ;
#248 = CARTESIAN_POINT ( 'NONE',  ( -346.0000000000000568, 0.000000000000000000, 25.00000000000000000 ) ) ;
#249 = ADVANCED_FACE ( 'NONE', ( #364 ), #226, .F. ) ;
#250 = DIRECTION ( 'NONE',  ( 0.000000000000000000, 0.000000000000000000, 1.000000000000000000 ) ) ;
#251 = FACE_OUTER_BOUND ( 'NONE', #124, .T. ) ;
#252 = VECTOR ( 'NONE', #53, 1000.000000000000000 ) ;
#253 = CARTESIAN_POINT ( 'NONE',  ( 0.000000000000000000, 0.000000000000000000, 25.00000000000000000 ) ) ;
#254 = ORIENTED_EDGE ( 'NONE', *, *, #130, .F. ) ;
#255 = CC_DESIGN_PERSON_AND_ORGANIZATION_ASSIGNMENT ( #171, #449, ( #424 ) ) ;
#256 = PLANE ( 'NONE',  #303 ) ;
#257 = VERTEX_POINT ( 'NONE', #115 ) ;
#258 = EDGE_CURVE ( 'NONE', #27, #91, #8, .T. ) ;
#259 = FACE_OUTER_BOUND ( 'NONE', #57, .T. ) ;
#260 = ORIENTED_EDGE ( 'NONE', *, *, #258, .F. ) ;
#261 = VECTOR ( 'NONE', #143, 1000.000000000000000 ) ;
#262 = CARTESIAN_POINT ( 'NONE',  ( 358.5000000000001705, 12.49999999999999289, 25.00000000000000000 ) ) ;
#263 = CIRCLE ( 'NONE', #320, 7.500000000000007105 ) ;
#264 = ORIENTED_EDGE ( 'NONE', *, *, #335, .T. ) ;
#265 = VERTEX_POINT ( 'NONE', #192 ) ;
#266 = ADVANCED_FACE ( 'NONE', ( #20 ), #256, .F. ) ;
#267 = DATE_AND_TIME ( #134, #215 ) ;
#268 = EDGE_LOOP ( 'NONE', ( #48, #87, #120, #168 ) ) ;
#269 = VECTOR ( 'NONE', #323, 1000.000000000000000 ) ;
#270 = DIRECTION ( 'NONE',  ( 1.000000000000000000, 0.000000000000000000, -0.000000000000000000 ) ) ;
#271 = ADVANCED_FACE ( 'NONE', ( #293 ), #348, .F. ) ;
#272 = ORIENTED_EDGE ( 'NONE', *, *, #238, .F. ) ;
#273 = DIRECTION ( 'NONE',  ( 1.000000000000000000, 0.000000000000000000, 0.000000000000000000 ) ) ;
#274 = ADVANCED_FACE ( 'NONE', ( #251 ), #79, .F. ) ;
#275 = CYLINDRICAL_SURFACE ( 'NONE', #247, 7.500000000000007105 ) ;
#276 = DIRECTION ( 'NONE',  ( 1.000000000000000000, 0.000000000000000000, 0.000000000000000000 ) ) ;
#277 = DIRECTION ( 'NONE',  ( 1.000000000000000000, 0.000000000000000000, 0.000000000000000000 ) ) ;
#278 = DIRECTION ( 'NONE',  ( 0.000000000000000000, 0.000000000000000000, 1.000000000000000000 ) ) ;
#279 = DIRECTION ( 'NONE',  ( 0.000000000000000000, 0.000000000000000000, 1.000000000000000000 ) ) ;
#280 = PERSON_AND_ORGANIZATION ( #355, #455 ) ;
#281 =( NAMED_UNIT ( * ) SI_UNIT ( $, .STERADIAN. ) SOLID_ANGLE_UNIT ( ) );
#282 = CARTESIAN_POINT ( 'NONE',  ( 358.5000000000001705, 12.49999999999999289, 25.00000000000000000 ) ) ;
#283 = APPROVAL_ROLE ( '' ) ;
#284 = DIRECTION ( 'NONE',  ( 1.000000000000000000, 0.000000000000000000, 0.000000000000000000 ) ) ;
#285 = FACE_BOUND ( 'NONE', #135, .T. ) ;
#286 = LINE ( 'NONE', #50, #405 ) ;
#287 = EDGE_LOOP ( 'NONE', ( #272, #334, #260, #102 ) ) ;
#288 = PLANE ( 'NONE',  #159 ) ;
#289 = AXIS2_PLACEMENT_3D ( 'NONE', #193, #197, #21 ) ;
#290 = CARTESIAN_POINT ( 'NONE',  ( 346.0000000000000568, 9.184850993605165694E-16, 25.00000000000000000 ) ) ;
#291 = PLANE ( 'NONE',  #31 ) ;
#292 = CARTESIAN_POINT ( 'NONE',  ( -358.4999999999998295, 12.49999999999999289, 25.00000000000000000 ) ) ;
#293 = FACE_OUTER_BOUND ( 'NONE', #439, .T. ) ;
#294 = VERTEX_POINT ( 'NONE', #14 ) ;
#295 = CIRCLE ( 'NONE', #194, 12.00000000000001066 ) ;
#296 = VECTOR ( 'NONE', #389, 1000.000000000000000 ) ;
#297 = PRODUCT_RELATED_PRODUCT_CATEGORY ( 'detail', '', ( #75 ) ) ;
#298 = ORIENTED_EDGE ( 'NONE', *, *, #60, .F. ) ;
#299 = EDGE_CURVE ( 'NONE', #232, #257, #154, .T. ) ;
#300 = ORIENTED_EDGE ( 'NONE', *, *, #199, .F. ) ;
#301 = VERTEX_POINT ( 'NONE', #156 ) ;
#302 = FACE_OUTER_BOUND ( 'NONE', #22, .T. ) ;
#303 = AXIS2_PLACEMENT_3D ( 'NONE', #327, #436, #322 ) ;
#304 = AXIS2_PLACEMENT_3D ( 'NONE', #108, #345, #273 ) ;
#305 = PERSON_AND_ORGANIZATION ( #355, #455 ) ;
#306 = ORIENTED_EDGE ( 'NONE', *, *, #179, .F. ) ;
#307 = DIRECTION ( 'NONE',  ( -1.000000000000000000, 0.000000000000000000, 0.000000000000000000 ) ) ;
#308 = DIRECTION ( 'NONE',  ( 1.000000000000000000, -0.000000000000000000, -0.000000000000000000 ) ) ;
#309 = APPROVAL_PERSON_ORGANIZATION ( #305, #452, #445 ) ;
#310 = DIRECTION ( 'NONE',  ( -0.000000000000000000, -0.000000000000000000, -1.000000000000000000 ) ) ;
#311 = EDGE_CURVE ( 'NONE', #15, #160, #227, .T. ) ;
#312 = DIRECTION ( 'NONE',  ( 0.000000000000000000, 0.000000000000000000, 1.000000000000000000 ) ) ;
#313 = DIRECTION ( 'NONE',  ( -1.000000000000000000, 0.000000000000000000, 0.000000000000000000 ) ) ;
#314 =( LENGTH_UNIT ( ) NAMED_UNIT ( * ) SI_UNIT ( .MILLI., .METRE. ) );
#315 = LINE ( 'NONE', #177, #222 ) ;
#316 = CIRCLE ( 'NONE', #373, 7.500000000000007105 ) ;
#317 = AXIS2_PLACEMENT_3D ( 'NONE', #382, #149, #307 ) ;
#318 = ADVANCED_FACE ( 'NONE', ( #441, #95, #400 ), #288, .F. ) ;
#319 = VECTOR ( 'NONE', #362, 1000.000000000000000 ) ;
#320 = AXIS2_PLACEMENT_3D ( 'NONE', #7, #250, #416 ) ;
#321 = FACE_BOUND ( 'NONE', #190, .T. ) ;
#322 = DIRECTION ( 'NONE',  ( 0.000000000000000000, -0.000000000000000000, -1.000000000000000000 ) ) ;
#323 = DIRECTION ( 'NONE',  ( -1.000000000000000000, -0.000000000000000000, -0.000000000000000000 ) ) ;
#324 = DATE_TIME_ROLE ( 'classification_date' ) ;
#325 = LOCAL_TIME ( 22, 52, 22.00000000000000000, #205 ) ;
#326 = CARTESIAN_POINT ( 'NONE',  ( 338.5000000000000000, 0.000000000000000000, 25.00000000000000000 ) ) ;
#327 = CARTESIAN_POINT ( 'NONE',  ( -358.4999999999998295, 12.49999999999999289, 25.00000000000000000 ) ) ;
#328 = VERTEX_POINT ( 'NONE', #359 ) ;
#329 = ORIENTED_EDGE ( 'NONE', *, *, #176, .F. ) ;
#330 = ORIENTED_EDGE ( 'NONE', *, *, #213, .T. ) ;
#331 = CC_DESIGN_DATE_AND_TIME_ASSIGNMENT ( #394, #324, ( #38 ) ) ;
#332 = COORDINATED_UNIVERSAL_TIME_OFFSET ( 5, 30, .AHEAD. ) ;
#333 = ADVANCED_BREP_SHAPE_REPRESENTATION ( 'h_Default_sldprt', ( #141, #363 ), #54 ) ;
#334 = ORIENTED_EDGE ( 'NONE', *, *, #229, .F. ) ;
#335 = EDGE_CURVE ( 'NONE', #169, #116, #410, .T. ) ;
#336 = CARTESIAN_POINT ( 'NONE',  ( -358.4999999999998295, 12.49999999999999289, 12.50000000000000000 ) ) ;
#337 = PLANE ( 'NONE',  #16 ) ;
#338 = CARTESIAN_POINT ( 'NONE',  ( -331.0000000000000000, 9.184850993605173582E-16, 25.00000000000000000 ) ) ;
#339 = PERSON_AND_ORGANIZATION ( #355, #455 ) ;
#340 = DIRECTION ( 'NONE',  ( 1.000000000000000000, 0.000000000000000000, 0.000000000000000000 ) ) ;
#341 = EDGE_CURVE ( 'NONE', #265, #257, #423, .T. ) ;
#342 = DIRECTION ( 'NONE',  ( -0.000000000000000000, -0.000000000000000000, -1.000000000000000000 ) ) ;
#343 = VECTOR ( 'NONE', #310, 1000.000000000000000 ) ;
#344 = DIRECTION ( 'NONE',  ( 1.000000000000000000, 0.000000000000000000, 0.000000000000000000 ) ) ;
#345 = DIRECTION ( 'NONE',  ( -0.000000000000000000, 0.000000000000000000, 1.000000000000000000 ) ) ;
#346 = ADVANCED_FACE ( 'NONE', ( #88 ), #291, .F. ) ;
#347 = MECHANICAL_CONTEXT ( 'NONE', #440, 'mechanical' ) ;
#348 = CYLINDRICAL_SURFACE ( 'NONE', #185, 7.500000000000007105 ) ;
#349 = CIRCLE ( 'NONE', #163, 12.00000000000001066 ) ;
#350 = DIRECTION ( 'NONE',  ( 1.000000000000000000, 0.000000000000000000, -0.000000000000000000 ) ) ;
#351 = DIRECTION ( 'NONE',  ( -0.000000000000000000, -0.000000000000000000, -1.000000000000000000 ) ) ;
#352 = ORIENTED_EDGE ( 'NONE', *, *, #220, .F. ) ;
#353 = DESIGN_CONTEXT ( 'detailed design', #13, 'design' ) ;
#354 = CC_DESIGN_PERSON_AND_ORGANIZATION_ASSIGNMENT ( #370, #64, ( #38 ) ) ;
#355 = PERSON ( 'UNSPECIFIED', 'UNSPECIFIED', 'UNSPECIFIED', ('UNSPECIFIED'), ('UNSPECIFIED'), ('UNSPECIFIED') ) ;
#356 = CARTESIAN_POINT ( 'NONE',  ( 331.0000000000000000, 0.000000000000000000, 12.50000000000000000 ) ) ;
#357 = APPROVAL_STATUS ( 'not_yet_approved' ) ;
#358 = ORIENTED_EDGE ( 'NONE', *, *, #60, .T. ) ;
#359 = CARTESIAN_POINT ( 'NONE',  ( -331.0000000000000000, 9.184850993605173582E-16, 12.50000000000000000 ) ) ;
#360 = CARTESIAN_POINT ( 'NONE',  ( -358.4999999999998295, 0.4999999999999935052, 25.00000000000000000 ) ) ;
#361 = ORIENTED_EDGE ( 'NONE', *, *, #150, .T. ) ;
#362 = DIRECTION ( 'NONE',  ( 1.000000000000000000, 0.000000000000000000, 0.000000000000000000 ) ) ;
#363 = AXIS2_PLACEMENT_3D ( 'NONE', #5, #2, #277 ) ;
#364 = FACE_OUTER_BOUND ( 'NONE', #413, .T. ) ;
#365 = EDGE_LOOP ( 'NONE', ( #372, #366, #202, #330, #65, #437 ) ) ;
#366 = ORIENTED_EDGE ( 'NONE', *, *, #238, .T. ) ;
#367 = ORIENTED_EDGE ( 'NONE', *, *, #417, .T. ) ;
#368 = CC_DESIGN_APPROVAL ( #452, ( #420 ) ) ;
#369 = VERTEX_POINT ( 'NONE', #429 ) ;
#370 = PERSON_AND_ORGANIZATION ( #355, #455 ) ;
#371 = ORIENTED_EDGE ( 'NONE', *, *, #211, .T. ) ;
#372 = ORIENTED_EDGE ( 'NONE', *, *, #66, .F. ) ;
#373 = AXIS2_PLACEMENT_3D ( 'NONE', #212, #279, #276 ) ;
#374 = VECTOR ( 'NONE', #308, 1000.000000000000000 ) ;
#375 = CC_DESIGN_PERSON_AND_ORGANIZATION_ASSIGNMENT ( #142, #447, ( #420 ) ) ;
#376 = APPROVAL_DATE_TIME ( #139, #406 ) ;
#377 = ORIENTED_EDGE ( 'NONE', *, *, #396, .F. ) ;
#378 = CC_DESIGN_APPROVAL ( #406, ( #424 ) ) ;
#379 = AXIS2_PLACEMENT_3D ( 'NONE', #421, #182, #340 ) ;
#380 = CARTESIAN_POINT ( 'NONE',  ( -358.4999999999998295, 12.49999999999999289, 12.50000000000000000 ) ) ;
#381 = EDGE_CURVE ( 'NONE', #91, #204, #186, .T. ) ;
#382 = CARTESIAN_POINT ( 'NONE',  ( -346.4999999999998295, -0.5000000000000073275, 25.00000000000000000 ) ) ;
#383 = CC_DESIGN_PERSON_AND_ORGANIZATION_ASSIGNMENT ( #105, #411, ( #420 ) ) ;
#384 = CYLINDRICAL_SURFACE ( 'NONE', #126, 12.00000000000001066 ) ;
#385 = CIRCLE ( 'NONE', #444, 7.500000000000007105 ) ;
#386 = CARTESIAN_POINT ( 'NONE',  ( -358.4999999999998295, -0.5000000000000073275, 12.50000000000000000 ) ) ;
#387 = CARTESIAN_POINT ( 'NONE',  ( 346.0000000000000568, 9.184850993605173582E-16, 25.00000000000000000 ) ) ;
#388 = CARTESIAN_POINT ( 'NONE',  ( -358.4999999999998295, -0.5000000000000073275, 25.00000000000000000 ) ) ;
#389 = DIRECTION ( 'NONE',  ( -0.000000000000000000, -0.000000000000000000, -1.000000000000000000 ) ) ;
#390 = APPROVAL_DATE_TIME ( #189, #164 ) ;
#391 = ORIENTED_EDGE ( 'NONE', *, *, #240, .F. ) ;
#392 = CC_DESIGN_APPROVAL ( #164, ( #38 ) ) ;
#393 = DIRECTION ( 'NONE',  ( -1.000000000000000000, 0.000000000000000000, 0.000000000000000000 ) ) ;
#394 = DATE_AND_TIME ( #112, #325 ) ;
#395 = ORIENTED_EDGE ( 'NONE', *, *, #82, .F. ) ;
#396 = EDGE_CURVE ( 'NONE', #116, #369, #117, .T. ) ;
#397 = DIRECTION ( 'NONE',  ( -0.000000000000000000, -0.000000000000000000, -1.000000000000000000 ) ) ;
#398 = ORIENTED_EDGE ( 'NONE', *, *, #113, .T. ) ;
#399 = DIRECTION ( 'NONE',  ( 1.000000000000000000, 0.000000000000000000, 0.000000000000000000 ) ) ;
#400 = FACE_OUTER_BOUND ( 'NONE', #365, .T. ) ;
#401 = LOCAL_TIME ( 22, 52, 22.00000000000000000, #332 ) ;
#402 = AXIS2_PLACEMENT_3D ( 'NONE', #282, #313, #175 ) ;
#403 = EDGE_CURVE ( 'NONE', #15, #27, #148, .T. ) ;
#404 = ORIENTED_EDGE ( 'NONE', *, *, #299, .F. ) ;
#405 = VECTOR ( 'NONE', #89, 1000.000000000000000 ) ;
#406 = APPROVAL ( #158, 'UNSPECIFIED' ) ;
#407 = APPROVAL_ROLE ( '' ) ;
#408 = ORIENTED_EDGE ( 'NONE', *, *, #97, .F. ) ;
#409 = ORIENTED_EDGE ( 'NONE', *, *, #179, .T. ) ;
#410 = CIRCLE ( 'NONE', #203, 7.500000000000007105 ) ;
#411 = PERSON_AND_ORGANIZATION_ROLE ( 'design_supplier' ) ;
#412 = VERTEX_POINT ( 'NONE', #386 ) ;
#413 = EDGE_LOOP ( 'NONE', ( #352, #358, #409, #408 ) ) ;
#414 = ORIENTED_EDGE ( 'NONE', *, *, #258, .T. ) ;
#415 = DIRECTION ( 'NONE',  ( 1.000000000000000000, -0.000000000000000000, -0.000000000000000000 ) ) ;
#416 = DIRECTION ( 'NONE',  ( 1.000000000000000000, 0.000000000000000000, 0.000000000000000000 ) ) ;
#417 = EDGE_CURVE ( 'NONE', #242, #133, #111, .T. ) ;
#418 = DIRECTION ( 'NONE',  ( -0.000000000000000000, 0.000000000000000000, -1.000000000000000000 ) ) ;
#419 = LINE ( 'NONE', #110, #261 ) ;
#420 = PRODUCT_DEFINITION_FORMATION_WITH_SPECIFIED_SOURCE ( 'ANY', '', #75, .NOT_KNOWN. ) ;
#421 = CARTESIAN_POINT ( 'NONE',  ( -338.5000000000000000, 0.000000000000000000, 12.50000000000000000 ) ) ;
#422 = COORDINATED_UNIVERSAL_TIME_OFFSET ( 5, 30, .AHEAD. ) ;
#423 = LINE ( 'NONE', #221, #252 ) ;
#424 = PRODUCT_DEFINITION ( 'UNKNOWN', '', #420, #353 ) ;
#425 = CARTESIAN_POINT ( 'NONE',  ( 331.0000000000000000, 0.000000000000000000, 25.00000000000000000 ) ) ;
#426 = ORIENTED_EDGE ( 'NONE', *, *, #82, .T. ) ;
#427 = DIRECTION ( 'NONE',  ( 0.000000000000000000, 0.000000000000000000, 1.000000000000000000 ) ) ;
#428 = EDGE_LOOP ( 'NONE', ( #172, #329, #24, #404 ) ) ;
#429 = CARTESIAN_POINT ( 'NONE',  ( -346.0000000000000568, 0.000000000000000000, 12.50000000000000000 ) ) ;
#430 = CARTESIAN_POINT ( 'NONE',  ( -331.0000000000000000, 9.184850993605165694E-16, 25.00000000000000000 ) ) ;
#431 = ORIENTED_EDGE ( 'NONE', *, *, #12, .T. ) ;
#432 = DIRECTION ( 'NONE',  ( 0.000000000000000000, -0.000000000000000000, 1.000000000000000000 ) ) ;
#433 = CARTESIAN_POINT ( 'NONE',  ( -346.4999999999998295, 0.4999999999999935052, 12.50000000000000000 ) ) ;
#434 = ORIENTED_EDGE ( 'NONE', *, *, #213, .F. ) ;
#435 = EDGE_CURVE ( 'NONE', #232, #96, #451, .T. ) ;
#436 = DIRECTION ( 'NONE',  ( 0.000000000000000000, -1.000000000000000000, 0.000000000000000000 ) ) ;
#437 = ORIENTED_EDGE ( 'NONE', *, *, #211, .F. ) ;
#438 = CIRCLE ( 'NONE', #304, 12.00000000000001066 ) ;
#439 = EDGE_LOOP ( 'NONE', ( #300, #264, #63, #29 ) ) ;
#440 = APPLICATION_CONTEXT ( 'configuration controlled 3d designs of mechanical parts and assemblies' ) ;
#441 = FACE_BOUND ( 'NONE', #103, .T. ) ;
#442 = EDGE_LOOP ( 'NONE', ( #59, #200, #67, #377 ) ) ;
#443 = DIRECTION ( 'NONE',  ( 0.000000000000000000, -1.000000000000000000, 0.000000000000000000 ) ) ;
#444 = AXIS2_PLACEMENT_3D ( 'NONE', #153, #427, #11 ) ;
#445 = APPROVAL_ROLE ( '' ) ;
#446 = LINE ( 'NONE', #336, #201 ) ;
#447 = PERSON_AND_ORGANIZATION_ROLE ( 'creator' ) ;
#448 = ORIENTED_EDGE ( 'NONE', *, *, #42, .T. ) ;
#449 = PERSON_AND_ORGANIZATION_ROLE ( 'creator' ) ;
#450 = CARTESIAN_POINT ( 'NONE',  ( -346.4999999999998295, -12.50000000000000711, 12.50000000000000000 ) ) ;
#451 = LINE ( 'NONE', #72, #343 ) ;
#452 = APPROVAL ( #99, 'UNSPECIFIED' ) ;
#453 = CALENDAR_DATE ( 2026, 21, 9 ) ;
#454 = CARTESIAN_POINT ( 'NONE',  ( -346.4999999999998295, 0.4999999999999935052, 25.00000000000000000 ) ) ;
#455 = ORGANIZATION ( 'UNSPECIFIED', 'UNSPECIFIED', '' ) ;
ENDSEC;
END-ISO-10303-21;
