ISO-10303-21;
HEADER;
FILE_DESCRIPTION (( 'STEP AP203' ),
    '1' );
FILE_NAME ('i_Default_sldprt.STEP',
    '2026-09-21T17:22:24',
    ( '' ),
    ( '' ),
    'SwSTEP 2.0',
    'SolidWorks 2021',
    '' );
FILE_SCHEMA (( 'CONFIG_CONTROL_DESIGN' ));
ENDSEC;

DATA;
#1 = PERSON_AND_ORGANIZATION ( #72, #122 ) ;
#2 = PLANE ( 'NONE',  #236 ) ;
#3 = PERSON_AND_ORGANIZATION_ROLE ( 'design_supplier' ) ;
#4 = DIRECTION ( 'NONE',  ( 1.000000000000000000, 0.000000000000000000, 0.000000000000000000 ) ) ;
#5 = AXIS2_PLACEMENT_3D ( 'NONE', #247, #135, #354 ) ;
#6 =( GEOMETRIC_REPRESENTATION_CONTEXT ( 3 ) GLOBAL_UNCERTAINTY_ASSIGNED_CONTEXT ( ( #183 ) ) GLOBAL_UNIT_ASSIGNED_CONTEXT ( ( #57, #226, #126 ) ) REPRESENTATION_CONTEXT ( 'NONE', 'WORKASPACE' ) );
#7 = PLANE ( 'NONE',  #371 ) ;
#8 = CARTESIAN_POINT ( 'NONE',  ( -262.0000000000000000, 12.50000000000000000, 12.50000000000000000 ) ) ;
#9 = ADVANCED_FACE ( 'NONE', ( #106 ), #111, .F. ) ;
#10 = CARTESIAN_POINT ( 'NONE',  ( 262.0000000000000000, 12.50000000000000000, 12.50000000000000000 ) ) ;
#11 = CARTESIAN_POINT ( 'NONE',  ( -234.5000000000000000, 9.184850993605173582E-16, 25.00000000000000000 ) ) ;
#12 = ORIENTED_EDGE ( 'NONE', *, *, #89, .T. ) ;
#13 = CARTESIAN_POINT ( 'NONE',  ( 242.0000000000000000, 0.000000000000000000, 12.50000000000000000 ) ) ;
#14 = VERTEX_POINT ( 'NONE', #68 ) ;
#15 = CARTESIAN_POINT ( 'NONE',  ( 262.0000000000000000, 12.50000000000000000, 25.00000000000000000 ) ) ;
#16 = EDGE_LOOP ( 'NONE', ( #369, #96 ) ) ;
#17 = CARTESIAN_POINT ( 'NONE',  ( 262.0000000000000000, -12.50000000000000000, 25.00000000000000000 ) ) ;
#18 = ORIENTED_EDGE ( 'NONE', *, *, #89, .F. ) ;
#19 = CC_DESIGN_PERSON_AND_ORGANIZATION_ASSIGNMENT ( #100, #343, ( #165 ) ) ;
#20 = EDGE_CURVE ( 'NONE', #411, #255, #295, .T. ) ;
#21 = VERTEX_POINT ( 'NONE', #71 ) ;
#22 = PRODUCT_DEFINITION_SHAPE ( 'NONE', 'NONE',  #448 ) ;
#23 = ORIENTED_EDGE ( 'NONE', *, *, #172, .F. ) ;
#24 = DIRECTION ( 'NONE',  ( 0.000000000000000000, 0.000000000000000000, 1.000000000000000000 ) ) ;
#25 = EDGE_CURVE ( 'NONE', #255, #411, #151, .T. ) ;
#26 = ORIENTED_EDGE ( 'NONE', *, *, #432, .T. ) ;
#27 = CIRCLE ( 'NONE', #184, 7.500000000000007105 ) ;
#28 = CALENDAR_DATE ( 2026, 21, 9 ) ;
#29 = ADVANCED_FACE ( 'NONE', ( #454 ), #101, .F. ) ;
#30 = ORIENTED_EDGE ( 'NONE', *, *, #97, .T. ) ;
#31 = MECHANICAL_CONTEXT ( 'NONE', #86, 'mechanical' ) ;
#32 = DIRECTION ( 'NONE',  ( 0.000000000000000000, -1.000000000000000000, 0.000000000000000000 ) ) ;
#33 = DIRECTION ( 'NONE',  ( 0.000000000000000000, -0.000000000000000000, 1.000000000000000000 ) ) ;
#34 = CC_DESIGN_PERSON_AND_ORGANIZATION_ASSIGNMENT ( #237, #3, ( #165 ) ) ;
#35 = COORDINATED_UNIVERSAL_TIME_OFFSET ( 5, 30, .AHEAD. ) ;
#36 = ORIENTED_EDGE ( 'NONE', *, *, #267, .F. ) ;
#37 = COORDINATED_UNIVERSAL_TIME_OFFSET ( 5, 30, .AHEAD. ) ;
#38 = EDGE_LOOP ( 'NONE', ( #230, #306, #125, #18 ) ) ;
#39 = LOCAL_TIME ( 22, 52, 24.00000000000000000, #315 ) ;
#40 = FACE_OUTER_BOUND ( 'NONE', #324, .T. ) ;
#41 = AXIS2_PLACEMENT_3D ( 'NONE', #310, #174, #348 ) ;
#42 = VECTOR ( 'NONE', #397, 1000.000000000000000 ) ;
#43 = CYLINDRICAL_SURFACE ( 'NONE', #48, 7.500000000000007105 ) ;
#44 = ADVANCED_FACE ( 'NONE', ( #316, #423, #386 ), #137, .F. ) ;
#45 = DIRECTION ( 'NONE',  ( 1.000000000000000000, 0.000000000000000000, -0.000000000000000000 ) ) ;
#46 = ORIENTED_EDGE ( 'NONE', *, *, #434, .T. ) ;
#47 = DIRECTION ( 'NONE',  ( -0.000000000000000000, -0.000000000000000000, -1.000000000000000000 ) ) ;
#48 = AXIS2_PLACEMENT_3D ( 'NONE', #177, #284, #256 ) ;
#49 = CARTESIAN_POINT ( 'NONE',  ( -250.0000000000000000, -0.5000000000000022204, 25.00000000000000000 ) ) ;
#50 = EDGE_LOOP ( 'NONE', ( #160, #292 ) ) ;
#51 = DIRECTION ( 'NONE',  ( 1.000000000000000000, 0.000000000000000000, 0.000000000000000000 ) ) ;
#52 = DIRECTION ( 'NONE',  ( -1.000000000000000000, 0.000000000000000000, 0.000000000000000000 ) ) ;
#53 = ORIENTED_EDGE ( 'NONE', *, *, #77, .F. ) ;
#54 = CYLINDRICAL_SURFACE ( 'NONE', #303, 7.500000000000007105 ) ;
#55 = CIRCLE ( 'NONE', #168, 12.00000000000001066 ) ;
#56 = ORIENTED_EDGE ( 'NONE', *, *, #400, .T. ) ;
#57 =( LENGTH_UNIT ( ) NAMED_UNIT ( * ) SI_UNIT ( .MILLI., .METRE. ) );
#58 = EDGE_LOOP ( 'NONE', ( #162, #30, #92, #53 ) ) ;
#59 = EDGE_CURVE ( 'NONE', #14, #225, #382, .T. ) ;
#60 = CARTESIAN_POINT ( 'NONE',  ( -249.5000000000000000, 0.000000000000000000, 25.00000000000000000 ) ) ;
#61 = ORIENTED_EDGE ( 'NONE', *, *, #392, .T. ) ;
#62 = PRODUCT_RELATED_PRODUCT_CATEGORY ( 'detail', '', ( #201 ) ) ;
#63 = ADVANCED_FACE ( 'NONE', ( #40 ), #2, .F. ) ;
#64 = DIRECTION ( 'NONE',  ( 0.000000000000000000, -1.000000000000000000, 0.000000000000000000 ) ) ;
#65 = ORIENTED_EDGE ( 'NONE', *, *, #172, .T. ) ;
#66 = AXIS2_PLACEMENT_3D ( 'NONE', #346, #274, #241 ) ;
#67 = AXIS2_PLACEMENT_3D ( 'NONE', #279, #446, #415 ) ;
#68 = CARTESIAN_POINT ( 'NONE',  ( 249.5000000000000000, 9.184850993605173582E-16, 25.00000000000000000 ) ) ;
#69 = DIRECTION ( 'NONE',  ( 0.000000000000000000, 0.000000000000000000, 1.000000000000000000 ) ) ;
#70 = CALENDAR_DATE ( 2026, 21, 9 ) ;
#71 = CARTESIAN_POINT ( 'NONE',  ( -249.9999999999999147, -12.50000000000000000, 12.50000000000000000 ) ) ;
#72 = PERSON ( 'UNSPECIFIED', 'UNSPECIFIED', 'UNSPECIFIED', ('UNSPECIFIED'), ('UNSPECIFIED'), ('UNSPECIFIED') ) ;
#73 = DATE_AND_TIME ( #70, #285 ) ;
#74 = DIRECTION ( 'NONE',  ( 1.000000000000000000, 0.000000000000000000, 0.000000000000000000 ) ) ;
#75 = CARTESIAN_POINT ( 'NONE',  ( -250.0000000000000000, 0.5000000000000022204, 12.50000000000000000 ) ) ;
#76 = CC_DESIGN_APPROVAL ( #117, ( #448 ) ) ;
#77 = EDGE_CURVE ( 'NONE', #429, #280, #417, .T. ) ;
#78 = LINE ( 'NONE', #433, #175 ) ;
#79 = CARTESIAN_POINT ( 'NONE',  ( -250.0000000000000000, 0.5000000000000022204, 25.00000000000000000 ) ) ;
#80 = CARTESIAN_POINT ( 'NONE',  ( -262.0000000000000000, 0.4999999999999154565, 25.00000000000000000 ) ) ;
#81 = EDGE_LOOP ( 'NONE', ( #56, #99, #156, #12, #85, #217 ) ) ;
#82 = DIRECTION ( 'NONE',  ( 1.000000000000000000, 0.000000000000000000, 0.000000000000000000 ) ) ;
#83 = AXIS2_PLACEMENT_3D ( 'NONE', #368, #337, #297 ) ;
#84 = LINE ( 'NONE', #390, #383 ) ;
#85 = ORIENTED_EDGE ( 'NONE', *, *, #77, .T. ) ;
#86 = APPLICATION_CONTEXT ( 'configuration controlled 3d designs of mechanical parts and assemblies' ) ;
#87 = DIRECTION ( 'NONE',  ( 0.000000000000000000, 0.000000000000000000, 1.000000000000000000 ) ) ;
#88 = ORIENTED_EDGE ( 'NONE', *, *, #222, .F. ) ;
#89 = EDGE_CURVE ( 'NONE', #370, #429, #314, .T. ) ;
#90 = DIRECTION ( 'NONE',  ( 1.000000000000000000, 0.000000000000000000, 0.000000000000000000 ) ) ;
#91 = LOCAL_TIME ( 22, 52, 24.00000000000000000, #37 ) ;
#92 = ORIENTED_EDGE ( 'NONE', *, *, #213, .F. ) ;
#93 = FACE_OUTER_BOUND ( 'NONE', #302, .T. ) ;
#94 = ORIENTED_EDGE ( 'NONE', *, *, #124, .F. ) ;
#95 = DIRECTION ( 'NONE',  ( 0.000000000000000000, 1.000000000000000000, -0.000000000000000000 ) ) ;
#96 = ORIENTED_EDGE ( 'NONE', *, *, #178, .F. ) ;
#97 = EDGE_CURVE ( 'NONE', #145, #21, #55, .T. ) ;
#98 = CARTESIAN_POINT ( 'NONE',  ( -262.0000000000000000, -0.4999999999999154565, 25.00000000000000000 ) ) ;
#99 = ORIENTED_EDGE ( 'NONE', *, *, #222, .T. ) ;
#100 = PERSON_AND_ORGANIZATION ( #72, #122 ) ;
#101 = CYLINDRICAL_SURFACE ( 'NONE', #66, 7.500000000000007105 ) ;
#102 = VECTOR ( 'NONE', #304, 1000.000000000000000 ) ;
#103 = CALENDAR_DATE ( 2026, 21, 9 ) ;
#104 = DIRECTION ( 'NONE',  ( 0.000000000000000000, 0.000000000000000000, 1.000000000000000000 ) ) ;
#105 = DATE_AND_TIME ( #28, #91 ) ;
#106 = FACE_OUTER_BOUND ( 'NONE', #269, .T. ) ;
#107 = SHAPE_DEFINITION_REPRESENTATION ( #22, #441 ) ;
#108 = DIRECTION ( 'NONE',  ( -0.000000000000000000, -0.000000000000000000, -1.000000000000000000 ) ) ;
#109 = VECTOR ( 'NONE', #187, 1000.000000000000000 ) ;
#110 = APPLICATION_PROTOCOL_DEFINITION ( 'international standard', 'config_control_design', 1994, #176 ) ;
#111 = PLANE ( 'NONE',  #198 ) ;
#112 = CC_DESIGN_DATE_AND_TIME_ASSIGNMENT ( #73, #246, ( #448 ) ) ;
#113 = ADVANCED_FACE ( 'NONE', ( #164, #276, #203 ), #140, .T. ) ;
#114 = DIRECTION ( 'NONE',  ( -0.000000000000000000, -0.000000000000000000, -1.000000000000000000 ) ) ;
#115 = CC_DESIGN_APPROVAL ( #455, ( #165 ) ) ;
#116 = DIRECTION ( 'NONE',  ( -0.000000000000000000, -0.000000000000000000, -1.000000000000000000 ) ) ;
#117 = APPROVAL ( #450, 'UNSPECIFIED' ) ;
#118 = CARTESIAN_POINT ( 'NONE',  ( -249.9999999999999147, 12.50000000000000533, 25.00000000000000000 ) ) ;
#119 = FACE_OUTER_BOUND ( 'NONE', #58, .T. ) ;
#120 = ORIENTED_EDGE ( 'NONE', *, *, #392, .F. ) ;
#121 = DIRECTION ( 'NONE',  ( 0.000000000000000000, 0.000000000000000000, 1.000000000000000000 ) ) ;
#122 = ORGANIZATION ( 'UNSPECIFIED', 'UNSPECIFIED', '' ) ;
#123 = CARTESIAN_POINT ( 'NONE',  ( -234.5000000000000000, 9.184850993605165694E-16, 25.00000000000000000 ) ) ;
#124 = EDGE_CURVE ( 'NONE', #370, #258, #278, .T. ) ;
#125 = ORIENTED_EDGE ( 'NONE', *, *, #283, .F. ) ;
#126 =( NAMED_UNIT ( * ) SI_UNIT ( $, .STERADIAN. ) SOLID_ANGLE_UNIT ( ) );
#127 = ORIENTED_EDGE ( 'NONE', *, *, #25, .T. ) ;
#128 = CC_DESIGN_PERSON_AND_ORGANIZATION_ASSIGNMENT ( #350, #204, ( #448 ) ) ;
#129 = AXIS2_PLACEMENT_3D ( 'NONE', #79, #147, #366 ) ;
#130 = LINE ( 'NONE', #15, #152 ) ;
#131 = CIRCLE ( 'NONE', #384, 7.500000000000007105 ) ;
#132 = ORIENTED_EDGE ( 'NONE', *, *, #380, .T. ) ;
#133 = CARTESIAN_POINT ( 'NONE',  ( -234.5000000000000000, 9.184850993605173582E-16, 12.50000000000000000 ) ) ;
#134 = VERTEX_POINT ( 'NONE', #389 ) ;
#135 = DIRECTION ( 'NONE',  ( 0.000000000000000000, 0.000000000000000000, 1.000000000000000000 ) ) ;
#136 = ORIENTED_EDGE ( 'NONE', *, *, #380, .F. ) ;
#137 = PLANE ( 'NONE',  #317 ) ;
#138 = APPROVAL_DATE_TIME ( #163, #391 ) ;
#139 = DIRECTION ( 'NONE',  ( 0.000000000000000000, 1.000000000000000000, 0.000000000000000000 ) ) ;
#140 = PLANE ( 'NONE',  #41 ) ;
#141 = EDGE_CURVE ( 'NONE', #266, #258, #273, .T. ) ;
#142 = CARTESIAN_POINT ( 'NONE',  ( -249.5000000000000000, 0.000000000000000000, 12.50000000000000000 ) ) ;
#143 = CARTESIAN_POINT ( 'NONE',  ( -250.0000000000000000, 12.50000000000000000, 12.50000000000000000 ) ) ;
#144 = DIRECTION ( 'NONE',  ( 1.000000000000000000, -0.000000000000000000, -0.000000000000000000 ) ) ;
#145 = VERTEX_POINT ( 'NONE', #416 ) ;
#146 = DIRECTION ( 'NONE',  ( 0.000000000000000000, 0.000000000000000000, 1.000000000000000000 ) ) ;
#147 = DIRECTION ( 'NONE',  ( 0.000000000000000000, 0.000000000000000000, 1.000000000000000000 ) ) ;
#148 = DIRECTION ( 'NONE',  ( -0.000000000000000000, 1.000000000000000000, -0.000000000000000000 ) ) ;
#149 = ORIENTED_EDGE ( 'NONE', *, *, #186, .T. ) ;
#150 = ADVANCED_FACE ( 'NONE', ( #119 ), #360, .T. ) ;
#151 = CIRCLE ( 'NONE', #5, 7.500000000000007105 ) ;
#152 = VECTOR ( 'NONE', #148, 1000.000000000000000 ) ;
#153 = CARTESIAN_POINT ( 'NONE',  ( 262.0000000000000000, 12.50000000000000000, 25.00000000000000000 ) ) ;
#154 = ORIENTED_EDGE ( 'NONE', *, *, #367, .F. ) ;
#155 = CARTESIAN_POINT ( 'NONE',  ( 234.5000000000000000, 0.000000000000000000, 25.00000000000000000 ) ) ;
#156 = ORIENTED_EDGE ( 'NONE', *, *, #193, .T. ) ;
#157 = ORIENTED_EDGE ( 'NONE', *, *, #355, .T. ) ;
#158 = DIRECTION ( 'NONE',  ( -1.000000000000000000, 0.000000000000000000, 0.000000000000000000 ) ) ;
#159 = VECTOR ( 'NONE', #299, 1000.000000000000000 ) ;
#160 = ORIENTED_EDGE ( 'NONE', *, *, #305, .T. ) ;
#161 = APPROVAL_STATUS ( 'not_yet_approved' ) ;
#162 = ORIENTED_EDGE ( 'NONE', *, *, #283, .T. ) ;
#163 = DATE_AND_TIME ( #378, #405 ) ;
#164 = FACE_BOUND ( 'NONE', #16, .T. ) ;
#165 = PRODUCT_DEFINITION_FORMATION_WITH_SPECIFIED_SOURCE ( 'ANY', '', #201, .NOT_KNOWN. ) ;
#166 = ADVANCED_FACE ( 'NONE', ( #219 ), #7, .F. ) ;
#167 = ORIENTED_EDGE ( 'NONE', *, *, #20, .F. ) ;
#168 = AXIS2_PLACEMENT_3D ( 'NONE', #239, #104, #74 ) ;
#169 = COORDINATED_UNIVERSAL_TIME_OFFSET ( 5, 30, .AHEAD. ) ;
#170 = DIRECTION ( 'NONE',  ( 0.000000000000000000, 0.000000000000000000, 1.000000000000000000 ) ) ;
#171 = PERSON_AND_ORGANIZATION ( #72, #122 ) ;
#172 = EDGE_CURVE ( 'NONE', #21, #381, #179, .T. ) ;
#173 = CARTESIAN_POINT ( 'NONE',  ( -262.0000000000000000, 12.50000000000000000, 12.50000000000000000 ) ) ;
#174 = DIRECTION ( 'NONE',  ( 0.000000000000000000, 0.000000000000000000, 1.000000000000000000 ) ) ;
#175 = VECTOR ( 'NONE', #287, 1000.000000000000000 ) ;
#176 = APPLICATION_CONTEXT ( 'configuration controlled 3d designs of mechanical parts and assemblies' ) ;
#177 = CARTESIAN_POINT ( 'NONE',  ( -242.0000000000000000, 0.000000000000000000, 25.00000000000000000 ) ) ;
#178 = EDGE_CURVE ( 'NONE', #232, #407, #409, .T. ) ;
#179 = LINE ( 'NONE', #394, #182 ) ;
#180 = ORIENTED_EDGE ( 'NONE', *, *, #213, .T. ) ;
#181 = CARTESIAN_POINT ( 'NONE',  ( -249.9999999999999147, -12.50000000000000000, 25.00000000000000000 ) ) ;
#182 = VECTOR ( 'NONE', #362, 1000.000000000000000 ) ;
#183 = UNCERTAINTY_MEASURE_WITH_UNIT (LENGTH_MEASURE( 1.000000000000000082E-05 ), #57, 'distance_accuracy_value', 'NONE');
#184 = AXIS2_PLACEMENT_3D ( 'NONE', #259, #435, #257 ) ;
#185 = DIRECTION ( 'NONE',  ( -0.000000000000000000, 0.000000000000000000, -1.000000000000000000 ) ) ;
#186 = EDGE_CURVE ( 'NONE', #407, #232, #208, .T. ) ;
#187 = DIRECTION ( 'NONE',  ( -0.000000000000000000, -0.000000000000000000, -1.000000000000000000 ) ) ;
#188 = CC_DESIGN_SECURITY_CLASSIFICATION ( #332, ( #165 ) ) ;
#189 = LINE ( 'NONE', #17, #245 ) ;
#190 = ORIENTED_EDGE ( 'NONE', *, *, #305, .F. ) ;
#191 = CARTESIAN_POINT ( 'NONE',  ( 262.0000000000000000, 12.50000000000000000, 25.00000000000000000 ) ) ;
#192 = VERTEX_POINT ( 'NONE', #218 ) ;
#193 = EDGE_CURVE ( 'NONE', #192, #370, #326, .T. ) ;
#194 = LINE ( 'NONE', #196, #238 ) ;
#195 = ORIENTED_EDGE ( 'NONE', *, *, #335, .T. ) ;
#196 = CARTESIAN_POINT ( 'NONE',  ( -262.0000000000000000, 12.50000000000000000, 12.50000000000000000 ) ) ;
#197 = ORIENTED_EDGE ( 'NONE', *, *, #202, .T. ) ;
#198 = AXIS2_PLACEMENT_3D ( 'NONE', #272, #32, #211 ) ;
#199 = DATE_AND_TIME ( #347, #39 ) ;
#200 = ORIENTED_EDGE ( 'NONE', *, *, #250, .F. ) ;
#201 = PRODUCT ( 'i_Default_sldprt', 'i_Default_sldprt', '', ( #31 ) ) ;
#202 = EDGE_CURVE ( 'NONE', #373, #134, #84, .T. ) ;
#203 = FACE_BOUND ( 'NONE', #398, .T. ) ;
#204 = PERSON_AND_ORGANIZATION_ROLE ( 'creator' ) ;
#205 = DIRECTION ( 'NONE',  ( 0.000000000000000000, -1.000000000000000000, 0.000000000000000000 ) ) ;
#206 = APPROVAL_STATUS ( 'not_yet_approved' ) ;
#207 = DIRECTION ( 'NONE',  ( 1.000000000000000000, 0.000000000000000000, 0.000000000000000000 ) ) ;
#208 = CIRCLE ( 'NONE', #408, 7.500000000000007105 ) ;
#209 = CARTESIAN_POINT ( 'NONE',  ( -249.9999999999999147, -12.50000000000000000, 25.00000000000000000 ) ) ;
#210 = MANIFOLD_SOLID_BREP ( 'Cut-Extrude1', #228 ) ;
#211 = DIRECTION ( 'NONE',  ( 0.000000000000000000, -0.000000000000000000, -1.000000000000000000 ) ) ;
#212 = APPROVAL_PERSON_ORGANIZATION ( #422, #391, #313 ) ;
#213 = EDGE_CURVE ( 'NONE', #280, #21, #363, .T. ) ;
#214 = CARTESIAN_POINT ( 'NONE',  ( 262.0000000000000000, -12.50000000000000000, 25.00000000000000000 ) ) ;
#215 = VECTOR ( 'NONE', #205, 1000.000000000000000 ) ;
#216 = CARTESIAN_POINT ( 'NONE',  ( -249.9999999999999147, -12.50000000000000000, 25.00000000000000000 ) ) ;
#217 = ORIENTED_EDGE ( 'NONE', *, *, #414, .T. ) ;
#218 = CARTESIAN_POINT ( 'NONE',  ( -249.9999999999999147, 12.50000000000000533, 25.00000000000000000 ) ) ;
#219 = FACE_OUTER_BOUND ( 'NONE', #38, .T. ) ;
#220 = ORIENTED_EDGE ( 'NONE', *, *, #432, .F. ) ;
#221 = AXIS2_PLACEMENT_3D ( 'NONE', #261, #87, #90 ) ;
#222 = EDGE_CURVE ( 'NONE', #438, #192, #325, .T. ) ;
#223 = CARTESIAN_POINT ( 'NONE',  ( -249.9999999999999147, 12.50000000000000000, 25.00000000000000000 ) ) ;
#224 = FACE_OUTER_BOUND ( 'NONE', #286, .T. ) ;
#225 = VERTEX_POINT ( 'NONE', #291 ) ;
#226 =( NAMED_UNIT ( * ) PLANE_ANGLE_UNIT ( ) SI_UNIT ( $, .RADIAN. ) );
#227 = ORIENTED_EDGE ( 'NONE', *, *, #400, .F. ) ;
#228 = CLOSED_SHELL ( 'NONE', ( #29, #320, #113, #387, #9, #331, #166, #150, #63, #418, #449, #44 ) ) ;
#229 = LINE ( 'NONE', #231, #443 ) ;
#230 = ORIENTED_EDGE ( 'NONE', *, *, #124, .T. ) ;
#231 = CARTESIAN_POINT ( 'NONE',  ( 262.0000000000000000, 12.50000000000000000, 12.50000000000000000 ) ) ;
#232 = VERTEX_POINT ( 'NONE', #11 ) ;
#233 = LINE ( 'NONE', #123, #281 ) ;
#234 = VERTEX_POINT ( 'NONE', #10 ) ;
#235 = EDGE_CURVE ( 'NONE', #266, #234, #327, .T. ) ;
#236 = AXIS2_PLACEMENT_3D ( 'NONE', #209, #139, #33 ) ;
#237 = PERSON_AND_ORGANIZATION ( #72, #122 ) ;
#238 = VECTOR ( 'NONE', #64, 1000.000000000000000 ) ;
#239 = CARTESIAN_POINT ( 'NONE',  ( -250.0000000000000000, -0.5000000000000022204, 12.50000000000000000 ) ) ;
#240 = CARTESIAN_POINT ( 'NONE',  ( -262.0000000000000000, 0.4999999999999154565, 25.00000000000000000 ) ) ;
#241 = DIRECTION ( 'NONE',  ( -1.000000000000000000, 0.000000000000000000, 0.000000000000000000 ) ) ;
#242 = APPROVAL_PERSON_ORGANIZATION ( #271, #455, #277 ) ;
#243 = APPROVAL_DATE_TIME ( #353, #455 ) ;
#244 = DIRECTION ( 'NONE',  ( 1.000000000000000000, 0.000000000000000000, -0.000000000000000000 ) ) ;
#245 = VECTOR ( 'NONE', #294, 1000.000000000000000 ) ;
#246 = DATE_TIME_ROLE ( 'creation_date' ) ;
#247 = CARTESIAN_POINT ( 'NONE',  ( -242.0000000000000000, 0.000000000000000000, 12.50000000000000000 ) ) ;
#248 = DIRECTION ( 'NONE',  ( 1.000000000000000000, 0.000000000000000000, 0.000000000000000000 ) ) ;
#249 = APPROVAL_PERSON_ORGANIZATION ( #171, #117, #388 ) ;
#250 = EDGE_CURVE ( 'NONE', #225, #134, #365, .T. ) ;
#251 = CARTESIAN_POINT ( 'NONE',  ( -242.0000000000000000, 0.000000000000000000, 25.00000000000000000 ) ) ;
#252 = ORIENTED_EDGE ( 'NONE', *, *, #59, .F. ) ;
#253 = CARTESIAN_POINT ( 'NONE',  ( 242.0000000000000000, 0.000000000000000000, 12.50000000000000000 ) ) ;
#254 = DIRECTION ( 'NONE',  ( 0.000000000000000000, 0.000000000000000000, 1.000000000000000000 ) ) ;
#255 = VERTEX_POINT ( 'NONE', #142 ) ;
#256 = DIRECTION ( 'NONE',  ( -1.000000000000000000, 0.000000000000000000, 0.000000000000000000 ) ) ;
#257 = DIRECTION ( 'NONE',  ( 1.000000000000000000, 0.000000000000000000, 0.000000000000000000 ) ) ;
#258 = VERTEX_POINT ( 'NONE', #282 ) ;
#259 = CARTESIAN_POINT ( 'NONE',  ( 242.0000000000000000, 0.000000000000000000, 25.00000000000000000 ) ) ;
#260 = EDGE_LOOP ( 'NONE', ( #149, #26, #442, #413 ) ) ;
#261 = CARTESIAN_POINT ( 'NONE',  ( 242.0000000000000000, 0.000000000000000000, 25.00000000000000000 ) ) ;
#262 = ORIENTED_EDGE ( 'NONE', *, *, #193, .F. ) ;
#263 = AXIS2_PLACEMENT_3D ( 'NONE', #430, #393, #248 ) ;
#264 = CIRCLE ( 'NONE', #221, 7.500000000000007105 ) ;
#265 = FACE_OUTER_BOUND ( 'NONE', #447, .T. ) ;
#266 = VERTEX_POINT ( 'NONE', #143 ) ;
#267 = EDGE_CURVE ( 'NONE', #192, #266, #427, .T. ) ;
#268 = DIRECTION ( 'NONE',  ( -0.000000000000000000, -0.000000000000000000, -1.000000000000000000 ) ) ;
#269 = EDGE_LOOP ( 'NONE', ( #132, #342, #36, #88 ) ) ;
#270 = CC_DESIGN_PERSON_AND_ORGANIZATION_ASSIGNMENT ( #425, #275, ( #201 ) ) ;
#271 = PERSON_AND_ORGANIZATION ( #72, #122 ) ;
#272 = CARTESIAN_POINT ( 'NONE',  ( -249.9999999999999147, 12.50000000000000000, 25.00000000000000000 ) ) ;
#273 = CIRCLE ( 'NONE', #336, 12.00000000000001066 ) ;
#274 = DIRECTION ( 'NONE',  ( -0.000000000000000000, -0.000000000000000000, -1.000000000000000000 ) ) ;
#275 = PERSON_AND_ORGANIZATION_ROLE ( 'design_owner' ) ;
#276 = FACE_OUTER_BOUND ( 'NONE', #81, .T. ) ;
#277 = APPROVAL_ROLE ( '' ) ;
#278 = LINE ( 'NONE', #426, #357 ) ;
#279 = CARTESIAN_POINT ( 'NONE',  ( 0.000000000000000000, 0.000000000000000000, 0.000000000000000000 ) ) ;
#280 = VERTEX_POINT ( 'NONE', #216 ) ;
#281 = VECTOR ( 'NONE', #401, 1000.000000000000000 ) ;
#282 = CARTESIAN_POINT ( 'NONE',  ( -262.0000000000000000, 0.4999999999999154565, 12.50000000000000000 ) ) ;
#283 = EDGE_CURVE ( 'NONE', #429, #145, #78, .T. ) ;
#284 = DIRECTION ( 'NONE',  ( -0.000000000000000000, -0.000000000000000000, -1.000000000000000000 ) ) ;
#285 = LOCAL_TIME ( 22, 52, 24.00000000000000000, #35 ) ;
#286 = EDGE_LOOP ( 'NONE', ( #252, #195, #197, #200 ) ) ;
#287 = DIRECTION ( 'NONE',  ( -0.000000000000000000, -0.000000000000000000, -1.000000000000000000 ) ) ;
#288 = AXIS2_PLACEMENT_3D ( 'NONE', #49, #114, #323 ) ;
#289 = CC_DESIGN_DATE_AND_TIME_ASSIGNMENT ( #105, #453, ( #332 ) ) ;
#290 = DIRECTION ( 'NONE',  ( 1.000000000000000000, 0.000000000000000000, 0.000000000000000000 ) ) ;
#291 = CARTESIAN_POINT ( 'NONE',  ( 249.5000000000000000, 9.184850993605173582E-16, 12.50000000000000000 ) ) ;
#292 = ORIENTED_EDGE ( 'NONE', *, *, #250, .T. ) ;
#293 = LOCAL_TIME ( 22, 52, 24.00000000000000000, #169 ) ;
#294 = DIRECTION ( 'NONE',  ( -0.000000000000000000, -0.000000000000000000, -1.000000000000000000 ) ) ;
#295 = CIRCLE ( 'NONE', #452, 7.500000000000007105 ) ;
#296 = VECTOR ( 'NONE', #144, 1000.000000000000000 ) ;
#297 = DIRECTION ( 'NONE',  ( -1.000000000000000000, 0.000000000000000000, 0.000000000000000000 ) ) ;
#298 = VERTEX_POINT ( 'NONE', #214 ) ;
#299 = DIRECTION ( 'NONE',  ( 1.000000000000000000, 0.000000000000000000, 0.000000000000000000 ) ) ;
#300 = ORIENTED_EDGE ( 'NONE', *, *, #178, .T. ) ;
#301 = CARTESIAN_POINT ( 'NONE',  ( -242.0000000000000000, 0.000000000000000000, 25.00000000000000000 ) ) ;
#302 = EDGE_LOOP ( 'NONE', ( #61, #439, #136, #227 ) ) ;
#303 = AXIS2_PLACEMENT_3D ( 'NONE', #301, #339, #410 ) ;
#304 = DIRECTION ( 'NONE',  ( -0.000000000000000000, -0.000000000000000000, -1.000000000000000000 ) ) ;
#305 = EDGE_CURVE ( 'NONE', #134, #225, #131, .T. ) ;
#306 = ORIENTED_EDGE ( 'NONE', *, *, #367, .T. ) ;
#307 = ORIENTED_EDGE ( 'NONE', *, *, #267, .T. ) ;
#308 = CC_DESIGN_APPROVAL ( #391, ( #332 ) ) ;
#309 = APPLICATION_PROTOCOL_DEFINITION ( 'international standard', 'config_control_design', 1994, #86 ) ;
#310 = CARTESIAN_POINT ( 'NONE',  ( -250.0000000000000000, -0.5000000000000022204, 25.00000000000000000 ) ) ;
#311 = APPROVAL_DATE_TIME ( #199, #117 ) ;
#312 = CARTESIAN_POINT ( 'NONE',  ( -242.0000000000000000, 0.000000000000000000, 12.50000000000000000 ) ) ;
#313 = APPROVAL_ROLE ( '' ) ;
#314 = LINE ( 'NONE', #240, #215 ) ;
#315 = COORDINATED_UNIVERSAL_TIME_OFFSET ( 5, 30, .AHEAD. ) ;
#316 = FACE_BOUND ( 'NONE', #340, .T. ) ;
#317 = AXIS2_PLACEMENT_3D ( 'NONE', #173, #69, #244 ) ;
#318 = DIRECTION ( 'NONE',  ( 1.000000000000000000, 0.000000000000000000, 0.000000000000000000 ) ) ;
#319 = VECTOR ( 'NONE', #268, 1000.000000000000000 ) ;
#320 = ADVANCED_FACE ( 'NONE', ( #358 ), #43, .F. ) ;
#321 = CYLINDRICAL_SURFACE ( 'NONE', #437, 12.00000000000001066 ) ;
#322 = ORIENTED_EDGE ( 'NONE', *, *, #235, .T. ) ;
#323 = DIRECTION ( 'NONE',  ( -1.000000000000000000, 0.000000000000000000, 0.000000000000000000 ) ) ;
#324 = EDGE_LOOP ( 'NONE', ( #180, #65, #120, #404 ) ) ;
#325 = LINE ( 'NONE', #223, #42 ) ;
#326 = CIRCLE ( 'NONE', #129, 12.00000000000001066 ) ;
#327 = LINE ( 'NONE', #8, #296 ) ;
#328 = ORIENTED_EDGE ( 'NONE', *, *, #352, .F. ) ;
#329 = DESIGN_CONTEXT ( 'detailed design', #176, 'design' ) ;
#330 = PLANE ( 'NONE',  #424 ) ;
#331 = ADVANCED_FACE ( 'NONE', ( #431 ), #321, .T. ) ;
#332 = SECURITY_CLASSIFICATION ( '', '', #420 ) ;
#333 = CARTESIAN_POINT ( 'NONE',  ( -262.0000000000000000, 0.4999999999999154565, 25.00000000000000000 ) ) ;
#334 = EDGE_LOOP ( 'NONE', ( #23, #376, #154, #402, #322, #328 ) ) ;
#335 = EDGE_CURVE ( 'NONE', #14, #373, #27, .T. ) ;
#336 = AXIS2_PLACEMENT_3D ( 'NONE', #75, #356, #318 ) ;
#337 = DIRECTION ( 'NONE',  ( -0.000000000000000000, -0.000000000000000000, -1.000000000000000000 ) ) ;
#338 = EDGE_LOOP ( 'NONE', ( #307, #364, #94, #262 ) ) ;
#339 = DIRECTION ( 'NONE',  ( -0.000000000000000000, -0.000000000000000000, -1.000000000000000000 ) ) ;
#340 = EDGE_LOOP ( 'NONE', ( #127, #451 ) ) ;
#341 = CARTESIAN_POINT ( 'NONE',  ( -249.9999999999999147, -12.50000000000000000, 25.00000000000000000 ) ) ;
#342 = ORIENTED_EDGE ( 'NONE', *, *, #235, .F. ) ;
#343 = PERSON_AND_ORGANIZATION_ROLE ( 'creator' ) ;
#344 = ORIENTED_EDGE ( 'NONE', *, *, #59, .T. ) ;
#345 = COORDINATED_UNIVERSAL_TIME_OFFSET ( 5, 30, .AHEAD. ) ;
#346 = CARTESIAN_POINT ( 'NONE',  ( 242.0000000000000000, 0.000000000000000000, 25.00000000000000000 ) ) ;
#347 = CALENDAR_DATE ( 2026, 21, 9 ) ;
#348 = DIRECTION ( 'NONE',  ( 1.000000000000000000, 0.000000000000000000, -0.000000000000000000 ) ) ;
#349 = VECTOR ( 'NONE', #351, 1000.000000000000000 ) ;
#350 = PERSON_AND_ORGANIZATION ( #72, #122 ) ;
#351 = DIRECTION ( 'NONE',  ( -0.000000000000000000, -0.000000000000000000, -1.000000000000000000 ) ) ;
#352 = EDGE_CURVE ( 'NONE', #381, #234, #229, .T. ) ;
#353 = DATE_AND_TIME ( #103, #293 ) ;
#354 = DIRECTION ( 'NONE',  ( 1.000000000000000000, 0.000000000000000000, 0.000000000000000000 ) ) ;
#355 = EDGE_CURVE ( 'NONE', #407, #255, #412, .T. ) ;
#356 = DIRECTION ( 'NONE',  ( 0.000000000000000000, 0.000000000000000000, 1.000000000000000000 ) ) ;
#357 = VECTOR ( 'NONE', #108, 1000.000000000000000 ) ;
#358 = FACE_OUTER_BOUND ( 'NONE', #260, .T. ) ;
#359 = AXIS2_PLACEMENT_3D ( 'NONE', #13, #121, #51 ) ;
#360 = CYLINDRICAL_SURFACE ( 'NONE', #288, 12.00000000000001066 ) ;
#361 = EDGE_LOOP ( 'NONE', ( #46, #344, #190, #445 ) ) ;
#362 = DIRECTION ( 'NONE',  ( 1.000000000000000000, -0.000000000000000000, -0.000000000000000000 ) ) ;
#363 = LINE ( 'NONE', #181, #377 ) ;
#364 = ORIENTED_EDGE ( 'NONE', *, *, #141, .T. ) ;
#365 = CIRCLE ( 'NONE', #359, 7.500000000000007105 ) ;
#366 = DIRECTION ( 'NONE',  ( -1.000000000000000000, 0.000000000000000000, 0.000000000000000000 ) ) ;
#367 = EDGE_CURVE ( 'NONE', #258, #145, #194, .T. ) ;
#368 = CARTESIAN_POINT ( 'NONE',  ( 242.0000000000000000, 0.000000000000000000, 25.00000000000000000 ) ) ;
#369 = ORIENTED_EDGE ( 'NONE', *, *, #186, .F. ) ;
#370 = VERTEX_POINT ( 'NONE', #333 ) ;
#371 = AXIS2_PLACEMENT_3D ( 'NONE', #80, #45, #185 ) ;
#372 = CYLINDRICAL_SURFACE ( 'NONE', #83, 7.500000000000007105 ) ;
#373 = VERTEX_POINT ( 'NONE', #155 ) ;
#374 = ORIENTED_EDGE ( 'NONE', *, *, #335, .F. ) ;
#375 = LINE ( 'NONE', #444, #319 ) ;
#376 = ORIENTED_EDGE ( 'NONE', *, *, #97, .F. ) ;
#377 = VECTOR ( 'NONE', #116, 1000.000000000000000 ) ;
#378 = CALENDAR_DATE ( 2026, 21, 9 ) ;
#379 = CARTESIAN_POINT ( 'NONE',  ( 249.5000000000000000, 9.184850993605165694E-16, 25.00000000000000000 ) ) ;
#380 = EDGE_CURVE ( 'NONE', #438, #234, #375, .T. ) ;
#381 = VERTEX_POINT ( 'NONE', #403 ) ;
#382 = LINE ( 'NONE', #379, #349 ) ;
#383 = VECTOR ( 'NONE', #47, 1000.000000000000000 ) ;
#384 = AXIS2_PLACEMENT_3D ( 'NONE', #253, #146, #290 ) ;
#385 = PERSON_AND_ORGANIZATION_ROLE ( 'classification_officer' ) ;
#386 = FACE_OUTER_BOUND ( 'NONE', #334, .T. ) ;
#387 = ADVANCED_FACE ( 'NONE', ( #93 ), #330, .F. ) ;
#388 = APPROVAL_ROLE ( '' ) ;
#389 = CARTESIAN_POINT ( 'NONE',  ( 234.5000000000000000, 0.000000000000000000, 12.50000000000000000 ) ) ;
#390 = CARTESIAN_POINT ( 'NONE',  ( 234.5000000000000000, 0.000000000000000000, 25.00000000000000000 ) ) ;
#391 = APPROVAL ( #161, 'UNSPECIFIED' ) ;
#392 = EDGE_CURVE ( 'NONE', #298, #381, #189, .T. ) ;
#393 = DIRECTION ( 'NONE',  ( 0.000000000000000000, 0.000000000000000000, 1.000000000000000000 ) ) ;
#394 = CARTESIAN_POINT ( 'NONE',  ( -262.0000000000000000, -12.50000000000000000, 12.50000000000000000 ) ) ;
#395 = DIRECTION ( 'NONE',  ( -0.000000000000000000, -0.000000000000000000, -1.000000000000000000 ) ) ;
#396 = ORIENTED_EDGE ( 'NONE', *, *, #434, .F. ) ;
#397 = DIRECTION ( 'NONE',  ( -1.000000000000000000, -0.000000000000000000, -0.000000000000000000 ) ) ;
#398 = EDGE_LOOP ( 'NONE', ( #396, #374 ) ) ;
#399 = CC_DESIGN_PERSON_AND_ORGANIZATION_ASSIGNMENT ( #1, #385, ( #332 ) ) ;
#400 = EDGE_CURVE ( 'NONE', #298, #438, #130, .T. ) ;
#401 = DIRECTION ( 'NONE',  ( -0.000000000000000000, -0.000000000000000000, -1.000000000000000000 ) ) ;
#402 = ORIENTED_EDGE ( 'NONE', *, *, #141, .F. ) ;
#403 = CARTESIAN_POINT ( 'NONE',  ( 262.0000000000000000, -12.50000000000000000, 12.50000000000000000 ) ) ;
#404 = ORIENTED_EDGE ( 'NONE', *, *, #414, .F. ) ;
#405 = LOCAL_TIME ( 22, 52, 24.00000000000000000, #345 ) ;
#406 = CARTESIAN_POINT ( 'NONE',  ( -249.5000000000000000, 0.000000000000000000, 25.00000000000000000 ) ) ;
#407 = VERTEX_POINT ( 'NONE', #60 ) ;
#408 = AXIS2_PLACEMENT_3D ( 'NONE', #251, #254, #82 ) ;
#409 = CIRCLE ( 'NONE', #263, 7.500000000000007105 ) ;
#410 = DIRECTION ( 'NONE',  ( -1.000000000000000000, 0.000000000000000000, 0.000000000000000000 ) ) ;
#411 = VERTEX_POINT ( 'NONE', #133 ) ;
#412 = LINE ( 'NONE', #406, #102 ) ;
#413 = ORIENTED_EDGE ( 'NONE', *, *, #355, .F. ) ;
#414 = EDGE_CURVE ( 'NONE', #280, #298, #440, .T. ) ;
#415 = DIRECTION ( 'NONE',  ( 1.000000000000000000, 0.000000000000000000, 0.000000000000000000 ) ) ;
#416 = CARTESIAN_POINT ( 'NONE',  ( -262.0000000000000000, -0.5000000000000022204, 12.50000000000000000 ) ) ;
#417 = CIRCLE ( 'NONE', #436, 12.00000000000001066 ) ;
#418 = ADVANCED_FACE ( 'NONE', ( #265 ), #54, .F. ) ;
#419 = CARTESIAN_POINT ( 'NONE',  ( -250.0000000000000000, -0.5000000000000022204, 25.00000000000000000 ) ) ;
#420 = SECURITY_CLASSIFICATION_LEVEL ( 'unclassified' ) ;
#421 = DIRECTION ( 'NONE',  ( 0.000000000000000000, 0.000000000000000000, 1.000000000000000000 ) ) ;
#422 = PERSON_AND_ORGANIZATION ( #72, #122 ) ;
#423 = FACE_BOUND ( 'NONE', #50, .T. ) ;
#424 = AXIS2_PLACEMENT_3D ( 'NONE', #153, #158, #24 ) ;
#425 = PERSON_AND_ORGANIZATION ( #72, #122 ) ;
#426 = CARTESIAN_POINT ( 'NONE',  ( -262.0000000000000000, 0.4999999999999154565, 25.00000000000000000 ) ) ;
#427 = LINE ( 'NONE', #118, #109 ) ;
#428 = CARTESIAN_POINT ( 'NONE',  ( -250.0000000000000000, 0.5000000000000022204, 25.00000000000000000 ) ) ;
#429 = VERTEX_POINT ( 'NONE', #98 ) ;
#430 = CARTESIAN_POINT ( 'NONE',  ( -242.0000000000000000, 0.000000000000000000, 25.00000000000000000 ) ) ;
#431 = FACE_OUTER_BOUND ( 'NONE', #338, .T. ) ;
#432 = EDGE_CURVE ( 'NONE', #232, #411, #233, .T. ) ;
#433 = CARTESIAN_POINT ( 'NONE',  ( -262.0000000000000000, -0.4999999999999154565, 25.00000000000000000 ) ) ;
#434 = EDGE_CURVE ( 'NONE', #373, #14, #264, .T. ) ;
#435 = DIRECTION ( 'NONE',  ( 0.000000000000000000, 0.000000000000000000, 1.000000000000000000 ) ) ;
#436 = AXIS2_PLACEMENT_3D ( 'NONE', #419, #170, #4 ) ;
#437 = AXIS2_PLACEMENT_3D ( 'NONE', #428, #395, #52 ) ;
#438 = VERTEX_POINT ( 'NONE', #191 ) ;
#439 = ORIENTED_EDGE ( 'NONE', *, *, #352, .T. ) ;
#440 = LINE ( 'NONE', #341, #159 ) ;
#441 = ADVANCED_BREP_SHAPE_REPRESENTATION ( 'i_Default_sldprt', ( #210, #67 ), #6 ) ;
#442 = ORIENTED_EDGE ( 'NONE', *, *, #25, .F. ) ;
#443 = VECTOR ( 'NONE', #95, 1000.000000000000000 ) ;
#444 = CARTESIAN_POINT ( 'NONE',  ( 262.0000000000000000, 12.50000000000000000, 25.00000000000000000 ) ) ;
#445 = ORIENTED_EDGE ( 'NONE', *, *, #202, .F. ) ;
#446 = DIRECTION ( 'NONE',  ( 0.000000000000000000, 0.000000000000000000, 1.000000000000000000 ) ) ;
#447 = EDGE_LOOP ( 'NONE', ( #220, #300, #157, #167 ) ) ;
#448 = PRODUCT_DEFINITION ( 'UNKNOWN', '', #165, #329 ) ;
#449 = ADVANCED_FACE ( 'NONE', ( #224 ), #372, .F. ) ;
#450 = APPROVAL_STATUS ( 'not_yet_approved' ) ;
#451 = ORIENTED_EDGE ( 'NONE', *, *, #20, .T. ) ;
#452 = AXIS2_PLACEMENT_3D ( 'NONE', #312, #421, #207 ) ;
#453 = DATE_TIME_ROLE ( 'classification_date' ) ;
#454 = FACE_OUTER_BOUND ( 'NONE', #361, .T. ) ;
#455 = APPROVAL ( #206, 'UNSPECIFIED' ) ;
ENDSEC;
END-ISO-10303-21;
