ISO-10303-21;
HEADER;
FILE_DESCRIPTION (( 'STEP AP203' ),
    '1' );
FILE_NAME ('Initial part_Default_sldprt.STEP',
    '2026-09-19T06:38:21',
    ( '' ),
    ( '' ),
    'SwSTEP 2.0',
    'SolidWorks 2021',
    '' );
FILE_SCHEMA (( 'CONFIG_CONTROL_DESIGN' ));
ENDSEC;

DATA;
#1 = PLANE ( 'NONE',  #51 ) ;
#2 = ADVANCED_FACE ( 'NONE', ( #57, #272 ), #313, .F. ) ;
#3 = LINE ( 'NONE', #298, #444 ) ;
#4 = DIRECTION ( 'NONE',  ( 0.000000000000000000, 1.000000000000000000, 0.000000000000000000 ) ) ;
#5 = CALENDAR_DATE ( 2026, 19, 9 ) ;
#6 = VECTOR ( 'NONE', #393, 1000.000000000000000 ) ;
#7 = LOCAL_TIME ( 12, 8, 21.00000000000000000, #120 ) ;
#8 = LINE ( 'NONE', #119, #130 ) ;
#9 = APPROVAL_STATUS ( 'not_yet_approved' ) ;
#10 = APPROVAL ( #234, 'UNSPECIFIED' ) ;
#11 = LINE ( 'NONE', #156, #327 ) ;
#12 = APPROVAL_ROLE ( '' ) ;
#13 =( BOUNDED_CURVE ( )  B_SPLINE_CURVE ( 3, ( #329, #71, #292, #76 ),
 .UNSPECIFIED., .F., .T. ) 
 B_SPLINE_CURVE_WITH_KNOTS ( ( 4, 4 ),
 ( 0.000000000000000000, 3.141592653589793116 ),
 .UNSPECIFIED. ) 
 CURVE ( )  GEOMETRIC_REPRESENTATION_ITEM ( )  RATIONAL_B_SPLINE_CURVE ( ( 1.000000000000000000, 0.3333333333333333703, 0.3333333333333333703, 1.000000000000000000 ) ) 
 REPRESENTATION_ITEM ( '' )  );
#14 = CARTESIAN_POINT ( 'NONE',  ( -56.00000000000002842, 0.000000000000000000, 53.79999999999999716 ) ) ;
#15 = PERSON ( 'UNSPECIFIED', 'UNSPECIFIED', 'UNSPECIFIED', ('UNSPECIFIED'), ('UNSPECIFIED'), ('UNSPECIFIED') ) ;
#16 = ADVANCED_FACE ( 'NONE', ( #459 ), #23, .F. ) ;
#17 = DIRECTION ( 'NONE',  ( 0.9805806756909201116, 0.000000000000000000, 0.1961161351381843776 ) ) ;
#18 = VECTOR ( 'NONE', #316, 1000.000000000000000 ) ;
#19 = CC_DESIGN_APPROVAL ( #470, ( #186 ) ) ;
#20 = EDGE_CURVE ( 'NONE', #462, #248, #354, .T. ) ;
#21 = DIRECTION ( 'NONE',  ( -1.000000000000000000, 0.000000000000000000, 0.000000000000000000 ) ) ;
#22 = DIRECTION ( 'NONE',  ( -0.9805806756909202226, 0.000000000000000000, 0.1961161351381839890 ) ) ;
#23 = CYLINDRICAL_SURFACE ( 'NONE', #137, 3.000000000000002665 ) ;
#24 = VECTOR ( 'NONE', #315, 1000.000000000000000 ) ;
#25 = LOCAL_TIME ( 12, 8, 21.00000000000000000, #87 ) ;
#26 = CARTESIAN_POINT ( 'NONE',  ( 0.000000000000000000, -42.50000000000000000, 0.000000000000000000 ) ) ;
#27 = EDGE_CURVE ( 'NONE', #297, #460, #240, .T. ) ;
#28 = EDGE_CURVE ( 'NONE', #468, #397, #203, .T. ) ;
#29 = EDGE_LOOP ( 'NONE', ( #66, #204, #134, #250 ) ) ;
#30 = EDGE_CURVE ( 'NONE', #256, #335, #463, .T. ) ;
#31 = ORIENTED_EDGE ( 'NONE', *, *, #125, .F. ) ;
#32 = ORIENTED_EDGE ( 'NONE', *, *, #20, .F. ) ;
#33 = VERTEX_POINT ( 'NONE', #129 ) ;
#34 = CC_DESIGN_APPROVAL ( #10, ( #243 ) ) ;
#35 =( BOUNDED_CURVE ( )  B_SPLINE_CURVE ( 3, ( #415, #261, #367, #180 ),
 .UNSPECIFIED., .F., .T. ) 
 B_SPLINE_CURVE_WITH_KNOTS ( ( 4, 4 ),
 ( 3.141592653589793116, 6.283185307179586232 ),
 .UNSPECIFIED. ) 
 CURVE ( )  GEOMETRIC_REPRESENTATION_ITEM ( )  RATIONAL_B_SPLINE_CURVE ( ( 1.000000000000000000, 0.3333333333333333703, 0.3333333333333333703, 1.000000000000000000 ) ) 
 REPRESENTATION_ITEM ( '' )  );
#36 = ORIENTED_EDGE ( 'NONE', *, *, #314, .T. ) ;
#37 = CARTESIAN_POINT ( 'NONE',  ( 50.00000000000010658, 6.000000000000001776, 10.00000000000003908 ) ) ;
#38 = ORIENTED_EDGE ( 'NONE', *, *, #237, .F. ) ;
#39 = CARTESIAN_POINT ( 'NONE',  ( 50.00000000000010658, -6.000000000000001776, 10.00000000000003908 ) ) ;
#40 = ORIENTED_EDGE ( 'NONE', *, *, #27, .F. ) ;
#41 = DIRECTION ( 'NONE',  ( -1.000000000000000000, 0.000000000000000000, 0.000000000000000000 ) ) ;
#42 = ORIENTED_EDGE ( 'NONE', *, *, #306, .T. ) ;
#43 = CARTESIAN_POINT ( 'NONE',  ( -56.00000000000002842, 0.000000000000000000, 53.79999999999999716 ) ) ;
#44 = CARTESIAN_POINT ( 'NONE',  ( -56.00000000000002842, 0.000000000000000000, 11.20000000000000107 ) ) ;
#45 = DIRECTION ( 'NONE',  ( 0.000000000000000000, -1.000000000000000000, 0.000000000000000000 ) ) ;
#46 = FACE_OUTER_BOUND ( 'NONE', #104, .T. ) ;
#47 = MECHANICAL_CONTEXT ( 'NONE', #378, 'mechanical' ) ;
#48 = PERSON_AND_ORGANIZATION ( #15, #344 ) ;
#49 = DIRECTION ( 'NONE',  ( -0.000000000000000000, 1.000000000000000000, -0.000000000000000000 ) ) ;
#50 = APPROVAL_ROLE ( '' ) ;
#51 = AXIS2_PLACEMENT_3D ( 'NONE', #450, #469, #251 ) ;
#52 = DIRECTION ( 'NONE',  ( -0.000000000000000000, 1.000000000000000000, -0.000000000000000000 ) ) ;
#53 = PERSON_AND_ORGANIZATION ( #15, #344 ) ;
#54 = CARTESIAN_POINT ( 'NONE',  ( -56.00000000000002842, 6.000000000000003553, 11.19999999999999751 ) ) ;
#55 = APPROVAL_DATE_TIME ( #420, #470 ) ;
#56 = LINE ( 'NONE', #244, #6 ) ;
#57 = FACE_BOUND ( 'NONE', #99, .T. ) ;
#58 = EDGE_CURVE ( 'NONE', #404, #397, #205, .T. ) ;
#59 = DIRECTION ( 'NONE',  ( -0.9622504486493762554, 0.1924500897298750679, -0.1924500897298752067 ) ) ;
#60 = CC_DESIGN_PERSON_AND_ORGANIZATION_ASSIGNMENT ( #375, #264, ( #243 ) ) ;
#61 = ADVANCED_FACE ( 'NONE', ( #394 ), #199, .F. ) ;
#62 = CARTESIAN_POINT ( 'NONE',  ( 0.000000000000000000, -42.50000000000000000, 0.000000000000000000 ) ) ;
#63 = ADVANCED_FACE ( 'NONE', ( #321 ), #238, .F. ) ;
#64 = ORIENTED_EDGE ( 'NONE', *, *, #198, .F. ) ;
#65 = ORIENTED_EDGE ( 'NONE', *, *, #88, .F. ) ;
#66 = ORIENTED_EDGE ( 'NONE', *, *, #399, .F. ) ;
#67 = EDGE_CURVE ( 'NONE', #462, #256, #56, .T. ) ;
#68 = ADVANCED_FACE ( 'NONE', ( #318, #127 ), #356, .T. ) ;
#69 = FACE_BOUND ( 'NONE', #102, .T. ) ;
#70 = VERTEX_POINT ( 'NONE', #431 ) ;
#71 = CARTESIAN_POINT ( 'NONE',  ( -56.00000000000002842, -6.000000000000003553, 53.79999999999999716 ) ) ;
#72 = ORIENTED_EDGE ( 'NONE', *, *, #389, .T. ) ;
#73 = VECTOR ( 'NONE', #45, 1000.000000000000000 ) ;
#74 = DIRECTION ( 'NONE',  ( 0.000000000000000000, 0.000000000000000000, 1.000000000000000000 ) ) ;
#75 = EDGE_LOOP ( 'NONE', ( #360, #283, #294, #36 ) ) ;
#76 = CARTESIAN_POINT ( 'NONE',  ( -50.00000000000002132, 3.673940397442061347E-16, 55.00000000000000000 ) ) ;
#77 = DIRECTION ( 'NONE',  ( -0.9622504486493761444, -0.1924500897298752899, -0.1924500897298755675 ) ) ;
#78 = CARTESIAN_POINT ( 'NONE',  ( 50.00000000000010658, -1.694818351060767551E-28, 54.99999999999997158 ) ) ;
#79 = FACE_BOUND ( 'NONE', #427, .T. ) ;
#80 = DIRECTION ( 'NONE',  ( -1.000000000000000000, 0.000000000000000000, 0.000000000000000000 ) ) ;
#81 = AXIS2_PLACEMENT_3D ( 'NONE', #154, #177, #259 ) ;
#82 = CARTESIAN_POINT ( 'NONE',  ( 12.03703703703704342, 20.09259259259261299, 2.407407407407412769 ) ) ;
#83 = APPROVAL_ROLE ( '' ) ;
#84 =( BOUNDED_CURVE ( )  B_SPLINE_CURVE ( 3, ( #78, #476, #334, #147 ),
 .UNSPECIFIED., .F., .F. ) 
 B_SPLINE_CURVE_WITH_KNOTS ( ( 4, 4 ),
 ( 3.141592653589793116, 6.283185307179586232 ),
 .UNSPECIFIED. ) 
 CURVE ( )  GEOMETRIC_REPRESENTATION_ITEM ( )  RATIONAL_B_SPLINE_CURVE ( ( 1.000000000000000000, 0.3333333333333333703, 0.3333333333333333703, 1.000000000000000000 ) ) 
 REPRESENTATION_ITEM ( '' )  );
#85 = CARTESIAN_POINT ( 'NONE',  ( 50.00000000000010658, -1.694818351060767551E-28, 65.00000000000000000 ) ) ;
#86 = APPROVAL ( #9, 'UNSPECIFIED' ) ;
#87 = COORDINATED_UNIVERSAL_TIME_OFFSET ( 5, 30, .AHEAD. ) ;
#88 = EDGE_CURVE ( 'NONE', #248, #297, #242, .T. ) ;
#89 = CARTESIAN_POINT ( 'NONE',  ( -50.00000000000002132, 6.000000000000003553, 9.999999999999998224 ) ) ;
#90 = CALENDAR_DATE ( 2026, 19, 9 ) ;
#91 = DIRECTION ( 'NONE',  ( 0.000000000000000000, 0.000000000000000000, -1.000000000000000000 ) ) ;
#92 = COORDINATED_UNIVERSAL_TIME_OFFSET ( 5, 30, .AHEAD. ) ;
#93 = DIRECTION ( 'NONE',  ( 0.000000000000000000, 0.000000000000000000, -1.000000000000000000 ) ) ;
#94 = DATE_TIME_ROLE ( 'classification_date' ) ;
#95 = CARTESIAN_POINT ( 'NONE',  ( -60.00000000000001421, -22.50000000000000000, 65.00000000000000000 ) ) ;
#96 = AXIS2_PLACEMENT_3D ( 'NONE', #26, #133, #22 ) ;
#97 = CARTESIAN_POINT ( 'NONE',  ( -60.00000000000002842, 10.49999999999999645, 65.00000000000000000 ) ) ;
#98 = CARTESIAN_POINT ( 'NONE',  ( 60.00000000000002842, 10.50000000000000178, 65.00000000000000000 ) ) ;
#99 = EDGE_LOOP ( 'NONE', ( #171, #430 ) ) ;
#100 = EDGE_LOOP ( 'NONE', ( #215, #253, #64, #107 ) ) ;
#101 = ADVANCED_FACE ( 'NONE', ( #79, #441 ), #224, .T. ) ;
#102 = EDGE_LOOP ( 'NONE', ( #464, #409 ) ) ;
#103 = VERTEX_POINT ( 'NONE', #185 ) ;
#104 = EDGE_LOOP ( 'NONE', ( #106, #475, #31, #172 ) ) ;
#105 = CARTESIAN_POINT ( 'NONE',  ( 24.07407407407410105, 17.68518518518520111, 60.18518518518518334 ) ) ;
#106 = ORIENTED_EDGE ( 'NONE', *, *, #28, .T. ) ;
#107 = ORIENTED_EDGE ( 'NONE', *, *, #246, .F. ) ;
#108 = DIRECTION ( 'NONE',  ( -0.9805806756909201116, 0.1961161351381840723, 0.000000000000000000 ) ) ;
#109 = ORIENTED_EDGE ( 'NONE', *, *, #390, .T. ) ;
#110 =( GEOMETRIC_REPRESENTATION_CONTEXT ( 3 ) GLOBAL_UNCERTAINTY_ASSIGNED_CONTEXT ( ( #291 ) ) GLOBAL_UNIT_ASSIGNED_CONTEXT ( ( #181, #249, #293 ) ) REPRESENTATION_CONTEXT ( 'NONE', 'WORKASPACE' ) );
#111 = DIRECTION ( 'NONE',  ( 0.9805806756909201116, 0.000000000000000000, -0.1961161351381843221 ) ) ;
#112 = CYLINDRICAL_SURFACE ( 'NONE', #467, 3.000000000000002665 ) ;
#113 = CYLINDRICAL_SURFACE ( 'NONE', #355, 3.000000000000002665 ) ;
#114 = PERSON_AND_ORGANIZATION_ROLE ( 'creator' ) ;
#115 = VECTOR ( 'NONE', #418, 1000.000000000000114 ) ;
#116 = CARTESIAN_POINT ( 'NONE',  ( 50.00000000000010658, -1.694818351060767551E-28, 54.99999999999997158 ) ) ;
#117 = PERSON_AND_ORGANIZATION_ROLE ( 'classification_officer' ) ;
#118 = PRODUCT ( 'Initial part_Default_sldprt', 'Initial part_Default_sldprt', '', ( #47 ) ) ;
#119 = CARTESIAN_POINT ( 'NONE',  ( -60.00000000000002842, -42.50000000000000000, 52.99999999999998579 ) ) ;
#120 = COORDINATED_UNIVERSAL_TIME_OFFSET ( 5, 30, .AHEAD. ) ;
#121 = APPROVAL_STATUS ( 'not_yet_approved' ) ;
#122 = CARTESIAN_POINT ( 'NONE',  ( 0.000000000000000000, 0.000000000000000000, 0.000000000000000000 ) ) ;
#123 = CARTESIAN_POINT ( 'NONE',  ( 60.00000000000002842, 10.50000000000000711, 52.99999999999998579 ) ) ;
#124 = DIRECTION ( 'NONE',  ( 0.000000000000000000, 0.000000000000000000, -1.000000000000000000 ) ) ;
#125 = EDGE_CURVE ( 'NONE', #288, #404, #142, .T. ) ;
#126 =( BOUNDED_CURVE ( )  B_SPLINE_CURVE ( 3, ( #159, #89, #54, #458 ),
 .UNSPECIFIED., .F., .F. ) 
 B_SPLINE_CURVE_WITH_KNOTS ( ( 4, 4 ),
 ( 0.000000000000000000, 3.141592653589793116 ),
 .UNSPECIFIED. ) 
 CURVE ( )  GEOMETRIC_REPRESENTATION_ITEM ( )  RATIONAL_B_SPLINE_CURVE ( ( 1.000000000000000000, 0.3333333333333333703, 0.3333333333333333703, 1.000000000000000000 ) ) 
 REPRESENTATION_ITEM ( '' )  );
#127 = FACE_OUTER_BOUND ( 'NONE', #333, .T. ) ;
#128 = ADVANCED_FACE ( 'NONE', ( #296 ), #369, .T. ) ;
#129 = CARTESIAN_POINT ( 'NONE',  ( 4.510281037539698445E-14, -22.50000000000000355, 0.000000000000000000 ) ) ;
#130 = VECTOR ( 'NONE', #267, 1000.000000000000000 ) ;
#131 = ADVANCED_FACE ( 'NONE', ( #46 ), #221, .F. ) ;
#132 = EDGE_LOOP ( 'NONE', ( #461, #426 ) ) ;
#133 = DIRECTION ( 'NONE',  ( -0.1961161351381839890, 0.000000000000000000, -0.9805806756909202226 ) ) ;
#134 = ORIENTED_EDGE ( 'NONE', *, *, #27, .T. ) ;
#135 = EDGE_CURVE ( 'NONE', #335, #468, #188, .T. ) ;
#136 = EDGE_LOOP ( 'NONE', ( #330, #138, #148, #139 ) ) ;
#137 = AXIS2_PLACEMENT_3D ( 'NONE', #277, #93, #21 ) ;
#138 = ORIENTED_EDGE ( 'NONE', *, *, #226, .T. ) ;
#139 = ORIENTED_EDGE ( 'NONE', *, *, #389, .F. ) ;
#140 = LINE ( 'NONE', #410, #403 ) ;
#141 = VERTEX_POINT ( 'NONE', #44 ) ;
#142 = LINE ( 'NONE', #338, #150 ) ;
#143 = FACE_OUTER_BOUND ( 'NONE', #100, .T. ) ;
#144 = ORIENTED_EDGE ( 'NONE', *, *, #308, .T. ) ;
#145 = EDGE_CURVE ( 'NONE', #281, #396, #13, .T. ) ;
#146 = CC_DESIGN_PERSON_AND_ORGANIZATION_ASSIGNMENT ( #53, #114, ( #263 ) ) ;
#147 = CARTESIAN_POINT ( 'NONE',  ( 56.00000000000011369, 3.673940397440366282E-16, 53.79999999999996874 ) ) ;
#148 = ORIENTED_EDGE ( 'NONE', *, *, #413, .T. ) ;
#149 = APPROVAL_PERSON_ORGANIZATION ( #382, #470, #12 ) ;
#150 = VECTOR ( 'NONE', #152, 1000.000000000000114 ) ;
#151 = CARTESIAN_POINT ( 'NONE',  ( 0.000000000000000000, 0.000000000000000000, 65.00000000000000000 ) ) ;
#152 = DIRECTION ( 'NONE',  ( -0.9622504486493762554, -0.1924500897298750679, -0.1924500897298752067 ) ) ;
#153 = CARTESIAN_POINT ( 'NONE',  ( -50.00000000000002132, 6.000000000000003553, 55.00000000000001421 ) ) ;
#154 = CARTESIAN_POINT ( 'NONE',  ( -4.326923076923070433, 21.63461538461537614, 65.00000000000000000 ) ) ;
#155 = CARTESIAN_POINT ( 'NONE',  ( 56.00000000000011369, -6.000000000000001776, 11.20000000000004192 ) ) ;
#156 = CARTESIAN_POINT ( 'NONE',  ( -56.00000000000002842, 0.000000000000000000, 65.00000000000000000 ) ) ;
#157 = APPROVAL_DATE_TIME ( #419, #86 ) ;
#158 = VECTOR ( 'NONE', #301, 1000.000000000000000 ) ;
#159 = CARTESIAN_POINT ( 'NONE',  ( -50.00000000000002132, 3.673940397442061347E-16, 10.00000000000000178 ) ) ;
#160 = PERSON_AND_ORGANIZATION ( #15, #344 ) ;
#161 = CARTESIAN_POINT ( 'NONE',  ( 4.510281037539698445E-14, 22.50000000000000000, 65.00000000000000000 ) ) ;
#162 = VECTOR ( 'NONE', #429, 1000.000000000000227 ) ;
#163 = ORIENTED_EDGE ( 'NONE', *, *, #246, .T. ) ;
#164 = CALENDAR_DATE ( 2026, 19, 9 ) ;
#165 = LINE ( 'NONE', #151, #73 ) ;
#166 = ADVANCED_FACE ( 'NONE', ( #214 ), #1, .F. ) ;
#167 = DIRECTION ( 'NONE',  ( -1.000000000000000000, 0.000000000000000000, 0.000000000000000000 ) ) ;
#168 = DIRECTION ( 'NONE',  ( 0.000000000000000000, 0.000000000000000000, -1.000000000000000000 ) ) ;
#169 = AXIS2_PLACEMENT_3D ( 'NONE', #372, #337, #108 ) ;
#170 = DIRECTION ( 'NONE',  ( -0.9622504486493762554, -0.1924500897298750679, 0.1924500897298752067 ) ) ;
#171 = ORIENTED_EDGE ( 'NONE', *, *, #189, .F. ) ;
#172 = ORIENTED_EDGE ( 'NONE', *, *, #285, .T. ) ;
#173 =( BOUNDED_CURVE ( )  B_SPLINE_CURVE ( 3, ( #187, #153, #447, #43 ),
 .UNSPECIFIED., .F., .F. ) 
 B_SPLINE_CURVE_WITH_KNOTS ( ( 4, 4 ),
 ( 3.141592653589793116, 6.283185307179586232 ),
 .UNSPECIFIED. ) 
 CURVE ( )  GEOMETRIC_REPRESENTATION_ITEM ( )  RATIONAL_B_SPLINE_CURVE ( ( 1.000000000000000000, 0.3333333333333333703, 0.3333333333333333703, 1.000000000000000000 ) ) 
 REPRESENTATION_ITEM ( '' )  );
#174 = CC_DESIGN_PERSON_AND_ORGANIZATION_ASSIGNMENT ( #377, #305, ( #118 ) ) ;
#175 = VERTEX_POINT ( 'NONE', #363 ) ;
#176 = VECTOR ( 'NONE', #52, 1000.000000000000000 ) ;
#177 = DIRECTION ( 'NONE',  ( 0.1961161351381838502, -0.9805806756909202226, 0.000000000000000000 ) ) ;
#178 = DIRECTION ( 'NONE',  ( -0.9805806756909202226, 0.000000000000000000, -0.1961161351381839890 ) ) ;
#179 = EDGE_LOOP ( 'NONE', ( #434, #357, #364, #323 ) ) ;
#180 = CARTESIAN_POINT ( 'NONE',  ( -50.00000000000002132, 3.673940397442061347E-16, 10.00000000000000178 ) ) ;
#181 =( LENGTH_UNIT ( ) NAMED_UNIT ( * ) SI_UNIT ( .MILLI., .METRE. ) );
#182 = ORIENTED_EDGE ( 'NONE', *, *, #391, .T. ) ;
#183 =( BOUNDED_CURVE ( )  B_SPLINE_CURVE ( 3, ( #228, #37, #255, #258 ),
 .UNSPECIFIED., .F., .F. ) 
 B_SPLINE_CURVE_WITH_KNOTS ( ( 4, 4 ),
 ( 0.000000000000000000, 3.141592653589793116 ),
 .UNSPECIFIED. ) 
 CURVE ( )  GEOMETRIC_REPRESENTATION_ITEM ( )  RATIONAL_B_SPLINE_CURVE ( ( 1.000000000000000000, 0.3333333333333333703, 0.3333333333333333703, 1.000000000000000000 ) ) 
 REPRESENTATION_ITEM ( '' )  );
#184 = EDGE_LOOP ( 'NONE', ( #328, #284, #182, #32 ) ) ;
#185 = CARTESIAN_POINT ( 'NONE',  ( -50.00000000000002132, 3.673940397442061347E-16, 10.00000000000000178 ) ) ;
#186 = SECURITY_CLASSIFICATION ( '', '', #192 ) ;
#187 = CARTESIAN_POINT ( 'NONE',  ( -50.00000000000002132, 3.673940397442061347E-16, 55.00000000000000000 ) ) ;
#188 = LINE ( 'NONE', #82, #158 ) ;
#189 = EDGE_CURVE ( 'NONE', #286, #175, #183, .T. ) ;
#190 = DIRECTION ( 'NONE',  ( 0.000000000000000000, 0.000000000000000000, -1.000000000000000000 ) ) ;
#191 = CARTESIAN_POINT ( 'NONE',  ( 53.00000000000010658, -1.694818351060767551E-28, 65.00000000000000000 ) ) ;
#192 = SECURITY_CLASSIFICATION_LEVEL ( 'unclassified' ) ;
#193 = LINE ( 'NONE', #232, #386 ) ;
#194 = CARTESIAN_POINT ( 'NONE',  ( 56.00000000000011369, 3.673940397440366282E-16, 53.79999999999996874 ) ) ;
#195 = DATE_TIME_ROLE ( 'creation_date' ) ;
#196 = DIRECTION ( 'NONE',  ( 0.000000000000000000, 0.000000000000000000, -1.000000000000000000 ) ) ;
#197 = MANIFOLD_SOLID_BREP ( 'Cut-Extrude3', #212 ) ;
#198 = EDGE_CURVE ( 'NONE', #141, #103, #35, .T. ) ;
#199 = PLANE ( 'NONE',  #282 ) ;
#200 = VECTOR ( 'NONE', #405, 1000.000000000000227 ) ;
#201 = LOCAL_TIME ( 12, 8, 21.00000000000000000, #92 ) ;
#202 = EDGE_LOOP ( 'NONE', ( #445, #465, #247, #324 ) ) ;
#203 = LINE ( 'NONE', #245, #423 ) ;
#204 = ORIENTED_EDGE ( 'NONE', *, *, #88, .T. ) ;
#205 = LINE ( 'NONE', #97, #414 ) ;
#206 = ORIENTED_EDGE ( 'NONE', *, *, #189, .T. ) ;
#207 = ORIENTED_EDGE ( 'NONE', *, *, #390, .F. ) ;
#208 = ADVANCED_FACE ( 'NONE', ( #299 ), #374, .T. ) ;
#209 = ORIENTED_EDGE ( 'NONE', *, *, #222, .F. ) ;
#210 = CARTESIAN_POINT ( 'NONE',  ( -12.49999999999999645, -42.50000000000000000, 62.50000000000000000 ) ) ;
#211 = ORIENTED_EDGE ( 'NONE', *, *, #306, .F. ) ;
#212 = CLOSED_SHELL ( 'NONE', ( #233, #473, #63, #101, #2, #61, #68, #478, #208, #131, #128, #166, #16, #216 ) ) ;
#213 = LOCAL_TIME ( 12, 8, 21.00000000000000000, #456 ) ;
#214 = FACE_OUTER_BOUND ( 'NONE', #202, .T. ) ;
#215 = ORIENTED_EDGE ( 'NONE', *, *, #145, .T. ) ;
#216 = ADVANCED_FACE ( 'NONE', ( #332 ), #112, .F. ) ;
#217 = CC_DESIGN_PERSON_AND_ORGANIZATION_ASSIGNMENT ( #454, #117, ( #186 ) ) ;
#218 = DIRECTION ( 'NONE',  ( 1.000000000000000000, 0.000000000000000000, 0.000000000000000000 ) ) ;
#219 = ORIENTED_EDGE ( 'NONE', *, *, #285, .F. ) ;
#220 = EDGE_CURVE ( 'NONE', #256, #288, #472, .T. ) ;
#221 = PLANE ( 'NONE',  #81 ) ;
#222 = EDGE_CURVE ( 'NONE', #349, #432, #84, .T. ) ;
#223 = CARTESIAN_POINT ( 'NONE',  ( 60.00000000000002842, -10.50000000000000178, 52.99999999999999289 ) ) ;
#224 = PLANE ( 'NONE',  #433 ) ;
#225 = CARTESIAN_POINT ( 'NONE',  ( 4.510281037539698445E-14, -22.50000000000000355, 65.00000000000000000 ) ) ;
#226 = EDGE_CURVE ( 'NONE', #432, #175, #408, .T. ) ;
#227 = CARTESIAN_POINT ( 'NONE',  ( 53.00000000000010658, -1.694818351060767551E-28, 65.00000000000000000 ) ) ;
#228 = CARTESIAN_POINT ( 'NONE',  ( 50.00000000000010658, -1.694818351060767551E-28, 10.00000000000003730 ) ) ;
#229 = DATE_AND_TIME ( #309, #7 ) ;
#230 = DIRECTION ( 'NONE',  ( 0.000000000000000000, 0.000000000000000000, -1.000000000000000000 ) ) ;
#231 = PERSON_AND_ORGANIZATION_ROLE ( 'design_supplier' ) ;
#232 = CARTESIAN_POINT ( 'NONE',  ( 4.510281037539698445E-14, 22.50000000000000000, 65.00000000000000000 ) ) ;
#233 = ADVANCED_FACE ( 'NONE', ( #421 ), #455, .F. ) ;
#234 = APPROVAL_STATUS ( 'not_yet_approved' ) ;
#235 = AXIS2_PLACEMENT_3D ( 'NONE', #210, #361, #178 ) ;
#236 = LINE ( 'NONE', #348, #428 ) ;
#237 = EDGE_CURVE ( 'NONE', #103, #141, #126, .T. ) ;
#238 = PLANE ( 'NONE',  #351 ) ;
#239 = VECTOR ( 'NONE', #376, 1000.000000000000000 ) ;
#240 = LINE ( 'NONE', #276, #18 ) ;
#241 = DESIGN_CONTEXT ( 'detailed design', #320, 'design' ) ;
#242 = LINE ( 'NONE', #392, #371 ) ;
#243 = PRODUCT_DEFINITION ( 'UNKNOWN', '', #263, #241 ) ;
#244 = CARTESIAN_POINT ( 'NONE',  ( 59.99999999999998579, -42.50000000000000000, 52.99999999999999289 ) ) ;
#245 = CARTESIAN_POINT ( 'NONE',  ( -12.03703703703702388, 20.09259259259257036, 2.407407407407403888 ) ) ;
#246 = EDGE_CURVE ( 'NONE', #281, #141, #11, .T. ) ;
#247 = ORIENTED_EDGE ( 'NONE', *, *, #435, .F. ) ;
#248 = VERTEX_POINT ( 'NONE', #307 ) ;
#249 =( NAMED_UNIT ( * ) PLANE_ANGLE_UNIT ( ) SI_UNIT ( $, .RADIAN. ) );
#250 = ORIENTED_EDGE ( 'NONE', *, *, #279, .F. ) ;
#251 = DIRECTION ( 'NONE',  ( -0.9805806756909201116, -0.1961161351381840723, 0.000000000000000000 ) ) ;
#252 = EDGE_LOOP ( 'NONE', ( #109, #436, #211, #40 ) ) ;
#253 = ORIENTED_EDGE ( 'NONE', *, *, #395, .T. ) ;
#254 = AXIS2_PLACEMENT_3D ( 'NONE', #402, #74, #218 ) ;
#255 = CARTESIAN_POINT ( 'NONE',  ( 56.00000000000011369, 6.000000000000001776, 11.20000000000004192 ) ) ;
#256 = VERTEX_POINT ( 'NONE', #123 ) ;
#257 = CARTESIAN_POINT ( 'NONE',  ( 56.00000000000011369, 3.673940397440366282E-16, 11.20000000000003659 ) ) ;
#258 = CARTESIAN_POINT ( 'NONE',  ( 56.00000000000011369, 3.673940397440366282E-16, 11.20000000000003659 ) ) ;
#259 = DIRECTION ( 'NONE',  ( 0.9805806756909202226, 0.1961161351381838502, 0.000000000000000000 ) ) ;
#260 = LINE ( 'NONE', #225, #274 ) ;
#261 = CARTESIAN_POINT ( 'NONE',  ( -56.00000000000002842, -6.000000000000003553, 11.19999999999999751 ) ) ;
#262 = VECTOR ( 'NONE', #230, 1000.000000000000000 ) ;
#263 = PRODUCT_DEFINITION_FORMATION_WITH_SPECIFIED_SOURCE ( 'ANY', '', #118, .NOT_KNOWN. ) ;
#264 = PERSON_AND_ORGANIZATION_ROLE ( 'creator' ) ;
#265 = CARTESIAN_POINT ( 'NONE',  ( -60.00000000000002842, -10.49999999999999467, 53.00000000000000711 ) ) ;
#266 = COORDINATED_UNIVERSAL_TIME_OFFSET ( 5, 30, .AHEAD. ) ;
#267 = DIRECTION ( 'NONE',  ( -0.000000000000000000, 1.000000000000000000, -0.000000000000000000 ) ) ;
#268 = PERSON_AND_ORGANIZATION ( #15, #344 ) ;
#269 = SHAPE_DEFINITION_REPRESENTATION ( #350, #322 ) ;
#270 = CARTESIAN_POINT ( 'NONE',  ( 56.00000000000011369, 3.673940397440366282E-16, 65.00000000000000000 ) ) ;
#271 = CARTESIAN_POINT ( 'NONE',  ( -60.00000000000002842, -42.50000000000000000, 12.00000000000000178 ) ) ;
#272 = FACE_OUTER_BOUND ( 'NONE', #75, .T. ) ;
#273 = ORIENTED_EDGE ( 'NONE', *, *, #30, .T. ) ;
#274 = VECTOR ( 'NONE', #190, 1000.000000000000000 ) ;
#275 = APPROVAL_PERSON_ORGANIZATION ( #160, #10, #83 ) ;
#276 = CARTESIAN_POINT ( 'NONE',  ( -60.00000000000002842, -10.49999999999999645, 65.00000000000000000 ) ) ;
#277 = CARTESIAN_POINT ( 'NONE',  ( -53.00000000000002842, 0.000000000000000000, 65.00000000000000000 ) ) ;
#278 = EDGE_CURVE ( 'NONE', #70, #335, #236, .T. ) ;
#279 = EDGE_CURVE ( 'NONE', #33, #460, #425, .T. ) ;
#280 = CARTESIAN_POINT ( 'NONE',  ( 59.99999999999998579, -22.50000000000000000, 65.00000000000000000 ) ) ;
#281 = VERTEX_POINT ( 'NONE', #14 ) ;
#282 = AXIS2_PLACEMENT_3D ( 'NONE', #95, #353, #168 ) ;
#283 = ORIENTED_EDGE ( 'NONE', *, *, #278, .F. ) ;
#284 = ORIENTED_EDGE ( 'NONE', *, *, #220, .T. ) ;
#285 = EDGE_CURVE ( 'NONE', #288, #468, #193, .T. ) ;
#286 = VERTEX_POINT ( 'NONE', #379 ) ;
#287 = DIRECTION ( 'NONE',  ( 0.9805806756909202226, -0.1961161351381838502, 0.000000000000000000 ) ) ;
#288 = VERTEX_POINT ( 'NONE', #161 ) ;
#289 = CARTESIAN_POINT ( 'NONE',  ( -60.00000000000002842, 10.49999999999998934, 12.00000000000000711 ) ) ;
#290 = EDGE_LOOP ( 'NONE', ( #477, #362, #163, #38 ) ) ;
#291 = UNCERTAINTY_MEASURE_WITH_UNIT (LENGTH_MEASURE( 1.000000000000000082E-05 ), #181, 'distance_accuracy_value', 'NONE');
#292 = CARTESIAN_POINT ( 'NONE',  ( -50.00000000000002132, -6.000000000000003553, 55.00000000000001421 ) ) ;
#293 =( NAMED_UNIT ( * ) SI_UNIT ( $, .STERADIAN. ) SOLID_ANGLE_UNIT ( ) );
#294 = ORIENTED_EDGE ( 'NONE', *, *, #435, .T. ) ;
#295 = CC_DESIGN_APPROVAL ( #86, ( #263 ) ) ;
#296 = FACE_OUTER_BOUND ( 'NONE', #359, .T. ) ;
#297 = VERTEX_POINT ( 'NONE', #265 ) ;
#298 = CARTESIAN_POINT ( 'NONE',  ( -50.00000000000002132, 3.673940397442061347E-16, 65.00000000000000000 ) ) ;
#299 = FACE_OUTER_BOUND ( 'NONE', #29, .T. ) ;
#300 = DIRECTION ( 'NONE',  ( 0.000000000000000000, 0.000000000000000000, -1.000000000000000000 ) ) ;
#301 = DIRECTION ( 'NONE',  ( -0.9622504486493761444, 0.1924500897298752899, -0.1924500897298755675 ) ) ;
#302 = CARTESIAN_POINT ( 'NONE',  ( 4.510281037539698445E-14, 22.50000000000000000, 0.000000000000000000 ) ) ;
#303 = CARTESIAN_POINT ( 'NONE',  ( 3.703703703703702832, -23.24074074074072982, -0.7407407407407403666 ) ) ;
#304 = AXIS2_PLACEMENT_3D ( 'NONE', #62, #352, #17 ) ;
#305 = PERSON_AND_ORGANIZATION_ROLE ( 'design_owner' ) ;
#306 = EDGE_CURVE ( 'NONE', #460, #397, #311, .T. ) ;
#307 = CARTESIAN_POINT ( 'NONE',  ( 4.510281037539690872E-14, -22.50000000000000000, 65.00000000000000000 ) ) ;
#308 = EDGE_CURVE ( 'NONE', #432, #349, #336, .T. ) ;
#309 = CALENDAR_DATE ( 2026, 19, 9 ) ;
#310 = CARTESIAN_POINT ( 'NONE',  ( 50.00000000000010658, -1.694818351060767551E-28, 54.99999999999997158 ) ) ;
#311 = LINE ( 'NONE', #271, #176 ) ;
#312 = PRODUCT_RELATED_PRODUCT_CATEGORY ( 'detail', '', ( #118 ) ) ;
#313 = PLANE ( 'NONE',  #304 ) ;
#314 = EDGE_CURVE ( 'NONE', #33, #468, #457, .T. ) ;
#315 = DIRECTION ( 'NONE',  ( 0.000000000000000000, 0.000000000000000000, -1.000000000000000000 ) ) ;
#316 = DIRECTION ( 'NONE',  ( 0.000000000000000000, 0.000000000000000000, -1.000000000000000000 ) ) ;
#317 = AXIS2_PLACEMENT_3D ( 'NONE', #191, #196, #384 ) ;
#318 = FACE_BOUND ( 'NONE', #132, .T. ) ;
#319 = CC_DESIGN_DATE_AND_TIME_ASSIGNMENT ( #381, #195, ( #243 ) ) ;
#320 = APPLICATION_CONTEXT ( 'configuration controlled 3d designs of mechanical parts and assemblies' ) ;
#321 = FACE_OUTER_BOUND ( 'NONE', #179, .T. ) ;
#322 = ADVANCED_BREP_SHAPE_REPRESENTATION ( 'Initial part_Default_sldprt', ( #197, #254 ), #110 ) ;
#323 = ORIENTED_EDGE ( 'NONE', *, *, #278, .T. ) ;
#324 = ORIENTED_EDGE ( 'NONE', *, *, #449, .F. ) ;
#325 = ORIENTED_EDGE ( 'NONE', *, *, #226, .F. ) ;
#326 = CC_DESIGN_PERSON_AND_ORGANIZATION_ASSIGNMENT ( #48, #231, ( #263 ) ) ;
#327 = VECTOR ( 'NONE', #91, 1000.000000000000000 ) ;
#328 = ORIENTED_EDGE ( 'NONE', *, *, #67, .T. ) ;
#329 = CARTESIAN_POINT ( 'NONE',  ( -56.00000000000002842, 0.000000000000000000, 53.79999999999999716 ) ) ;
#330 = ORIENTED_EDGE ( 'NONE', *, *, #308, .F. ) ;
#331 = ORIENTED_EDGE ( 'NONE', *, *, #279, .T. ) ;
#332 = FACE_OUTER_BOUND ( 'NONE', #440, .T. ) ;
#333 = EDGE_LOOP ( 'NONE', ( #439, #466, #331, #42 ) ) ;
#334 = CARTESIAN_POINT ( 'NONE',  ( 56.00000000000011369, 6.000000000000001776, 53.79999999999997584 ) ) ;
#335 = VERTEX_POINT ( 'NONE', #453 ) ;
#336 =( BOUNDED_CURVE ( )  B_SPLINE_CURVE ( 3, ( #194, #340, #346, #310 ),
 .UNSPECIFIED., .F., .F. ) 
 B_SPLINE_CURVE_WITH_KNOTS ( ( 4, 4 ),
 ( 0.000000000000000000, 3.141592653589793116 ),
 .UNSPECIFIED. ) 
 CURVE ( )  GEOMETRIC_REPRESENTATION_ITEM ( )  RATIONAL_B_SPLINE_CURVE ( ( 1.000000000000000000, 0.3333333333333333703, 0.3333333333333333703, 1.000000000000000000 ) ) 
 REPRESENTATION_ITEM ( '' )  );
#337 = DIRECTION ( 'NONE',  ( 0.1961161351381841000, 0.9805806756909202226, 0.000000000000000000 ) ) ;
#338 = CARTESIAN_POINT ( 'NONE',  ( -24.07407407407406197, 17.68518518518517268, 60.18518518518519045 ) ) ;
#339 = CARTESIAN_POINT ( 'NONE',  ( -60.00000000000004263, -10.49999999999999467, 12.00000000000001243 ) ) ;
#340 = CARTESIAN_POINT ( 'NONE',  ( 56.00000000000011369, -6.000000000000001776, 53.79999999999997584 ) ) ;
#341 = APPLICATION_PROTOCOL_DEFINITION ( 'international standard', 'config_control_design', 1994, #320 ) ;
#342 = DIRECTION ( 'NONE',  ( 0.000000000000000000, 0.000000000000000000, -1.000000000000000000 ) ) ;
#343 = VECTOR ( 'NONE', #77, 1000.000000000000000 ) ;
#344 = ORGANIZATION ( 'UNSPECIFIED', 'UNSPECIFIED', '' ) ;
#345 = APPROVAL_DATE_TIME ( #229, #10 ) ;
#346 = CARTESIAN_POINT ( 'NONE',  ( 50.00000000000010658, -6.000000000000001776, 54.99999999999997158 ) ) ;
#347 = DATE_AND_TIME ( #417, #387 ) ;
#348 = CARTESIAN_POINT ( 'NONE',  ( 59.99999999999998579, -42.50000000000000000, 12.00000000000002132 ) ) ;
#349 = VERTEX_POINT ( 'NONE', #116 ) ;
#350 = PRODUCT_DEFINITION_SHAPE ( 'NONE', 'NONE',  #243 ) ;
#351 = AXIS2_PLACEMENT_3D ( 'NONE', #280, #167, #385 ) ;
#352 = DIRECTION ( 'NONE',  ( -0.1961161351381843776, 0.000000000000000000, 0.9805806756909201116 ) ) ;
#353 = DIRECTION ( 'NONE',  ( 1.000000000000000000, 0.000000000000000000, 0.000000000000000000 ) ) ;
#354 = LINE ( 'NONE', #388, #162 ) ;
#355 = AXIS2_PLACEMENT_3D ( 'NONE', #412, #451, #80 ) ;
#356 = PLANE ( 'NONE',  #96 ) ;
#357 = ORIENTED_EDGE ( 'NONE', *, *, #67, .F. ) ;
#358 = ORIENTED_EDGE ( 'NONE', *, *, #391, .F. ) ;
#359 = EDGE_LOOP ( 'NONE', ( #273, #406, #219, #366 ) ) ;
#360 = ORIENTED_EDGE ( 'NONE', *, *, #135, .F. ) ;
#361 = DIRECTION ( 'NONE',  ( 0.1961161351381839890, 0.000000000000000000, -0.9805806756909202226 ) ) ;
#362 = ORIENTED_EDGE ( 'NONE', *, *, #443, .T. ) ;
#363 = CARTESIAN_POINT ( 'NONE',  ( 56.00000000000011369, 3.673940397440366282E-16, 11.20000000000003659 ) ) ;
#364 = ORIENTED_EDGE ( 'NONE', *, *, #449, .T. ) ;
#365 = CARTESIAN_POINT ( 'NONE',  ( -60.00000000000002842, 10.49999999999997868, 52.99999999999999289 ) ) ;
#366 = ORIENTED_EDGE ( 'NONE', *, *, #220, .F. ) ;
#367 = CARTESIAN_POINT ( 'NONE',  ( -50.00000000000002132, -6.000000000000003553, 9.999999999999998224 ) ) ;
#368 = FACE_OUTER_BOUND ( 'NONE', #437, .T. ) ;
#369 = PLANE ( 'NONE',  #169 ) ;
#370 = CARTESIAN_POINT ( 'NONE',  ( 50.00000000000010658, -1.694818351060767551E-28, 10.00000000000003730 ) ) ;
#371 = VECTOR ( 'NONE', #59, 1000.000000000000114 ) ;
#372 = CARTESIAN_POINT ( 'NONE',  ( 4.326923076923080203, 21.63461538461539391, 65.00000000000000000 ) ) ;
#373 = APPLICATION_PROTOCOL_DEFINITION ( 'international standard', 'config_control_design', 1994, #378 ) ;
#374 = PLANE ( 'NONE',  #380 ) ;
#375 = PERSON_AND_ORGANIZATION ( #15, #344 ) ;
#376 = DIRECTION ( 'NONE',  ( 0.000000000000000000, 0.000000000000000000, -1.000000000000000000 ) ) ;
#377 = PERSON_AND_ORGANIZATION ( #15, #344 ) ;
#378 = APPLICATION_CONTEXT ( 'configuration controlled 3d designs of mechanical parts and assemblies' ) ;
#379 = CARTESIAN_POINT ( 'NONE',  ( 50.00000000000010658, -1.694818351060767551E-28, 10.00000000000003730 ) ) ;
#380 = AXIS2_PLACEMENT_3D ( 'NONE', #479, #411, #287 ) ;
#381 = DATE_AND_TIME ( #5, #25 ) ;
#382 = PERSON_AND_ORGANIZATION ( #15, #344 ) ;
#383 =( BOUNDED_CURVE ( )  B_SPLINE_CURVE ( 3, ( #257, #155, #39, #370 ),
 .UNSPECIFIED., .F., .F. ) 
 B_SPLINE_CURVE_WITH_KNOTS ( ( 4, 4 ),
 ( 3.141592653589793116, 6.283185307179586232 ),
 .UNSPECIFIED. ) 
 CURVE ( )  GEOMETRIC_REPRESENTATION_ITEM ( )  RATIONAL_B_SPLINE_CURVE ( ( 1.000000000000000000, 0.3333333333333333703, 0.3333333333333333703, 1.000000000000000000 ) ) 
 REPRESENTATION_ITEM ( '' )  );
#384 = DIRECTION ( 'NONE',  ( -1.000000000000000000, 0.000000000000000000, 0.000000000000000000 ) ) ;
#385 = DIRECTION ( 'NONE',  ( 0.000000000000000000, 0.000000000000000000, 1.000000000000000000 ) ) ;
#386 = VECTOR ( 'NONE', #342, 1000.000000000000000 ) ;
#387 = LOCAL_TIME ( 12, 8, 21.00000000000000000, #266 ) ;
#388 = CARTESIAN_POINT ( 'NONE',  ( 8.333333333333353465, -20.83333333333333925, 63.33333333333333570 ) ) ;
#389 = EDGE_CURVE ( 'NONE', #349, #286, #416, .T. ) ;
#390 = EDGE_CURVE ( 'NONE', #297, #404, #8, .T. ) ;
#391 = EDGE_CURVE ( 'NONE', #288, #248, #165, .T. ) ;
#392 = CARTESIAN_POINT ( 'NONE',  ( -8.333333333333332149, -20.83333333333332504, 63.33333333333333570 ) ) ;
#393 = DIRECTION ( 'NONE',  ( -0.000000000000000000, 1.000000000000000000, -0.000000000000000000 ) ) ;
#394 = FACE_OUTER_BOUND ( 'NONE', #252, .T. ) ;
#395 = EDGE_CURVE ( 'NONE', #396, #103, #3, .T. ) ;
#396 = VERTEX_POINT ( 'NONE', #398 ) ;
#397 = VERTEX_POINT ( 'NONE', #289 ) ;
#398 = CARTESIAN_POINT ( 'NONE',  ( -50.00000000000002132, 3.673940397442061347E-16, 55.00000000000000000 ) ) ;
#399 = EDGE_CURVE ( 'NONE', #248, #33, #260, .T. ) ;
#400 = ORIENTED_EDGE ( 'NONE', *, *, #125, .T. ) ;
#401 = DIRECTION ( 'NONE',  ( 0.1961161351381843221, 0.000000000000000000, 0.9805806756909201116 ) ) ;
#402 = CARTESIAN_POINT ( 'NONE',  ( 0.000000000000000000, 0.000000000000000000, 0.000000000000000000 ) ) ;
#403 = VECTOR ( 'NONE', #300, 1000.000000000000000 ) ;
#404 = VERTEX_POINT ( 'NONE', #365 ) ;
#405 = DIRECTION ( 'NONE',  ( -0.9622504486493761444, 0.1924500897298752899, 0.1924500897298755397 ) ) ;
#406 = ORIENTED_EDGE ( 'NONE', *, *, #135, .T. ) ;
#407 = CARTESIAN_POINT ( 'NONE',  ( -3.703703703703702832, -23.24074074074075114, -0.7407407407407419209 ) ) ;
#408 = LINE ( 'NONE', #270, #262 ) ;
#409 = ORIENTED_EDGE ( 'NONE', *, *, #443, .F. ) ;
#410 = CARTESIAN_POINT ( 'NONE',  ( 60.00000000000002842, -10.50000000000000178, 65.00000000000000000 ) ) ;
#411 = DIRECTION ( 'NONE',  ( -0.1961161351381838502, -0.9805806756909202226, 0.000000000000000000 ) ) ;
#412 = CARTESIAN_POINT ( 'NONE',  ( -53.00000000000002842, 0.000000000000000000, 65.00000000000000000 ) ) ;
#413 = EDGE_CURVE ( 'NONE', #175, #286, #383, .T. ) ;
#414 = VECTOR ( 'NONE', #124, 1000.000000000000000 ) ;
#415 = CARTESIAN_POINT ( 'NONE',  ( -56.00000000000002842, 0.000000000000000000, 11.20000000000000107 ) ) ;
#416 = LINE ( 'NONE', #85, #239 ) ;
#417 = CALENDAR_DATE ( 2026, 19, 9 ) ;
#418 = DIRECTION ( 'NONE',  ( -0.9622504486493762554, 0.1924500897298750679, 0.1924500897298752067 ) ) ;
#419 = DATE_AND_TIME ( #90, #213 ) ;
#420 = DATE_AND_TIME ( #164, #201 ) ;
#421 = FACE_OUTER_BOUND ( 'NONE', #136, .T. ) ;
#422 = CC_DESIGN_SECURITY_CLASSIFICATION ( #186, ( #263 ) ) ;
#423 = VECTOR ( 'NONE', #170, 1000.000000000000114 ) ;
#424 = APPROVAL_PERSON_ORGANIZATION ( #268, #86, #50 ) ;
#425 = LINE ( 'NONE', #303, #115 ) ;
#426 = ORIENTED_EDGE ( 'NONE', *, *, #237, .T. ) ;
#427 = EDGE_LOOP ( 'NONE', ( #471, #144 ) ) ;
#428 = VECTOR ( 'NONE', #49, 1000.000000000000000 ) ;
#429 = DIRECTION ( 'NONE',  ( -0.9622504486493761444, -0.1924500897298752899, 0.1924500897298755397 ) ) ;
#430 = ORIENTED_EDGE ( 'NONE', *, *, #413, .F. ) ;
#431 = CARTESIAN_POINT ( 'NONE',  ( 60.00000000000002842, -10.50000000000000355, 12.00000000000002487 ) ) ;
#432 = VERTEX_POINT ( 'NONE', #448 ) ;
#433 = AXIS2_PLACEMENT_3D ( 'NONE', #446, #401, #111 ) ;
#434 = ORIENTED_EDGE ( 'NONE', *, *, #30, .F. ) ;
#435 = EDGE_CURVE ( 'NONE', #70, #33, #474, .T. ) ;
#436 = ORIENTED_EDGE ( 'NONE', *, *, #58, .T. ) ;
#437 = EDGE_LOOP ( 'NONE', ( #358, #400, #207, #65 ) ) ;
#438 = DIRECTION ( 'NONE',  ( 0.000000000000000000, 0.000000000000000000, -1.000000000000000000 ) ) ;
#439 = ORIENTED_EDGE ( 'NONE', *, *, #28, .F. ) ;
#440 = EDGE_LOOP ( 'NONE', ( #325, #209, #72, #206 ) ) ;
#441 = FACE_OUTER_BOUND ( 'NONE', #184, .T. ) ;
#442 = PLANE ( 'NONE',  #235 ) ;
#443 = EDGE_CURVE ( 'NONE', #396, #281, #173, .T. ) ;
#444 = VECTOR ( 'NONE', #481, 1000.000000000000000 ) ;
#445 = ORIENTED_EDGE ( 'NONE', *, *, #20, .T. ) ;
#446 = CARTESIAN_POINT ( 'NONE',  ( 12.50000000000002132, -42.50000000000000000, 62.50000000000000000 ) ) ;
#447 = CARTESIAN_POINT ( 'NONE',  ( -56.00000000000002842, 6.000000000000003553, 53.79999999999999716 ) ) ;
#448 = CARTESIAN_POINT ( 'NONE',  ( 56.00000000000011369, 3.673940397440366282E-16, 53.79999999999996874 ) ) ;
#449 = EDGE_CURVE ( 'NONE', #462, #70, #140, .T. ) ;
#450 = CARTESIAN_POINT ( 'NONE',  ( 4.326923076923080203, -21.63461538461539391, 65.00000000000000000 ) ) ;
#451 = DIRECTION ( 'NONE',  ( 0.000000000000000000, 0.000000000000000000, -1.000000000000000000 ) ) ;
#452 = VECTOR ( 'NONE', #4, 1000.000000000000000 ) ;
#453 = CARTESIAN_POINT ( 'NONE',  ( 60.00000000000002842, 10.50000000000000888, 12.00000000000002487 ) ) ;
#454 = PERSON_AND_ORGANIZATION ( #15, #344 ) ;
#455 = CYLINDRICAL_SURFACE ( 'NONE', #317, 3.000000000000002665 ) ;
#456 = COORDINATED_UNIVERSAL_TIME_OFFSET ( 5, 30, .AHEAD. ) ;
#457 = LINE ( 'NONE', #122, #452 ) ;
#458 = CARTESIAN_POINT ( 'NONE',  ( -56.00000000000002842, 0.000000000000000000, 11.20000000000000107 ) ) ;
#459 = FACE_OUTER_BOUND ( 'NONE', #290, .T. ) ;
#460 = VERTEX_POINT ( 'NONE', #339 ) ;
#461 = ORIENTED_EDGE ( 'NONE', *, *, #198, .T. ) ;
#462 = VERTEX_POINT ( 'NONE', #223 ) ;
#463 = LINE ( 'NONE', #98, #24 ) ;
#464 = ORIENTED_EDGE ( 'NONE', *, *, #145, .F. ) ;
#465 = ORIENTED_EDGE ( 'NONE', *, *, #399, .T. ) ;
#466 = ORIENTED_EDGE ( 'NONE', *, *, #314, .F. ) ;
#467 = AXIS2_PLACEMENT_3D ( 'NONE', #227, #438, #41 ) ;
#468 = VERTEX_POINT ( 'NONE', #302 ) ;
#469 = DIRECTION ( 'NONE',  ( -0.1961161351381841000, 0.9805806756909202226, 0.000000000000000000 ) ) ;
#470 = APPROVAL ( #121, 'UNSPECIFIED' ) ;
#471 = ORIENTED_EDGE ( 'NONE', *, *, #222, .T. ) ;
#472 = LINE ( 'NONE', #105, #200 ) ;
#473 = ADVANCED_FACE ( 'NONE', ( #143 ), #113, .F. ) ;
#474 = LINE ( 'NONE', #407, #343 ) ;
#475 = ORIENTED_EDGE ( 'NONE', *, *, #58, .F. ) ;
#476 = CARTESIAN_POINT ( 'NONE',  ( 50.00000000000010658, 6.000000000000001776, 54.99999999999997158 ) ) ;
#477 = ORIENTED_EDGE ( 'NONE', *, *, #395, .F. ) ;
#478 = ADVANCED_FACE ( 'NONE', ( #69, #368 ), #442, .F. ) ;
#479 = CARTESIAN_POINT ( 'NONE',  ( -4.326923076923070433, -21.63461538461537614, 65.00000000000000000 ) ) ;
#480 = CC_DESIGN_DATE_AND_TIME_ASSIGNMENT ( #347, #94, ( #186 ) ) ;
#481 = DIRECTION ( 'NONE',  ( 0.000000000000000000, 0.000000000000000000, -1.000000000000000000 ) ) ;
ENDSEC;
END-ISO-10303-21;
