ISO-10303-21;
HEADER;
FILE_DESCRIPTION (( 'STEP AP203' ),
    '1' );
FILE_NAME ('j_Default_sldprt.STEP',
    '2026-09-21T17:22:25',
    ( '' ),
    ( '' ),
    'SwSTEP 2.0',
    'SolidWorks 2021',
    '' );
FILE_SCHEMA (( 'CONFIG_CONTROL_DESIGN' ));
ENDSEC;

DATA;
#1 = CARTESIAN_POINT ( 'NONE',  ( -358.5000000000000568, -32.37021857923493684, 25.00000000000000000 ) ) ;
#2 = ADVANCED_FACE ( 'NONE', ( #332 ), #186, .F. ) ;
#3 = FACE_OUTER_BOUND ( 'NONE', #357, .T. ) ;
#4 = ORIENTED_EDGE ( 'NONE', *, *, #62, .T. ) ;
#5 = ORIENTED_EDGE ( 'NONE', *, *, #309, .F. ) ;
#6 = CC_DESIGN_PERSON_AND_ORGANIZATION_ASSIGNMENT ( #283, #82, ( #169 ) ) ;
#7 = APPROVAL_PERSON_ORGANIZATION ( #132, #38, #40 ) ;
#8 = CARTESIAN_POINT ( 'NONE',  ( 358.4999999999999432, 32.37021857923494395, 0.000000000000000000 ) ) ;
#9 = LINE ( 'NONE', #131, #226 ) ;
#10 = APPROVAL_STATUS ( 'not_yet_approved' ) ;
#11 = LINE ( 'NONE', #240, #128 ) ;
#12 = CIRCLE ( 'NONE', #148, 7.500000000000007105 ) ;
#13 = COORDINATED_UNIVERSAL_TIME_OFFSET ( 5, 30, .AHEAD. ) ;
#14 = CARTESIAN_POINT ( 'NONE',  ( 331.0000000000000000, 0.000000000000000000, 0.000000000000000000 ) ) ;
#15 = COORDINATED_UNIVERSAL_TIME_OFFSET ( 5, 30, .AHEAD. ) ;
#16 = DIRECTION ( 'NONE',  ( 1.000000000000000000, 9.677676295547041570E-18, 0.000000000000000000 ) ) ;
#17 = DIRECTION ( 'NONE',  ( 1.000000000000000000, 0.000000000000000000, 0.000000000000000000 ) ) ;
#18 = VERTEX_POINT ( 'NONE', #228 ) ;
#19 = FACE_BOUND ( 'NONE', #254, .T. ) ;
#20 = CARTESIAN_POINT ( 'NONE',  ( -338.5000000000000000, 0.000000000000000000, 25.00000000000000000 ) ) ;
#21 = ORIENTED_EDGE ( 'NONE', *, *, #157, .T. ) ;
#22 = FACE_OUTER_BOUND ( 'NONE', #364, .T. ) ;
#23 = VERTEX_POINT ( 'NONE', #30 ) ;
#24 = ORIENTED_EDGE ( 'NONE', *, *, #229, .F. ) ;
#25 = PRODUCT_RELATED_PRODUCT_CATEGORY ( 'detail', '', ( #360 ) ) ;
#26 = ADVANCED_FACE ( 'NONE', ( #118 ), #156, .F. ) ;
#27 = DIRECTION ( 'NONE',  ( 0.000000000000000000, -1.000000000000000000, 0.000000000000000000 ) ) ;
#28 = AXIS2_PLACEMENT_3D ( 'NONE', #321, #117, #109 ) ;
#29 = COORDINATED_UNIVERSAL_TIME_OFFSET ( 5, 30, .AHEAD. ) ;
#30 = CARTESIAN_POINT ( 'NONE',  ( 346.0000000000000568, 9.184850993605173582E-16, 0.000000000000000000 ) ) ;
#31 = DIRECTION ( 'NONE',  ( -1.000000000000000000, -9.677676295547041570E-18, 0.000000000000000000 ) ) ;
#32 = EDGE_LOOP ( 'NONE', ( #167, #149, #224, #208 ) ) ;
#33 = CC_DESIGN_APPROVAL ( #213, ( #358 ) ) ;
#34 = DIRECTION ( 'NONE',  ( -0.000000000000000000, -0.000000000000000000, -1.000000000000000000 ) ) ;
#35 = EDGE_CURVE ( 'NONE', #151, #122, #178, .T. ) ;
#36 = EDGE_CURVE ( 'NONE', #136, #222, #339, .T. ) ;
#37 = DIRECTION ( 'NONE',  ( 0.000000000000000000, -1.000000000000000000, 0.000000000000000000 ) ) ;
#38 = APPROVAL ( #378, 'UNSPECIFIED' ) ;
#39 = APPLICATION_PROTOCOL_DEFINITION ( 'international standard', 'config_control_design', 1994, #313 ) ;
#40 = APPROVAL_ROLE ( '' ) ;
#41 = APPROVAL_DATE_TIME ( #308, #38 ) ;
#42 = ORIENTED_EDGE ( 'NONE', *, *, #188, .T. ) ;
#43 = CARTESIAN_POINT ( 'NONE',  ( 0.000000000000000000, 0.000000000000000000, 0.000000000000000000 ) ) ;
#44 = MECHANICAL_CONTEXT ( 'NONE', #313, 'mechanical' ) ;
#45 = ORIENTED_EDGE ( 'NONE', *, *, #157, .F. ) ;
#46 = CC_DESIGN_APPROVAL ( #80, ( #169 ) ) ;
#47 = DATE_AND_TIME ( #322, #300 ) ;
#48 = VERTEX_POINT ( 'NONE', #263 ) ;
#49 = AXIS2_PLACEMENT_3D ( 'NONE', #259, #261, #89 ) ;
#50 = DIRECTION ( 'NONE',  ( 1.000000000000000000, 0.000000000000000000, 0.000000000000000000 ) ) ;
#51 = VERTEX_POINT ( 'NONE', #1 ) ;
#52 = PERSON_AND_ORGANIZATION ( #77, #237 ) ;
#53 = VERTEX_POINT ( 'NONE', #295 ) ;
#54 = CARTESIAN_POINT ( 'NONE',  ( -346.0000000000000568, 0.000000000000000000, 0.000000000000000000 ) ) ;
#55 = DIRECTION ( 'NONE',  ( -9.677676295547041570E-18, 1.000000000000000000, 0.000000000000000000 ) ) ;
#56 = CARTESIAN_POINT ( 'NONE',  ( -338.5000000000000000, 0.000000000000000000, 25.00000000000000000 ) ) ;
#57 = CARTESIAN_POINT ( 'NONE',  ( 338.5000000000000000, 0.000000000000000000, 25.00000000000000000 ) ) ;
#58 = ORIENTED_EDGE ( 'NONE', *, *, #375, .T. ) ;
#59 = AXIS2_PLACEMENT_3D ( 'NONE', #166, #277, #367 ) ;
#60 = VERTEX_POINT ( 'NONE', #113 ) ;
#61 = CARTESIAN_POINT ( 'NONE',  ( -358.5000000000000568, 32.37021857923494395, 0.000000000000000000 ) ) ;
#62 = EDGE_CURVE ( 'NONE', #122, #247, #231, .T. ) ;
#63 = CARTESIAN_POINT ( 'NONE',  ( -338.5000000000000000, 0.000000000000000000, 25.00000000000000000 ) ) ;
#64 = DIRECTION ( 'NONE',  ( 0.000000000000000000, -1.000000000000000000, 0.000000000000000000 ) ) ;
#65 = CYLINDRICAL_SURFACE ( 'NONE', #286, 7.500000000000007105 ) ;
#66 =( NAMED_UNIT ( * ) SI_UNIT ( $, .STERADIAN. ) SOLID_ANGLE_UNIT ( ) );
#67 = ADVANCED_FACE ( 'NONE', ( #209 ), #327, .F. ) ;
#68 = CALENDAR_DATE ( 2026, 21, 9 ) ;
#69 = CC_DESIGN_PERSON_AND_ORGANIZATION_ASSIGNMENT ( #221, #75, ( #176 ) ) ;
#70 = DIRECTION ( 'NONE',  ( -0.000000000000000000, -0.000000000000000000, -1.000000000000000000 ) ) ;
#71 = CIRCLE ( 'NONE', #220, 7.500000000000007105 ) ;
#72 = DIRECTION ( 'NONE',  ( -0.000000000000000000, -0.000000000000000000, -1.000000000000000000 ) ) ;
#73 = EDGE_LOOP ( 'NONE', ( #58, #174, #86, #253 ) ) ;
#74 = AXIS2_PLACEMENT_3D ( 'NONE', #203, #106, #350 ) ;
#75 = PERSON_AND_ORGANIZATION_ROLE ( 'design_supplier' ) ;
#76 = ORIENTED_EDGE ( 'NONE', *, *, #193, .T. ) ;
#77 = PERSON ( 'UNSPECIFIED', 'UNSPECIFIED', 'UNSPECIFIED', ('UNSPECIFIED'), ('UNSPECIFIED'), ('UNSPECIFIED') ) ;
#78 = CIRCLE ( 'NONE', #81, 7.500000000000007105 ) ;
#79 = EDGE_LOOP ( 'NONE', ( #42, #314 ) ) ;
#80 = APPROVAL ( #152, 'UNSPECIFIED' ) ;
#81 = AXIS2_PLACEMENT_3D ( 'NONE', #63, #267, #370 ) ;
#82 = PERSON_AND_ORGANIZATION_ROLE ( 'classification_officer' ) ;
#83 = ORIENTED_EDGE ( 'NONE', *, *, #338, .T. ) ;
#84 = EDGE_LOOP ( 'NONE', ( #4, #250, #258, #108 ) ) ;
#85 = EDGE_CURVE ( 'NONE', #18, #151, #182, .T. ) ;
#86 = ORIENTED_EDGE ( 'NONE', *, *, #275, .T. ) ;
#87 = DIRECTION ( 'NONE',  ( -1.000000000000000000, -0.000000000000000000, -0.000000000000000000 ) ) ;
#88 = FACE_OUTER_BOUND ( 'NONE', #73, .T. ) ;
#89 = DIRECTION ( 'NONE',  ( 1.000000000000000000, 0.000000000000000000, 0.000000000000000000 ) ) ;
#90 = DIRECTION ( 'NONE',  ( -1.000000000000000000, 0.000000000000000000, 0.000000000000000000 ) ) ;
#91 = ORIENTED_EDGE ( 'NONE', *, *, #229, .T. ) ;
#92 = AXIS2_PLACEMENT_3D ( 'NONE', #187, #337, #158 ) ;
#93 = ADVANCED_FACE ( 'NONE', ( #3 ), #234, .F. ) ;
#94 = AXIS2_PLACEMENT_3D ( 'NONE', #160, #351, #17 ) ;
#95 = FACE_OUTER_BOUND ( 'NONE', #32, .T. ) ;
#96 = MANIFOLD_SOLID_BREP ( 'Cut-Extrude1', #139 ) ;
#97 = CARTESIAN_POINT ( 'NONE',  ( 338.5000000000000000, 0.000000000000000000, 0.000000000000000000 ) ) ;
#98 = CARTESIAN_POINT ( 'NONE',  ( -358.5000000000000568, -32.37021857923493684, 0.000000000000000000 ) ) ;
#99 = PERSON_AND_ORGANIZATION ( #77, #237 ) ;
#100 = EDGE_CURVE ( 'NONE', #172, #138, #184, .T. ) ;
#101 = PLANE ( 'NONE',  #74 ) ;
#102 = CIRCLE ( 'NONE', #305, 7.500000000000007105 ) ;
#103 = AXIS2_PLACEMENT_3D ( 'NONE', #57, #365, #90 ) ;
#104 = PERSON_AND_ORGANIZATION_ROLE ( 'creator' ) ;
#105 = DIRECTION ( 'NONE',  ( -0.000000000000000000, -0.000000000000000000, -1.000000000000000000 ) ) ;
#106 = DIRECTION ( 'NONE',  ( 1.000000000000000000, 0.000000000000000000, -0.000000000000000000 ) ) ;
#107 = DATE_AND_TIME ( #207, #147 ) ;
#108 = ORIENTED_EDGE ( 'NONE', *, *, #302, .T. ) ;
#109 = DIRECTION ( 'NONE',  ( 1.000000000000000000, 0.000000000000000000, 0.000000000000000000 ) ) ;
#110 = AXIS2_PLACEMENT_3D ( 'NONE', #242, #165, #245 ) ;
#111 = EDGE_LOOP ( 'NONE', ( #312, #385, #76, #144 ) ) ;
#112 = ORIENTED_EDGE ( 'NONE', *, *, #62, .F. ) ;
#113 = CARTESIAN_POINT ( 'NONE',  ( 358.4999999999999432, 32.37021857923494395, 25.00000000000000000 ) ) ;
#114 = EDGE_LOOP ( 'NONE', ( #225, #323, #24, #318 ) ) ;
#115 = CC_DESIGN_SECURITY_CLASSIFICATION ( #169, ( #176 ) ) ;
#116 = VECTOR ( 'NONE', #293, 1000.000000000000000 ) ;
#117 = DIRECTION ( 'NONE',  ( -0.000000000000000000, 0.000000000000000000, 1.000000000000000000 ) ) ;
#118 = FACE_OUTER_BOUND ( 'NONE', #352, .T. ) ;
#119 = CYLINDRICAL_SURFACE ( 'NONE', #331, 7.500000000000007105 ) ;
#120 = DESIGN_CONTEXT ( 'detailed design', #150, 'design' ) ;
#121 = EDGE_CURVE ( 'NONE', #247, #278, #299, .T. ) ;
#122 = VERTEX_POINT ( 'NONE', #8 ) ;
#123 = LOCAL_TIME ( 22, 52, 25.00000000000000000, #13 ) ;
#124 = LINE ( 'NONE', #368, #328 ) ;
#125 = VECTOR ( 'NONE', #70, 1000.000000000000000 ) ;
#126 = ADVANCED_FACE ( 'NONE', ( #341 ), #65, .F. ) ;
#127 = COORDINATED_UNIVERSAL_TIME_OFFSET ( 5, 30, .AHEAD. ) ;
#128 = VECTOR ( 'NONE', #241, 1000.000000000000000 ) ;
#130 = AXIS2_PLACEMENT_3D ( 'NONE', #56, #235, #330 ) ;
#129 = CARTESIAN_POINT ( 'NONE',  ( -358.5000000000000568, -32.37021857923493684, 0.000000000000000000 ) ) ;
#131 = CARTESIAN_POINT ( 'NONE',  ( -346.0000000000000568, 0.000000000000000000, 25.00000000000000000 ) ) ;
#132 = PERSON_AND_ORGANIZATION ( #77, #237 ) ;
#133 = CARTESIAN_POINT ( 'NONE',  ( 358.4999999999999432, -32.37021857923492973, 0.000000000000000000 ) ) ;
#134 = VECTOR ( 'NONE', #105, 1000.000000000000000 ) ;
#135 = DATE_TIME_ROLE ( 'creation_date' ) ;
#136 = VERTEX_POINT ( 'NONE', #345 ) ;
#137 = PERSON_AND_ORGANIZATION_ROLE ( 'design_owner' ) ;
#138 = VERTEX_POINT ( 'NONE', #14 ) ;
#139 = CLOSED_SHELL ( 'NONE', ( #93, #67, #175, #2, #164, #26, #206, #171, #349, #126 ) ) ;
#140 = LINE ( 'NONE', #161, #204 ) ;
#141 = VERTEX_POINT ( 'NONE', #285 ) ;
#142 = LINE ( 'NONE', #223, #134 ) ;
#143 = SHAPE_DEFINITION_REPRESENTATION ( #179, #340 ) ;
#144 = ORIENTED_EDGE ( 'NONE', *, *, #36, .F. ) ;
#145 = ORIENTED_EDGE ( 'NONE', *, *, #100, .T. ) ;
#146 = CC_DESIGN_DATE_AND_TIME_ASSIGNMENT ( #276, #135, ( #358 ) ) ;
#147 = LOCAL_TIME ( 22, 52, 25.00000000000000000, #288 ) ;
#148 = AXIS2_PLACEMENT_3D ( 'NONE', #218, #238, #306 ) ;
#149 = ORIENTED_EDGE ( 'NONE', *, *, #302, .F. ) ;
#150 = APPLICATION_CONTEXT ( 'configuration controlled 3d designs of mechanical parts and assemblies' ) ;
#151 = VERTEX_POINT ( 'NONE', #133 ) ;
#152 = APPROVAL_STATUS ( 'not_yet_approved' ) ;
#153 = DIRECTION ( 'NONE',  ( -0.000000000000000000, -0.000000000000000000, -1.000000000000000000 ) ) ;
#154 = FACE_BOUND ( 'NONE', #227, .T. ) ;
#155 = DIRECTION ( 'NONE',  ( 0.000000000000000000, -0.000000000000000000, -1.000000000000000000 ) ) ;
#156 = PLANE ( 'NONE',  #281 ) ;
#157 = EDGE_CURVE ( 'NONE', #51, #278, #142, .T. ) ;
#158 = DIRECTION ( 'NONE',  ( 0.000000000000000000, 0.000000000000000000, 1.000000000000000000 ) ) ;
#159 = EDGE_CURVE ( 'NONE', #53, #247, #248, .T. ) ;
#160 = CARTESIAN_POINT ( 'NONE',  ( 0.000000000000000000, 0.000000000000000000, 0.000000000000000000 ) ) ;
#161 = CARTESIAN_POINT ( 'NONE',  ( 346.0000000000000568, 9.184850993605165694E-16, 25.00000000000000000 ) ) ;
#162 = AXIS2_PLACEMENT_3D ( 'NONE', #377, #198, #310 ) ;
#163 = CARTESIAN_POINT ( 'NONE',  ( -358.5000000000000568, 32.37021857923494395, 25.00000000000000000 ) ) ;
#164 = ADVANCED_FACE ( 'NONE', ( #376 ), #101, .F. ) ;
#165 = DIRECTION ( 'NONE',  ( 0.000000000000000000, 0.000000000000000000, -1.000000000000000000 ) ) ;
#166 = CARTESIAN_POINT ( 'NONE',  ( 338.5000000000000000, 0.000000000000000000, 0.000000000000000000 ) ) ;
#167 = ORIENTED_EDGE ( 'NONE', *, *, #35, .T. ) ;
#168 = CARTESIAN_POINT ( 'NONE',  ( -358.5000000000000568, 32.37021857923494395, 25.00000000000000000 ) ) ;
#169 = SECURITY_CLASSIFICATION ( '', '', #177 ) ;
#170 = ORIENTED_EDGE ( 'NONE', *, *, #344, .T. ) ;
#171 = ADVANCED_FACE ( 'NONE', ( #19, #282, #22 ), #197, .F. ) ;
#172 = VERTEX_POINT ( 'NONE', #215 ) ;
#173 = EDGE_CURVE ( 'NONE', #48, #136, #124, .T. ) ;
#174 = ORIENTED_EDGE ( 'NONE', *, *, #307, .T. ) ;
#175 = ADVANCED_FACE ( 'NONE', ( #95 ), #335, .F. ) ;
#176 = PRODUCT_DEFINITION_FORMATION_WITH_SPECIFIED_SOURCE ( 'ANY', '', #360, .NOT_KNOWN. ) ;
#177 = SECURITY_CLASSIFICATION_LEVEL ( 'unclassified' ) ;
#178 = LINE ( 'NONE', #211, #116 ) ;
#179 = PRODUCT_DEFINITION_SHAPE ( 'NONE', 'NONE',  #358 ) ;
#180 = AXIS2_PLACEMENT_3D ( 'NONE', #43, #316, #50 ) ;
#181 = CC_DESIGN_PERSON_AND_ORGANIZATION_ASSIGNMENT ( #99, #217, ( #358 ) ) ;
#182 = LINE ( 'NONE', #294, #315 ) ;
#183 = CARTESIAN_POINT ( 'NONE',  ( -358.5000000000000568, -32.37021857923493684, 25.00000000000000000 ) ) ;
#184 = LINE ( 'NONE', #298, #333 ) ;
#185 = VECTOR ( 'NONE', #216, 1000.000000000000000 ) ;
#186 = PLANE ( 'NONE',  #233 ) ;
#187 = CARTESIAN_POINT ( 'NONE',  ( 358.4999999999999432, 32.37021857923494395, 25.00000000000000000 ) ) ;
#188 = EDGE_CURVE ( 'NONE', #379, #48, #78, .T. ) ;
#189 = LINE ( 'NONE', #369, #272 ) ;
#190 = DIRECTION ( 'NONE',  ( -0.000000000000000000, 0.000000000000000000, 1.000000000000000000 ) ) ;
#191 = EDGE_CURVE ( 'NONE', #23, #138, #102, .T. ) ;
#192 = DATE_AND_TIME ( #68, #291 ) ;
#193 = EDGE_CURVE ( 'NONE', #379, #222, #9, .T. ) ;
#194 = LINE ( 'NONE', #129, #324 ) ;
#195 = CALENDAR_DATE ( 2026, 21, 9 ) ;
#196 = ORIENTED_EDGE ( 'NONE', *, *, #36, .T. ) ;
#197 = PLANE ( 'NONE',  #180 ) ;
#198 = DIRECTION ( 'NONE',  ( 0.000000000000000000, 0.000000000000000000, -1.000000000000000000 ) ) ;
#199 = PERSON_AND_ORGANIZATION ( #77, #237 ) ;
#200 = EDGE_CURVE ( 'NONE', #172, #141, #296, .T. ) ;
#201 = EDGE_LOOP ( 'NONE', ( #382, #45, #284, #354 ) ) ;
#202 = APPROVAL_PERSON_ORGANIZATION ( #52, #80, #381 ) ;
#203 = CARTESIAN_POINT ( 'NONE',  ( -358.5000000000000568, 32.37021857923494395, 25.00000000000000000 ) ) ;
#204 = VECTOR ( 'NONE', #303, 1000.000000000000000 ) ;
#205 = EDGE_LOOP ( 'NONE', ( #91, #196 ) ) ;
#206 = ADVANCED_FACE ( 'NONE', ( #154, #287, #88 ), #230, .T. ) ;
#207 = CALENDAR_DATE ( 2026, 21, 9 ) ;
#208 = ORIENTED_EDGE ( 'NONE', *, *, #85, .T. ) ;
#209 = FACE_OUTER_BOUND ( 'NONE', #114, .T. ) ;
#210 = ORIENTED_EDGE ( 'NONE', *, *, #200, .F. ) ;
#211 = CARTESIAN_POINT ( 'NONE',  ( 358.4999999999999432, 32.37021857923494395, 0.000000000000000000 ) ) ;
#212 = ORIENTED_EDGE ( 'NONE', *, *, #270, .F. ) ;
#213 = APPROVAL ( #10, 'UNSPECIFIED' ) ;
#214 = FACE_OUTER_BOUND ( 'NONE', #111, .T. ) ;
#215 = CARTESIAN_POINT ( 'NONE',  ( 331.0000000000000000, 0.000000000000000000, 25.00000000000000000 ) ) ;
#216 = DIRECTION ( 'NONE',  ( -1.000000000000000000, -0.000000000000000000, -0.000000000000000000 ) ) ;
#217 = PERSON_AND_ORGANIZATION_ROLE ( 'creator' ) ;
#218 = CARTESIAN_POINT ( 'NONE',  ( 338.5000000000000000, 0.000000000000000000, 25.00000000000000000 ) ) ;
#219 = CARTESIAN_POINT ( 'NONE',  ( -358.5000000000000568, 32.37021857923494395, 25.00000000000000000 ) ) ;
#220 = AXIS2_PLACEMENT_3D ( 'NONE', #292, #326, #334 ) ;
#221 = PERSON_AND_ORGANIZATION ( #77, #237 ) ;
#222 = VERTEX_POINT ( 'NONE', #54 ) ;
#223 = CARTESIAN_POINT ( 'NONE',  ( -358.5000000000000568, -32.37021857923493684, 25.00000000000000000 ) ) ;
#224 = ORIENTED_EDGE ( 'NONE', *, *, #375, .F. ) ;
#225 = ORIENTED_EDGE ( 'NONE', *, *, #361, .F. ) ;
#226 = VECTOR ( 'NONE', #72, 1000.000000000000000 ) ;
#227 = EDGE_LOOP ( 'NONE', ( #347, #83 ) ) ;
#228 = CARTESIAN_POINT ( 'NONE',  ( 358.4999999999999432, -32.37021857923492973, 25.00000000000000000 ) ) ;
#229 = EDGE_CURVE ( 'NONE', #222, #136, #71, .T. ) ;
#230 = PLANE ( 'NONE',  #28 ) ;
#231 = LINE ( 'NONE', #362, #262 ) ;
#232 = LOCAL_TIME ( 22, 52, 25.00000000000000000, #15 ) ;
#233 = AXIS2_PLACEMENT_3D ( 'NONE', #264, #27, #155 ) ;
#234 = CYLINDRICAL_SURFACE ( 'NONE', #103, 7.500000000000007105 ) ;
#235 = DIRECTION ( 'NONE',  ( -0.000000000000000000, -0.000000000000000000, -1.000000000000000000 ) ) ;
#236 = ORIENTED_EDGE ( 'NONE', *, *, #85, .F. ) ;
#237 = ORGANIZATION ( 'UNSPECIFIED', 'UNSPECIFIED', '' ) ;
#238 = DIRECTION ( 'NONE',  ( 0.000000000000000000, 0.000000000000000000, -1.000000000000000000 ) ) ;
#239 = CC_DESIGN_PERSON_AND_ORGANIZATION_ASSIGNMENT ( #271, #137, ( #360 ) ) ;
#240 = CARTESIAN_POINT ( 'NONE',  ( -358.5000000000000568, -32.37021857923493684, 25.00000000000000000 ) ) ;
#241 = DIRECTION ( 'NONE',  ( 1.000000000000000000, 9.677676295547041570E-18, 0.000000000000000000 ) ) ;
#242 = CARTESIAN_POINT ( 'NONE',  ( -338.5000000000000000, 0.000000000000000000, 25.00000000000000000 ) ) ;
#243 = CIRCLE ( 'NONE', #110, 7.500000000000007105 ) ;
#244 = CARTESIAN_POINT ( 'NONE',  ( -358.5000000000000568, 32.37021857923494395, 0.000000000000000000 ) ) ;
#245 = DIRECTION ( 'NONE',  ( -1.000000000000000000, 0.000000000000000000, 0.000000000000000000 ) ) ;
#246 = APPLICATION_PROTOCOL_DEFINITION ( 'international standard', 'config_control_design', 1994, #150 ) ;
#247 = VERTEX_POINT ( 'NONE', #61 ) ;
#248 = LINE ( 'NONE', #168, #125 ) ;
#249 = DIRECTION ( 'NONE',  ( -0.000000000000000000, -0.000000000000000000, -1.000000000000000000 ) ) ;
#250 = ORIENTED_EDGE ( 'NONE', *, *, #159, .F. ) ;
#251 = DIRECTION ( 'NONE',  ( -0.000000000000000000, -0.000000000000000000, -1.000000000000000000 ) ) ;
#252 = CARTESIAN_POINT ( 'NONE',  ( 358.4999999999999432, 32.37021857923494395, 25.00000000000000000 ) ) ;
#253 = ORIENTED_EDGE ( 'NONE', *, *, #270, .T. ) ;
#254 = EDGE_LOOP ( 'NONE', ( #170, #255 ) ) ;
#255 = ORIENTED_EDGE ( 'NONE', *, *, #191, .T. ) ;
#256 = CC_DESIGN_APPROVAL ( #38, ( #176 ) ) ;
#257 =( GEOMETRIC_REPRESENTATION_CONTEXT ( 3 ) GLOBAL_UNCERTAINTY_ASSIGNED_CONTEXT ( ( #268 ) ) GLOBAL_UNIT_ASSIGNED_CONTEXT ( ( #304, #311, #66 ) ) REPRESENTATION_CONTEXT ( 'NONE', 'WORKASPACE' ) );
#258 = ORIENTED_EDGE ( 'NONE', *, *, #307, .F. ) ;
#259 = CARTESIAN_POINT ( 'NONE',  ( -338.5000000000000000, 0.000000000000000000, 0.000000000000000000 ) ) ;
#260 = APPROVAL_DATE_TIME ( #107, #80 ) ;
#261 = DIRECTION ( 'NONE',  ( -0.000000000000000000, 0.000000000000000000, 1.000000000000000000 ) ) ;
#262 = VECTOR ( 'NONE', #87, 1000.000000000000000 ) ;
#263 = CARTESIAN_POINT ( 'NONE',  ( -331.0000000000000000, 9.184850993605173582E-16, 25.00000000000000000 ) ) ;
#264 = CARTESIAN_POINT ( 'NONE',  ( -358.5000000000000568, 32.37021857923494395, 25.00000000000000000 ) ) ;
#265 = CIRCLE ( 'NONE', #59, 7.500000000000007105 ) ;
#266 = LINE ( 'NONE', #163, #356 ) ;
#267 = DIRECTION ( 'NONE',  ( 0.000000000000000000, 0.000000000000000000, -1.000000000000000000 ) ) ;
#268 = UNCERTAINTY_MEASURE_WITH_UNIT (LENGTH_MEASURE( 1.000000000000000082E-05 ), #304, 'distance_accuracy_value', 'NONE');
#269 = PERSON_AND_ORGANIZATION ( #77, #237 ) ;
#270 = EDGE_CURVE ( 'NONE', #51, #18, #11, .T. ) ;
#271 = PERSON_AND_ORGANIZATION ( #77, #237 ) ;
#272 = VECTOR ( 'NONE', #336, 1000.000000000000000 ) ;
#273 = LINE ( 'NONE', #219, #185 ) ;
#274 = CARTESIAN_POINT ( 'NONE',  ( 338.5000000000000000, 0.000000000000000000, 25.00000000000000000 ) ) ;
#275 = EDGE_CURVE ( 'NONE', #53, #51, #266, .T. ) ;
#276 = DATE_AND_TIME ( #195, #123 ) ;
#277 = DIRECTION ( 'NONE',  ( -0.000000000000000000, 0.000000000000000000, 1.000000000000000000 ) ) ;
#278 = VERTEX_POINT ( 'NONE', #98 ) ;
#279 = DIRECTION ( 'NONE',  ( -1.000000000000000000, 0.000000000000000000, 0.000000000000000000 ) ) ;
#280 = ORIENTED_EDGE ( 'NONE', *, *, #371, .F. ) ;
#281 = AXIS2_PLACEMENT_3D ( 'NONE', #183, #55, #31 ) ;
#282 = FACE_BOUND ( 'NONE', #205, .T. ) ;
#283 = PERSON_AND_ORGANIZATION ( #77, #237 ) ;
#284 = ORIENTED_EDGE ( 'NONE', *, *, #275, .F. ) ;
#285 = CARTESIAN_POINT ( 'NONE',  ( 346.0000000000000568, 9.184850993605173582E-16, 25.00000000000000000 ) ) ;
#286 = AXIS2_PLACEMENT_3D ( 'NONE', #274, #251, #353 ) ;
#287 = FACE_BOUND ( 'NONE', #79, .T. ) ;
#288 = COORDINATED_UNIVERSAL_TIME_OFFSET ( 5, 30, .AHEAD. ) ;
#289 = ORIENTED_EDGE ( 'NONE', *, *, #309, .T. ) ;
#290 = ORIENTED_EDGE ( 'NONE', *, *, #100, .F. ) ;
#291 = LOCAL_TIME ( 22, 52, 25.00000000000000000, #127 ) ;
#292 = CARTESIAN_POINT ( 'NONE',  ( -338.5000000000000000, 0.000000000000000000, 0.000000000000000000 ) ) ;
#293 = DIRECTION ( 'NONE',  ( -0.000000000000000000, 1.000000000000000000, -0.000000000000000000 ) ) ;
#294 = CARTESIAN_POINT ( 'NONE',  ( 358.4999999999999432, -32.37021857923492973, 25.00000000000000000 ) ) ;
#295 = CARTESIAN_POINT ( 'NONE',  ( -358.5000000000000568, 32.37021857923494395, 25.00000000000000000 ) ) ;
#296 = CIRCLE ( 'NONE', #162, 7.500000000000007105 ) ;
#297 = DIRECTION ( 'NONE',  ( -0.000000000000000000, -0.000000000000000000, -1.000000000000000000 ) ) ;
#298 = CARTESIAN_POINT ( 'NONE',  ( 331.0000000000000000, 0.000000000000000000, 25.00000000000000000 ) ) ;
#299 = LINE ( 'NONE', #244, #325 ) ;
#300 = LOCAL_TIME ( 22, 52, 25.00000000000000000, #29 ) ;
#301 = DIRECTION ( 'NONE',  ( 1.000000000000000000, 0.000000000000000000, 0.000000000000000000 ) ) ;
#302 = EDGE_CURVE ( 'NONE', #60, #122, #189, .T. ) ;
#303 = DIRECTION ( 'NONE',  ( -0.000000000000000000, -0.000000000000000000, -1.000000000000000000 ) ) ;
#304 =( LENGTH_UNIT ( ) NAMED_UNIT ( * ) SI_UNIT ( .MILLI., .METRE. ) );
#305 = AXIS2_PLACEMENT_3D ( 'NONE', #97, #190, #301 ) ;
#306 = DIRECTION ( 'NONE',  ( -1.000000000000000000, 0.000000000000000000, 0.000000000000000000 ) ) ;
#307 = EDGE_CURVE ( 'NONE', #60, #53, #273, .T. ) ;
#308 = DATE_AND_TIME ( #374, #232 ) ;
#309 = EDGE_CURVE ( 'NONE', #278, #151, #194, .T. ) ;
#310 = DIRECTION ( 'NONE',  ( -1.000000000000000000, 0.000000000000000000, 0.000000000000000000 ) ) ;
#311 =( NAMED_UNIT ( * ) PLANE_ANGLE_UNIT ( ) SI_UNIT ( $, .RADIAN. ) );
#312 = ORIENTED_EDGE ( 'NONE', *, *, #173, .F. ) ;
#313 = APPLICATION_CONTEXT ( 'configuration controlled 3d designs of mechanical parts and assemblies' ) ;
#314 = ORIENTED_EDGE ( 'NONE', *, *, #361, .T. ) ;
#315 = VECTOR ( 'NONE', #153, 1000.000000000000000 ) ;
#316 = DIRECTION ( 'NONE',  ( -0.000000000000000000, 0.000000000000000000, 1.000000000000000000 ) ) ;
#317 = DATE_TIME_ROLE ( 'classification_date' ) ;
#318 = ORIENTED_EDGE ( 'NONE', *, *, #193, .F. ) ;
#319 = ORIENTED_EDGE ( 'NONE', *, *, #35, .F. ) ;
#320 = CC_DESIGN_DATE_AND_TIME_ASSIGNMENT ( #47, #317, ( #169 ) ) ;
#321 = CARTESIAN_POINT ( 'NONE',  ( 0.000000000000000000, 0.000000000000000000, 25.00000000000000000 ) ) ;
#322 = CALENDAR_DATE ( 2026, 21, 9 ) ;
#323 = ORIENTED_EDGE ( 'NONE', *, *, #173, .T. ) ;
#324 = VECTOR ( 'NONE', #16, 1000.000000000000000 ) ;
#325 = VECTOR ( 'NONE', #37, 1000.000000000000000 ) ;
#326 = DIRECTION ( 'NONE',  ( -0.000000000000000000, 0.000000000000000000, 1.000000000000000000 ) ) ;
#327 = CYLINDRICAL_SURFACE ( 'NONE', #130, 7.500000000000007105 ) ;
#328 = VECTOR ( 'NONE', #297, 1000.000000000000000 ) ;
#329 = EDGE_LOOP ( 'NONE', ( #280, #210, #145, #383 ) ) ;
#330 = DIRECTION ( 'NONE',  ( -1.000000000000000000, 0.000000000000000000, 0.000000000000000000 ) ) ;
#331 = AXIS2_PLACEMENT_3D ( 'NONE', #20, #249, #279 ) ;
#332 = FACE_OUTER_BOUND ( 'NONE', #84, .T. ) ;
#333 = VECTOR ( 'NONE', #34, 1000.000000000000000 ) ;
#334 = DIRECTION ( 'NONE',  ( 1.000000000000000000, 0.000000000000000000, 0.000000000000000000 ) ) ;
#335 = PLANE ( 'NONE',  #92 ) ;
#336 = DIRECTION ( 'NONE',  ( -0.000000000000000000, -0.000000000000000000, -1.000000000000000000 ) ) ;
#337 = DIRECTION ( 'NONE',  ( -1.000000000000000000, 0.000000000000000000, 0.000000000000000000 ) ) ;
#338 = EDGE_CURVE ( 'NONE', #141, #172, #12, .T. ) ;
#339 = CIRCLE ( 'NONE', #49, 7.500000000000007105 ) ;
#340 = ADVANCED_BREP_SHAPE_REPRESENTATION ( 'j_Default_sldprt', ( #96, #94 ), #257 ) ;
#341 = FACE_OUTER_BOUND ( 'NONE', #329, .T. ) ;
#342 = CARTESIAN_POINT ( 'NONE',  ( -346.0000000000000568, 0.000000000000000000, 25.00000000000000000 ) ) ;
#343 = APPROVAL_ROLE ( '' ) ;
#344 = EDGE_CURVE ( 'NONE', #138, #23, #265, .T. ) ;
#345 = CARTESIAN_POINT ( 'NONE',  ( -331.0000000000000000, 9.184850993605173582E-16, 0.000000000000000000 ) ) ;
#346 = APPROVAL_DATE_TIME ( #192, #213 ) ;
#347 = ORIENTED_EDGE ( 'NONE', *, *, #200, .T. ) ;
#348 = APPROVAL_PERSON_ORGANIZATION ( #269, #213, #343 ) ;
#349 = ADVANCED_FACE ( 'NONE', ( #214 ), #119, .F. ) ;
#350 = DIRECTION ( 'NONE',  ( -0.000000000000000000, 0.000000000000000000, -1.000000000000000000 ) ) ;
#351 = DIRECTION ( 'NONE',  ( 0.000000000000000000, 0.000000000000000000, 1.000000000000000000 ) ) ;
#352 = EDGE_LOOP ( 'NONE', ( #289, #236, #212, #21 ) ) ;
#353 = DIRECTION ( 'NONE',  ( -1.000000000000000000, 0.000000000000000000, 0.000000000000000000 ) ) ;
#354 = ORIENTED_EDGE ( 'NONE', *, *, #159, .T. ) ;
#355 = ORIENTED_EDGE ( 'NONE', *, *, #371, .T. ) ;
#356 = VECTOR ( 'NONE', #64, 1000.000000000000000 ) ;
#357 = EDGE_LOOP ( 'NONE', ( #359, #355, #366, #290 ) ) ;
#358 = PRODUCT_DEFINITION ( 'UNKNOWN', '', #176, #120 ) ;
#359 = ORIENTED_EDGE ( 'NONE', *, *, #338, .F. ) ;
#360 = PRODUCT ( 'j_Default_sldprt', 'j_Default_sldprt', '', ( #44 ) ) ;
#361 = EDGE_CURVE ( 'NONE', #48, #379, #243, .T. ) ;
#362 = CARTESIAN_POINT ( 'NONE',  ( -358.5000000000000568, 32.37021857923494395, 0.000000000000000000 ) ) ;
#363 = CC_DESIGN_PERSON_AND_ORGANIZATION_ASSIGNMENT ( #199, #104, ( #176 ) ) ;
#364 = EDGE_LOOP ( 'NONE', ( #319, #5, #380, #112 ) ) ;
#365 = DIRECTION ( 'NONE',  ( -0.000000000000000000, -0.000000000000000000, -1.000000000000000000 ) ) ;
#366 = ORIENTED_EDGE ( 'NONE', *, *, #344, .F. ) ;
#367 = DIRECTION ( 'NONE',  ( 1.000000000000000000, 0.000000000000000000, 0.000000000000000000 ) ) ;
#368 = CARTESIAN_POINT ( 'NONE',  ( -331.0000000000000000, 9.184850993605165694E-16, 25.00000000000000000 ) ) ;
#369 = CARTESIAN_POINT ( 'NONE',  ( 358.4999999999999432, 32.37021857923494395, 25.00000000000000000 ) ) ;
#370 = DIRECTION ( 'NONE',  ( -1.000000000000000000, 0.000000000000000000, 0.000000000000000000 ) ) ;
#371 = EDGE_CURVE ( 'NONE', #141, #23, #140, .T. ) ;
#372 = LINE ( 'NONE', #252, #384 ) ;
#373 = DIRECTION ( 'NONE',  ( -0.000000000000000000, 1.000000000000000000, -0.000000000000000000 ) ) ;
#374 = CALENDAR_DATE ( 2026, 21, 9 ) ;
#375 = EDGE_CURVE ( 'NONE', #18, #60, #372, .T. ) ;
#376 = FACE_OUTER_BOUND ( 'NONE', #201, .T. ) ;
#377 = CARTESIAN_POINT ( 'NONE',  ( 338.5000000000000000, 0.000000000000000000, 25.00000000000000000 ) ) ;
#378 = APPROVAL_STATUS ( 'not_yet_approved' ) ;
#379 = VERTEX_POINT ( 'NONE', #342 ) ;
#380 = ORIENTED_EDGE ( 'NONE', *, *, #121, .F. ) ;
#381 = APPROVAL_ROLE ( '' ) ;
#382 = ORIENTED_EDGE ( 'NONE', *, *, #121, .T. ) ;
#383 = ORIENTED_EDGE ( 'NONE', *, *, #191, .F. ) ;
#384 = VECTOR ( 'NONE', #373, 1000.000000000000000 ) ;
#385 = ORIENTED_EDGE ( 'NONE', *, *, #188, .F. ) ;
ENDSEC;
END-ISO-10303-21;
