ISO-10303-21;
HEADER;
FILE_DESCRIPTION (( 'STEP AP203' ),
    '1' );
FILE_NAME ('k_Default_sldprt.STEP',
    '2026-09-21T17:22:26',
    ( '' ),
    ( '' ),
    'SwSTEP 2.0',
    'SolidWorks 2021',
    '' );
FILE_SCHEMA (( 'CONFIG_CONTROL_DESIGN' ));
ENDSEC;

DATA;
#1 = LINE ( 'NONE', #128, #174 ) ;
#2 = AXIS2_PLACEMENT_3D ( 'NONE', #132, #163, #283 ) ;
#3 = EDGE_CURVE ( 'NONE', #130, #373, #40, .T. ) ;
#4 = APPROVAL ( #185, 'UNSPECIFIED' ) ;
#5 = ORIENTED_EDGE ( 'NONE', *, *, #56, .F. ) ;
#6 = CARTESIAN_POINT ( 'NONE',  ( -377.5000000000000000, 19.19491525423728717, 25.00000000000000000 ) ) ;
#7 = DIRECTION ( 'NONE',  ( 1.000000000000000000, 0.000000000000000000, 0.000000000000000000 ) ) ;
#8 = CARTESIAN_POINT ( 'NONE',  ( -377.5000000000000000, 19.19491525423728717, 0.000000000000000000 ) ) ;
#9 = DIRECTION ( 'NONE',  ( 0.000000000000000000, -1.000000000000000000, 0.000000000000000000 ) ) ;
#10 = LINE ( 'NONE', #133, #73 ) ;
#11 = APPROVAL_DATE_TIME ( #172, #328 ) ;
#12 = FACE_OUTER_BOUND ( 'NONE', #184, .T. ) ;
#13 = VECTOR ( 'NONE', #225, 1000.000000000000000 ) ;
#14 = CARTESIAN_POINT ( 'NONE',  ( 377.5000000000000000, 19.19491525423728717, 25.00000000000000000 ) ) ;
#15 = EDGE_LOOP ( 'NONE', ( #95, #180, #314, #192 ) ) ;
#16 = FACE_OUTER_BOUND ( 'NONE', #254, .T. ) ;
#17 = COORDINATED_UNIVERSAL_TIME_OFFSET ( 5, 30, .AHEAD. ) ;
#18 = LINE ( 'NONE', #253, #381 ) ;
#19 = DIRECTION ( 'NONE',  ( -0.000000000000000000, -0.000000000000000000, -1.000000000000000000 ) ) ;
#20 = DATE_AND_TIME ( #286, #363 ) ;
#21 = CIRCLE ( 'NONE', #54, 7.500000000000007105 ) ;
#22 = CARTESIAN_POINT ( 'NONE',  ( 377.5000000000000000, 19.19491525423728717, 0.000000000000000000 ) ) ;
#23 = SECURITY_CLASSIFICATION ( '', '', #251 ) ;
#24 = AXIS2_PLACEMENT_3D ( 'NONE', #6, #189, #312 ) ;
#25 = DATE_AND_TIME ( #347, #355 ) ;
#26 = CC_DESIGN_PERSON_AND_ORGANIZATION_ASSIGNMENT ( #155, #267, ( #198 ) ) ;
#27 = CARTESIAN_POINT ( 'NONE',  ( -357.4999999999999432, 0.000000000000000000, 0.000000000000000000 ) ) ;
#28 =( GEOMETRIC_REPRESENTATION_CONTEXT ( 3 ) GLOBAL_UNCERTAINTY_ASSIGNED_CONTEXT ( ( #272 ) ) GLOBAL_UNIT_ASSIGNED_CONTEXT ( ( #113, #220, #342 ) ) REPRESENTATION_CONTEXT ( 'NONE', 'WORKASPACE' ) );
#29 = EDGE_LOOP ( 'NONE', ( #354, #300 ) ) ;
#30 = MECHANICAL_CONTEXT ( 'NONE', #91, 'mechanical' ) ;
#31 = EDGE_LOOP ( 'NONE', ( #69, #323, #140, #232 ) ) ;
#32 = EDGE_CURVE ( 'NONE', #359, #130, #378, .T. ) ;
#33 = ORIENTED_EDGE ( 'NONE', *, *, #229, .T. ) ;
#34 = DIRECTION ( 'NONE',  ( 1.000000000000000000, 0.000000000000000000, 0.000000000000000000 ) ) ;
#35 = LOCAL_TIME ( 22, 52, 26.00000000000000000, #147 ) ;
#36 = DIRECTION ( 'NONE',  ( 1.000000000000000000, 0.000000000000000000, 0.000000000000000000 ) ) ;
#37 = EDGE_LOOP ( 'NONE', ( #212, #154, #33, #266 ) ) ;
#38 = PLANE ( 'NONE',  #59 ) ;
#39 = DIRECTION ( 'NONE',  ( -0.000000000000000000, -0.000000000000000000, -1.000000000000000000 ) ) ;
#40 = LINE ( 'NONE', #276, #231 ) ;
#41 = LINE ( 'NONE', #238, #159 ) ;
#42 = CARTESIAN_POINT ( 'NONE',  ( 357.5000000000000568, 0.000000000000000000, 25.00000000000000000 ) ) ;
#43 = ORIENTED_EDGE ( 'NONE', *, *, #165, .F. ) ;
#44 = DATE_AND_TIME ( #364, #153 ) ;
#45 = PERSON_AND_ORGANIZATION_ROLE ( 'design_supplier' ) ;
#46 = DIRECTION ( 'NONE',  ( -0.000000000000000000, -0.000000000000000000, -1.000000000000000000 ) ) ;
#47 = APPROVAL_PERSON_ORGANIZATION ( #118, #302, #230 ) ;
#48 = CARTESIAN_POINT ( 'NONE',  ( -349.9999999999999432, 9.184850993605173582E-16, 25.00000000000000000 ) ) ;
#49 = ORIENTED_EDGE ( 'NONE', *, *, #3, .T. ) ;
#50 = LINE ( 'NONE', #247, #221 ) ;
#51 = CC_DESIGN_PERSON_AND_ORGANIZATION_ASSIGNMENT ( #138, #371, ( #23 ) ) ;
#52 = LINE ( 'NONE', #250, #109 ) ;
#53 = DIRECTION ( 'NONE',  ( 1.000000000000000000, 0.000000000000000000, 0.000000000000000000 ) ) ;
#54 = AXIS2_PLACEMENT_3D ( 'NONE', #27, #265, #384 ) ;
#55 = DIRECTION ( 'NONE',  ( -1.000000000000000000, 0.000000000000000000, 0.000000000000000000 ) ) ;
#56 = EDGE_CURVE ( 'NONE', #143, #264, #279, .T. ) ;
#57 = CALENDAR_DATE ( 2026, 21, 9 ) ;
#58 = PRODUCT_RELATED_PRODUCT_CATEGORY ( 'detail', '', ( #198 ) ) ;
#59 = AXIS2_PLACEMENT_3D ( 'NONE', #215, #305, #335 ) ;
#60 = CARTESIAN_POINT ( 'NONE',  ( -377.5000000000000000, -19.19491525423728717, 25.00000000000000000 ) ) ;
#61 = DIRECTION ( 'NONE',  ( -0.000000000000000000, 0.000000000000000000, -1.000000000000000000 ) ) ;
#62 = APPROVAL_DATE_TIME ( #25, #302 ) ;
#63 = APPLICATION_PROTOCOL_DEFINITION ( 'international standard', 'config_control_design', 1994, #150 ) ;
#64 = EDGE_LOOP ( 'NONE', ( #68, #295 ) ) ;
#65 = CARTESIAN_POINT ( 'NONE',  ( -377.5000000000000000, -19.19491525423728717, 25.00000000000000000 ) ) ;
#66 = VECTOR ( 'NONE', #39, 1000.000000000000000 ) ;
#67 = EDGE_CURVE ( 'NONE', #359, #234, #52, .T. ) ;
#68 = ORIENTED_EDGE ( 'NONE', *, *, #148, .T. ) ;
#69 = ORIENTED_EDGE ( 'NONE', *, *, #379, .F. ) ;
#70 = PLANE ( 'NONE',  #327 ) ;
#71 = ORIENTED_EDGE ( 'NONE', *, *, #148, .F. ) ;
#72 = PLANE ( 'NONE',  #24 ) ;
#73 = VECTOR ( 'NONE', #366, 1000.000000000000000 ) ;
#74 = FACE_BOUND ( 'NONE', #304, .T. ) ;
#75 = ORIENTED_EDGE ( 'NONE', *, *, #67, .T. ) ;
#76 = CARTESIAN_POINT ( 'NONE',  ( -357.4999999999999432, 0.000000000000000000, 25.00000000000000000 ) ) ;
#77 = ORIENTED_EDGE ( 'NONE', *, *, #173, .F. ) ;
#78 = FACE_OUTER_BOUND ( 'NONE', #339, .T. ) ;
#79 = AXIS2_PLACEMENT_3D ( 'NONE', #309, #161, #100 ) ;
#80 = ORIENTED_EDGE ( 'NONE', *, *, #84, .T. ) ;
#81 = VERTEX_POINT ( 'NONE', #8 ) ;
#82 = CYLINDRICAL_SURFACE ( 'NONE', #93, 7.500000000000007105 ) ;
#83 = CARTESIAN_POINT ( 'NONE',  ( 350.0000000000000568, 0.000000000000000000, 25.00000000000000000 ) ) ;
#84 = EDGE_CURVE ( 'NONE', #216, #233, #274, .T. ) ;
#85 = DIRECTION ( 'NONE',  ( 0.000000000000000000, 0.000000000000000000, 1.000000000000000000 ) ) ;
#86 = AXIS2_PLACEMENT_3D ( 'NONE', #297, #157, #352 ) ;
#87 = PLANE ( 'NONE',  #178 ) ;
#88 = AXIS2_PLACEMENT_3D ( 'NONE', #219, #164, #223 ) ;
#89 = CC_DESIGN_SECURITY_CLASSIFICATION ( #23, ( #341 ) ) ;
#90 = COORDINATED_UNIVERSAL_TIME_OFFSET ( 5, 30, .AHEAD. ) ;
#91 = APPLICATION_CONTEXT ( 'configuration controlled 3d designs of mechanical parts and assemblies' ) ;
#92 = EDGE_CURVE ( 'NONE', #130, #359, #299, .T. ) ;
#93 = AXIS2_PLACEMENT_3D ( 'NONE', #201, #145, #112 ) ;
#94 = CARTESIAN_POINT ( 'NONE',  ( -364.9999999999999432, 0.000000000000000000, 0.000000000000000000 ) ) ;
#95 = ORIENTED_EDGE ( 'NONE', *, *, #227, .T. ) ;
#96 = EDGE_CURVE ( 'NONE', #81, #329, #257, .T. ) ;
#97 = DIRECTION ( 'NONE',  ( -0.000000000000000000, 0.000000000000000000, 1.000000000000000000 ) ) ;
#98 = VERTEX_POINT ( 'NONE', #278 ) ;
#99 = CIRCLE ( 'NONE', #2, 7.500000000000007105 ) ;
#100 = DIRECTION ( 'NONE',  ( 0.000000000000000000, 0.000000000000000000, 1.000000000000000000 ) ) ;
#101 = ORIENTED_EDGE ( 'NONE', *, *, #255, .T. ) ;
#102 = DIRECTION ( 'NONE',  ( -0.000000000000000000, -0.000000000000000000, -1.000000000000000000 ) ) ;
#103 = CARTESIAN_POINT ( 'NONE',  ( -357.4999999999999432, 0.000000000000000000, 25.00000000000000000 ) ) ;
#104 = LINE ( 'NONE', #110, #66 ) ;
#105 = ORIENTED_EDGE ( 'NONE', *, *, #123, .F. ) ;
#106 = ADVANCED_FACE ( 'NONE', ( #78 ), #193, .F. ) ;
#107 = DIRECTION ( 'NONE',  ( 1.000000000000000000, 0.000000000000000000, -0.000000000000000000 ) ) ;
#108 = CARTESIAN_POINT ( 'NONE',  ( -357.4999999999999432, 0.000000000000000000, 0.000000000000000000 ) ) ;
#109 = VECTOR ( 'NONE', #169, 1000.000000000000000 ) ;
#110 = CARTESIAN_POINT ( 'NONE',  ( 377.5000000000000000, 19.19491525423728717, 25.00000000000000000 ) ) ;
#111 = CARTESIAN_POINT ( 'NONE',  ( -377.5000000000000000, 19.19491525423728717, 25.00000000000000000 ) ) ;
#112 = DIRECTION ( 'NONE',  ( -1.000000000000000000, 0.000000000000000000, 0.000000000000000000 ) ) ;
#113 =( LENGTH_UNIT ( ) NAMED_UNIT ( * ) SI_UNIT ( .MILLI., .METRE. ) );
#114 = PERSON ( 'UNSPECIFIED', 'UNSPECIFIED', 'UNSPECIFIED', ('UNSPECIFIED'), ('UNSPECIFIED'), ('UNSPECIFIED') ) ;
#115 = CIRCLE ( 'NONE', #293, 7.500000000000007105 ) ;
#116 = EDGE_CURVE ( 'NONE', #333, #162, #340, .T. ) ;
#117 = CC_DESIGN_PERSON_AND_ORGANIZATION_ASSIGNMENT ( #134, #45, ( #341 ) ) ;
#118 = PERSON_AND_ORGANIZATION ( #114, #311 ) ;
#119 = FACE_OUTER_BOUND ( 'NONE', #15, .T. ) ;
#120 = VERTEX_POINT ( 'NONE', #191 ) ;
#121 = APPROVAL_STATUS ( 'not_yet_approved' ) ;
#122 = ORIENTED_EDGE ( 'NONE', *, *, #32, .T. ) ;
#123 = EDGE_CURVE ( 'NONE', #234, #373, #144, .T. ) ;
#124 = CC_DESIGN_DATE_AND_TIME_ASSIGNMENT ( #357, #308, ( #131 ) ) ;
#125 = APPROVAL_PERSON_ORGANIZATION ( #330, #4, #301 ) ;
#126 = LOCAL_TIME ( 22, 52, 26.00000000000000000, #350 ) ;
#127 = ORIENTED_EDGE ( 'NONE', *, *, #123, .T. ) ;
#128 = CARTESIAN_POINT ( 'NONE',  ( -377.5000000000000000, -19.19491525423728717, 0.000000000000000000 ) ) ;
#129 = DIRECTION ( 'NONE',  ( 0.000000000000000000, 0.000000000000000000, 1.000000000000000000 ) ) ;
#130 = VERTEX_POINT ( 'NONE', #48 ) ;
#131 = PRODUCT_DEFINITION ( 'UNKNOWN', '', #341, #332 ) ;
#132 = CARTESIAN_POINT ( 'NONE',  ( 357.5000000000000568, 0.000000000000000000, 0.000000000000000000 ) ) ;
#133 = CARTESIAN_POINT ( 'NONE',  ( 377.5000000000000000, -19.19491525423728717, 25.00000000000000000 ) ) ;
#134 = PERSON_AND_ORGANIZATION ( #114, #311 ) ;
#135 = FACE_OUTER_BOUND ( 'NONE', #179, .T. ) ;
#136 = CARTESIAN_POINT ( 'NONE',  ( -377.5000000000000000, 19.19491525423728717, 25.00000000000000000 ) ) ;
#137 = ADVANCED_FACE ( 'NONE', ( #374 ), #306, .F. ) ;
#138 = PERSON_AND_ORGANIZATION ( #114, #311 ) ;
#139 = CARTESIAN_POINT ( 'NONE',  ( -377.5000000000000000, 19.19491525423728717, 0.000000000000000000 ) ) ;
#140 = ORIENTED_EDGE ( 'NONE', *, *, #96, .F. ) ;
#141 = DATE_TIME_ROLE ( 'classification_date' ) ;
#142 = CARTESIAN_POINT ( 'NONE',  ( -377.5000000000000000, 19.19491525423728717, 25.00000000000000000 ) ) ;
#143 = VERTEX_POINT ( 'NONE', #14 ) ;
#144 = CIRCLE ( 'NONE', #376, 7.500000000000007105 ) ;
#145 = DIRECTION ( 'NONE',  ( -0.000000000000000000, -0.000000000000000000, -1.000000000000000000 ) ) ;
#146 = VECTOR ( 'NONE', #199, 1000.000000000000000 ) ;
#147 = COORDINATED_UNIVERSAL_TIME_OFFSET ( 5, 30, .AHEAD. ) ;
#148 = EDGE_CURVE ( 'NONE', #162, #333, #99, .T. ) ;
#149 = CC_DESIGN_PERSON_AND_ORGANIZATION_ASSIGNMENT ( #175, #294, ( #131 ) ) ;
#150 = APPLICATION_CONTEXT ( 'configuration controlled 3d designs of mechanical parts and assemblies' ) ;
#151 = ADVANCED_FACE ( 'NONE', ( #74, #241, #360 ), #70, .T. ) ;
#152 = AXIS2_PLACEMENT_3D ( 'NONE', #42, #167, #287 ) ;
#153 = LOCAL_TIME ( 22, 52, 26.00000000000000000, #242 ) ;
#154 = ORIENTED_EDGE ( 'NONE', *, *, #268, .T. ) ;
#155 = PERSON_AND_ORGANIZATION ( #114, #311 ) ;
#156 = ORIENTED_EDGE ( 'NONE', *, *, #260, .F. ) ;
#157 = DIRECTION ( 'NONE',  ( 0.000000000000000000, 0.000000000000000000, 1.000000000000000000 ) ) ;
#158 = ORIENTED_EDGE ( 'NONE', *, *, #260, .T. ) ;
#159 = VECTOR ( 'NONE', #240, 1000.000000000000000 ) ;
#160 = FACE_OUTER_BOUND ( 'NONE', #31, .T. ) ;
#161 = DIRECTION ( 'NONE',  ( -1.000000000000000000, 0.000000000000000000, 0.000000000000000000 ) ) ;
#162 = VERTEX_POINT ( 'NONE', #368 ) ;
#163 = DIRECTION ( 'NONE',  ( 0.000000000000000000, 0.000000000000000000, 1.000000000000000000 ) ) ;
#164 = DIRECTION ( 'NONE',  ( 0.000000000000000000, 0.000000000000000000, 1.000000000000000000 ) ) ;
#165 = EDGE_CURVE ( 'NONE', #264, #216, #361, .T. ) ;
#166 = DIRECTION ( 'NONE',  ( -1.000000000000000000, 0.000000000000000000, 0.000000000000000000 ) ) ;
#167 = DIRECTION ( 'NONE',  ( -0.000000000000000000, -0.000000000000000000, -1.000000000000000000 ) ) ;
#168 = EDGE_LOOP ( 'NONE', ( #158, #177, #211, #80 ) ) ;
#169 = DIRECTION ( 'NONE',  ( -0.000000000000000000, -0.000000000000000000, -1.000000000000000000 ) ) ;
#170 = CARTESIAN_POINT ( 'NONE',  ( 357.5000000000000568, 0.000000000000000000, 25.00000000000000000 ) ) ;
#171 = CC_DESIGN_DATE_AND_TIME_ASSIGNMENT ( #20, #141, ( #23 ) ) ;
#172 = DATE_AND_TIME ( #57, #35 ) ;
#173 = EDGE_CURVE ( 'NONE', #143, #120, #104, .T. ) ;
#174 = VECTOR ( 'NONE', #34, 1000.000000000000000 ) ;
#175 = PERSON_AND_ORGANIZATION ( #114, #311 ) ;
#176 = EDGE_CURVE ( 'NONE', #120, #81, #18, .T. ) ;
#177 = ORIENTED_EDGE ( 'NONE', *, *, #56, .T. ) ;
#178 = AXIS2_PLACEMENT_3D ( 'NONE', #60, #281, #370 ) ;
#179 = EDGE_LOOP ( 'NONE', ( #122, #49, #105, #236 ) ) ;
#180 = ORIENTED_EDGE ( 'NONE', *, *, #255, .F. ) ;
#181 = APPROVAL_DATE_TIME ( #44, #4 ) ;
#182 = CC_DESIGN_PERSON_AND_ORGANIZATION_ASSIGNMENT ( #196, #338, ( #341 ) ) ;
#183 = CARTESIAN_POINT ( 'NONE',  ( -377.5000000000000000, -19.19491525423728717, 25.00000000000000000 ) ) ;
#184 = EDGE_LOOP ( 'NONE', ( #362, #269, #75, #284 ) ) ;
#185 = APPROVAL_STATUS ( 'not_yet_approved' ) ;
#186 = AXIS2_PLACEMENT_3D ( 'NONE', #372, #107, #61 ) ;
#187 = FACE_BOUND ( 'NONE', #375, .T. ) ;
#188 = CARTESIAN_POINT ( 'NONE',  ( 365.0000000000000568, 9.184850993605165694E-16, 25.00000000000000000 ) ) ;
#189 = DIRECTION ( 'NONE',  ( 0.000000000000000000, -1.000000000000000000, 0.000000000000000000 ) ) ;
#190 = EDGE_CURVE ( 'NONE', #98, #333, #213, .T. ) ;
#191 = CARTESIAN_POINT ( 'NONE',  ( 377.5000000000000000, 19.19491525423728717, 0.000000000000000000 ) ) ;
#192 = ORIENTED_EDGE ( 'NONE', *, *, #336, .T. ) ;
#193 = PLANE ( 'NONE',  #79 ) ;
#194 = FACE_OUTER_BOUND ( 'NONE', #296, .T. ) ;
#195 = AXIS2_PLACEMENT_3D ( 'NONE', #273, #303, #7 ) ;
#196 = PERSON_AND_ORGANIZATION ( #114, #311 ) ;
#197 = DIRECTION ( 'NONE',  ( 0.000000000000000000, 0.000000000000000000, 1.000000000000000000 ) ) ;
#198 = PRODUCT ( 'k_Default_sldprt', 'k_Default_sldprt', '', ( #30 ) ) ;
#199 = DIRECTION ( 'NONE',  ( -0.000000000000000000, 1.000000000000000000, -0.000000000000000000 ) ) ;
#200 = ORIENTED_EDGE ( 'NONE', *, *, #320, .T. ) ;
#201 = CARTESIAN_POINT ( 'NONE',  ( 357.5000000000000568, 0.000000000000000000, 25.00000000000000000 ) ) ;
#202 = CARTESIAN_POINT ( 'NONE',  ( -364.9999999999999432, 0.000000000000000000, 25.00000000000000000 ) ) ;
#203 = CARTESIAN_POINT ( 'NONE',  ( -357.4999999999999432, 0.000000000000000000, 25.00000000000000000 ) ) ;
#204 = ADVANCED_FACE ( 'NONE', ( #119 ), #87, .F. ) ;
#205 = CIRCLE ( 'NONE', #237, 7.500000000000007105 ) ;
#206 = ORIENTED_EDGE ( 'NONE', *, *, #365, .T. ) ;
#207 = ORIENTED_EDGE ( 'NONE', *, *, #190, .T. ) ;
#208 = CARTESIAN_POINT ( 'NONE',  ( 365.0000000000000568, 9.184850993605173582E-16, 0.000000000000000000 ) ) ;
#209 = AXIS2_PLACEMENT_3D ( 'NONE', #76, #197, #218 ) ;
#210 = ADVANCED_FACE ( 'NONE', ( #194 ), #72, .F. ) ;
#211 = ORIENTED_EDGE ( 'NONE', *, *, #165, .T. ) ;
#212 = ORIENTED_EDGE ( 'NONE', *, *, #190, .F. ) ;
#213 = LINE ( 'NONE', #188, #280 ) ;
#214 = ORIENTED_EDGE ( 'NONE', *, *, #224, .F. ) ;
#215 = CARTESIAN_POINT ( 'NONE',  ( 0.000000000000000000, 0.000000000000000000, 0.000000000000000000 ) ) ;
#216 = VERTEX_POINT ( 'NONE', #183 ) ;
#217 = LINE ( 'NONE', #344, #146 ) ;
#218 = DIRECTION ( 'NONE',  ( 1.000000000000000000, 0.000000000000000000, 0.000000000000000000 ) ) ;
#219 = CARTESIAN_POINT ( 'NONE',  ( -357.4999999999999432, 0.000000000000000000, 25.00000000000000000 ) ) ;
#220 =( NAMED_UNIT ( * ) PLANE_ANGLE_UNIT ( ) SI_UNIT ( $, .RADIAN. ) );
#221 = VECTOR ( 'NONE', #102, 1000.000000000000000 ) ;
#222 = DIRECTION ( 'NONE',  ( -1.000000000000000000, -0.000000000000000000, -0.000000000000000000 ) ) ;
#223 = DIRECTION ( 'NONE',  ( 1.000000000000000000, 0.000000000000000000, 0.000000000000000000 ) ) ;
#224 = EDGE_CURVE ( 'NONE', #264, #81, #50, .T. ) ;
#225 = DIRECTION ( 'NONE',  ( -0.000000000000000000, -0.000000000000000000, -1.000000000000000000 ) ) ;
#226 = FACE_OUTER_BOUND ( 'NONE', #37, .T. ) ;
#227 = EDGE_CURVE ( 'NONE', #329, #298, #1, .T. ) ;
#228 = VECTOR ( 'NONE', #249, 1000.000000000000000 ) ;
#229 = EDGE_CURVE ( 'NONE', #356, #162, #41, .T. ) ;
#230 = APPROVAL_ROLE ( '' ) ;
#231 = VECTOR ( 'NONE', #19, 1000.000000000000000 ) ;
#232 = ORIENTED_EDGE ( 'NONE', *, *, #176, .F. ) ;
#233 = VERTEX_POINT ( 'NONE', #358 ) ;
#234 = VERTEX_POINT ( 'NONE', #94 ) ;
#235 = ADVANCED_FACE ( 'NONE', ( #160, #187, #243 ), #38, .F. ) ;
#236 = ORIENTED_EDGE ( 'NONE', *, *, #67, .F. ) ;
#237 = AXIS2_PLACEMENT_3D ( 'NONE', #318, #85, #315 ) ;
#238 = CARTESIAN_POINT ( 'NONE',  ( 350.0000000000000568, 0.000000000000000000, 25.00000000000000000 ) ) ;
#239 = ORIENTED_EDGE ( 'NONE', *, *, #96, .T. ) ;
#240 = DIRECTION ( 'NONE',  ( -0.000000000000000000, -0.000000000000000000, -1.000000000000000000 ) ) ;
#241 = FACE_OUTER_BOUND ( 'NONE', #168, .T. ) ;
#242 = COORDINATED_UNIVERSAL_TIME_OFFSET ( 5, 30, .AHEAD. ) ;
#243 = FACE_BOUND ( 'NONE', #64, .T. ) ;
#244 = DIRECTION ( 'NONE',  ( 1.000000000000000000, 0.000000000000000000, 0.000000000000000000 ) ) ;
#245 = ORIENTED_EDGE ( 'NONE', *, *, #173, .T. ) ;
#246 = CC_DESIGN_APPROVAL ( #4, ( #341 ) ) ;
#247 = CARTESIAN_POINT ( 'NONE',  ( -377.5000000000000000, 19.19491525423728717, 25.00000000000000000 ) ) ;
#248 = CYLINDRICAL_SURFACE ( 'NONE', #348, 7.500000000000007105 ) ;
#249 = DIRECTION ( 'NONE',  ( 0.000000000000000000, -1.000000000000000000, 0.000000000000000000 ) ) ;
#250 = CARTESIAN_POINT ( 'NONE',  ( -364.9999999999999432, 0.000000000000000000, 25.00000000000000000 ) ) ;
#251 = SECURITY_CLASSIFICATION_LEVEL ( 'unclassified' ) ;
#252 = PLANE ( 'NONE',  #186 ) ;
#253 = CARTESIAN_POINT ( 'NONE',  ( -377.5000000000000000, 19.19491525423728717, 0.000000000000000000 ) ) ;
#254 = EDGE_LOOP ( 'NONE', ( #239, #324, #43, #385 ) ) ;
#255 = EDGE_CURVE ( 'NONE', #233, #298, #10, .T. ) ;
#256 = PERSON_AND_ORGANIZATION ( #114, #311 ) ;
#257 = LINE ( 'NONE', #139, #345 ) ;
#258 = ORIENTED_EDGE ( 'NONE', *, *, #92, .F. ) ;
#259 = CLOSED_SHELL ( 'NONE', ( #137, #291, #151, #235, #106, #210, #310, #204, #285, #346 ) ) ;
#260 = EDGE_CURVE ( 'NONE', #233, #143, #217, .T. ) ;
#261 = CC_DESIGN_APPROVAL ( #302, ( #131 ) ) ;
#262 = DIRECTION ( 'NONE',  ( -0.000000000000000000, -0.000000000000000000, -1.000000000000000000 ) ) ;
#263 = VECTOR ( 'NONE', #36, 1000.000000000000000 ) ;
#264 = VERTEX_POINT ( 'NONE', #111 ) ;
#265 = DIRECTION ( 'NONE',  ( 0.000000000000000000, 0.000000000000000000, 1.000000000000000000 ) ) ;
#266 = ORIENTED_EDGE ( 'NONE', *, *, #116, .F. ) ;
#267 = PERSON_AND_ORGANIZATION_ROLE ( 'design_owner' ) ;
#268 = EDGE_CURVE ( 'NONE', #98, #356, #205, .T. ) ;
#269 = ORIENTED_EDGE ( 'NONE', *, *, #92, .T. ) ;
#270 = VECTOR ( 'NONE', #317, 1000.000000000000000 ) ;
#271 = ORIENTED_EDGE ( 'NONE', *, *, #176, .T. ) ;
#272 = UNCERTAINTY_MEASURE_WITH_UNIT (LENGTH_MEASURE( 1.000000000000000082E-05 ), #113, 'distance_accuracy_value', 'NONE');
#273 = CARTESIAN_POINT ( 'NONE',  ( 357.5000000000000568, 0.000000000000000000, 0.000000000000000000 ) ) ;
#274 = LINE ( 'NONE', #331, #263 ) ;
#275 = DIRECTION ( 'NONE',  ( 1.000000000000000000, 0.000000000000000000, 0.000000000000000000 ) ) ;
#276 = CARTESIAN_POINT ( 'NONE',  ( -349.9999999999999432, 9.184850993605165694E-16, 25.00000000000000000 ) ) ;
#277 = CALENDAR_DATE ( 2026, 21, 9 ) ;
#278 = CARTESIAN_POINT ( 'NONE',  ( 365.0000000000000568, 9.184850993605173582E-16, 25.00000000000000000 ) ) ;
#279 = LINE ( 'NONE', #136, #270 ) ;
#280 = VECTOR ( 'NONE', #262, 1000.000000000000000 ) ;
#281 = DIRECTION ( 'NONE',  ( 0.000000000000000000, 1.000000000000000000, 0.000000000000000000 ) ) ;
#282 = CARTESIAN_POINT ( 'NONE',  ( 377.5000000000000000, -19.19491525423728717, 0.000000000000000000 ) ) ;
#283 = DIRECTION ( 'NONE',  ( 1.000000000000000000, 0.000000000000000000, 0.000000000000000000 ) ) ;
#284 = ORIENTED_EDGE ( 'NONE', *, *, #320, .F. ) ;
#285 = ADVANCED_FACE ( 'NONE', ( #12 ), #313, .F. ) ;
#286 = CALENDAR_DATE ( 2026, 21, 9 ) ;
#287 = DIRECTION ( 'NONE',  ( -1.000000000000000000, 0.000000000000000000, 0.000000000000000000 ) ) ;
#288 = SHAPE_DEFINITION_REPRESENTATION ( #343, #334 ) ;
#289 = LINE ( 'NONE', #22, #290 ) ;
#290 = VECTOR ( 'NONE', #377, 1000.000000000000000 ) ;
#291 = ADVANCED_FACE ( 'NONE', ( #135 ), #248, .F. ) ;
#292 = CARTESIAN_POINT ( 'NONE',  ( -349.9999999999999432, 9.184850993605173582E-16, 0.000000000000000000 ) ) ;
#293 = AXIS2_PLACEMENT_3D ( 'NONE', #170, #319, #53 ) ;
#294 = PERSON_AND_ORGANIZATION_ROLE ( 'creator' ) ;
#295 = ORIENTED_EDGE ( 'NONE', *, *, #116, .T. ) ;
#296 = EDGE_LOOP ( 'NONE', ( #271, #214, #5, #245 ) ) ;
#297 = CARTESIAN_POINT ( 'NONE',  ( 0.000000000000000000, 0.000000000000000000, 0.000000000000000000 ) ) ;
#298 = VERTEX_POINT ( 'NONE', #282 ) ;
#299 = CIRCLE ( 'NONE', #209, 7.500000000000007105 ) ;
#300 = ORIENTED_EDGE ( 'NONE', *, *, #268, .F. ) ;
#301 = APPROVAL_ROLE ( '' ) ;
#302 = APPROVAL ( #121, 'UNSPECIFIED' ) ;
#303 = DIRECTION ( 'NONE',  ( 0.000000000000000000, 0.000000000000000000, 1.000000000000000000 ) ) ;
#304 = EDGE_LOOP ( 'NONE', ( #307, #258 ) ) ;
#305 = DIRECTION ( 'NONE',  ( -0.000000000000000000, 0.000000000000000000, 1.000000000000000000 ) ) ;
#306 = CYLINDRICAL_SURFACE ( 'NONE', #152, 7.500000000000007105 ) ;
#307 = ORIENTED_EDGE ( 'NONE', *, *, #32, .F. ) ;
#308 = DATE_TIME_ROLE ( 'creation_date' ) ;
#309 = CARTESIAN_POINT ( 'NONE',  ( 377.5000000000000000, 19.19491525423728717, 25.00000000000000000 ) ) ;
#310 = ADVANCED_FACE ( 'NONE', ( #16 ), #252, .F. ) ;
#311 = ORGANIZATION ( 'UNSPECIFIED', 'UNSPECIFIED', '' ) ;
#312 = DIRECTION ( 'NONE',  ( 0.000000000000000000, -0.000000000000000000, -1.000000000000000000 ) ) ;
#313 = CYLINDRICAL_SURFACE ( 'NONE', #321, 7.500000000000007105 ) ;
#314 = ORIENTED_EDGE ( 'NONE', *, *, #84, .F. ) ;
#315 = DIRECTION ( 'NONE',  ( 1.000000000000000000, 0.000000000000000000, 0.000000000000000000 ) ) ;
#316 = APPROVAL_STATUS ( 'not_yet_approved' ) ;
#317 = DIRECTION ( 'NONE',  ( -1.000000000000000000, -0.000000000000000000, -0.000000000000000000 ) ) ;
#318 = CARTESIAN_POINT ( 'NONE',  ( 357.5000000000000568, 0.000000000000000000, 25.00000000000000000 ) ) ;
#319 = DIRECTION ( 'NONE',  ( 0.000000000000000000, 0.000000000000000000, 1.000000000000000000 ) ) ;
#320 = EDGE_CURVE ( 'NONE', #373, #234, #21, .T. ) ;
#321 = AXIS2_PLACEMENT_3D ( 'NONE', #203, #367, #55 ) ;
#322 = APPROVAL_PERSON_ORGANIZATION ( #256, #328, #380 ) ;
#323 = ORIENTED_EDGE ( 'NONE', *, *, #227, .F. ) ;
#324 = ORIENTED_EDGE ( 'NONE', *, *, #336, .F. ) ;
#325 = APPLICATION_PROTOCOL_DEFINITION ( 'international standard', 'config_control_design', 1994, #91 ) ;
#326 = LINE ( 'NONE', #65, #13 ) ;
#327 = AXIS2_PLACEMENT_3D ( 'NONE', #337, #97, #244 ) ;
#328 = APPROVAL ( #316, 'UNSPECIFIED' ) ;
#329 = VERTEX_POINT ( 'NONE', #353 ) ;
#330 = PERSON_AND_ORGANIZATION ( #114, #311 ) ;
#331 = CARTESIAN_POINT ( 'NONE',  ( -377.5000000000000000, -19.19491525423728717, 25.00000000000000000 ) ) ;
#332 = DESIGN_CONTEXT ( 'detailed design', #150, 'design' ) ;
#333 = VERTEX_POINT ( 'NONE', #208 ) ;
#334 = ADVANCED_BREP_SHAPE_REPRESENTATION ( 'k_Default_sldprt', ( #382, #86 ), #28 ) ;
#335 = DIRECTION ( 'NONE',  ( 1.000000000000000000, 0.000000000000000000, 0.000000000000000000 ) ) ;
#336 = EDGE_CURVE ( 'NONE', #216, #329, #326, .T. ) ;
#337 = CARTESIAN_POINT ( 'NONE',  ( 0.000000000000000000, 0.000000000000000000, 25.00000000000000000 ) ) ;
#338 = PERSON_AND_ORGANIZATION_ROLE ( 'creator' ) ;
#339 = EDGE_LOOP ( 'NONE', ( #369, #77, #156, #101 ) ) ;
#340 = CIRCLE ( 'NONE', #195, 7.500000000000007105 ) ;
#341 = PRODUCT_DEFINITION_FORMATION_WITH_SPECIFIED_SOURCE ( 'ANY', '', #198, .NOT_KNOWN. ) ;
#342 =( NAMED_UNIT ( * ) SI_UNIT ( $, .STERADIAN. ) SOLID_ANGLE_UNIT ( ) );
#343 = PRODUCT_DEFINITION_SHAPE ( 'NONE', 'NONE',  #131 ) ;
#344 = CARTESIAN_POINT ( 'NONE',  ( 377.5000000000000000, 19.19491525423728717, 25.00000000000000000 ) ) ;
#345 = VECTOR ( 'NONE', #9, 1000.000000000000000 ) ;
#346 = ADVANCED_FACE ( 'NONE', ( #226 ), #82, .F. ) ;
#347 = CALENDAR_DATE ( 2026, 21, 9 ) ;
#348 = AXIS2_PLACEMENT_3D ( 'NONE', #103, #46, #166 ) ;
#349 = CC_DESIGN_APPROVAL ( #328, ( #23 ) ) ;
#350 = COORDINATED_UNIVERSAL_TIME_OFFSET ( 5, 30, .AHEAD. ) ;
#351 = ORIENTED_EDGE ( 'NONE', *, *, #229, .F. ) ;
#352 = DIRECTION ( 'NONE',  ( 1.000000000000000000, 0.000000000000000000, 0.000000000000000000 ) ) ;
#353 = CARTESIAN_POINT ( 'NONE',  ( -377.5000000000000000, -19.19491525423728717, 0.000000000000000000 ) ) ;
#354 = ORIENTED_EDGE ( 'NONE', *, *, #365, .F. ) ;
#355 = LOCAL_TIME ( 22, 52, 26.00000000000000000, #90 ) ;
#356 = VERTEX_POINT ( 'NONE', #83 ) ;
#357 = DATE_AND_TIME ( #277, #126 ) ;
#358 = CARTESIAN_POINT ( 'NONE',  ( 377.5000000000000000, -19.19491525423728717, 25.00000000000000000 ) ) ;
#359 = VERTEX_POINT ( 'NONE', #202 ) ;
#360 = FACE_BOUND ( 'NONE', #29, .T. ) ;
#361 = LINE ( 'NONE', #142, #228 ) ;
#362 = ORIENTED_EDGE ( 'NONE', *, *, #3, .F. ) ;
#363 = LOCAL_TIME ( 22, 52, 26.00000000000000000, #17 ) ;
#364 = CALENDAR_DATE ( 2026, 21, 9 ) ;
#365 = EDGE_CURVE ( 'NONE', #356, #98, #115, .T. ) ;
#366 = DIRECTION ( 'NONE',  ( -0.000000000000000000, -0.000000000000000000, -1.000000000000000000 ) ) ;
#367 = DIRECTION ( 'NONE',  ( -0.000000000000000000, -0.000000000000000000, -1.000000000000000000 ) ) ;
#368 = CARTESIAN_POINT ( 'NONE',  ( 350.0000000000000568, 0.000000000000000000, 0.000000000000000000 ) ) ;
#369 = ORIENTED_EDGE ( 'NONE', *, *, #379, .T. ) ;
#370 = DIRECTION ( 'NONE',  ( 0.000000000000000000, -0.000000000000000000, 1.000000000000000000 ) ) ;
#371 = PERSON_AND_ORGANIZATION_ROLE ( 'classification_officer' ) ;
#372 = CARTESIAN_POINT ( 'NONE',  ( -377.5000000000000000, 19.19491525423728717, 25.00000000000000000 ) ) ;
#373 = VERTEX_POINT ( 'NONE', #292 ) ;
#374 = FACE_OUTER_BOUND ( 'NONE', #383, .T. ) ;
#375 = EDGE_LOOP ( 'NONE', ( #127, #200 ) ) ;
#376 = AXIS2_PLACEMENT_3D ( 'NONE', #108, #129, #275 ) ;
#377 = DIRECTION ( 'NONE',  ( -0.000000000000000000, 1.000000000000000000, -0.000000000000000000 ) ) ;
#378 = CIRCLE ( 'NONE', #88, 7.500000000000007105 ) ;
#379 = EDGE_CURVE ( 'NONE', #298, #120, #289, .T. ) ;
#380 = APPROVAL_ROLE ( '' ) ;
#381 = VECTOR ( 'NONE', #222, 1000.000000000000000 ) ;
#382 = MANIFOLD_SOLID_BREP ( 'Boss-Extrude1', #259 ) ;
#383 = EDGE_LOOP ( 'NONE', ( #206, #207, #71, #351 ) ) ;
#384 = DIRECTION ( 'NONE',  ( 1.000000000000000000, 0.000000000000000000, 0.000000000000000000 ) ) ;
#385 = ORIENTED_EDGE ( 'NONE', *, *, #224, .T. ) ;
ENDSEC;
END-ISO-10303-21;
