ISO-10303-21;
HEADER;
FILE_DESCRIPTION (( 'STEP AP203' ),
    '1' );
FILE_NAME ('nut_Default_sldprt.STEP',
    '2026-09-21T17:22:27',
    ( '' ),
    ( '' ),
    'SwSTEP 2.0',
    'SolidWorks 2021',
    '' );
FILE_SCHEMA (( 'CONFIG_CONTROL_DESIGN' ));
ENDSEC;

DATA;
#1 = EDGE_CURVE ( 'NONE', #113, #279, #229, .T. ) ;
#2 = APPROVAL_STATUS ( 'not_yet_approved' ) ;
#3 = LINE ( 'NONE', #122, #20 ) ;
#4 = CALENDAR_DATE ( 2026, 21, 9 ) ;
#5 = ORIENTED_EDGE ( 'NONE', *, *, #82, .T. ) ;
#6 = LOCAL_TIME ( 22, 52, 27.00000000000000000, #92 ) ;
#7 = ORIENTED_EDGE ( 'NONE', *, *, #1, .T. ) ;
#8 = CALENDAR_DATE ( 2026, 21, 9 ) ;
#9 = CARTESIAN_POINT ( 'NONE',  ( 3.226891973971633332E-15, 12.00000000000000000, 112.0000000000000000 ) ) ;
#10 = EDGE_CURVE ( 'NONE', #228, #169, #296, .T. ) ;
#11 = CARTESIAN_POINT ( 'NONE',  ( 3.226891973971633332E-15, 12.00000000000000000, 112.0000000000000000 ) ) ;
#12 = DIRECTION ( 'NONE',  ( -0.8660254037844385966, 0.5000000000000001110, 0.000000000000000000 ) ) ;
#13 = DIRECTION ( 'NONE',  ( -0.000000000000000000, -0.000000000000000000, -1.000000000000000000 ) ) ;
#14 = LOCAL_TIME ( 22, 52, 27.00000000000000000, #205 ) ;
#15 = VECTOR ( 'NONE', #366, 1000.000000000000000 ) ;
#16 = MANIFOLD_SOLID_BREP ( 'Boss-Extrude2', #146 ) ;
#17 = LINE ( 'NONE', #77, #240 ) ;
#18 = LINE ( 'NONE', #270, #33 ) ;
#19 = CARTESIAN_POINT ( 'NONE',  ( 10.39230484541326227, -5.999999999999997335, 112.0000000000000000 ) ) ;
#20 = VECTOR ( 'NONE', #232, 1000.000000000000000 ) ;
#21 = EDGE_LOOP ( 'NONE', ( #53, #311, #330, #372, #339, #374 ) ) ;
#22 = PERSON_AND_ORGANIZATION ( #377, #268 ) ;
#23 = ORIENTED_EDGE ( 'NONE', *, *, #317, .T. ) ;
#24 = EDGE_CURVE ( 'NONE', #169, #80, #125, .T. ) ;
#25 =( NAMED_UNIT ( * ) PLANE_ANGLE_UNIT ( ) SI_UNIT ( $, .RADIAN. ) );
#26 = VERTEX_POINT ( 'NONE', #64 ) ;
#27 = PERSON_AND_ORGANIZATION ( #377, #268 ) ;
#28 = ORIENTED_EDGE ( 'NONE', *, *, #378, .T. ) ;
#29 = PERSON_AND_ORGANIZATION ( #377, #268 ) ;
#30 = PLANE ( 'NONE',  #190 ) ;
#31 = PERSON_AND_ORGANIZATION ( #377, #268 ) ;
#32 = DIRECTION ( 'NONE',  ( -0.8660254037844385966, 0.5000000000000001110, 0.000000000000000000 ) ) ;
#33 = VECTOR ( 'NONE', #12, 1000.000000000000000 ) ;
#34 = PERSON_AND_ORGANIZATION ( #377, #268 ) ;
#35 = AXIS2_PLACEMENT_3D ( 'NONE', #341, #380, #313 ) ;
#36 = ORIENTED_EDGE ( 'NONE', *, *, #82, .F. ) ;
#37 = CARTESIAN_POINT ( 'NONE',  ( -10.39230484541326405, 5.999999999999997335, 112.0000000000000000 ) ) ;
#38 = DATE_TIME_ROLE ( 'classification_date' ) ;
#39 = DESIGN_CONTEXT ( 'detailed design', #152, 'design' ) ;
#40 = LINE ( 'NONE', #255, #343 ) ;
#41 = FACE_OUTER_BOUND ( 'NONE', #379, .T. ) ;
#42 = AXIS2_PLACEMENT_3D ( 'NONE', #62, #290, #32 ) ;
#43 = CARTESIAN_POINT ( 'NONE',  ( -10.39230484541326405, -6.000000000000000000, 100.0000000000000000 ) ) ;
#44 = EDGE_CURVE ( 'NONE', #197, #228, #292, .T. ) ;
#45 = CARTESIAN_POINT ( 'NONE',  ( 3.226891973971633332E-15, 12.00000000000000000, 100.0000000000000000 ) ) ;
#46 = CARTESIAN_POINT ( 'NONE',  ( -10.39230484541326405, -6.000000000000000000, 112.0000000000000000 ) ) ;
#47 = VECTOR ( 'NONE', #13, 1000.000000000000000 ) ;
#48 = CARTESIAN_POINT ( 'NONE',  ( 10.39230484541326227, -5.999999999999997335, 100.0000000000000000 ) ) ;
#49 = DIRECTION ( 'NONE',  ( 0.000000000000000000, 0.000000000000000000, 1.000000000000000000 ) ) ;
#50 = DIRECTION ( 'NONE',  ( 1.445602896647339163E-16, -1.000000000000000000, 0.000000000000000000 ) ) ;
#51 = CC_DESIGN_APPROVAL ( #248, ( #375 ) ) ;
#52 = CARTESIAN_POINT ( 'NONE',  ( 0.000000000000000000, 0.000000000000000000, 0.000000000000000000 ) ) ;
#53 = ORIENTED_EDGE ( 'NONE', *, *, #108, .F. ) ;
#54 = EDGE_CURVE ( 'NONE', #169, #142, #91, .T. ) ;
#55 = DIRECTION ( 'NONE',  ( 0.8660254037844384856, 0.5000000000000002220, 0.000000000000000000 ) ) ;
#56 = MECHANICAL_CONTEXT ( 'NONE', #192, 'mechanical' ) ;
#57 = ORIENTED_EDGE ( 'NONE', *, *, #116, .T. ) ;
#58 = CALENDAR_DATE ( 2026, 21, 9 ) ;
#59 = EDGE_LOOP ( 'NONE', ( #176, #246, #195, #346 ) ) ;
#60 = DATE_TIME_ROLE ( 'creation_date' ) ;
#61 = ADVANCED_FACE ( 'NONE', ( #186 ), #30, .F. ) ;
#62 = CARTESIAN_POINT ( 'NONE',  ( -10.39230484541326405, -6.000000000000000000, 112.0000000000000000 ) ) ;
#63 = ADVANCED_BREP_SHAPE_REPRESENTATION ( 'nut_Default_sldprt', ( #16, #72 ), #127 ) ;
#64 = CARTESIAN_POINT ( 'NONE',  ( -7.500000000000000000, 0.000000000000000000, 100.0000000000000000 ) ) ;
#65 = AXIS2_PLACEMENT_3D ( 'NONE', #216, #105, #364 ) ;
#66 = APPROVAL_DATE_TIME ( #357, #353 ) ;
#67 = ORIENTED_EDGE ( 'NONE', *, *, #159, .T. ) ;
#68 = CC_DESIGN_DATE_AND_TIME_ASSIGNMENT ( #328, #60, ( #302 ) ) ;
#69 = APPROVAL_ROLE ( '' ) ;
#70 = DIRECTION ( 'NONE',  ( -0.000000000000000000, -0.000000000000000000, -1.000000000000000000 ) ) ;
#71 = CARTESIAN_POINT ( 'NONE',  ( 0.000000000000000000, 0.000000000000000000, 0.000000000000000000 ) ) ;
#72 = AXIS2_PLACEMENT_3D ( 'NONE', #52, #281, #223 ) ;
#73 = CC_DESIGN_DATE_AND_TIME_ASSIGNMENT ( #94, #38, ( #97 ) ) ;
#74 = DIRECTION ( 'NONE',  ( 1.000000000000000000, 0.000000000000000000, 0.000000000000000000 ) ) ;
#75 = CARTESIAN_POINT ( 'NONE',  ( 10.39230484541326049, 6.000000000000002665, 112.0000000000000000 ) ) ;
#76 = DIRECTION ( 'NONE',  ( 0.8660254037844385966, -0.5000000000000001110, 0.000000000000000000 ) ) ;
#77 = CARTESIAN_POINT ( 'NONE',  ( -1.746381879265291878E-15, -12.00000000000000000, 112.0000000000000000 ) ) ;
#78 = EDGE_CURVE ( 'NONE', #142, #151, #206, .T. ) ;
#79 = CARTESIAN_POINT ( 'NONE',  ( 10.39230484541326227, -5.999999999999997335, 112.0000000000000000 ) ) ;
#80 = VERTEX_POINT ( 'NONE', #99 ) ;
#81 = DIRECTION ( 'NONE',  ( -0.000000000000000000, -0.000000000000000000, -1.000000000000000000 ) ) ;
#82 = EDGE_CURVE ( 'NONE', #83, #107, #208, .T. ) ;
#83 = VERTEX_POINT ( 'NONE', #298 ) ;
#84 = AXIS2_PLACEMENT_3D ( 'NONE', #371, #196, #247 ) ;
#85 = APPLICATION_PROTOCOL_DEFINITION ( 'international standard', 'config_control_design', 1994, #192 ) ;
#86 = ORIENTED_EDGE ( 'NONE', *, *, #378, .F. ) ;
#87 =( LENGTH_UNIT ( ) NAMED_UNIT ( * ) SI_UNIT ( .MILLI., .METRE. ) );
#88 = ORIENTED_EDGE ( 'NONE', *, *, #178, .F. ) ;
#89 = AXIS2_PLACEMENT_3D ( 'NONE', #331, #213, #191 ) ;
#90 = EDGE_CURVE ( 'NONE', #252, #179, #40, .T. ) ;
#91 = LINE ( 'NONE', #37, #300 ) ;
#92 = COORDINATED_UNIVERSAL_TIME_OFFSET ( 5, 30, .AHEAD. ) ;
#93 = LINE ( 'NONE', #212, #215 ) ;
#94 = DATE_AND_TIME ( #149, #335 ) ;
#95 = VERTEX_POINT ( 'NONE', #118 ) ;
#96 = ADVANCED_FACE ( 'NONE', ( #351 ), #320, .F. ) ;
#97 = SECURITY_CLASSIFICATION ( '', '', #181 ) ;
#98 = VECTOR ( 'NONE', #275, 1000.000000000000000 ) ;
#99 = CARTESIAN_POINT ( 'NONE',  ( -10.39230484541326405, -6.000000000000000000, 112.0000000000000000 ) ) ;
#100 = DIRECTION ( 'NONE',  ( 0.000000000000000000, -1.000000000000000000, 0.000000000000000000 ) ) ;
#101 = CARTESIAN_POINT ( 'NONE',  ( 10.39230484541326049, 6.000000000000002665, 112.0000000000000000 ) ) ;
#102 = CC_DESIGN_PERSON_AND_ORGANIZATION_ASSIGNMENT ( #233, #121, ( #375 ) ) ;
#103 = CARTESIAN_POINT ( 'NONE',  ( -10.39230484541326405, 5.999999999999997335, 112.0000000000000000 ) ) ;
#104 = FACE_OUTER_BOUND ( 'NONE', #282, .T. ) ;
#105 = DIRECTION ( 'NONE',  ( -0.000000000000000000, -0.000000000000000000, -1.000000000000000000 ) ) ;
#106 = CARTESIAN_POINT ( 'NONE',  ( 7.500000000000000000, 9.184850993605147944E-16, 100.0000000000000000 ) ) ;
#107 = VERTEX_POINT ( 'NONE', #259 ) ;
#108 = EDGE_CURVE ( 'NONE', #151, #107, #3, .T. ) ;
#109 = FACE_OUTER_BOUND ( 'NONE', #349, .T. ) ;
#110 = ORIENTED_EDGE ( 'NONE', *, *, #163, .F. ) ;
#111 = AXIS2_PLACEMENT_3D ( 'NONE', #243, #214, #74 ) ;
#112 = CARTESIAN_POINT ( 'NONE',  ( -1.746381879265291878E-15, -12.00000000000000000, 100.0000000000000000 ) ) ;
#113 = VERTEX_POINT ( 'NONE', #354 ) ;
#114 = CARTESIAN_POINT ( 'NONE',  ( -10.39230484541326405, -6.000000000000000000, 112.0000000000000000 ) ) ;
#115 = ORIENTED_EDGE ( 'NONE', *, *, #317, .F. ) ;
#116 = EDGE_CURVE ( 'NONE', #26, #279, #93, .T. ) ;
#117 = PERSON_AND_ORGANIZATION_ROLE ( 'classification_officer' ) ;
#118 = CARTESIAN_POINT ( 'NONE',  ( 10.39230484541326049, 6.000000000000002665, 100.0000000000000000 ) ) ;
#119 = CC_DESIGN_APPROVAL ( #170, ( #302 ) ) ;
#120 = VECTOR ( 'NONE', #100, 1000.000000000000000 ) ;
#121 = PERSON_AND_ORGANIZATION_ROLE ( 'creator' ) ;
#122 = CARTESIAN_POINT ( 'NONE',  ( -10.39230484541326405, -6.000000000000000000, 100.0000000000000000 ) ) ;
#123 = APPROVAL_DATE_TIME ( #154, #170 ) ;
#124 = EDGE_CURVE ( 'NONE', #95, #254, #18, .T. ) ;
#125 = LINE ( 'NONE', #177, #120 ) ;
#126 = ORIENTED_EDGE ( 'NONE', *, *, #200, .T. ) ;
#127 =( GEOMETRIC_REPRESENTATION_CONTEXT ( 3 ) GLOBAL_UNCERTAINTY_ASSIGNED_CONTEXT ( ( #266 ) ) GLOBAL_UNIT_ASSIGNED_CONTEXT ( ( #87, #25, #368 ) ) REPRESENTATION_CONTEXT ( 'NONE', 'WORKASPACE' ) );
#128 = ORIENTED_EDGE ( 'NONE', *, *, #90, .F. ) ;
#129 = FACE_OUTER_BOUND ( 'NONE', #21, .T. ) ;
#130 = ADVANCED_FACE ( 'NONE', ( #41 ), #272, .F. ) ;
#131 = PLANE ( 'NONE',  #286 ) ;
#132 = VECTOR ( 'NONE', #157, 1000.000000000000000 ) ;
#133 = CARTESIAN_POINT ( 'NONE',  ( 10.39230484541326227, -5.999999999999997335, 100.0000000000000000 ) ) ;
#134 = AXIS2_PLACEMENT_3D ( 'NONE', #141, #315, #283 ) ;
#135 = CC_DESIGN_PERSON_AND_ORGANIZATION_ASSIGNMENT ( #31, #319, ( #302 ) ) ;
#136 = DIRECTION ( 'NONE',  ( -1.445602896647339163E-16, 1.000000000000000000, 0.000000000000000000 ) ) ;
#137 = LINE ( 'NONE', #106, #376 ) ;
#138 = LOCAL_TIME ( 22, 52, 27.00000000000000000, #231 ) ;
#139 = VECTOR ( 'NONE', #70, 1000.000000000000000 ) ;
#140 = EDGE_LOOP ( 'NONE', ( #143, #289 ) ) ;
#141 = CARTESIAN_POINT ( 'NONE',  ( 0.000000000000000000, 0.000000000000000000, 100.0000000000000000 ) ) ;
#142 = VERTEX_POINT ( 'NONE', #305 ) ;
#143 = ORIENTED_EDGE ( 'NONE', *, *, #217, .F. ) ;
#144 = FACE_OUTER_BOUND ( 'NONE', #342, .T. ) ;
#145 = EDGE_LOOP ( 'NONE', ( #171, #36, #312, #222 ) ) ;
#146 = CLOSED_SHELL ( 'NONE', ( #295, #211, #61, #96, #274, #360, #194, #130, #336, #263, #257 ) ) ;
#147 = DIRECTION ( 'NONE',  ( 0.8660254037844385966, -0.5000000000000001110, 0.000000000000000000 ) ) ;
#148 = ORIENTED_EDGE ( 'NONE', *, *, #10, .F. ) ;
#149 = CALENDAR_DATE ( 2026, 21, 9 ) ;
#150 = DIRECTION ( 'NONE',  ( 0.000000000000000000, -1.000000000000000000, 0.000000000000000000 ) ) ;
#151 = VERTEX_POINT ( 'NONE', #43 ) ;
#152 = APPLICATION_CONTEXT ( 'configuration controlled 3d designs of mechanical parts and assemblies' ) ;
#153 = VECTOR ( 'NONE', #55, 1000.000000000000114 ) ;
#154 = DATE_AND_TIME ( #4, #138 ) ;
#155 = CARTESIAN_POINT ( 'NONE',  ( 0.000000000000000000, 0.000000000000000000, 0.000000000000000000 ) ) ;
#156 = VERTEX_POINT ( 'NONE', #165 ) ;
#157 = DIRECTION ( 'NONE',  ( -0.8660254037844385966, 0.5000000000000001110, 0.000000000000000000 ) ) ;
#158 = FACE_BOUND ( 'NONE', #209, .T. ) ;
#159 = EDGE_CURVE ( 'NONE', #254, #142, #334, .T. ) ;
#160 = DIRECTION ( 'NONE',  ( -0.000000000000000000, 0.000000000000000000, 1.000000000000000000 ) ) ;
#161 = CC_DESIGN_SECURITY_CLASSIFICATION ( #97, ( #375 ) ) ;
#162 = CYLINDRICAL_SURFACE ( 'NONE', #65, 7.500000000000000000 ) ;
#163 = EDGE_CURVE ( 'NONE', #80, #151, #365, .T. ) ;
#164 = CIRCLE ( 'NONE', #111, 7.500000000000000000 ) ;
#165 = CARTESIAN_POINT ( 'NONE',  ( 7.500000000000000000, 9.184850993605147944E-16, 100.0000000000000000 ) ) ;
#166 = LINE ( 'NONE', #101, #98 ) ;
#167 = PLANE ( 'NONE',  #84 ) ;
#168 = APPROVAL_PERSON_ORGANIZATION ( #325, #248, #69 ) ;
#169 = VERTEX_POINT ( 'NONE', #103 ) ;
#170 = APPROVAL ( #2, 'UNSPECIFIED' ) ;
#171 = ORIENTED_EDGE ( 'NONE', *, *, #108, .T. ) ;
#172 = DIRECTION ( 'NONE',  ( -1.000000000000000000, -1.445602896647339163E-16, 0.000000000000000000 ) ) ;
#173 = EDGE_CURVE ( 'NONE', #228, #254, #303, .T. ) ;
#174 = CARTESIAN_POINT ( 'NONE',  ( 0.000000000000000000, 0.000000000000000000, 112.0000000000000000 ) ) ;
#175 = ORIENTED_EDGE ( 'NONE', *, *, #178, .T. ) ;
#176 = ORIENTED_EDGE ( 'NONE', *, *, #124, .T. ) ;
#177 = CARTESIAN_POINT ( 'NONE',  ( -10.39230484541326405, 5.999999999999997335, 112.0000000000000000 ) ) ;
#178 = EDGE_CURVE ( 'NONE', #83, #252, #17, .T. ) ;
#179 = VERTEX_POINT ( 'NONE', #133 ) ;
#180 = VECTOR ( 'NONE', #322, 1000.000000000000114 ) ;
#181 = SECURITY_CLASSIFICATION_LEVEL ( 'unclassified' ) ;
#182 = DIRECTION ( 'NONE',  ( 0.000000000000000000, 0.000000000000000000, 1.000000000000000000 ) ) ;
#183 = SHAPE_DEFINITION_REPRESENTATION ( #256, #63 ) ;
#184 = ORIENTED_EDGE ( 'NONE', *, *, #340, .T. ) ;
#185 = EDGE_CURVE ( 'NONE', #156, #113, #137, .T. ) ;
#186 = FACE_OUTER_BOUND ( 'NONE', #140, .T. ) ;
#187 = DIRECTION ( 'NONE',  ( 1.000000000000000000, 0.000000000000000000, 0.000000000000000000 ) ) ;
#188 = LINE ( 'NONE', #244, #293 ) ;
#189 = DIRECTION ( 'NONE',  ( 0.8660254037844384856, 0.5000000000000002220, 0.000000000000000000 ) ) ;
#190 = AXIS2_PLACEMENT_3D ( 'NONE', #155, #356, #234 ) ;
#191 = DIRECTION ( 'NONE',  ( 0.8660254037844385966, 0.5000000000000000000, 0.000000000000000000 ) ) ;
#192 = APPLICATION_CONTEXT ( 'configuration controlled 3d designs of mechanical parts and assemblies' ) ;
#193 = LINE ( 'NONE', #114, #241 ) ;
#194 = ADVANCED_FACE ( 'NONE', ( #362 ), #333, .F. ) ;
#195 = ORIENTED_EDGE ( 'NONE', *, *, #44, .F. ) ;
#196 = DIRECTION ( 'NONE',  ( 1.000000000000000000, 0.000000000000000000, -0.000000000000000000 ) ) ;
#197 = VERTEX_POINT ( 'NONE', #361 ) ;
#198 = AXIS2_PLACEMENT_3D ( 'NONE', #19, #172, #50 ) ;
#199 = DIRECTION ( 'NONE',  ( 1.000000000000000000, 0.000000000000000000, 0.000000000000000000 ) ) ;
#200 = EDGE_CURVE ( 'NONE', #252, #197, #188, .T. ) ;
#201 = ORIENTED_EDGE ( 'NONE', *, *, #185, .F. ) ;
#202 = AXIS2_PLACEMENT_3D ( 'NONE', #71, #182, #359 ) ;
#203 = ORIENTED_EDGE ( 'NONE', *, *, #24, .T. ) ;
#204 = ORIENTED_EDGE ( 'NONE', *, *, #90, .T. ) ;
#205 = COORDINATED_UNIVERSAL_TIME_OFFSET ( 5, 30, .AHEAD. ) ;
#206 = LINE ( 'NONE', #358, #277 ) ;
#207 = APPROVAL_STATUS ( 'not_yet_approved' ) ;
#208 = LINE ( 'NONE', #329, #139 ) ;
#209 = EDGE_LOOP ( 'NONE', ( #23, #28 ) ) ;
#210 = CARTESIAN_POINT ( 'NONE',  ( 0.000000000000000000, 0.000000000000000000, 100.0000000000000000 ) ) ;
#211 = ADVANCED_FACE ( 'NONE', ( #104 ), #162, .T. ) ;
#212 = CARTESIAN_POINT ( 'NONE',  ( -7.500000000000000000, 0.000000000000000000, 100.0000000000000000 ) ) ;
#213 = DIRECTION ( 'NONE',  ( 0.5000000000000001110, -0.8660254037844387076, 0.000000000000000000 ) ) ;
#214 = DIRECTION ( 'NONE',  ( 0.000000000000000000, 0.000000000000000000, 1.000000000000000000 ) ) ;
#215 = VECTOR ( 'NONE', #239, 1000.000000000000000 ) ;
#216 = CARTESIAN_POINT ( 'NONE',  ( 0.000000000000000000, 0.000000000000000000, 100.0000000000000000 ) ) ;
#217 = EDGE_CURVE ( 'NONE', #279, #113, #164, .T. ) ;
#218 = ORIENTED_EDGE ( 'NONE', *, *, #44, .T. ) ;
#219 = DIRECTION ( 'NONE',  ( -0.000000000000000000, 0.000000000000000000, 1.000000000000000000 ) ) ;
#220 = ORIENTED_EDGE ( 'NONE', *, *, #245, .F. ) ;
#221 = CARTESIAN_POINT ( 'NONE',  ( 0.000000000000000000, 0.000000000000000000, 100.0000000000000000 ) ) ;
#222 = ORIENTED_EDGE ( 'NONE', *, *, #163, .T. ) ;
#223 = DIRECTION ( 'NONE',  ( 1.000000000000000000, 0.000000000000000000, 0.000000000000000000 ) ) ;
#224 = ORIENTED_EDGE ( 'NONE', *, *, #230, .T. ) ;
#225 = DIRECTION ( 'NONE',  ( 1.000000000000000000, 0.000000000000000000, 0.000000000000000000 ) ) ;
#226 = ORIENTED_EDGE ( 'NONE', *, *, #54, .F. ) ;
#227 = PERSON_AND_ORGANIZATION_ROLE ( 'design_supplier' ) ;
#228 = VERTEX_POINT ( 'NONE', #269 ) ;
#229 = CIRCLE ( 'NONE', #202, 7.500000000000000000 ) ;
#230 = EDGE_CURVE ( 'NONE', #179, #95, #337, .T. ) ;
#231 = COORDINATED_UNIVERSAL_TIME_OFFSET ( 5, 30, .AHEAD. ) ;
#232 = DIRECTION ( 'NONE',  ( 0.8660254037844385966, -0.5000000000000001110, 0.000000000000000000 ) ) ;
#233 = PERSON_AND_ORGANIZATION ( #377, #268 ) ;
#234 = DIRECTION ( 'NONE',  ( 1.000000000000000000, 0.000000000000000000, -0.000000000000000000 ) ) ;
#235 = DIRECTION ( 'NONE',  ( -0.000000000000000000, -0.000000000000000000, -1.000000000000000000 ) ) ;
#236 = AXIS2_PLACEMENT_3D ( 'NONE', #75, #242, #76 ) ;
#237 = ORIENTED_EDGE ( 'NONE', *, *, #10, .T. ) ;
#238 = PLANE ( 'NONE',  #306 ) ;
#239 = DIRECTION ( 'NONE',  ( -0.000000000000000000, -0.000000000000000000, -1.000000000000000000 ) ) ;
#240 = VECTOR ( 'NONE', #189, 1000.000000000000114 ) ;
#241 = VECTOR ( 'NONE', #147, 1000.000000000000000 ) ;
#242 = DIRECTION ( 'NONE',  ( -0.5000000000000001110, -0.8660254037844385966, 0.000000000000000000 ) ) ;
#243 = CARTESIAN_POINT ( 'NONE',  ( 0.000000000000000000, 0.000000000000000000, 0.000000000000000000 ) ) ;
#244 = CARTESIAN_POINT ( 'NONE',  ( 10.39230484541326227, -5.999999999999997335, 112.0000000000000000 ) ) ;
#245 = EDGE_CURVE ( 'NONE', #197, #95, #166, .T. ) ;
#246 = ORIENTED_EDGE ( 'NONE', *, *, #173, .F. ) ;
#247 = DIRECTION ( 'NONE',  ( -0.000000000000000000, 0.000000000000000000, -1.000000000000000000 ) ) ;
#248 = APPROVAL ( #207, 'UNSPECIFIED' ) ;
#249 = FACE_OUTER_BOUND ( 'NONE', #347, .T. ) ;
#250 = ORIENTED_EDGE ( 'NONE', *, *, #173, .T. ) ;
#251 = FACE_OUTER_BOUND ( 'NONE', #369, .T. ) ;
#252 = VERTEX_POINT ( 'NONE', #79 ) ;
#253 = DIRECTION ( 'NONE',  ( -1.000000000000000000, 0.000000000000000000, 0.000000000000000000 ) ) ;
#254 = VERTEX_POINT ( 'NONE', #299 ) ;
#255 = CARTESIAN_POINT ( 'NONE',  ( 10.39230484541326227, -5.999999999999997335, 112.0000000000000000 ) ) ;
#256 = PRODUCT_DEFINITION_SHAPE ( 'NONE', 'NONE',  #302 ) ;
#257 = ADVANCED_FACE ( 'NONE', ( #158, #129 ), #238, .F. ) ;
#258 = CALENDAR_DATE ( 2026, 21, 9 ) ;
#259 = CARTESIAN_POINT ( 'NONE',  ( -1.746381879265291878E-15, -12.00000000000000000, 100.0000000000000000 ) ) ;
#260 = AXIS2_PLACEMENT_3D ( 'NONE', #221, #49, #199 ) ;
#261 = COORDINATED_UNIVERSAL_TIME_OFFSET ( 5, 30, .AHEAD. ) ;
#262 = ORIENTED_EDGE ( 'NONE', *, *, #78, .T. ) ;
#263 = ADVANCED_FACE ( 'NONE', ( #301 ), #131, .T. ) ;
#264 = CARTESIAN_POINT ( 'NONE',  ( 10.39230484541326049, 6.000000000000002665, 112.0000000000000000 ) ) ;
#265 = APPROVAL_ROLE ( '' ) ;
#266 = UNCERTAINTY_MEASURE_WITH_UNIT (LENGTH_MEASURE( 1.000000000000000082E-05 ), #87, 'distance_accuracy_value', 'NONE');
#267 = DIRECTION ( 'NONE',  ( -0.000000000000000000, -0.000000000000000000, -1.000000000000000000 ) ) ;
#268 = ORGANIZATION ( 'UNSPECIFIED', 'UNSPECIFIED', '' ) ;
#269 = CARTESIAN_POINT ( 'NONE',  ( 3.226891973971633332E-15, 12.00000000000000000, 112.0000000000000000 ) ) ;
#270 = CARTESIAN_POINT ( 'NONE',  ( 10.39230484541326049, 6.000000000000002665, 100.0000000000000000 ) ) ;
#271 = APPROVAL_PERSON_ORGANIZATION ( #352, #353, #355 ) ;
#272 = PLANE ( 'NONE',  #89 ) ;
#273 = DIRECTION ( 'NONE',  ( -0.8660254037844385966, -0.5000000000000001110, 0.000000000000000000 ) ) ;
#274 = ADVANCED_FACE ( 'NONE', ( #251 ), #310, .F. ) ;
#275 = DIRECTION ( 'NONE',  ( -0.000000000000000000, -0.000000000000000000, -1.000000000000000000 ) ) ;
#276 = LINE ( 'NONE', #112, #153 ) ;
#277 = VECTOR ( 'NONE', #150, 1000.000000000000000 ) ;
#278 = PLANE ( 'NONE',  #198 ) ;
#279 = VERTEX_POINT ( 'NONE', #348 ) ;
#280 = CC_DESIGN_PERSON_AND_ORGANIZATION_ASSIGNMENT ( #29, #117, ( #97 ) ) ;
#281 = DIRECTION ( 'NONE',  ( 0.000000000000000000, 0.000000000000000000, 1.000000000000000000 ) ) ;
#282 = EDGE_LOOP ( 'NONE', ( #201, #115, #57, #316 ) ) ;
#283 = DIRECTION ( 'NONE',  ( 1.000000000000000000, 0.000000000000000000, 0.000000000000000000 ) ) ;
#284 = ORIENTED_EDGE ( 'NONE', *, *, #24, .F. ) ;
#285 = APPLICATION_PROTOCOL_DEFINITION ( 'international standard', 'config_control_design', 1994, #152 ) ;
#286 = AXIS2_PLACEMENT_3D ( 'NONE', #174, #219, #225 ) ;
#287 = ORIENTED_EDGE ( 'NONE', *, *, #116, .F. ) ;
#288 = EDGE_CURVE ( 'NONE', #80, #83, #193, .T. ) ;
#289 = ORIENTED_EDGE ( 'NONE', *, *, #1, .F. ) ;
#290 = DIRECTION ( 'NONE',  ( 0.5000000000000001110, 0.8660254037844385966, -0.000000000000000000 ) ) ;
#291 = LOCAL_TIME ( 22, 52, 27.00000000000000000, #261 ) ;
#292 = LINE ( 'NONE', #264, #132 ) ;
#293 = VECTOR ( 'NONE', #136, 1000.000000000000000 ) ;
#294 = CIRCLE ( 'NONE', #134, 7.500000000000000000 ) ;
#295 = ADVANCED_FACE ( 'NONE', ( #144 ), #373, .T. ) ;
#296 = LINE ( 'NONE', #9, #180 ) ;
#297 = COORDINATED_UNIVERSAL_TIME_OFFSET ( 5, 30, .AHEAD. ) ;
#298 = CARTESIAN_POINT ( 'NONE',  ( -1.746381879265291878E-15, -12.00000000000000000, 112.0000000000000000 ) ) ;
#299 = CARTESIAN_POINT ( 'NONE',  ( 3.226891973971633332E-15, 12.00000000000000000, 100.0000000000000000 ) ) ;
#300 = VECTOR ( 'NONE', #235, 1000.000000000000000 ) ;
#301 = FACE_OUTER_BOUND ( 'NONE', #314, .T. ) ;
#302 = PRODUCT_DEFINITION ( 'UNKNOWN', '', #375, #39 ) ;
#303 = LINE ( 'NONE', #11, #15 ) ;
#304 = CC_DESIGN_APPROVAL ( #353, ( #97 ) ) ;
#305 = CARTESIAN_POINT ( 'NONE',  ( -10.39230484541326405, 5.999999999999997335, 100.0000000000000000 ) ) ;
#306 = AXIS2_PLACEMENT_3D ( 'NONE', #210, #160, #187 ) ;
#307 = CC_DESIGN_PERSON_AND_ORGANIZATION_ASSIGNMENT ( #34, #227, ( #375 ) ) ;
#308 = DIRECTION ( 'NONE',  ( -0.000000000000000000, -0.000000000000000000, -1.000000000000000000 ) ) ;
#309 = CARTESIAN_POINT ( 'NONE',  ( 0.000000000000000000, 0.000000000000000000, 100.0000000000000000 ) ) ;
#310 = PLANE ( 'NONE',  #35 ) ;
#311 = ORIENTED_EDGE ( 'NONE', *, *, #78, .F. ) ;
#312 = ORIENTED_EDGE ( 'NONE', *, *, #288, .F. ) ;
#313 = DIRECTION ( 'NONE',  ( -0.8660254037844384856, -0.5000000000000002220, 0.000000000000000000 ) ) ;
#314 = EDGE_LOOP ( 'NONE', ( #318, #175, #126, #218, #237, #203 ) ) ;
#315 = DIRECTION ( 'NONE',  ( 0.000000000000000000, 0.000000000000000000, 1.000000000000000000 ) ) ;
#316 = ORIENTED_EDGE ( 'NONE', *, *, #217, .T. ) ;
#317 = EDGE_CURVE ( 'NONE', #26, #156, #345, .T. ) ;
#318 = ORIENTED_EDGE ( 'NONE', *, *, #288, .T. ) ;
#319 = PERSON_AND_ORGANIZATION_ROLE ( 'creator' ) ;
#320 = PLANE ( 'NONE',  #42 ) ;
#321 = APPROVAL_DATE_TIME ( #382, #248 ) ;
#322 = DIRECTION ( 'NONE',  ( -0.8660254037844385966, -0.5000000000000001110, 0.000000000000000000 ) ) ;
#323 = PRODUCT ( 'nut_Default_sldprt', 'nut_Default_sldprt', '', ( #56 ) ) ;
#324 = PRODUCT_RELATED_PRODUCT_CATEGORY ( 'detail', '', ( #323 ) ) ;
#325 = PERSON_AND_ORGANIZATION ( #377, #268 ) ;
#326 = ORIENTED_EDGE ( 'NONE', *, *, #200, .F. ) ;
#327 = VECTOR ( 'NONE', #338, 1000.000000000000000 ) ;
#328 = DATE_AND_TIME ( #58, #291 ) ;
#329 = CARTESIAN_POINT ( 'NONE',  ( -1.746381879265291878E-15, -12.00000000000000000, 112.0000000000000000 ) ) ;
#330 = ORIENTED_EDGE ( 'NONE', *, *, #159, .F. ) ;
#331 = CARTESIAN_POINT ( 'NONE',  ( 3.226891973971633332E-15, 12.00000000000000000, 112.0000000000000000 ) ) ;
#332 = VECTOR ( 'NONE', #273, 1000.000000000000114 ) ;
#333 = PLANE ( 'NONE',  #236 ) ;
#334 = LINE ( 'NONE', #45, #332 ) ;
#335 = LOCAL_TIME ( 22, 52, 27.00000000000000000, #297 ) ;
#336 = ADVANCED_FACE ( 'NONE', ( #109 ), #167, .F. ) ;
#337 = LINE ( 'NONE', #48, #327 ) ;
#338 = DIRECTION ( 'NONE',  ( -1.445602896647339163E-16, 1.000000000000000000, 0.000000000000000000 ) ) ;
#339 = ORIENTED_EDGE ( 'NONE', *, *, #230, .F. ) ;
#340 = EDGE_CURVE ( 'NONE', #107, #179, #276, .T. ) ;
#341 = CARTESIAN_POINT ( 'NONE',  ( -1.746381879265291878E-15, -12.00000000000000000, 112.0000000000000000 ) ) ;
#342 = EDGE_LOOP ( 'NONE', ( #86, #381, #7, #287 ) ) ;
#343 = VECTOR ( 'NONE', #267, 1000.000000000000000 ) ;
#344 = PERSON_AND_ORGANIZATION_ROLE ( 'design_owner' ) ;
#345 = CIRCLE ( 'NONE', #260, 7.500000000000000000 ) ;
#346 = ORIENTED_EDGE ( 'NONE', *, *, #245, .T. ) ;
#347 = EDGE_LOOP ( 'NONE', ( #224, #220, #326, #204 ) ) ;
#348 = CARTESIAN_POINT ( 'NONE',  ( -7.500000000000000000, 0.000000000000000000, 0.000000000000000000 ) ) ;
#349 = EDGE_LOOP ( 'NONE', ( #262, #110, #284, #383 ) ) ;
#350 = APPROVAL_STATUS ( 'not_yet_approved' ) ;
#351 = FACE_OUTER_BOUND ( 'NONE', #145, .T. ) ;
#352 = PERSON_AND_ORGANIZATION ( #377, #268 ) ;
#353 = APPROVAL ( #350, 'UNSPECIFIED' ) ;
#354 = CARTESIAN_POINT ( 'NONE',  ( 7.500000000000000000, 9.184850993605147944E-16, 0.000000000000000000 ) ) ;
#355 = APPROVAL_ROLE ( '' ) ;
#356 = DIRECTION ( 'NONE',  ( 0.000000000000000000, 0.000000000000000000, 1.000000000000000000 ) ) ;
#357 = DATE_AND_TIME ( #8, #6 ) ;
#358 = CARTESIAN_POINT ( 'NONE',  ( -10.39230484541326405, 5.999999999999997335, 100.0000000000000000 ) ) ;
#359 = DIRECTION ( 'NONE',  ( 1.000000000000000000, 0.000000000000000000, 0.000000000000000000 ) ) ;
#360 = ADVANCED_FACE ( 'NONE', ( #249 ), #278, .F. ) ;
#361 = CARTESIAN_POINT ( 'NONE',  ( 10.39230484541326049, 6.000000000000002665, 112.0000000000000000 ) ) ;
#362 = FACE_OUTER_BOUND ( 'NONE', #59, .T. ) ;
#363 = AXIS2_PLACEMENT_3D ( 'NONE', #309, #81, #253 ) ;
#364 = DIRECTION ( 'NONE',  ( -1.000000000000000000, 0.000000000000000000, 0.000000000000000000 ) ) ;
#365 = LINE ( 'NONE', #46, #47 ) ;
#366 = DIRECTION ( 'NONE',  ( -0.000000000000000000, -0.000000000000000000, -1.000000000000000000 ) ) ;
#367 = APPROVAL_PERSON_ORGANIZATION ( #27, #170, #265 ) ;
#368 =( NAMED_UNIT ( * ) SI_UNIT ( $, .STERADIAN. ) SOLID_ANGLE_UNIT ( ) );
#369 = EDGE_LOOP ( 'NONE', ( #184, #128, #88, #5 ) ) ;
#370 = CC_DESIGN_PERSON_AND_ORGANIZATION_ASSIGNMENT ( #22, #344, ( #323 ) ) ;
#371 = CARTESIAN_POINT ( 'NONE',  ( -10.39230484541326405, 5.999999999999997335, 112.0000000000000000 ) ) ;
#372 = ORIENTED_EDGE ( 'NONE', *, *, #124, .F. ) ;
#373 = CYLINDRICAL_SURFACE ( 'NONE', #363, 7.500000000000000000 ) ;
#374 = ORIENTED_EDGE ( 'NONE', *, *, #340, .F. ) ;
#375 = PRODUCT_DEFINITION_FORMATION_WITH_SPECIFIED_SOURCE ( 'ANY', '', #323, .NOT_KNOWN. ) ;
#376 = VECTOR ( 'NONE', #308, 1000.000000000000000 ) ;
#377 = PERSON ( 'UNSPECIFIED', 'UNSPECIFIED', 'UNSPECIFIED', ('UNSPECIFIED'), ('UNSPECIFIED'), ('UNSPECIFIED') ) ;
#378 = EDGE_CURVE ( 'NONE', #156, #26, #294, .T. ) ;
#379 = EDGE_LOOP ( 'NONE', ( #67, #226, #148, #250 ) ) ;
#380 = DIRECTION ( 'NONE',  ( -0.5000000000000003331, 0.8660254037844385966, 0.000000000000000000 ) ) ;
#381 = ORIENTED_EDGE ( 'NONE', *, *, #185, .T. ) ;
#382 = DATE_AND_TIME ( #258, #14 ) ;
#383 = ORIENTED_EDGE ( 'NONE', *, *, #54, .T. ) ;
ENDSEC;
END-ISO-10303-21;
