ISO-10303-21;
HEADER;
FILE_DESCRIPTION (( 'STEP AP203' ),
    '1' );
FILE_NAME ('Part1_Default_sldprt.STEP',
    '2026-09-19T06:38:24',
    ( '' ),
    ( '' ),
    'SwSTEP 2.0',
    'SolidWorks 2021',
    '' );
FILE_SCHEMA (( 'CONFIG_CONTROL_DESIGN' ));
ENDSEC;

DATA;
#1 = ORIENTED_EDGE ( 'NONE', *, *, #41, .F. ) ;
#2 = CARTESIAN_POINT ( 'NONE',  ( 4.510281037539699708E-14, -19.99999999999999645, 60.00000000000000711 ) ) ;
#3 = EDGE_CURVE ( 'NONE', #193, #379, #131, .T. ) ;
#4 = ORIENTED_EDGE ( 'NONE', *, *, #88, .F. ) ;
#5 = CARTESIAN_POINT ( 'NONE',  ( 50.00000000000004974, -9.999999999999893419, 10.00000000000001066 ) ) ;
#6 = APPLICATION_PROTOCOL_DEFINITION ( 'international standard', 'config_control_design', 1994, #76 ) ;
#7 = CARTESIAN_POINT ( 'NONE',  ( -18.51851851851850839, 16.29629629629629406, 56.29629629629630472 ) ) ;
#8 =( BOUNDED_CURVE ( )  B_SPLINE_CURVE ( 3, ( #184, #219, #363, #25 ),
 .UNSPECIFIED., .F., .F. ) 
 B_SPLINE_CURVE_WITH_KNOTS ( ( 4, 4 ),
 ( 3.141592653589793116, 6.283185307179586232 ),
 .UNSPECIFIED. ) 
 CURVE ( )  GEOMETRIC_REPRESENTATION_ITEM ( )  RATIONAL_B_SPLINE_CURVE ( ( 1.000000000000000000, 0.3333333333333333703, 0.3333333333333333703, 1.000000000000000000 ) ) 
 REPRESENTATION_ITEM ( '' )  );
#9 = FACE_BOUND ( 'NONE', #316, .T. ) ;
#10 = ORIENTED_EDGE ( 'NONE', *, *, #148, .F. ) ;
#11 = DIRECTION ( 'NONE',  ( 0.000000000000000000, 0.000000000000000000, -1.000000000000000000 ) ) ;
#12 = CARTESIAN_POINT ( 'NONE',  ( 0.000000000000000000, -19.99999999999999645, 0.000000000000000000 ) ) ;
#13 = VECTOR ( 'NONE', #214, 1000.000000000000000 ) ;
#14 = DIRECTION ( 'NONE',  ( -1.000000000000000000, 0.000000000000000000, 0.000000000000000000 ) ) ;
#15 = CARTESIAN_POINT ( 'NONE',  ( -45.99999999999999289, -6.000000000000001776, 9.200000000000011724 ) ) ;
#16 = UNCERTAINTY_MEASURE_WITH_UNIT (LENGTH_MEASURE( 1.000000000000000082E-05 ), #75, 'distance_accuracy_value', 'NONE');
#17 = CARTESIAN_POINT ( 'NONE',  ( -39.99999999999998579, 3.673940397442060854E-16, 60.00000000000000711 ) ) ;
#18 = CARTESIAN_POINT ( 'NONE',  ( -39.99999999999998579, 3.673940397442060854E-16, 8.000000000000014211 ) ) ;
#19 = CARTESIAN_POINT ( 'NONE',  ( 45.99999999999999289, 3.673940397442060854E-16, 50.79999999999999716 ) ) ;
#20 = PERSON_AND_ORGANIZATION_ROLE ( 'creator' ) ;
#21 = FACE_OUTER_BOUND ( 'NONE', #182, .T. ) ;
#22 = LINE ( 'NONE', #171, #198 ) ;
#23 = DATE_TIME_ROLE ( 'creation_date' ) ;
#24 = DIRECTION ( 'NONE',  ( 0.9622504486493758113, -0.1924500897298771773, -0.1924500897298754010 ) ) ;
#25 = CARTESIAN_POINT ( 'NONE',  ( 39.99999999999998579, 0.000000000000000000, 8.000000000000000000 ) ) ;
#26 = PERSON_AND_ORGANIZATION ( #467, #434 ) ;
#27 = CARTESIAN_POINT ( 'NONE',  ( 4.553649124439118623E-14, 20.00000000000000000, 0.000000000000000000 ) ) ;
#28 = ORIENTED_EDGE ( 'NONE', *, *, #204, .T. ) ;
#29 = VECTOR ( 'NONE', #68, 1000.000000000000000 ) ;
#30 = DIRECTION ( 'NONE',  ( 0.000000000000000000, 0.000000000000000000, -1.000000000000000000 ) ) ;
#31 =( BOUNDED_CURVE ( )  B_SPLINE_CURVE ( 3, ( #19, #176, #357, #362 ),
 .UNSPECIFIED., .F., .F. ) 
 B_SPLINE_CURVE_WITH_KNOTS ( ( 4, 4 ),
 ( 0.000000000000000000, 3.141592653589793116 ),
 .UNSPECIFIED. ) 
 CURVE ( )  GEOMETRIC_REPRESENTATION_ITEM ( )  RATIONAL_B_SPLINE_CURVE ( ( 1.000000000000000000, 0.3333333333333333703, 0.3333333333333333703, 1.000000000000000000 ) ) 
 REPRESENTATION_ITEM ( '' )  );
#32 = ADVANCED_FACE ( 'NONE', ( #464 ), #93, .T. ) ;
#33 = CC_DESIGN_PERSON_AND_ORGANIZATION_ASSIGNMENT ( #450, #36, ( #333 ) ) ;
#34 = CARTESIAN_POINT ( 'NONE',  ( 4.553649124439118623E-14, 20.00000000000000000, 60.00000000000000711 ) ) ;
#35 = ORIENTED_EDGE ( 'NONE', *, *, #160, .F. ) ;
#36 = PERSON_AND_ORGANIZATION_ROLE ( 'design_owner' ) ;
#37 = VERTEX_POINT ( 'NONE', #51 ) ;
#38 = VECTOR ( 'NONE', #321, 1000.000000000000227 ) ;
#39 = ORIENTED_EDGE ( 'NONE', *, *, #207, .F. ) ;
#40 = CARTESIAN_POINT ( 'NONE',  ( -42.99999999999999289, 0.000000000000000000, 60.00000000000000711 ) ) ;
#41 = EDGE_CURVE ( 'NONE', #416, #267, #54, .T. ) ;
#42 = APPROVAL ( #327, 'UNSPECIFIED' ) ;
#43 = ORIENTED_EDGE ( 'NONE', *, *, #148, .T. ) ;
#44 = DIRECTION ( 'NONE',  ( 0.9622504486493763665, 0.1924500897298751234, 0.1924500897298751789 ) ) ;
#45 = VECTOR ( 'NONE', #211, 1000.000000000000227 ) ;
#46 = LOCAL_TIME ( 12, 8, 24.00000000000000000, #461 ) ;
#47 = CC_DESIGN_DATE_AND_TIME_ASSIGNMENT ( #69, #23, ( #139 ) ) ;
#48 = EDGE_LOOP ( 'NONE', ( #345, #338, #72, #278 ) ) ;
#49 = CARTESIAN_POINT ( 'NONE',  ( 42.99999999999999289, 0.000000000000000000, 60.00000000000000711 ) ) ;
#50 = EDGE_CURVE ( 'NONE', #258, #432, #347, .T. ) ;
#51 = CARTESIAN_POINT ( 'NONE',  ( -49.99999999999998579, -9.999999999999996447, 50.00000000000000711 ) ) ;
#52 = VECTOR ( 'NONE', #284, 1000.000000000000000 ) ;
#53 = LINE ( 'NONE', #17, #52 ) ;
#54 = LINE ( 'NONE', #360, #337 ) ;
#55 = DIRECTION ( 'NONE',  ( 0.1961161351381860429, 0.9805806756909198896, 0.000000000000000000 ) ) ;
#56 = ORIENTED_EDGE ( 'NONE', *, *, #172, .T. ) ;
#57 = APPROVAL_DATE_TIME ( #149, #297 ) ;
#58 = CARTESIAN_POINT ( 'NONE',  ( 0.000000000000000000, -19.99999999999999645, 0.000000000000000000 ) ) ;
#59 = DIRECTION ( 'NONE',  ( 0.9805806756909201116, 0.000000000000000000, -0.1961161351381843498 ) ) ;
#60 = COORDINATED_UNIVERSAL_TIME_OFFSET ( 5, 30, .AHEAD. ) ;
#61 = VECTOR ( 'NONE', #310, 1000.000000000000000 ) ;
#62 = ORIENTED_EDGE ( 'NONE', *, *, #144, .F. ) ;
#63 = LINE ( 'NONE', #58, #13 ) ;
#64 = CARTESIAN_POINT ( 'NONE',  ( 11.53846153846155254, -19.99999999999999645, 57.69230769230769340 ) ) ;
#65 = ADVANCED_FACE ( 'NONE', ( #457, #354 ), #209, .F. ) ;
#66 = ADVANCED_FACE ( 'NONE', ( #215, #283 ), #427, .F. ) ;
#67 = LINE ( 'NONE', #334, #105 ) ;
#68 = DIRECTION ( 'NONE',  ( 0.000000000000000000, 0.000000000000000000, -1.000000000000000000 ) ) ;
#69 = DATE_AND_TIME ( #286, #368 ) ;
#70 = ORIENTED_EDGE ( 'NONE', *, *, #3, .F. ) ;
#71 = CARTESIAN_POINT ( 'NONE',  ( 50.00000000000002842, -19.99999999999999645, 10.00000000000000888 ) ) ;
#72 = ORIENTED_EDGE ( 'NONE', *, *, #359, .T. ) ;
#73 = LINE ( 'NONE', #235, #301 ) ;
#74 = ORIENTED_EDGE ( 'NONE', *, *, #303, .F. ) ;
#75 =( LENGTH_UNIT ( ) NAMED_UNIT ( * ) SI_UNIT ( .MILLI., .METRE. ) );
#76 = APPLICATION_CONTEXT ( 'configuration controlled 3d designs of mechanical parts and assemblies' ) ;
#77 = VERTEX_POINT ( 'NONE', #352 ) ;
#78 = DIRECTION ( 'NONE',  ( 0.000000000000000000, 0.000000000000000000, -1.000000000000000000 ) ) ;
#79 =( BOUNDED_CURVE ( )  B_SPLINE_CURVE ( 3, ( #468, #277, #86, #344 ),
 .UNSPECIFIED., .F., .F. ) 
 B_SPLINE_CURVE_WITH_KNOTS ( ( 4, 4 ),
 ( 0.000000000000000000, 3.141592653589793116 ),
 .UNSPECIFIED. ) 
 CURVE ( )  GEOMETRIC_REPRESENTATION_ITEM ( )  RATIONAL_B_SPLINE_CURVE ( ( 1.000000000000000000, 0.3333333333333333703, 0.3333333333333333703, 1.000000000000000000 ) ) 
 REPRESENTATION_ITEM ( '' )  );
#80 = VECTOR ( 'NONE', #151, 1000.000000000000000 ) ;
#81 = VECTOR ( 'NONE', #11, 1000.000000000000000 ) ;
#82 = ORIENTED_EDGE ( 'NONE', *, *, #207, .T. ) ;
#83 = CARTESIAN_POINT ( 'NONE',  ( -49.99999999999998579, -10.00000000000000178, 10.00000000000001954 ) ) ;
#84 = DIRECTION ( 'NONE',  ( -0.000000000000000000, 1.000000000000000000, -0.000000000000000000 ) ) ;
#85 = AXIS2_PLACEMENT_3D ( 'NONE', #40, #78, #339 ) ;
#86 = CARTESIAN_POINT ( 'NONE',  ( -39.99999999999998579, 6.000000000000001776, 52.00000000000001421 ) ) ;
#87 = ORIENTED_EDGE ( 'NONE', *, *, #165, .F. ) ;
#88 = EDGE_CURVE ( 'NONE', #302, #186, #22, .T. ) ;
#89 = CARTESIAN_POINT ( 'NONE',  ( 3.846153846153887113, 19.23076923076923350, 60.00000000000000711 ) ) ;
#90 = ORIENTED_EDGE ( 'NONE', *, *, #234, .T. ) ;
#91 = EDGE_CURVE ( 'NONE', #197, #432, #137, .T. ) ;
#92 = DIRECTION ( 'NONE',  ( -0.1961161351381859319, 0.9805806756909198896, 0.000000000000000000 ) ) ;
#93 = PLANE ( 'NONE',  #153 ) ;
#94 = LOCAL_TIME ( 12, 8, 24.00000000000000000, #60 ) ;
#95 = DIRECTION ( 'NONE',  ( 0.000000000000000000, 0.000000000000000000, -1.000000000000000000 ) ) ;
#96 = ORIENTED_EDGE ( 'NONE', *, *, #115, .F. ) ;
#97 =( BOUNDED_CURVE ( )  B_SPLINE_CURVE ( 3, ( #466, #254, #433, #106 ),
 .UNSPECIFIED., .F., .F. ) 
 B_SPLINE_CURVE_WITH_KNOTS ( ( 4, 4 ),
 ( 3.141592653589793116, 6.283185307179586232 ),
 .UNSPECIFIED. ) 
 CURVE ( )  GEOMETRIC_REPRESENTATION_ITEM ( )  RATIONAL_B_SPLINE_CURVE ( ( 1.000000000000000000, 0.3333333333333333703, 0.3333333333333333703, 1.000000000000000000 ) ) 
 REPRESENTATION_ITEM ( '' )  );
#98 = DIRECTION ( 'NONE',  ( 0.000000000000000000, 0.000000000000000000, -1.000000000000000000 ) ) ;
#99 = PERSON_AND_ORGANIZATION ( #467, #434 ) ;
#100 = EDGE_CURVE ( 'NONE', #280, #336, #8, .T. ) ;
#101 = CARTESIAN_POINT ( 'NONE',  ( 0.000000000000000000, -19.99999999999999645, 0.000000000000000000 ) ) ;
#102 = EDGE_CURVE ( 'NONE', #197, #169, #79, .T. ) ;
#103 = ORIENTED_EDGE ( 'NONE', *, *, #249, .F. ) ;
#104 = ADVANCED_BREP_SHAPE_REPRESENTATION ( 'Part1_Default_sldprt', ( #414, #243 ), #375 ) ;
#105 = VECTOR ( 'NONE', #220, 1000.000000000000227 ) ;
#106 = CARTESIAN_POINT ( 'NONE',  ( 45.99999999999999289, 3.673940397442060854E-16, 50.79999999999999716 ) ) ;
#107 = CARTESIAN_POINT ( 'NONE',  ( -49.99999999999998579, -9.999999999999994671, 60.00000000000000711 ) ) ;
#108 = CARTESIAN_POINT ( 'NONE',  ( 4.423544863740858091E-14, -20.00000000000000000, 60.00000000000000711 ) ) ;
#109 = DATE_AND_TIME ( #469, #46 ) ;
#110 = EDGE_LOOP ( 'NONE', ( #200, #251, #96, #10 ) ) ;
#111 = AXIS2_PLACEMENT_3D ( 'NONE', #311, #159, #268 ) ;
#112 = CARTESIAN_POINT ( 'NONE',  ( -7.407407407407399447, 18.51851851851851904, 1.481481481481482509 ) ) ;
#113 = VERTEX_POINT ( 'NONE', #330 ) ;
#114 = CARTESIAN_POINT ( 'NONE',  ( 0.000000000000000000, 0.000000000000000000, 0.000000000000000000 ) ) ;
#115 = EDGE_CURVE ( 'NONE', #276, #77, #422, .T. ) ;
#116 = ORIENTED_EDGE ( 'NONE', *, *, #441, .F. ) ;
#117 = DIRECTION ( 'NONE',  ( 0.000000000000000000, 0.000000000000000000, -1.000000000000000000 ) ) ;
#118 =( BOUNDED_CURVE ( )  B_SPLINE_CURVE ( 3, ( #205, #387, #391, #167 ),
 .UNSPECIFIED., .F., .F. ) 
 B_SPLINE_CURVE_WITH_KNOTS ( ( 4, 4 ),
 ( 0.000000000000000000, 3.141592653589793116 ),
 .UNSPECIFIED. ) 
 CURVE ( )  GEOMETRIC_REPRESENTATION_ITEM ( )  RATIONAL_B_SPLINE_CURVE ( ( 1.000000000000000000, 0.3333333333333333703, 0.3333333333333333703, 1.000000000000000000 ) ) 
 REPRESENTATION_ITEM ( '' )  );
#119 = EDGE_LOOP ( 'NONE', ( #288, #446, #35, #166 ) ) ;
#120 = AXIS2_PLACEMENT_3D ( 'NONE', #397, #329, #478 ) ;
#121 = CYLINDRICAL_SURFACE ( 'NONE', #85, 3.000000000000002665 ) ;
#122 = MECHANICAL_CONTEXT ( 'NONE', #76, 'mechanical' ) ;
#123 = DIRECTION ( 'NONE',  ( -1.000000000000000000, 0.000000000000000000, 0.000000000000000000 ) ) ;
#124 = AXIS2_PLACEMENT_3D ( 'NONE', #101, #296, #287 ) ;
#125 = EDGE_LOOP ( 'NONE', ( #39, #28, #341, #356 ) ) ;
#126 = EDGE_CURVE ( 'NONE', #169, #197, #253, .T. ) ;
#127 = CARTESIAN_POINT ( 'NONE',  ( 4.423544863740858091E-14, -20.00000000000000000, 0.000000000000000000 ) ) ;
#128 = APPLICATION_CONTEXT ( 'configuration controlled 3d designs of mechanical parts and assemblies' ) ;
#129 = EDGE_LOOP ( 'NONE', ( #239, #82, #62, #229 ) ) ;
#130 = DIRECTION ( 'NONE',  ( 0.000000000000000000, 0.000000000000000000, -1.000000000000000000 ) ) ;
#131 = LINE ( 'NONE', #392, #45 ) ;
#132 = CYLINDRICAL_SURFACE ( 'NONE', #419, 3.000000000000002665 ) ;
#133 = EDGE_LOOP ( 'NONE', ( #74, #270 ) ) ;
#134 = PRODUCT_DEFINITION_FORMATION_WITH_SPECIFIED_SOURCE ( 'ANY', '', #333, .NOT_KNOWN. ) ;
#135 = CARTESIAN_POINT ( 'NONE',  ( 3.846153846153883560, -19.23076923076922640, 60.00000000000000711 ) ) ;
#136 = ADVANCED_FACE ( 'NONE', ( #246 ), #132, .F. ) ;
#137 = LINE ( 'NONE', #318, #350 ) ;
#138 = DATE_TIME_ROLE ( 'classification_date' ) ;
#139 = PRODUCT_DEFINITION ( 'UNKNOWN', '', #134, #294 ) ;
#140 = ADVANCED_FACE ( 'NONE', ( #210 ), #208, .T. ) ;
#141 = FACE_BOUND ( 'NONE', #452, .T. ) ;
#142 = VERTEX_POINT ( 'NONE', #202 ) ;
#143 = CARTESIAN_POINT ( 'NONE',  ( 45.99999999999999289, 3.673940397442060854E-16, 9.199999999999999289 ) ) ;
#144 = EDGE_CURVE ( 'NONE', #336, #280, #118, .T. ) ;
#145 = LINE ( 'NONE', #107, #29 ) ;
#146 = ORIENTED_EDGE ( 'NONE', *, *, #373, .T. ) ;
#147 = CARTESIAN_POINT ( 'NONE',  ( 39.99999999999998579, 0.000000000000000000, 8.000000000000000000 ) ) ;
#148 = EDGE_CURVE ( 'NONE', #241, #276, #242, .T. ) ;
#149 = DATE_AND_TIME ( #476, #94 ) ;
#150 = ORIENTED_EDGE ( 'NONE', *, *, #264, .T. ) ;
#151 = DIRECTION ( 'NONE',  ( 0.000000000000000000, 0.000000000000000000, -1.000000000000000000 ) ) ;
#152 = ORIENTED_EDGE ( 'NONE', *, *, #249, .T. ) ;
#153 = AXIS2_PLACEMENT_3D ( 'NONE', #323, #245, #390 ) ;
#154 = PLANE ( 'NONE',  #282 ) ;
#155 = ADVANCED_FACE ( 'NONE', ( #9, #315 ), #428, .T. ) ;
#156 = ORIENTED_EDGE ( 'NONE', *, *, #144, .T. ) ;
#157 = LINE ( 'NONE', #7, #481 ) ;
#158 = ORIENTED_EDGE ( 'NONE', *, *, #400, .T. ) ;
#159 = DIRECTION ( 'NONE',  ( -1.000000000000000000, 0.000000000000000000, 0.000000000000000000 ) ) ;
#160 = EDGE_CURVE ( 'NONE', #302, #379, #312, .T. ) ;
#161 = CARTESIAN_POINT ( 'NONE',  ( -45.99999999999999289, 6.000000000000001776, 9.200000000000011724 ) ) ;
#162 = VECTOR ( 'NONE', #389, 1000.000000000000000 ) ;
#163 =( NAMED_UNIT ( * ) SI_UNIT ( $, .STERADIAN. ) SOLID_ANGLE_UNIT ( ) );
#164 = CARTESIAN_POINT ( 'NONE',  ( -11.53846153846153300, -19.99999999999999645, 57.69230769230769340 ) ) ;
#165 = EDGE_CURVE ( 'NONE', #37, #142, #355, .T. ) ;
#166 = ORIENTED_EDGE ( 'NONE', *, *, #359, .F. ) ;
#167 = CARTESIAN_POINT ( 'NONE',  ( 45.99999999999999289, 3.673940397442060854E-16, 9.199999999999999289 ) ) ;
#168 = CC_DESIGN_APPROVAL ( #297, ( #139 ) ) ;
#169 = VERTEX_POINT ( 'NONE', #451 ) ;
#170 = DIRECTION ( 'NONE',  ( -0.9805806756909198896, 0.1961161351381860429, 0.000000000000000000 ) ) ;
#171 = CARTESIAN_POINT ( 'NONE',  ( 50.00000000000002132, -19.99999999999999645, 49.99999999999998579 ) ) ;
#172 = EDGE_CURVE ( 'NONE', #169, #258, #53, .T. ) ;
#173 = FACE_OUTER_BOUND ( 'NONE', #119, .T. ) ;
#174 = CARTESIAN_POINT ( 'NONE',  ( -45.99999999999999289, 0.000000000000000000, 9.200000000000013500 ) ) ;
#175 = ADVANCED_FACE ( 'NONE', ( #420 ), #455, .F. ) ;
#176 = CARTESIAN_POINT ( 'NONE',  ( 45.99999999999999289, 6.000000000000003553, 50.79999999999999716 ) ) ;
#177 = APPROVAL_ROLE ( '' ) ;
#178 = APPROVAL_PERSON_ORGANIZATION ( #361, #42, #257 ) ;
#179 = DIRECTION ( 'NONE',  ( -0.000000000000000000, 1.000000000000000000, -0.000000000000000000 ) ) ;
#180 = EDGE_LOOP ( 'NONE', ( #295, #56, #408, #395 ) ) ;
#181 = APPROVAL_STATUS ( 'not_yet_approved' ) ;
#182 = EDGE_LOOP ( 'NONE', ( #206, #326, #43, #103 ) ) ;
#183 = LINE ( 'NONE', #108, #415 ) ;
#184 = CARTESIAN_POINT ( 'NONE',  ( 45.99999999999999289, 3.673940397442060854E-16, 9.199999999999999289 ) ) ;
#185 = COORDINATED_UNIVERSAL_TIME_OFFSET ( 5, 30, .AHEAD. ) ;
#186 = VERTEX_POINT ( 'NONE', #275 ) ;
#187 = CARTESIAN_POINT ( 'NONE',  ( -11.11111111111110361, -17.77777777777776791, 57.77777777777777857 ) ) ;
#188 = CC_DESIGN_APPROVAL ( #42, ( #244 ) ) ;
#189 = PRODUCT_RELATED_PRODUCT_CATEGORY ( 'detail', '', ( #333 ) ) ;
#190 = VERTEX_POINT ( 'NONE', #279 ) ;
#191 = PRODUCT_DEFINITION_SHAPE ( 'NONE', 'NONE',  #139 ) ;
#192 = PLANE ( 'NONE',  #124 ) ;
#193 = VERTEX_POINT ( 'NONE', #127 ) ;
#194 = ADVANCED_FACE ( 'NONE', ( #173 ), #240, .F. ) ;
#195 = APPLICATION_PROTOCOL_DEFINITION ( 'international standard', 'config_control_design', 1994, #128 ) ;
#196 = APPROVAL ( #181, 'UNSPECIFIED' ) ;
#197 = VERTEX_POINT ( 'NONE', #459 ) ;
#198 = VECTOR ( 'NONE', #247, 1000.000000000000000 ) ;
#199 = CARTESIAN_POINT ( 'NONE',  ( -39.99999999999998579, 3.673940397442060854E-16, 8.000000000000014211 ) ) ;
#200 = ORIENTED_EDGE ( 'NONE', *, *, #266, .T. ) ;
#201 = AXIS2_PLACEMENT_3D ( 'NONE', #12, #429, #59 ) ;
#202 = CARTESIAN_POINT ( 'NONE',  ( -49.99999999999998579, 10.00000000000000533, 50.00000000000000000 ) ) ;
#203 = ORIENTED_EDGE ( 'NONE', *, *, #91, .T. ) ;
#204 = EDGE_CURVE ( 'NONE', #233, #113, #31, .T. ) ;
#205 = CARTESIAN_POINT ( 'NONE',  ( 39.99999999999998579, 0.000000000000000000, 8.000000000000000000 ) ) ;
#206 = ORIENTED_EDGE ( 'NONE', *, *, #264, .F. ) ;
#207 = EDGE_CURVE ( 'NONE', #233, #280, #281, .T. ) ;
#208 = PLANE ( 'NONE',  #472 ) ;
#209 = PLANE ( 'NONE',  #448 ) ;
#210 = FACE_OUTER_BOUND ( 'NONE', #110, .T. ) ;
#211 = DIRECTION ( 'NONE',  ( 0.9622504486493758113, 0.1924500897298770941, 0.1924500897298752344 ) ) ;
#212 = CARTESIAN_POINT ( 'NONE',  ( -39.99999999999998579, -6.000000000000001776, 52.00000000000001421 ) ) ;
#213 = DIRECTION ( 'NONE',  ( 0.000000000000000000, 0.000000000000000000, -1.000000000000000000 ) ) ;
#214 = DIRECTION ( 'NONE',  ( -0.000000000000000000, 1.000000000000000000, -0.000000000000000000 ) ) ;
#215 = FACE_BOUND ( 'NONE', #285, .T. ) ;
#216 = AXIS2_PLACEMENT_3D ( 'NONE', #250, #440, #364 ) ;
#217 = PERSON_AND_ORGANIZATION_ROLE ( 'classification_officer' ) ;
#218 = CARTESIAN_POINT ( 'NONE',  ( -49.99999999999998579, 10.00000000000000178, 60.00000000000000711 ) ) ;
#219 = CARTESIAN_POINT ( 'NONE',  ( 45.99999999999999289, 6.000000000000001776, 9.200000000000002842 ) ) ;
#220 = DIRECTION ( 'NONE',  ( 0.9622504486493758113, 0.1924500897298770941, -0.1924500897298754010 ) ) ;
#221 = CARTESIAN_POINT ( 'NONE',  ( -39.99999999999998579, 3.673940397442060854E-16, 8.000000000000014211 ) ) ;
#222 = APPROVAL_DATE_TIME ( #474, #42 ) ;
#223 = AXIS2_PLACEMENT_3D ( 'NONE', #135, #92, #319 ) ;
#224 = CARTESIAN_POINT ( 'NONE',  ( 45.99999999999999289, 3.673940397442060854E-16, 60.00000000000000711 ) ) ;
#225 = ORIENTED_EDGE ( 'NONE', *, *, #126, .T. ) ;
#226 = EDGE_CURVE ( 'NONE', #379, #77, #401, .T. ) ;
#227 = FACE_OUTER_BOUND ( 'NONE', #443, .T. ) ;
#228 = ORIENTED_EDGE ( 'NONE', *, *, #165, .T. ) ;
#229 = ORIENTED_EDGE ( 'NONE', *, *, #411, .F. ) ;
#230 = APPROVAL_PERSON_ORGANIZATION ( #99, #196, #177 ) ;
#231 = CARTESIAN_POINT ( 'NONE',  ( -39.99999999999998579, 6.000000000000001776, 8.000000000000008882 ) ) ;
#232 = EDGE_CURVE ( 'NONE', #416, #193, #325, .T. ) ;
#233 = VERTEX_POINT ( 'NONE', #402 ) ;
#234 = EDGE_CURVE ( 'NONE', #193, #276, #63, .T. ) ;
#235 = CARTESIAN_POINT ( 'NONE',  ( 39.99999999999998579, 0.000000000000000000, 60.00000000000000711 ) ) ;
#236 = ADVANCED_FACE ( 'NONE', ( #21 ), #475, .F. ) ;
#237 = VECTOR ( 'NONE', #84, 1000.000000000000000 ) ;
#238 = CARTESIAN_POINT ( 'NONE',  ( -45.99999999999999289, -6.000000000000001776, 50.80000000000001847 ) ) ;
#239 = ORIENTED_EDGE ( 'NONE', *, *, #303, .T. ) ;
#240 = PLANE ( 'NONE',  #223 ) ;
#241 = VERTEX_POINT ( 'NONE', #34 ) ;
#242 = LINE ( 'NONE', #317, #81 ) ;
#243 = AXIS2_PLACEMENT_3D ( 'NONE', #114, #272, #417 ) ;
#244 = SECURITY_CLASSIFICATION ( '', '', #396 ) ;
#245 = DIRECTION ( 'NONE',  ( -0.1961161351381838780, -0.9805806756909202226, 0.000000000000000000 ) ) ;
#246 = FACE_OUTER_BOUND ( 'NONE', #129, .T. ) ;
#247 = DIRECTION ( 'NONE',  ( -0.000000000000000000, 1.000000000000000000, -0.000000000000000000 ) ) ;
#248 = ORIENTED_EDGE ( 'NONE', *, *, #405, .F. ) ;
#249 = EDGE_CURVE ( 'NONE', #267, #276, #370, .T. ) ;
#250 = CARTESIAN_POINT ( 'NONE',  ( -3.846153846153842260, 19.23076923076922640, 60.00000000000000711 ) ) ;
#251 = ORIENTED_EDGE ( 'NONE', *, *, #384, .T. ) ;
#252 = PERSON_AND_ORGANIZATION_ROLE ( 'design_supplier' ) ;
#253 =( BOUNDED_CURVE ( )  B_SPLINE_CURVE ( 3, ( #394, #212, #238, #426 ),
 .UNSPECIFIED., .F., .F. ) 
 B_SPLINE_CURVE_WITH_KNOTS ( ( 4, 4 ),
 ( 3.141592653589793116, 6.283185307179586232 ),
 .UNSPECIFIED. ) 
 CURVE ( )  GEOMETRIC_REPRESENTATION_ITEM ( )  RATIONAL_B_SPLINE_CURVE ( ( 1.000000000000000000, 0.3333333333333333703, 0.3333333333333333703, 1.000000000000000000 ) ) 
 REPRESENTATION_ITEM ( '' )  );
#254 = CARTESIAN_POINT ( 'NONE',  ( 39.99999999999998579, -6.000000000000003553, 52.00000000000001421 ) ) ;
#255 = PERSON_AND_ORGANIZATION ( #467, #434 ) ;
#256 = CARTESIAN_POINT ( 'NONE',  ( 0.000000000000000000, -19.99999999999999645, 0.000000000000000000 ) ) ;
#257 = APPROVAL_ROLE ( '' ) ;
#258 = VERTEX_POINT ( 'NONE', #221 ) ;
#259 = CARTESIAN_POINT ( 'NONE',  ( 50.00000000000005684, -9.999999999999896971, 49.99999999999998579 ) ) ;
#260 = VECTOR ( 'NONE', #331, 1000.000000000000114 ) ;
#261 = ORIENTED_EDGE ( 'NONE', *, *, #50, .F. ) ;
#262 = LINE ( 'NONE', #462, #322 ) ;
#263 = ORIENTED_EDGE ( 'NONE', *, *, #232, .T. ) ;
#264 = EDGE_CURVE ( 'NONE', #142, #267, #436, .T. ) ;
#265 = APPROVAL_STATUS ( 'not_yet_approved' ) ;
#266 = EDGE_CURVE ( 'NONE', #241, #186, #262, .T. ) ;
#267 = VERTEX_POINT ( 'NONE', #300 ) ;
#268 = DIRECTION ( 'NONE',  ( 0.000000000000000000, 0.000000000000000000, 1.000000000000000000 ) ) ;
#269 = AXIS2_PLACEMENT_3D ( 'NONE', #164, #346, #424 ) ;
#270 = ORIENTED_EDGE ( 'NONE', *, *, #204, .F. ) ;
#271 = CC_DESIGN_SECURITY_CLASSIFICATION ( #244, ( #134 ) ) ;
#272 = DIRECTION ( 'NONE',  ( 0.000000000000000000, 0.000000000000000000, 1.000000000000000000 ) ) ;
#273 = ADVANCED_FACE ( 'NONE', ( #141, #367 ), #192, .T. ) ;
#274 = VECTOR ( 'NONE', #30, 1000.000000000000000 ) ;
#275 = CARTESIAN_POINT ( 'NONE',  ( 50.00000000000004974, 9.999999999999900524, 49.99999999999997868 ) ) ;
#276 = VERTEX_POINT ( 'NONE', #27 ) ;
#277 = CARTESIAN_POINT ( 'NONE',  ( -45.99999999999999289, 6.000000000000001776, 50.80000000000001847 ) ) ;
#278 = ORIENTED_EDGE ( 'NONE', *, *, #88, .T. ) ;
#279 = CARTESIAN_POINT ( 'NONE',  ( 4.510281037539699708E-14, -19.99999999999999645, 60.00000000000000711 ) ) ;
#280 = VERTEX_POINT ( 'NONE', #143 ) ;
#281 = LINE ( 'NONE', #224, #274 ) ;
#282 = AXIS2_PLACEMENT_3D ( 'NONE', #409, #381, #342 ) ;
#283 = FACE_OUTER_BOUND ( 'NONE', #299, .T. ) ;
#284 = DIRECTION ( 'NONE',  ( 0.000000000000000000, 0.000000000000000000, -1.000000000000000000 ) ) ;
#285 = EDGE_LOOP ( 'NONE', ( #116, #261 ) ) ;
#286 = CALENDAR_DATE ( 2026, 19, 9 ) ;
#287 = DIRECTION ( 'NONE',  ( -0.9805806756909201116, 0.000000000000000000, -0.1961161351381841000 ) ) ;
#288 = ORIENTED_EDGE ( 'NONE', *, *, #340, .T. ) ;
#289 = ADVANCED_FACE ( 'NONE', ( #335 ), #431, .F. ) ;
#290 = DIRECTION ( 'NONE',  ( 0.9622504486493761444, 0.1924500897298750679, -0.1924500897298755675 ) ) ;
#291 = CLOSED_SHELL ( 'NONE', ( #136, #289, #377, #65, #273, #463, #66, #155, #32, #236, #140, #194, #445, #175 ) ) ;
#292 = DIRECTION ( 'NONE',  ( 0.9622504486493761444, -0.1924500897298750679, -0.1924500897298755675 ) ) ;
#293 = DATE_AND_TIME ( #430, #383 ) ;
#294 = DESIGN_CONTEXT ( 'detailed design', #128, 'design' ) ;
#295 = ORIENTED_EDGE ( 'NONE', *, *, #126, .F. ) ;
#296 = DIRECTION ( 'NONE',  ( 0.1961161351381841000, 0.000000000000000000, -0.9805806756909201116 ) ) ;
#297 = APPROVAL ( #265, 'UNSPECIFIED' ) ;
#298 = PERSON_AND_ORGANIZATION ( #467, #434 ) ;
#299 = EDGE_LOOP ( 'NONE', ( #425, #152, #304, #410 ) ) ;
#300 = CARTESIAN_POINT ( 'NONE',  ( -49.99999999999998579, 10.00000000000000533, 10.00000000000001599 ) ) ;
#301 = VECTOR ( 'NONE', #117, 1000.000000000000000 ) ;
#302 = VERTEX_POINT ( 'NONE', #259 ) ;
#303 = EDGE_CURVE ( 'NONE', #113, #233, #97, .T. ) ;
#304 = ORIENTED_EDGE ( 'NONE', *, *, #234, .F. ) ;
#305 =( BOUNDED_CURVE ( )  B_SPLINE_CURVE ( 3, ( #418, #161, #231, #199 ),
 .UNSPECIFIED., .F., .F. ) 
 B_SPLINE_CURVE_WITH_KNOTS ( ( 4, 4 ),
 ( 3.141592653589793116, 6.283185307179586232 ),
 .UNSPECIFIED. ) 
 CURVE ( )  GEOMETRIC_REPRESENTATION_ITEM ( )  RATIONAL_B_SPLINE_CURVE ( ( 1.000000000000000000, 0.3333333333333333703, 0.3333333333333333703, 1.000000000000000000 ) ) 
 REPRESENTATION_ITEM ( '' )  );
#306 =( NAMED_UNIT ( * ) PLANE_ANGLE_UNIT ( ) SI_UNIT ( $, .RADIAN. ) );
#307 = ORIENTED_EDGE ( 'NONE', *, *, #172, .F. ) ;
#308 = FACE_OUTER_BOUND ( 'NONE', #376, .T. ) ;
#309 = CC_DESIGN_APPROVAL ( #196, ( #134 ) ) ;
#310 = DIRECTION ( 'NONE',  ( 0.000000000000000000, 0.000000000000000000, -1.000000000000000000 ) ) ;
#311 = CARTESIAN_POINT ( 'NONE',  ( 50.00000000000002132, -19.99999999999999645, 60.00000000000000000 ) ) ;
#312 = LINE ( 'NONE', #453, #349 ) ;
#313 = ORIENTED_EDGE ( 'NONE', *, *, #373, .F. ) ;
#314 = VECTOR ( 'NONE', #292, 1000.000000000000114 ) ;
#315 = FACE_OUTER_BOUND ( 'NONE', #366, .T. ) ;
#316 = EDGE_LOOP ( 'NONE', ( #388, #225 ) ) ;
#317 = CARTESIAN_POINT ( 'NONE',  ( 4.553649124439118623E-14, 20.00000000000000000, 60.00000000000000711 ) ) ;
#318 = CARTESIAN_POINT ( 'NONE',  ( -45.99999999999999289, 0.000000000000000000, 60.00000000000000711 ) ) ;
#319 = DIRECTION ( 'NONE',  ( -0.9805806756909198896, -0.1961161351381859319, 0.000000000000000000 ) ) ;
#320 = DIRECTION ( 'NONE',  ( -0.000000000000000000, 1.000000000000000000, -0.000000000000000000 ) ) ;
#321 = DIRECTION ( 'NONE',  ( 0.9622504486493758113, -0.1924500897298771773, 0.1924500897298752344 ) ) ;
#322 = VECTOR ( 'NONE', #24, 1000.000000000000227 ) ;
#323 = CARTESIAN_POINT ( 'NONE',  ( -3.846153846153841371, -19.23076923076921929, 60.00000000000000711 ) ) ;
#324 = COORDINATED_UNIVERSAL_TIME_OFFSET ( 5, 30, .AHEAD. ) ;
#325 = LINE ( 'NONE', #256, #314 ) ;
#326 = ORIENTED_EDGE ( 'NONE', *, *, #405, .T. ) ;
#327 = APPROVAL_STATUS ( 'not_yet_approved' ) ;
#328 = CC_DESIGN_PERSON_AND_ORGANIZATION_ASSIGNMENT ( #298, #20, ( #139 ) ) ;
#329 = DIRECTION ( 'NONE',  ( 0.000000000000000000, 0.000000000000000000, -1.000000000000000000 ) ) ;
#330 = CARTESIAN_POINT ( 'NONE',  ( 39.99999999999998579, 0.000000000000000000, 52.00000000000000711 ) ) ;
#331 = DIRECTION ( 'NONE',  ( 0.9622504486493763665, -0.1924500897298751234, 0.1924500897298751789 ) ) ;
#332 = VECTOR ( 'NONE', #290, 1000.000000000000114 ) ;
#333 = PRODUCT ( 'Part1_Default_sldprt', 'Part1_Default_sldprt', '', ( #122 ) ) ;
#334 = CARTESIAN_POINT ( 'NONE',  ( 11.11111111111111782, -17.77777777777776436, 57.77777777777777857 ) ) ;
#335 = FACE_OUTER_BOUND ( 'NONE', #180, .T. ) ;
#336 = VERTEX_POINT ( 'NONE', #147 ) ;
#337 = VECTOR ( 'NONE', #320, 1000.000000000000000 ) ;
#338 = ORIENTED_EDGE ( 'NONE', *, *, #400, .F. ) ;
#339 = DIRECTION ( 'NONE',  ( -1.000000000000000000, 0.000000000000000000, 0.000000000000000000 ) ) ;
#340 = EDGE_CURVE ( 'NONE', #190, #193, #183, .T. ) ;
#341 = ORIENTED_EDGE ( 'NONE', *, *, #411, .T. ) ;
#342 = DIRECTION ( 'NONE',  ( 0.000000000000000000, 0.000000000000000000, -1.000000000000000000 ) ) ;
#343 = APPROVAL_PERSON_ORGANIZATION ( #480, #297, #374 ) ;
#344 = CARTESIAN_POINT ( 'NONE',  ( -39.99999999999998579, 3.673940397442060854E-16, 52.00000000000000711 ) ) ;
#345 = ORIENTED_EDGE ( 'NONE', *, *, #266, .F. ) ;
#346 = DIRECTION ( 'NONE',  ( -0.1961161351381839335, 0.000000000000000000, 0.9805806756909202226 ) ) ;
#347 =( BOUNDED_CURVE ( )  B_SPLINE_CURVE ( 3, ( #18, #398, #15, #174 ),
 .UNSPECIFIED., .F., .T. ) 
 B_SPLINE_CURVE_WITH_KNOTS ( ( 4, 4 ),
 ( 0.000000000000000000, 3.141592653589793116 ),
 .UNSPECIFIED. ) 
 CURVE ( )  GEOMETRIC_REPRESENTATION_ITEM ( )  RATIONAL_B_SPLINE_CURVE ( ( 1.000000000000000000, 0.3333333333333333703, 0.3333333333333333703, 1.000000000000000000 ) ) 
 REPRESENTATION_ITEM ( '' )  );
#348 = DIRECTION ( 'NONE',  ( -0.9805806756909201116, 0.000000000000000000, 0.1961161351381842666 ) ) ;
#349 = VECTOR ( 'NONE', #95, 1000.000000000000000 ) ;
#350 = VECTOR ( 'NONE', #213, 1000.000000000000000 ) ;
#351 = CARTESIAN_POINT ( 'NONE',  ( -49.99999999999998579, -19.99999999999999645, 49.99999999999999289 ) ) ;
#352 = CARTESIAN_POINT ( 'NONE',  ( 50.00000000000005684, 9.999999999999900524, 10.00000000000001243 ) ) ;
#353 = CARTESIAN_POINT ( 'NONE',  ( 7.407407407407480271, 18.51851851851850483, 1.481481481481496720 ) ) ;
#354 = FACE_OUTER_BOUND ( 'NONE', #48, .T. ) ;
#355 = LINE ( 'NONE', #351, #162 ) ;
#356 = ORIENTED_EDGE ( 'NONE', *, *, #100, .F. ) ;
#357 = CARTESIAN_POINT ( 'NONE',  ( 39.99999999999998579, 6.000000000000003553, 52.00000000000001421 ) ) ;
#358 = CC_DESIGN_DATE_AND_TIME_ASSIGNMENT ( #109, #138, ( #244 ) ) ;
#359 = EDGE_CURVE ( 'NONE', #190, #302, #67, .T. ) ;
#360 = CARTESIAN_POINT ( 'NONE',  ( -49.99999999999997868, -19.99999999999999645, 10.00000000000001243 ) ) ;
#361 = PERSON_AND_ORGANIZATION ( #467, #434 ) ;
#362 = CARTESIAN_POINT ( 'NONE',  ( 39.99999999999998579, 0.000000000000000000, 52.00000000000000711 ) ) ;
#363 = CARTESIAN_POINT ( 'NONE',  ( 39.99999999999998579, 6.000000000000001776, 8.000000000000003553 ) ) ;
#364 = DIRECTION ( 'NONE',  ( 0.9805806756909202226, 0.1961161351381838780, 0.000000000000000000 ) ) ;
#365 = EDGE_CURVE ( 'NONE', #37, #190, #473, .T. ) ;
#366 = EDGE_LOOP ( 'NONE', ( #248, #87, #404, #158 ) ) ;
#367 = FACE_OUTER_BOUND ( 'NONE', #479, .T. ) ;
#368 = LOCAL_TIME ( 12, 8, 24.00000000000000000, #185 ) ;
#369 = SHAPE_DEFINITION_REPRESENTATION ( #191, #104 ) ;
#370 = LINE ( 'NONE', #112, #332 ) ;
#371 = ORIENTED_EDGE ( 'NONE', *, *, #160, .T. ) ;
#372 = EDGE_LOOP ( 'NONE', ( #477, #4, #371, #456 ) ) ;
#373 = EDGE_CURVE ( 'NONE', #37, #416, #145, .T. ) ;
#374 = APPROVAL_ROLE ( '' ) ;
#375 =( GEOMETRIC_REPRESENTATION_CONTEXT ( 3 ) GLOBAL_UNCERTAINTY_ASSIGNED_CONTEXT ( ( #16 ) ) GLOBAL_UNIT_ASSIGNED_CONTEXT ( ( #75, #306, #163 ) ) REPRESENTATION_CONTEXT ( 'NONE', 'WORKASPACE' ) );
#376 = EDGE_LOOP ( 'NONE', ( #228, #150, #1, #313 ) ) ;
#377 = ADVANCED_FACE ( 'NONE', ( #406 ), #447, .F. ) ;
#378 = LINE ( 'NONE', #2, #237 ) ;
#379 = VERTEX_POINT ( 'NONE', #5 ) ;
#380 = CARTESIAN_POINT ( 'NONE',  ( 50.00000000000005684, 9.999999999999898748, 60.00000000000000711 ) ) ;
#381 = DIRECTION ( 'NONE',  ( 1.000000000000000000, 0.000000000000000000, 0.000000000000000000 ) ) ;
#382 = AXIS2_PLACEMENT_3D ( 'NONE', #49, #130, #123 ) ;
#383 = LOCAL_TIME ( 12, 8, 24.00000000000000000, #324 ) ;
#384 = EDGE_CURVE ( 'NONE', #186, #77, #449, .T. ) ;
#385 = CARTESIAN_POINT ( 'NONE',  ( 42.99999999999999289, 0.000000000000000000, 60.00000000000000711 ) ) ;
#386 = EDGE_LOOP ( 'NONE', ( #263, #412, #421, #146 ) ) ;
#387 = CARTESIAN_POINT ( 'NONE',  ( 39.99999999999998579, -6.000000000000001776, 8.000000000000003553 ) ) ;
#388 = ORIENTED_EDGE ( 'NONE', *, *, #102, .T. ) ;
#389 = DIRECTION ( 'NONE',  ( -0.000000000000000000, 1.000000000000000000, -0.000000000000000000 ) ) ;
#390 = DIRECTION ( 'NONE',  ( 0.9805806756909202226, -0.1961161351381838780, 0.000000000000000000 ) ) ;
#391 = CARTESIAN_POINT ( 'NONE',  ( 45.99999999999999289, -6.000000000000001776, 9.200000000000002842 ) ) ;
#392 = CARTESIAN_POINT ( 'NONE',  ( 0.000000000000000000, -19.99999999999999645, 0.000000000000000000 ) ) ;
#393 = CC_DESIGN_PERSON_AND_ORGANIZATION_ASSIGNMENT ( #26, #435, ( #134 ) ) ;
#394 = CARTESIAN_POINT ( 'NONE',  ( -39.99999999999998579, 3.673940397442060854E-16, 52.00000000000000711 ) ) ;
#395 = ORIENTED_EDGE ( 'NONE', *, *, #91, .F. ) ;
#396 = SECURITY_CLASSIFICATION_LEVEL ( 'unclassified' ) ;
#397 = CARTESIAN_POINT ( 'NONE',  ( -42.99999999999999289, 0.000000000000000000, 60.00000000000000711 ) ) ;
#398 = CARTESIAN_POINT ( 'NONE',  ( -39.99999999999998579, -6.000000000000001776, 8.000000000000008882 ) ) ;
#399 = APPROVAL_DATE_TIME ( #293, #196 ) ;
#400 = EDGE_CURVE ( 'NONE', #190, #241, #378, .T. ) ;
#401 = LINE ( 'NONE', #71, #458 ) ;
#402 = CARTESIAN_POINT ( 'NONE',  ( 45.99999999999999289, 3.673940397442060854E-16, 50.79999999999999716 ) ) ;
#403 = COORDINATED_UNIVERSAL_TIME_OFFSET ( 5, 30, .AHEAD. ) ;
#404 = ORIENTED_EDGE ( 'NONE', *, *, #365, .T. ) ;
#405 = EDGE_CURVE ( 'NONE', #142, #241, #157, .T. ) ;
#406 = FACE_OUTER_BOUND ( 'NONE', #372, .T. ) ;
#407 = LOCAL_TIME ( 12, 8, 24.00000000000000000, #403 ) ;
#408 = ORIENTED_EDGE ( 'NONE', *, *, #50, .T. ) ;
#409 = CARTESIAN_POINT ( 'NONE',  ( -49.99999999999997868, -19.99999999999999645, 60.00000000000000000 ) ) ;
#410 = ORIENTED_EDGE ( 'NONE', *, *, #232, .F. ) ;
#411 = EDGE_CURVE ( 'NONE', #113, #336, #73, .T. ) ;
#412 = ORIENTED_EDGE ( 'NONE', *, *, #340, .F. ) ;
#413 = CARTESIAN_POINT ( 'NONE',  ( -45.99999999999999289, 0.000000000000000000, 9.200000000000013500 ) ) ;
#414 = MANIFOLD_SOLID_BREP ( 'Cut-Extrude3', #291 ) ;
#415 = VECTOR ( 'NONE', #437, 1000.000000000000000 ) ;
#416 = VERTEX_POINT ( 'NONE', #83 ) ;
#417 = DIRECTION ( 'NONE',  ( 1.000000000000000000, 0.000000000000000000, 0.000000000000000000 ) ) ;
#418 = CARTESIAN_POINT ( 'NONE',  ( -45.99999999999999289, 0.000000000000000000, 9.200000000000013500 ) ) ;
#419 = AXIS2_PLACEMENT_3D ( 'NONE', #385, #98, #14 ) ;
#420 = FACE_OUTER_BOUND ( 'NONE', #125, .T. ) ;
#421 = ORIENTED_EDGE ( 'NONE', *, *, #365, .F. ) ;
#422 = LINE ( 'NONE', #353, #38 ) ;
#423 = ORIENTED_EDGE ( 'NONE', *, *, #441, .T. ) ;
#424 = DIRECTION ( 'NONE',  ( 0.9805806756909202226, 0.000000000000000000, 0.1961161351381839335 ) ) ;
#425 = ORIENTED_EDGE ( 'NONE', *, *, #41, .T. ) ;
#426 = CARTESIAN_POINT ( 'NONE',  ( -45.99999999999999289, 0.000000000000000000, 50.80000000000001137 ) ) ;
#427 = PLANE ( 'NONE',  #201 ) ;
#428 = PLANE ( 'NONE',  #269 ) ;
#429 = DIRECTION ( 'NONE',  ( 0.1961161351381843498, 0.000000000000000000, 0.9805806756909201116 ) ) ;
#430 = CALENDAR_DATE ( 2026, 19, 9 ) ;
#431 = CYLINDRICAL_SURFACE ( 'NONE', #120, 3.000000000000002665 ) ;
#432 = VERTEX_POINT ( 'NONE', #413 ) ;
#433 = CARTESIAN_POINT ( 'NONE',  ( 45.99999999999999289, -6.000000000000003553, 50.79999999999999716 ) ) ;
#434 = ORGANIZATION ( 'UNSPECIFIED', 'UNSPECIFIED', '' ) ;
#435 = PERSON_AND_ORGANIZATION_ROLE ( 'creator' ) ;
#436 = LINE ( 'NONE', #218, #80 ) ;
#437 = DIRECTION ( 'NONE',  ( 0.000000000000000000, 0.000000000000000000, -1.000000000000000000 ) ) ;
#438 = PERSON_AND_ORGANIZATION ( #467, #434 ) ;
#439 = ORIENTED_EDGE ( 'NONE', *, *, #115, .T. ) ;
#440 = DIRECTION ( 'NONE',  ( 0.1961161351381838780, -0.9805806756909202226, 0.000000000000000000 ) ) ;
#441 = EDGE_CURVE ( 'NONE', #432, #258, #305, .T. ) ;
#442 = CC_DESIGN_PERSON_AND_ORGANIZATION_ASSIGNMENT ( #438, #217, ( #244 ) ) ;
#443 = EDGE_LOOP ( 'NONE', ( #307, #471, #203, #423 ) ) ;
#444 = ORIENTED_EDGE ( 'NONE', *, *, #100, .T. ) ;
#445 = ADVANCED_FACE ( 'NONE', ( #227 ), #121, .F. ) ;
#446 = ORIENTED_EDGE ( 'NONE', *, *, #3, .T. ) ;
#447 = PLANE ( 'NONE',  #111 ) ;
#448 = AXIS2_PLACEMENT_3D ( 'NONE', #64, #460, #348 ) ;
#449 = LINE ( 'NONE', #380, #61 ) ;
#450 = PERSON_AND_ORGANIZATION ( #467, #434 ) ;
#451 = CARTESIAN_POINT ( 'NONE',  ( -39.99999999999998579, 3.673940397442060854E-16, 52.00000000000000711 ) ) ;
#452 = EDGE_LOOP ( 'NONE', ( #156, #444 ) ) ;
#453 = CARTESIAN_POINT ( 'NONE',  ( 50.00000000000005684, -9.999999999999896971, 60.00000000000000711 ) ) ;
#454 = ORIENTED_EDGE ( 'NONE', *, *, #226, .F. ) ;
#455 = CYLINDRICAL_SURFACE ( 'NONE', #382, 3.000000000000002665 ) ;
#456 = ORIENTED_EDGE ( 'NONE', *, *, #226, .T. ) ;
#457 = FACE_BOUND ( 'NONE', #133, .T. ) ;
#458 = VECTOR ( 'NONE', #179, 1000.000000000000000 ) ;
#459 = CARTESIAN_POINT ( 'NONE',  ( -45.99999999999999289, 0.000000000000000000, 50.80000000000001137 ) ) ;
#460 = DIRECTION ( 'NONE',  ( -0.1961161351381842666, 0.000000000000000000, -0.9805806756909201116 ) ) ;
#461 = COORDINATED_UNIVERSAL_TIME_OFFSET ( 5, 30, .AHEAD. ) ;
#462 = CARTESIAN_POINT ( 'NONE',  ( 18.51851851851859720, 16.29629629629625853, 56.29629629629628340 ) ) ;
#463 = ADVANCED_FACE ( 'NONE', ( #308 ), #154, .F. ) ;
#464 = FACE_OUTER_BOUND ( 'NONE', #386, .T. ) ;
#465 = CALENDAR_DATE ( 2026, 19, 9 ) ;
#466 = CARTESIAN_POINT ( 'NONE',  ( 39.99999999999998579, 0.000000000000000000, 52.00000000000000711 ) ) ;
#467 = PERSON ( 'UNSPECIFIED', 'UNSPECIFIED', 'UNSPECIFIED', ('UNSPECIFIED'), ('UNSPECIFIED'), ('UNSPECIFIED') ) ;
#468 = CARTESIAN_POINT ( 'NONE',  ( -45.99999999999999289, 0.000000000000000000, 50.80000000000001137 ) ) ;
#469 = CALENDAR_DATE ( 2026, 19, 9 ) ;
#470 = CC_DESIGN_PERSON_AND_ORGANIZATION_ASSIGNMENT ( #255, #252, ( #134 ) ) ;
#471 = ORIENTED_EDGE ( 'NONE', *, *, #102, .F. ) ;
#472 = AXIS2_PLACEMENT_3D ( 'NONE', #89, #55, #170 ) ;
#473 = LINE ( 'NONE', #187, #260 ) ;
#474 = DATE_AND_TIME ( #465, #407 ) ;
#475 = PLANE ( 'NONE',  #216 ) ;
#476 = CALENDAR_DATE ( 2026, 19, 9 ) ;
#477 = ORIENTED_EDGE ( 'NONE', *, *, #384, .F. ) ;
#478 = DIRECTION ( 'NONE',  ( -1.000000000000000000, 0.000000000000000000, 0.000000000000000000 ) ) ;
#479 = EDGE_LOOP ( 'NONE', ( #90, #439, #454, #70 ) ) ;
#480 = PERSON_AND_ORGANIZATION ( #467, #434 ) ;
#481 = VECTOR ( 'NONE', #44, 1000.000000000000114 ) ;
ENDSEC;
END-ISO-10303-21;
