ISO-10303-21;
HEADER;
FILE_DESCRIPTION (( 'STEP AP203' ),
    '1' );
FILE_NAME ('Part 5_Default_sldprt.STEP',
    '2026-09-19T06:38:23',
    ( '' ),
    ( '' ),
    'SwSTEP 2.0',
    'SolidWorks 2021',
    '' );
FILE_SCHEMA (( 'CONFIG_CONTROL_DESIGN' ));
ENDSEC;

DATA;
#1 = ORIENTED_EDGE ( 'NONE', *, *, #209, .T. ) ;
#2 = CARTESIAN_POINT ( 'NONE',  ( -16.50000000000000000, 0.000000000000000000, 34.34285714285714874 ) ) ;
#3 = CARTESIAN_POINT ( 'NONE',  ( 0.000000000000000000, -10.00000000000000178, 0.000000000000000000 ) ) ;
#4 = APPROVAL ( #48, 'UNSPECIFIED' ) ;
#5 = EDGE_LOOP ( 'NONE', ( #112, #28, #96, #17 ) ) ;
#6 =( BOUNDED_CURVE ( )  B_SPLINE_CURVE ( 3, ( #15, #136, #393, #278 ),
 .UNSPECIFIED., .F., .T. ) 
 B_SPLINE_CURVE_WITH_KNOTS ( ( 4, 4 ),
 ( 3.141592653589793116, 6.283185307179586232 ),
 .UNSPECIFIED. ) 
 CURVE ( )  GEOMETRIC_REPRESENTATION_ITEM ( )  RATIONAL_B_SPLINE_CURVE ( ( 1.000000000000000000, 0.3333333333333333703, 0.3333333333333333703, 1.000000000000000000 ) ) 
 REPRESENTATION_ITEM ( '' )  );
#7 = ORIENTED_EDGE ( 'NONE', *, *, #315, .T. ) ;
#8 = EDGE_CURVE ( 'NONE', #432, #282, #411, .T. ) ;
#9 = CARTESIAN_POINT ( 'NONE',  ( 12.50000000000000355, 0.000000000000000000, 35.71428571428571530 ) ) ;
#10 = DATE_AND_TIME ( #319, #303 ) ;
#11 = ORIENTED_EDGE ( 'NONE', *, *, #145, .F. ) ;
#12 = VECTOR ( 'NONE', #37, 1000.000000000000000 ) ;
#13 = DIRECTION ( 'NONE',  ( 0.000000000000000000, 0.000000000000000000, 1.000000000000000000 ) ) ;
#14 = ORIENTED_EDGE ( 'NONE', *, *, #222, .F. ) ;
#15 = CARTESIAN_POINT ( 'NONE',  ( -16.50000000000000000, 0.000000000000000000, 5.657142857142860137 ) ) ;
#16 = ORIENTED_EDGE ( 'NONE', *, *, #222, .T. ) ;
#17 = ORIENTED_EDGE ( 'NONE', *, *, #181, .F. ) ;
#18 = EDGE_CURVE ( 'NONE', #191, #198, #464, .T. ) ;
#19 = VECTOR ( 'NONE', #119, 999.9999999999998863 ) ;
#20 = PERSON ( 'UNSPECIFIED', 'UNSPECIFIED', 'UNSPECIFIED', ('UNSPECIFIED'), ('UNSPECIFIED'), ('UNSPECIFIED') ) ;
#21 = DIRECTION ( 'NONE',  ( -0.2228248015021410955, 0.9748585065718673448, 0.000000000000000000 ) ) ;
#22 = LINE ( 'NONE', #259, #403 ) ;
#23 = FACE_OUTER_BOUND ( 'NONE', #241, .T. ) ;
#24 = FACE_BOUND ( 'NONE', #463, .T. ) ;
#25 = CARTESIAN_POINT ( 'NONE',  ( 16.50000000000000000, 2.449293598294705428E-16, 34.34285714285714874 ) ) ;
#26 = LINE ( 'NONE', #366, #367 ) ;
#27 = DIRECTION ( 'NONE',  ( 0.3243243243243242313, 0.000000000000000000, 0.9459459459459459429 ) ) ;
#28 = ORIENTED_EDGE ( 'NONE', *, *, #57, .T. ) ;
#29 = CARTESIAN_POINT ( 'NONE',  ( 16.50000000000000000, 2.449293598294705428E-16, 5.657142857142860137 ) ) ;
#30 = CARTESIAN_POINT ( 'NONE',  ( 14.50000000000000178, 0.000000000000000000, 40.00000000000000000 ) ) ;
#31 = EDGE_CURVE ( 'NONE', #198, #287, #6, .T. ) ;
#32 = FACE_OUTER_BOUND ( 'NONE', #118, .T. ) ;
#33 = CARTESIAN_POINT ( 'NONE',  ( 0.000000000000000000, -10.00000000000000178, 0.000000000000000000 ) ) ;
#34 = VECTOR ( 'NONE', #154, 999.9999999999998863 ) ;
#35 = EDGE_LOOP ( 'NONE', ( #424, #176 ) ) ;
#36 = FACE_OUTER_BOUND ( 'NONE', #251, .T. ) ;
#37 = DIRECTION ( 'NONE',  ( 0.000000000000000000, 0.000000000000000000, -1.000000000000000000 ) ) ;
#38 = UNCERTAINTY_MEASURE_WITH_UNIT (LENGTH_MEASURE( 1.000000000000000082E-05 ), #190, 'distance_accuracy_value', 'NONE');
#39 = CC_DESIGN_APPROVAL ( #358, ( #388 ) ) ;
#40 = ORIENTED_EDGE ( 'NONE', *, *, #363, .F. ) ;
#41 = DIRECTION ( 'NONE',  ( -1.000000000000000000, 0.000000000000000000, 0.000000000000000000 ) ) ;
#42 = APPLICATION_PROTOCOL_DEFINITION ( 'international standard', 'config_control_design', 1994, #320 ) ;
#43 = PLANE ( 'NONE',  #101 ) ;
#44 = ORIENTED_EDGE ( 'NONE', *, *, #258, .F. ) ;
#45 = APPROVAL_ROLE ( '' ) ;
#46 = EDGE_LOOP ( 'NONE', ( #387, #92, #49, #392 ) ) ;
#47 = LINE ( 'NONE', #177, #279 ) ;
#48 = APPROVAL_STATUS ( 'not_yet_approved' ) ;
#49 = ORIENTED_EDGE ( 'NONE', *, *, #31, .F. ) ;
#50 = CYLINDRICAL_SURFACE ( 'NONE', #185, 1.999999999999998224 ) ;
#51 = PERSON_AND_ORGANIZATION_ROLE ( 'creator' ) ;
#52 = ORIENTED_EDGE ( 'NONE', *, *, #468, .T. ) ;
#53 = AXIS2_PLACEMENT_3D ( 'NONE', #228, #27, #107 ) ;
#54 = CARTESIAN_POINT ( 'NONE',  ( -14.50000000000000178, 0.000000000000000000, 40.00000000000000000 ) ) ;
#55 = ORIENTED_EDGE ( 'NONE', *, *, #471, .F. ) ;
#56 = DIRECTION ( 'NONE',  ( -1.000000000000000000, 0.000000000000000000, 0.000000000000000000 ) ) ;
#57 = EDGE_CURVE ( 'NONE', #94, #108, #47, .T. ) ;
#58 = CARTESIAN_POINT ( 'NONE',  ( 16.50000000000000000, 3.999999999999997335, 34.34285714285714874 ) ) ;
#59 =( BOUNDED_CURVE ( )  B_SPLINE_CURVE ( 3, ( #203, #481, #312, #29 ),
 .UNSPECIFIED., .F., .F. ) 
 B_SPLINE_CURVE_WITH_KNOTS ( ( 4, 4 ),
 ( 0.000000000000000000, 3.141592653589793116 ),
 .UNSPECIFIED. ) 
 CURVE ( )  GEOMETRIC_REPRESENTATION_ITEM ( )  RATIONAL_B_SPLINE_CURVE ( ( 1.000000000000000000, 0.3333333333333333703, 0.3333333333333333703, 1.000000000000000000 ) ) 
 REPRESENTATION_ITEM ( '' )  );
#60 = VECTOR ( 'NONE', #395, 1000.000000000000000 ) ;
#61 = CARTESIAN_POINT ( 'NONE',  ( -16.50000000000000000, 3.999999999999998224, 5.657142857142862802 ) ) ;
#62 = ADVANCED_FACE ( 'NONE', ( #206 ), #50, .F. ) ;
#63 = APPROVAL_PERSON_ORGANIZATION ( #281, #183, #211 ) ;
#64 = DIRECTION ( 'NONE',  ( -0.9245809673079826707, 0.2113327925275388930, -0.3169991887913082840 ) ) ;
#65 = ADVANCED_FACE ( 'NONE', ( #355 ), #252, .F. ) ;
#66 = CC_DESIGN_PERSON_AND_ORGANIZATION_ASSIGNMENT ( #202, #456, ( #283 ) ) ;
#67 = CARTESIAN_POINT ( 'NONE',  ( -12.50000000000000178, 2.449293598294705921E-16, 35.71428571428571530 ) ) ;
#68 = CARTESIAN_POINT ( 'NONE',  ( 12.50000000000000355, 0.000000000000000000, 40.00000000000000000 ) ) ;
#69 = EDGE_CURVE ( 'NONE', #172, #135, #215, .T. ) ;
#70 = CARTESIAN_POINT ( 'NONE',  ( 0.000000000000000000, -10.00000000000000178, 40.00000000000000000 ) ) ;
#71 = CARTESIAN_POINT ( 'NONE',  ( 17.50000000000000000, -10.00000000000000178, 34.00000000000000000 ) ) ;
#72 = EDGE_LOOP ( 'NONE', ( #386, #250, #443, #364 ) ) ;
#73 = PLANE ( 'NONE',  #242 ) ;
#74 = CARTESIAN_POINT ( 'NONE',  ( -17.50000000000000000, -10.00000000000000178, 6.000000000000000000 ) ) ;
#75 = DIRECTION ( 'NONE',  ( -0.000000000000000000, 1.000000000000000000, -0.000000000000000000 ) ) ;
#76 = DESIGN_CONTEXT ( 'detailed design', #320, 'design' ) ;
#77 = FACE_BOUND ( 'NONE', #205, .T. ) ;
#78 = FACE_BOUND ( 'NONE', #35, .T. ) ;
#79 = AXIS2_PLACEMENT_3D ( 'NONE', #30, #114, #477 ) ;
#80 = CARTESIAN_POINT ( 'NONE',  ( -9.453492709939353570E-22, -10.00000000000000178, 0.000000000000000000 ) ) ;
#81 = APPROVAL_STATUS ( 'not_yet_approved' ) ;
#82 = CC_DESIGN_PERSON_AND_ORGANIZATION_ASSIGNMENT ( #461, #316, ( #388 ) ) ;
#83 = PLANE ( 'NONE',  #330 ) ;
#84 = PERSON_AND_ORGANIZATION_ROLE ( 'design_owner' ) ;
#85 = ORIENTED_EDGE ( 'NONE', *, *, #290, .F. ) ;
#86 = VECTOR ( 'NONE', #438, 999.9999999999998863 ) ;
#87 = EDGE_LOOP ( 'NONE', ( #275, #52, #462, #263 ) ) ;
#88 = ADVANCED_FACE ( 'NONE', ( #467 ), #322, .F. ) ;
#89 = PERSON_AND_ORGANIZATION_ROLE ( 'classification_officer' ) ;
#90 = LOCAL_TIME ( 12, 8, 23.00000000000000000, #420 ) ;
#91 = ORIENTED_EDGE ( 'NONE', *, *, #391, .F. ) ;
#92 = ORIENTED_EDGE ( 'NONE', *, *, #453, .T. ) ;
#93 = SECURITY_CLASSIFICATION_LEVEL ( 'unclassified' ) ;
#94 = VERTEX_POINT ( 'NONE', #429 ) ;
#95 = CARTESIAN_POINT ( 'NONE',  ( -17.50000000000000000, 5.999999999999998224, 34.00000000000000000 ) ) ;
#96 = ORIENTED_EDGE ( 'NONE', *, *, #290, .T. ) ;
#97 = DIRECTION ( 'NONE',  ( -1.000000000000000000, 0.000000000000000000, 0.000000000000000000 ) ) ;
#98 =( BOUNDED_CURVE ( )  B_SPLINE_CURVE ( 3, ( #347, #379, #126, #444 ),
 .UNSPECIFIED., .F., .T. ) 
 B_SPLINE_CURVE_WITH_KNOTS ( ( 4, 4 ),
 ( 3.141592653589793116, 6.283185307179586232 ),
 .UNSPECIFIED. ) 
 CURVE ( )  GEOMETRIC_REPRESENTATION_ITEM ( )  RATIONAL_B_SPLINE_CURVE ( ( 1.000000000000000000, 0.3333333333333333703, 0.3333333333333333703, 1.000000000000000000 ) ) 
 REPRESENTATION_ITEM ( '' )  );
#99 = DIRECTION ( 'NONE',  ( -0.000000000000000000, -0.000000000000000000, 1.000000000000000000 ) ) ;
#100 = CARTESIAN_POINT ( 'NONE',  ( -16.50000000000000000, 0.000000000000000000, 5.657142857142860137 ) ) ;
#101 = AXIS2_PLACEMENT_3D ( 'NONE', #376, #41, #455 ) ;
#102 = CARTESIAN_POINT ( 'NONE',  ( 0.000000000000000000, -10.00000000000000178, 0.000000000000000000 ) ) ;
#103 = LOCAL_TIME ( 12, 8, 23.00000000000000000, #133 ) ;
#104 = DIRECTION ( 'NONE',  ( 0.3243243243243242313, 0.000000000000000000, -0.9459459459459459429 ) ) ;
#105 = LINE ( 'NONE', #156, #422 ) ;
#106 = CARTESIAN_POINT ( 'NONE',  ( 2.172226532195499882, -9.503491078355315480, 0.000000000000000000 ) ) ;
#107 = DIRECTION ( 'NONE',  ( 0.9459459459459459429, 0.000000000000000000, -0.3243243243243242313 ) ) ;
#108 = VERTEX_POINT ( 'NONE', #95 ) ;
#109 = EDGE_CURVE ( 'NONE', #287, #198, #337, .T. ) ;
#110 = CARTESIAN_POINT ( 'NONE',  ( -12.50000000000000178, 2.449293598294705921E-16, 4.285714285714288252 ) ) ;
#111 = CLOSED_SHELL ( 'NONE', ( #65, #62, #238, #280, #197, #138, #308, #88, #122, #326, #137, #400, #339, #151 ) ) ;
#112 = ORIENTED_EDGE ( 'NONE', *, *, #179, .F. ) ;
#113 = CARTESIAN_POINT ( 'NONE',  ( 1.953942777390089036, 9.553384508025120070, 0.6699232379623161204 ) ) ;
#114 = DIRECTION ( 'NONE',  ( 0.000000000000000000, 0.000000000000000000, -1.000000000000000000 ) ) ;
#115 = CARTESIAN_POINT ( 'NONE',  ( -12.50000000000000178, 2.449293598294705921E-16, 35.71428571428571530 ) ) ;
#116 = LINE ( 'NONE', #232, #12 ) ;
#117 = EDGE_CURVE ( 'NONE', #328, #172, #223, .T. ) ;
#118 = EDGE_LOOP ( 'NONE', ( #352, #165, #128, #214 ) ) ;
#119 = DIRECTION ( 'NONE',  ( -0.9245809673079826707, 0.2113327925275386987, -0.3169991887913082840 ) ) ;
#120 =( BOUNDED_CURVE ( )  B_SPLINE_CURVE ( 3, ( #25, #188, #226, #302 ),
 .UNSPECIFIED., .F., .T. ) 
 B_SPLINE_CURVE_WITH_KNOTS ( ( 4, 4 ),
 ( 0.000000000000000000, 3.141592653589793116 ),
 .UNSPECIFIED. ) 
 CURVE ( )  GEOMETRIC_REPRESENTATION_ITEM ( )  RATIONAL_B_SPLINE_CURVE ( ( 1.000000000000000000, 0.3333333333333333703, 0.3333333333333333703, 1.000000000000000000 ) ) 
 REPRESENTATION_ITEM ( '' )  );
#121 = COORDINATED_UNIVERSAL_TIME_OFFSET ( 5, 30, .AHEAD. ) ;
#122 = ADVANCED_FACE ( 'NONE', ( #24, #149 ), #217, .F. ) ;
#123 = AXIS2_PLACEMENT_3D ( 'NONE', #348, #406, #230 ) ;
#124 = LINE ( 'NONE', #74, #295 ) ;
#125 = ORIENTED_EDGE ( 'NONE', *, *, #187, .F. ) ;
#126 = CARTESIAN_POINT ( 'NONE',  ( 12.50000000000000533, -3.999999999999997335, 4.285714285714292693 ) ) ;
#127 = CALENDAR_DATE ( 2026, 19, 9 ) ;
#128 = ORIENTED_EDGE ( 'NONE', *, *, #181, .T. ) ;
#129 = COORDINATED_UNIVERSAL_TIME_OFFSET ( 5, 30, .AHEAD. ) ;
#130 = VECTOR ( 'NONE', #224, 1000.000000000000000 ) ;
#131 = ORIENTED_EDGE ( 'NONE', *, *, #69, .T. ) ;
#132 = ORIENTED_EDGE ( 'NONE', *, *, #437, .T. ) ;
#133 = COORDINATED_UNIVERSAL_TIME_OFFSET ( 5, 30, .AHEAD. ) ;
#134 = CC_DESIGN_DATE_AND_TIME_ASSIGNMENT ( #349, #417, ( #235 ) ) ;
#135 = VERTEX_POINT ( 'NONE', #296 ) ;
#136 = CARTESIAN_POINT ( 'NONE',  ( -16.50000000000000000, -3.999999999999998224, 5.657142857142862802 ) ) ;
#137 = ADVANCED_FACE ( 'NONE', ( #371, #23 ), #264, .F. ) ;
#138 = ADVANCED_FACE ( 'NONE', ( #189 ), #469, .F. ) ;
#139 = VERTEX_POINT ( 'NONE', #294 ) ;
#140 = ORIENTED_EDGE ( 'NONE', *, *, #145, .T. ) ;
#141 = EDGE_LOOP ( 'NONE', ( #55, #465, #16, #357 ) ) ;
#142 = AXIS2_PLACEMENT_3D ( 'NONE', #201, #307, #234 ) ;
#143 = CARTESIAN_POINT ( 'NONE',  ( -2.172226532195500770, 9.503491078355315480, 0.000000000000000000 ) ) ;
#144 = DIRECTION ( 'NONE',  ( -0.9459459459459459429, 0.000000000000000000, -0.3243243243243242313 ) ) ;
#145 = EDGE_CURVE ( 'NONE', #439, #324, #22, .T. ) ;
#146 = CARTESIAN_POINT ( 'NONE',  ( -16.50000000000000000, 0.000000000000000000, 34.34285714285714874 ) ) ;
#147 = VECTOR ( 'NONE', #229, 1000.000000000000000 ) ;
#148 = FACE_OUTER_BOUND ( 'NONE', #317, .T. ) ;
#149 = FACE_OUTER_BOUND ( 'NONE', #413, .T. ) ;
#150 = LINE ( 'NONE', #162, #269 ) ;
#151 = ADVANCED_FACE ( 'NONE', ( #148 ), #299, .F. ) ;
#152 = LINE ( 'NONE', #225, #473 ) ;
#153 = LINE ( 'NONE', #402, #435 ) ;
#154 = DIRECTION ( 'NONE',  ( -0.9245809673079826707, 0.2113327925275386987, 0.3169991887913082840 ) ) ;
#155 = VECTOR ( 'NONE', #452, 1000.000000000000000 ) ;
#156 = CARTESIAN_POINT ( 'NONE',  ( 16.50000000000000000, 2.449293598294705428E-16, 40.00000000000000000 ) ) ;
#157 = LINE ( 'NONE', #304, #171 ) ;
#158 = EDGE_CURVE ( 'NONE', #191, #389, #445, .T. ) ;
#159 = APPROVAL_PERSON_ORGANIZATION ( #415, #358, #45 ) ;
#160 = CARTESIAN_POINT ( 'NONE',  ( 17.50000000000000000, -5.999999999999998224, 0.000000000000000000 ) ) ;
#161 = DIRECTION ( 'NONE',  ( -0.000000000000000000, 1.000000000000000000, -0.000000000000000000 ) ) ;
#162 = CARTESIAN_POINT ( 'NONE',  ( 0.000000000000000000, -10.00000000000000178, 0.000000000000000000 ) ) ;
#163 = VERTEX_POINT ( 'NONE', #70 ) ;
#164 = CARTESIAN_POINT ( 'NONE',  ( 16.50000000000000000, 2.449293598294705428E-16, 5.657142857142860137 ) ) ;
#165 = ORIENTED_EDGE ( 'NONE', *, *, #258, .T. ) ;
#166 = CARTESIAN_POINT ( 'NONE',  ( -12.50000000000000178, 2.449293598294705921E-16, 4.285714285714288252 ) ) ;
#167 = VERTEX_POINT ( 'NONE', #398 ) ;
#168 = CARTESIAN_POINT ( 'NONE',  ( 0.000000000000000000, 0.000000000000000000, 0.000000000000000000 ) ) ;
#169 = ORIENTED_EDGE ( 'NONE', *, *, #468, .F. ) ;
#170 = APPLICATION_PROTOCOL_DEFINITION ( 'international standard', 'config_control_design', 1994, #362 ) ;
#171 = VECTOR ( 'NONE', #447, 999.9999999999998863 ) ;
#172 = VERTEX_POINT ( 'NONE', #475 ) ;
#173 = DATE_TIME_ROLE ( 'creation_date' ) ;
#174 = ORIENTED_EDGE ( 'NONE', *, *, #179, .T. ) ;
#175 = EDGE_LOOP ( 'NONE', ( #457, #14 ) ) ;
#176 = ORIENTED_EDGE ( 'NONE', *, *, #471, .T. ) ;
#177 = CARTESIAN_POINT ( 'NONE',  ( -17.50000000000000000, 5.999999999999998224, 0.000000000000000000 ) ) ;
#178 = ORGANIZATION ( 'UNSPECIFIED', 'UNSPECIFIED', '' ) ;
#179 = EDGE_CURVE ( 'NONE', #94, #375, #368, .T. ) ;
#180 = DIRECTION ( 'NONE',  ( 0.9245809673079826707, 0.2113327925275388930, -0.3169991887913082840 ) ) ;
#181 = EDGE_CURVE ( 'NONE', #375, #167, #433, .T. ) ;
#182 = CARTESIAN_POINT ( 'NONE',  ( -17.50000000000000000, -10.00000000000000178, 40.00000000000000000 ) ) ;
#183 = APPROVAL ( #81, 'UNSPECIFIED' ) ;
#184 = CARTESIAN_POINT ( 'NONE',  ( -1.040834085586084257E-14, 9.999999999999998224, 0.000000000000000000 ) ) ;
#185 = AXIS2_PLACEMENT_3D ( 'NONE', #210, #216, #97 ) ;
#186 = FACE_OUTER_BOUND ( 'NONE', #72, .T. ) ;
#187 = EDGE_CURVE ( 'NONE', #163, #314, #152, .T. ) ;
#188 = CARTESIAN_POINT ( 'NONE',  ( 16.50000000000000000, -3.999999999999997335, 34.34285714285714874 ) ) ;
#189 = FACE_OUTER_BOUND ( 'NONE', #87, .T. ) ;
#190 =( LENGTH_UNIT ( ) NAMED_UNIT ( * ) SI_UNIT ( .MILLI., .METRE. ) );
#191 = VERTEX_POINT ( 'NONE', #436 ) ;
#192 = LINE ( 'NONE', #341, #256 ) ;
#193 = DIRECTION ( 'NONE',  ( 0.000000000000000000, 0.000000000000000000, -1.000000000000000000 ) ) ;
#194 = DIRECTION ( 'NONE',  ( 0.9245809673079826707, 0.2113327925275389763, 0.3169991887913082840 ) ) ;
#195 = PRODUCT ( 'Part 5_Default_sldprt', 'Part 5_Default_sldprt', '', ( #450 ) ) ;
#196 = DIRECTION ( 'NONE',  ( 0.000000000000000000, 0.000000000000000000, -1.000000000000000000 ) ) ;
#197 = ADVANCED_FACE ( 'NONE', ( #186 ), #73, .F. ) ;
#198 = VERTEX_POINT ( 'NONE', #100 ) ;
#199 = LINE ( 'NONE', #414, #34 ) ;
#200 = CARTESIAN_POINT ( 'NONE',  ( -17.50000000000000000, -5.999999999999998224, 0.000000000000000000 ) ) ;
#201 = CARTESIAN_POINT ( 'NONE',  ( 2.172226532195498550, 9.503491078355313704, 0.000000000000000000 ) ) ;
#202 = PERSON_AND_ORGANIZATION ( #20, #178 ) ;
#203 = CARTESIAN_POINT ( 'NONE',  ( 12.50000000000000355, 0.000000000000000000, 4.285714285714288252 ) ) ;
#204 = ORIENTED_EDGE ( 'NONE', *, *, #8, .F. ) ;
#205 = EDGE_LOOP ( 'NONE', ( #340, #428 ) ) ;
#206 = FACE_OUTER_BOUND ( 'NONE', #141, .T. ) ;
#207 = DIRECTION ( 'NONE',  ( 1.000000000000000000, 0.000000000000000000, 0.000000000000000000 ) ) ;
#208 = ORIENTED_EDGE ( 'NONE', *, *, #221, .T. ) ;
#209 = EDGE_CURVE ( 'NONE', #163, #139, #26, .T. ) ;
#210 = CARTESIAN_POINT ( 'NONE',  ( 14.50000000000000178, 0.000000000000000000, 40.00000000000000000 ) ) ;
#211 = APPROVAL_ROLE ( '' ) ;
#212 = EDGE_LOOP ( 'NONE', ( #11, #430, #354, #169 ) ) ;
#213 = EDGE_CURVE ( 'NONE', #163, #167, #331, .T. ) ;
#214 = ORIENTED_EDGE ( 'NONE', *, *, #221, .F. ) ;
#215 = LINE ( 'NONE', #359, #318 ) ;
#216 = DIRECTION ( 'NONE',  ( 0.000000000000000000, 0.000000000000000000, -1.000000000000000000 ) ) ;
#217 = PLANE ( 'NONE',  #442 ) ;
#218 = LOCAL_TIME ( 12, 8, 23.00000000000000000, #423 ) ;
#219 = CC_DESIGN_PERSON_AND_ORGANIZATION_ASSIGNMENT ( #270, #51, ( #283 ) ) ;
#220 = CARTESIAN_POINT ( 'NONE',  ( -12.50000000000000533, 3.999999999999998224, 4.285714285714292693 ) ) ;
#221 = EDGE_CURVE ( 'NONE', #135, #167, #199, .T. ) ;
#222 = EDGE_CURVE ( 'NONE', #311, #244, #98, .T. ) ;
#223 = LINE ( 'NONE', #370, #344 ) ;
#224 = DIRECTION ( 'NONE',  ( -0.000000000000000000, -0.000000000000000000, 1.000000000000000000 ) ) ;
#225 = CARTESIAN_POINT ( 'NONE',  ( -13.67759944173063325, -6.873691556175855588, 35.31053733426378471 ) ) ;
#226 = CARTESIAN_POINT ( 'NONE',  ( 12.50000000000000533, -3.999999999999997335, 35.71428571428571530 ) ) ;
#227 = LINE ( 'NONE', #80, #155 ) ;
#228 = CARTESIAN_POINT ( 'NONE',  ( 12.27173119065010631, -10.00000000000000178, 35.79254930606282414 ) ) ;
#229 = DIRECTION ( 'NONE',  ( -0.000000000000000000, -0.000000000000000000, 1.000000000000000000 ) ) ;
#230 = DIRECTION ( 'NONE',  ( -0.9748585065718672338, 0.2228248015021410677, 0.000000000000000000 ) ) ;
#231 = VECTOR ( 'NONE', #161, 1000.000000000000000 ) ;
#232 = CARTESIAN_POINT ( 'NONE',  ( -12.50000000000000178, 2.449293598294705921E-16, 40.00000000000000000 ) ) ;
#233 = ORIENTED_EDGE ( 'NONE', *, *, #254, .T. ) ;
#234 = DIRECTION ( 'NONE',  ( 0.9748585065718673448, -0.2228248015021409012, 0.000000000000000000 ) ) ;
#235 = SECURITY_CLASSIFICATION ( '', '', #93 ) ;
#236 = APPROVAL_ROLE ( '' ) ;
#237 = PRODUCT_DEFINITION_SHAPE ( 'NONE', 'NONE',  #388 ) ;
#238 = ADVANCED_FACE ( 'NONE', ( #276 ), #43, .F. ) ;
#239 = DIRECTION ( 'NONE',  ( -0.3243243243243242313, 0.000000000000000000, -0.9459459459459459429 ) ) ;
#240 = APPROVAL_DATE_TIME ( #10, #358 ) ;
#241 = EDGE_LOOP ( 'NONE', ( #378, #277, #418, #44 ) ) ;
#242 = AXIS2_PLACEMENT_3D ( 'NONE', #106, #21, #401 ) ;
#243 = DATE_AND_TIME ( #127, #90 ) ;
#244 = VERTEX_POINT ( 'NONE', #419 ) ;
#245 = ORIENTED_EDGE ( 'NONE', *, *, #117, .T. ) ;
#246 = SHAPE_DEFINITION_REPRESENTATION ( #237, #338 ) ;
#247 = EDGE_LOOP ( 'NONE', ( #140, #7, #174, #40 ) ) ;
#248 = CARTESIAN_POINT ( 'NONE',  ( -16.50000000000000000, 0.000000000000000000, 40.00000000000000000 ) ) ;
#249 = PERSON_AND_ORGANIZATION ( #20, #178 ) ;
#250 = ORIENTED_EDGE ( 'NONE', *, *, #327, .T. ) ;
#251 = EDGE_LOOP ( 'NONE', ( #268, #204, #132, #361 ) ) ;
#252 = CYLINDRICAL_SURFACE ( 'NONE', #478, 1.999999999999998224 ) ;
#253 = DIRECTION ( 'NONE',  ( 0.2228248015021411788, -0.9748585065718673448, 0.000000000000000000 ) ) ;
#254 = EDGE_CURVE ( 'NONE', #389, #191, #267, .T. ) ;
#255 = CARTESIAN_POINT ( 'NONE',  ( 0.000000000000000000, -10.00000000000000178, 40.00000000000000000 ) ) ;
#256 = VECTOR ( 'NONE', #194, 999.9999999999998863 ) ;
#257 = DIRECTION ( 'NONE',  ( 0.000000000000000000, 0.000000000000000000, -1.000000000000000000 ) ) ;
#258 = EDGE_CURVE ( 'NONE', #172, #375, #449, .T. ) ;
#259 = CARTESIAN_POINT ( 'NONE',  ( -1.953942777390090368, -9.553384508025121846, 0.6699232379623166755 ) ) ;
#260 = DIRECTION ( 'NONE',  ( -0.000000000000000000, 1.000000000000000000, -0.000000000000000000 ) ) ;
#261 = DIRECTION ( 'NONE',  ( 0.000000000000000000, 0.000000000000000000, -1.000000000000000000 ) ) ;
#262 =( GEOMETRIC_REPRESENTATION_CONTEXT ( 3 ) GLOBAL_UNCERTAINTY_ASSIGNED_CONTEXT ( ( #38 ) ) GLOBAL_UNIT_ASSIGNED_CONTEXT ( ( #190, #441, #405 ) ) REPRESENTATION_CONTEXT ( 'NONE', 'WORKASPACE' ) );
#263 = ORIENTED_EDGE ( 'NONE', *, *, #57, .F. ) ;
#264 = PLANE ( 'NONE',  #377 ) ;
#265 = PLANE ( 'NONE',  #123 ) ;
#266 = CARTESIAN_POINT ( 'NONE',  ( -17.50000000000000000, -6.000000000000000000, 6.000000000000000000 ) ) ;
#267 =( BOUNDED_CURVE ( )  B_SPLINE_CURVE ( 3, ( #115, #301, #309, #2 ),
 .UNSPECIFIED., .F., .T. ) 
 B_SPLINE_CURVE_WITH_KNOTS ( ( 4, 4 ),
 ( 3.141592653589793116, 6.283185307179586232 ),
 .UNSPECIFIED. ) 
 CURVE ( )  GEOMETRIC_REPRESENTATION_ITEM ( )  RATIONAL_B_SPLINE_CURVE ( ( 1.000000000000000000, 0.3333333333333333703, 0.3333333333333333703, 1.000000000000000000 ) ) 
 REPRESENTATION_ITEM ( '' )  );
#268 = ORIENTED_EDGE ( 'NONE', *, *, #351, .F. ) ;
#269 = VECTOR ( 'NONE', #374, 1000.000000000000000 ) ;
#270 = PERSON_AND_ORGANIZATION ( #20, #178 ) ;
#271 = EDGE_CURVE ( 'NONE', #244, #311, #59, .T. ) ;
#272 = EDGE_CURVE ( 'NONE', #439, #163, #227, .T. ) ;
#273 = DIRECTION ( 'NONE',  ( -0.000000000000000000, 1.000000000000000000, -0.000000000000000000 ) ) ;
#274 = CALENDAR_DATE ( 2026, 19, 9 ) ;
#275 = ORIENTED_EDGE ( 'NONE', *, *, #315, .F. ) ;
#276 = FACE_OUTER_BOUND ( 'NONE', #421, .T. ) ;
#277 = ORIENTED_EDGE ( 'NONE', *, *, #327, .F. ) ;
#278 = CARTESIAN_POINT ( 'NONE',  ( -12.50000000000000178, 2.449293598294705921E-16, 4.285714285714288252 ) ) ;
#279 = VECTOR ( 'NONE', #288, 1000.000000000000000 ) ;
#280 = ADVANCED_FACE ( 'NONE', ( #32 ), #416, .F. ) ;
#281 = PERSON_AND_ORGANIZATION ( #20, #178 ) ;
#282 = VERTEX_POINT ( 'NONE', #381 ) ;
#283 = PRODUCT_DEFINITION_FORMATION_WITH_SPECIFIED_SOURCE ( 'ANY', '', #195, .NOT_KNOWN. ) ;
#284 = APPROVAL_DATE_TIME ( #458, #4 ) ;
#285 = ORIENTED_EDGE ( 'NONE', *, *, #18, .T. ) ;
#286 = DIRECTION ( 'NONE',  ( 0.000000000000000000, 0.000000000000000000, -1.000000000000000000 ) ) ;
#287 = VERTEX_POINT ( 'NONE', #166 ) ;
#288 = DIRECTION ( 'NONE',  ( -0.000000000000000000, -0.000000000000000000, 1.000000000000000000 ) ) ;
#289 = EDGE_LOOP ( 'NONE', ( #208, #384, #1, #454 ) ) ;
#290 = EDGE_CURVE ( 'NONE', #108, #167, #192, .T. ) ;
#291 = ORIENTED_EDGE ( 'NONE', *, *, #410, .F. ) ;
#292 = CC_DESIGN_PERSON_AND_ORGANIZATION_ASSIGNMENT ( #390, #84, ( #195 ) ) ;
#293 = CARTESIAN_POINT ( 'NONE',  ( -14.50000000000000178, 0.000000000000000000, 40.00000000000000000 ) ) ;
#294 = CARTESIAN_POINT ( 'NONE',  ( 17.50000000000000000, -6.000000000000000000, 34.00000000000000000 ) ) ;
#295 = VECTOR ( 'NONE', #273, 1000.000000000000000 ) ;
#296 = CARTESIAN_POINT ( 'NONE',  ( 17.50000000000000000, 6.000000000000001776, 34.00000000000000000 ) ) ;
#297 = DIRECTION ( 'NONE',  ( -0.3243243243243242313, 0.000000000000000000, 0.9459459459459459429 ) ) ;
#298 = LINE ( 'NONE', #160, #147 ) ;
#299 = CYLINDRICAL_SURFACE ( 'NONE', #412, 1.999999999999998224 ) ;
#300 = AXIS2_PLACEMENT_3D ( 'NONE', #143, #253, #396 ) ;
#301 = CARTESIAN_POINT ( 'NONE',  ( -12.50000000000000533, 3.999999999999998224, 35.71428571428571530 ) ) ;
#302 = CARTESIAN_POINT ( 'NONE',  ( 12.50000000000000355, 0.000000000000000000, 35.71428571428571530 ) ) ;
#303 = LOCAL_TIME ( 12, 8, 23.00000000000000000, #121 ) ;
#304 = CARTESIAN_POINT ( 'NONE',  ( 1.953942777390090368, -9.553384508025121846, 0.6699232379623166755 ) ) ;
#305 = CC_DESIGN_PERSON_AND_ORGANIZATION_ASSIGNMENT ( #249, #89, ( #235 ) ) ;
#306 = CARTESIAN_POINT ( 'NONE',  ( 0.000000000000000000, 9.999999999999998224, 0.000000000000000000 ) ) ;
#307 = DIRECTION ( 'NONE',  ( -0.2228248015021409012, -0.9748585065718673448, 0.000000000000000000 ) ) ;
#308 = ADVANCED_FACE ( 'NONE', ( #476 ), #265, .F. ) ;
#309 = CARTESIAN_POINT ( 'NONE',  ( -16.50000000000000000, 3.999999999999998224, 34.34285714285714874 ) ) ;
#310 = CC_DESIGN_DATE_AND_TIME_ASSIGNMENT ( #243, #173, ( #388 ) ) ;
#311 = VERTEX_POINT ( 'NONE', #164 ) ;
#312 = CARTESIAN_POINT ( 'NONE',  ( 16.50000000000000000, 3.999999999999997335, 5.657142857142862802 ) ) ;
#313 = CALENDAR_DATE ( 2026, 19, 9 ) ;
#314 = VERTEX_POINT ( 'NONE', #350 ) ;
#315 = EDGE_CURVE ( 'NONE', #324, #94, #124, .T. ) ;
#316 = PERSON_AND_ORGANIZATION_ROLE ( 'creator' ) ;
#317 = EDGE_LOOP ( 'NONE', ( #431, #233, #285, #321 ) ) ;
#318 = VECTOR ( 'NONE', #99, 1000.000000000000000 ) ;
#319 = CALENDAR_DATE ( 2026, 19, 9 ) ;
#320 = APPLICATION_CONTEXT ( 'configuration controlled 3d designs of mechanical parts and assemblies' ) ;
#321 = ORIENTED_EDGE ( 'NONE', *, *, #109, .F. ) ;
#322 = PLANE ( 'NONE',  #300 ) ;
#323 = LOCAL_TIME ( 12, 8, 23.00000000000000000, #129 ) ;
#324 = VERTEX_POINT ( 'NONE', #266 ) ;
#325 = CARTESIAN_POINT ( 'NONE',  ( 16.50000000000000000, 2.449293598294705428E-16, 34.34285714285714874 ) ) ;
#326 = ADVANCED_FACE ( 'NONE', ( #77, #345 ), #83, .T. ) ;
#327 = EDGE_CURVE ( 'NONE', #439, #328, #157, .T. ) ;
#328 = VERTEX_POINT ( 'NONE', #408 ) ;
#329 = CARTESIAN_POINT ( 'NONE',  ( 12.50000000000000533, 3.999999999999997335, 35.71428571428571530 ) ) ;
#330 = AXIS2_PLACEMENT_3D ( 'NONE', #3, #239, #479 ) ;
#331 = LINE ( 'NONE', #255, #231 ) ;
#332 = DIRECTION ( 'NONE',  ( 0.9459459459459459429, 0.000000000000000000, 0.3243243243243242313 ) ) ;
#333 = DIRECTION ( 'NONE',  ( -0.000000000000000000, 1.000000000000000000, -0.000000000000000000 ) ) ;
#334 = VECTOR ( 'NONE', #75, 1000.000000000000000 ) ;
#335 = DIRECTION ( 'NONE',  ( 1.000000000000000000, 0.000000000000000000, 0.000000000000000000 ) ) ;
#336 = DIRECTION ( 'NONE',  ( -1.000000000000000000, 0.000000000000000000, 0.000000000000000000 ) ) ;
#337 =( BOUNDED_CURVE ( )  B_SPLINE_CURVE ( 3, ( #110, #220, #61, #397 ),
 .UNSPECIFIED., .F., .T. ) 
 B_SPLINE_CURVE_WITH_KNOTS ( ( 4, 4 ),
 ( 0.000000000000000000, 3.141592653589793116 ),
 .UNSPECIFIED. ) 
 CURVE ( )  GEOMETRIC_REPRESENTATION_ITEM ( )  RATIONAL_B_SPLINE_CURVE ( ( 1.000000000000000000, 0.3333333333333333703, 0.3333333333333333703, 1.000000000000000000 ) ) 
 REPRESENTATION_ITEM ( '' )  );
#338 = ADVANCED_BREP_SHAPE_REPRESENTATION ( 'Part 5_Default_sldprt', ( #343, #460 ), #262 ) ;
#339 = ADVANCED_FACE ( 'NONE', ( #36 ), #382, .F. ) ;
#340 = ORIENTED_EDGE ( 'NONE', *, *, #31, .T. ) ;
#341 = CARTESIAN_POINT ( 'NONE',  ( -13.67759944173063325, 6.873691556175854700, 35.31053733426378471 ) ) ;
#342 = LINE ( 'NONE', #71, #334 ) ;
#343 = MANIFOLD_SOLID_BREP ( 'Cut-Extrude3', #111 ) ;
#344 = VECTOR ( 'NONE', #333, 1000.000000000000000 ) ;
#345 = FACE_OUTER_BOUND ( 'NONE', #247, .T. ) ;
#346 = CC_DESIGN_SECURITY_CLASSIFICATION ( #235, ( #283 ) ) ;
#347 = CARTESIAN_POINT ( 'NONE',  ( 16.50000000000000000, 2.449293598294705428E-16, 5.657142857142860137 ) ) ;
#348 = CARTESIAN_POINT ( 'NONE',  ( -2.172226532195499882, -9.503491078355315480, 0.000000000000000000 ) ) ;
#349 = DATE_AND_TIME ( #274, #323 ) ;
#350 = CARTESIAN_POINT ( 'NONE',  ( -17.50000000000000000, -6.000000000000000000, 34.00000000000000000 ) ) ;
#351 = EDGE_CURVE ( 'NONE', #282, #311, #105, .T. ) ;
#352 = ORIENTED_EDGE ( 'NONE', *, *, #69, .F. ) ;
#353 = CALENDAR_DATE ( 2026, 19, 9 ) ;
#354 = ORIENTED_EDGE ( 'NONE', *, *, #187, .T. ) ;
#355 = FACE_OUTER_BOUND ( 'NONE', #46, .T. ) ;
#356 = APPROVAL_DATE_TIME ( #383, #183 ) ;
#357 = ORIENTED_EDGE ( 'NONE', *, *, #437, .F. ) ;
#358 = APPROVAL ( #360, 'UNSPECIFIED' ) ;
#359 = CARTESIAN_POINT ( 'NONE',  ( 17.50000000000000000, 5.999999999999998224, 0.000000000000000000 ) ) ;
#360 = APPROVAL_STATUS ( 'not_yet_approved' ) ;
#361 = ORIENTED_EDGE ( 'NONE', *, *, #271, .T. ) ;
#362 = APPLICATION_CONTEXT ( 'configuration controlled 3d designs of mechanical parts and assemblies' ) ;
#363 = EDGE_CURVE ( 'NONE', #439, #375, #150, .T. ) ;
#364 = ORIENTED_EDGE ( 'NONE', *, *, #209, .F. ) ;
#365 = ORIENTED_EDGE ( 'NONE', *, *, #213, .T. ) ;
#366 = CARTESIAN_POINT ( 'NONE',  ( 13.67759944173063325, -6.873691556175855588, 35.31053733426378471 ) ) ;
#367 = VECTOR ( 'NONE', #180, 999.9999999999998863 ) ;
#368 = LINE ( 'NONE', #474, #86 ) ;
#369 = APPROVAL_PERSON_ORGANIZATION ( #427, #4, #236 ) ;
#370 = CARTESIAN_POINT ( 'NONE',  ( 17.50000000000000000, -10.00000000000000178, 6.000000000000000000 ) ) ;
#371 = FACE_BOUND ( 'NONE', #175, .T. ) ;
#372 = CARTESIAN_POINT ( 'NONE',  ( -12.27173119065010631, -10.00000000000000178, 35.79254930606282414 ) ) ;
#373 = FACE_OUTER_BOUND ( 'NONE', #289, .T. ) ;
#374 = DIRECTION ( 'NONE',  ( -0.000000000000000000, 1.000000000000000000, -0.000000000000000000 ) ) ;
#375 = VERTEX_POINT ( 'NONE', #306 ) ;
#376 = CARTESIAN_POINT ( 'NONE',  ( 17.50000000000000000, -10.00000000000000178, 40.00000000000000000 ) ) ;
#377 = AXIS2_PLACEMENT_3D ( 'NONE', #102, #297, #332 ) ;
#378 = ORIENTED_EDGE ( 'NONE', *, *, #117, .F. ) ;
#379 = CARTESIAN_POINT ( 'NONE',  ( 16.50000000000000000, -3.999999999999997335, 5.657142857142862802 ) ) ;
#380 = PLANE ( 'NONE',  #53 ) ;
#381 = CARTESIAN_POINT ( 'NONE',  ( 16.50000000000000000, 2.449293598294705428E-16, 34.34285714285714874 ) ) ;
#382 = CYLINDRICAL_SURFACE ( 'NONE', #79, 1.999999999999998224 ) ;
#383 = DATE_AND_TIME ( #353, #218 ) ;
#384 = ORIENTED_EDGE ( 'NONE', *, *, #213, .F. ) ;
#385 = AXIS2_PLACEMENT_3D ( 'NONE', #182, #335, #261 ) ;
#386 = ORIENTED_EDGE ( 'NONE', *, *, #272, .F. ) ;
#387 = ORIENTED_EDGE ( 'NONE', *, *, #158, .T. ) ;
#388 = PRODUCT_DEFINITION ( 'UNKNOWN', '', #283, #76 ) ;
#389 = VERTEX_POINT ( 'NONE', #409 ) ;
#390 = PERSON_AND_ORGANIZATION ( #20, #178 ) ;
#391 = EDGE_CURVE ( 'NONE', #328, #139, #298, .T. ) ;
#392 = ORIENTED_EDGE ( 'NONE', *, *, #18, .F. ) ;
#393 = CARTESIAN_POINT ( 'NONE',  ( -12.50000000000000533, -3.999999999999998224, 4.285714285714292693 ) ) ;
#394 = ORIENTED_EDGE ( 'NONE', *, *, #254, .F. ) ;
#395 = DIRECTION ( 'NONE',  ( 0.000000000000000000, 0.000000000000000000, -1.000000000000000000 ) ) ;
#396 = DIRECTION ( 'NONE',  ( 0.9748585065718673448, 0.2228248015021411788, 0.000000000000000000 ) ) ;
#397 = CARTESIAN_POINT ( 'NONE',  ( -16.50000000000000000, 0.000000000000000000, 5.657142857142860137 ) ) ;
#398 = CARTESIAN_POINT ( 'NONE',  ( -1.040834085586084257E-14, 9.999999999999998224, 40.00000000000000000 ) ) ;
#399 = CARTESIAN_POINT ( 'NONE',  ( 12.50000000000000355, 0.000000000000000000, 35.71428571428571530 ) ) ;
#400 = ADVANCED_FACE ( 'NONE', ( #78, #373 ), #380, .T. ) ;
#401 = DIRECTION ( 'NONE',  ( -0.9748585065718672338, -0.2228248015021410677, 0.000000000000000000 ) ) ;
#402 = CARTESIAN_POINT ( 'NONE',  ( -17.50000000000000000, -10.00000000000000178, 34.00000000000000000 ) ) ;
#403 = VECTOR ( 'NONE', #470, 999.9999999999998863 ) ;
#404 = PRODUCT_RELATED_PRODUCT_CATEGORY ( 'detail', '', ( #195 ) ) ;
#405 =( NAMED_UNIT ( * ) SI_UNIT ( $, .STERADIAN. ) SOLID_ANGLE_UNIT ( ) );
#406 = DIRECTION ( 'NONE',  ( 0.2228248015021410955, 0.9748585065718673448, 0.000000000000000000 ) ) ;
#407 = LINE ( 'NONE', #200, #130 ) ;
#408 = CARTESIAN_POINT ( 'NONE',  ( 17.50000000000000000, -5.999999999999999112, 6.000000000000000000 ) ) ;
#409 = CARTESIAN_POINT ( 'NONE',  ( -12.50000000000000178, 2.449293598294705921E-16, 35.71428571428571530 ) ) ;
#410 = EDGE_CURVE ( 'NONE', #314, #108, #153, .T. ) ;
#411 =( BOUNDED_CURVE ( )  B_SPLINE_CURVE ( 3, ( #9, #329, #58, #325 ),
 .UNSPECIFIED., .F., .F. ) 
 B_SPLINE_CURVE_WITH_KNOTS ( ( 4, 4 ),
 ( 3.141592653589793116, 6.283185307179586232 ),
 .UNSPECIFIED. ) 
 CURVE ( )  GEOMETRIC_REPRESENTATION_ITEM ( )  RATIONAL_B_SPLINE_CURVE ( ( 1.000000000000000000, 0.3333333333333333703, 0.3333333333333333703, 1.000000000000000000 ) ) 
 REPRESENTATION_ITEM ( '' )  );
#412 = AXIS2_PLACEMENT_3D ( 'NONE', #293, #257, #336 ) ;
#413 = EDGE_LOOP ( 'NONE', ( #365, #85, #291, #125 ) ) ;
#414 = CARTESIAN_POINT ( 'NONE',  ( 13.67759944173063325, 6.873691556175855588, 35.31053733426378471 ) ) ;
#415 = PERSON_AND_ORGANIZATION ( #20, #178 ) ;
#416 = PLANE ( 'NONE',  #142 ) ;
#417 = DATE_TIME_ROLE ( 'classification_date' ) ;
#418 = ORIENTED_EDGE ( 'NONE', *, *, #363, .T. ) ;
#419 = CARTESIAN_POINT ( 'NONE',  ( 12.50000000000000355, 0.000000000000000000, 4.285714285714288252 ) ) ;
#420 = COORDINATED_UNIVERSAL_TIME_OFFSET ( 5, 30, .AHEAD. ) ;
#421 = EDGE_LOOP ( 'NONE', ( #91, #245, #131, #426 ) ) ;
#422 = VECTOR ( 'NONE', #196, 1000.000000000000000 ) ;
#423 = COORDINATED_UNIVERSAL_TIME_OFFSET ( 5, 30, .AHEAD. ) ;
#424 = ORIENTED_EDGE ( 'NONE', *, *, #8, .T. ) ;
#425 = CC_DESIGN_APPROVAL ( #4, ( #283 ) ) ;
#426 = ORIENTED_EDGE ( 'NONE', *, *, #446, .F. ) ;
#427 = PERSON_AND_ORGANIZATION ( #20, #178 ) ;
#428 = ORIENTED_EDGE ( 'NONE', *, *, #109, .T. ) ;
#429 = CARTESIAN_POINT ( 'NONE',  ( -17.50000000000000000, 5.999999999999998224, 6.000000000000000000 ) ) ;
#430 = ORIENTED_EDGE ( 'NONE', *, *, #272, .T. ) ;
#431 = ORIENTED_EDGE ( 'NONE', *, *, #453, .F. ) ;
#432 = VERTEX_POINT ( 'NONE', #399 ) ;
#433 = LINE ( 'NONE', #184, #451 ) ;
#434 = CARTESIAN_POINT ( 'NONE',  ( -12.50000000000000533, -3.999999999999998224, 35.71428571428571530 ) ) ;
#435 = VECTOR ( 'NONE', #260, 1000.000000000000000 ) ;
#436 = CARTESIAN_POINT ( 'NONE',  ( -16.50000000000000000, 0.000000000000000000, 34.34285714285714874 ) ) ;
#437 = EDGE_CURVE ( 'NONE', #432, #244, #448, .T. ) ;
#438 = DIRECTION ( 'NONE',  ( 0.9245809673079826707, 0.2113327925275389763, -0.3169991887913082840 ) ) ;
#439 = VERTEX_POINT ( 'NONE', #33 ) ;
#440 = CARTESIAN_POINT ( 'NONE',  ( -16.50000000000000000, -3.999999999999998224, 34.34285714285714874 ) ) ;
#441 =( NAMED_UNIT ( * ) PLANE_ANGLE_UNIT ( ) SI_UNIT ( $, .RADIAN. ) );
#442 = AXIS2_PLACEMENT_3D ( 'NONE', #372, #104, #144 ) ;
#443 = ORIENTED_EDGE ( 'NONE', *, *, #391, .T. ) ;
#444 = CARTESIAN_POINT ( 'NONE',  ( 12.50000000000000355, 0.000000000000000000, 4.285714285714288252 ) ) ;
#445 =( BOUNDED_CURVE ( )  B_SPLINE_CURVE ( 3, ( #146, #440, #434, #67 ),
 .UNSPECIFIED., .F., .F. ) 
 B_SPLINE_CURVE_WITH_KNOTS ( ( 4, 4 ),
 ( 0.000000000000000000, 3.141592653589793116 ),
 .UNSPECIFIED. ) 
 CURVE ( )  GEOMETRIC_REPRESENTATION_ITEM ( )  RATIONAL_B_SPLINE_CURVE ( ( 1.000000000000000000, 0.3333333333333333703, 0.3333333333333333703, 1.000000000000000000 ) ) 
 REPRESENTATION_ITEM ( '' )  );
#446 = EDGE_CURVE ( 'NONE', #139, #135, #342, .T. ) ;
#447 = DIRECTION ( 'NONE',  ( 0.9245809673079826707, 0.2113327925275388930, 0.3169991887913082840 ) ) ;
#448 = LINE ( 'NONE', #68, #466 ) ;
#449 = LINE ( 'NONE', #113, #19 ) ;
#450 = MECHANICAL_CONTEXT ( 'NONE', #362, 'mechanical' ) ;
#451 = VECTOR ( 'NONE', #472, 1000.000000000000000 ) ;
#452 = DIRECTION ( 'NONE',  ( -0.000000000000000000, -0.000000000000000000, 1.000000000000000000 ) ) ;
#453 = EDGE_CURVE ( 'NONE', #389, #287, #116, .T. ) ;
#454 = ORIENTED_EDGE ( 'NONE', *, *, #446, .T. ) ;
#455 = DIRECTION ( 'NONE',  ( 0.000000000000000000, 0.000000000000000000, 1.000000000000000000 ) ) ;
#456 = PERSON_AND_ORGANIZATION_ROLE ( 'design_supplier' ) ;
#457 = ORIENTED_EDGE ( 'NONE', *, *, #271, .F. ) ;
#458 = DATE_AND_TIME ( #313, #103 ) ;
#459 = ORIENTED_EDGE ( 'NONE', *, *, #158, .F. ) ;
#460 = AXIS2_PLACEMENT_3D ( 'NONE', #168, #13, #207 ) ;
#461 = PERSON_AND_ORGANIZATION ( #20, #178 ) ;
#462 = ORIENTED_EDGE ( 'NONE', *, *, #410, .T. ) ;
#463 = EDGE_LOOP ( 'NONE', ( #459, #394 ) ) ;
#464 = LINE ( 'NONE', #248, #60 ) ;
#465 = ORIENTED_EDGE ( 'NONE', *, *, #351, .T. ) ;
#466 = VECTOR ( 'NONE', #193, 1000.000000000000000 ) ;
#467 = FACE_OUTER_BOUND ( 'NONE', #5, .T. ) ;
#468 = EDGE_CURVE ( 'NONE', #324, #314, #407, .T. ) ;
#469 = PLANE ( 'NONE',  #385 ) ;
#470 = DIRECTION ( 'NONE',  ( -0.9245809673079826707, 0.2113327925275388930, 0.3169991887913082840 ) ) ;
#471 = EDGE_CURVE ( 'NONE', #282, #432, #120, .T. ) ;
#472 = DIRECTION ( 'NONE',  ( -0.000000000000000000, -0.000000000000000000, 1.000000000000000000 ) ) ;
#473 = VECTOR ( 'NONE', #64, 999.9999999999998863 ) ;
#474 = CARTESIAN_POINT ( 'NONE',  ( -1.953942777390091257, 9.553384508025121846, 0.6699232379623168976 ) ) ;
#475 = CARTESIAN_POINT ( 'NONE',  ( 17.50000000000000000, 6.000000000000000888, 6.000000000000000000 ) ) ;
#476 = FACE_OUTER_BOUND ( 'NONE', #212, .T. ) ;
#477 = DIRECTION ( 'NONE',  ( -1.000000000000000000, 0.000000000000000000, 0.000000000000000000 ) ) ;
#478 = AXIS2_PLACEMENT_3D ( 'NONE', #54, #286, #56 ) ;
#479 = DIRECTION ( 'NONE',  ( -0.9459459459459459429, 0.000000000000000000, 0.3243243243243242313 ) ) ;
#480 = CC_DESIGN_APPROVAL ( #183, ( #235 ) ) ;
#481 = CARTESIAN_POINT ( 'NONE',  ( 12.50000000000000533, 3.999999999999997335, 4.285714285714292693 ) ) ;
ENDSEC;
END-ISO-10303-21;
