ISO-10303-21;
HEADER;
FILE_DESCRIPTION (( 'STEP AP203' ),
    '1' );
FILE_NAME ('Part3_Default_sldprt.STEP',
    '2026-09-19T06:38:30',
    ( '' ),
    ( '' ),
    'SwSTEP 2.0',
    'SolidWorks 2021',
    '' );
FILE_SCHEMA (( 'CONFIG_CONTROL_DESIGN' ));
ENDSEC;

DATA;
#1 = SHAPE_DEFINITION_REPRESENTATION ( #386, #36 ) ;
#2 = ORIENTED_EDGE ( 'NONE', *, *, #449, .F. ) ;
#3 = CARTESIAN_POINT ( 'NONE',  ( 27.00000000000004974, 6.000000000000000888, 42.79999999999996874 ) ) ;
#4 = EDGE_CURVE ( 'NONE', #373, #105, #227, .T. ) ;
#5 = ORIENTED_EDGE ( 'NONE', *, *, #207, .F. ) ;
#6 = APPROVAL_DATE_TIME ( #85, #159 ) ;
#7 = CARTESIAN_POINT ( 'NONE',  ( -2.699999999999999289, 14.45999999999999552, 0.7199999999999995293 ) ) ;
#8 = PERSON_AND_ORGANIZATION ( #374, #278 ) ;
#9 = DIRECTION ( 'NONE',  ( -0.9486832980505138790, -0.1897366596101028036, 0.2529822128134703307 ) ) ;
#10 = CLOSED_SHELL ( 'NONE', ( #109, #181, #286, #363, #34, #137, #18, #447, #358, #354, #93, #38, #160, #119 ) ) ;
#11 = CYLINDRICAL_SURFACE ( 'NONE', #98, 3.000000000000002665 ) ;
#12 = FACE_OUTER_BOUND ( 'NONE', #151, .T. ) ;
#13 = CARTESIAN_POINT ( 'NONE',  ( 2.255140518769849223E-14, -15.00000000000000178, 49.99999999999999289 ) ) ;
#14 = CARTESIAN_POINT ( 'NONE',  ( -29.99999999999998934, -15.00000000000000178, 7.999999999999996447 ) ) ;
#15 = EDGE_LOOP ( 'NONE', ( #377, #254, #415, #467 ) ) ;
#16 = DIRECTION ( 'NONE',  ( -0.2576626505603322737, 0.000000000000000000, -0.9662349396012462899 ) ) ;
#17 = CC_DESIGN_PERSON_AND_ORGANIZATION_ASSIGNMENT ( #68, #444, ( #379 ) ) ;
#18 = ADVANCED_FACE ( 'NONE', ( #239 ), #428, .T. ) ;
#19 = CARTESIAN_POINT ( 'NONE',  ( 21.00000000000003908, 6.000000000000003553, 5.600000000000035172 ) ) ;
#20 = ORIENTED_EDGE ( 'NONE', *, *, #300, .F. ) ;
#21 = LINE ( 'NONE', #400, #142 ) ;
#22 = CARTESIAN_POINT ( 'NONE',  ( -20.99999999999999645, 6.000000000000000888, 5.599999999999997868 ) ) ;
#23 = EDGE_LOOP ( 'NONE', ( #130, #163 ) ) ;
#24 = LOCAL_TIME ( 12, 8, 30.00000000000000000, #370 ) ;
#25 = CARTESIAN_POINT ( 'NONE',  ( -29.99999999999998934, -8.999999999999998224, 7.999999999999996447 ) ) ;
#26 = LINE ( 'NONE', #437, #39 ) ;
#27 = APPROVAL ( #299, 'UNSPECIFIED' ) ;
#28 = EDGE_LOOP ( 'NONE', ( #280, #125, #218, #475 ) ) ;
#29 = PERSON_AND_ORGANIZATION_ROLE ( 'creator' ) ;
#30 = ORIENTED_EDGE ( 'NONE', *, *, #439, .T. ) ;
#31 = COORDINATED_UNIVERSAL_TIME_OFFSET ( 5, 30, .AHEAD. ) ;
#32 = ORIENTED_EDGE ( 'NONE', *, *, #343, .F. ) ;
#33 = CC_DESIGN_SECURITY_CLASSIFICATION ( #350, ( #191 ) ) ;
#34 = ADVANCED_FACE ( 'NONE', ( #390 ), #164, .F. ) ;
#35 = DATE_AND_TIME ( #111, #410 ) ;
#36 = ADVANCED_BREP_SHAPE_REPRESENTATION ( 'Part3_Default_sldprt', ( #329, #253 ), #148 ) ;
#37 = CARTESIAN_POINT ( 'NONE',  ( 2.255140518769849223E-14, -15.00000000000000178, 49.99999999999999289 ) ) ;
#38 = ADVANCED_FACE ( 'NONE', ( #236, #188 ), #198, .T. ) ;
#39 = VECTOR ( 'NONE', #398, 1000.000000000000000 ) ;
#40 = VERTEX_POINT ( 'NONE', #161 ) ;
#41 = DATE_TIME_ROLE ( 'classification_date' ) ;
#42 = AXIS2_PLACEMENT_3D ( 'NONE', #395, #352, #318 ) ;
#43 = CARTESIAN_POINT ( 'NONE',  ( -20.99999999999999645, -6.000000000000000888, 5.599999999999997868 ) ) ;
#44 = ORIENTED_EDGE ( 'NONE', *, *, #153, .F. ) ;
#45 = COORDINATED_UNIVERSAL_TIME_OFFSET ( 5, 30, .AHEAD. ) ;
#46 = LINE ( 'NONE', #187, #154 ) ;
#47 = ORIENTED_EDGE ( 'NONE', *, *, #468, .T. ) ;
#48 = LINE ( 'NONE', #247, #338 ) ;
#49 = CARTESIAN_POINT ( 'NONE',  ( -27.00000000000000711, 6.000000000000000888, 42.79999999999999716 ) ) ;
#50 = LOCAL_TIME ( 12, 8, 30.00000000000000000, #45 ) ;
#51 = CARTESIAN_POINT ( 'NONE',  ( -27.00000000000000355, 3.673940397442060361E-16, 7.199999999999999289 ) ) ;
#52 = VECTOR ( 'NONE', #463, 1000.000000000000000 ) ;
#53 = LINE ( 'NONE', #226, #248 ) ;
#54 = EDGE_CURVE ( 'NONE', #291, #406, #91, .T. ) ;
#55 = CARTESIAN_POINT ( 'NONE',  ( -2.884615384615383693, 14.42307692307691802, 0.000000000000000000 ) ) ;
#56 = DIRECTION ( 'NONE',  ( -0.9662349396012462899, 0.000000000000000000, -0.2576626505603322181 ) ) ;
#57 = ORIENTED_EDGE ( 'NONE', *, *, #54, .T. ) ;
#58 =( BOUNDED_CURVE ( )  B_SPLINE_CURVE ( 3, ( #251, #431, #325, #88 ),
 .UNSPECIFIED., .F., .F. ) 
 B_SPLINE_CURVE_WITH_KNOTS ( ( 4, 4 ),
 ( 0.000000000000000000, 3.141592653589793116 ),
 .UNSPECIFIED. ) 
 CURVE ( )  GEOMETRIC_REPRESENTATION_ITEM ( )  RATIONAL_B_SPLINE_CURVE ( ( 1.000000000000000000, 0.3333333333333333703, 0.3333333333333333703, 1.000000000000000000 ) ) 
 REPRESENTATION_ITEM ( '' )  );
#59 = CARTESIAN_POINT ( 'NONE',  ( 27.00000000000004619, 0.000000000000000000, 42.79999999999996874 ) ) ;
#60 = APPROVAL_PERSON_ORGANIZATION ( #340, #252, #264 ) ;
#61 = VECTOR ( 'NONE', #389, 1000.000000000000000 ) ;
#62 = DIRECTION ( 'NONE',  ( -0.9486832980505135460, 0.1897366596101029423, 0.2529822128134712744 ) ) ;
#63 = ORIENTED_EDGE ( 'NONE', *, *, #177, .T. ) ;
#64 = CARTESIAN_POINT ( 'NONE',  ( 30.00000000000003908, -8.999999999999984013, 8.000000000000044409 ) ) ;
#65 = ORIENTED_EDGE ( 'NONE', *, *, #455, .T. ) ;
#66 = EDGE_CURVE ( 'NONE', #305, #292, #460, .T. ) ;
#67 = APPROVAL_PERSON_ORGANIZATION ( #302, #27, #446 ) ;
#68 = PERSON_AND_ORGANIZATION ( #374, #278 ) ;
#69 = ORIENTED_EDGE ( 'NONE', *, *, #323, .F. ) ;
#70 = EDGE_LOOP ( 'NONE', ( #5, #203 ) ) ;
#71 = DIRECTION ( 'NONE',  ( -0.000000000000000000, -0.000000000000000000, 1.000000000000000000 ) ) ;
#72 = EDGE_LOOP ( 'NONE', ( #185, #110, #441, #178 ) ) ;
#73 = VECTOR ( 'NONE', #271, 1000.000000000000000 ) ;
#74 = DIRECTION ( 'NONE',  ( 0.1961161351381840723, 0.9805806756909202226, 0.000000000000000000 ) ) ;
#75 = CALENDAR_DATE ( 2026, 19, 9 ) ;
#76 = CARTESIAN_POINT ( 'NONE',  ( 30.00000000000005684, -15.00000000000000178, 41.99999999999996447 ) ) ;
#77 = EDGE_CURVE ( 'NONE', #432, #305, #128, .T. ) ;
#78 = VECTOR ( 'NONE', #135, 1000.000000000000000 ) ;
#79 = ORIENTED_EDGE ( 'NONE', *, *, #293, .T. ) ;
#80 = CARTESIAN_POINT ( 'NONE',  ( -29.99999999999998934, 8.999999999999989342, 7.999999999999996447 ) ) ;
#81 = ORIENTED_EDGE ( 'NONE', *, *, #382, .F. ) ;
#82 = LINE ( 'NONE', #231, #61 ) ;
#83 = DIRECTION ( 'NONE',  ( 0.9662349396012459568, 0.000000000000000000, 0.2576626505603333839 ) ) ;
#84 = CARTESIAN_POINT ( 'NONE',  ( 30.00000000000004263, -15.00000000000000178, 8.000000000000046185 ) ) ;
#85 = DATE_AND_TIME ( #347, #50 ) ;
#86 = CARTESIAN_POINT ( 'NONE',  ( 21.00000000000003908, 3.673940397442060361E-16, 44.39999999999997726 ) ) ;
#87 = DIRECTION ( 'NONE',  ( -0.9805806756909201116, -0.1961161351381840445, 0.000000000000000000 ) ) ;
#88 = CARTESIAN_POINT ( 'NONE',  ( -27.00000000000000355, 3.673940397442060361E-16, 42.79999999999999005 ) ) ;
#89 = DIRECTION ( 'NONE',  ( -0.2576626505603334394, 0.000000000000000000, 0.9662349396012460678 ) ) ;
#90 = CARTESIAN_POINT ( 'NONE',  ( 2.255140507239620312E-14, 15.00000000000000000, 6.013708019305680933E-15 ) ) ;
#91 =( BOUNDED_CURVE ( )  B_SPLINE_CURVE ( 3, ( #311, #49, #355, #157 ),
 .UNSPECIFIED., .F., .T. ) 
 B_SPLINE_CURVE_WITH_KNOTS ( ( 4, 4 ),
 ( 3.141592653589793116, 6.283185307179586232 ),
 .UNSPECIFIED. ) 
 CURVE ( )  GEOMETRIC_REPRESENTATION_ITEM ( )  RATIONAL_B_SPLINE_CURVE ( ( 1.000000000000000000, 0.3333333333333333703, 0.3333333333333333703, 1.000000000000000000 ) ) 
 REPRESENTATION_ITEM ( '' )  );
#92 = ORIENTED_EDGE ( 'NONE', *, *, #293, .F. ) ;
#93 = ADVANCED_FACE ( 'NONE', ( #126, #281 ), #272, .F. ) ;
#94 = CARTESIAN_POINT ( 'NONE',  ( 27.00000000000004619, 0.000000000000000000, -1.200000000000000030E-05 ) ) ;
#95 = DIRECTION ( 'NONE',  ( 0.9662349396012460678, 0.000000000000000000, -0.2576626505603333284 ) ) ;
#96 = VECTOR ( 'NONE', #481, 1000.000000000000000 ) ;
#97 = FACE_BOUND ( 'NONE', #175, .T. ) ;
#98 = AXIS2_PLACEMENT_3D ( 'NONE', #313, #458, #122 ) ;
#99 = CARTESIAN_POINT ( 'NONE',  ( 27.00000000000004619, 0.000000000000000000, 42.79999999999996874 ) ) ;
#100 = ORIENTED_EDGE ( 'NONE', *, *, #153, .T. ) ;
#101 = CC_DESIGN_PERSON_AND_ORGANIZATION_ASSIGNMENT ( #294, #29, ( #191 ) ) ;
#102 = DIRECTION ( 'NONE',  ( -0.000000000000000000, -0.000000000000000000, 1.000000000000000000 ) ) ;
#103 = CARTESIAN_POINT ( 'NONE',  ( 24.00000000000004263, 0.000000000000000000, -1.200000000000000030E-05 ) ) ;
#104 = COORDINATED_UNIVERSAL_TIME_OFFSET ( 5, 30, .AHEAD. ) ;
#105 = VERTEX_POINT ( 'NONE', #241 ) ;
#106 = CARTESIAN_POINT ( 'NONE',  ( -14.69999999999999396, -12.05999999999999694, 46.07999999999999829 ) ) ;
#107 = EDGE_LOOP ( 'NONE', ( #20, #79, #47, #2 ) ) ;
#108 = LINE ( 'NONE', #219, #469 ) ;
#109 = ADVANCED_FACE ( 'NONE', ( #232 ), #11, .F. ) ;
#110 = ORIENTED_EDGE ( 'NONE', *, *, #229, .F. ) ;
#111 = CALENDAR_DATE ( 2026, 19, 9 ) ;
#112 = VECTOR ( 'NONE', #245, 1000.000000000000000 ) ;
#113 = APPROVAL_STATUS ( 'not_yet_approved' ) ;
#114 = VERTEX_POINT ( 'NONE', #25 ) ;
#115 = DIRECTION ( 'NONE',  ( 1.000000000000000000, 0.000000000000000000, 0.000000000000000000 ) ) ;
#116 = VERTEX_POINT ( 'NONE', #139 ) ;
#117 = AXIS2_PLACEMENT_3D ( 'NONE', #214, #288, #470 ) ;
#118 = CARTESIAN_POINT ( 'NONE',  ( 27.00000000000004619, 0.000000000000000000, 7.200000000000042810 ) ) ;
#119 = ADVANCED_FACE ( 'NONE', ( #131 ), #210, .F. ) ;
#120 = APPROVAL_STATUS ( 'not_yet_approved' ) ;
#121 = DIRECTION ( 'NONE',  ( 1.000000000000000000, 0.000000000000000000, 0.000000000000000000 ) ) ;
#122 = DIRECTION ( 'NONE',  ( 1.000000000000000000, 0.000000000000000000, 0.000000000000000000 ) ) ;
#123 = CARTESIAN_POINT ( 'NONE',  ( 30.00000000000000711, -15.00000000000000178, 50.00000000000000000 ) ) ;
#124 = CARTESIAN_POINT ( 'NONE',  ( 0.000000000000000000, -15.00000000000000000, 0.000000000000000000 ) ) ;
#125 = ORIENTED_EDGE ( 'NONE', *, *, #317, .T. ) ;
#126 = FACE_BOUND ( 'NONE', #23, .T. ) ;
#127 = LINE ( 'NONE', #290, #448 ) ;
#128 = LINE ( 'NONE', #284, #112 ) ;
#129 = DIRECTION ( 'NONE',  ( 0.1961161351381842388, -0.9805806756909201116, 0.000000000000000000 ) ) ;
#130 = ORIENTED_EDGE ( 'NONE', *, *, #397, .T. ) ;
#131 = FACE_OUTER_BOUND ( 'NONE', #287, .T. ) ;
#132 = LOCAL_TIME ( 12, 8, 30.00000000000000000, #314 ) ;
#133 = CARTESIAN_POINT ( 'NONE',  ( 30.00000000000003908, 8.999999999999984013, 8.000000000000044409 ) ) ;
#134 = DESIGN_CONTEXT ( 'detailed design', #197, 'design' ) ;
#135 = DIRECTION ( 'NONE',  ( -0.000000000000000000, 1.000000000000000000, -0.000000000000000000 ) ) ;
#136 = ORIENTED_EDGE ( 'NONE', *, *, #382, .T. ) ;
#137 = ADVANCED_FACE ( 'NONE', ( #176 ), #366, .F. ) ;
#138 = ORIENTED_EDGE ( 'NONE', *, *, #300, .T. ) ;
#139 = CARTESIAN_POINT ( 'NONE',  ( 21.00000000000003908, 3.673940397442060361E-16, 5.600000000000035172 ) ) ;
#140 = PERSON_AND_ORGANIZATION ( #374, #278 ) ;
#141 = VERTEX_POINT ( 'NONE', #336 ) ;
#142 = VECTOR ( 'NONE', #172, 1000.000000000000000 ) ;
#143 =( BOUNDED_CURVE ( )  B_SPLINE_CURVE ( 3, ( #454, #3, #150, #86 ),
 .UNSPECIFIED., .F., .F. ) 
 B_SPLINE_CURVE_WITH_KNOTS ( ( 4, 4 ),
 ( 3.141592653589793116, 6.283185307179586232 ),
 .UNSPECIFIED. ) 
 CURVE ( )  GEOMETRIC_REPRESENTATION_ITEM ( )  RATIONAL_B_SPLINE_CURVE ( ( 1.000000000000000000, 0.3333333333333333703, 0.3333333333333333703, 1.000000000000000000 ) ) 
 REPRESENTATION_ITEM ( '' )  );
#144 = EDGE_CURVE ( 'NONE', #213, #413, #256, .T. ) ;
#145 = MECHANICAL_CONTEXT ( 'NONE', #316, 'mechanical' ) ;
#146 = ORIENTED_EDGE ( 'NONE', *, *, #225, .T. ) ;
#147 = CC_DESIGN_DATE_AND_TIME_ASSIGNMENT ( #186, #41, ( #350 ) ) ;
#148 =( GEOMETRIC_REPRESENTATION_CONTEXT ( 3 ) GLOBAL_UNCERTAINTY_ASSIGNED_CONTEXT ( ( #171 ) ) GLOBAL_UNIT_ASSIGNED_CONTEXT ( ( #174, #333, #217 ) ) REPRESENTATION_CONTEXT ( 'NONE', 'WORKASPACE' ) );
#149 = ORIENTED_EDGE ( 'NONE', *, *, #375, .T. ) ;
#150 = CARTESIAN_POINT ( 'NONE',  ( 21.00000000000003908, 6.000000000000000888, 44.39999999999997726 ) ) ;
#151 = EDGE_LOOP ( 'NONE', ( #206, #146, #100, #270 ) ) ;
#152 = CARTESIAN_POINT ( 'NONE',  ( 21.00000000000003908, 3.673940397442060361E-16, 5.600000000000035172 ) ) ;
#153 = EDGE_CURVE ( 'NONE', #326, #141, #21, .T. ) ;
#154 = VECTOR ( 'NONE', #268, 1000.000000000000000 ) ;
#155 = CARTESIAN_POINT ( 'NONE',  ( -14.69999999999999396, 12.05999999999999694, 46.07999999999999829 ) ) ;
#156 = CARTESIAN_POINT ( 'NONE',  ( 30.00000000000005684, -8.999999999999989342, 41.99999999999996447 ) ) ;
#157 = CARTESIAN_POINT ( 'NONE',  ( -20.99999999999999645, 0.000000000000000000, 44.39999999999999858 ) ) ;
#158 = CARTESIAN_POINT ( 'NONE',  ( -27.00000000000000711, -6.000000000000000888, 7.199999999999999289 ) ) ;
#159 = APPROVAL ( #120, 'UNSPECIFIED' ) ;
#160 = ADVANCED_FACE ( 'NONE', ( #167 ), #328, .F. ) ;
#161 = CARTESIAN_POINT ( 'NONE',  ( -20.99999999999999645, 0.000000000000000000, 5.599999999999997868 ) ) ;
#162 = DIRECTION ( 'NONE',  ( -0.000000000000000000, 1.000000000000000000, -0.000000000000000000 ) ) ;
#163 = ORIENTED_EDGE ( 'NONE', *, *, #306, .T. ) ;
#164 = PLANE ( 'NONE',  #42 ) ;
#165 = FACE_OUTER_BOUND ( 'NONE', #332, .T. ) ;
#166 = CARTESIAN_POINT ( 'NONE',  ( -27.00000000000000711, 6.000000000000000888, 7.199999999999999289 ) ) ;
#167 = FACE_OUTER_BOUND ( 'NONE', #465, .T. ) ;
#168 = CC_DESIGN_APPROVAL ( #27, ( #424 ) ) ;
#169 = CARTESIAN_POINT ( 'NONE',  ( -20.99999999999999645, 0.000000000000000000, 5.599999999999997868 ) ) ;
#170 = VERTEX_POINT ( 'NONE', #80 ) ;
#171 = UNCERTAINTY_MEASURE_WITH_UNIT (LENGTH_MEASURE( 1.000000000000000082E-05 ), #174, 'distance_accuracy_value', 'NONE');
#172 = DIRECTION ( 'NONE',  ( -0.000000000000000000, -0.000000000000000000, 1.000000000000000000 ) ) ;
#173 = LINE ( 'NONE', #330, #78 ) ;
#174 =( LENGTH_UNIT ( ) NAMED_UNIT ( * ) SI_UNIT ( .MILLI., .METRE. ) );
#175 = EDGE_LOOP ( 'NONE', ( #344, #57 ) ) ;
#176 = FACE_OUTER_BOUND ( 'NONE', #15, .T. ) ;
#177 = EDGE_CURVE ( 'NONE', #249, #141, #195, .T. ) ;
#178 = ORIENTED_EDGE ( 'NONE', *, *, #189, .T. ) ;
#179 = VECTOR ( 'NONE', #419, 1000.000000000000000 ) ;
#180 = DIRECTION ( 'NONE',  ( -0.9486832980505138790, 0.1897366596101028036, -0.2529822128134702752 ) ) ;
#181 = ADVANCED_FACE ( 'NONE', ( #451 ), #312, .F. ) ;
#182 = APPROVAL_DATE_TIME ( #417, #252 ) ;
#183 = ORIENTED_EDGE ( 'NONE', *, *, #303, .T. ) ;
#184 = CARTESIAN_POINT ( 'NONE',  ( -27.00000000000000355, 3.673940397442060361E-16, 7.199999999999999289 ) ) ;
#185 = ORIENTED_EDGE ( 'NONE', *, *, #66, .T. ) ;
#186 = DATE_AND_TIME ( #385, #132 ) ;
#187 = CARTESIAN_POINT ( 'NONE',  ( -30.00000000000000000, 8.999999999999994671, 0.000000000000000000 ) ) ;
#188 = FACE_OUTER_BOUND ( 'NONE', #335, .T. ) ;
#189 = EDGE_CURVE ( 'NONE', #477, #305, #356, .T. ) ;
#190 = CARTESIAN_POINT ( 'NONE',  ( 27.00000000000004974, -6.000000000000003553, 7.200000000000042810 ) ) ;
#191 = PRODUCT_DEFINITION_FORMATION_WITH_SPECIFIED_SOURCE ( 'ANY', '', #379, .NOT_KNOWN. ) ;
#192 = AXIS2_PLACEMENT_3D ( 'NONE', #55, #433, #87 ) ;
#193 = CARTESIAN_POINT ( 'NONE',  ( 2.700000000000001066, 14.45999999999999908, 0.7200000000000035261 ) ) ;
#194 = CARTESIAN_POINT ( 'NONE',  ( 12.44813278008303392, -15.00000000000000178, 46.68049792531118669 ) ) ;
#195 = LINE ( 'NONE', #76, #202 ) ;
#196 = EDGE_CURVE ( 'NONE', #432, #170, #315, .T. ) ;
#197 = APPLICATION_CONTEXT ( 'configuration controlled 3d designs of mechanical parts and assemblies' ) ;
#198 = PLANE ( 'NONE',  #471 ) ;
#199 = CARTESIAN_POINT ( 'NONE',  ( 21.00000000000003908, 3.673940397442060361E-16, 5.600000000000035172 ) ) ;
#200 = ORIENTED_EDGE ( 'NONE', *, *, #144, .T. ) ;
#201 = CARTESIAN_POINT ( 'NONE',  ( -2.884615384615383693, -14.42307692307691802, 0.000000000000000000 ) ) ;
#202 = VECTOR ( 'NONE', #273, 1000.000000000000000 ) ;
#203 = ORIENTED_EDGE ( 'NONE', *, *, #425, .F. ) ;
#204 = CC_DESIGN_PERSON_AND_ORGANIZATION_ASSIGNMENT ( #140, #297, ( #191 ) ) ;
#205 = DIRECTION ( 'NONE',  ( 0.9805806756909201116, 0.1961161351381842388, 0.000000000000000000 ) ) ;
#206 = ORIENTED_EDGE ( 'NONE', *, *, #455, .F. ) ;
#207 = EDGE_CURVE ( 'NONE', #40, #301, #334, .T. ) ;
#208 = FACE_OUTER_BOUND ( 'NONE', #72, .T. ) ;
#209 = ORIENTED_EDGE ( 'NONE', *, *, #304, .F. ) ;
#210 = CYLINDRICAL_SURFACE ( 'NONE', #117, 3.000000000000002665 ) ;
#211 =( BOUNDED_CURVE ( )  B_SPLINE_CURVE ( 3, ( #405, #407, #19, #199 ),
 .UNSPECIFIED., .F., .F. ) 
 B_SPLINE_CURVE_WITH_KNOTS ( ( 4, 4 ),
 ( 0.000000000000000000, 3.141592653589793116 ),
 .UNSPECIFIED. ) 
 CURVE ( )  GEOMETRIC_REPRESENTATION_ITEM ( )  RATIONAL_B_SPLINE_CURVE ( ( 1.000000000000000000, 0.3333333333333333703, 0.3333333333333333703, 1.000000000000000000 ) ) 
 REPRESENTATION_ITEM ( '' )  );
#212 = CARTESIAN_POINT ( 'NONE',  ( 0.000000000000000000, -15.00000000000000178, 0.000000000000000000 ) ) ;
#213 = VERTEX_POINT ( 'NONE', #427 ) ;
#214 = CARTESIAN_POINT ( 'NONE',  ( -24.00000000000000000, 0.000000000000000000, -1.200000000000000030E-05 ) ) ;
#215 = CALENDAR_DATE ( 2026, 19, 9 ) ;
#216 = ORIENTED_EDGE ( 'NONE', *, *, #225, .F. ) ;
#217 =( NAMED_UNIT ( * ) SI_UNIT ( $, .STERADIAN. ) SOLID_ANGLE_UNIT ( ) );
#218 = ORIENTED_EDGE ( 'NONE', *, *, #404, .T. ) ;
#219 = CARTESIAN_POINT ( 'NONE',  ( 30.00000000000000711, -8.999999999999992895, 0.000000000000000000 ) ) ;
#220 = EDGE_LOOP ( 'NONE', ( #337, #480, #295, #216 ) ) ;
#221 = AXIS2_PLACEMENT_3D ( 'NONE', #362, #283, #296 ) ;
#222 = PRODUCT_RELATED_PRODUCT_CATEGORY ( 'detail', '', ( #379 ) ) ;
#223 = DIRECTION ( 'NONE',  ( 1.000000000000000000, 0.000000000000000000, 0.000000000000000000 ) ) ;
#224 = CARTESIAN_POINT ( 'NONE',  ( -30.00000000000000000, -8.999999999999994671, 0.000000000000000000 ) ) ;
#225 = EDGE_CURVE ( 'NONE', #373, #326, #387, .T. ) ;
#226 = CARTESIAN_POINT ( 'NONE',  ( -2.699999999999999289, -14.45999999999999552, 0.7199999999999995293 ) ) ;
#227 = LINE ( 'NONE', #384, #255 ) ;
#228 = CARTESIAN_POINT ( 'NONE',  ( -20.99999999999999645, 0.000000000000000000, 5.599999999999997868 ) ) ;
#229 = EDGE_CURVE ( 'NONE', #438, #292, #393, .T. ) ;
#230 = ORIENTED_EDGE ( 'NONE', *, *, #397, .F. ) ;
#231 = CARTESIAN_POINT ( 'NONE',  ( 21.00000000000003908, 3.673940397442060361E-16, -1.200000000000000030E-05 ) ) ;
#232 = FACE_OUTER_BOUND ( 'NONE', #452, .T. ) ;
#233 = DIRECTION ( 'NONE',  ( -0.000000000000000000, 1.000000000000000000, -0.000000000000000000 ) ) ;
#234 = VECTOR ( 'NONE', #162, 1000.000000000000000 ) ;
#235 = CC_DESIGN_PERSON_AND_ORGANIZATION_ASSIGNMENT ( #8, #392, ( #350 ) ) ;
#236 = FACE_BOUND ( 'NONE', #258, .T. ) ;
#237 = AXIS2_PLACEMENT_3D ( 'NONE', #426, #89, #83 ) ;
#238 = CARTESIAN_POINT ( 'NONE',  ( 2.255140518769849223E-14, 15.00000000000000000, 49.99999999999999289 ) ) ;
#239 = FACE_OUTER_BOUND ( 'NONE', #422, .T. ) ;
#240 = CARTESIAN_POINT ( 'NONE',  ( -30.00000000000000000, -8.999999999999994671, 41.99999999999999289 ) ) ;
#241 = CARTESIAN_POINT ( 'NONE',  ( -6.938893903907228378E-15, -15.00000000000000178, 0.000000000000000000 ) ) ;
#242 = PLANE ( 'NONE',  #367 ) ;
#243 = ORIENTED_EDGE ( 'NONE', *, *, #66, .F. ) ;
#244 = DIRECTION ( 'NONE',  ( -0.000000000000000000, -0.000000000000000000, 1.000000000000000000 ) ) ;
#245 = DIRECTION ( 'NONE',  ( -0.000000000000000000, -0.000000000000000000, 1.000000000000000000 ) ) ;
#246 = CC_DESIGN_APPROVAL ( #252, ( #191 ) ) ;
#247 = CARTESIAN_POINT ( 'NONE',  ( 14.70000000000004547, -12.05999999999998806, 46.07999999999999119 ) ) ;
#248 = VECTOR ( 'NONE', #348, 1000.000000000000000 ) ;
#249 = VERTEX_POINT ( 'NONE', #156 ) ;
#250 = CC_DESIGN_DATE_AND_TIME_ASSIGNMENT ( #35, #261, ( #424 ) ) ;
#251 = CARTESIAN_POINT ( 'NONE',  ( -20.99999999999999645, 0.000000000000000000, 44.39999999999999858 ) ) ;
#252 = APPROVAL ( #113, 'UNSPECIFIED' ) ;
#253 = AXIS2_PLACEMENT_3D ( 'NONE', #479, #257, #223 ) ;
#254 = ORIENTED_EDGE ( 'NONE', *, *, #449, .T. ) ;
#255 = VECTOR ( 'NONE', #275, 1000.000000000000341 ) ;
#256 = LINE ( 'NONE', #94, #269 ) ;
#257 = DIRECTION ( 'NONE',  ( 0.000000000000000000, 0.000000000000000000, 1.000000000000000000 ) ) ;
#258 = EDGE_LOOP ( 'NONE', ( #209, #450 ) ) ;
#259 = DATE_AND_TIME ( #215, #342 ) ;
#260 = ORIENTED_EDGE ( 'NONE', *, *, #54, .F. ) ;
#261 = DATE_TIME_ROLE ( 'creation_date' ) ;
#262 =( BOUNDED_CURVE ( )  B_SPLINE_CURVE ( 3, ( #361, #331, #474, #99 ),
 .UNSPECIFIED., .F., .F. ) 
 B_SPLINE_CURVE_WITH_KNOTS ( ( 4, 4 ),
 ( 0.000000000000000000, 3.141592653589793116 ),
 .UNSPECIFIED. ) 
 CURVE ( )  GEOMETRIC_REPRESENTATION_ITEM ( )  RATIONAL_B_SPLINE_CURVE ( ( 1.000000000000000000, 0.3333333333333333703, 0.3333333333333333703, 1.000000000000000000 ) ) 
 REPRESENTATION_ITEM ( '' )  );
#263 = VECTOR ( 'NONE', #180, 1000.000000000000000 ) ;
#264 = APPROVAL_ROLE ( '' ) ;
#265 =( BOUNDED_CURVE ( )  B_SPLINE_CURVE ( 3, ( #364, #166, #22, #169 ),
 .UNSPECIFIED., .F., .F. ) 
 B_SPLINE_CURVE_WITH_KNOTS ( ( 4, 4 ),
 ( 1.224646799147352468E-16, 3.141592653589793116 ),
 .UNSPECIFIED. ) 
 CURVE ( )  GEOMETRIC_REPRESENTATION_ITEM ( )  RATIONAL_B_SPLINE_CURVE ( ( 1.000000000000000000, 0.3333333333333333703, 0.3333333333333333703, 1.000000000000000000 ) ) 
 REPRESENTATION_ITEM ( '' )  );
#266 = APPROVAL_ROLE ( '' ) ;
#267 = ORIENTED_EDGE ( 'NONE', *, *, #196, .F. ) ;
#268 = DIRECTION ( 'NONE',  ( -0.000000000000000000, -0.000000000000000000, 1.000000000000000000 ) ) ;
#269 = VECTOR ( 'NONE', #244, 1000.000000000000000 ) ;
#270 = ORIENTED_EDGE ( 'NONE', *, *, #177, .F. ) ;
#271 = DIRECTION ( 'NONE',  ( -0.000000000000000000, 1.000000000000000000, -0.000000000000000000 ) ) ;
#272 = PLANE ( 'NONE',  #237 ) ;
#273 = DIRECTION ( 'NONE',  ( -0.000000000000000000, 1.000000000000000000, -0.000000000000000000 ) ) ;
#274 = EDGE_CURVE ( 'NONE', #170, #292, #46, .T. ) ;
#275 = DIRECTION ( 'NONE',  ( -0.9486832980505134350, -0.1897366596101029146, -0.2529822128134713854 ) ) ;
#276 = PERSON_AND_ORGANIZATION ( #374, #278 ) ;
#277 = CARTESIAN_POINT ( 'NONE',  ( 24.00000000000004263, 0.000000000000000000, -1.200000000000000030E-05 ) ) ;
#278 = ORGANIZATION ( 'UNSPECIFIED', 'UNSPECIFIED', '' ) ;
#279 = DIRECTION ( 'NONE',  ( -0.9486832980505135460, -0.1897366596101029423, 0.2529822128134712744 ) ) ;
#280 = ORIENTED_EDGE ( 'NONE', *, *, #306, .F. ) ;
#281 = FACE_OUTER_BOUND ( 'NONE', #220, .T. ) ;
#282 = LINE ( 'NONE', #440, #320 ) ;
#283 = DIRECTION ( 'NONE',  ( 1.000000000000000000, 0.000000000000000000, 0.000000000000000000 ) ) ;
#284 = CARTESIAN_POINT ( 'NONE',  ( 2.255140518769848592E-14, 15.00000000000000000, 0.000000000000000000 ) ) ;
#285 = CARTESIAN_POINT ( 'NONE',  ( -20.99999999999999645, 0.000000000000000000, 44.39999999999999858 ) ) ;
#286 = ADVANCED_FACE ( 'NONE', ( #12 ), #381, .F. ) ;
#287 = EDGE_LOOP ( 'NONE', ( #369, #403, #371, #260 ) ) ;
#288 = DIRECTION ( 'NONE',  ( -0.000000000000000000, -0.000000000000000000, 1.000000000000000000 ) ) ;
#289 = CC_DESIGN_APPROVAL ( #159, ( #350 ) ) ;
#290 = CARTESIAN_POINT ( 'NONE',  ( -27.00000000000000355, 3.673940397442060361E-16, -1.200000000000000030E-05 ) ) ;
#291 = VERTEX_POINT ( 'NONE', #319 ) ;
#292 = VERTEX_POINT ( 'NONE', #459 ) ;
#293 = EDGE_CURVE ( 'NONE', #105, #477, #394, .T. ) ;
#294 = PERSON_AND_ORGANIZATION ( #374, #278 ) ;
#295 = ORIENTED_EDGE ( 'NONE', *, *, #303, .F. ) ;
#296 = DIRECTION ( 'NONE',  ( 0.000000000000000000, 0.000000000000000000, -1.000000000000000000 ) ) ;
#297 = PERSON_AND_ORGANIZATION_ROLE ( 'design_supplier' ) ;
#298 = ORIENTED_EDGE ( 'NONE', *, *, #4, .F. ) ;
#299 = APPROVAL_STATUS ( 'not_yet_approved' ) ;
#300 = EDGE_CURVE ( 'NONE', #105, #114, #53, .T. ) ;
#301 = VERTEX_POINT ( 'NONE', #184 ) ;
#302 = PERSON_AND_ORGANIZATION ( #374, #278 ) ;
#303 = EDGE_CURVE ( 'NONE', #326, #432, #345, .T. ) ;
#304 = EDGE_CURVE ( 'NONE', #413, #412, #143, .T. ) ;
#305 = VERTEX_POINT ( 'NONE', #238 ) ;
#306 = EDGE_CURVE ( 'NONE', #116, #213, #383, .T. ) ;
#307 = DIRECTION ( 'NONE',  ( -1.000000000000000000, 0.000000000000000000, 0.000000000000000000 ) ) ;
#308 = ORIENTED_EDGE ( 'NONE', *, *, #196, .T. ) ;
#309 = CARTESIAN_POINT ( 'NONE',  ( 21.00000000000003908, -6.000000000000003553, 5.600000000000035172 ) ) ;
#310 = VECTOR ( 'NONE', #233, 1000.000000000000000 ) ;
#311 = CARTESIAN_POINT ( 'NONE',  ( -27.00000000000000355, 3.673940397442060361E-16, 42.79999999999999005 ) ) ;
#312 = CYLINDRICAL_SURFACE ( 'NONE', #478, 3.000000000000002665 ) ;
#313 = CARTESIAN_POINT ( 'NONE',  ( -24.00000000000000000, 0.000000000000000000, -1.200000000000000030E-05 ) ) ;
#314 = COORDINATED_UNIVERSAL_TIME_OFFSET ( 5, 30, .AHEAD. ) ;
#315 = LINE ( 'NONE', #7, #378 ) ;
#316 = APPLICATION_CONTEXT ( 'configuration controlled 3d designs of mechanical parts and assemblies' ) ;
#317 = EDGE_CURVE ( 'NONE', #116, #412, #82, .T. ) ;
#318 = DIRECTION ( 'NONE',  ( 0.9805806756909201116, -0.1961161351381842388, 0.000000000000000000 ) ) ;
#319 = CARTESIAN_POINT ( 'NONE',  ( -27.00000000000000355, 3.673940397442060361E-16, 42.79999999999999005 ) ) ;
#320 = VECTOR ( 'NONE', #62, 1000.000000000000227 ) ;
#321 = FACE_OUTER_BOUND ( 'NONE', #107, .T. ) ;
#322 = ORIENTED_EDGE ( 'NONE', *, *, #77, .T. ) ;
#323 = EDGE_CURVE ( 'NONE', #249, #477, #48, .T. ) ;
#324 = DIRECTION ( 'NONE',  ( 0.2576626505603333284, 0.000000000000000000, 0.9662349396012460678 ) ) ;
#325 = CARTESIAN_POINT ( 'NONE',  ( -27.00000000000000711, -6.000000000000000888, 42.79999999999999716 ) ) ;
#326 = VERTEX_POINT ( 'NONE', #133 ) ;
#327 = PLANE ( 'NONE',  #401 ) ;
#328 = CYLINDRICAL_SURFACE ( 'NONE', #421, 3.000000000000002665 ) ;
#329 = MANIFOLD_SOLID_BREP ( 'Cut-Extrude4', #10 ) ;
#330 = CARTESIAN_POINT ( 'NONE',  ( 2.255140507239620312E-14, -15.00000000000000178, 6.013708019305680933E-15 ) ) ;
#331 = CARTESIAN_POINT ( 'NONE',  ( 21.00000000000003908, -6.000000000000000888, 44.39999999999997726 ) ) ;
#332 = EDGE_LOOP ( 'NONE', ( #298, #65, #365, #92 ) ) ;
#333 =( NAMED_UNIT ( * ) PLANE_ANGLE_UNIT ( ) SI_UNIT ( $, .RADIAN. ) );
#334 =( BOUNDED_CURVE ( )  B_SPLINE_CURVE ( 3, ( #228, #43, #158, #51 ),
 .UNSPECIFIED., .F., .F. ) 
 B_SPLINE_CURVE_WITH_KNOTS ( ( 4, 4 ),
 ( 3.141592653589793116, 6.283185307179586232 ),
 .UNSPECIFIED. ) 
 CURVE ( )  GEOMETRIC_REPRESENTATION_ITEM ( )  RATIONAL_B_SPLINE_CURVE ( ( 1.000000000000000000, 0.3333333333333333703, 0.3333333333333333703, 1.000000000000000000 ) ) 
 REPRESENTATION_ITEM ( '' )  );
#335 = EDGE_LOOP ( 'NONE', ( #63, #136, #473, #69 ) ) ;
#336 = CARTESIAN_POINT ( 'NONE',  ( 30.00000000000005684, 8.999999999999978684, 41.99999999999996447 ) ) ;
#337 = ORIENTED_EDGE ( 'NONE', *, *, #4, .T. ) ;
#338 = VECTOR ( 'NONE', #279, 1000.000000000000227 ) ;
#339 = CC_DESIGN_PERSON_AND_ORGANIZATION_ASSIGNMENT ( #414, #380, ( #424 ) ) ;
#340 = PERSON_AND_ORGANIZATION ( #374, #278 ) ;
#341 = DIRECTION ( 'NONE',  ( -0.9805806756909201116, 0.1961161351381840445, 0.000000000000000000 ) ) ;
#342 = LOCAL_TIME ( 12, 8, 30.00000000000000000, #104 ) ;
#343 = EDGE_CURVE ( 'NONE', #406, #291, #58, .T. ) ;
#344 = ORIENTED_EDGE ( 'NONE', *, *, #343, .T. ) ;
#345 = LINE ( 'NONE', #193, #351 ) ;
#346 = EDGE_LOOP ( 'NONE', ( #435, #138, #30, #267 ) ) ;
#347 = CALENDAR_DATE ( 2026, 19, 9 ) ;
#348 = DIRECTION ( 'NONE',  ( -0.9486832980505138790, 0.1897366596101028036, 0.2529822128134703307 ) ) ;
#349 = DIRECTION ( 'NONE',  ( 0.000000000000000000, 0.000000000000000000, 1.000000000000000000 ) ) ;
#350 = SECURITY_CLASSIFICATION ( '', '', #442 ) ;
#351 = VECTOR ( 'NONE', #353, 1000.000000000000341 ) ;
#352 = DIRECTION ( 'NONE',  ( -0.1961161351381842388, -0.9805806756909201116, 0.000000000000000000 ) ) ;
#353 = DIRECTION ( 'NONE',  ( -0.9486832980505134350, 0.1897366596101029146, -0.2529822128134713854 ) ) ;
#354 = ADVANCED_FACE ( 'NONE', ( #461, #472 ), #327, .T. ) ;
#355 = CARTESIAN_POINT ( 'NONE',  ( -20.99999999999999645, 6.000000000000000888, 44.39999999999999858 ) ) ;
#356 = LINE ( 'NONE', #13, #73 ) ;
#357 = LINE ( 'NONE', #14, #234 ) ;
#358 = ADVANCED_FACE ( 'NONE', ( #97, #208 ), #434, .F. ) ;
#359 = APPROVAL_PERSON_ORGANIZATION ( #276, #159, #266 ) ;
#360 = PLANE ( 'NONE',  #453 ) ;
#361 = CARTESIAN_POINT ( 'NONE',  ( 21.00000000000003908, 3.673940397442060361E-16, 44.39999999999997726 ) ) ;
#362 = CARTESIAN_POINT ( 'NONE',  ( -30.00000000000000000, -15.00000000000000178, 50.00000000000000000 ) ) ;
#363 = ADVANCED_FACE ( 'NONE', ( #165 ), #360, .T. ) ;
#364 = CARTESIAN_POINT ( 'NONE',  ( -27.00000000000000355, 3.673940397442060361E-16, 7.199999999999999289 ) ) ;
#365 = ORIENTED_EDGE ( 'NONE', *, *, #323, .T. ) ;
#366 = PLANE ( 'NONE',  #221 ) ;
#367 = AXIS2_PLACEMENT_3D ( 'NONE', #201, #74, #341 ) ;
#368 = DIRECTION ( 'NONE',  ( 0.2576626505603322181, 0.000000000000000000, -0.9662349396012462899 ) ) ;
#369 = ORIENTED_EDGE ( 'NONE', *, *, #375, .F. ) ;
#370 = COORDINATED_UNIVERSAL_TIME_OFFSET ( 5, 30, .AHEAD. ) ;
#371 = ORIENTED_EDGE ( 'NONE', *, *, #391, .T. ) ;
#372 = APPROVAL_DATE_TIME ( #259, #27 ) ;
#373 = VERTEX_POINT ( 'NONE', #64 ) ;
#374 = PERSON ( 'UNSPECIFIED', 'UNSPECIFIED', 'UNSPECIFIED', ('UNSPECIFIED'), ('UNSPECIFIED'), ('UNSPECIFIED') ) ;
#375 = EDGE_CURVE ( 'NONE', #301, #291, #127, .T. ) ;
#376 = APPLICATION_PROTOCOL_DEFINITION ( 'international standard', 'config_control_design', 1994, #197 ) ;
#377 = ORIENTED_EDGE ( 'NONE', *, *, #439, .F. ) ;
#378 = VECTOR ( 'NONE', #9, 1000.000000000000000 ) ;
#379 = PRODUCT ( 'Part3_Default_sldprt', 'Part3_Default_sldprt', '', ( #145 ) ) ;
#380 = PERSON_AND_ORGANIZATION_ROLE ( 'creator' ) ;
#381 = PLANE ( 'NONE',  #436 ) ;
#382 = EDGE_CURVE ( 'NONE', #141, #305, #282, .T. ) ;
#383 =( BOUNDED_CURVE ( )  B_SPLINE_CURVE ( 3, ( #152, #309, #190, #118 ),
 .UNSPECIFIED., .F., .F. ) 
 B_SPLINE_CURVE_WITH_KNOTS ( ( 4, 4 ),
 ( 3.141592653589793116, 6.283185307179586232 ),
 .UNSPECIFIED. ) 
 CURVE ( )  GEOMETRIC_REPRESENTATION_ITEM ( )  RATIONAL_B_SPLINE_CURVE ( ( 1.000000000000000000, 0.3333333333333333703, 0.3333333333333333703, 1.000000000000000000 ) ) 
 REPRESENTATION_ITEM ( '' )  );
#384 = CARTESIAN_POINT ( 'NONE',  ( 2.700000000000001066, -14.45999999999999908, 0.7200000000000035261 ) ) ;
#385 = CALENDAR_DATE ( 2026, 19, 9 ) ;
#386 = PRODUCT_DEFINITION_SHAPE ( 'NONE', 'NONE',  #424 ) ;
#387 = LINE ( 'NONE', #84, #310 ) ;
#388 = ORIENTED_EDGE ( 'NONE', *, *, #77, .F. ) ;
#389 = DIRECTION ( 'NONE',  ( -0.000000000000000000, -0.000000000000000000, 1.000000000000000000 ) ) ;
#390 = FACE_OUTER_BOUND ( 'NONE', #462, .T. ) ;
#391 = EDGE_CURVE ( 'NONE', #40, #406, #26, .T. ) ;
#392 = PERSON_AND_ORGANIZATION_ROLE ( 'classification_officer' ) ;
#393 = LINE ( 'NONE', #429, #456 ) ;
#394 = LINE ( 'NONE', #124, #179 ) ;
#395 = CARTESIAN_POINT ( 'NONE',  ( 2.884615384615387246, 14.42307692307692157, 0.000000000000000000 ) ) ;
#396 = CARTESIAN_POINT ( 'NONE',  ( -12.44813278008298063, -15.00000000000000178, 46.68049792531119380 ) ) ;
#397 = EDGE_CURVE ( 'NONE', #213, #116, #211, .T. ) ;
#398 = DIRECTION ( 'NONE',  ( -0.000000000000000000, -0.000000000000000000, 1.000000000000000000 ) ) ;
#399 = ORIENTED_EDGE ( 'NONE', *, *, #317, .F. ) ;
#400 = CARTESIAN_POINT ( 'NONE',  ( 30.00000000000000711, 8.999999999999992895, 0.000000000000000000 ) ) ;
#401 = AXIS2_PLACEMENT_3D ( 'NONE', #212, #16, #466 ) ;
#402 = CARTESIAN_POINT ( 'NONE',  ( 2.884615384615387246, -14.42307692307692157, 0.000000000000000000 ) ) ;
#403 = ORIENTED_EDGE ( 'NONE', *, *, #425, .T. ) ;
#404 = EDGE_CURVE ( 'NONE', #412, #413, #262, .T. ) ;
#405 = CARTESIAN_POINT ( 'NONE',  ( 27.00000000000004619, 0.000000000000000000, 7.200000000000042810 ) ) ;
#406 = VERTEX_POINT ( 'NONE', #285 ) ;
#407 = CARTESIAN_POINT ( 'NONE',  ( 27.00000000000004974, 6.000000000000003553, 7.200000000000042810 ) ) ;
#408 = ORIENTED_EDGE ( 'NONE', *, *, #304, .T. ) ;
#409 = DIRECTION ( 'NONE',  ( -0.000000000000000000, -0.000000000000000000, 1.000000000000000000 ) ) ;
#410 = LOCAL_TIME ( 12, 8, 30.00000000000000000, #31 ) ;
#411 = LINE ( 'NONE', #106, #263 ) ;
#412 = VERTEX_POINT ( 'NONE', #464 ) ;
#413 = VERTEX_POINT ( 'NONE', #59 ) ;
#414 = PERSON_AND_ORGANIZATION ( #374, #278 ) ;
#415 = ORIENTED_EDGE ( 'NONE', *, *, #229, .T. ) ;
#416 = AXIS2_PLACEMENT_3D ( 'NONE', #396, #368, #56 ) ;
#417 = DATE_AND_TIME ( #75, #24 ) ;
#418 = LINE ( 'NONE', #224, #96 ) ;
#419 = DIRECTION ( 'NONE',  ( -0.000000000000000000, -0.000000000000000000, 1.000000000000000000 ) ) ;
#420 = ORIENTED_EDGE ( 'NONE', *, *, #391, .F. ) ;
#421 = AXIS2_PLACEMENT_3D ( 'NONE', #103, #409, #115 ) ;
#422 = EDGE_LOOP ( 'NONE', ( #388, #308, #445, #243 ) ) ;
#423 = DIRECTION ( 'NONE',  ( -0.000000000000000000, 1.000000000000000000, -0.000000000000000000 ) ) ;
#424 = PRODUCT_DEFINITION ( 'UNKNOWN', '', #191, #134 ) ;
#425 = EDGE_CURVE ( 'NONE', #301, #40, #265, .T. ) ;
#426 = CARTESIAN_POINT ( 'NONE',  ( 0.000000000000000000, -15.00000000000000178, 0.000000000000000000 ) ) ;
#427 = CARTESIAN_POINT ( 'NONE',  ( 27.00000000000004619, 0.000000000000000000, 7.200000000000042810 ) ) ;
#428 = PLANE ( 'NONE',  #192 ) ;
#429 = CARTESIAN_POINT ( 'NONE',  ( -30.00000000000000711, -15.00000000000000178, 41.99999999999999289 ) ) ;
#430 = EDGE_CURVE ( 'NONE', #105, #432, #173, .T. ) ;
#431 = CARTESIAN_POINT ( 'NONE',  ( -20.99999999999999645, -6.000000000000000888, 44.39999999999999858 ) ) ;
#432 = VERTEX_POINT ( 'NONE', #90 ) ;
#433 = DIRECTION ( 'NONE',  ( -0.1961161351381840723, 0.9805806756909202226, 0.000000000000000000 ) ) ;
#434 = PLANE ( 'NONE',  #416 ) ;
#435 = ORIENTED_EDGE ( 'NONE', *, *, #430, .F. ) ;
#436 = AXIS2_PLACEMENT_3D ( 'NONE', #123, #307, #349 ) ;
#437 = CARTESIAN_POINT ( 'NONE',  ( -20.99999999999999645, 0.000000000000000000, -1.200000000000000030E-05 ) ) ;
#438 = VERTEX_POINT ( 'NONE', #240 ) ;
#439 = EDGE_CURVE ( 'NONE', #114, #170, #357, .T. ) ;
#440 = CARTESIAN_POINT ( 'NONE',  ( 14.70000000000004547, 12.05999999999998806, 46.07999999999999119 ) ) ;
#441 = ORIENTED_EDGE ( 'NONE', *, *, #468, .F. ) ;
#442 = SECURITY_CLASSIFICATION_LEVEL ( 'unclassified' ) ;
#443 = ORIENTED_EDGE ( 'NONE', *, *, #207, .T. ) ;
#444 = PERSON_AND_ORGANIZATION_ROLE ( 'design_owner' ) ;
#445 = ORIENTED_EDGE ( 'NONE', *, *, #274, .T. ) ;
#446 = APPROVAL_ROLE ( '' ) ;
#447 = ADVANCED_FACE ( 'NONE', ( #321 ), #242, .F. ) ;
#448 = VECTOR ( 'NONE', #102, 1000.000000000000000 ) ;
#449 = EDGE_CURVE ( 'NONE', #114, #438, #418, .T. ) ;
#450 = ORIENTED_EDGE ( 'NONE', *, *, #404, .F. ) ;
#451 = FACE_OUTER_BOUND ( 'NONE', #28, .T. ) ;
#452 = EDGE_LOOP ( 'NONE', ( #443, #149, #32, #420 ) ) ;
#453 = AXIS2_PLACEMENT_3D ( 'NONE', #402, #129, #205 ) ;
#454 = CARTESIAN_POINT ( 'NONE',  ( 27.00000000000004619, 0.000000000000000000, 42.79999999999996874 ) ) ;
#455 = EDGE_CURVE ( 'NONE', #373, #249, #108, .T. ) ;
#456 = VECTOR ( 'NONE', #423, 1000.000000000000000 ) ;
#457 = DIRECTION ( 'NONE',  ( -0.000000000000000000, -0.000000000000000000, 1.000000000000000000 ) ) ;
#458 = DIRECTION ( 'NONE',  ( -0.000000000000000000, -0.000000000000000000, 1.000000000000000000 ) ) ;
#459 = CARTESIAN_POINT ( 'NONE',  ( -30.00000000000000711, 8.999999999999991118, 41.99999999999999289 ) ) ;
#460 = LINE ( 'NONE', #155, #52 ) ;
#461 = FACE_BOUND ( 'NONE', #70, .T. ) ;
#462 = EDGE_LOOP ( 'NONE', ( #44, #183, #322, #81 ) ) ;
#463 = DIRECTION ( 'NONE',  ( -0.9486832980505138790, -0.1897366596101028036, -0.2529822128134702752 ) ) ;
#464 = CARTESIAN_POINT ( 'NONE',  ( 21.00000000000003908, 3.673940397442060361E-16, 44.39999999999997726 ) ) ;
#465 = EDGE_LOOP ( 'NONE', ( #399, #230, #200, #408 ) ) ;
#466 = DIRECTION ( 'NONE',  ( -0.9662349396012462899, 0.000000000000000000, 0.2576626505603322737 ) ) ;
#467 = ORIENTED_EDGE ( 'NONE', *, *, #274, .F. ) ;
#468 = EDGE_CURVE ( 'NONE', #477, #438, #411, .T. ) ;
#469 = VECTOR ( 'NONE', #71, 1000.000000000000000 ) ;
#470 = DIRECTION ( 'NONE',  ( 1.000000000000000000, 0.000000000000000000, 0.000000000000000000 ) ) ;
#471 = AXIS2_PLACEMENT_3D ( 'NONE', #194, #324, #95 ) ;
#472 = FACE_OUTER_BOUND ( 'NONE', #346, .T. ) ;
#473 = ORIENTED_EDGE ( 'NONE', *, *, #189, .F. ) ;
#474 = CARTESIAN_POINT ( 'NONE',  ( 27.00000000000004974, -6.000000000000000888, 42.79999999999996874 ) ) ;
#475 = ORIENTED_EDGE ( 'NONE', *, *, #144, .F. ) ;
#476 = APPLICATION_PROTOCOL_DEFINITION ( 'international standard', 'config_control_design', 1994, #316 ) ;
#477 = VERTEX_POINT ( 'NONE', #37 ) ;
#478 = AXIS2_PLACEMENT_3D ( 'NONE', #277, #457, #121 ) ;
#479 = CARTESIAN_POINT ( 'NONE',  ( 0.000000000000000000, 0.000000000000000000, 0.000000000000000000 ) ) ;
#480 = ORIENTED_EDGE ( 'NONE', *, *, #430, .T. ) ;
#481 = DIRECTION ( 'NONE',  ( -0.000000000000000000, -0.000000000000000000, 1.000000000000000000 ) ) ;
ENDSEC;
END-ISO-10303-21;
