ISO-10303-21;
HEADER;
FILE_DESCRIPTION (( 'STEP AP203' ),
    '1' );
FILE_NAME ('Part e_Default_sldprt.STEP',
    '2026-09-21T17:22:13',
    ( '' ),
    ( '' ),
    'SwSTEP 2.0',
    'SolidWorks 2021',
    '' );
FILE_SCHEMA (( 'CONFIG_CONTROL_DESIGN' ));
ENDSEC;

DATA;
#1 = ORIENTED_EDGE ( 'NONE', *, *, #41, .T. ) ;
#2 = PERSON_AND_ORGANIZATION ( #108, #96 ) ;
#3 = EDGE_LOOP ( 'NONE', ( #184, #78, #333, #36 ) ) ;
#4 = DATE_AND_TIME ( #296, #140 ) ;
#5 = EDGE_CURVE ( 'NONE', #32, #52, #330, .T. ) ;
#6 = LINE ( 'NONE', #120, #224 ) ;
#7 = DIRECTION ( 'NONE',  ( 0.000000000000000000, 0.000000000000000000, 1.000000000000000000 ) ) ;
#8 = LINE ( 'NONE', #360, #210 ) ;
#9 = SECURITY_CLASSIFICATION ( '', '', #22 ) ;
#10 = VERTEX_POINT ( 'NONE', #246 ) ;
#11 = EDGE_CURVE ( 'NONE', #308, #257, #8, .T. ) ;
#12 = ORIENTED_EDGE ( 'NONE', *, *, #328, .F. ) ;
#13 = DIRECTION ( 'NONE',  ( -0.000000000000000000, -0.000000000000000000, -1.000000000000000000 ) ) ;
#14 = AXIS2_PLACEMENT_3D ( 'NONE', #193, #217, #317 ) ;
#15 = DIRECTION ( 'NONE',  ( -0.000000000000000000, -0.000000000000000000, -1.000000000000000000 ) ) ;
#16 = CARTESIAN_POINT ( 'NONE',  ( 396.3450000000000841, 0.000000000000000000, 0.000000000000000000 ) ) ;
#17 = DIRECTION ( 'NONE',  ( -0.000000000000000000, -0.000000000000000000, -1.000000000000000000 ) ) ;
#18 = CARTESIAN_POINT ( 'NONE',  ( -407.5000000000001137, 10.00000000000000178, 0.000000000000000000 ) ) ;
#19 = LINE ( 'NONE', #127, #230 ) ;
#20 = CIRCLE ( 'NONE', #237, 7.500000000000007105 ) ;
#21 = LINE ( 'NONE', #199, #338 ) ;
#22 = SECURITY_CLASSIFICATION_LEVEL ( 'unclassified' ) ;
#23 = ORIENTED_EDGE ( 'NONE', *, *, #88, .F. ) ;
#24 = FACE_OUTER_BOUND ( 'NONE', #118, .T. ) ;
#25 = CALENDAR_DATE ( 2026, 21, 9 ) ;
#26 = CC_DESIGN_APPROVAL ( #280, ( #384 ) ) ;
#27 = ORIENTED_EDGE ( 'NONE', *, *, #251, .T. ) ;
#28 = CARTESIAN_POINT ( 'NONE',  ( 403.8450000000000841, 9.184850993605173582E-16, 15.00000000000000000 ) ) ;
#29 = APPROVAL_STATUS ( 'not_yet_approved' ) ;
#30 = EDGE_LOOP ( 'NONE', ( #152, #364 ) ) ;
#31 = DIRECTION ( 'NONE',  ( -1.000000000000000000, 0.000000000000000000, 0.000000000000000000 ) ) ;
#32 = VERTEX_POINT ( 'NONE', #148 ) ;
#33 = CIRCLE ( 'NONE', #248, 7.500000000000007105 ) ;
#34 = VERTEX_POINT ( 'NONE', #265 ) ;
#35 = EDGE_CURVE ( 'NONE', #10, #94, #6, .T. ) ;
#36 = ORIENTED_EDGE ( 'NONE', *, *, #161, .T. ) ;
#37 = EDGE_LOOP ( 'NONE', ( #268, #286, #50, #149 ) ) ;
#38 = AXIS2_PLACEMENT_3D ( 'NONE', #44, #157, #252 ) ;
#39 = ORIENTED_EDGE ( 'NONE', *, *, #234, .T. ) ;
#40 = DIRECTION ( 'NONE',  ( -0.000000000000000000, 1.000000000000000000, -0.000000000000000000 ) ) ;
#41 = EDGE_CURVE ( 'NONE', #262, #362, #209, .T. ) ;
#42 = FACE_OUTER_BOUND ( 'NONE', #121, .T. ) ;
#43 = AXIS2_PLACEMENT_3D ( 'NONE', #337, #218, #182 ) ;
#44 = CARTESIAN_POINT ( 'NONE',  ( -396.3450000000000273, 0.000000000000000000, 0.000000000000000000 ) ) ;
#45 = DIRECTION ( 'NONE',  ( -0.000000000000000000, -0.000000000000000000, -1.000000000000000000 ) ) ;
#46 = FACE_OUTER_BOUND ( 'NONE', #62, .T. ) ;
#47 = CARTESIAN_POINT ( 'NONE',  ( 0.000000000000000000, 0.000000000000000000, 15.00000000000000000 ) ) ;
#48 = AXIS2_PLACEMENT_3D ( 'NONE', #219, #191, #129 ) ;
#49 = DIRECTION ( 'NONE',  ( 0.000000000000000000, -0.000000000000000000, -1.000000000000000000 ) ) ;
#50 = ORIENTED_EDGE ( 'NONE', *, *, #361, .T. ) ;
#51 = PERSON_AND_ORGANIZATION ( #108, #96 ) ;
#52 = VERTEX_POINT ( 'NONE', #180 ) ;
#53 = CC_DESIGN_PERSON_AND_ORGANIZATION_ASSIGNMENT ( #235, #138, ( #195 ) ) ;
#54 = EDGE_CURVE ( 'NONE', #322, #355, #71, .T. ) ;
#55 = PERSON_AND_ORGANIZATION ( #108, #96 ) ;
#56 = CLOSED_SHELL ( 'NONE', ( #242, #287, #376, #283, #178, #346, #66, #189, #309, #305 ) ) ;
#57 = EDGE_CURVE ( 'NONE', #334, #84, #269, .T. ) ;
#58 = ORIENTED_EDGE ( 'NONE', *, *, #228, .F. ) ;
#59 = AXIS2_PLACEMENT_3D ( 'NONE', #99, #367, #49 ) ;
#60 = DIRECTION ( 'NONE',  ( -0.000000000000000000, -0.000000000000000000, -1.000000000000000000 ) ) ;
#61 = AXIS2_PLACEMENT_3D ( 'NONE', #254, #15, #101 ) ;
#62 = EDGE_LOOP ( 'NONE', ( #303, #236, #58, #89 ) ) ;
#63 = ORIENTED_EDGE ( 'NONE', *, *, #293, .T. ) ;
#64 = ORIENTED_EDGE ( 'NONE', *, *, #379, .F. ) ;
#65 = CARTESIAN_POINT ( 'NONE',  ( -407.5000000000001137, 10.00000000000000178, 15.00000000000000000 ) ) ;
#66 = ADVANCED_FACE ( 'NONE', ( #69 ), #100, .F. ) ;
#67 = EDGE_CURVE ( 'NONE', #94, #271, #73, .T. ) ;
#68 = DIRECTION ( 'NONE',  ( 1.000000000000000000, 0.000000000000000000, 0.000000000000000000 ) ) ;
#69 = FACE_OUTER_BOUND ( 'NONE', #213, .T. ) ;
#70 = FACE_BOUND ( 'NONE', #363, .T. ) ;
#71 = CIRCLE ( 'NONE', #200, 7.500000000000007105 ) ;
#72 = CC_DESIGN_APPROVAL ( #93, ( #9 ) ) ;
#73 = LINE ( 'NONE', #377, #102 ) ;
#74 = CARTESIAN_POINT ( 'NONE',  ( 407.4999999999998295, 10.00000000000000178, 15.00000000000000000 ) ) ;
#75 = CARTESIAN_POINT ( 'NONE',  ( -388.8449999999999704, 9.184850993605173582E-16, 0.000000000000000000 ) ) ;
#76 = CYLINDRICAL_SURFACE ( 'NONE', #61, 7.500000000000007105 ) ;
#77 = SHAPE_DEFINITION_REPRESENTATION ( #299, #266 ) ;
#78 = ORIENTED_EDGE ( 'NONE', *, *, #5, .F. ) ;
#79 = PERSON_AND_ORGANIZATION_ROLE ( 'design_owner' ) ;
#80 = CALENDAR_DATE ( 2026, 21, 9 ) ;
#81 = VECTOR ( 'NONE', #146, 1000.000000000000000 ) ;
#82 = ORIENTED_EDGE ( 'NONE', *, *, #41, .F. ) ;
#83 = DATE_AND_TIME ( #297, #270 ) ;
#84 = VERTEX_POINT ( 'NONE', #250 ) ;
#85 = DIRECTION ( 'NONE',  ( -1.000000000000000000, -0.000000000000000000, -0.000000000000000000 ) ) ;
#86 = APPROVAL_PERSON_ORGANIZATION ( #55, #280, #385 ) ;
#87 = DIRECTION ( 'NONE',  ( 1.000000000000000000, 0.000000000000000000, 0.000000000000000000 ) ) ;
#88 = EDGE_CURVE ( 'NONE', #257, #362, #33, .T. ) ;
#89 = ORIENTED_EDGE ( 'NONE', *, *, #5, .T. ) ;
#90 = EDGE_CURVE ( 'NONE', #34, #52, #223, .T. ) ;
#91 = ORIENTED_EDGE ( 'NONE', *, *, #161, .F. ) ;
#92 = MANIFOLD_SOLID_BREP ( 'Boss-Extrude1', #56 ) ;
#93 = APPROVAL ( #110, 'UNSPECIFIED' ) ;
#94 = VERTEX_POINT ( 'NONE', #65 ) ;
#95 = FACE_OUTER_BOUND ( 'NONE', #243, .T. ) ;
#96 = ORGANIZATION ( 'UNSPECIFIED', 'UNSPECIFIED', '' ) ;
#97 = DIRECTION ( 'NONE',  ( 0.000000000000000000, -1.000000000000000000, 0.000000000000000000 ) ) ;
#98 = CARTESIAN_POINT ( 'NONE',  ( -407.5000000000001137, -10.00000000000000178, 15.00000000000000000 ) ) ;
#99 = CARTESIAN_POINT ( 'NONE',  ( -407.5000000000001137, 10.00000000000000178, 15.00000000000000000 ) ) ;
#100 = PLANE ( 'NONE',  #48 ) ;
#101 = DIRECTION ( 'NONE',  ( -1.000000000000000000, 0.000000000000000000, 0.000000000000000000 ) ) ;
#102 = VECTOR ( 'NONE', #13, 1000.000000000000000 ) ;
#103 = LINE ( 'NONE', #347, #81 ) ;
#104 = DIRECTION ( 'NONE',  ( -1.000000000000000000, 0.000000000000000000, 0.000000000000000000 ) ) ;
#105 = DATE_TIME_ROLE ( 'classification_date' ) ;
#106 = APPROVAL ( #29, 'UNSPECIFIED' ) ;
#107 = EDGE_LOOP ( 'NONE', ( #123, #168, #290, #113 ) ) ;
#108 = PERSON ( 'UNSPECIFIED', 'UNSPECIFIED', 'UNSPECIFIED', ('UNSPECIFIED'), ('UNSPECIFIED'), ('UNSPECIFIED') ) ;
#109 =( GEOMETRIC_REPRESENTATION_CONTEXT ( 3 ) GLOBAL_UNCERTAINTY_ASSIGNED_CONTEXT ( ( #177 ) ) GLOBAL_UNIT_ASSIGNED_CONTEXT ( ( #220, #311, #323 ) ) REPRESENTATION_CONTEXT ( 'NONE', 'WORKASPACE' ) );
#110 = APPROVAL_STATUS ( 'not_yet_approved' ) ;
#111 = DIRECTION ( 'NONE',  ( 0.000000000000000000, 0.000000000000000000, 1.000000000000000000 ) ) ;
#112 = DIRECTION ( 'NONE',  ( 1.000000000000000000, 0.000000000000000000, 0.000000000000000000 ) ) ;
#113 = ORIENTED_EDGE ( 'NONE', *, *, #288, .T. ) ;
#114 = PRODUCT_RELATED_PRODUCT_CATEGORY ( 'detail', '', ( #357 ) ) ;
#115 = APPLICATION_PROTOCOL_DEFINITION ( 'international standard', 'config_control_design', 1994, #187 ) ;
#116 = APPROVAL_STATUS ( 'not_yet_approved' ) ;
#117 = VECTOR ( 'NONE', #165, 1000.000000000000000 ) ;
#118 = EDGE_LOOP ( 'NONE', ( #383, #1, #23, #302 ) ) ;
#119 = CARTESIAN_POINT ( 'NONE',  ( -407.5000000000001137, -10.00000000000000178, 15.00000000000000000 ) ) ;
#120 = CARTESIAN_POINT ( 'NONE',  ( -407.5000000000001137, 10.00000000000000178, 15.00000000000000000 ) ) ;
#121 = EDGE_LOOP ( 'NONE', ( #82, #63, #240, #145 ) ) ;
#122 = AXIS2_PLACEMENT_3D ( 'NONE', #263, #167, #112 ) ;
#123 = ORIENTED_EDGE ( 'NONE', *, *, #328, .T. ) ;
#124 = LINE ( 'NONE', #172, #382 ) ;
#125 = ORIENTED_EDGE ( 'NONE', *, *, #361, .F. ) ;
#126 = DIRECTION ( 'NONE',  ( 0.000000000000000000, 0.000000000000000000, 1.000000000000000000 ) ) ;
#127 = CARTESIAN_POINT ( 'NONE',  ( -407.5000000000001137, 10.00000000000000178, 0.000000000000000000 ) ) ;
#128 = FACE_BOUND ( 'NONE', #30, .T. ) ;
#129 = DIRECTION ( 'NONE',  ( -0.000000000000000000, 0.000000000000000000, -1.000000000000000000 ) ) ;
#130 = FACE_OUTER_BOUND ( 'NONE', #37, .T. ) ;
#131 = DIRECTION ( 'NONE',  ( 0.000000000000000000, 0.000000000000000000, 1.000000000000000000 ) ) ;
#132 = LINE ( 'NONE', #74, #229 ) ;
#133 = LINE ( 'NONE', #253, #320 ) ;
#134 = DIRECTION ( 'NONE',  ( -1.000000000000000000, -0.000000000000000000, -0.000000000000000000 ) ) ;
#135 = AXIS2_PLACEMENT_3D ( 'NONE', #225, #17, #372 ) ;
#136 = PLANE ( 'NONE',  #307 ) ;
#137 = EDGE_CURVE ( 'NONE', #308, #262, #326, .T. ) ;
#138 = PERSON_AND_ORGANIZATION_ROLE ( 'design_supplier' ) ;
#139 = CARTESIAN_POINT ( 'NONE',  ( 396.3450000000000841, 0.000000000000000000, 15.00000000000000000 ) ) ;
#140 = LOCAL_TIME ( 22, 52, 13.00000000000000000, #205 ) ;
#141 = COORDINATED_UNIVERSAL_TIME_OFFSET ( 5, 30, .AHEAD. ) ;
#142 = CARTESIAN_POINT ( 'NONE',  ( -396.3450000000000273, 0.000000000000000000, 0.000000000000000000 ) ) ;
#143 = PERSON_AND_ORGANIZATION_ROLE ( 'classification_officer' ) ;
#144 = COORDINATED_UNIVERSAL_TIME_OFFSET ( 5, 30, .AHEAD. ) ;
#145 = ORIENTED_EDGE ( 'NONE', *, *, #274, .F. ) ;
#146 = DIRECTION ( 'NONE',  ( -0.000000000000000000, -0.000000000000000000, -1.000000000000000000 ) ) ;
#147 = VECTOR ( 'NONE', #291, 1000.000000000000000 ) ;
#148 = CARTESIAN_POINT ( 'NONE',  ( 407.4999999999998295, -10.00000000000000178, 15.00000000000000000 ) ) ;
#149 = ORIENTED_EDGE ( 'NONE', *, *, #57, .F. ) ;
#150 = ORIENTED_EDGE ( 'NONE', *, *, #35, .T. ) ;
#151 = CIRCLE ( 'NONE', #373, 7.500000000000007105 ) ;
#152 = ORIENTED_EDGE ( 'NONE', *, *, #88, .T. ) ;
#153 = CC_DESIGN_PERSON_AND_ORGANIZATION_ASSIGNMENT ( #239, #201, ( #195 ) ) ;
#154 = EDGE_LOOP ( 'NONE', ( #211, #150, #304, #39 ) ) ;
#155 = CARTESIAN_POINT ( 'NONE',  ( 407.4999999999998295, 10.00000000000000178, 0.000000000000000000 ) ) ;
#156 = DIRECTION ( 'NONE',  ( 1.000000000000000000, 0.000000000000000000, 0.000000000000000000 ) ) ;
#157 = DIRECTION ( 'NONE',  ( 0.000000000000000000, 0.000000000000000000, 1.000000000000000000 ) ) ;
#158 = CARTESIAN_POINT ( 'NONE',  ( 0.000000000000000000, 0.000000000000000000, 0.000000000000000000 ) ) ;
#159 = DIRECTION ( 'NONE',  ( 1.000000000000000000, 0.000000000000000000, 0.000000000000000000 ) ) ;
#160 = CARTESIAN_POINT ( 'NONE',  ( 388.8450000000000273, 0.000000000000000000, 15.00000000000000000 ) ) ;
#161 = EDGE_CURVE ( 'NONE', #245, #34, #162, .T. ) ;
#162 = LINE ( 'NONE', #374, #301 ) ;
#163 = CARTESIAN_POINT ( 'NONE',  ( -396.3450000000000273, 0.000000000000000000, 15.00000000000000000 ) ) ;
#164 = AXIS2_PLACEMENT_3D ( 'NONE', #158, #345, #156 ) ;
#165 = DIRECTION ( 'NONE',  ( -0.000000000000000000, -0.000000000000000000, -1.000000000000000000 ) ) ;
#166 = ORIENTED_EDGE ( 'NONE', *, *, #233, .T. ) ;
#167 = DIRECTION ( 'NONE',  ( 0.000000000000000000, 0.000000000000000000, 1.000000000000000000 ) ) ;
#168 = ORIENTED_EDGE ( 'NONE', *, *, #67, .F. ) ;
#169 = LINE ( 'NONE', #119, #147 ) ;
#170 = APPLICATION_PROTOCOL_DEFINITION ( 'international standard', 'config_control_design', 1994, #335 ) ;
#171 = VERTEX_POINT ( 'NONE', #155 ) ;
#172 = CARTESIAN_POINT ( 'NONE',  ( 407.4999999999998295, 10.00000000000000178, 0.000000000000000000 ) ) ;
#173 = VECTOR ( 'NONE', #241, 1000.000000000000000 ) ;
#174 = APPROVAL_DATE_TIME ( #203, #280 ) ;
#175 = APPROVAL_ROLE ( '' ) ;
#176 = DIRECTION ( 'NONE',  ( -0.000000000000000000, -0.000000000000000000, -1.000000000000000000 ) ) ;
#177 = UNCERTAINTY_MEASURE_WITH_UNIT (LENGTH_MEASURE( 1.000000000000000082E-05 ), #220, 'distance_accuracy_value', 'NONE');
#178 = ADVANCED_FACE ( 'NONE', ( #46 ), #344, .F. ) ;
#179 = CIRCLE ( 'NONE', #43, 7.500000000000007105 ) ;
#180 = CARTESIAN_POINT ( 'NONE',  ( 407.4999999999998295, -10.00000000000000178, 0.000000000000000000 ) ) ;
#181 = ORIENTED_EDGE ( 'NONE', *, *, #54, .F. ) ;
#182 = DIRECTION ( 'NONE',  ( 1.000000000000000000, 0.000000000000000000, 0.000000000000000000 ) ) ;
#183 = EDGE_CURVE ( 'NONE', #355, #322, #151, .T. ) ;
#184 = ORIENTED_EDGE ( 'NONE', *, *, #90, .T. ) ;
#185 = CIRCLE ( 'NONE', #351, 7.500000000000007105 ) ;
#186 = EDGE_LOOP ( 'NONE', ( #336, #166, #227, #125 ) ) ;
#187 = APPLICATION_CONTEXT ( 'configuration controlled 3d designs of mechanical parts and assemblies' ) ;
#188 = LOCAL_TIME ( 22, 52, 13.00000000000000000, #141 ) ;
#189 = ADVANCED_FACE ( 'NONE', ( #281 ), #277, .F. ) ;
#190 = DIRECTION ( 'NONE',  ( 0.000000000000000000, -1.000000000000000000, 0.000000000000000000 ) ) ;
#191 = DIRECTION ( 'NONE',  ( 1.000000000000000000, 0.000000000000000000, -0.000000000000000000 ) ) ;
#192 = CC_DESIGN_DATE_AND_TIME_ASSIGNMENT ( #358, #105, ( #9 ) ) ;
#193 = CARTESIAN_POINT ( 'NONE',  ( 407.4999999999998295, 10.00000000000000178, 15.00000000000000000 ) ) ;
#194 = FACE_BOUND ( 'NONE', #247, .T. ) ;
#195 = PRODUCT_DEFINITION_FORMATION_WITH_SPECIFIED_SOURCE ( 'ANY', '', #357, .NOT_KNOWN. ) ;
#196 = DIRECTION ( 'NONE',  ( 1.000000000000000000, 0.000000000000000000, 0.000000000000000000 ) ) ;
#197 = DIRECTION ( 'NONE',  ( -0.000000000000000000, -0.000000000000000000, -1.000000000000000000 ) ) ;
#198 = PLANE ( 'NONE',  #59 ) ;
#199 = CARTESIAN_POINT ( 'NONE',  ( -407.5000000000001137, 10.00000000000000178, 15.00000000000000000 ) ) ;
#200 = AXIS2_PLACEMENT_3D ( 'NONE', #267, #7, #87 ) ;
#201 = PERSON_AND_ORGANIZATION_ROLE ( 'creator' ) ;
#202 = EDGE_LOOP ( 'NONE', ( #27, #259 ) ) ;
#203 = DATE_AND_TIME ( #256, #312 ) ;
#204 = DIRECTION ( 'NONE',  ( 1.000000000000000000, 0.000000000000000000, 0.000000000000000000 ) ) ;
#205 = COORDINATED_UNIVERSAL_TIME_OFFSET ( 5, 30, .AHEAD. ) ;
#206 = CYLINDRICAL_SURFACE ( 'NONE', #285, 7.500000000000007105 ) ;
#207 = PERSON_AND_ORGANIZATION ( #108, #96 ) ;
#208 = APPROVAL_DATE_TIME ( #83, #93 ) ;
#209 = LINE ( 'NONE', #331, #366 ) ;
#210 = VECTOR ( 'NONE', #176, 1000.000000000000000 ) ;
#211 = ORIENTED_EDGE ( 'NONE', *, *, #228, .T. ) ;
#212 = CC_DESIGN_PERSON_AND_ORGANIZATION_ASSIGNMENT ( #51, #292, ( #384 ) ) ;
#213 = EDGE_LOOP ( 'NONE', ( #231, #91, #64, #273 ) ) ;
#214 = EDGE_CURVE ( 'NONE', #271, #34, #341, .T. ) ;
#215 = ORIENTED_EDGE ( 'NONE', *, *, #260, .F. ) ;
#216 = AXIS2_PLACEMENT_3D ( 'NONE', #310, #371, #68 ) ;
#217 = DIRECTION ( 'NONE',  ( -1.000000000000000000, 0.000000000000000000, 0.000000000000000000 ) ) ;
#218 = DIRECTION ( 'NONE',  ( 0.000000000000000000, 0.000000000000000000, 1.000000000000000000 ) ) ;
#219 = CARTESIAN_POINT ( 'NONE',  ( -407.5000000000001137, 10.00000000000000178, 15.00000000000000000 ) ) ;
#220 =( LENGTH_UNIT ( ) NAMED_UNIT ( * ) SI_UNIT ( .MILLI., .METRE. ) );
#221 = DIRECTION ( 'NONE',  ( 0.000000000000000000, -0.000000000000000000, 1.000000000000000000 ) ) ;
#222 = LINE ( 'NONE', #319, #117 ) ;
#223 = LINE ( 'NONE', #340, #255 ) ;
#224 = VECTOR ( 'NONE', #85, 1000.000000000000000 ) ;
#225 = CARTESIAN_POINT ( 'NONE',  ( -396.3450000000000273, 0.000000000000000000, 15.00000000000000000 ) ) ;
#226 = FACE_OUTER_BOUND ( 'NONE', #186, .T. ) ;
#227 = ORIENTED_EDGE ( 'NONE', *, *, #251, .F. ) ;
#228 = EDGE_CURVE ( 'NONE', #32, #10, #133, .T. ) ;
#229 = VECTOR ( 'NONE', #369, 1000.000000000000000 ) ;
#230 = VECTOR ( 'NONE', #134, 1000.000000000000000 ) ;
#231 = ORIENTED_EDGE ( 'NONE', *, *, #214, .T. ) ;
#232 = DIRECTION ( 'NONE',  ( -0.000000000000000000, -0.000000000000000000, -1.000000000000000000 ) ) ;
#233 = EDGE_CURVE ( 'NONE', #322, #334, #103, .T. ) ;
#234 = EDGE_CURVE ( 'NONE', #245, #32, #169, .T. ) ;
#235 = PERSON_AND_ORGANIZATION ( #108, #96 ) ;
#236 = ORIENTED_EDGE ( 'NONE', *, *, #288, .F. ) ;
#237 = AXIS2_PLACEMENT_3D ( 'NONE', #378, #316, #278 ) ;
#238 = CC_DESIGN_DATE_AND_TIME_ASSIGNMENT ( #4, #258, ( #384 ) ) ;
#239 = PERSON_AND_ORGANIZATION ( #108, #96 ) ;
#240 = ORIENTED_EDGE ( 'NONE', *, *, #11, .T. ) ;
#241 = DIRECTION ( 'NONE',  ( -0.000000000000000000, -0.000000000000000000, -1.000000000000000000 ) ) ;
#242 = ADVANCED_FACE ( 'NONE', ( #24 ), #206, .F. ) ;
#243 = EDGE_LOOP ( 'NONE', ( #215, #380, #352, #12 ) ) ;
#244 = APPROVAL_PERSON_ORGANIZATION ( #329, #106, #289 ) ;
#245 = VERTEX_POINT ( 'NONE', #261 ) ;
#246 = CARTESIAN_POINT ( 'NONE',  ( 407.4999999999998295, 10.00000000000000178, 15.00000000000000000 ) ) ;
#247 = EDGE_LOOP ( 'NONE', ( #359, #300 ) ) ;
#248 = AXIS2_PLACEMENT_3D ( 'NONE', #16, #131, #368 ) ;
#249 = CARTESIAN_POINT ( 'NONE',  ( -403.8450000000000273, 0.000000000000000000, 15.00000000000000000 ) ) ;
#250 = CARTESIAN_POINT ( 'NONE',  ( -403.8450000000000273, 0.000000000000000000, 0.000000000000000000 ) ) ;
#251 = EDGE_CURVE ( 'NONE', #84, #334, #185, .T. ) ;
#252 = DIRECTION ( 'NONE',  ( 1.000000000000000000, 0.000000000000000000, 0.000000000000000000 ) ) ;
#253 = CARTESIAN_POINT ( 'NONE',  ( 407.4999999999998295, 10.00000000000000178, 15.00000000000000000 ) ) ;
#254 = CARTESIAN_POINT ( 'NONE',  ( 396.3450000000000841, 0.000000000000000000, 15.00000000000000000 ) ) ;
#255 = VECTOR ( 'NONE', #196, 1000.000000000000000 ) ;
#256 = CALENDAR_DATE ( 2026, 21, 9 ) ;
#257 = VERTEX_POINT ( 'NONE', #324 ) ;
#258 = DATE_TIME_ROLE ( 'creation_date' ) ;
#259 = ORIENTED_EDGE ( 'NONE', *, *, #57, .T. ) ;
#260 = EDGE_CURVE ( 'NONE', #52, #171, #124, .T. ) ;
#261 = CARTESIAN_POINT ( 'NONE',  ( -407.5000000000001137, -10.00000000000000178, 15.00000000000000000 ) ) ;
#262 = VERTEX_POINT ( 'NONE', #28 ) ;
#263 = CARTESIAN_POINT ( 'NONE',  ( 0.000000000000000000, 0.000000000000000000, 0.000000000000000000 ) ) ;
#264 = VECTOR ( 'NONE', #190, 1000.000000000000000 ) ;
#265 = CARTESIAN_POINT ( 'NONE',  ( -407.5000000000001137, -10.00000000000000178, 0.000000000000000000 ) ) ;
#266 = ADVANCED_BREP_SHAPE_REPRESENTATION ( 'Part e_Default_sldprt', ( #92, #122 ), #109 ) ;
#267 = CARTESIAN_POINT ( 'NONE',  ( -396.3450000000000273, 0.000000000000000000, 15.00000000000000000 ) ) ;
#268 = ORIENTED_EDGE ( 'NONE', *, *, #233, .F. ) ;
#269 = CIRCLE ( 'NONE', #38, 7.500000000000007105 ) ;
#270 = LOCAL_TIME ( 22, 52, 13.00000000000000000, #321 ) ;
#271 = VERTEX_POINT ( 'NONE', #306 ) ;
#272 = DESIGN_CONTEXT ( 'detailed design', #187, 'design' ) ;
#273 = ORIENTED_EDGE ( 'NONE', *, *, #67, .T. ) ;
#274 = EDGE_CURVE ( 'NONE', #362, #257, #179, .T. ) ;
#275 = FACE_BOUND ( 'NONE', #202, .T. ) ;
#276 = CC_DESIGN_SECURITY_CLASSIFICATION ( #9, ( #195 ) ) ;
#277 = PLANE ( 'NONE',  #356 ) ;
#278 = DIRECTION ( 'NONE',  ( 1.000000000000000000, 0.000000000000000000, 0.000000000000000000 ) ) ;
#279 = CYLINDRICAL_SURFACE ( 'NONE', #135, 7.500000000000007105 ) ;
#280 = APPROVAL ( #116, 'UNSPECIFIED' ) ;
#281 = FACE_OUTER_BOUND ( 'NONE', #3, .T. ) ;
#282 = CARTESIAN_POINT ( 'NONE',  ( -388.8449999999999704, 9.184850993605173582E-16, 15.00000000000000000 ) ) ;
#283 = ADVANCED_FACE ( 'NONE', ( #95, #275, #128 ), #375, .F. ) ;
#284 = DIRECTION ( 'NONE',  ( 1.000000000000000000, 0.000000000000000000, 0.000000000000000000 ) ) ;
#285 = AXIS2_PLACEMENT_3D ( 'NONE', #139, #232, #31 ) ;
#286 = ORIENTED_EDGE ( 'NONE', *, *, #54, .T. ) ;
#287 = ADVANCED_FACE ( 'NONE', ( #226 ), #279, .F. ) ;
#288 = EDGE_CURVE ( 'NONE', #10, #171, #132, .T. ) ;
#289 = APPROVAL_ROLE ( '' ) ;
#290 = ORIENTED_EDGE ( 'NONE', *, *, #35, .F. ) ;
#291 = DIRECTION ( 'NONE',  ( 1.000000000000000000, 0.000000000000000000, 0.000000000000000000 ) ) ;
#292 = PERSON_AND_ORGANIZATION_ROLE ( 'creator' ) ;
#293 = EDGE_CURVE ( 'NONE', #262, #308, #20, .T. ) ;
#294 = LOCAL_TIME ( 22, 52, 13.00000000000000000, #381 ) ;
#295 = DIRECTION ( 'NONE',  ( -0.000000000000000000, 1.000000000000000000, -0.000000000000000000 ) ) ;
#296 = CALENDAR_DATE ( 2026, 21, 9 ) ;
#297 = CALENDAR_DATE ( 2026, 21, 9 ) ;
#298 = ORIENTED_EDGE ( 'NONE', *, *, #183, .F. ) ;
#299 = PRODUCT_DEFINITION_SHAPE ( 'NONE', 'NONE',  #384 ) ;
#300 = ORIENTED_EDGE ( 'NONE', *, *, #293, .F. ) ;
#301 = VECTOR ( 'NONE', #197, 1000.000000000000000 ) ;
#302 = ORIENTED_EDGE ( 'NONE', *, *, #11, .F. ) ;
#303 = ORIENTED_EDGE ( 'NONE', *, *, #260, .T. ) ;
#304 = ORIENTED_EDGE ( 'NONE', *, *, #379, .T. ) ;
#305 = ADVANCED_FACE ( 'NONE', ( #42 ), #76, .F. ) ;
#306 = CARTESIAN_POINT ( 'NONE',  ( -407.5000000000001137, 10.00000000000000178, 0.000000000000000000 ) ) ;
#307 = AXIS2_PLACEMENT_3D ( 'NONE', #47, #315, #284 ) ;
#308 = VERTEX_POINT ( 'NONE', #160 ) ;
#309 = ADVANCED_FACE ( 'NONE', ( #130 ), #348, .F. ) ;
#310 = CARTESIAN_POINT ( 'NONE',  ( 396.3450000000000841, 0.000000000000000000, 15.00000000000000000 ) ) ;
#311 =( NAMED_UNIT ( * ) PLANE_ANGLE_UNIT ( ) SI_UNIT ( $, .RADIAN. ) );
#312 = LOCAL_TIME ( 22, 52, 13.00000000000000000, #144 ) ;
#313 = APPROVAL_PERSON_ORGANIZATION ( #207, #93, #175 ) ;
#314 = CARTESIAN_POINT ( 'NONE',  ( -396.3450000000000273, 0.000000000000000000, 15.00000000000000000 ) ) ;
#315 = DIRECTION ( 'NONE',  ( -0.000000000000000000, 0.000000000000000000, 1.000000000000000000 ) ) ;
#316 = DIRECTION ( 'NONE',  ( 0.000000000000000000, 0.000000000000000000, 1.000000000000000000 ) ) ;
#317 = DIRECTION ( 'NONE',  ( 0.000000000000000000, 0.000000000000000000, 1.000000000000000000 ) ) ;
#318 = FACE_OUTER_BOUND ( 'NONE', #154, .T. ) ;
#319 = CARTESIAN_POINT ( 'NONE',  ( -403.8450000000000273, 0.000000000000000000, 15.00000000000000000 ) ) ;
#320 = VECTOR ( 'NONE', #40, 1000.000000000000000 ) ;
#321 = COORDINATED_UNIVERSAL_TIME_OFFSET ( 5, 30, .AHEAD. ) ;
#322 = VERTEX_POINT ( 'NONE', #282 ) ;
#323 =( NAMED_UNIT ( * ) SI_UNIT ( $, .STERADIAN. ) SOLID_ANGLE_UNIT ( ) );
#324 = CARTESIAN_POINT ( 'NONE',  ( 388.8450000000000273, 0.000000000000000000, 0.000000000000000000 ) ) ;
#325 = MECHANICAL_CONTEXT ( 'NONE', #335, 'mechanical' ) ;
#326 = CIRCLE ( 'NONE', #216, 7.500000000000007105 ) ;
#327 = DATE_AND_TIME ( #25, #294 ) ;
#328 = EDGE_CURVE ( 'NONE', #171, #271, #19, .T. ) ;
#329 = PERSON_AND_ORGANIZATION ( #108, #96 ) ;
#330 = LINE ( 'NONE', #365, #173 ) ;
#331 = CARTESIAN_POINT ( 'NONE',  ( 403.8450000000000841, 9.184850993605165694E-16, 15.00000000000000000 ) ) ;
#332 = AXIS2_PLACEMENT_3D ( 'NONE', #163, #45, #104 ) ;
#333 = ORIENTED_EDGE ( 'NONE', *, *, #234, .F. ) ;
#334 = VERTEX_POINT ( 'NONE', #75 ) ;
#335 = APPLICATION_CONTEXT ( 'configuration controlled 3d designs of mechanical parts and assemblies' ) ;
#336 = ORIENTED_EDGE ( 'NONE', *, *, #183, .T. ) ;
#337 = CARTESIAN_POINT ( 'NONE',  ( 396.3450000000000841, 0.000000000000000000, 0.000000000000000000 ) ) ;
#338 = VECTOR ( 'NONE', #97, 1000.000000000000000 ) ;
#339 = DIRECTION ( 'NONE',  ( 0.000000000000000000, 1.000000000000000000, 0.000000000000000000 ) ) ;
#340 = CARTESIAN_POINT ( 'NONE',  ( -407.5000000000001137, -10.00000000000000178, 0.000000000000000000 ) ) ;
#341 = LINE ( 'NONE', #18, #264 ) ;
#342 = CARTESIAN_POINT ( 'NONE',  ( 403.8450000000000841, 9.184850993605173582E-16, 0.000000000000000000 ) ) ;
#343 = CC_DESIGN_APPROVAL ( #106, ( #195 ) ) ;
#344 = PLANE ( 'NONE',  #14 ) ;
#345 = DIRECTION ( 'NONE',  ( -0.000000000000000000, 0.000000000000000000, 1.000000000000000000 ) ) ;
#346 = ADVANCED_FACE ( 'NONE', ( #349 ), #198, .F. ) ;
#347 = CARTESIAN_POINT ( 'NONE',  ( -388.8449999999999704, 9.184850993605165694E-16, 15.00000000000000000 ) ) ;
#348 = CYLINDRICAL_SURFACE ( 'NONE', #332, 7.500000000000007105 ) ;
#349 = FACE_OUTER_BOUND ( 'NONE', #107, .T. ) ;
#350 = APPROVAL_DATE_TIME ( #327, #106 ) ;
#351 = AXIS2_PLACEMENT_3D ( 'NONE', #142, #111, #204 ) ;
#352 = ORIENTED_EDGE ( 'NONE', *, *, #214, .F. ) ;
#353 = CC_DESIGN_PERSON_AND_ORGANIZATION_ASSIGNMENT ( #2, #79, ( #357 ) ) ;
#354 = PERSON_AND_ORGANIZATION ( #108, #96 ) ;
#355 = VERTEX_POINT ( 'NONE', #249 ) ;
#356 = AXIS2_PLACEMENT_3D ( 'NONE', #98, #339, #221 ) ;
#357 = PRODUCT ( 'Part e_Default_sldprt', 'Part e_Default_sldprt', '', ( #325 ) ) ;
#358 = DATE_AND_TIME ( #80, #188 ) ;
#359 = ORIENTED_EDGE ( 'NONE', *, *, #137, .F. ) ;
#360 = CARTESIAN_POINT ( 'NONE',  ( 388.8450000000000273, 0.000000000000000000, 15.00000000000000000 ) ) ;
#361 = EDGE_CURVE ( 'NONE', #355, #84, #222, .T. ) ;
#362 = VERTEX_POINT ( 'NONE', #342 ) ;
#363 = EDGE_LOOP ( 'NONE', ( #298, #181 ) ) ;
#364 = ORIENTED_EDGE ( 'NONE', *, *, #274, .T. ) ;
#365 = CARTESIAN_POINT ( 'NONE',  ( 407.4999999999998295, -10.00000000000000178, 15.00000000000000000 ) ) ;
#366 = VECTOR ( 'NONE', #60, 1000.000000000000000 ) ;
#367 = DIRECTION ( 'NONE',  ( 0.000000000000000000, -1.000000000000000000, 0.000000000000000000 ) ) ;
#368 = DIRECTION ( 'NONE',  ( 1.000000000000000000, 0.000000000000000000, 0.000000000000000000 ) ) ;
#369 = DIRECTION ( 'NONE',  ( -0.000000000000000000, -0.000000000000000000, -1.000000000000000000 ) ) ;
#370 = CC_DESIGN_PERSON_AND_ORGANIZATION_ASSIGNMENT ( #354, #143, ( #9 ) ) ;
#371 = DIRECTION ( 'NONE',  ( 0.000000000000000000, 0.000000000000000000, 1.000000000000000000 ) ) ;
#372 = DIRECTION ( 'NONE',  ( -1.000000000000000000, 0.000000000000000000, 0.000000000000000000 ) ) ;
#373 = AXIS2_PLACEMENT_3D ( 'NONE', #314, #126, #159 ) ;
#374 = CARTESIAN_POINT ( 'NONE',  ( -407.5000000000001137, -10.00000000000000178, 15.00000000000000000 ) ) ;
#375 = PLANE ( 'NONE',  #164 ) ;
#376 = ADVANCED_FACE ( 'NONE', ( #70, #318, #194 ), #136, .T. ) ;
#377 = CARTESIAN_POINT ( 'NONE',  ( -407.5000000000001137, 10.00000000000000178, 15.00000000000000000 ) ) ;
#378 = CARTESIAN_POINT ( 'NONE',  ( 396.3450000000000841, 0.000000000000000000, 15.00000000000000000 ) ) ;
#379 = EDGE_CURVE ( 'NONE', #94, #245, #21, .T. ) ;
#380 = ORIENTED_EDGE ( 'NONE', *, *, #90, .F. ) ;
#381 = COORDINATED_UNIVERSAL_TIME_OFFSET ( 5, 30, .AHEAD. ) ;
#382 = VECTOR ( 'NONE', #295, 1000.000000000000000 ) ;
#383 = ORIENTED_EDGE ( 'NONE', *, *, #137, .T. ) ;
#384 = PRODUCT_DEFINITION ( 'UNKNOWN', '', #195, #272 ) ;
#385 = APPROVAL_ROLE ( '' ) ;
ENDSEC;
END-ISO-10303-21;
