ISO-10303-21;
HEADER;
FILE_DESCRIPTION (( 'STEP AP203' ),
    '1' );
FILE_NAME ('Part2_Default_sldprt.STEP',
    '2026-09-19T06:38:27',
    ( '' ),
    ( '' ),
    'SwSTEP 2.0',
    'SolidWorks 2021',
    '' );
FILE_SCHEMA (( 'CONFIG_CONTROL_DESIGN' ));
ENDSEC;

DATA;
#1 = LINE ( 'NONE', #115, #449 ) ;
#2 = EDGE_CURVE ( 'NONE', #28, #453, #218, .T. ) ;
#3 = CARTESIAN_POINT ( 'NONE',  ( -40.00000000000000711, 10.49999999999999112, 46.00000000000001421 ) ) ;
#4 = ORIENTED_EDGE ( 'NONE', *, *, #405, .F. ) ;
#5 = DIRECTION ( 'NONE',  ( -0.000000000000000000, -0.000000000000000000, 1.000000000000000000 ) ) ;
#6 = ORIENTED_EDGE ( 'NONE', *, *, #113, .T. ) ;
#7 = CARTESIAN_POINT ( 'NONE',  ( -29.99999999999999289, 0.000000000000000000, 48.25000000000000711 ) ) ;
#8 = LOCAL_TIME ( 12, 8, 27.00000000000000000, #130 ) ;
#9 = ORIENTED_EDGE ( 'NONE', *, *, #367, .F. ) ;
#10 = CYLINDRICAL_SURFACE ( 'NONE', #412, 3.000000000000002665 ) ;
#11 = CALENDAR_DATE ( 2026, 19, 9 ) ;
#12 = ORIENTED_EDGE ( 'NONE', *, *, #459, .F. ) ;
#13 = ORIENTED_EDGE ( 'NONE', *, *, #155, .T. ) ;
#14 = CARTESIAN_POINT ( 'NONE',  ( -36.00000000000000000, 3.673940397442060854E-16, 8.099999999999988987 ) ) ;
#15 = DESIGN_CONTEXT ( 'detailed design', #260, 'design' ) ;
#16 = DIRECTION ( 'NONE',  ( 1.000000000000000000, 0.000000000000000000, 0.000000000000000000 ) ) ;
#17 = ORIENTED_EDGE ( 'NONE', *, *, #76, .F. ) ;
#18 = ORIENTED_EDGE ( 'NONE', *, *, #311, .F. ) ;
#19 = ADVANCED_FACE ( 'NONE', ( #477, #146 ), #253, .T. ) ;
#20 = CARTESIAN_POINT ( 'NONE',  ( 8.901734104046273188, 15.94219653179192875, 2.002890173410411645 ) ) ;
#21 = EDGE_CURVE ( 'NONE', #279, #135, #38, .T. ) ;
#22 = PLANE ( 'NONE',  #45 ) ;
#23 = ORIENTED_EDGE ( 'NONE', *, *, #396, .F. ) ;
#24 = ADVANCED_FACE ( 'NONE', ( #36, #144 ), #42, .F. ) ;
#25 = DATE_AND_TIME ( #248, #103 ) ;
#26 = VECTOR ( 'NONE', #446, 1000.000000000000000 ) ;
#27 = LINE ( 'NONE', #219, #157 ) ;
#28 = VERTEX_POINT ( 'NONE', #287 ) ;
#29 = CARTESIAN_POINT ( 'NONE',  ( -32.99999999999999289, 0.000000000000000000, -5.499999999999999518E-05 ) ) ;
#30 = PERSON_AND_ORGANIZATION_ROLE ( 'design_supplier' ) ;
#31 = CARTESIAN_POINT ( 'NONE',  ( -20.34682080924855185, 13.93930635838149712, 50.42196531791908853 ) ) ;
#32 = ORIENTED_EDGE ( 'NONE', *, *, #151, .F. ) ;
#33 = CARTESIAN_POINT ( 'NONE',  ( -29.99999999999999289, -6.000000000000000888, 6.749999999999990230 ) ) ;
#34 = CARTESIAN_POINT ( 'NONE',  ( 0.000000000000000000, -37.49999999999999289, 0.000000000000000000 ) ) ;
#35 = FACE_OUTER_BOUND ( 'NONE', #84, .T. ) ;
#36 = FACE_BOUND ( 'NONE', #389, .T. ) ;
#37 = CARTESIAN_POINT ( 'NONE',  ( -29.99999999999999289, 0.000000000000000000, 48.25000000000000711 ) ) ;
#38 =( BOUNDED_CURVE ( )  B_SPLINE_CURVE ( 3, ( #437, #292, #74, #179 ),
 .UNSPECIFIED., .F., .F. ) 
 B_SPLINE_CURVE_WITH_KNOTS ( ( 4, 4 ),
 ( 0.000000000000000000, 3.141592653589793116 ),
 .UNSPECIFIED. ) 
 CURVE ( )  GEOMETRIC_REPRESENTATION_ITEM ( )  RATIONAL_B_SPLINE_CURVE ( ( 1.000000000000000000, 0.3333333333333333703, 0.3333333333333333703, 1.000000000000000000 ) ) 
 REPRESENTATION_ITEM ( '' )  );
#39 = EDGE_CURVE ( 'NONE', #453, #161, #1, .T. ) ;
#40 = VECTOR ( 'NONE', #140, 1000.000000000000000 ) ;
#41 = EDGE_CURVE ( 'NONE', #167, #272, #406, .T. ) ;
#42 = PLANE ( 'NONE',  #288 ) ;
#43 = EDGE_CURVE ( 'NONE', #88, #457, #445, .T. ) ;
#44 = ADVANCED_FACE ( 'NONE', ( #285 ), #328, .F. ) ;
#45 = AXIS2_PLACEMENT_3D ( 'NONE', #326, #245, #476 ) ;
#46 = CARTESIAN_POINT ( 'NONE',  ( 11.77870315288518732, -37.49999999999999289, 52.34979179060082544 ) ) ;
#47 = DIRECTION ( 'NONE',  ( 0.9756097560975609539, 0.000000000000000000, -0.2195121951219512202 ) ) ;
#48 = EDGE_LOOP ( 'NONE', ( #378, #450, #382, #228 ) ) ;
#49 = CARTESIAN_POINT ( 'NONE',  ( 2.971497877501529494, 16.97998787143725608, 55.00000000000000711 ) ) ;
#50 = ORIENTED_EDGE ( 'NONE', *, *, #76, .T. ) ;
#51 = DIRECTION ( 'NONE',  ( -0.9616940736686900859, -0.1682964628920207983, 0.2163811665754552804 ) ) ;
#52 = DIRECTION ( 'NONE',  ( -0.000000000000000000, 1.000000000000000000, -0.000000000000000000 ) ) ;
#53 = DATE_AND_TIME ( #59, #394 ) ;
#54 = EDGE_LOOP ( 'NONE', ( #4, #471, #55, #17 ) ) ;
#55 = ORIENTED_EDGE ( 'NONE', *, *, #153, .T. ) ;
#56 = PERSON_AND_ORGANIZATION ( #478, #257 ) ;
#57 = ORIENTED_EDGE ( 'NONE', *, *, #381, .F. ) ;
#58 = CARTESIAN_POINT ( 'NONE',  ( -39.99999999999999289, -17.49999999999999289, 55.00000000000000000 ) ) ;
#59 = CALENDAR_DATE ( 2026, 19, 9 ) ;
#60 = LINE ( 'NONE', #31, #379 ) ;
#61 = ORIENTED_EDGE ( 'NONE', *, *, #425, .F. ) ;
#62 = UNCERTAINTY_MEASURE_WITH_UNIT (LENGTH_MEASURE( 1.000000000000000082E-05 ), #387, 'distance_accuracy_value', 'NONE');
#63 = APPROVAL_DATE_TIME ( #25, #81 ) ;
#64 = VECTOR ( 'NONE', #51, 1000.000000000000000 ) ;
#65 = LINE ( 'NONE', #318, #369 ) ;
#66 = VERTEX_POINT ( 'NONE', #111 ) ;
#67 = LINE ( 'NONE', #177, #375 ) ;
#68 = CARTESIAN_POINT ( 'NONE',  ( 40.00000000000000000, -10.50000000000000711, 45.99999999999999289 ) ) ;
#69 = FACE_OUTER_BOUND ( 'NONE', #344, .T. ) ;
#70 = PLANE ( 'NONE',  #265 ) ;
#71 = ADVANCED_FACE ( 'NONE', ( #69 ), #75, .F. ) ;
#72 = DIRECTION ( 'NONE',  ( -0.2195121951219509704, 0.000000000000000000, -0.9756097560975610650 ) ) ;
#73 = EDGE_CURVE ( 'NONE', #135, #279, #198, .T. ) ;
#74 = CARTESIAN_POINT ( 'NONE',  ( -36.00000000000000000, -6.000000000000000888, 46.90000000000001279 ) ) ;
#75 = PLANE ( 'NONE',  #337 ) ;
#76 = EDGE_CURVE ( 'NONE', #88, #87, #479, .T. ) ;
#77 = AXIS2_PLACEMENT_3D ( 'NONE', #221, #436, #258 ) ;
#78 = CARTESIAN_POINT ( 'NONE',  ( 40.00000000000002132, 10.49999999999999822, 9.000000000000005329 ) ) ;
#79 =( BOUNDED_CURVE ( )  B_SPLINE_CURVE ( 3, ( #431, #475, #104, #310 ),
 .UNSPECIFIED., .F., .F. ) 
 B_SPLINE_CURVE_WITH_KNOTS ( ( 4, 4 ),
 ( 3.141592653589793116, 6.283185307179586232 ),
 .UNSPECIFIED. ) 
 CURVE ( )  GEOMETRIC_REPRESENTATION_ITEM ( )  RATIONAL_B_SPLINE_CURVE ( ( 1.000000000000000000, 0.3333333333333333703, 0.3333333333333333703, 1.000000000000000000 ) ) 
 REPRESENTATION_ITEM ( '' )  );
#80 = LOCAL_TIME ( 12, 8, 27.00000000000000000, #139 ) ;
#81 = APPROVAL ( #307, 'UNSPECIFIED' ) ;
#82 = AXIS2_PLACEMENT_3D ( 'NONE', #46, #374, #47 ) ;
#83 = CARTESIAN_POINT ( 'NONE',  ( 30.00000000000013145, 8.450062914116843552E-15, 48.24999999999995737 ) ) ;
#84 = EDGE_LOOP ( 'NONE', ( #349, #96, #211, #266 ) ) ;
#85 = DIRECTION ( 'NONE',  ( -0.9616940736686903080, 0.1682964628920200212, -0.2163811665754550029 ) ) ;
#86 = ORIENTED_EDGE ( 'NONE', *, *, #372, .F. ) ;
#87 = VERTEX_POINT ( 'NONE', #330 ) ;
#88 = VERTEX_POINT ( 'NONE', #147 ) ;
#89 = CARTESIAN_POINT ( 'NONE',  ( 40.00000000000002132, -37.49999999999999289, 45.99999999999997158 ) ) ;
#90 = PERSON_AND_ORGANIZATION_ROLE ( 'creator' ) ;
#91 = EDGE_CURVE ( 'NONE', #298, #206, #309, .T. ) ;
#92 = VERTEX_POINT ( 'NONE', #214 ) ;
#93 = CARTESIAN_POINT ( 'NONE',  ( 30.00000000000013500, 6.000000000000011546, 48.24999999999995737 ) ) ;
#94 = PERSON_AND_ORGANIZATION ( #478, #257 ) ;
#95 = CARTESIAN_POINT ( 'NONE',  ( 40.00000000000001421, -37.49999999999999289, 9.000000000000005329 ) ) ;
#96 = ORIENTED_EDGE ( 'NONE', *, *, #372, .T. ) ;
#97 = AXIS2_PLACEMENT_3D ( 'NONE', #397, #352, #178 ) ;
#98 = CARTESIAN_POINT ( 'NONE',  ( 36.00000000000013500, 6.000000000000011546, 46.89999999999996305 ) ) ;
#99 = PERSON_AND_ORGANIZATION_ROLE ( 'design_owner' ) ;
#100 = DIRECTION ( 'NONE',  ( 0.000000000000000000, -1.000000000000000000, 0.000000000000000000 ) ) ;
#101 = PRODUCT ( 'Part2_Default_sldprt', 'Part2_Default_sldprt', '', ( #244 ) ) ;
#102 = EDGE_LOOP ( 'NONE', ( #215, #57, #339, #468 ) ) ;
#103 = LOCAL_TIME ( 12, 8, 27.00000000000000000, #208 ) ;
#104 = CARTESIAN_POINT ( 'NONE',  ( 36.00000000000013500, -5.999999999999995559, 8.100000000000031619 ) ) ;
#105 = EDGE_CURVE ( 'NONE', #457, #319, #134, .T. ) ;
#106 = PLANE ( 'NONE',  #97 ) ;
#107 = DIRECTION ( 'NONE',  ( 0.000000000000000000, 0.000000000000000000, 1.000000000000000000 ) ) ;
#108 = FACE_BOUND ( 'NONE', #364, .T. ) ;
#109 = DIRECTION ( 'NONE',  ( -0.9616940736686899749, 0.1682964628920212979, 0.2163811665754552804 ) ) ;
#110 = ADVANCED_FACE ( 'NONE', ( #35 ), #106, .T. ) ;
#111 = CARTESIAN_POINT ( 'NONE',  ( 7.242470512203169619E-14, -17.49999999999999645, 0.000000000000000000 ) ) ;
#112 = VECTOR ( 'NONE', #173, 1000.000000000000000 ) ;
#113 = EDGE_CURVE ( 'NONE', #161, #386, #65, .T. ) ;
#114 = DIRECTION ( 'NONE',  ( 0.9756097560975609539, 0.000000000000000000, 0.2195121951219512202 ) ) ;
#115 = CARTESIAN_POINT ( 'NONE',  ( 7.242470512203169619E-14, 17.50000000000001066, 55.00000000000000711 ) ) ;
#116 = VECTOR ( 'NONE', #150, 1000.000000000000000 ) ;
#117 = ADVANCED_FACE ( 'NONE', ( #355 ), #22, .F. ) ;
#118 = DIRECTION ( 'NONE',  ( -0.000000000000000000, -0.000000000000000000, 1.000000000000000000 ) ) ;
#119 = CYLINDRICAL_SURFACE ( 'NONE', #455, 3.000000000000002665 ) ;
#120 = APPROVAL_PERSON_ORGANIZATION ( #391, #180, #384 ) ;
#121 = EDGE_LOOP ( 'NONE', ( #462, #137, #353, #86 ) ) ;
#122 = VECTOR ( 'NONE', #52, 1000.000000000000000 ) ;
#123 = LINE ( 'NONE', #268, #213 ) ;
#124 = PRODUCT_DEFINITION_SHAPE ( 'NONE', 'NONE',  #329 ) ;
#125 = EDGE_CURVE ( 'NONE', #298, #279, #27, .T. ) ;
#126 = LINE ( 'NONE', #296, #122 ) ;
#127 = ORIENTED_EDGE ( 'NONE', *, *, #373, .F. ) ;
#128 = ORIENTED_EDGE ( 'NONE', *, *, #39, .F. ) ;
#129 = DIRECTION ( 'NONE',  ( -0.000000000000000000, 1.000000000000000000, -0.000000000000000000 ) ) ;
#130 = COORDINATED_UNIVERSAL_TIME_OFFSET ( 5, 30, .AHEAD. ) ;
#131 = EDGE_LOOP ( 'NONE', ( #276, #421, #192, #284 ) ) ;
#132 =( NAMED_UNIT ( * ) PLANE_ANGLE_UNIT ( ) SI_UNIT ( $, .RADIAN. ) );
#133 = PERSON_AND_ORGANIZATION ( #478, #257 ) ;
#134 = LINE ( 'NONE', #283, #40 ) ;
#135 = VERTEX_POINT ( 'NONE', #181 ) ;
#136 = PERSON_AND_ORGANIZATION ( #478, #257 ) ;
#137 = ORIENTED_EDGE ( 'NONE', *, *, #151, .T. ) ;
#138 = CARTESIAN_POINT ( 'NONE',  ( 7.242470512203169619E-14, 17.50000000000001066, 55.00000000000000711 ) ) ;
#139 = COORDINATED_UNIVERSAL_TIME_OFFSET ( 5, 30, .AHEAD. ) ;
#140 = DIRECTION ( 'NONE',  ( -0.000000000000000000, -0.000000000000000000, 1.000000000000000000 ) ) ;
#141 = AXIS2_PLACEMENT_3D ( 'NONE', #461, #358, #16 ) ;
#142 = DIRECTION ( 'NONE',  ( -0.2195121951219512479, 0.000000000000000000, 0.9756097560975610650 ) ) ;
#143 = CARTESIAN_POINT ( 'NONE',  ( -36.00000000000000000, 3.673940397442060854E-16, 8.099999999999988987 ) ) ;
#144 = FACE_OUTER_BOUND ( 'NONE', #301, .T. ) ;
#145 = PRODUCT_RELATED_PRODUCT_CATEGORY ( 'detail', '', ( #101 ) ) ;
#146 = FACE_OUTER_BOUND ( 'NONE', #102, .T. ) ;
#147 = CARTESIAN_POINT ( 'NONE',  ( 36.00000000000013500, 8.082668874372636530E-15, 8.100000000000031619 ) ) ;
#148 = VECTOR ( 'NONE', #5, 1000.000000000000000 ) ;
#149 = APPLICATION_CONTEXT ( 'configuration controlled 3d designs of mechanical parts and assemblies' ) ;
#150 = DIRECTION ( 'NONE',  ( 0.000000000000000000, 0.000000000000000000, -1.000000000000000000 ) ) ;
#151 = EDGE_CURVE ( 'NONE', #453, #314, #60, .T. ) ;
#152 = EDGE_CURVE ( 'NONE', #206, #298, #340, .T. ) ;
#153 = EDGE_CURVE ( 'NONE', #319, #87, #433, .T. ) ;
#154 = DIRECTION ( 'NONE',  ( 0.000000000000000000, 0.000000000000000000, -1.000000000000000000 ) ) ;
#155 = EDGE_CURVE ( 'NONE', #272, #250, #323, .T. ) ;
#156 = FACE_OUTER_BOUND ( 'NONE', #356, .T. ) ;
#157 = VECTOR ( 'NONE', #278, 1000.000000000000000 ) ;
#158 = ORIENTED_EDGE ( 'NONE', *, *, #183, .T. ) ;
#159 = CARTESIAN_POINT ( 'NONE',  ( -40.00000000000000000, -37.49999999999999289, 46.00000000000000711 ) ) ;
#160 = DIRECTION ( 'NONE',  ( 0.000000000000000000, 1.000000000000000000, 0.000000000000000000 ) ) ;
#161 = VERTEX_POINT ( 'NONE', #175 ) ;
#162 = DIRECTION ( 'NONE',  ( 0.000000000000000000, 0.000000000000000000, -1.000000000000000000 ) ) ;
#163 = COORDINATED_UNIVERSAL_TIME_OFFSET ( 5, 30, .AHEAD. ) ;
#164 = ORIENTED_EDGE ( 'NONE', *, *, #405, .T. ) ;
#165 = APPLICATION_PROTOCOL_DEFINITION ( 'international standard', 'config_control_design', 1994, #260 ) ;
#166 = DIRECTION ( 'NONE',  ( -0.9756097560975609539, 0.000000000000000000, -0.2195121951219509149 ) ) ;
#167 = VERTEX_POINT ( 'NONE', #68 ) ;
#168 = LINE ( 'NONE', #20, #112 ) ;
#169 = VECTOR ( 'NONE', #162, 1000.000000000000000 ) ;
#170 = PERSON_AND_ORGANIZATION_ROLE ( 'classification_officer' ) ;
#171 = DIRECTION ( 'NONE',  ( -0.9616940736686900859, -0.1682964628920209649, -0.2163811665754549474 ) ) ;
#172 = ORIENTED_EDGE ( 'NONE', *, *, #41, .F. ) ;
#173 = DIRECTION ( 'NONE',  ( -0.9616940736686899749, 0.1682964628920212979, -0.2163811665754552804 ) ) ;
#174 = DATE_TIME_ROLE ( 'classification_date' ) ;
#175 = CARTESIAN_POINT ( 'NONE',  ( 7.242470512203169619E-14, 17.50000000000001066, 0.000000000000000000 ) ) ;
#176 = EDGE_LOOP ( 'NONE', ( #127, #336, #303, #158 ) ) ;
#177 = CARTESIAN_POINT ( 'NONE',  ( 3.236994219653168248, -18.06647398843927377, -0.7283236994219618454 ) ) ;
#178 = DIRECTION ( 'NONE',  ( 0.9850304671557043035, -0.1723803317522474010, 0.000000000000000000 ) ) ;
#179 = CARTESIAN_POINT ( 'NONE',  ( -36.00000000000000000, 3.673940397442060854E-16, 46.90000000000001279 ) ) ;
#180 = APPROVAL ( #322, 'UNSPECIFIED' ) ;
#181 = CARTESIAN_POINT ( 'NONE',  ( -36.00000000000000000, 3.673940397442060854E-16, 46.90000000000001279 ) ) ;
#182 = CARTESIAN_POINT ( 'NONE',  ( 36.00000000000013500, 6.000000000000011546, 8.100000000000031619 ) ) ;
#183 = EDGE_CURVE ( 'NONE', #453, #92, #435, .T. ) ;
#184 = DIRECTION ( 'NONE',  ( -0.000000000000000000, -0.000000000000000000, 1.000000000000000000 ) ) ;
#185 = LOCAL_TIME ( 12, 8, 27.00000000000000000, #163 ) ;
#186 = ADVANCED_FACE ( 'NONE', ( #108, #363 ), #70, .F. ) ;
#187 = VECTOR ( 'NONE', #242, 1000.000000000000000 ) ;
#188 = ADVANCED_FACE ( 'NONE', ( #313 ), #249, .F. ) ;
#189 = EDGE_CURVE ( 'NONE', #92, #66, #306, .T. ) ;
#190 = CARTESIAN_POINT ( 'NONE',  ( -40.00000000000000000, -10.50000000000000888, 55.00000000000000711 ) ) ;
#191 = AXIS2_PLACEMENT_3D ( 'NONE', #58, #390, #280 ) ;
#192 = ORIENTED_EDGE ( 'NONE', *, *, #21, .F. ) ;
#193 = EDGE_CURVE ( 'NONE', #385, #386, #126, .T. ) ;
#194 = LINE ( 'NONE', #159, #315 ) ;
#195 = PLANE ( 'NONE',  #259 ) ;
#196 = LINE ( 'NONE', #341, #332 ) ;
#197 = SECURITY_CLASSIFICATION ( '', '', #388 ) ;
#198 =( BOUNDED_CURVE ( )  B_SPLINE_CURVE ( 3, ( #222, #289, #368, #37 ),
 .UNSPECIFIED., .F., .F. ) 
 B_SPLINE_CURVE_WITH_KNOTS ( ( 4, 4 ),
 ( 3.141592653589793116, 6.283185307179586232 ),
 .UNSPECIFIED. ) 
 CURVE ( )  GEOMETRIC_REPRESENTATION_ITEM ( )  RATIONAL_B_SPLINE_CURVE ( ( 1.000000000000000000, 0.3333333333333333703, 0.3333333333333333703, 1.000000000000000000 ) ) 
 REPRESENTATION_ITEM ( '' )  );
#199 = ORIENTED_EDGE ( 'NONE', *, *, #155, .F. ) ;
#200 = CARTESIAN_POINT ( 'NONE',  ( -32.99999999999999289, 0.000000000000000000, -5.499999999999999518E-05 ) ) ;
#201 = DATE_AND_TIME ( #317, #80 ) ;
#202 = ORIENTED_EDGE ( 'NONE', *, *, #367, .T. ) ;
#203 = ORIENTED_EDGE ( 'NONE', *, *, #425, .T. ) ;
#204 = PERSON_AND_ORGANIZATION ( #478, #257 ) ;
#205 = CARTESIAN_POINT ( 'NONE',  ( -29.99999999999999289, 0.000000000000000000, 6.749999999999989342 ) ) ;
#206 = VERTEX_POINT ( 'NONE', #14 ) ;
#207 = CYLINDRICAL_SURFACE ( 'NONE', #466, 3.000000000000002665 ) ;
#208 = COORDINATED_UNIVERSAL_TIME_OFFSET ( 5, 30, .AHEAD. ) ;
#209 = CC_DESIGN_SECURITY_CLASSIFICATION ( #197, ( #408 ) ) ;
#210 = CARTESIAN_POINT ( 'NONE',  ( -11.77870315288517311, -37.49999999999999289, 52.34979179060083965 ) ) ;
#211 = ORIENTED_EDGE ( 'NONE', *, *, #293, .T. ) ;
#212 =( NAMED_UNIT ( * ) SI_UNIT ( $, .STERADIAN. ) SOLID_ANGLE_UNIT ( ) );
#213 = VECTOR ( 'NONE', #85, 999.9999999999998863 ) ;
#214 = CARTESIAN_POINT ( 'NONE',  ( 7.243005920683418833E-14, -17.49999999999999289, 55.00000000000000711 ) ) ;
#215 = ORIENTED_EDGE ( 'NONE', *, *, #113, .F. ) ;
#216 = CARTESIAN_POINT ( 'NONE',  ( 36.00000000000013500, 8.082668874372636530E-15, 46.89999999999996305 ) ) ;
#217 = CARTESIAN_POINT ( 'NONE',  ( -36.00000000000000000, 3.673940397442060854E-16, 8.099999999999988987 ) ) ;
#218 = LINE ( 'NONE', #220, #262 ) ;
#219 = CARTESIAN_POINT ( 'NONE',  ( -29.99999999999999289, 0.000000000000000000, -5.499999999999999518E-05 ) ) ;
#220 = CARTESIAN_POINT ( 'NONE',  ( 20.34682080924858028, 13.93930635838151133, 50.42196531791906722 ) ) ;
#221 = CARTESIAN_POINT ( 'NONE',  ( 2.971497877501517060, -16.97998787143724186, 55.00000000000000711 ) ) ;
#222 = CARTESIAN_POINT ( 'NONE',  ( -36.00000000000000000, 3.673940397442060854E-16, 46.90000000000001279 ) ) ;
#223 = APPROVAL ( #347, 'UNSPECIFIED' ) ;
#224 = CARTESIAN_POINT ( 'NONE',  ( 33.00000000000013500, 8.082668874372636530E-15, -5.499999999999999518E-05 ) ) ;
#225 = APPROVAL_PERSON_ORGANIZATION ( #56, #223, #473 ) ;
#226 = CARTESIAN_POINT ( 'NONE',  ( 40.00000000000000711, -10.50000000000000533, 9.000000000000007105 ) ) ;
#227 = VECTOR ( 'NONE', #154, 1000.000000000000000 ) ;
#228 = ORIENTED_EDGE ( 'NONE', *, *, #73, .F. ) ;
#229 = LINE ( 'NONE', #190, #357 ) ;
#230 = EDGE_LOOP ( 'NONE', ( #398, #246, #50, #418 ) ) ;
#231 = LINE ( 'NONE', #380, #64 ) ;
#232 = VECTOR ( 'NONE', #100, 1000.000000000000000 ) ;
#233 = ORIENTED_EDGE ( 'NONE', *, *, #429, .F. ) ;
#234 = FACE_OUTER_BOUND ( 'NONE', #131, .T. ) ;
#235 = APPLICATION_PROTOCOL_DEFINITION ( 'international standard', 'config_control_design', 1994, #149 ) ;
#236 = ADVANCED_FACE ( 'NONE', ( #454 ), #119, .F. ) ;
#237 = ORIENTED_EDGE ( 'NONE', *, *, #189, .T. ) ;
#238 = ORIENTED_EDGE ( 'NONE', *, *, #91, .F. ) ;
#239 = CALENDAR_DATE ( 2026, 19, 9 ) ;
#240 = CC_DESIGN_PERSON_AND_ORGANIZATION_ASSIGNMENT ( #94, #170, ( #197 ) ) ;
#241 = ORIENTED_EDGE ( 'NONE', *, *, #343, .T. ) ;
#242 = DIRECTION ( 'NONE',  ( -0.9616940736686900859, -0.1682964628920207983, -0.2163811665754552804 ) ) ;
#243 = VECTOR ( 'NONE', #184, 1000.000000000000000 ) ;
#244 = MECHANICAL_CONTEXT ( 'NONE', #149, 'mechanical' ) ;
#245 = DIRECTION ( 'NONE',  ( 0.1723803317522484002, -0.9850304671557041925, 0.000000000000000000 ) ) ;
#246 = ORIENTED_EDGE ( 'NONE', *, *, #43, .F. ) ;
#247 = LINE ( 'NONE', #89, #430 ) ;
#248 = CALENDAR_DATE ( 2026, 19, 9 ) ;
#249 = CYLINDRICAL_SURFACE ( 'NONE', #440, 3.000000000000002665 ) ;
#250 = VERTEX_POINT ( 'NONE', #78 ) ;
#251 = DIRECTION ( 'NONE',  ( 1.000000000000000000, 0.000000000000000000, 0.000000000000000000 ) ) ;
#252 = CARTESIAN_POINT ( 'NONE',  ( 30.00000000000013500, -5.999999999999995559, 48.24999999999995737 ) ) ;
#253 = PLANE ( 'NONE',  #281 ) ;
#254 =( BOUNDED_CURVE ( )  B_SPLINE_CURVE ( 3, ( #216, #98, #93, #426 ),
 .UNSPECIFIED., .F., .F. ) 
 B_SPLINE_CURVE_WITH_KNOTS ( ( 4, 4 ),
 ( 3.141592653589793116, 6.283185307179586232 ),
 .UNSPECIFIED. ) 
 CURVE ( )  GEOMETRIC_REPRESENTATION_ITEM ( )  RATIONAL_B_SPLINE_CURVE ( ( 1.000000000000000000, 0.3333333333333333703, 0.3333333333333333703, 1.000000000000000000 ) ) 
 REPRESENTATION_ITEM ( '' )  );
#255 = CARTESIAN_POINT ( 'NONE',  ( -29.99999999999999289, 6.000000000000000888, 6.749999999999990230 ) ) ;
#256 = CARTESIAN_POINT ( 'NONE',  ( 36.00000000000013500, 8.082668874372636530E-15, 8.100000000000031619 ) ) ;
#257 = ORGANIZATION ( 'UNSPECIFIED', 'UNSPECIFIED', '' ) ;
#258 = DIRECTION ( 'NONE',  ( -0.9850304671557041925, -0.1723803317522482337, 0.000000000000000000 ) ) ;
#259 = AXIS2_PLACEMENT_3D ( 'NONE', #49, #302, #299 ) ;
#260 = APPLICATION_CONTEXT ( 'configuration controlled 3d designs of mechanical parts and assemblies' ) ;
#261 = CARTESIAN_POINT ( 'NONE',  ( 40.00000000000000000, -10.50000000000000533, 55.00000000000000711 ) ) ;
#262 = VECTOR ( 'NONE', #109, 1000.000000000000000 ) ;
#263 = DIRECTION ( 'NONE',  ( 1.000000000000000000, 0.000000000000000000, 0.000000000000000000 ) ) ;
#264 = CARTESIAN_POINT ( 'NONE',  ( -29.99999999999999289, 0.000000000000000000, 6.749999999999989342 ) ) ;
#265 = AXIS2_PLACEMENT_3D ( 'NONE', #210, #365, #166 ) ;
#266 = ORIENTED_EDGE ( 'NONE', *, *, #448, .F. ) ;
#267 = ADVANCED_FACE ( 'NONE', ( #414 ), #10, .F. ) ;
#268 = CARTESIAN_POINT ( 'NONE',  ( -8.208092485549132178, -16.06358381502888477, 53.15317919075145170 ) ) ;
#269 = ORIENTED_EDGE ( 'NONE', *, *, #152, .F. ) ;
#270 = FACE_OUTER_BOUND ( 'NONE', #176, .T. ) ;
#271 = ORIENTED_EDGE ( 'NONE', *, *, #311, .T. ) ;
#272 = VERTEX_POINT ( 'NONE', #226 ) ;
#273 = DIRECTION ( 'NONE',  ( -0.000000000000000000, -0.000000000000000000, 1.000000000000000000 ) ) ;
#274 = PERSON_AND_ORGANIZATION ( #478, #257 ) ;
#275 = ADVANCED_FACE ( 'NONE', ( #333, #270 ), #460, .T. ) ;
#276 = ORIENTED_EDGE ( 'NONE', *, *, #91, .T. ) ;
#277 = APPROVAL_DATE_TIME ( #470, #180 ) ;
#278 = DIRECTION ( 'NONE',  ( -0.000000000000000000, -0.000000000000000000, 1.000000000000000000 ) ) ;
#279 = VERTEX_POINT ( 'NONE', #7 ) ;
#280 = DIRECTION ( 'NONE',  ( 0.000000000000000000, 0.000000000000000000, -1.000000000000000000 ) ) ;
#281 = AXIS2_PLACEMENT_3D ( 'NONE', #34, #72, #439 ) ;
#282 = PERSON_AND_ORGANIZATION ( #478, #257 ) ;
#283 = CARTESIAN_POINT ( 'NONE',  ( 30.00000000000013145, 8.450062914116843552E-15, -5.499999999999999518E-05 ) ) ;
#284 = ORIENTED_EDGE ( 'NONE', *, *, #125, .F. ) ;
#285 = FACE_OUTER_BOUND ( 'NONE', #410, .T. ) ;
#286 = DIRECTION ( 'NONE',  ( -0.000000000000000000, 1.000000000000000000, -0.000000000000000000 ) ) ;
#287 = CARTESIAN_POINT ( 'NONE',  ( 40.00000000000000711, 10.50000000000000178, 46.00000000000000000 ) ) ;
#288 = AXIS2_PLACEMENT_3D ( 'NONE', #441, #142, #114 ) ;
#289 = CARTESIAN_POINT ( 'NONE',  ( -36.00000000000000000, 6.000000000000000888, 46.90000000000001279 ) ) ;
#290 = CC_DESIGN_DATE_AND_TIME_ASSIGNMENT ( #201, #174, ( #197 ) ) ;
#291 = CC_DESIGN_DATE_AND_TIME_ASSIGNMENT ( #53, #464, ( #329 ) ) ;
#292 = CARTESIAN_POINT ( 'NONE',  ( -29.99999999999999289, -6.000000000000000888, 48.25000000000002132 ) ) ;
#293 = EDGE_CURVE ( 'NONE', #428, #385, #229, .T. ) ;
#294 = ADVANCED_BREP_SHAPE_REPRESENTATION ( 'Part2_Default_sldprt', ( #469, #141 ), #295 ) ;
#295 =( GEOMETRIC_REPRESENTATION_CONTEXT ( 3 ) GLOBAL_UNCERTAINTY_ASSIGNED_CONTEXT ( ( #62 ) ) GLOBAL_UNIT_ASSIGNED_CONTEXT ( ( #387, #132, #212 ) ) REPRESENTATION_CONTEXT ( 'NONE', 'WORKASPACE' ) );
#296 = CARTESIAN_POINT ( 'NONE',  ( -39.99999999999999289, -37.49999999999999289, 8.999999999999987566 ) ) ;
#297 = DATE_AND_TIME ( #11, #185 ) ;
#298 = VERTEX_POINT ( 'NONE', #264 ) ;
#299 = DIRECTION ( 'NONE',  ( -0.9850304671557040814, 0.1723803317522487333, 0.000000000000000000 ) ) ;
#300 = CC_DESIGN_PERSON_AND_ORGANIZATION_ASSIGNMENT ( #282, #90, ( #408 ) ) ;
#301 = EDGE_LOOP ( 'NONE', ( #199, #458, #413, #61 ) ) ;
#302 = DIRECTION ( 'NONE',  ( 0.1723803317522487333, 0.9850304671557040814, 0.000000000000000000 ) ) ;
#303 = ORIENTED_EDGE ( 'NONE', *, *, #2, .T. ) ;
#304 = CARTESIAN_POINT ( 'NONE',  ( -40.00000000000000000, -10.50000000000000711, 8.999999999999987566 ) ) ;
#305 = ORIENTED_EDGE ( 'NONE', *, *, #373, .T. ) ;
#306 = LINE ( 'NONE', #338, #26 ) ;
#307 = APPROVAL_STATUS ( 'not_yet_approved' ) ;
#308 = EDGE_LOOP ( 'NONE', ( #23, #327 ) ) ;
#309 =( BOUNDED_CURVE ( )  B_SPLINE_CURVE ( 3, ( #205, #33, #423, #217 ),
 .UNSPECIFIED., .F., .F. ) 
 B_SPLINE_CURVE_WITH_KNOTS ( ( 4, 4 ),
 ( 3.141592653589793116, 6.283185307179586232 ),
 .UNSPECIFIED. ) 
 CURVE ( )  GEOMETRIC_REPRESENTATION_ITEM ( )  RATIONAL_B_SPLINE_CURVE ( ( 1.000000000000000000, 0.3333333333333333703, 0.3333333333333333703, 1.000000000000000000 ) ) 
 REPRESENTATION_ITEM ( '' )  );
#310 = CARTESIAN_POINT ( 'NONE',  ( 36.00000000000013500, 8.082668874372636530E-15, 8.100000000000031619 ) ) ;
#311 = EDGE_CURVE ( 'NONE', #314, #386, #411, .T. ) ;
#312 = COORDINATED_UNIVERSAL_TIME_OFFSET ( 5, 30, .AHEAD. ) ;
#313 = FACE_OUTER_BOUND ( 'NONE', #230, .T. ) ;
#314 = VERTEX_POINT ( 'NONE', #3 ) ;
#315 = VECTOR ( 'NONE', #129, 1000.000000000000000 ) ;
#316 = LINE ( 'NONE', #399, #187 ) ;
#317 = CALENDAR_DATE ( 2026, 19, 9 ) ;
#318 = CARTESIAN_POINT ( 'NONE',  ( -8.901734104046253648, 15.94219653179190743, 2.002890173410404095 ) ) ;
#319 = VERTEX_POINT ( 'NONE', #83 ) ;
#320 = CARTESIAN_POINT ( 'NONE',  ( -39.99999999999999289, -10.50000000000000888, 46.00000000000002132 ) ) ;
#321 = CLOSED_SHELL ( 'NONE', ( #402, #236, #71, #442, #19, #186, #275, #24, #359, #110, #44, #117, #188, #267 ) ) ;
#322 = APPROVAL_STATUS ( 'not_yet_approved' ) ;
#323 = LINE ( 'NONE', #95, #443 ) ;
#324 = ORIENTED_EDGE ( 'NONE', *, *, #41, .T. ) ;
#325 = CARTESIAN_POINT ( 'NONE',  ( 30.00000000000013145, 8.450062914116843552E-15, 6.750000000000029310 ) ) ;
#326 = CARTESIAN_POINT ( 'NONE',  ( -2.971497877501518836, 16.97998787143723476, 55.00000000000000711 ) ) ;
#327 = ORIENTED_EDGE ( 'NONE', *, *, #153, .F. ) ;
#328 = PLANE ( 'NONE',  #77 ) ;
#329 = PRODUCT_DEFINITION ( 'UNKNOWN', '', #408, #15 ) ;
#330 = CARTESIAN_POINT ( 'NONE',  ( 36.00000000000013500, 8.082668874372636530E-15, 46.89999999999996305 ) ) ;
#331 = CARTESIAN_POINT ( 'NONE',  ( 40.00000000000000711, -17.49999999999999289, 55.00000000000000000 ) ) ;
#332 = VECTOR ( 'NONE', #160, 1000.000000000000000 ) ;
#333 = FACE_BOUND ( 'NONE', #308, .T. ) ;
#334 = EDGE_LOOP ( 'NONE', ( #238, #269 ) ) ;
#335 = CARTESIAN_POINT ( 'NONE',  ( -36.00000000000000000, 3.673940397442060854E-16, -5.499999999999999518E-05 ) ) ;
#336 = ORIENTED_EDGE ( 'NONE', *, *, #459, .T. ) ;
#337 = AXIS2_PLACEMENT_3D ( 'NONE', #331, #434, #107 ) ;
#338 = CARTESIAN_POINT ( 'NONE',  ( 7.242470512203169619E-14, -17.49999999999999645, 55.00000000000000711 ) ) ;
#339 = ORIENTED_EDGE ( 'NONE', *, *, #448, .T. ) ;
#340 =( BOUNDED_CURVE ( )  B_SPLINE_CURVE ( 3, ( #143, #392, #255, #427 ),
 .UNSPECIFIED., .F., .F. ) 
 B_SPLINE_CURVE_WITH_KNOTS ( ( 4, 4 ),
 ( 1.224646799147351975E-16, 3.141592653589793116 ),
 .UNSPECIFIED. ) 
 CURVE ( )  GEOMETRIC_REPRESENTATION_ITEM ( )  RATIONAL_B_SPLINE_CURVE ( ( 1.000000000000000000, 0.3333333333333333703, 0.3333333333333333703, 1.000000000000000000 ) ) 
 REPRESENTATION_ITEM ( '' )  );
#341 = CARTESIAN_POINT ( 'NONE',  ( 0.000000000000000000, 0.000000000000000000, 0.000000000000000000 ) ) ;
#342 = SHAPE_DEFINITION_REPRESENTATION ( #124, #294 ) ;
#343 = EDGE_CURVE ( 'NONE', #428, #314, #194, .T. ) ;
#344 = EDGE_LOOP ( 'NONE', ( #12, #324, #13, #9 ) ) ;
#345 = ORIENTED_EDGE ( 'NONE', *, *, #21, .T. ) ;
#346 = CARTESIAN_POINT ( 'NONE',  ( -40.00000000000000000, 10.49999999999999112, 55.00000000000000711 ) ) ;
#347 = APPROVAL_STATUS ( 'not_yet_approved' ) ;
#348 = ORIENTED_EDGE ( 'NONE', *, *, #2, .F. ) ;
#349 = ORIENTED_EDGE ( 'NONE', *, *, #189, .F. ) ;
#350 = EDGE_CURVE ( 'NONE', #206, #135, #377, .T. ) ;
#351 = FACE_OUTER_BOUND ( 'NONE', #424, .T. ) ;
#352 = DIRECTION ( 'NONE',  ( -0.1723803317522474288, -0.9850304671557044145, 0.000000000000000000 ) ) ;
#353 = ORIENTED_EDGE ( 'NONE', *, *, #343, .F. ) ;
#354 = DIRECTION ( 'NONE',  ( -0.9616940736686901969, 0.1682964628920199934, 0.2163811665754550029 ) ) ;
#355 = FACE_OUTER_BOUND ( 'NONE', #407, .T. ) ;
#356 = EDGE_LOOP ( 'NONE', ( #202, #203, #128, #348 ) ) ;
#357 = VECTOR ( 'NONE', #416, 1000.000000000000000 ) ;
#358 = DIRECTION ( 'NONE',  ( 0.000000000000000000, 0.000000000000000000, 1.000000000000000000 ) ) ;
#359 = ADVANCED_FACE ( 'NONE', ( #156 ), #195, .T. ) ;
#360 = CARTESIAN_POINT ( 'NONE',  ( 36.00000000000013500, -5.999999999999995559, 46.89999999999996305 ) ) ;
#361 = ORIENTED_EDGE ( 'NONE', *, *, #293, .F. ) ;
#362 = DIRECTION ( 'NONE',  ( -0.000000000000000000, -0.000000000000000000, 1.000000000000000000 ) ) ;
#363 = FACE_OUTER_BOUND ( 'NONE', #121, .T. ) ;
#364 = EDGE_LOOP ( 'NONE', ( #345, #417 ) ) ;
#365 = DIRECTION ( 'NONE',  ( 0.2195121951219509426, 0.000000000000000000, -0.9756097560975610650 ) ) ;
#366 = CARTESIAN_POINT ( 'NONE',  ( 30.00000000000013500, 6.000000000000012434, 6.750000000000030198 ) ) ;
#367 = EDGE_CURVE ( 'NONE', #28, #250, #383, .T. ) ;
#368 = CARTESIAN_POINT ( 'NONE',  ( -29.99999999999999289, 6.000000000000000888, 48.25000000000002132 ) ) ;
#369 = VECTOR ( 'NONE', #432, 1000.000000000000000 ) ;
#370 = CARTESIAN_POINT ( 'NONE',  ( 36.00000000000013500, 8.082668874372636530E-15, -5.499999999999999518E-05 ) ) ;
#371 = DIRECTION ( 'NONE',  ( 1.000000000000000000, 0.000000000000000000, 0.000000000000000000 ) ) ;
#372 = EDGE_CURVE ( 'NONE', #92, #428, #123, .T. ) ;
#373 = EDGE_CURVE ( 'NONE', #167, #92, #231, .T. ) ;
#374 = DIRECTION ( 'NONE',  ( 0.2195121951219512479, 0.000000000000000000, 0.9756097560975610650 ) ) ;
#375 = VECTOR ( 'NONE', #354, 1000.000000000000000 ) ;
#376 = ORIENTED_EDGE ( 'NONE', *, *, #39, .T. ) ;
#377 = LINE ( 'NONE', #335, #148 ) ;
#378 = ORIENTED_EDGE ( 'NONE', *, *, #350, .F. ) ;
#379 = VECTOR ( 'NONE', #171, 1000.000000000000000 ) ;
#380 = CARTESIAN_POINT ( 'NONE',  ( 8.208092485549133954, -16.06358381502891319, 53.15317919075143749 ) ) ;
#381 = EDGE_CURVE ( 'NONE', #66, #161, #196, .T. ) ;
#382 = ORIENTED_EDGE ( 'NONE', *, *, #125, .T. ) ;
#383 = LINE ( 'NONE', #451, #227 ) ;
#384 = APPROVAL_ROLE ( '' ) ;
#385 = VERTEX_POINT ( 'NONE', #304 ) ;
#386 = VERTEX_POINT ( 'NONE', #456 ) ;
#387 =( LENGTH_UNIT ( ) NAMED_UNIT ( * ) SI_UNIT ( .MILLI., .METRE. ) );
#388 = SECURITY_CLASSIFICATION_LEVEL ( 'unclassified' ) ;
#389 = EDGE_LOOP ( 'NONE', ( #393, #164 ) ) ;
#390 = DIRECTION ( 'NONE',  ( 1.000000000000000000, 0.000000000000000000, 0.000000000000000000 ) ) ;
#391 = PERSON_AND_ORGANIZATION ( #478, #257 ) ;
#392 = CARTESIAN_POINT ( 'NONE',  ( -36.00000000000000000, 6.000000000000000888, 8.099999999999988987 ) ) ;
#393 = ORIENTED_EDGE ( 'NONE', *, *, #43, .T. ) ;
#394 = LOCAL_TIME ( 12, 8, 27.00000000000000000, #312 ) ;
#395 = DIRECTION ( 'NONE',  ( -0.000000000000000000, 1.000000000000000000, -0.000000000000000000 ) ) ;
#396 = EDGE_CURVE ( 'NONE', #87, #319, #254, .T. ) ;
#397 = CARTESIAN_POINT ( 'NONE',  ( -2.971497877501497964, -16.97998787143721700, 55.00000000000000711 ) ) ;
#398 = ORIENTED_EDGE ( 'NONE', *, *, #105, .F. ) ;
#399 = CARTESIAN_POINT ( 'NONE',  ( -3.236994219653177129, -18.06647398843931640, -0.7283236994219648430 ) ) ;
#400 = CARTESIAN_POINT ( 'NONE',  ( 36.00000000000013500, 8.082668874372636530E-15, 46.89999999999996305 ) ) ;
#401 = DIRECTION ( 'NONE',  ( 0.000000000000000000, 0.000000000000000000, -1.000000000000000000 ) ) ;
#402 = ADVANCED_FACE ( 'NONE', ( #234 ), #207, .F. ) ;
#403 = CARTESIAN_POINT ( 'NONE',  ( 30.00000000000013145, 8.450062914116843552E-15, 48.24999999999995737 ) ) ;
#404 = CC_DESIGN_PERSON_AND_ORGANIZATION_ASSIGNMENT ( #204, #99, ( #101 ) ) ;
#405 = EDGE_CURVE ( 'NONE', #457, #88, #79, .T. ) ;
#406 = LINE ( 'NONE', #261, #116 ) ;
#407 = EDGE_LOOP ( 'NONE', ( #6, #18, #32, #376 ) ) ;
#408 = PRODUCT_DEFINITION_FORMATION_WITH_SPECIFIED_SOURCE ( 'ANY', '', #101, .NOT_KNOWN. ) ;
#409 = DIRECTION ( 'NONE',  ( -0.000000000000000000, -0.000000000000000000, 1.000000000000000000 ) ) ;
#410 = EDGE_LOOP ( 'NONE', ( #305, #237, #233, #172 ) ) ;
#411 = LINE ( 'NONE', #346, #169 ) ;
#412 = AXIS2_PLACEMENT_3D ( 'NONE', #200, #273, #371 ) ;
#413 = ORIENTED_EDGE ( 'NONE', *, *, #381, .T. ) ;
#414 = FACE_OUTER_BOUND ( 'NONE', #48, .T. ) ;
#415 = ORIENTED_EDGE ( 'NONE', *, *, #193, .F. ) ;
#416 = DIRECTION ( 'NONE',  ( 0.000000000000000000, 0.000000000000000000, -1.000000000000000000 ) ) ;
#417 = ORIENTED_EDGE ( 'NONE', *, *, #73, .T. ) ;
#418 = ORIENTED_EDGE ( 'NONE', *, *, #396, .T. ) ;
#419 = DIRECTION ( 'NONE',  ( 1.000000000000000000, 0.000000000000000000, 0.000000000000000000 ) ) ;
#420 = PERSON_AND_ORGANIZATION_ROLE ( 'creator' ) ;
#421 = ORIENTED_EDGE ( 'NONE', *, *, #350, .T. ) ;
#422 = APPROVAL_ROLE ( '' ) ;
#423 = CARTESIAN_POINT ( 'NONE',  ( -36.00000000000000000, -6.000000000000000888, 8.099999999999988987 ) ) ;
#424 = EDGE_LOOP ( 'NONE', ( #241, #271, #415, #361 ) ) ;
#425 = EDGE_CURVE ( 'NONE', #250, #161, #168, .T. ) ;
#426 = CARTESIAN_POINT ( 'NONE',  ( 30.00000000000013145, 8.450062914116843552E-15, 48.24999999999995737 ) ) ;
#427 = CARTESIAN_POINT ( 'NONE',  ( -29.99999999999999289, 0.000000000000000000, 6.749999999999989342 ) ) ;
#428 = VERTEX_POINT ( 'NONE', #320 ) ;
#429 = EDGE_CURVE ( 'NONE', #272, #66, #316, .T. ) ;
#430 = VECTOR ( 'NONE', #395, 1000.000000000000000 ) ;
#431 = CARTESIAN_POINT ( 'NONE',  ( 30.00000000000013145, 8.450062914116843552E-15, 6.750000000000029310 ) ) ;
#432 = DIRECTION ( 'NONE',  ( -0.9616940736686900859, -0.1682964628920209649, 0.2163811665754549751 ) ) ;
#433 =( BOUNDED_CURVE ( )  B_SPLINE_CURVE ( 3, ( #403, #252, #360, #400 ),
 .UNSPECIFIED., .F., .F. ) 
 B_SPLINE_CURVE_WITH_KNOTS ( ( 4, 4 ),
 ( 0.000000000000000000, 3.141592653589793116 ),
 .UNSPECIFIED. ) 
 CURVE ( )  GEOMETRIC_REPRESENTATION_ITEM ( )  RATIONAL_B_SPLINE_CURVE ( ( 1.000000000000000000, 0.3333333333333333703, 0.3333333333333333703, 1.000000000000000000 ) ) 
 REPRESENTATION_ITEM ( '' )  );
#434 = DIRECTION ( 'NONE',  ( -1.000000000000000000, 0.000000000000000000, 0.000000000000000000 ) ) ;
#435 = LINE ( 'NONE', #474, #232 ) ;
#436 = DIRECTION ( 'NONE',  ( -0.1723803317522482337, 0.9850304671557041925, 0.000000000000000000 ) ) ;
#437 = CARTESIAN_POINT ( 'NONE',  ( -29.99999999999999289, 0.000000000000000000, 48.25000000000000711 ) ) ;
#438 = CC_DESIGN_APPROVAL ( #81, ( #408 ) ) ;
#439 = DIRECTION ( 'NONE',  ( -0.9756097560975609539, 0.000000000000000000, 0.2195121951219509426 ) ) ;
#440 = AXIS2_PLACEMENT_3D ( 'NONE', #467, #409, #419 ) ;
#441 = CARTESIAN_POINT ( 'NONE',  ( 0.000000000000000000, -37.49999999999999289, 0.000000000000000000 ) ) ;
#442 = ADVANCED_FACE ( 'NONE', ( #351 ), #472, .F. ) ;
#443 = VECTOR ( 'NONE', #286, 1000.000000000000000 ) ;
#444 = CC_DESIGN_APPROVAL ( #223, ( #197 ) ) ;
#445 =( BOUNDED_CURVE ( )  B_SPLINE_CURVE ( 3, ( #256, #182, #366, #480 ),
 .UNSPECIFIED., .F., .F. ) 
 B_SPLINE_CURVE_WITH_KNOTS ( ( 4, 4 ),
 ( 0.000000000000000000, 3.141592653589793116 ),
 .UNSPECIFIED. ) 
 CURVE ( )  GEOMETRIC_REPRESENTATION_ITEM ( )  RATIONAL_B_SPLINE_CURVE ( ( 1.000000000000000000, 0.3333333333333333703, 0.3333333333333333703, 1.000000000000000000 ) ) 
 REPRESENTATION_ITEM ( '' )  );
#446 = DIRECTION ( 'NONE',  ( 0.000000000000000000, 0.000000000000000000, -1.000000000000000000 ) ) ;
#447 = APPROVAL_DATE_TIME ( #297, #223 ) ;
#448 = EDGE_CURVE ( 'NONE', #66, #385, #67, .T. ) ;
#449 = VECTOR ( 'NONE', #401, 1000.000000000000000 ) ;
#450 = ORIENTED_EDGE ( 'NONE', *, *, #152, .T. ) ;
#451 = CARTESIAN_POINT ( 'NONE',  ( 40.00000000000000000, 10.50000000000000355, 55.00000000000000711 ) ) ;
#452 = CC_DESIGN_APPROVAL ( #180, ( #329 ) ) ;
#453 = VERTEX_POINT ( 'NONE', #138 ) ;
#454 = FACE_OUTER_BOUND ( 'NONE', #54, .T. ) ;
#455 = AXIS2_PLACEMENT_3D ( 'NONE', #224, #118, #263 ) ;
#456 = CARTESIAN_POINT ( 'NONE',  ( -40.00000000000000711, 10.49999999999999289, 8.999999999999992895 ) ) ;
#457 = VERTEX_POINT ( 'NONE', #325 ) ;
#458 = ORIENTED_EDGE ( 'NONE', *, *, #429, .T. ) ;
#459 = EDGE_CURVE ( 'NONE', #167, #28, #247, .T. ) ;
#460 = PLANE ( 'NONE',  #82 ) ;
#461 = CARTESIAN_POINT ( 'NONE',  ( 0.000000000000000000, 0.000000000000000000, 0.000000000000000000 ) ) ;
#462 = ORIENTED_EDGE ( 'NONE', *, *, #183, .F. ) ;
#463 = APPROVAL_PERSON_ORGANIZATION ( #274, #81, #422 ) ;
#464 = DATE_TIME_ROLE ( 'creation_date' ) ;
#465 = CC_DESIGN_PERSON_AND_ORGANIZATION_ASSIGNMENT ( #136, #420, ( #329 ) ) ;
#466 = AXIS2_PLACEMENT_3D ( 'NONE', #29, #362, #251 ) ;
#467 = CARTESIAN_POINT ( 'NONE',  ( 33.00000000000013500, 8.082668874372636530E-15, -5.499999999999999518E-05 ) ) ;
#468 = ORIENTED_EDGE ( 'NONE', *, *, #193, .T. ) ;
#469 = MANIFOLD_SOLID_BREP ( 'Cut-Extrude3', #321 ) ;
#470 = DATE_AND_TIME ( #239, #8 ) ;
#471 = ORIENTED_EDGE ( 'NONE', *, *, #105, .T. ) ;
#472 = PLANE ( 'NONE',  #191 ) ;
#473 = APPROVAL_ROLE ( '' ) ;
#474 = CARTESIAN_POINT ( 'NONE',  ( 0.000000000000000000, 0.000000000000000000, 55.00000000000000000 ) ) ;
#475 = CARTESIAN_POINT ( 'NONE',  ( 30.00000000000013500, -5.999999999999995559, 6.750000000000030198 ) ) ;
#476 = DIRECTION ( 'NONE',  ( 0.9850304671557041925, 0.1723803317522484002, 0.000000000000000000 ) ) ;
#477 = FACE_BOUND ( 'NONE', #334, .T. ) ;
#478 = PERSON ( 'UNSPECIFIED', 'UNSPECIFIED', 'UNSPECIFIED', ('UNSPECIFIED'), ('UNSPECIFIED'), ('UNSPECIFIED') ) ;
#479 = LINE ( 'NONE', #370, #243 ) ;
#480 = CARTESIAN_POINT ( 'NONE',  ( 30.00000000000013145, 8.450062914116843552E-15, 6.750000000000029310 ) ) ;
#481 = CC_DESIGN_PERSON_AND_ORGANIZATION_ASSIGNMENT ( #133, #30, ( #408 ) ) ;
ENDSEC;
END-ISO-10303-21;
