ISO-10303-21;
HEADER;
FILE_DESCRIPTION (( 'STEP AP203' ),
    '1' );
FILE_NAME ('Part4_Default_sldprt.STEP',
    '2026-09-19T06:38:31',
    ( '' ),
    ( '' ),
    'SwSTEP 2.0',
    'SolidWorks 2021',
    '' );
FILE_SCHEMA (( 'CONFIG_CONTROL_DESIGN' ));
ENDSEC;

DATA;
#1 = CARTESIAN_POINT ( 'NONE',  ( 18.00000000000003553, 4.041334437186257523E-15, 6.300000000000021139 ) ) ;
#2 = EDGE_CURVE ( 'NONE', #223, #87, #175, .T. ) ;
#3 = DIRECTION ( 'NONE',  ( 0.2425356250363328026, -0.9701425001453319874, 0.000000000000000000 ) ) ;
#4 = ORIENTED_EDGE ( 'NONE', *, *, #5, .F. ) ;
#5 = EDGE_CURVE ( 'NONE', #78, #334, #93, .T. ) ;
#6 = CARTESIAN_POINT ( 'NONE',  ( 20.00000000000000711, -32.50000000000000000, 38.00000000000000711 ) ) ;
#7 = APPLICATION_CONTEXT ( 'configuration controlled 3d designs of mechanical parts and assemblies' ) ;
#8 = ORIENTED_EDGE ( 'NONE', *, *, #5, .T. ) ;
#9 = CARTESIAN_POINT ( 'NONE',  ( 22.78481012658254556, 6.803797468354153999, 37.02531645569612806 ) ) ;
#10 = EDGE_CURVE ( 'NONE', #288, #156, #394, .T. ) ;
#11 = ORIENTED_EDGE ( 'NONE', *, *, #140, .F. ) ;
#12 = CARTESIAN_POINT ( 'NONE',  ( -2.941176470588231506, -11.76470588235293668, 45.00000000000000000 ) ) ;
#13 = EDGE_LOOP ( 'NONE', ( #74, #298 ) ) ;
#14 = DIRECTION ( 'NONE',  ( 0.000000000000000000, 0.000000000000000000, -1.000000000000000000 ) ) ;
#15 = EDGE_LOOP ( 'NONE', ( #480, #424, #444, #372 ) ) ;
#16 = ORIENTED_EDGE ( 'NONE', *, *, #286, .F. ) ;
#17 = CC_DESIGN_DATE_AND_TIME_ASSIGNMENT ( #389, #278, ( #459 ) ) ;
#18 = AXIS2_PLACEMENT_3D ( 'NONE', #357, #29, #250 ) ;
#19 = CARTESIAN_POINT ( 'NONE',  ( 18.00000000000003553, 4.041334437186257523E-15, 6.300000000000021139 ) ) ;
#20 = ORIENTED_EDGE ( 'NONE', *, *, #314, .T. ) ;
#21 = ADVANCED_FACE ( 'NONE', ( #473 ), #385, .F. ) ;
#22 = CARTESIAN_POINT ( 'NONE',  ( -19.99999999999999645, -32.50000000000000000, 7.000000000000000000 ) ) ;
#23 = CALENDAR_DATE ( 2026, 19, 9 ) ;
#24 = DIRECTION ( 'NONE',  ( -1.000000000000000000, 0.000000000000000000, 0.000000000000000000 ) ) ;
#25 = CC_DESIGN_PERSON_AND_ORGANIZATION_ASSIGNMENT ( #63, #206, ( #459 ) ) ;
#26 = ORIENTED_EDGE ( 'NONE', *, *, #216, .T. ) ;
#27 = CYLINDRICAL_SURFACE ( 'NONE', #478, 3.000000000000000888 ) ;
#28 = FACE_OUTER_BOUND ( 'NONE', #476, .T. ) ;
#29 = DIRECTION ( 'NONE',  ( -0.3303504247281062178, 0.000000000000000000, 0.9438583563660174480 ) ) ;
#30 = VECTOR ( 'NONE', #64, 1000.000000000000000 ) ;
#31 = LINE ( 'NONE', #6, #53 ) ;
#32 = ORIENTED_EDGE ( 'NONE', *, *, #255, .T. ) ;
#33 = PLANE ( 'NONE',  #195 ) ;
#34 = VERTEX_POINT ( 'NONE', #382 ) ;
#35 = ADVANCED_FACE ( 'NONE', ( #56 ), #165, .F. ) ;
#36 = PLANE ( 'NONE',  #18 ) ;
#37 = AXIS2_PLACEMENT_3D ( 'NONE', #431, #50, #204 ) ;
#38 = FACE_OUTER_BOUND ( 'NONE', #44, .T. ) ;
#39 = ORIENTED_EDGE ( 'NONE', *, *, #40, .T. ) ;
#40 = EDGE_CURVE ( 'NONE', #234, #288, #427, .T. ) ;
#41 = VERTEX_POINT ( 'NONE', #366 ) ;
#42 = CARTESIAN_POINT ( 'NONE',  ( -4.219409282700561370, -13.55485232067518275, -1.476793248945196702 ) ) ;
#43 = ADVANCED_FACE ( 'NONE', ( #410 ), #293, .F. ) ;
#44 = EDGE_LOOP ( 'NONE', ( #20, #220, #81, #224 ) ) ;
#45 = AXIS2_PLACEMENT_3D ( 'NONE', #406, #221, #154 ) ;
#46 = DIRECTION ( 'NONE',  ( -1.000000000000000000, 0.000000000000000000, 0.000000000000000000 ) ) ;
#47 = ORIENTED_EDGE ( 'NONE', *, *, #414, .T. ) ;
#48 = ORIENTED_EDGE ( 'NONE', *, *, #70, .T. ) ;
#49 = CARTESIAN_POINT ( 'NONE',  ( 18.00000000000003553, -5.999999999999993783, 6.300000000000021139 ) ) ;
#50 = DIRECTION ( 'NONE',  ( 0.000000000000000000, 0.000000000000000000, -1.000000000000000000 ) ) ;
#51 = ORIENTED_EDGE ( 'NONE', *, *, #10, .T. ) ;
#52 = DIRECTION ( 'NONE',  ( 0.000000000000000000, 1.000000000000000000, 0.000000000000000000 ) ) ;
#53 = VECTOR ( 'NONE', #146, 1000.000000000000000 ) ;
#54 = PERSON_AND_ORGANIZATION_ROLE ( 'creator' ) ;
#55 = CARTESIAN_POINT ( 'NONE',  ( -18.00000000000000711, 0.000000000000000000, 38.70000000000000995 ) ) ;
#56 = FACE_OUTER_BOUND ( 'NONE', #196, .T. ) ;
#57 = VERTEX_POINT ( 'NONE', #266 ) ;
#58 = SHAPE_DEFINITION_REPRESENTATION ( #138, #402 ) ;
#59 = LINE ( 'NONE', #474, #258 ) ;
#60 = DATE_TIME_ROLE ( 'creation_date' ) ;
#61 = DIRECTION ( 'NONE',  ( 0.000000000000000000, 0.000000000000000000, -1.000000000000000000 ) ) ;
#62 = CARTESIAN_POINT ( 'NONE',  ( -15.00000000000000533, 0.000000000000000000, 45.00000000000000000 ) ) ;
#63 = PERSON_AND_ORGANIZATION ( #198, #428 ) ;
#64 = DIRECTION ( 'NONE',  ( 0.000000000000000000, 0.000000000000000000, -1.000000000000000000 ) ) ;
#65 = CARTESIAN_POINT ( 'NONE',  ( 18.00000000000003553, 6.000000000000003553, 38.70000000000000284 ) ) ;
#66 = DIRECTION ( 'NONE',  ( -0.9186304243492506849, -0.2296576060873124769, -0.3215206485222377175 ) ) ;
#67 = CARTESIAN_POINT ( 'NONE',  ( 12.00000000000003553, 6.000000000000003553, 40.80000000000001137 ) ) ;
#68 = EDGE_CURVE ( 'NONE', #334, #178, #126, .T. ) ;
#69 = FACE_OUTER_BOUND ( 'NONE', #202, .T. ) ;
#70 = EDGE_CURVE ( 'NONE', #223, #234, #300, .T. ) ;
#71 = ORIENTED_EDGE ( 'NONE', *, *, #345, .F. ) ;
#72 =( BOUNDED_CURVE ( )  B_SPLINE_CURVE ( 3, ( #19, #49, #199, #115 ),
 .UNSPECIFIED., .F., .F. ) 
 B_SPLINE_CURVE_WITH_KNOTS ( ( 4, 4 ),
 ( 3.141592653589793116, 6.283185307179586232 ),
 .UNSPECIFIED. ) 
 CURVE ( )  GEOMETRIC_REPRESENTATION_ITEM ( )  RATIONAL_B_SPLINE_CURVE ( ( 1.000000000000000000, 0.3333333333333333703, 0.3333333333333333703, 1.000000000000000000 ) ) 
 REPRESENTATION_ITEM ( '' )  );
#73 = DIRECTION ( 'NONE',  ( -0.000000000000000000, 1.000000000000000000, -0.000000000000000000 ) ) ;
#74 = ORIENTED_EDGE ( 'NONE', *, *, #260, .T. ) ;
#75 = VECTOR ( 'NONE', #66, 1000.000000000000227 ) ;
#76 = ORIENTED_EDGE ( 'NONE', *, *, #68, .F. ) ;
#77 = DIRECTION ( 'NONE',  ( 1.000000000000000000, 0.000000000000000000, 0.000000000000000000 ) ) ;
#78 = VERTEX_POINT ( 'NONE', #127 ) ;
#79 = EDGE_CURVE ( 'NONE', #125, #156, #454, .T. ) ;
#80 = LINE ( 'NONE', #412, #386 ) ;
#81 = ORIENTED_EDGE ( 'NONE', *, *, #435, .F. ) ;
#82 =( NAMED_UNIT ( * ) SI_UNIT ( $, .STERADIAN. ) SOLID_ANGLE_UNIT ( ) );
#83 = ORIENTED_EDGE ( 'NONE', *, *, #291, .F. ) ;
#84 = AXIS2_PLACEMENT_3D ( 'NONE', #217, #441, #108 ) ;
#85 = CARTESIAN_POINT ( 'NONE',  ( 1.561251128379126385E-14, 12.49999999999999645, 45.00000000000000000 ) ) ;
#86 = ADVANCED_FACE ( 'NONE', ( #158, #339 ), #303, .T. ) ;
#87 = VERTEX_POINT ( 'NONE', #269 ) ;
#88 = PLANE ( 'NONE',  #107 ) ;
#89 = CARTESIAN_POINT ( 'NONE',  ( 20.00000000000008527, 7.499999999999798383, 7.000000000000039968 ) ) ;
#90 = EDGE_LOOP ( 'NONE', ( #411, #321 ) ) ;
#91 = PERSON_AND_ORGANIZATION ( #198, #428 ) ;
#92 = DIRECTION ( 'NONE',  ( 0.000000000000000000, 0.000000000000000000, -1.000000000000000000 ) ) ;
#93 = LINE ( 'NONE', #237, #332 ) ;
#94 = APPROVAL_ROLE ( '' ) ;
#95 = ORIENTED_EDGE ( 'NONE', *, *, #145, .T. ) ;
#96 = DATE_AND_TIME ( #23, #315 ) ;
#97 = CARTESIAN_POINT ( 'NONE',  ( 0.000000000000000000, 0.000000000000000000, 0.000000000000000000 ) ) ;
#98 = CARTESIAN_POINT ( 'NONE',  ( -12.00000000000000355, 3.673940397442060854E-16, 40.80000000000001847 ) ) ;
#99 = PERSON_AND_ORGANIZATION_ROLE ( 'design_supplier' ) ;
#100 = VECTOR ( 'NONE', #92, 1000.000000000000000 ) ;
#101 = DIRECTION ( 'NONE',  ( -1.000000000000000000, 0.000000000000000000, 0.000000000000000000 ) ) ;
#102 = CC_DESIGN_PERSON_AND_ORGANIZATION_ASSIGNMENT ( #275, #54, ( #274 ) ) ;
#103 = CARTESIAN_POINT ( 'NONE',  ( 9.071729957805716893, -10.23206751054848596, 41.82489451476801179 ) ) ;
#104 = DIRECTION ( 'NONE',  ( 0.000000000000000000, 0.000000000000000000, -1.000000000000000000 ) ) ;
#105 = CC_DESIGN_PERSON_AND_ORGANIZATION_ASSIGNMENT ( #387, #99, ( #274 ) ) ;
#106 = DIRECTION ( 'NONE',  ( 0.000000000000000000, 0.000000000000000000, -1.000000000000000000 ) ) ;
#107 = AXIS2_PLACEMENT_3D ( 'NONE', #12, #458, #330 ) ;
#108 = DIRECTION ( 'NONE',  ( -1.000000000000000000, 0.000000000000000000, 0.000000000000000000 ) ) ;
#109 = CARTESIAN_POINT ( 'NONE',  ( 20.00000000000008171, -7.499999999999796607, 37.99999999999999289 ) ) ;
#110 = UNCERTAINTY_MEASURE_WITH_UNIT (LENGTH_MEASURE( 1.000000000000000082E-05 ), #333, 'distance_accuracy_value', 'NONE');
#111 = CARTESIAN_POINT ( 'NONE',  ( -20.00000000000000000, -32.50000000000000000, 38.00000000000000711 ) ) ;
#112 = ORIENTED_EDGE ( 'NONE', *, *, #285, .F. ) ;
#113 = VERTEX_POINT ( 'NONE', #89 ) ;
#114 = CC_DESIGN_SECURITY_CLASSIFICATION ( #459, ( #274 ) ) ;
#115 = CARTESIAN_POINT ( 'NONE',  ( 12.00000000000003730, 3.673940397442051289E-15, 4.200000000000016165 ) ) ;
#116 = ORIENTED_EDGE ( 'NONE', *, *, #2, .F. ) ;
#117 = DIRECTION ( 'NONE',  ( -0.000000000000000000, 1.000000000000000000, -0.000000000000000000 ) ) ;
#118 = ORIENTED_EDGE ( 'NONE', *, *, #414, .F. ) ;
#119 = APPROVAL ( #472, 'UNSPECIFIED' ) ;
#120 = EDGE_CURVE ( 'NONE', #78, #457, #209, .T. ) ;
#121 = LINE ( 'NONE', #374, #239 ) ;
#122 = EDGE_LOOP ( 'NONE', ( #301, #183, #71, #116 ) ) ;
#123 = LOCAL_TIME ( 12, 8, 31.00000000000000000, #135 ) ;
#124 = ADVANCED_FACE ( 'NONE', ( #279 ), #27, .F. ) ;
#125 = VERTEX_POINT ( 'NONE', #242 ) ;
#126 =( BOUNDED_CURVE ( )  B_SPLINE_CURVE ( 3, ( #230, #342, #262, #155 ),
 .UNSPECIFIED., .F., .F. ) 
 B_SPLINE_CURVE_WITH_KNOTS ( ( 4, 4 ),
 ( 3.141592653589793116, 6.283185307179586232 ),
 .UNSPECIFIED. ) 
 CURVE ( )  GEOMETRIC_REPRESENTATION_ITEM ( )  RATIONAL_B_SPLINE_CURVE ( ( 1.000000000000000000, 0.3333333333333333703, 0.3333333333333333703, 1.000000000000000000 ) ) 
 REPRESENTATION_ITEM ( '' )  );
#127 = CARTESIAN_POINT ( 'NONE',  ( -18.00000000000000711, 0.000000000000000000, 38.70000000000000995 ) ) ;
#128 = COORDINATED_UNIVERSAL_TIME_OFFSET ( 5, 30, .AHEAD. ) ;
#129 = CARTESIAN_POINT ( 'NONE',  ( 12.00000000000003730, 3.673940397442051289E-15, 40.80000000000001137 ) ) ;
#130 = ORIENTED_EDGE ( 'NONE', *, *, #345, .T. ) ;
#131 = EDGE_CURVE ( 'NONE', #178, #334, #336, .T. ) ;
#132 = VECTOR ( 'NONE', #139, 1000.000000000000000 ) ;
#133 = LINE ( 'NONE', #276, #313 ) ;
#134 = CARTESIAN_POINT ( 'NONE',  ( -19.99999999999999645, -12.50000000000000178, 45.00000000000000000 ) ) ;
#135 = COORDINATED_UNIVERSAL_TIME_OFFSET ( 5, 30, .AHEAD. ) ;
#136 = CARTESIAN_POINT ( 'NONE',  ( -18.00000000000000711, 0.000000000000000000, 38.70000000000000995 ) ) ;
#137 = COORDINATED_UNIVERSAL_TIME_OFFSET ( 5, 30, .AHEAD. ) ;
#138 = PRODUCT_DEFINITION_SHAPE ( 'NONE', 'NONE',  #225 ) ;
#139 = DIRECTION ( 'NONE',  ( -0.000000000000000000, 1.000000000000000000, -0.000000000000000000 ) ) ;
#140 = EDGE_CURVE ( 'NONE', #159, #156, #388, .T. ) ;
#141 = LINE ( 'NONE', #186, #249 ) ;
#142 = ORIENTED_EDGE ( 'NONE', *, *, #400, .T. ) ;
#143 = LINE ( 'NONE', #103, #363 ) ;
#144 = EDGE_LOOP ( 'NONE', ( #16, #181, #380, #418 ) ) ;
#145 = EDGE_CURVE ( 'NONE', #455, #223, #59, .T. ) ;
#146 = DIRECTION ( 'NONE',  ( -0.000000000000000000, 1.000000000000000000, -0.000000000000000000 ) ) ;
#147 = VECTOR ( 'NONE', #52, 1000.000000000000000 ) ;
#148 = DIRECTION ( 'NONE',  ( 0.9701425001453319874, 0.2425356250363328026, 0.000000000000000000 ) ) ;
#149 = CARTESIAN_POINT ( 'NONE',  ( -14.03118040089087160, -32.50000000000000000, 40.08908685968821572 ) ) ;
#150 = DIRECTION ( 'NONE',  ( 0.000000000000000000, 0.000000000000000000, -1.000000000000000000 ) ) ;
#151 = DIRECTION ( 'NONE',  ( 0.000000000000000000, 0.000000000000000000, -1.000000000000000000 ) ) ;
#152 = VECTOR ( 'NONE', #14, 1000.000000000000000 ) ;
#153 = ORIENTED_EDGE ( 'NONE', *, *, #191, .F. ) ;
#154 = DIRECTION ( 'NONE',  ( -0.9701425001453297670, 0.2425356250363414345, 0.000000000000000000 ) ) ;
#155 = CARTESIAN_POINT ( 'NONE',  ( -12.00000000000000355, 3.673940397442060854E-16, 4.200000000000001954 ) ) ;
#156 = VERTEX_POINT ( 'NONE', #281 ) ;
#157 = FACE_OUTER_BOUND ( 'NONE', #200, .T. ) ;
#158 = FACE_BOUND ( 'NONE', #13, .T. ) ;
#159 = VERTEX_POINT ( 'NONE', #176 ) ;
#160 = EDGE_LOOP ( 'NONE', ( #153, #193, #359, #307 ) ) ;
#161 = VECTOR ( 'NONE', #151, 1000.000000000000000 ) ;
#162 = PLANE ( 'NONE',  #373 ) ;
#163 = VERTEX_POINT ( 'NONE', #284 ) ;
#164 = DIRECTION ( 'NONE',  ( 0.000000000000000000, 0.000000000000000000, -1.000000000000000000 ) ) ;
#165 = CYLINDRICAL_SURFACE ( 'NONE', #37, 3.000000000000000888 ) ;
#166 = DATE_AND_TIME ( #348, #297 ) ;
#167 = CARTESIAN_POINT ( 'NONE',  ( 1.604619215278546562E-14, -12.49999999999999822, 45.00000000000000000 ) ) ;
#168 = EDGE_LOOP ( 'NONE', ( #130, #448, #11, #329 ) ) ;
#169 = VECTOR ( 'NONE', #422, 1000.000000000000114 ) ;
#170 = APPROVAL_PERSON_ORGANIZATION ( #208, #471, #94 ) ;
#171 = PERSON_AND_ORGANIZATION_ROLE ( 'creator' ) ;
#172 = DIRECTION ( 'NONE',  ( 0.000000000000000000, -1.000000000000000000, 0.000000000000000000 ) ) ;
#173 = EDGE_CURVE ( 'NONE', #205, #227, #245, .T. ) ;
#174 = APPROVAL_ROLE ( '' ) ;
#175 = LINE ( 'NONE', #246, #187 ) ;
#176 = CARTESIAN_POINT ( 'NONE',  ( -19.99999999999999645, -7.499999999999995559, 6.999999999999999112 ) ) ;
#177 = ADVANCED_FACE ( 'NONE', ( #28 ), #214, .F. ) ;
#178 = VERTEX_POINT ( 'NONE', #311 ) ;
#179 = FACE_OUTER_BOUND ( 'NONE', #15, .T. ) ;
#180 = APPROVAL_PERSON_ORGANIZATION ( #271, #375, #235 ) ;
#181 = ORIENTED_EDGE ( 'NONE', *, *, #255, .F. ) ;
#182 = DIRECTION ( 'NONE',  ( 0.3303504247281061623, 0.000000000000000000, -0.9438583563660174480 ) ) ;
#183 = ORIENTED_EDGE ( 'NONE', *, *, #324, .T. ) ;
#184 = ORIENTED_EDGE ( 'NONE', *, *, #260, .F. ) ;
#185 = LINE ( 'NONE', #323, #283 ) ;
#186 = CARTESIAN_POINT ( 'NONE',  ( 9.493670886076264637, 10.12658227848085168, 3.322784810126693245 ) ) ;
#187 = VECTOR ( 'NONE', #445, 1000.000000000000227 ) ;
#188 = APPROVAL_PERSON_ORGANIZATION ( #429, #119, #174 ) ;
#189 = CC_DESIGN_DATE_AND_TIME_ASSIGNMENT ( #346, #60, ( #225 ) ) ;
#190 = CARTESIAN_POINT ( 'NONE',  ( 12.00000000000003730, 3.673940397442051289E-15, 4.200000000000016165 ) ) ;
#191 = EDGE_CURVE ( 'NONE', #41, #205, #390, .T. ) ;
#192 = CARTESIAN_POINT ( 'NONE',  ( -12.00000000000000355, 3.673940397442060854E-16, 45.00000000000000000 ) ) ;
#193 = ORIENTED_EDGE ( 'NONE', *, *, #291, .T. ) ;
#194 = LINE ( 'NONE', #42, #169 ) ;
#195 = AXIS2_PLACEMENT_3D ( 'NONE', #149, #182, #440 ) ;
#196 = EDGE_LOOP ( 'NONE', ( #407, #47, #76, #4 ) ) ;
#197 = AXIS2_PLACEMENT_3D ( 'NONE', #381, #257, #77 ) ;
#198 = PERSON ( 'UNSPECIFIED', 'UNSPECIFIED', 'UNSPECIFIED', ('UNSPECIFIED'), ('UNSPECIFIED'), ('UNSPECIFIED') ) ;
#199 = CARTESIAN_POINT ( 'NONE',  ( 12.00000000000003553, -5.999999999999995559, 4.200000000000017941 ) ) ;
#200 = EDGE_LOOP ( 'NONE', ( #452, #460, #48, #232 ) ) ;
#201 = DIRECTION ( 'NONE',  ( 0.3303504247281061623, 0.000000000000000000, 0.9438583563660174480 ) ) ;
#202 = EDGE_LOOP ( 'NONE', ( #231, #51, #383, #264 ) ) ;
#203 = FACE_OUTER_BOUND ( 'NONE', #370, .T. ) ;
#204 = DIRECTION ( 'NONE',  ( -1.000000000000000000, 0.000000000000000000, 0.000000000000000000 ) ) ;
#205 = VERTEX_POINT ( 'NONE', #384 ) ;
#206 = PERSON_AND_ORGANIZATION_ROLE ( 'classification_officer' ) ;
#207 = CARTESIAN_POINT ( 'NONE',  ( 18.00000000000003553, -5.999999999999996447, 38.70000000000000284 ) ) ;
#208 = PERSON_AND_ORGANIZATION ( #198, #428 ) ;
#209 =( BOUNDED_CURVE ( )  B_SPLINE_CURVE ( 3, ( #136, #212, #236, #98 ),
 .UNSPECIFIED., .F., .F. ) 
 B_SPLINE_CURVE_WITH_KNOTS ( ( 4, 4 ),
 ( 0.000000000000000000, 3.141592653589793116 ),
 .UNSPECIFIED. ) 
 CURVE ( )  GEOMETRIC_REPRESENTATION_ITEM ( )  RATIONAL_B_SPLINE_CURVE ( ( 1.000000000000000000, 0.3333333333333333703, 0.3333333333333333703, 1.000000000000000000 ) ) 
 REPRESENTATION_ITEM ( '' )  );
#210 = CC_DESIGN_APPROVAL ( #119, ( #274 ) ) ;
#211 = COORDINATED_UNIVERSAL_TIME_OFFSET ( 5, 30, .AHEAD. ) ;
#212 = CARTESIAN_POINT ( 'NONE',  ( -18.00000000000000711, -6.000000000000003553, 38.70000000000000995 ) ) ;
#213 = APPLICATION_PROTOCOL_DEFINITION ( 'international standard', 'config_control_design', 1994, #7 ) ;
#214 = CYLINDRICAL_SURFACE ( 'NONE', #350, 2.999999999999999112 ) ;
#215 = FACE_BOUND ( 'NONE', #267, .T. ) ;
#216 = EDGE_CURVE ( 'NONE', #457, #78, #253, .T. ) ;
#217 = CARTESIAN_POINT ( 'NONE',  ( 15.00000000000003553, 3.673940397442051289E-15, 45.00000000000000000 ) ) ;
#218 = CARTESIAN_POINT ( 'NONE',  ( 18.00000000000003553, 4.041334437186257523E-15, 38.70000000000000284 ) ) ;
#219 = DIRECTION ( 'NONE',  ( -0.9186304243492506849, 0.2296576060873124769, 0.3215206485222378285 ) ) ;
#220 = ORIENTED_EDGE ( 'NONE', *, *, #403, .F. ) ;
#221 = DIRECTION ( 'NONE',  ( 0.2425356250363414345, 0.9701425001453297670, 0.000000000000000000 ) ) ;
#222 =( GEOMETRIC_REPRESENTATION_CONTEXT ( 3 ) GLOBAL_UNCERTAINTY_ASSIGNED_CONTEXT ( ( #110 ) ) GLOBAL_UNIT_ASSIGNED_CONTEXT ( ( #333, #233, #82 ) ) REPRESENTATION_CONTEXT ( 'NONE', 'WORKASPACE' ) );
#223 = VERTEX_POINT ( 'NONE', #167 ) ;
#224 = ORIENTED_EDGE ( 'NONE', *, *, #286, .T. ) ;
#225 = PRODUCT_DEFINITION ( 'UNKNOWN', '', #274, #465 ) ;
#226 = CARTESIAN_POINT ( 'NONE',  ( 1.561251128379126385E-14, 12.49999999999999645, 45.00000000000000000 ) ) ;
#227 = VERTEX_POINT ( 'NONE', #317 ) ;
#228 = MECHANICAL_CONTEXT ( 'NONE', #453, 'mechanical' ) ;
#229 = EDGE_CURVE ( 'NONE', #331, #57, #133, .T. ) ;
#230 = CARTESIAN_POINT ( 'NONE',  ( -18.00000000000000711, 0.000000000000000000, 6.300000000000006928 ) ) ;
#231 = ORIENTED_EDGE ( 'NONE', *, *, #403, .T. ) ;
#232 = ORIENTED_EDGE ( 'NONE', *, *, #462, .F. ) ;
#233 =( NAMED_UNIT ( * ) PLANE_ANGLE_UNIT ( ) SI_UNIT ( $, .RADIAN. ) );
#234 = VERTEX_POINT ( 'NONE', #349 ) ;
#235 = APPROVAL_ROLE ( '' ) ;
#236 = CARTESIAN_POINT ( 'NONE',  ( -12.00000000000000178, -6.000000000000003553, 40.80000000000001847 ) ) ;
#237 = CARTESIAN_POINT ( 'NONE',  ( -18.00000000000000711, 0.000000000000000000, 45.00000000000000000 ) ) ;
#238 = VECTOR ( 'NONE', #469, 1000.000000000000000 ) ;
#239 = VECTOR ( 'NONE', #150, 1000.000000000000000 ) ;
#240 = EDGE_CURVE ( 'NONE', #331, #223, #143, .T. ) ;
#241 = APPROVAL_STATUS ( 'not_yet_approved' ) ;
#242 = CARTESIAN_POINT ( 'NONE',  ( -20.00000000000000355, 7.499999999999998224, 38.00000000000001421 ) ) ;
#243 = AXIS2_PLACEMENT_3D ( 'NONE', #134, #475, #436 ) ;
#244 = SECURITY_CLASSIFICATION_LEVEL ( 'unclassified' ) ;
#245 = LINE ( 'NONE', #398, #30 ) ;
#246 = CARTESIAN_POINT ( 'NONE',  ( -9.071729957805912292, -10.23206751054851082, 41.82489451476795495 ) ) ;
#247 = DIRECTION ( 'NONE',  ( -0.9186304243492489086, -0.2296576060873207203, 0.3215206485222371069 ) ) ;
#248 = CARTESIAN_POINT ( 'NONE',  ( 18.00000000000003553, 6.000000000000003553, 6.300000000000021139 ) ) ;
#249 = VECTOR ( 'NONE', #327, 1000.000000000000114 ) ;
#250 = DIRECTION ( 'NONE',  ( 0.9438583563660173370, 0.000000000000000000, 0.3303504247281061623 ) ) ;
#251 = PLANE ( 'NONE',  #409 ) ;
#252 = EDGE_CURVE ( 'NONE', #227, #163, #305, .T. ) ;
#253 =( BOUNDED_CURVE ( )  B_SPLINE_CURVE ( 3, ( #468, #354, #391, #55 ),
 .UNSPECIFIED., .F., .F. ) 
 B_SPLINE_CURVE_WITH_KNOTS ( ( 4, 4 ),
 ( 3.141592653589793116, 6.283185307179586232 ),
 .UNSPECIFIED. ) 
 CURVE ( )  GEOMETRIC_REPRESENTATION_ITEM ( )  RATIONAL_B_SPLINE_CURVE ( ( 1.000000000000000000, 0.3333333333333333703, 0.3333333333333333703, 1.000000000000000000 ) ) 
 REPRESENTATION_ITEM ( '' )  );
#254 = PLANE ( 'NONE',  #45 ) ;
#255 = EDGE_CURVE ( 'NONE', #331, #34, #31, .T. ) ;
#256 = ORIENTED_EDGE ( 'NONE', *, *, #131, .F. ) ;
#257 = DIRECTION ( 'NONE',  ( 0.000000000000000000, 0.000000000000000000, 1.000000000000000000 ) ) ;
#258 = VECTOR ( 'NONE', #172, 1000.000000000000000 ) ;
#259 = ORIENTED_EDGE ( 'NONE', *, *, #70, .F. ) ;
#260 = EDGE_CURVE ( 'NONE', #205, #41, #351, .T. ) ;
#261 = CARTESIAN_POINT ( 'NONE',  ( 2.941176470588331870, -11.76470588235289227, 45.00000000000000000 ) ) ;
#262 = CARTESIAN_POINT ( 'NONE',  ( -12.00000000000000178, -6.000000000000001776, 4.200000000000002842 ) ) ;
#263 = ORIENTED_EDGE ( 'NONE', *, *, #173, .T. ) ;
#264 = ORIENTED_EDGE ( 'NONE', *, *, #324, .F. ) ;
#265 = CARTESIAN_POINT ( 'NONE',  ( 20.00000000000000355, -12.50000000000000178, 45.00000000000000000 ) ) ;
#266 = CARTESIAN_POINT ( 'NONE',  ( 20.00000000000008882, -7.499999999999796607, 7.000000000000040856 ) ) ;
#267 = EDGE_LOOP ( 'NONE', ( #270, #338 ) ) ;
#268 = DIRECTION ( 'NONE',  ( -0.9701425001453297670, -0.2425356250363414345, 0.000000000000000000 ) ) ;
#269 = CARTESIAN_POINT ( 'NONE',  ( -20.00000000000000355, -7.499999999999993783, 38.00000000000002132 ) ) ;
#270 = ORIENTED_EDGE ( 'NONE', *, *, #120, .F. ) ;
#271 = PERSON_AND_ORGANIZATION ( #198, #428 ) ;
#272 = ADVANCED_FACE ( 'NONE', ( #215, #328 ), #33, .F. ) ;
#273 = VECTOR ( 'NONE', #296, 1000.000000000000114 ) ;
#274 = PRODUCT_DEFINITION_FORMATION_WITH_SPECIFIED_SOURCE ( 'ANY', '', #417, .NOT_KNOWN. ) ;
#275 = PERSON_AND_ORGANIZATION ( #198, #428 ) ;
#276 = CARTESIAN_POINT ( 'NONE',  ( 20.00000000000008171, -7.499999999999797495, 45.00000000000000000 ) ) ;
#277 = ORIENTED_EDGE ( 'NONE', *, *, #252, .F. ) ;
#278 = DATE_TIME_ROLE ( 'classification_date' ) ;
#279 = FACE_OUTER_BOUND ( 'NONE', #304, .T. ) ;
#280 = CALENDAR_DATE ( 2026, 19, 9 ) ;
#281 = CARTESIAN_POINT ( 'NONE',  ( -20.00000000000000355, 7.499999999999997335, 7.000000000000000888 ) ) ;
#282 = DIRECTION ( 'NONE',  ( 0.000000000000000000, 0.000000000000000000, -1.000000000000000000 ) ) ;
#283 = VECTOR ( 'NONE', #104, 1000.000000000000000 ) ;
#284 = CARTESIAN_POINT ( 'NONE',  ( 18.00000000000003553, 4.041334437186257523E-15, 6.300000000000021139 ) ) ;
#285 = EDGE_CURVE ( 'NONE', #234, #159, #355, .T. ) ;
#286 = EDGE_CURVE ( 'NONE', #34, #113, #399, .T. ) ;
#287 = FACE_BOUND ( 'NONE', #90, .T. ) ;
#288 = VERTEX_POINT ( 'NONE', #325 ) ;
#289 = CARTESIAN_POINT ( 'NONE',  ( 20.00000000000008171, 7.499999999999797495, 45.00000000000000000 ) ) ;
#290 = ADVANCED_FACE ( 'NONE', ( #365, #481 ), #36, .F. ) ;
#291 = EDGE_CURVE ( 'NONE', #41, #163, #185, .T. ) ;
#292 = DIRECTION ( 'NONE',  ( -0.3303504247281062178, 0.000000000000000000, -0.9438583563660174480 ) ) ;
#293 = CYLINDRICAL_SURFACE ( 'NONE', #84, 2.999999999999999112 ) ;
#294 = EDGE_LOOP ( 'NONE', ( #277, #421 ) ) ;
#295 = PLANE ( 'NONE',  #426 ) ;
#296 = DIRECTION ( 'NONE',  ( -0.9186304243492489086, 0.2296576060873207203, 0.3215206485222371069 ) ) ;
#297 = LOCAL_TIME ( 12, 8, 31.00000000000000000, #128 ) ;
#298 = ORIENTED_EDGE ( 'NONE', *, *, #191, .T. ) ;
#299 = DIRECTION ( 'NONE',  ( 0.000000000000000000, 0.000000000000000000, 1.000000000000000000 ) ) ;
#300 = LINE ( 'NONE', #337, #161 ) ;
#301 = ORIENTED_EDGE ( 'NONE', *, *, #145, .F. ) ;
#302 = DIRECTION ( 'NONE',  ( -0.2425356250363414345, 0.9701425001453297670, 0.000000000000000000 ) ) ;
#303 = PLANE ( 'NONE',  #419 ) ;
#304 = EDGE_LOOP ( 'NONE', ( #118, #26, #8, #256 ) ) ;
#305 =( BOUNDED_CURVE ( )  B_SPLINE_CURVE ( 3, ( #190, #326, #248, #1 ),
 .UNSPECIFIED., .F., .T. ) 
 B_SPLINE_CURVE_WITH_KNOTS ( ( 4, 4 ),
 ( 0.000000000000000000, 3.141592653589793116 ),
 .UNSPECIFIED. ) 
 CURVE ( )  GEOMETRIC_REPRESENTATION_ITEM ( )  RATIONAL_B_SPLINE_CURVE ( ( 1.000000000000000000, 0.3333333333333333703, 0.3333333333333333703, 1.000000000000000000 ) ) 
 REPRESENTATION_ITEM ( '' )  );
#306 = DIRECTION ( 'NONE',  ( 0.9438583563660173370, 0.000000000000000000, -0.3303504247281061068 ) ) ;
#307 = ORIENTED_EDGE ( 'NONE', *, *, #173, .F. ) ;
#308 = CC_DESIGN_APPROVAL ( #471, ( #459 ) ) ;
#309 = EDGE_LOOP ( 'NONE', ( #32, #340, #95, #361 ) ) ;
#310 = MANIFOLD_SOLID_BREP ( 'Cut-Extrude3', #356 ) ;
#311 = CARTESIAN_POINT ( 'NONE',  ( -12.00000000000000355, 3.673940397442060854E-16, 4.200000000000001954 ) ) ;
#312 = ADVANCED_FACE ( 'NONE', ( #287, #179 ), #295, .T. ) ;
#313 = VECTOR ( 'NONE', #61, 1000.000000000000000 ) ;
#314 = EDGE_CURVE ( 'NONE', #113, #288, #141, .T. ) ;
#315 = LOCAL_TIME ( 12, 8, 31.00000000000000000, #392 ) ;
#316 = PERSON_AND_ORGANIZATION ( #198, #428 ) ;
#317 = CARTESIAN_POINT ( 'NONE',  ( 12.00000000000003730, 3.673940397442051289E-15, 4.200000000000016165 ) ) ;
#318 = PERSON_AND_ORGANIZATION_ROLE ( 'design_owner' ) ;
#319 = CARTESIAN_POINT ( 'NONE',  ( -12.00000000000000178, 6.000000000000001776, 4.200000000000002842 ) ) ;
#320 = CARTESIAN_POINT ( 'NONE',  ( -9.493670886075941340, 10.12658227848101156, 3.322784810126580446 ) ) ;
#321 = ORIENTED_EDGE ( 'NONE', *, *, #131, .T. ) ;
#322 = AXIS2_PLACEMENT_3D ( 'NONE', #261, #302, #268 ) ;
#323 = CARTESIAN_POINT ( 'NONE',  ( 18.00000000000003553, 4.041334437186257523E-15, 45.00000000000000000 ) ) ;
#324 = EDGE_CURVE ( 'NONE', #455, #125, #443, .T. ) ;
#325 = CARTESIAN_POINT ( 'NONE',  ( 0.000000000000000000, 12.49999999999999822, 0.000000000000000000 ) ) ;
#326 = CARTESIAN_POINT ( 'NONE',  ( 12.00000000000003553, 6.000000000000001776, 4.200000000000017941 ) ) ;
#327 = DIRECTION ( 'NONE',  ( -0.9186304243492489086, 0.2296576060873207481, -0.3215206485222371624 ) ) ;
#328 = FACE_OUTER_BOUND ( 'NONE', #122, .T. ) ;
#329 = ORIENTED_EDGE ( 'NONE', *, *, #400, .F. ) ;
#330 = DIRECTION ( 'NONE',  ( 0.9701425001453319874, -0.2425356250363328026, 0.000000000000000000 ) ) ;
#331 = VERTEX_POINT ( 'NONE', #109 ) ;
#332 = VECTOR ( 'NONE', #282, 1000.000000000000000 ) ;
#333 =( LENGTH_UNIT ( ) NAMED_UNIT ( * ) SI_UNIT ( .MILLI., .METRE. ) );
#334 = VERTEX_POINT ( 'NONE', #439 ) ;
#335 = LINE ( 'NONE', #226, #152 ) ;
#336 =( BOUNDED_CURVE ( )  B_SPLINE_CURVE ( 3, ( #434, #319, #430, #477 ),
 .UNSPECIFIED., .F., .F. ) 
 B_SPLINE_CURVE_WITH_KNOTS ( ( 4, 4 ),
 ( 0.000000000000000000, 3.141592653589793116 ),
 .UNSPECIFIED. ) 
 CURVE ( )  GEOMETRIC_REPRESENTATION_ITEM ( )  RATIONAL_B_SPLINE_CURVE ( ( 1.000000000000000000, 0.3333333333333333703, 0.3333333333333333703, 1.000000000000000000 ) ) 
 REPRESENTATION_ITEM ( '' )  );
#337 = CARTESIAN_POINT ( 'NONE',  ( 1.604619215278546562E-14, -12.49999999999999822, 45.00000000000000000 ) ) ;
#338 = ORIENTED_EDGE ( 'NONE', *, *, #216, .F. ) ;
#339 = FACE_OUTER_BOUND ( 'NONE', #309, .T. ) ;
#340 = ORIENTED_EDGE ( 'NONE', *, *, #435, .T. ) ;
#341 = ADVANCED_FACE ( 'NONE', ( #69 ), #251, .F. ) ;
#342 = CARTESIAN_POINT ( 'NONE',  ( -18.00000000000001066, -6.000000000000001776, 6.300000000000007816 ) ) ;
#343 = VECTOR ( 'NONE', #73, 1000.000000000000000 ) ;
#344 = ORIENTED_EDGE ( 'NONE', *, *, #252, .T. ) ;
#345 = EDGE_CURVE ( 'NONE', #87, #125, #446, .T. ) ;
#346 = DATE_AND_TIME ( #280, #364 ) ;
#347 = CARTESIAN_POINT ( 'NONE',  ( 15.00000000000003553, 3.673940397442051289E-15, 45.00000000000000000 ) ) ;
#348 = CALENDAR_DATE ( 2026, 19, 9 ) ;
#349 = CARTESIAN_POINT ( 'NONE',  ( 1.604619215278546562E-14, -12.49999999999999822, 0.000000000000000000 ) ) ;
#350 = AXIS2_PLACEMENT_3D ( 'NONE', #347, #164, #24 ) ;
#351 =( BOUNDED_CURVE ( )  B_SPLINE_CURVE ( 3, ( #360, #67, #65, #218 ),
 .UNSPECIFIED., .F., .F. ) 
 B_SPLINE_CURVE_WITH_KNOTS ( ( 4, 4 ),
 ( 3.141592653589793116, 6.283185307179586232 ),
 .UNSPECIFIED. ) 
 CURVE ( )  GEOMETRIC_REPRESENTATION_ITEM ( )  RATIONAL_B_SPLINE_CURVE ( ( 1.000000000000000000, 0.3333333333333333703, 0.3333333333333333703, 1.000000000000000000 ) ) 
 REPRESENTATION_ITEM ( '' )  );
#352 = ADVANCED_FACE ( 'NONE', ( #38 ), #254, .T. ) ;
#353 = APPROVAL_STATUS ( 'not_yet_approved' ) ;
#354 = CARTESIAN_POINT ( 'NONE',  ( -12.00000000000000178, 6.000000000000003553, 40.80000000000001847 ) ) ;
#355 = LINE ( 'NONE', #362, #467 ) ;
#356 = CLOSED_SHELL ( 'NONE', ( #43, #35, #447, #290, #86, #21, #272, #312, #438, #341, #352, #368, #124, #177 ) ) ;
#357 = CARTESIAN_POINT ( 'NONE',  ( 0.000000000000000000, -32.50000000000000000, 0.000000000000000000 ) ) ;
#358 = EDGE_CURVE ( 'NONE', #163, #227, #72, .T. ) ;
#359 = ORIENTED_EDGE ( 'NONE', *, *, #358, .T. ) ;
#360 = CARTESIAN_POINT ( 'NONE',  ( 12.00000000000003730, 3.673940397442051289E-15, 40.80000000000001137 ) ) ;
#361 = ORIENTED_EDGE ( 'NONE', *, *, #240, .F. ) ;
#362 = CARTESIAN_POINT ( 'NONE',  ( 4.219409282700421926, -13.55485232067509394, -1.476793248945147852 ) ) ;
#363 = VECTOR ( 'NONE', #247, 1000.000000000000114 ) ;
#364 = LOCAL_TIME ( 12, 8, 31.00000000000000000, #137 ) ;
#365 = FACE_BOUND ( 'NONE', #294, .T. ) ;
#366 = CARTESIAN_POINT ( 'NONE',  ( 18.00000000000003553, 4.041334437186257523E-15, 38.70000000000000284 ) ) ;
#367 = ORIENTED_EDGE ( 'NONE', *, *, #462, .T. ) ;
#368 = ADVANCED_FACE ( 'NONE', ( #157 ), #420, .F. ) ;
#369 = APPLICATION_PROTOCOL_DEFINITION ( 'international standard', 'config_control_design', 1994, #453 ) ;
#370 = EDGE_LOOP ( 'NONE', ( #463, #142, #112, #259 ) ) ;
#371 = CARTESIAN_POINT ( 'NONE',  ( -12.00000000000000355, 3.673940397442060854E-16, 40.80000000000001847 ) ) ;
#372 = ORIENTED_EDGE ( 'NONE', *, *, #140, .T. ) ;
#373 = AXIS2_PLACEMENT_3D ( 'NONE', #265, #46, #299 ) ;
#374 = CARTESIAN_POINT ( 'NONE',  ( -20.00000000000000355, -7.499999999999996447, 45.00000000000000000 ) ) ;
#375 = APPROVAL ( #241, 'UNSPECIFIED' ) ;
#376 = CARTESIAN_POINT ( 'NONE',  ( -20.00000000000000355, 7.499999999999996447, 45.00000000000000000 ) ) ;
#377 = ORIENTED_EDGE ( 'NONE', *, *, #395, .F. ) ;
#378 = LINE ( 'NONE', #9, #273 ) ;
#379 = CARTESIAN_POINT ( 'NONE',  ( 14.03118040089087160, -32.50000000000000000, 40.08908685968821572 ) ) ;
#380 = ORIENTED_EDGE ( 'NONE', *, *, #229, .T. ) ;
#381 = CARTESIAN_POINT ( 'NONE',  ( 0.000000000000000000, 0.000000000000000000, 0.000000000000000000 ) ) ;
#382 = CARTESIAN_POINT ( 'NONE',  ( 20.00000000000008171, 7.499999999999796607, 37.99999999999999289 ) ) ;
#383 = ORIENTED_EDGE ( 'NONE', *, *, #79, .F. ) ;
#384 = CARTESIAN_POINT ( 'NONE',  ( 12.00000000000003730, 3.673940397442051289E-15, 40.80000000000001137 ) ) ;
#385 = PLANE ( 'NONE',  #243 ) ;
#386 = VECTOR ( 'NONE', #117, 1000.000000000000000 ) ;
#387 = PERSON_AND_ORGANIZATION ( #198, #428 ) ;
#388 = LINE ( 'NONE', #22, #132 ) ;
#389 = DATE_AND_TIME ( #433, #442 ) ;
#390 =( BOUNDED_CURVE ( )  B_SPLINE_CURVE ( 3, ( #437, #207, #466, #129 ),
 .UNSPECIFIED., .F., .T. ) 
 B_SPLINE_CURVE_WITH_KNOTS ( ( 4, 4 ),
 ( 0.000000000000000000, 3.141592653589793116 ),
 .UNSPECIFIED. ) 
 CURVE ( )  GEOMETRIC_REPRESENTATION_ITEM ( )  RATIONAL_B_SPLINE_CURVE ( ( 1.000000000000000000, 0.3333333333333333703, 0.3333333333333333703, 1.000000000000000000 ) ) 
 REPRESENTATION_ITEM ( '' )  );
#391 = CARTESIAN_POINT ( 'NONE',  ( -18.00000000000000711, 6.000000000000003553, 38.70000000000000995 ) ) ;
#392 = COORDINATED_UNIVERSAL_TIME_OFFSET ( 5, 30, .AHEAD. ) ;
#393 = DIRECTION ( 'NONE',  ( 0.000000000000000000, 0.000000000000000000, -1.000000000000000000 ) ) ;
#394 = LINE ( 'NONE', #320, #238 ) ;
#395 = EDGE_CURVE ( 'NONE', #57, #113, #80, .T. ) ;
#396 = CC_DESIGN_APPROVAL ( #375, ( #225 ) ) ;
#397 = APPROVAL_DATE_TIME ( #96, #119 ) ;
#398 = CARTESIAN_POINT ( 'NONE',  ( 12.00000000000003730, 3.673940397442051289E-15, 45.00000000000000000 ) ) ;
#399 = LINE ( 'NONE', #289, #450 ) ;
#400 = EDGE_CURVE ( 'NONE', #87, #159, #121, .T. ) ;
#401 = CARTESIAN_POINT ( 'NONE',  ( -22.78481012658227556, 6.803797468354431999, 37.02531645569622043 ) ) ;
#402 = ADVANCED_BREP_SHAPE_REPRESENTATION ( 'Part4_Default_sldprt', ( #310, #197 ), #222 ) ;
#403 = EDGE_CURVE ( 'NONE', #455, #288, #335, .T. ) ;
#404 = CARTESIAN_POINT ( 'NONE',  ( 0.000000000000000000, -32.50000000000000000, 0.000000000000000000 ) ) ;
#405 = CARTESIAN_POINT ( 'NONE',  ( -2.941176470588231506, 11.76470588235293668, 45.00000000000000000 ) ) ;
#406 = CARTESIAN_POINT ( 'NONE',  ( 2.941176470588331870, 11.76470588235289227, 45.00000000000000000 ) ) ;
#407 = ORIENTED_EDGE ( 'NONE', *, *, #120, .T. ) ;
#408 = PRODUCT_RELATED_PRODUCT_CATEGORY ( 'detail', '', ( #417 ) ) ;
#409 = AXIS2_PLACEMENT_3D ( 'NONE', #405, #3, #148 ) ;
#410 = FACE_OUTER_BOUND ( 'NONE', #160, .T. ) ;
#411 = ORIENTED_EDGE ( 'NONE', *, *, #68, .T. ) ;
#412 = CARTESIAN_POINT ( 'NONE',  ( 20.00000000000001066, -32.50000000000000000, 7.000000000000002665 ) ) ;
#413 = ORIENTED_EDGE ( 'NONE', *, *, #314, .F. ) ;
#414 = EDGE_CURVE ( 'NONE', #457, #178, #416, .T. ) ;
#415 = CC_DESIGN_PERSON_AND_ORGANIZATION_ASSIGNMENT ( #91, #171, ( #225 ) ) ;
#416 = LINE ( 'NONE', #192, #449 ) ;
#417 = PRODUCT ( 'Part4_Default_sldprt', 'Part4_Default_sldprt', '', ( #228 ) ) ;
#418 = ORIENTED_EDGE ( 'NONE', *, *, #395, .T. ) ;
#419 = AXIS2_PLACEMENT_3D ( 'NONE', #379, #201, #306 ) ;
#420 = PLANE ( 'NONE',  #322 ) ;
#421 = ORIENTED_EDGE ( 'NONE', *, *, #358, .F. ) ;
#422 = DIRECTION ( 'NONE',  ( -0.9186304243492489086, -0.2296576060873207481, -0.3215206485222371624 ) ) ;
#423 = EDGE_LOOP ( 'NONE', ( #413, #377, #367, #39 ) ) ;
#424 = ORIENTED_EDGE ( 'NONE', *, *, #40, .F. ) ;
#425 = CALENDAR_DATE ( 2026, 19, 9 ) ;
#426 = AXIS2_PLACEMENT_3D ( 'NONE', #404, #292, #479 ) ;
#427 = LINE ( 'NONE', #97, #147 ) ;
#428 = ORGANIZATION ( 'UNSPECIFIED', 'UNSPECIFIED', '' ) ;
#429 = PERSON_AND_ORGANIZATION ( #198, #428 ) ;
#430 = CARTESIAN_POINT ( 'NONE',  ( -18.00000000000001066, 6.000000000000001776, 6.300000000000007816 ) ) ;
#431 = CARTESIAN_POINT ( 'NONE',  ( -15.00000000000000533, 0.000000000000000000, 45.00000000000000000 ) ) ;
#432 = APPROVAL_DATE_TIME ( #166, #471 ) ;
#433 = CALENDAR_DATE ( 2026, 19, 9 ) ;
#434 = CARTESIAN_POINT ( 'NONE',  ( -12.00000000000000355, 3.673940397442060854E-16, 4.200000000000001954 ) ) ;
#435 = EDGE_CURVE ( 'NONE', #34, #455, #378, .T. ) ;
#436 = DIRECTION ( 'NONE',  ( 0.000000000000000000, 0.000000000000000000, -1.000000000000000000 ) ) ;
#437 = CARTESIAN_POINT ( 'NONE',  ( 18.00000000000003553, 4.041334437186257523E-15, 38.70000000000000284 ) ) ;
#438 = ADVANCED_FACE ( 'NONE', ( #203 ), #88, .T. ) ;
#439 = CARTESIAN_POINT ( 'NONE',  ( -18.00000000000000711, 0.000000000000000000, 6.300000000000006928 ) ) ;
#440 = DIRECTION ( 'NONE',  ( -0.9438583563660173370, 0.000000000000000000, -0.3303504247281061068 ) ) ;
#441 = DIRECTION ( 'NONE',  ( 0.000000000000000000, 0.000000000000000000, -1.000000000000000000 ) ) ;
#442 = LOCAL_TIME ( 12, 8, 31.00000000000000000, #211 ) ;
#443 = LINE ( 'NONE', #401, #75 ) ;
#444 = ORIENTED_EDGE ( 'NONE', *, *, #285, .T. ) ;
#445 = DIRECTION ( 'NONE',  ( -0.9186304243492506849, 0.2296576060873124769, -0.3215206485222377175 ) ) ;
#446 = LINE ( 'NONE', #111, #343 ) ;
#447 = ADVANCED_FACE ( 'NONE', ( #456 ), #162, .F. ) ;
#448 = ORIENTED_EDGE ( 'NONE', *, *, #79, .T. ) ;
#449 = VECTOR ( 'NONE', #451, 1000.000000000000000 ) ;
#450 = VECTOR ( 'NONE', #106, 1000.000000000000000 ) ;
#451 = DIRECTION ( 'NONE',  ( 0.000000000000000000, 0.000000000000000000, -1.000000000000000000 ) ) ;
#452 = ORIENTED_EDGE ( 'NONE', *, *, #229, .F. ) ;
#453 = APPLICATION_CONTEXT ( 'configuration controlled 3d designs of mechanical parts and assemblies' ) ;
#454 = LINE ( 'NONE', #376, #100 ) ;
#455 = VERTEX_POINT ( 'NONE', #85 ) ;
#456 = FACE_OUTER_BOUND ( 'NONE', #144, .T. ) ;
#457 = VERTEX_POINT ( 'NONE', #371 ) ;
#458 = DIRECTION ( 'NONE',  ( -0.2425356250363328026, -0.9701425001453319874, 0.000000000000000000 ) ) ;
#459 = SECURITY_CLASSIFICATION ( '', '', #244 ) ;
#460 = ORIENTED_EDGE ( 'NONE', *, *, #240, .T. ) ;
#461 = APPROVAL_DATE_TIME ( #464, #375 ) ;
#462 = EDGE_CURVE ( 'NONE', #57, #234, #194, .T. ) ;
#463 = ORIENTED_EDGE ( 'NONE', *, *, #2, .T. ) ;
#464 = DATE_AND_TIME ( #425, #123 ) ;
#465 = DESIGN_CONTEXT ( 'detailed design', #7, 'design' ) ;
#466 = CARTESIAN_POINT ( 'NONE',  ( 12.00000000000003553, -5.999999999999996447, 40.80000000000001137 ) ) ;
#467 = VECTOR ( 'NONE', #219, 1000.000000000000000 ) ;
#468 = CARTESIAN_POINT ( 'NONE',  ( -12.00000000000000355, 3.673940397442060854E-16, 40.80000000000001847 ) ) ;
#469 = DIRECTION ( 'NONE',  ( -0.9186304243492506849, -0.2296576060873124769, 0.3215206485222378285 ) ) ;
#470 = CC_DESIGN_PERSON_AND_ORGANIZATION_ASSIGNMENT ( #316, #318, ( #417 ) ) ;
#471 = APPROVAL ( #353, 'UNSPECIFIED' ) ;
#472 = APPROVAL_STATUS ( 'not_yet_approved' ) ;
#473 = FACE_OUTER_BOUND ( 'NONE', #168, .T. ) ;
#474 = CARTESIAN_POINT ( 'NONE',  ( 0.000000000000000000, 0.000000000000000000, 45.00000000000000000 ) ) ;
#475 = DIRECTION ( 'NONE',  ( 1.000000000000000000, 0.000000000000000000, 0.000000000000000000 ) ) ;
#476 = EDGE_LOOP ( 'NONE', ( #83, #184, #263, #344 ) ) ;
#477 = CARTESIAN_POINT ( 'NONE',  ( -18.00000000000000711, 0.000000000000000000, 6.300000000000006928 ) ) ;
#478 = AXIS2_PLACEMENT_3D ( 'NONE', #62, #393, #101 ) ;
#479 = DIRECTION ( 'NONE',  ( -0.9438583563660173370, 0.000000000000000000, 0.3303504247281061623 ) ) ;
#480 = ORIENTED_EDGE ( 'NONE', *, *, #10, .F. ) ;
#481 = FACE_OUTER_BOUND ( 'NONE', #423, .T. ) ;
ENDSEC;
END-ISO-10303-21;
